G04 #@! TF.GenerationSoftware,KiCad,Pcbnew,5.0.2-bee76a0~70~ubuntu18.04.1*
G04 #@! TF.CreationDate,2019-01-02T21:03:54+01:00*
G04 #@! TF.ProjectId,magic-switchboard,6d616769-632d-4737-9769-746368626f61,v2*
G04 #@! TF.SameCoordinates,Original*
G04 #@! TF.FileFunction,Copper,L2,Bot*
G04 #@! TF.FilePolarity,Positive*
%FSLAX46Y46*%
G04 Gerber Fmt 4.6, Leading zero omitted, Abs format (unit mm)*
G04 Created by KiCad (PCBNEW 5.0.2-bee76a0~70~ubuntu18.04.1) date Mi 02 Jan 2019 21:03:54 CET*
%MOMM*%
%LPD*%
G01*
G04 APERTURE LIST*
G04 #@! TA.AperFunction,ComponentPad*
%ADD10O,1.600000X1.600000*%
G04 #@! TD*
G04 #@! TA.AperFunction,ComponentPad*
%ADD11R,1.600000X1.600000*%
G04 #@! TD*
G04 #@! TA.AperFunction,SMDPad,CuDef*
%ADD12R,8.000000X8.000000*%
G04 #@! TD*
G04 #@! TA.AperFunction,ComponentPad*
%ADD13C,3.000000*%
G04 #@! TD*
G04 #@! TA.AperFunction,ComponentPad*
%ADD14C,1.600000*%
G04 #@! TD*
G04 #@! TA.AperFunction,ComponentPad*
%ADD15R,1.050000X1.500000*%
G04 #@! TD*
G04 #@! TA.AperFunction,ComponentPad*
%ADD16O,1.050000X1.500000*%
G04 #@! TD*
G04 #@! TA.AperFunction,ComponentPad*
%ADD17O,2.400000X2.400000*%
G04 #@! TD*
G04 #@! TA.AperFunction,ComponentPad*
%ADD18C,2.400000*%
G04 #@! TD*
G04 #@! TA.AperFunction,ComponentPad*
%ADD19C,2.000000*%
G04 #@! TD*
G04 #@! TA.AperFunction,ComponentPad*
%ADD20R,2.000000X2.000000*%
G04 #@! TD*
G04 #@! TA.AperFunction,ComponentPad*
%ADD21C,3.048000*%
G04 #@! TD*
G04 #@! TA.AperFunction,ComponentPad*
%ADD22C,1.524000*%
G04 #@! TD*
G04 #@! TA.AperFunction,Conductor*
%ADD23C,0.250000*%
G04 #@! TD*
G04 #@! TA.AperFunction,Conductor*
%ADD24C,0.254000*%
G04 #@! TD*
G04 APERTURE END LIST*
D10*
G04 #@! TO.P,A1,16*
G04 #@! TO.N,N/C*
X97366000Y-114290000D03*
G04 #@! TO.P,A1,15*
X97366000Y-99050000D03*
G04 #@! TO.P,A1,30*
G04 #@! TO.N,VCC*
X132926000Y-114290000D03*
G04 #@! TO.P,A1,14*
G04 #@! TO.N,N/C*
X99906000Y-99050000D03*
G04 #@! TO.P,A1,29*
G04 #@! TO.N,GND*
X130386000Y-114290000D03*
G04 #@! TO.P,A1,13*
G04 #@! TO.N,N/C*
X102446000Y-99050000D03*
G04 #@! TO.P,A1,28*
X127846000Y-114290000D03*
G04 #@! TO.P,A1,12*
G04 #@! TO.N,Net-(A1-Pad12)*
X104986000Y-99050000D03*
G04 #@! TO.P,A1,27*
G04 #@! TO.N,N/C*
X125306000Y-114290000D03*
G04 #@! TO.P,A1,11*
G04 #@! TO.N,Net-(A1-Pad11)*
X107526000Y-99050000D03*
G04 #@! TO.P,A1,26*
G04 #@! TO.N,N/C*
X122766000Y-114290000D03*
G04 #@! TO.P,A1,10*
G04 #@! TO.N,Net-(A1-Pad10)*
X110066000Y-99050000D03*
G04 #@! TO.P,A1,25*
G04 #@! TO.N,N/C*
X120226000Y-114290000D03*
G04 #@! TO.P,A1,9*
G04 #@! TO.N,Net-(A1-Pad9)*
X112606000Y-99050000D03*
G04 #@! TO.P,A1,24*
G04 #@! TO.N,N/C*
X117686000Y-114290000D03*
G04 #@! TO.P,A1,8*
G04 #@! TO.N,Net-(A1-Pad8)*
X115146000Y-99050000D03*
G04 #@! TO.P,A1,23*
G04 #@! TO.N,N/C*
X115146000Y-114290000D03*
G04 #@! TO.P,A1,7*
G04 #@! TO.N,Net-(A1-Pad7)*
X117686000Y-99050000D03*
G04 #@! TO.P,A1,22*
G04 #@! TO.N,N/C*
X112606000Y-114290000D03*
G04 #@! TO.P,A1,6*
G04 #@! TO.N,Net-(A1-Pad6)*
X120226000Y-99050000D03*
G04 #@! TO.P,A1,21*
G04 #@! TO.N,N/C*
X110066000Y-114290000D03*
G04 #@! TO.P,A1,5*
G04 #@! TO.N,Net-(A1-Pad5)*
X122766000Y-99050000D03*
G04 #@! TO.P,A1,20*
G04 #@! TO.N,N/C*
X107526000Y-114290000D03*
G04 #@! TO.P,A1,4*
X125306000Y-99050000D03*
G04 #@! TO.P,A1,19*
X104986000Y-114290000D03*
G04 #@! TO.P,A1,3*
X127846000Y-99050000D03*
G04 #@! TO.P,A1,18*
X102446000Y-114290000D03*
G04 #@! TO.P,A1,2*
X130386000Y-99050000D03*
G04 #@! TO.P,A1,17*
X99906000Y-114290000D03*
D11*
G04 #@! TO.P,A1,1*
X132926000Y-99050000D03*
G04 #@! TD*
D12*
G04 #@! TO.P,BT1,2*
G04 #@! TO.N,GND*
X186500000Y-110000000D03*
D13*
G04 #@! TO.P,BT1,1*
G04 #@! TO.N,Net-(BT1-Pad1)*
X186500000Y-122700000D03*
X186500000Y-97300000D03*
G04 #@! TD*
D14*
G04 #@! TO.P,C1,2*
G04 #@! TO.N,GND*
X174368000Y-87620000D03*
D11*
G04 #@! TO.P,C1,1*
G04 #@! TO.N,Net-(C1-Pad1)*
X176868000Y-87620000D03*
G04 #@! TD*
D14*
G04 #@! TO.P,C2,2*
G04 #@! TO.N,GND*
X166708000Y-86644000D03*
D11*
G04 #@! TO.P,C2,1*
G04 #@! TO.N,VCC*
X166708000Y-89144000D03*
G04 #@! TD*
D15*
G04 #@! TO.P,Q1,1*
G04 #@! TO.N,Net-(D1-Pad1)*
X175090000Y-132500000D03*
D16*
G04 #@! TO.P,Q1,3*
G04 #@! TO.N,GND*
X177630000Y-132500000D03*
G04 #@! TO.P,Q1,2*
G04 #@! TO.N,Net-(Q1-Pad2)*
X176360000Y-132500000D03*
G04 #@! TD*
D15*
G04 #@! TO.P,Q2,1*
G04 #@! TO.N,Net-(D2-Pad1)*
X112960000Y-132500000D03*
D16*
G04 #@! TO.P,Q2,3*
G04 #@! TO.N,GND*
X115500000Y-132500000D03*
G04 #@! TO.P,Q2,2*
G04 #@! TO.N,Net-(Q2-Pad2)*
X114230000Y-132500000D03*
G04 #@! TD*
D15*
G04 #@! TO.P,Q3,1*
G04 #@! TO.N,Net-(D3-Pad1)*
X119972000Y-132500000D03*
D16*
G04 #@! TO.P,Q3,3*
G04 #@! TO.N,GND*
X122512000Y-132500000D03*
G04 #@! TO.P,Q3,2*
G04 #@! TO.N,Net-(Q3-Pad2)*
X121242000Y-132500000D03*
G04 #@! TD*
D15*
G04 #@! TO.P,Q4,1*
G04 #@! TO.N,Net-(D4-Pad1)*
X167960000Y-132500000D03*
D16*
G04 #@! TO.P,Q4,3*
G04 #@! TO.N,GND*
X170500000Y-132500000D03*
G04 #@! TO.P,Q4,2*
G04 #@! TO.N,Net-(Q4-Pad2)*
X169230000Y-132500000D03*
G04 #@! TD*
D17*
G04 #@! TO.P,R1,2*
G04 #@! TO.N,Net-(R1-Pad2)*
X109760000Y-85000000D03*
D18*
G04 #@! TO.P,R1,1*
G04 #@! TO.N,Net-(A1-Pad5)*
X125000000Y-85000000D03*
G04 #@! TD*
D17*
G04 #@! TO.P,R2,2*
G04 #@! TO.N,Net-(R2-Pad2)*
X152230000Y-90668000D03*
D18*
G04 #@! TO.P,R2,1*
G04 #@! TO.N,Net-(A1-Pad6)*
X136990000Y-90668000D03*
G04 #@! TD*
D17*
G04 #@! TO.P,R3,2*
G04 #@! TO.N,Net-(R3-Pad2)*
X152230000Y-85080000D03*
D18*
G04 #@! TO.P,R3,1*
G04 #@! TO.N,Net-(A1-Pad7)*
X136990000Y-85080000D03*
G04 #@! TD*
D17*
G04 #@! TO.P,R4,2*
G04 #@! TO.N,Net-(R4-Pad2)*
X125000000Y-91430000D03*
D18*
G04 #@! TO.P,R4,1*
G04 #@! TO.N,Net-(A1-Pad8)*
X109760000Y-91430000D03*
G04 #@! TD*
D17*
G04 #@! TO.P,R5,2*
G04 #@! TO.N,Net-(A1-Pad9)*
X154770000Y-123000000D03*
D18*
G04 #@! TO.P,R5,1*
G04 #@! TO.N,Net-(Q1-Pad2)*
X170010000Y-123000000D03*
G04 #@! TD*
D17*
G04 #@! TO.P,R6,2*
G04 #@! TO.N,Net-(A1-Pad10)*
X120480000Y-123180000D03*
D18*
G04 #@! TO.P,R6,1*
G04 #@! TO.N,Net-(Q2-Pad2)*
X135720000Y-123180000D03*
G04 #@! TD*
D17*
G04 #@! TO.P,R7,2*
G04 #@! TO.N,Net-(A1-Pad11)*
X142000000Y-121910000D03*
D18*
G04 #@! TO.P,R7,1*
G04 #@! TO.N,Net-(Q3-Pad2)*
X142000000Y-137150000D03*
G04 #@! TD*
D17*
G04 #@! TO.P,R8,2*
G04 #@! TO.N,Net-(A1-Pad12)*
X148420000Y-121910000D03*
D18*
G04 #@! TO.P,R8,1*
G04 #@! TO.N,Net-(Q4-Pad2)*
X148420000Y-137150000D03*
G04 #@! TD*
D19*
G04 #@! TO.P,S1,3*
G04 #@! TO.N,VCC*
X103750000Y-88080000D03*
G04 #@! TO.P,S1,2*
G04 #@! TO.N,Net-(R1-Pad2)*
X103750000Y-85540000D03*
D20*
G04 #@! TO.P,S1,1*
G04 #@! TO.N,GND*
X103750000Y-83000000D03*
G04 #@! TD*
D19*
G04 #@! TO.P,S2,3*
G04 #@! TO.N,VCC*
X186250000Y-88080000D03*
G04 #@! TO.P,S2,2*
G04 #@! TO.N,Net-(R2-Pad2)*
X186250000Y-85540000D03*
D20*
G04 #@! TO.P,S2,1*
G04 #@! TO.N,GND*
X186250000Y-83000000D03*
G04 #@! TD*
D19*
G04 #@! TO.P,S3,3*
G04 #@! TO.N,VCC*
X158750000Y-88080000D03*
G04 #@! TO.P,S3,2*
G04 #@! TO.N,Net-(R3-Pad2)*
X158750000Y-85540000D03*
D20*
G04 #@! TO.P,S3,1*
G04 #@! TO.N,GND*
X158750000Y-83000000D03*
G04 #@! TD*
D19*
G04 #@! TO.P,S4,3*
G04 #@! TO.N,VCC*
X131250000Y-88080000D03*
G04 #@! TO.P,S4,2*
G04 #@! TO.N,Net-(R4-Pad2)*
X131250000Y-85540000D03*
D20*
G04 #@! TO.P,S4,1*
G04 #@! TO.N,GND*
X131250000Y-83000000D03*
G04 #@! TD*
D18*
G04 #@! TO.P,SW1,2*
G04 #@! TO.N,Net-(C1-Pad1)*
X194394000Y-83890000D03*
G04 #@! TO.P,SW1,1*
G04 #@! TO.N,Net-(BT1-Pad1)*
X194394000Y-88890000D03*
G04 #@! TD*
D21*
G04 #@! TO.P,U1,4*
G04 #@! TO.N,VCC*
X141562000Y-114798000D03*
G04 #@! TO.P,U1,3*
G04 #@! TO.N,GND*
X141562000Y-99558000D03*
G04 #@! TO.P,U1,2*
X168232000Y-99558000D03*
G04 #@! TO.P,U1,1*
G04 #@! TO.N,Net-(C1-Pad1)*
X168232000Y-114798000D03*
G04 #@! TD*
D22*
G04 #@! TO.P,D1,2*
G04 #@! TO.N,VCC*
X191750000Y-132500000D03*
G04 #@! TO.P,D1,1*
G04 #@! TO.N,Net-(D1-Pad1)*
X180750000Y-132500000D03*
G04 #@! TD*
G04 #@! TO.P,D2,2*
G04 #@! TO.N,VCC*
X98250000Y-132500000D03*
G04 #@! TO.P,D2,1*
G04 #@! TO.N,Net-(D2-Pad1)*
X109250000Y-132500000D03*
G04 #@! TD*
G04 #@! TO.P,D3,2*
G04 #@! TO.N,VCC*
X136750000Y-132500000D03*
G04 #@! TO.P,D3,1*
G04 #@! TO.N,Net-(D3-Pad1)*
X125750000Y-132500000D03*
G04 #@! TD*
G04 #@! TO.P,D4,2*
G04 #@! TO.N,VCC*
X153250000Y-132500000D03*
G04 #@! TO.P,D4,1*
G04 #@! TO.N,Net-(D4-Pad1)*
X164250000Y-132500000D03*
G04 #@! TD*
D23*
G04 #@! TO.N,Net-(C1-Pad1)*
X168232000Y-108482000D02*
X168232000Y-114798000D01*
G04 #@! TD*
D24*
G04 #@! TO.N,GND*
G36*
X199290000Y-139290000D02*
X90710000Y-139290000D01*
X90710000Y-136784996D01*
X140165000Y-136784996D01*
X140165000Y-137515004D01*
X140444362Y-138189444D01*
X140960556Y-138705638D01*
X141634996Y-138985000D01*
X142365004Y-138985000D01*
X143039444Y-138705638D01*
X143555638Y-138189444D01*
X143835000Y-137515004D01*
X143835000Y-136784996D01*
X146585000Y-136784996D01*
X146585000Y-137515004D01*
X146864362Y-138189444D01*
X147380556Y-138705638D01*
X148054996Y-138985000D01*
X148785004Y-138985000D01*
X149459444Y-138705638D01*
X149975638Y-138189444D01*
X150255000Y-137515004D01*
X150255000Y-136784996D01*
X149975638Y-136110556D01*
X149459444Y-135594362D01*
X148785004Y-135315000D01*
X148054996Y-135315000D01*
X147380556Y-135594362D01*
X146864362Y-136110556D01*
X146585000Y-136784996D01*
X143835000Y-136784996D01*
X143555638Y-136110556D01*
X143039444Y-135594362D01*
X142365004Y-135315000D01*
X141634996Y-135315000D01*
X140960556Y-135594362D01*
X140444362Y-136110556D01*
X140165000Y-136784996D01*
X90710000Y-136784996D01*
X90710000Y-132222119D01*
X96853000Y-132222119D01*
X96853000Y-132777881D01*
X97065680Y-133291337D01*
X97458663Y-133684320D01*
X97972119Y-133897000D01*
X98527881Y-133897000D01*
X99041337Y-133684320D01*
X99434320Y-133291337D01*
X99647000Y-132777881D01*
X99647000Y-132222119D01*
X107853000Y-132222119D01*
X107853000Y-132777881D01*
X108065680Y-133291337D01*
X108458663Y-133684320D01*
X108972119Y-133897000D01*
X109527881Y-133897000D01*
X110041337Y-133684320D01*
X110434320Y-133291337D01*
X110647000Y-132777881D01*
X110647000Y-132222119D01*
X110451443Y-131750000D01*
X111787560Y-131750000D01*
X111787560Y-133250000D01*
X111836843Y-133497765D01*
X111977191Y-133707809D01*
X112187235Y-133848157D01*
X112435000Y-133897440D01*
X113485000Y-133897440D01*
X113732765Y-133848157D01*
X113778134Y-133817842D01*
X114230000Y-133907725D01*
X114682609Y-133817695D01*
X114874996Y-133689146D01*
X115132664Y-133835266D01*
X115194190Y-133843964D01*
X115373000Y-133718163D01*
X115373000Y-132924709D01*
X115390000Y-132839245D01*
X115390000Y-132627000D01*
X115627000Y-132627000D01*
X115627000Y-133718163D01*
X115805810Y-133843964D01*
X115867336Y-133835266D01*
X116264255Y-133610179D01*
X116544823Y-133250331D01*
X116666326Y-132810506D01*
X116506593Y-132627000D01*
X115627000Y-132627000D01*
X115390000Y-132627000D01*
X115390000Y-132160754D01*
X115373000Y-132075290D01*
X115373000Y-131281837D01*
X115627000Y-131281837D01*
X115627000Y-132373000D01*
X116506593Y-132373000D01*
X116666326Y-132189494D01*
X116544915Y-131750000D01*
X118799560Y-131750000D01*
X118799560Y-133250000D01*
X118848843Y-133497765D01*
X118989191Y-133707809D01*
X119199235Y-133848157D01*
X119447000Y-133897440D01*
X120497000Y-133897440D01*
X120744765Y-133848157D01*
X120790134Y-133817842D01*
X121242000Y-133907725D01*
X121694609Y-133817695D01*
X121886996Y-133689146D01*
X122144664Y-133835266D01*
X122206190Y-133843964D01*
X122385000Y-133718163D01*
X122385000Y-132924709D01*
X122402000Y-132839245D01*
X122402000Y-132627000D01*
X122639000Y-132627000D01*
X122639000Y-133718163D01*
X122817810Y-133843964D01*
X122879336Y-133835266D01*
X123276255Y-133610179D01*
X123556823Y-133250331D01*
X123678326Y-132810506D01*
X123518593Y-132627000D01*
X122639000Y-132627000D01*
X122402000Y-132627000D01*
X122402000Y-132160754D01*
X122385000Y-132075290D01*
X122385000Y-131281837D01*
X122639000Y-131281837D01*
X122639000Y-132373000D01*
X123518593Y-132373000D01*
X123649927Y-132222119D01*
X124353000Y-132222119D01*
X124353000Y-132777881D01*
X124565680Y-133291337D01*
X124958663Y-133684320D01*
X125472119Y-133897000D01*
X126027881Y-133897000D01*
X126541337Y-133684320D01*
X126934320Y-133291337D01*
X127147000Y-132777881D01*
X127147000Y-132222119D01*
X135353000Y-132222119D01*
X135353000Y-132777881D01*
X135565680Y-133291337D01*
X135958663Y-133684320D01*
X136472119Y-133897000D01*
X137027881Y-133897000D01*
X137541337Y-133684320D01*
X137934320Y-133291337D01*
X138147000Y-132777881D01*
X138147000Y-132222119D01*
X151853000Y-132222119D01*
X151853000Y-132777881D01*
X152065680Y-133291337D01*
X152458663Y-133684320D01*
X152972119Y-133897000D01*
X153527881Y-133897000D01*
X154041337Y-133684320D01*
X154434320Y-133291337D01*
X154647000Y-132777881D01*
X154647000Y-132222119D01*
X162853000Y-132222119D01*
X162853000Y-132777881D01*
X163065680Y-133291337D01*
X163458663Y-133684320D01*
X163972119Y-133897000D01*
X164527881Y-133897000D01*
X165041337Y-133684320D01*
X165434320Y-133291337D01*
X165647000Y-132777881D01*
X165647000Y-132222119D01*
X165451443Y-131750000D01*
X166787560Y-131750000D01*
X166787560Y-133250000D01*
X166836843Y-133497765D01*
X166977191Y-133707809D01*
X167187235Y-133848157D01*
X167435000Y-133897440D01*
X168485000Y-133897440D01*
X168732765Y-133848157D01*
X168778134Y-133817842D01*
X169230000Y-133907725D01*
X169682609Y-133817695D01*
X169874996Y-133689146D01*
X170132664Y-133835266D01*
X170194190Y-133843964D01*
X170373000Y-133718163D01*
X170373000Y-132924709D01*
X170390000Y-132839245D01*
X170390000Y-132627000D01*
X170627000Y-132627000D01*
X170627000Y-133718163D01*
X170805810Y-133843964D01*
X170867336Y-133835266D01*
X171264255Y-133610179D01*
X171544823Y-133250331D01*
X171666326Y-132810506D01*
X171506593Y-132627000D01*
X170627000Y-132627000D01*
X170390000Y-132627000D01*
X170390000Y-132160754D01*
X170373000Y-132075290D01*
X170373000Y-131281837D01*
X170627000Y-131281837D01*
X170627000Y-132373000D01*
X171506593Y-132373000D01*
X171666326Y-132189494D01*
X171544915Y-131750000D01*
X173917560Y-131750000D01*
X173917560Y-133250000D01*
X173966843Y-133497765D01*
X174107191Y-133707809D01*
X174317235Y-133848157D01*
X174565000Y-133897440D01*
X175615000Y-133897440D01*
X175862765Y-133848157D01*
X175908134Y-133817842D01*
X176360000Y-133907725D01*
X176812609Y-133817695D01*
X177004996Y-133689146D01*
X177262664Y-133835266D01*
X177324190Y-133843964D01*
X177503000Y-133718163D01*
X177503000Y-132924709D01*
X177520000Y-132839245D01*
X177520000Y-132627000D01*
X177757000Y-132627000D01*
X177757000Y-133718163D01*
X177935810Y-133843964D01*
X177997336Y-133835266D01*
X178394255Y-133610179D01*
X178674823Y-133250331D01*
X178796326Y-132810506D01*
X178636593Y-132627000D01*
X177757000Y-132627000D01*
X177520000Y-132627000D01*
X177520000Y-132160754D01*
X177503000Y-132075290D01*
X177503000Y-131281837D01*
X177757000Y-131281837D01*
X177757000Y-132373000D01*
X178636593Y-132373000D01*
X178767927Y-132222119D01*
X179353000Y-132222119D01*
X179353000Y-132777881D01*
X179565680Y-133291337D01*
X179958663Y-133684320D01*
X180472119Y-133897000D01*
X181027881Y-133897000D01*
X181541337Y-133684320D01*
X181934320Y-133291337D01*
X182147000Y-132777881D01*
X182147000Y-132222119D01*
X190353000Y-132222119D01*
X190353000Y-132777881D01*
X190565680Y-133291337D01*
X190958663Y-133684320D01*
X191472119Y-133897000D01*
X192027881Y-133897000D01*
X192541337Y-133684320D01*
X192934320Y-133291337D01*
X193147000Y-132777881D01*
X193147000Y-132222119D01*
X192934320Y-131708663D01*
X192541337Y-131315680D01*
X192027881Y-131103000D01*
X191472119Y-131103000D01*
X190958663Y-131315680D01*
X190565680Y-131708663D01*
X190353000Y-132222119D01*
X182147000Y-132222119D01*
X181934320Y-131708663D01*
X181541337Y-131315680D01*
X181027881Y-131103000D01*
X180472119Y-131103000D01*
X179958663Y-131315680D01*
X179565680Y-131708663D01*
X179353000Y-132222119D01*
X178767927Y-132222119D01*
X178796326Y-132189494D01*
X178674823Y-131749669D01*
X178394255Y-131389821D01*
X177997336Y-131164734D01*
X177935810Y-131156036D01*
X177757000Y-131281837D01*
X177503000Y-131281837D01*
X177324190Y-131156036D01*
X177262664Y-131164734D01*
X177004996Y-131310854D01*
X176812608Y-131182305D01*
X176360000Y-131092275D01*
X175908133Y-131182157D01*
X175862765Y-131151843D01*
X175615000Y-131102560D01*
X174565000Y-131102560D01*
X174317235Y-131151843D01*
X174107191Y-131292191D01*
X173966843Y-131502235D01*
X173917560Y-131750000D01*
X171544915Y-131750000D01*
X171544823Y-131749669D01*
X171264255Y-131389821D01*
X170867336Y-131164734D01*
X170805810Y-131156036D01*
X170627000Y-131281837D01*
X170373000Y-131281837D01*
X170194190Y-131156036D01*
X170132664Y-131164734D01*
X169874996Y-131310854D01*
X169682608Y-131182305D01*
X169230000Y-131092275D01*
X168778133Y-131182157D01*
X168732765Y-131151843D01*
X168485000Y-131102560D01*
X167435000Y-131102560D01*
X167187235Y-131151843D01*
X166977191Y-131292191D01*
X166836843Y-131502235D01*
X166787560Y-131750000D01*
X165451443Y-131750000D01*
X165434320Y-131708663D01*
X165041337Y-131315680D01*
X164527881Y-131103000D01*
X163972119Y-131103000D01*
X163458663Y-131315680D01*
X163065680Y-131708663D01*
X162853000Y-132222119D01*
X154647000Y-132222119D01*
X154434320Y-131708663D01*
X154041337Y-131315680D01*
X153527881Y-131103000D01*
X152972119Y-131103000D01*
X152458663Y-131315680D01*
X152065680Y-131708663D01*
X151853000Y-132222119D01*
X138147000Y-132222119D01*
X137934320Y-131708663D01*
X137541337Y-131315680D01*
X137027881Y-131103000D01*
X136472119Y-131103000D01*
X135958663Y-131315680D01*
X135565680Y-131708663D01*
X135353000Y-132222119D01*
X127147000Y-132222119D01*
X126934320Y-131708663D01*
X126541337Y-131315680D01*
X126027881Y-131103000D01*
X125472119Y-131103000D01*
X124958663Y-131315680D01*
X124565680Y-131708663D01*
X124353000Y-132222119D01*
X123649927Y-132222119D01*
X123678326Y-132189494D01*
X123556823Y-131749669D01*
X123276255Y-131389821D01*
X122879336Y-131164734D01*
X122817810Y-131156036D01*
X122639000Y-131281837D01*
X122385000Y-131281837D01*
X122206190Y-131156036D01*
X122144664Y-131164734D01*
X121886996Y-131310854D01*
X121694608Y-131182305D01*
X121242000Y-131092275D01*
X120790133Y-131182157D01*
X120744765Y-131151843D01*
X120497000Y-131102560D01*
X119447000Y-131102560D01*
X119199235Y-131151843D01*
X118989191Y-131292191D01*
X118848843Y-131502235D01*
X118799560Y-131750000D01*
X116544915Y-131750000D01*
X116544823Y-131749669D01*
X116264255Y-131389821D01*
X115867336Y-131164734D01*
X115805810Y-131156036D01*
X115627000Y-131281837D01*
X115373000Y-131281837D01*
X115194190Y-131156036D01*
X115132664Y-131164734D01*
X114874996Y-131310854D01*
X114682608Y-131182305D01*
X114230000Y-131092275D01*
X113778133Y-131182157D01*
X113732765Y-131151843D01*
X113485000Y-131102560D01*
X112435000Y-131102560D01*
X112187235Y-131151843D01*
X111977191Y-131292191D01*
X111836843Y-131502235D01*
X111787560Y-131750000D01*
X110451443Y-131750000D01*
X110434320Y-131708663D01*
X110041337Y-131315680D01*
X109527881Y-131103000D01*
X108972119Y-131103000D01*
X108458663Y-131315680D01*
X108065680Y-131708663D01*
X107853000Y-132222119D01*
X99647000Y-132222119D01*
X99434320Y-131708663D01*
X99041337Y-131315680D01*
X98527881Y-131103000D01*
X97972119Y-131103000D01*
X97458663Y-131315680D01*
X97065680Y-131708663D01*
X96853000Y-132222119D01*
X90710000Y-132222119D01*
X90710000Y-126475866D01*
X92365000Y-126475866D01*
X92365000Y-127524134D01*
X92766155Y-128492608D01*
X93507392Y-129233845D01*
X94475866Y-129635000D01*
X95524134Y-129635000D01*
X96492608Y-129233845D01*
X97233845Y-128492608D01*
X97635000Y-127524134D01*
X97635000Y-126475866D01*
X192365000Y-126475866D01*
X192365000Y-127524134D01*
X192766155Y-128492608D01*
X193507392Y-129233845D01*
X194475866Y-129635000D01*
X195524134Y-129635000D01*
X196492608Y-129233845D01*
X197233845Y-128492608D01*
X197635000Y-127524134D01*
X197635000Y-126475866D01*
X197233845Y-125507392D01*
X196492608Y-124766155D01*
X195524134Y-124365000D01*
X194475866Y-124365000D01*
X193507392Y-124766155D01*
X192766155Y-125507392D01*
X192365000Y-126475866D01*
X97635000Y-126475866D01*
X97233845Y-125507392D01*
X96492608Y-124766155D01*
X95524134Y-124365000D01*
X94475866Y-124365000D01*
X93507392Y-124766155D01*
X92766155Y-125507392D01*
X92365000Y-126475866D01*
X90710000Y-126475866D01*
X90710000Y-123180000D01*
X118609051Y-123180000D01*
X118751469Y-123895981D01*
X119157039Y-124502961D01*
X119764019Y-124908531D01*
X120299273Y-125015000D01*
X120660727Y-125015000D01*
X121195981Y-124908531D01*
X121802961Y-124502961D01*
X122208531Y-123895981D01*
X122350949Y-123180000D01*
X122278345Y-122814996D01*
X133885000Y-122814996D01*
X133885000Y-123545004D01*
X134164362Y-124219444D01*
X134680556Y-124735638D01*
X135354996Y-125015000D01*
X136085004Y-125015000D01*
X136759444Y-124735638D01*
X137275638Y-124219444D01*
X137555000Y-123545004D01*
X137555000Y-122814996D01*
X137275638Y-122140556D01*
X137045082Y-121910000D01*
X140129051Y-121910000D01*
X140271469Y-122625981D01*
X140677039Y-123232961D01*
X141284019Y-123638531D01*
X141819273Y-123745000D01*
X142180727Y-123745000D01*
X142715981Y-123638531D01*
X143322961Y-123232961D01*
X143728531Y-122625981D01*
X143870949Y-121910000D01*
X146549051Y-121910000D01*
X146691469Y-122625981D01*
X147097039Y-123232961D01*
X147704019Y-123638531D01*
X148239273Y-123745000D01*
X148600727Y-123745000D01*
X149135981Y-123638531D01*
X149742961Y-123232961D01*
X149898620Y-123000000D01*
X152899051Y-123000000D01*
X153041469Y-123715981D01*
X153447039Y-124322961D01*
X154054019Y-124728531D01*
X154589273Y-124835000D01*
X154950727Y-124835000D01*
X155485981Y-124728531D01*
X156092961Y-124322961D01*
X156498531Y-123715981D01*
X156640949Y-123000000D01*
X156568345Y-122634996D01*
X168175000Y-122634996D01*
X168175000Y-123365004D01*
X168454362Y-124039444D01*
X168970556Y-124555638D01*
X169644996Y-124835000D01*
X170375004Y-124835000D01*
X171049444Y-124555638D01*
X171565638Y-124039444D01*
X171845000Y-123365004D01*
X171845000Y-122634996D01*
X171696019Y-122275322D01*
X184365000Y-122275322D01*
X184365000Y-123124678D01*
X184690034Y-123909380D01*
X185290620Y-124509966D01*
X186075322Y-124835000D01*
X186924678Y-124835000D01*
X187709380Y-124509966D01*
X188309966Y-123909380D01*
X188635000Y-123124678D01*
X188635000Y-122275322D01*
X188309966Y-121490620D01*
X187709380Y-120890034D01*
X186924678Y-120565000D01*
X186075322Y-120565000D01*
X185290620Y-120890034D01*
X184690034Y-121490620D01*
X184365000Y-122275322D01*
X171696019Y-122275322D01*
X171565638Y-121960556D01*
X171049444Y-121444362D01*
X170375004Y-121165000D01*
X169644996Y-121165000D01*
X168970556Y-121444362D01*
X168454362Y-121960556D01*
X168175000Y-122634996D01*
X156568345Y-122634996D01*
X156498531Y-122284019D01*
X156092961Y-121677039D01*
X155485981Y-121271469D01*
X154950727Y-121165000D01*
X154589273Y-121165000D01*
X154054019Y-121271469D01*
X153447039Y-121677039D01*
X153041469Y-122284019D01*
X152899051Y-123000000D01*
X149898620Y-123000000D01*
X150148531Y-122625981D01*
X150290949Y-121910000D01*
X150148531Y-121194019D01*
X149742961Y-120587039D01*
X149135981Y-120181469D01*
X148600727Y-120075000D01*
X148239273Y-120075000D01*
X147704019Y-120181469D01*
X147097039Y-120587039D01*
X146691469Y-121194019D01*
X146549051Y-121910000D01*
X143870949Y-121910000D01*
X143728531Y-121194019D01*
X143322961Y-120587039D01*
X142715981Y-120181469D01*
X142180727Y-120075000D01*
X141819273Y-120075000D01*
X141284019Y-120181469D01*
X140677039Y-120587039D01*
X140271469Y-121194019D01*
X140129051Y-121910000D01*
X137045082Y-121910000D01*
X136759444Y-121624362D01*
X136085004Y-121345000D01*
X135354996Y-121345000D01*
X134680556Y-121624362D01*
X134164362Y-122140556D01*
X133885000Y-122814996D01*
X122278345Y-122814996D01*
X122208531Y-122464019D01*
X121802961Y-121857039D01*
X121195981Y-121451469D01*
X120660727Y-121345000D01*
X120299273Y-121345000D01*
X119764019Y-121451469D01*
X119157039Y-121857039D01*
X118751469Y-122464019D01*
X118609051Y-123180000D01*
X90710000Y-123180000D01*
X90710000Y-114290000D01*
X95902887Y-114290000D01*
X96014260Y-114849909D01*
X96331423Y-115324577D01*
X96806091Y-115641740D01*
X97224667Y-115725000D01*
X97507333Y-115725000D01*
X97925909Y-115641740D01*
X98400577Y-115324577D01*
X98636000Y-114972242D01*
X98871423Y-115324577D01*
X99346091Y-115641740D01*
X99764667Y-115725000D01*
X100047333Y-115725000D01*
X100465909Y-115641740D01*
X100940577Y-115324577D01*
X101176000Y-114972242D01*
X101411423Y-115324577D01*
X101886091Y-115641740D01*
X102304667Y-115725000D01*
X102587333Y-115725000D01*
X103005909Y-115641740D01*
X103480577Y-115324577D01*
X103716000Y-114972242D01*
X103951423Y-115324577D01*
X104426091Y-115641740D01*
X104844667Y-115725000D01*
X105127333Y-115725000D01*
X105545909Y-115641740D01*
X106020577Y-115324577D01*
X106256000Y-114972242D01*
X106491423Y-115324577D01*
X106966091Y-115641740D01*
X107384667Y-115725000D01*
X107667333Y-115725000D01*
X108085909Y-115641740D01*
X108560577Y-115324577D01*
X108796000Y-114972242D01*
X109031423Y-115324577D01*
X109506091Y-115641740D01*
X109924667Y-115725000D01*
X110207333Y-115725000D01*
X110625909Y-115641740D01*
X111100577Y-115324577D01*
X111336000Y-114972242D01*
X111571423Y-115324577D01*
X112046091Y-115641740D01*
X112464667Y-115725000D01*
X112747333Y-115725000D01*
X113165909Y-115641740D01*
X113640577Y-115324577D01*
X113876000Y-114972242D01*
X114111423Y-115324577D01*
X114586091Y-115641740D01*
X115004667Y-115725000D01*
X115287333Y-115725000D01*
X115705909Y-115641740D01*
X116180577Y-115324577D01*
X116416000Y-114972242D01*
X116651423Y-115324577D01*
X117126091Y-115641740D01*
X117544667Y-115725000D01*
X117827333Y-115725000D01*
X118245909Y-115641740D01*
X118720577Y-115324577D01*
X118956000Y-114972242D01*
X119191423Y-115324577D01*
X119666091Y-115641740D01*
X120084667Y-115725000D01*
X120367333Y-115725000D01*
X120785909Y-115641740D01*
X121260577Y-115324577D01*
X121496000Y-114972242D01*
X121731423Y-115324577D01*
X122206091Y-115641740D01*
X122624667Y-115725000D01*
X122907333Y-115725000D01*
X123325909Y-115641740D01*
X123800577Y-115324577D01*
X124036000Y-114972242D01*
X124271423Y-115324577D01*
X124746091Y-115641740D01*
X125164667Y-115725000D01*
X125447333Y-115725000D01*
X125865909Y-115641740D01*
X126340577Y-115324577D01*
X126576000Y-114972242D01*
X126811423Y-115324577D01*
X127286091Y-115641740D01*
X127704667Y-115725000D01*
X127987333Y-115725000D01*
X128405909Y-115641740D01*
X128880577Y-115324577D01*
X129136947Y-114940892D01*
X129233611Y-115145134D01*
X129648577Y-115521041D01*
X130036961Y-115681904D01*
X130259000Y-115559915D01*
X130259000Y-114417000D01*
X130239000Y-114417000D01*
X130239000Y-114163000D01*
X130259000Y-114163000D01*
X130259000Y-113020085D01*
X130513000Y-113020085D01*
X130513000Y-114163000D01*
X130533000Y-114163000D01*
X130533000Y-114417000D01*
X130513000Y-114417000D01*
X130513000Y-115559915D01*
X130735039Y-115681904D01*
X131123423Y-115521041D01*
X131538389Y-115145134D01*
X131635053Y-114940892D01*
X131891423Y-115324577D01*
X132366091Y-115641740D01*
X132784667Y-115725000D01*
X133067333Y-115725000D01*
X133485909Y-115641740D01*
X133960577Y-115324577D01*
X134277740Y-114849909D01*
X134373488Y-114368548D01*
X139403000Y-114368548D01*
X139403000Y-115227452D01*
X139731688Y-116020975D01*
X140339025Y-116628312D01*
X141132548Y-116957000D01*
X141991452Y-116957000D01*
X142784975Y-116628312D01*
X143392312Y-116020975D01*
X143721000Y-115227452D01*
X143721000Y-114368548D01*
X166073000Y-114368548D01*
X166073000Y-115227452D01*
X166401688Y-116020975D01*
X167009025Y-116628312D01*
X167802548Y-116957000D01*
X168661452Y-116957000D01*
X169454975Y-116628312D01*
X170062312Y-116020975D01*
X170391000Y-115227452D01*
X170391000Y-114368548D01*
X170062312Y-113575025D01*
X169454975Y-112967688D01*
X168992000Y-112775917D01*
X168992000Y-110285750D01*
X181865000Y-110285750D01*
X181865000Y-114126309D01*
X181961673Y-114359698D01*
X182140301Y-114538327D01*
X182373690Y-114635000D01*
X186214250Y-114635000D01*
X186373000Y-114476250D01*
X186373000Y-110127000D01*
X186627000Y-110127000D01*
X186627000Y-114476250D01*
X186785750Y-114635000D01*
X190626310Y-114635000D01*
X190859699Y-114538327D01*
X191038327Y-114359698D01*
X191135000Y-114126309D01*
X191135000Y-110285750D01*
X190976250Y-110127000D01*
X186627000Y-110127000D01*
X186373000Y-110127000D01*
X182023750Y-110127000D01*
X181865000Y-110285750D01*
X168992000Y-110285750D01*
X168992000Y-108407148D01*
X168947904Y-108185463D01*
X168779929Y-107934071D01*
X168528536Y-107766096D01*
X168232000Y-107707111D01*
X167935463Y-107766096D01*
X167684071Y-107934071D01*
X167516096Y-108185464D01*
X167472000Y-108407149D01*
X167472001Y-112775917D01*
X167009025Y-112967688D01*
X166401688Y-113575025D01*
X166073000Y-114368548D01*
X143721000Y-114368548D01*
X143392312Y-113575025D01*
X142784975Y-112967688D01*
X141991452Y-112639000D01*
X141132548Y-112639000D01*
X140339025Y-112967688D01*
X139731688Y-113575025D01*
X139403000Y-114368548D01*
X134373488Y-114368548D01*
X134389113Y-114290000D01*
X134277740Y-113730091D01*
X133960577Y-113255423D01*
X133485909Y-112938260D01*
X133067333Y-112855000D01*
X132784667Y-112855000D01*
X132366091Y-112938260D01*
X131891423Y-113255423D01*
X131635053Y-113639108D01*
X131538389Y-113434866D01*
X131123423Y-113058959D01*
X130735039Y-112898096D01*
X130513000Y-113020085D01*
X130259000Y-113020085D01*
X130036961Y-112898096D01*
X129648577Y-113058959D01*
X129233611Y-113434866D01*
X129136947Y-113639108D01*
X128880577Y-113255423D01*
X128405909Y-112938260D01*
X127987333Y-112855000D01*
X127704667Y-112855000D01*
X127286091Y-112938260D01*
X126811423Y-113255423D01*
X126576000Y-113607758D01*
X126340577Y-113255423D01*
X125865909Y-112938260D01*
X125447333Y-112855000D01*
X125164667Y-112855000D01*
X124746091Y-112938260D01*
X124271423Y-113255423D01*
X124036000Y-113607758D01*
X123800577Y-113255423D01*
X123325909Y-112938260D01*
X122907333Y-112855000D01*
X122624667Y-112855000D01*
X122206091Y-112938260D01*
X121731423Y-113255423D01*
X121496000Y-113607758D01*
X121260577Y-113255423D01*
X120785909Y-112938260D01*
X120367333Y-112855000D01*
X120084667Y-112855000D01*
X119666091Y-112938260D01*
X119191423Y-113255423D01*
X118956000Y-113607758D01*
X118720577Y-113255423D01*
X118245909Y-112938260D01*
X117827333Y-112855000D01*
X117544667Y-112855000D01*
X117126091Y-112938260D01*
X116651423Y-113255423D01*
X116416000Y-113607758D01*
X116180577Y-113255423D01*
X115705909Y-112938260D01*
X115287333Y-112855000D01*
X115004667Y-112855000D01*
X114586091Y-112938260D01*
X114111423Y-113255423D01*
X113876000Y-113607758D01*
X113640577Y-113255423D01*
X113165909Y-112938260D01*
X112747333Y-112855000D01*
X112464667Y-112855000D01*
X112046091Y-112938260D01*
X111571423Y-113255423D01*
X111336000Y-113607758D01*
X111100577Y-113255423D01*
X110625909Y-112938260D01*
X110207333Y-112855000D01*
X109924667Y-112855000D01*
X109506091Y-112938260D01*
X109031423Y-113255423D01*
X108796000Y-113607758D01*
X108560577Y-113255423D01*
X108085909Y-112938260D01*
X107667333Y-112855000D01*
X107384667Y-112855000D01*
X106966091Y-112938260D01*
X106491423Y-113255423D01*
X106256000Y-113607758D01*
X106020577Y-113255423D01*
X105545909Y-112938260D01*
X105127333Y-112855000D01*
X104844667Y-112855000D01*
X104426091Y-112938260D01*
X103951423Y-113255423D01*
X103716000Y-113607758D01*
X103480577Y-113255423D01*
X103005909Y-112938260D01*
X102587333Y-112855000D01*
X102304667Y-112855000D01*
X101886091Y-112938260D01*
X101411423Y-113255423D01*
X101176000Y-113607758D01*
X100940577Y-113255423D01*
X100465909Y-112938260D01*
X100047333Y-112855000D01*
X99764667Y-112855000D01*
X99346091Y-112938260D01*
X98871423Y-113255423D01*
X98636000Y-113607758D01*
X98400577Y-113255423D01*
X97925909Y-112938260D01*
X97507333Y-112855000D01*
X97224667Y-112855000D01*
X96806091Y-112938260D01*
X96331423Y-113255423D01*
X96014260Y-113730091D01*
X95902887Y-114290000D01*
X90710000Y-114290000D01*
X90710000Y-105873691D01*
X181865000Y-105873691D01*
X181865000Y-109714250D01*
X182023750Y-109873000D01*
X186373000Y-109873000D01*
X186373000Y-105523750D01*
X186627000Y-105523750D01*
X186627000Y-109873000D01*
X190976250Y-109873000D01*
X191135000Y-109714250D01*
X191135000Y-105873691D01*
X191038327Y-105640302D01*
X190859699Y-105461673D01*
X190626310Y-105365000D01*
X186785750Y-105365000D01*
X186627000Y-105523750D01*
X186373000Y-105523750D01*
X186214250Y-105365000D01*
X182373690Y-105365000D01*
X182140301Y-105461673D01*
X181961673Y-105640302D01*
X181865000Y-105873691D01*
X90710000Y-105873691D01*
X90710000Y-101089307D01*
X140210298Y-101089307D01*
X140373011Y-101410568D01*
X141172464Y-101724556D01*
X142031221Y-101708706D01*
X142750989Y-101410568D01*
X142913702Y-101089307D01*
X166880298Y-101089307D01*
X167043011Y-101410568D01*
X167842464Y-101724556D01*
X168701221Y-101708706D01*
X169420989Y-101410568D01*
X169583702Y-101089307D01*
X168232000Y-99737605D01*
X166880298Y-101089307D01*
X142913702Y-101089307D01*
X141562000Y-99737605D01*
X140210298Y-101089307D01*
X90710000Y-101089307D01*
X90710000Y-99050000D01*
X95902887Y-99050000D01*
X96014260Y-99609909D01*
X96331423Y-100084577D01*
X96806091Y-100401740D01*
X97224667Y-100485000D01*
X97507333Y-100485000D01*
X97925909Y-100401740D01*
X98400577Y-100084577D01*
X98636000Y-99732242D01*
X98871423Y-100084577D01*
X99346091Y-100401740D01*
X99764667Y-100485000D01*
X100047333Y-100485000D01*
X100465909Y-100401740D01*
X100940577Y-100084577D01*
X101176000Y-99732242D01*
X101411423Y-100084577D01*
X101886091Y-100401740D01*
X102304667Y-100485000D01*
X102587333Y-100485000D01*
X103005909Y-100401740D01*
X103480577Y-100084577D01*
X103716000Y-99732242D01*
X103951423Y-100084577D01*
X104426091Y-100401740D01*
X104844667Y-100485000D01*
X105127333Y-100485000D01*
X105545909Y-100401740D01*
X106020577Y-100084577D01*
X106256000Y-99732242D01*
X106491423Y-100084577D01*
X106966091Y-100401740D01*
X107384667Y-100485000D01*
X107667333Y-100485000D01*
X108085909Y-100401740D01*
X108560577Y-100084577D01*
X108796000Y-99732242D01*
X109031423Y-100084577D01*
X109506091Y-100401740D01*
X109924667Y-100485000D01*
X110207333Y-100485000D01*
X110625909Y-100401740D01*
X111100577Y-100084577D01*
X111336000Y-99732242D01*
X111571423Y-100084577D01*
X112046091Y-100401740D01*
X112464667Y-100485000D01*
X112747333Y-100485000D01*
X113165909Y-100401740D01*
X113640577Y-100084577D01*
X113876000Y-99732242D01*
X114111423Y-100084577D01*
X114586091Y-100401740D01*
X115004667Y-100485000D01*
X115287333Y-100485000D01*
X115705909Y-100401740D01*
X116180577Y-100084577D01*
X116416000Y-99732242D01*
X116651423Y-100084577D01*
X117126091Y-100401740D01*
X117544667Y-100485000D01*
X117827333Y-100485000D01*
X118245909Y-100401740D01*
X118720577Y-100084577D01*
X118956000Y-99732242D01*
X119191423Y-100084577D01*
X119666091Y-100401740D01*
X120084667Y-100485000D01*
X120367333Y-100485000D01*
X120785909Y-100401740D01*
X121260577Y-100084577D01*
X121496000Y-99732242D01*
X121731423Y-100084577D01*
X122206091Y-100401740D01*
X122624667Y-100485000D01*
X122907333Y-100485000D01*
X123325909Y-100401740D01*
X123800577Y-100084577D01*
X124036000Y-99732242D01*
X124271423Y-100084577D01*
X124746091Y-100401740D01*
X125164667Y-100485000D01*
X125447333Y-100485000D01*
X125865909Y-100401740D01*
X126340577Y-100084577D01*
X126576000Y-99732242D01*
X126811423Y-100084577D01*
X127286091Y-100401740D01*
X127704667Y-100485000D01*
X127987333Y-100485000D01*
X128405909Y-100401740D01*
X128880577Y-100084577D01*
X129116000Y-99732242D01*
X129351423Y-100084577D01*
X129826091Y-100401740D01*
X130244667Y-100485000D01*
X130527333Y-100485000D01*
X130945909Y-100401740D01*
X131420577Y-100084577D01*
X131501215Y-99963894D01*
X131527843Y-100097765D01*
X131668191Y-100307809D01*
X131878235Y-100448157D01*
X132126000Y-100497440D01*
X133726000Y-100497440D01*
X133973765Y-100448157D01*
X134183809Y-100307809D01*
X134324157Y-100097765D01*
X134373440Y-99850000D01*
X134373440Y-99168464D01*
X139395444Y-99168464D01*
X139411294Y-100027221D01*
X139709432Y-100746989D01*
X140030693Y-100909702D01*
X141382395Y-99558000D01*
X141741605Y-99558000D01*
X143093307Y-100909702D01*
X143414568Y-100746989D01*
X143728556Y-99947536D01*
X143714177Y-99168464D01*
X166065444Y-99168464D01*
X166081294Y-100027221D01*
X166379432Y-100746989D01*
X166700693Y-100909702D01*
X168052395Y-99558000D01*
X168411605Y-99558000D01*
X169763307Y-100909702D01*
X170084568Y-100746989D01*
X170398556Y-99947536D01*
X170382706Y-99088779D01*
X170084568Y-98369011D01*
X169763307Y-98206298D01*
X168411605Y-99558000D01*
X168052395Y-99558000D01*
X166700693Y-98206298D01*
X166379432Y-98369011D01*
X166065444Y-99168464D01*
X143714177Y-99168464D01*
X143712706Y-99088779D01*
X143414568Y-98369011D01*
X143093307Y-98206298D01*
X141741605Y-99558000D01*
X141382395Y-99558000D01*
X140030693Y-98206298D01*
X139709432Y-98369011D01*
X139395444Y-99168464D01*
X134373440Y-99168464D01*
X134373440Y-98250000D01*
X134329022Y-98026693D01*
X140210298Y-98026693D01*
X141562000Y-99378395D01*
X142913702Y-98026693D01*
X166880298Y-98026693D01*
X168232000Y-99378395D01*
X169583702Y-98026693D01*
X169420989Y-97705432D01*
X168621536Y-97391444D01*
X167762779Y-97407294D01*
X167043011Y-97705432D01*
X166880298Y-98026693D01*
X142913702Y-98026693D01*
X142750989Y-97705432D01*
X141951536Y-97391444D01*
X141092779Y-97407294D01*
X140373011Y-97705432D01*
X140210298Y-98026693D01*
X134329022Y-98026693D01*
X134324157Y-98002235D01*
X134183809Y-97792191D01*
X133973765Y-97651843D01*
X133726000Y-97602560D01*
X132126000Y-97602560D01*
X131878235Y-97651843D01*
X131668191Y-97792191D01*
X131527843Y-98002235D01*
X131501215Y-98136106D01*
X131420577Y-98015423D01*
X130945909Y-97698260D01*
X130527333Y-97615000D01*
X130244667Y-97615000D01*
X129826091Y-97698260D01*
X129351423Y-98015423D01*
X129116000Y-98367758D01*
X128880577Y-98015423D01*
X128405909Y-97698260D01*
X127987333Y-97615000D01*
X127704667Y-97615000D01*
X127286091Y-97698260D01*
X126811423Y-98015423D01*
X126576000Y-98367758D01*
X126340577Y-98015423D01*
X125865909Y-97698260D01*
X125447333Y-97615000D01*
X125164667Y-97615000D01*
X124746091Y-97698260D01*
X124271423Y-98015423D01*
X124036000Y-98367758D01*
X123800577Y-98015423D01*
X123325909Y-97698260D01*
X122907333Y-97615000D01*
X122624667Y-97615000D01*
X122206091Y-97698260D01*
X121731423Y-98015423D01*
X121496000Y-98367758D01*
X121260577Y-98015423D01*
X120785909Y-97698260D01*
X120367333Y-97615000D01*
X120084667Y-97615000D01*
X119666091Y-97698260D01*
X119191423Y-98015423D01*
X118956000Y-98367758D01*
X118720577Y-98015423D01*
X118245909Y-97698260D01*
X117827333Y-97615000D01*
X117544667Y-97615000D01*
X117126091Y-97698260D01*
X116651423Y-98015423D01*
X116416000Y-98367758D01*
X116180577Y-98015423D01*
X115705909Y-97698260D01*
X115287333Y-97615000D01*
X115004667Y-97615000D01*
X114586091Y-97698260D01*
X114111423Y-98015423D01*
X113876000Y-98367758D01*
X113640577Y-98015423D01*
X113165909Y-97698260D01*
X112747333Y-97615000D01*
X112464667Y-97615000D01*
X112046091Y-97698260D01*
X111571423Y-98015423D01*
X111336000Y-98367758D01*
X111100577Y-98015423D01*
X110625909Y-97698260D01*
X110207333Y-97615000D01*
X109924667Y-97615000D01*
X109506091Y-97698260D01*
X109031423Y-98015423D01*
X108796000Y-98367758D01*
X108560577Y-98015423D01*
X108085909Y-97698260D01*
X107667333Y-97615000D01*
X107384667Y-97615000D01*
X106966091Y-97698260D01*
X106491423Y-98015423D01*
X106256000Y-98367758D01*
X106020577Y-98015423D01*
X105545909Y-97698260D01*
X105127333Y-97615000D01*
X104844667Y-97615000D01*
X104426091Y-97698260D01*
X103951423Y-98015423D01*
X103716000Y-98367758D01*
X103480577Y-98015423D01*
X103005909Y-97698260D01*
X102587333Y-97615000D01*
X102304667Y-97615000D01*
X101886091Y-97698260D01*
X101411423Y-98015423D01*
X101176000Y-98367758D01*
X100940577Y-98015423D01*
X100465909Y-97698260D01*
X100047333Y-97615000D01*
X99764667Y-97615000D01*
X99346091Y-97698260D01*
X98871423Y-98015423D01*
X98636000Y-98367758D01*
X98400577Y-98015423D01*
X97925909Y-97698260D01*
X97507333Y-97615000D01*
X97224667Y-97615000D01*
X96806091Y-97698260D01*
X96331423Y-98015423D01*
X96014260Y-98490091D01*
X95902887Y-99050000D01*
X90710000Y-99050000D01*
X90710000Y-96875322D01*
X184365000Y-96875322D01*
X184365000Y-97724678D01*
X184690034Y-98509380D01*
X185290620Y-99109966D01*
X186075322Y-99435000D01*
X186924678Y-99435000D01*
X187709380Y-99109966D01*
X188309966Y-98509380D01*
X188635000Y-97724678D01*
X188635000Y-96875322D01*
X188309966Y-96090620D01*
X187709380Y-95490034D01*
X186924678Y-95165000D01*
X186075322Y-95165000D01*
X185290620Y-95490034D01*
X184690034Y-96090620D01*
X184365000Y-96875322D01*
X90710000Y-96875322D01*
X90710000Y-91064996D01*
X107925000Y-91064996D01*
X107925000Y-91795004D01*
X108204362Y-92469444D01*
X108720556Y-92985638D01*
X109394996Y-93265000D01*
X110125004Y-93265000D01*
X110799444Y-92985638D01*
X111315638Y-92469444D01*
X111595000Y-91795004D01*
X111595000Y-91430000D01*
X123129051Y-91430000D01*
X123271469Y-92145981D01*
X123677039Y-92752961D01*
X124284019Y-93158531D01*
X124819273Y-93265000D01*
X125180727Y-93265000D01*
X125715981Y-93158531D01*
X126322961Y-92752961D01*
X126728531Y-92145981D01*
X126870949Y-91430000D01*
X126728531Y-90714019D01*
X126453895Y-90302996D01*
X135155000Y-90302996D01*
X135155000Y-91033004D01*
X135434362Y-91707444D01*
X135950556Y-92223638D01*
X136624996Y-92503000D01*
X137355004Y-92503000D01*
X138029444Y-92223638D01*
X138545638Y-91707444D01*
X138825000Y-91033004D01*
X138825000Y-90668000D01*
X150359051Y-90668000D01*
X150501469Y-91383981D01*
X150907039Y-91990961D01*
X151514019Y-92396531D01*
X152049273Y-92503000D01*
X152410727Y-92503000D01*
X152945981Y-92396531D01*
X153552961Y-91990961D01*
X153958531Y-91383981D01*
X154100949Y-90668000D01*
X153958531Y-89952019D01*
X153552961Y-89345039D01*
X152945981Y-88939469D01*
X152410727Y-88833000D01*
X152049273Y-88833000D01*
X151514019Y-88939469D01*
X150907039Y-89345039D01*
X150501469Y-89952019D01*
X150359051Y-90668000D01*
X138825000Y-90668000D01*
X138825000Y-90302996D01*
X138545638Y-89628556D01*
X138029444Y-89112362D01*
X137355004Y-88833000D01*
X136624996Y-88833000D01*
X135950556Y-89112362D01*
X135434362Y-89628556D01*
X135155000Y-90302996D01*
X126453895Y-90302996D01*
X126322961Y-90107039D01*
X125715981Y-89701469D01*
X125180727Y-89595000D01*
X124819273Y-89595000D01*
X124284019Y-89701469D01*
X123677039Y-90107039D01*
X123271469Y-90714019D01*
X123129051Y-91430000D01*
X111595000Y-91430000D01*
X111595000Y-91064996D01*
X111315638Y-90390556D01*
X110799444Y-89874362D01*
X110125004Y-89595000D01*
X109394996Y-89595000D01*
X108720556Y-89874362D01*
X108204362Y-90390556D01*
X107925000Y-91064996D01*
X90710000Y-91064996D01*
X90710000Y-83285750D01*
X102115000Y-83285750D01*
X102115000Y-84126309D01*
X102211673Y-84359698D01*
X102390301Y-84538327D01*
X102425043Y-84552718D01*
X102363914Y-84613847D01*
X102115000Y-85214778D01*
X102115000Y-85865222D01*
X102363914Y-86466153D01*
X102707761Y-86810000D01*
X102363914Y-87153847D01*
X102115000Y-87754778D01*
X102115000Y-88405222D01*
X102363914Y-89006153D01*
X102823847Y-89466086D01*
X103424778Y-89715000D01*
X104075222Y-89715000D01*
X104676153Y-89466086D01*
X105136086Y-89006153D01*
X105385000Y-88405222D01*
X105385000Y-87754778D01*
X105136086Y-87153847D01*
X104792239Y-86810000D01*
X105136086Y-86466153D01*
X105385000Y-85865222D01*
X105385000Y-85214778D01*
X105296036Y-85000000D01*
X107889051Y-85000000D01*
X108031469Y-85715981D01*
X108437039Y-86322961D01*
X109044019Y-86728531D01*
X109579273Y-86835000D01*
X109940727Y-86835000D01*
X110475981Y-86728531D01*
X111082961Y-86322961D01*
X111488531Y-85715981D01*
X111630949Y-85000000D01*
X111558345Y-84634996D01*
X123165000Y-84634996D01*
X123165000Y-85365004D01*
X123444362Y-86039444D01*
X123960556Y-86555638D01*
X124634996Y-86835000D01*
X125365004Y-86835000D01*
X126039444Y-86555638D01*
X126555638Y-86039444D01*
X126835000Y-85365004D01*
X126835000Y-84634996D01*
X126555638Y-83960556D01*
X126039444Y-83444362D01*
X125656521Y-83285750D01*
X129615000Y-83285750D01*
X129615000Y-84126309D01*
X129711673Y-84359698D01*
X129890301Y-84538327D01*
X129925043Y-84552718D01*
X129863914Y-84613847D01*
X129615000Y-85214778D01*
X129615000Y-85865222D01*
X129863914Y-86466153D01*
X130207761Y-86810000D01*
X129863914Y-87153847D01*
X129615000Y-87754778D01*
X129615000Y-88405222D01*
X129863914Y-89006153D01*
X130323847Y-89466086D01*
X130924778Y-89715000D01*
X131575222Y-89715000D01*
X132176153Y-89466086D01*
X132636086Y-89006153D01*
X132885000Y-88405222D01*
X132885000Y-87754778D01*
X132636086Y-87153847D01*
X132292239Y-86810000D01*
X132636086Y-86466153D01*
X132885000Y-85865222D01*
X132885000Y-85214778D01*
X132677984Y-84714996D01*
X135155000Y-84714996D01*
X135155000Y-85445004D01*
X135434362Y-86119444D01*
X135950556Y-86635638D01*
X136624996Y-86915000D01*
X137355004Y-86915000D01*
X138029444Y-86635638D01*
X138545638Y-86119444D01*
X138825000Y-85445004D01*
X138825000Y-85080000D01*
X150359051Y-85080000D01*
X150501469Y-85795981D01*
X150907039Y-86402961D01*
X151514019Y-86808531D01*
X152049273Y-86915000D01*
X152410727Y-86915000D01*
X152945981Y-86808531D01*
X153552961Y-86402961D01*
X153958531Y-85795981D01*
X154100949Y-85080000D01*
X153958531Y-84364019D01*
X153552961Y-83757039D01*
X152945981Y-83351469D01*
X152615591Y-83285750D01*
X157115000Y-83285750D01*
X157115000Y-84126309D01*
X157211673Y-84359698D01*
X157390301Y-84538327D01*
X157425043Y-84552718D01*
X157363914Y-84613847D01*
X157115000Y-85214778D01*
X157115000Y-85865222D01*
X157363914Y-86466153D01*
X157707761Y-86810000D01*
X157363914Y-87153847D01*
X157115000Y-87754778D01*
X157115000Y-88405222D01*
X157363914Y-89006153D01*
X157823847Y-89466086D01*
X158424778Y-89715000D01*
X159075222Y-89715000D01*
X159676153Y-89466086D01*
X160136086Y-89006153D01*
X160385000Y-88405222D01*
X160385000Y-88344000D01*
X165260560Y-88344000D01*
X165260560Y-89944000D01*
X165309843Y-90191765D01*
X165450191Y-90401809D01*
X165660235Y-90542157D01*
X165908000Y-90591440D01*
X167508000Y-90591440D01*
X167755765Y-90542157D01*
X167965809Y-90401809D01*
X168106157Y-90191765D01*
X168155440Y-89944000D01*
X168155440Y-88627745D01*
X173539861Y-88627745D01*
X173613995Y-88873864D01*
X174151223Y-89066965D01*
X174721454Y-89039778D01*
X175122005Y-88873864D01*
X175196139Y-88627745D01*
X174368000Y-87799605D01*
X173539861Y-88627745D01*
X168155440Y-88627745D01*
X168155440Y-88344000D01*
X168106157Y-88096235D01*
X167965809Y-87886191D01*
X167755765Y-87745843D01*
X167521813Y-87699307D01*
X167536139Y-87651745D01*
X166708000Y-86823605D01*
X165879861Y-87651745D01*
X165894187Y-87699307D01*
X165660235Y-87745843D01*
X165450191Y-87886191D01*
X165309843Y-88096235D01*
X165260560Y-88344000D01*
X160385000Y-88344000D01*
X160385000Y-87754778D01*
X160136086Y-87153847D01*
X159792239Y-86810000D01*
X160136086Y-86466153D01*
X160152211Y-86427223D01*
X165261035Y-86427223D01*
X165288222Y-86997454D01*
X165454136Y-87398005D01*
X165700255Y-87472139D01*
X166528395Y-86644000D01*
X166887605Y-86644000D01*
X167715745Y-87472139D01*
X167944540Y-87403223D01*
X172921035Y-87403223D01*
X172948222Y-87973454D01*
X173114136Y-88374005D01*
X173360255Y-88448139D01*
X174188395Y-87620000D01*
X174547605Y-87620000D01*
X175375745Y-88448139D01*
X175423307Y-88433813D01*
X175469843Y-88667765D01*
X175610191Y-88877809D01*
X175820235Y-89018157D01*
X176068000Y-89067440D01*
X177668000Y-89067440D01*
X177915765Y-89018157D01*
X178125809Y-88877809D01*
X178266157Y-88667765D01*
X178315440Y-88420000D01*
X178315440Y-86820000D01*
X178266157Y-86572235D01*
X178125809Y-86362191D01*
X177915765Y-86221843D01*
X177668000Y-86172560D01*
X176068000Y-86172560D01*
X175820235Y-86221843D01*
X175610191Y-86362191D01*
X175469843Y-86572235D01*
X175423307Y-86806187D01*
X175375745Y-86791861D01*
X174547605Y-87620000D01*
X174188395Y-87620000D01*
X173360255Y-86791861D01*
X173114136Y-86865995D01*
X172921035Y-87403223D01*
X167944540Y-87403223D01*
X167961864Y-87398005D01*
X168154965Y-86860777D01*
X168143117Y-86612255D01*
X173539861Y-86612255D01*
X174368000Y-87440395D01*
X175196139Y-86612255D01*
X175122005Y-86366136D01*
X174584777Y-86173035D01*
X174014546Y-86200222D01*
X173613995Y-86366136D01*
X173539861Y-86612255D01*
X168143117Y-86612255D01*
X168127778Y-86290546D01*
X167961864Y-85889995D01*
X167715745Y-85815861D01*
X166887605Y-86644000D01*
X166528395Y-86644000D01*
X165700255Y-85815861D01*
X165454136Y-85889995D01*
X165261035Y-86427223D01*
X160152211Y-86427223D01*
X160385000Y-85865222D01*
X160385000Y-85636255D01*
X165879861Y-85636255D01*
X166708000Y-86464395D01*
X167536139Y-85636255D01*
X167462005Y-85390136D01*
X166924777Y-85197035D01*
X166354546Y-85224222D01*
X165953995Y-85390136D01*
X165879861Y-85636255D01*
X160385000Y-85636255D01*
X160385000Y-85214778D01*
X160136086Y-84613847D01*
X160074957Y-84552718D01*
X160109699Y-84538327D01*
X160288327Y-84359698D01*
X160385000Y-84126309D01*
X160385000Y-83285750D01*
X184615000Y-83285750D01*
X184615000Y-84126309D01*
X184711673Y-84359698D01*
X184890301Y-84538327D01*
X184925043Y-84552718D01*
X184863914Y-84613847D01*
X184615000Y-85214778D01*
X184615000Y-85865222D01*
X184863914Y-86466153D01*
X185207761Y-86810000D01*
X184863914Y-87153847D01*
X184615000Y-87754778D01*
X184615000Y-88405222D01*
X184863914Y-89006153D01*
X185323847Y-89466086D01*
X185924778Y-89715000D01*
X186575222Y-89715000D01*
X187176153Y-89466086D01*
X187636086Y-89006153D01*
X187835387Y-88524996D01*
X192559000Y-88524996D01*
X192559000Y-89255004D01*
X192838362Y-89929444D01*
X193354556Y-90445638D01*
X194028996Y-90725000D01*
X194759004Y-90725000D01*
X195433444Y-90445638D01*
X195949638Y-89929444D01*
X196229000Y-89255004D01*
X196229000Y-88524996D01*
X195949638Y-87850556D01*
X195433444Y-87334362D01*
X194759004Y-87055000D01*
X194028996Y-87055000D01*
X193354556Y-87334362D01*
X192838362Y-87850556D01*
X192559000Y-88524996D01*
X187835387Y-88524996D01*
X187885000Y-88405222D01*
X187885000Y-87754778D01*
X187636086Y-87153847D01*
X187292239Y-86810000D01*
X187636086Y-86466153D01*
X187885000Y-85865222D01*
X187885000Y-85214778D01*
X187636086Y-84613847D01*
X187574957Y-84552718D01*
X187609699Y-84538327D01*
X187788327Y-84359698D01*
X187885000Y-84126309D01*
X187885000Y-83524996D01*
X192559000Y-83524996D01*
X192559000Y-84255004D01*
X192838362Y-84929444D01*
X193354556Y-85445638D01*
X194028996Y-85725000D01*
X194759004Y-85725000D01*
X195433444Y-85445638D01*
X195949638Y-84929444D01*
X196229000Y-84255004D01*
X196229000Y-83524996D01*
X195949638Y-82850556D01*
X195433444Y-82334362D01*
X194759004Y-82055000D01*
X194028996Y-82055000D01*
X193354556Y-82334362D01*
X192838362Y-82850556D01*
X192559000Y-83524996D01*
X187885000Y-83524996D01*
X187885000Y-83285750D01*
X187726250Y-83127000D01*
X186377000Y-83127000D01*
X186377000Y-83147000D01*
X186123000Y-83147000D01*
X186123000Y-83127000D01*
X184773750Y-83127000D01*
X184615000Y-83285750D01*
X160385000Y-83285750D01*
X160226250Y-83127000D01*
X158877000Y-83127000D01*
X158877000Y-83147000D01*
X158623000Y-83147000D01*
X158623000Y-83127000D01*
X157273750Y-83127000D01*
X157115000Y-83285750D01*
X152615591Y-83285750D01*
X152410727Y-83245000D01*
X152049273Y-83245000D01*
X151514019Y-83351469D01*
X150907039Y-83757039D01*
X150501469Y-84364019D01*
X150359051Y-85080000D01*
X138825000Y-85080000D01*
X138825000Y-84714996D01*
X138545638Y-84040556D01*
X138029444Y-83524362D01*
X137355004Y-83245000D01*
X136624996Y-83245000D01*
X135950556Y-83524362D01*
X135434362Y-84040556D01*
X135155000Y-84714996D01*
X132677984Y-84714996D01*
X132636086Y-84613847D01*
X132574957Y-84552718D01*
X132609699Y-84538327D01*
X132788327Y-84359698D01*
X132885000Y-84126309D01*
X132885000Y-83285750D01*
X132726250Y-83127000D01*
X131377000Y-83127000D01*
X131377000Y-83147000D01*
X131123000Y-83147000D01*
X131123000Y-83127000D01*
X129773750Y-83127000D01*
X129615000Y-83285750D01*
X125656521Y-83285750D01*
X125365004Y-83165000D01*
X124634996Y-83165000D01*
X123960556Y-83444362D01*
X123444362Y-83960556D01*
X123165000Y-84634996D01*
X111558345Y-84634996D01*
X111488531Y-84284019D01*
X111082961Y-83677039D01*
X110475981Y-83271469D01*
X109940727Y-83165000D01*
X109579273Y-83165000D01*
X109044019Y-83271469D01*
X108437039Y-83677039D01*
X108031469Y-84284019D01*
X107889051Y-85000000D01*
X105296036Y-85000000D01*
X105136086Y-84613847D01*
X105074957Y-84552718D01*
X105109699Y-84538327D01*
X105288327Y-84359698D01*
X105385000Y-84126309D01*
X105385000Y-83285750D01*
X105226250Y-83127000D01*
X103877000Y-83127000D01*
X103877000Y-83147000D01*
X103623000Y-83147000D01*
X103623000Y-83127000D01*
X102273750Y-83127000D01*
X102115000Y-83285750D01*
X90710000Y-83285750D01*
X90710000Y-81873691D01*
X102115000Y-81873691D01*
X102115000Y-82714250D01*
X102273750Y-82873000D01*
X103623000Y-82873000D01*
X103623000Y-81523750D01*
X103877000Y-81523750D01*
X103877000Y-82873000D01*
X105226250Y-82873000D01*
X105385000Y-82714250D01*
X105385000Y-81873691D01*
X129615000Y-81873691D01*
X129615000Y-82714250D01*
X129773750Y-82873000D01*
X131123000Y-82873000D01*
X131123000Y-81523750D01*
X131377000Y-81523750D01*
X131377000Y-82873000D01*
X132726250Y-82873000D01*
X132885000Y-82714250D01*
X132885000Y-81873691D01*
X157115000Y-81873691D01*
X157115000Y-82714250D01*
X157273750Y-82873000D01*
X158623000Y-82873000D01*
X158623000Y-81523750D01*
X158877000Y-81523750D01*
X158877000Y-82873000D01*
X160226250Y-82873000D01*
X160385000Y-82714250D01*
X160385000Y-81873691D01*
X184615000Y-81873691D01*
X184615000Y-82714250D01*
X184773750Y-82873000D01*
X186123000Y-82873000D01*
X186123000Y-81523750D01*
X186377000Y-81523750D01*
X186377000Y-82873000D01*
X187726250Y-82873000D01*
X187885000Y-82714250D01*
X187885000Y-81873691D01*
X187788327Y-81640302D01*
X187609699Y-81461673D01*
X187376310Y-81365000D01*
X186535750Y-81365000D01*
X186377000Y-81523750D01*
X186123000Y-81523750D01*
X185964250Y-81365000D01*
X185123690Y-81365000D01*
X184890301Y-81461673D01*
X184711673Y-81640302D01*
X184615000Y-81873691D01*
X160385000Y-81873691D01*
X160288327Y-81640302D01*
X160109699Y-81461673D01*
X159876310Y-81365000D01*
X159035750Y-81365000D01*
X158877000Y-81523750D01*
X158623000Y-81523750D01*
X158464250Y-81365000D01*
X157623690Y-81365000D01*
X157390301Y-81461673D01*
X157211673Y-81640302D01*
X157115000Y-81873691D01*
X132885000Y-81873691D01*
X132788327Y-81640302D01*
X132609699Y-81461673D01*
X132376310Y-81365000D01*
X131535750Y-81365000D01*
X131377000Y-81523750D01*
X131123000Y-81523750D01*
X130964250Y-81365000D01*
X130123690Y-81365000D01*
X129890301Y-81461673D01*
X129711673Y-81640302D01*
X129615000Y-81873691D01*
X105385000Y-81873691D01*
X105288327Y-81640302D01*
X105109699Y-81461673D01*
X104876310Y-81365000D01*
X104035750Y-81365000D01*
X103877000Y-81523750D01*
X103623000Y-81523750D01*
X103464250Y-81365000D01*
X102623690Y-81365000D01*
X102390301Y-81461673D01*
X102211673Y-81640302D01*
X102115000Y-81873691D01*
X90710000Y-81873691D01*
X90710000Y-80710000D01*
X199290001Y-80710000D01*
X199290000Y-139290000D01*
X199290000Y-139290000D01*
G37*
X199290000Y-139290000D02*
X90710000Y-139290000D01*
X90710000Y-136784996D01*
X140165000Y-136784996D01*
X140165000Y-137515004D01*
X140444362Y-138189444D01*
X140960556Y-138705638D01*
X141634996Y-138985000D01*
X142365004Y-138985000D01*
X143039444Y-138705638D01*
X143555638Y-138189444D01*
X143835000Y-137515004D01*
X143835000Y-136784996D01*
X146585000Y-136784996D01*
X146585000Y-137515004D01*
X146864362Y-138189444D01*
X147380556Y-138705638D01*
X148054996Y-138985000D01*
X148785004Y-138985000D01*
X149459444Y-138705638D01*
X149975638Y-138189444D01*
X150255000Y-137515004D01*
X150255000Y-136784996D01*
X149975638Y-136110556D01*
X149459444Y-135594362D01*
X148785004Y-135315000D01*
X148054996Y-135315000D01*
X147380556Y-135594362D01*
X146864362Y-136110556D01*
X146585000Y-136784996D01*
X143835000Y-136784996D01*
X143555638Y-136110556D01*
X143039444Y-135594362D01*
X142365004Y-135315000D01*
X141634996Y-135315000D01*
X140960556Y-135594362D01*
X140444362Y-136110556D01*
X140165000Y-136784996D01*
X90710000Y-136784996D01*
X90710000Y-132222119D01*
X96853000Y-132222119D01*
X96853000Y-132777881D01*
X97065680Y-133291337D01*
X97458663Y-133684320D01*
X97972119Y-133897000D01*
X98527881Y-133897000D01*
X99041337Y-133684320D01*
X99434320Y-133291337D01*
X99647000Y-132777881D01*
X99647000Y-132222119D01*
X107853000Y-132222119D01*
X107853000Y-132777881D01*
X108065680Y-133291337D01*
X108458663Y-133684320D01*
X108972119Y-133897000D01*
X109527881Y-133897000D01*
X110041337Y-133684320D01*
X110434320Y-133291337D01*
X110647000Y-132777881D01*
X110647000Y-132222119D01*
X110451443Y-131750000D01*
X111787560Y-131750000D01*
X111787560Y-133250000D01*
X111836843Y-133497765D01*
X111977191Y-133707809D01*
X112187235Y-133848157D01*
X112435000Y-133897440D01*
X113485000Y-133897440D01*
X113732765Y-133848157D01*
X113778134Y-133817842D01*
X114230000Y-133907725D01*
X114682609Y-133817695D01*
X114874996Y-133689146D01*
X115132664Y-133835266D01*
X115194190Y-133843964D01*
X115373000Y-133718163D01*
X115373000Y-132924709D01*
X115390000Y-132839245D01*
X115390000Y-132627000D01*
X115627000Y-132627000D01*
X115627000Y-133718163D01*
X115805810Y-133843964D01*
X115867336Y-133835266D01*
X116264255Y-133610179D01*
X116544823Y-133250331D01*
X116666326Y-132810506D01*
X116506593Y-132627000D01*
X115627000Y-132627000D01*
X115390000Y-132627000D01*
X115390000Y-132160754D01*
X115373000Y-132075290D01*
X115373000Y-131281837D01*
X115627000Y-131281837D01*
X115627000Y-132373000D01*
X116506593Y-132373000D01*
X116666326Y-132189494D01*
X116544915Y-131750000D01*
X118799560Y-131750000D01*
X118799560Y-133250000D01*
X118848843Y-133497765D01*
X118989191Y-133707809D01*
X119199235Y-133848157D01*
X119447000Y-133897440D01*
X120497000Y-133897440D01*
X120744765Y-133848157D01*
X120790134Y-133817842D01*
X121242000Y-133907725D01*
X121694609Y-133817695D01*
X121886996Y-133689146D01*
X122144664Y-133835266D01*
X122206190Y-133843964D01*
X122385000Y-133718163D01*
X122385000Y-132924709D01*
X122402000Y-132839245D01*
X122402000Y-132627000D01*
X122639000Y-132627000D01*
X122639000Y-133718163D01*
X122817810Y-133843964D01*
X122879336Y-133835266D01*
X123276255Y-133610179D01*
X123556823Y-133250331D01*
X123678326Y-132810506D01*
X123518593Y-132627000D01*
X122639000Y-132627000D01*
X122402000Y-132627000D01*
X122402000Y-132160754D01*
X122385000Y-132075290D01*
X122385000Y-131281837D01*
X122639000Y-131281837D01*
X122639000Y-132373000D01*
X123518593Y-132373000D01*
X123649927Y-132222119D01*
X124353000Y-132222119D01*
X124353000Y-132777881D01*
X124565680Y-133291337D01*
X124958663Y-133684320D01*
X125472119Y-133897000D01*
X126027881Y-133897000D01*
X126541337Y-133684320D01*
X126934320Y-133291337D01*
X127147000Y-132777881D01*
X127147000Y-132222119D01*
X135353000Y-132222119D01*
X135353000Y-132777881D01*
X135565680Y-133291337D01*
X135958663Y-133684320D01*
X136472119Y-133897000D01*
X137027881Y-133897000D01*
X137541337Y-133684320D01*
X137934320Y-133291337D01*
X138147000Y-132777881D01*
X138147000Y-132222119D01*
X151853000Y-132222119D01*
X151853000Y-132777881D01*
X152065680Y-133291337D01*
X152458663Y-133684320D01*
X152972119Y-133897000D01*
X153527881Y-133897000D01*
X154041337Y-133684320D01*
X154434320Y-133291337D01*
X154647000Y-132777881D01*
X154647000Y-132222119D01*
X162853000Y-132222119D01*
X162853000Y-132777881D01*
X163065680Y-133291337D01*
X163458663Y-133684320D01*
X163972119Y-133897000D01*
X164527881Y-133897000D01*
X165041337Y-133684320D01*
X165434320Y-133291337D01*
X165647000Y-132777881D01*
X165647000Y-132222119D01*
X165451443Y-131750000D01*
X166787560Y-131750000D01*
X166787560Y-133250000D01*
X166836843Y-133497765D01*
X166977191Y-133707809D01*
X167187235Y-133848157D01*
X167435000Y-133897440D01*
X168485000Y-133897440D01*
X168732765Y-133848157D01*
X168778134Y-133817842D01*
X169230000Y-133907725D01*
X169682609Y-133817695D01*
X169874996Y-133689146D01*
X170132664Y-133835266D01*
X170194190Y-133843964D01*
X170373000Y-133718163D01*
X170373000Y-132924709D01*
X170390000Y-132839245D01*
X170390000Y-132627000D01*
X170627000Y-132627000D01*
X170627000Y-133718163D01*
X170805810Y-133843964D01*
X170867336Y-133835266D01*
X171264255Y-133610179D01*
X171544823Y-133250331D01*
X171666326Y-132810506D01*
X171506593Y-132627000D01*
X170627000Y-132627000D01*
X170390000Y-132627000D01*
X170390000Y-132160754D01*
X170373000Y-132075290D01*
X170373000Y-131281837D01*
X170627000Y-131281837D01*
X170627000Y-132373000D01*
X171506593Y-132373000D01*
X171666326Y-132189494D01*
X171544915Y-131750000D01*
X173917560Y-131750000D01*
X173917560Y-133250000D01*
X173966843Y-133497765D01*
X174107191Y-133707809D01*
X174317235Y-133848157D01*
X174565000Y-133897440D01*
X175615000Y-133897440D01*
X175862765Y-133848157D01*
X175908134Y-133817842D01*
X176360000Y-133907725D01*
X176812609Y-133817695D01*
X177004996Y-133689146D01*
X177262664Y-133835266D01*
X177324190Y-133843964D01*
X177503000Y-133718163D01*
X177503000Y-132924709D01*
X177520000Y-132839245D01*
X177520000Y-132627000D01*
X177757000Y-132627000D01*
X177757000Y-133718163D01*
X177935810Y-133843964D01*
X177997336Y-133835266D01*
X178394255Y-133610179D01*
X178674823Y-133250331D01*
X178796326Y-132810506D01*
X178636593Y-132627000D01*
X177757000Y-132627000D01*
X177520000Y-132627000D01*
X177520000Y-132160754D01*
X177503000Y-132075290D01*
X177503000Y-131281837D01*
X177757000Y-131281837D01*
X177757000Y-132373000D01*
X178636593Y-132373000D01*
X178767927Y-132222119D01*
X179353000Y-132222119D01*
X179353000Y-132777881D01*
X179565680Y-133291337D01*
X179958663Y-133684320D01*
X180472119Y-133897000D01*
X181027881Y-133897000D01*
X181541337Y-133684320D01*
X181934320Y-133291337D01*
X182147000Y-132777881D01*
X182147000Y-132222119D01*
X190353000Y-132222119D01*
X190353000Y-132777881D01*
X190565680Y-133291337D01*
X190958663Y-133684320D01*
X191472119Y-133897000D01*
X192027881Y-133897000D01*
X192541337Y-133684320D01*
X192934320Y-133291337D01*
X193147000Y-132777881D01*
X193147000Y-132222119D01*
X192934320Y-131708663D01*
X192541337Y-131315680D01*
X192027881Y-131103000D01*
X191472119Y-131103000D01*
X190958663Y-131315680D01*
X190565680Y-131708663D01*
X190353000Y-132222119D01*
X182147000Y-132222119D01*
X181934320Y-131708663D01*
X181541337Y-131315680D01*
X181027881Y-131103000D01*
X180472119Y-131103000D01*
X179958663Y-131315680D01*
X179565680Y-131708663D01*
X179353000Y-132222119D01*
X178767927Y-132222119D01*
X178796326Y-132189494D01*
X178674823Y-131749669D01*
X178394255Y-131389821D01*
X177997336Y-131164734D01*
X177935810Y-131156036D01*
X177757000Y-131281837D01*
X177503000Y-131281837D01*
X177324190Y-131156036D01*
X177262664Y-131164734D01*
X177004996Y-131310854D01*
X176812608Y-131182305D01*
X176360000Y-131092275D01*
X175908133Y-131182157D01*
X175862765Y-131151843D01*
X175615000Y-131102560D01*
X174565000Y-131102560D01*
X174317235Y-131151843D01*
X174107191Y-131292191D01*
X173966843Y-131502235D01*
X173917560Y-131750000D01*
X171544915Y-131750000D01*
X171544823Y-131749669D01*
X171264255Y-131389821D01*
X170867336Y-131164734D01*
X170805810Y-131156036D01*
X170627000Y-131281837D01*
X170373000Y-131281837D01*
X170194190Y-131156036D01*
X170132664Y-131164734D01*
X169874996Y-131310854D01*
X169682608Y-131182305D01*
X169230000Y-131092275D01*
X168778133Y-131182157D01*
X168732765Y-131151843D01*
X168485000Y-131102560D01*
X167435000Y-131102560D01*
X167187235Y-131151843D01*
X166977191Y-131292191D01*
X166836843Y-131502235D01*
X166787560Y-131750000D01*
X165451443Y-131750000D01*
X165434320Y-131708663D01*
X165041337Y-131315680D01*
X164527881Y-131103000D01*
X163972119Y-131103000D01*
X163458663Y-131315680D01*
X163065680Y-131708663D01*
X162853000Y-132222119D01*
X154647000Y-132222119D01*
X154434320Y-131708663D01*
X154041337Y-131315680D01*
X153527881Y-131103000D01*
X152972119Y-131103000D01*
X152458663Y-131315680D01*
X152065680Y-131708663D01*
X151853000Y-132222119D01*
X138147000Y-132222119D01*
X137934320Y-131708663D01*
X137541337Y-131315680D01*
X137027881Y-131103000D01*
X136472119Y-131103000D01*
X135958663Y-131315680D01*
X135565680Y-131708663D01*
X135353000Y-132222119D01*
X127147000Y-132222119D01*
X126934320Y-131708663D01*
X126541337Y-131315680D01*
X126027881Y-131103000D01*
X125472119Y-131103000D01*
X124958663Y-131315680D01*
X124565680Y-131708663D01*
X124353000Y-132222119D01*
X123649927Y-132222119D01*
X123678326Y-132189494D01*
X123556823Y-131749669D01*
X123276255Y-131389821D01*
X122879336Y-131164734D01*
X122817810Y-131156036D01*
X122639000Y-131281837D01*
X122385000Y-131281837D01*
X122206190Y-131156036D01*
X122144664Y-131164734D01*
X121886996Y-131310854D01*
X121694608Y-131182305D01*
X121242000Y-131092275D01*
X120790133Y-131182157D01*
X120744765Y-131151843D01*
X120497000Y-131102560D01*
X119447000Y-131102560D01*
X119199235Y-131151843D01*
X118989191Y-131292191D01*
X118848843Y-131502235D01*
X118799560Y-131750000D01*
X116544915Y-131750000D01*
X116544823Y-131749669D01*
X116264255Y-131389821D01*
X115867336Y-131164734D01*
X115805810Y-131156036D01*
X115627000Y-131281837D01*
X115373000Y-131281837D01*
X115194190Y-131156036D01*
X115132664Y-131164734D01*
X114874996Y-131310854D01*
X114682608Y-131182305D01*
X114230000Y-131092275D01*
X113778133Y-131182157D01*
X113732765Y-131151843D01*
X113485000Y-131102560D01*
X112435000Y-131102560D01*
X112187235Y-131151843D01*
X111977191Y-131292191D01*
X111836843Y-131502235D01*
X111787560Y-131750000D01*
X110451443Y-131750000D01*
X110434320Y-131708663D01*
X110041337Y-131315680D01*
X109527881Y-131103000D01*
X108972119Y-131103000D01*
X108458663Y-131315680D01*
X108065680Y-131708663D01*
X107853000Y-132222119D01*
X99647000Y-132222119D01*
X99434320Y-131708663D01*
X99041337Y-131315680D01*
X98527881Y-131103000D01*
X97972119Y-131103000D01*
X97458663Y-131315680D01*
X97065680Y-131708663D01*
X96853000Y-132222119D01*
X90710000Y-132222119D01*
X90710000Y-126475866D01*
X92365000Y-126475866D01*
X92365000Y-127524134D01*
X92766155Y-128492608D01*
X93507392Y-129233845D01*
X94475866Y-129635000D01*
X95524134Y-129635000D01*
X96492608Y-129233845D01*
X97233845Y-128492608D01*
X97635000Y-127524134D01*
X97635000Y-126475866D01*
X192365000Y-126475866D01*
X192365000Y-127524134D01*
X192766155Y-128492608D01*
X193507392Y-129233845D01*
X194475866Y-129635000D01*
X195524134Y-129635000D01*
X196492608Y-129233845D01*
X197233845Y-128492608D01*
X197635000Y-127524134D01*
X197635000Y-126475866D01*
X197233845Y-125507392D01*
X196492608Y-124766155D01*
X195524134Y-124365000D01*
X194475866Y-124365000D01*
X193507392Y-124766155D01*
X192766155Y-125507392D01*
X192365000Y-126475866D01*
X97635000Y-126475866D01*
X97233845Y-125507392D01*
X96492608Y-124766155D01*
X95524134Y-124365000D01*
X94475866Y-124365000D01*
X93507392Y-124766155D01*
X92766155Y-125507392D01*
X92365000Y-126475866D01*
X90710000Y-126475866D01*
X90710000Y-123180000D01*
X118609051Y-123180000D01*
X118751469Y-123895981D01*
X119157039Y-124502961D01*
X119764019Y-124908531D01*
X120299273Y-125015000D01*
X120660727Y-125015000D01*
X121195981Y-124908531D01*
X121802961Y-124502961D01*
X122208531Y-123895981D01*
X122350949Y-123180000D01*
X122278345Y-122814996D01*
X133885000Y-122814996D01*
X133885000Y-123545004D01*
X134164362Y-124219444D01*
X134680556Y-124735638D01*
X135354996Y-125015000D01*
X136085004Y-125015000D01*
X136759444Y-124735638D01*
X137275638Y-124219444D01*
X137555000Y-123545004D01*
X137555000Y-122814996D01*
X137275638Y-122140556D01*
X137045082Y-121910000D01*
X140129051Y-121910000D01*
X140271469Y-122625981D01*
X140677039Y-123232961D01*
X141284019Y-123638531D01*
X141819273Y-123745000D01*
X142180727Y-123745000D01*
X142715981Y-123638531D01*
X143322961Y-123232961D01*
X143728531Y-122625981D01*
X143870949Y-121910000D01*
X146549051Y-121910000D01*
X146691469Y-122625981D01*
X147097039Y-123232961D01*
X147704019Y-123638531D01*
X148239273Y-123745000D01*
X148600727Y-123745000D01*
X149135981Y-123638531D01*
X149742961Y-123232961D01*
X149898620Y-123000000D01*
X152899051Y-123000000D01*
X153041469Y-123715981D01*
X153447039Y-124322961D01*
X154054019Y-124728531D01*
X154589273Y-124835000D01*
X154950727Y-124835000D01*
X155485981Y-124728531D01*
X156092961Y-124322961D01*
X156498531Y-123715981D01*
X156640949Y-123000000D01*
X156568345Y-122634996D01*
X168175000Y-122634996D01*
X168175000Y-123365004D01*
X168454362Y-124039444D01*
X168970556Y-124555638D01*
X169644996Y-124835000D01*
X170375004Y-124835000D01*
X171049444Y-124555638D01*
X171565638Y-124039444D01*
X171845000Y-123365004D01*
X171845000Y-122634996D01*
X171696019Y-122275322D01*
X184365000Y-122275322D01*
X184365000Y-123124678D01*
X184690034Y-123909380D01*
X185290620Y-124509966D01*
X186075322Y-124835000D01*
X186924678Y-124835000D01*
X187709380Y-124509966D01*
X188309966Y-123909380D01*
X188635000Y-123124678D01*
X188635000Y-122275322D01*
X188309966Y-121490620D01*
X187709380Y-120890034D01*
X186924678Y-120565000D01*
X186075322Y-120565000D01*
X185290620Y-120890034D01*
X184690034Y-121490620D01*
X184365000Y-122275322D01*
X171696019Y-122275322D01*
X171565638Y-121960556D01*
X171049444Y-121444362D01*
X170375004Y-121165000D01*
X169644996Y-121165000D01*
X168970556Y-121444362D01*
X168454362Y-121960556D01*
X168175000Y-122634996D01*
X156568345Y-122634996D01*
X156498531Y-122284019D01*
X156092961Y-121677039D01*
X155485981Y-121271469D01*
X154950727Y-121165000D01*
X154589273Y-121165000D01*
X154054019Y-121271469D01*
X153447039Y-121677039D01*
X153041469Y-122284019D01*
X152899051Y-123000000D01*
X149898620Y-123000000D01*
X150148531Y-122625981D01*
X150290949Y-121910000D01*
X150148531Y-121194019D01*
X149742961Y-120587039D01*
X149135981Y-120181469D01*
X148600727Y-120075000D01*
X148239273Y-120075000D01*
X147704019Y-120181469D01*
X147097039Y-120587039D01*
X146691469Y-121194019D01*
X146549051Y-121910000D01*
X143870949Y-121910000D01*
X143728531Y-121194019D01*
X143322961Y-120587039D01*
X142715981Y-120181469D01*
X142180727Y-120075000D01*
X141819273Y-120075000D01*
X141284019Y-120181469D01*
X140677039Y-120587039D01*
X140271469Y-121194019D01*
X140129051Y-121910000D01*
X137045082Y-121910000D01*
X136759444Y-121624362D01*
X136085004Y-121345000D01*
X135354996Y-121345000D01*
X134680556Y-121624362D01*
X134164362Y-122140556D01*
X133885000Y-122814996D01*
X122278345Y-122814996D01*
X122208531Y-122464019D01*
X121802961Y-121857039D01*
X121195981Y-121451469D01*
X120660727Y-121345000D01*
X120299273Y-121345000D01*
X119764019Y-121451469D01*
X119157039Y-121857039D01*
X118751469Y-122464019D01*
X118609051Y-123180000D01*
X90710000Y-123180000D01*
X90710000Y-114290000D01*
X95902887Y-114290000D01*
X96014260Y-114849909D01*
X96331423Y-115324577D01*
X96806091Y-115641740D01*
X97224667Y-115725000D01*
X97507333Y-115725000D01*
X97925909Y-115641740D01*
X98400577Y-115324577D01*
X98636000Y-114972242D01*
X98871423Y-115324577D01*
X99346091Y-115641740D01*
X99764667Y-115725000D01*
X100047333Y-115725000D01*
X100465909Y-115641740D01*
X100940577Y-115324577D01*
X101176000Y-114972242D01*
X101411423Y-115324577D01*
X101886091Y-115641740D01*
X102304667Y-115725000D01*
X102587333Y-115725000D01*
X103005909Y-115641740D01*
X103480577Y-115324577D01*
X103716000Y-114972242D01*
X103951423Y-115324577D01*
X104426091Y-115641740D01*
X104844667Y-115725000D01*
X105127333Y-115725000D01*
X105545909Y-115641740D01*
X106020577Y-115324577D01*
X106256000Y-114972242D01*
X106491423Y-115324577D01*
X106966091Y-115641740D01*
X107384667Y-115725000D01*
X107667333Y-115725000D01*
X108085909Y-115641740D01*
X108560577Y-115324577D01*
X108796000Y-114972242D01*
X109031423Y-115324577D01*
X109506091Y-115641740D01*
X109924667Y-115725000D01*
X110207333Y-115725000D01*
X110625909Y-115641740D01*
X111100577Y-115324577D01*
X111336000Y-114972242D01*
X111571423Y-115324577D01*
X112046091Y-115641740D01*
X112464667Y-115725000D01*
X112747333Y-115725000D01*
X113165909Y-115641740D01*
X113640577Y-115324577D01*
X113876000Y-114972242D01*
X114111423Y-115324577D01*
X114586091Y-115641740D01*
X115004667Y-115725000D01*
X115287333Y-115725000D01*
X115705909Y-115641740D01*
X116180577Y-115324577D01*
X116416000Y-114972242D01*
X116651423Y-115324577D01*
X117126091Y-115641740D01*
X117544667Y-115725000D01*
X117827333Y-115725000D01*
X118245909Y-115641740D01*
X118720577Y-115324577D01*
X118956000Y-114972242D01*
X119191423Y-115324577D01*
X119666091Y-115641740D01*
X120084667Y-115725000D01*
X120367333Y-115725000D01*
X120785909Y-115641740D01*
X121260577Y-115324577D01*
X121496000Y-114972242D01*
X121731423Y-115324577D01*
X122206091Y-115641740D01*
X122624667Y-115725000D01*
X122907333Y-115725000D01*
X123325909Y-115641740D01*
X123800577Y-115324577D01*
X124036000Y-114972242D01*
X124271423Y-115324577D01*
X124746091Y-115641740D01*
X125164667Y-115725000D01*
X125447333Y-115725000D01*
X125865909Y-115641740D01*
X126340577Y-115324577D01*
X126576000Y-114972242D01*
X126811423Y-115324577D01*
X127286091Y-115641740D01*
X127704667Y-115725000D01*
X127987333Y-115725000D01*
X128405909Y-115641740D01*
X128880577Y-115324577D01*
X129136947Y-114940892D01*
X129233611Y-115145134D01*
X129648577Y-115521041D01*
X130036961Y-115681904D01*
X130259000Y-115559915D01*
X130259000Y-114417000D01*
X130239000Y-114417000D01*
X130239000Y-114163000D01*
X130259000Y-114163000D01*
X130259000Y-113020085D01*
X130513000Y-113020085D01*
X130513000Y-114163000D01*
X130533000Y-114163000D01*
X130533000Y-114417000D01*
X130513000Y-114417000D01*
X130513000Y-115559915D01*
X130735039Y-115681904D01*
X131123423Y-115521041D01*
X131538389Y-115145134D01*
X131635053Y-114940892D01*
X131891423Y-115324577D01*
X132366091Y-115641740D01*
X132784667Y-115725000D01*
X133067333Y-115725000D01*
X133485909Y-115641740D01*
X133960577Y-115324577D01*
X134277740Y-114849909D01*
X134373488Y-114368548D01*
X139403000Y-114368548D01*
X139403000Y-115227452D01*
X139731688Y-116020975D01*
X140339025Y-116628312D01*
X141132548Y-116957000D01*
X141991452Y-116957000D01*
X142784975Y-116628312D01*
X143392312Y-116020975D01*
X143721000Y-115227452D01*
X143721000Y-114368548D01*
X166073000Y-114368548D01*
X166073000Y-115227452D01*
X166401688Y-116020975D01*
X167009025Y-116628312D01*
X167802548Y-116957000D01*
X168661452Y-116957000D01*
X169454975Y-116628312D01*
X170062312Y-116020975D01*
X170391000Y-115227452D01*
X170391000Y-114368548D01*
X170062312Y-113575025D01*
X169454975Y-112967688D01*
X168992000Y-112775917D01*
X168992000Y-110285750D01*
X181865000Y-110285750D01*
X181865000Y-114126309D01*
X181961673Y-114359698D01*
X182140301Y-114538327D01*
X182373690Y-114635000D01*
X186214250Y-114635000D01*
X186373000Y-114476250D01*
X186373000Y-110127000D01*
X186627000Y-110127000D01*
X186627000Y-114476250D01*
X186785750Y-114635000D01*
X190626310Y-114635000D01*
X190859699Y-114538327D01*
X191038327Y-114359698D01*
X191135000Y-114126309D01*
X191135000Y-110285750D01*
X190976250Y-110127000D01*
X186627000Y-110127000D01*
X186373000Y-110127000D01*
X182023750Y-110127000D01*
X181865000Y-110285750D01*
X168992000Y-110285750D01*
X168992000Y-108407148D01*
X168947904Y-108185463D01*
X168779929Y-107934071D01*
X168528536Y-107766096D01*
X168232000Y-107707111D01*
X167935463Y-107766096D01*
X167684071Y-107934071D01*
X167516096Y-108185464D01*
X167472000Y-108407149D01*
X167472001Y-112775917D01*
X167009025Y-112967688D01*
X166401688Y-113575025D01*
X166073000Y-114368548D01*
X143721000Y-114368548D01*
X143392312Y-113575025D01*
X142784975Y-112967688D01*
X141991452Y-112639000D01*
X141132548Y-112639000D01*
X140339025Y-112967688D01*
X139731688Y-113575025D01*
X139403000Y-114368548D01*
X134373488Y-114368548D01*
X134389113Y-114290000D01*
X134277740Y-113730091D01*
X133960577Y-113255423D01*
X133485909Y-112938260D01*
X133067333Y-112855000D01*
X132784667Y-112855000D01*
X132366091Y-112938260D01*
X131891423Y-113255423D01*
X131635053Y-113639108D01*
X131538389Y-113434866D01*
X131123423Y-113058959D01*
X130735039Y-112898096D01*
X130513000Y-113020085D01*
X130259000Y-113020085D01*
X130036961Y-112898096D01*
X129648577Y-113058959D01*
X129233611Y-113434866D01*
X129136947Y-113639108D01*
X128880577Y-113255423D01*
X128405909Y-112938260D01*
X127987333Y-112855000D01*
X127704667Y-112855000D01*
X127286091Y-112938260D01*
X126811423Y-113255423D01*
X126576000Y-113607758D01*
X126340577Y-113255423D01*
X125865909Y-112938260D01*
X125447333Y-112855000D01*
X125164667Y-112855000D01*
X124746091Y-112938260D01*
X124271423Y-113255423D01*
X124036000Y-113607758D01*
X123800577Y-113255423D01*
X123325909Y-112938260D01*
X122907333Y-112855000D01*
X122624667Y-112855000D01*
X122206091Y-112938260D01*
X121731423Y-113255423D01*
X121496000Y-113607758D01*
X121260577Y-113255423D01*
X120785909Y-112938260D01*
X120367333Y-112855000D01*
X120084667Y-112855000D01*
X119666091Y-112938260D01*
X119191423Y-113255423D01*
X118956000Y-113607758D01*
X118720577Y-113255423D01*
X118245909Y-112938260D01*
X117827333Y-112855000D01*
X117544667Y-112855000D01*
X117126091Y-112938260D01*
X116651423Y-113255423D01*
X116416000Y-113607758D01*
X116180577Y-113255423D01*
X115705909Y-112938260D01*
X115287333Y-112855000D01*
X115004667Y-112855000D01*
X114586091Y-112938260D01*
X114111423Y-113255423D01*
X113876000Y-113607758D01*
X113640577Y-113255423D01*
X113165909Y-112938260D01*
X112747333Y-112855000D01*
X112464667Y-112855000D01*
X112046091Y-112938260D01*
X111571423Y-113255423D01*
X111336000Y-113607758D01*
X111100577Y-113255423D01*
X110625909Y-112938260D01*
X110207333Y-112855000D01*
X109924667Y-112855000D01*
X109506091Y-112938260D01*
X109031423Y-113255423D01*
X108796000Y-113607758D01*
X108560577Y-113255423D01*
X108085909Y-112938260D01*
X107667333Y-112855000D01*
X107384667Y-112855000D01*
X106966091Y-112938260D01*
X106491423Y-113255423D01*
X106256000Y-113607758D01*
X106020577Y-113255423D01*
X105545909Y-112938260D01*
X105127333Y-112855000D01*
X104844667Y-112855000D01*
X104426091Y-112938260D01*
X103951423Y-113255423D01*
X103716000Y-113607758D01*
X103480577Y-113255423D01*
X103005909Y-112938260D01*
X102587333Y-112855000D01*
X102304667Y-112855000D01*
X101886091Y-112938260D01*
X101411423Y-113255423D01*
X101176000Y-113607758D01*
X100940577Y-113255423D01*
X100465909Y-112938260D01*
X100047333Y-112855000D01*
X99764667Y-112855000D01*
X99346091Y-112938260D01*
X98871423Y-113255423D01*
X98636000Y-113607758D01*
X98400577Y-113255423D01*
X97925909Y-112938260D01*
X97507333Y-112855000D01*
X97224667Y-112855000D01*
X96806091Y-112938260D01*
X96331423Y-113255423D01*
X96014260Y-113730091D01*
X95902887Y-114290000D01*
X90710000Y-114290000D01*
X90710000Y-105873691D01*
X181865000Y-105873691D01*
X181865000Y-109714250D01*
X182023750Y-109873000D01*
X186373000Y-109873000D01*
X186373000Y-105523750D01*
X186627000Y-105523750D01*
X186627000Y-109873000D01*
X190976250Y-109873000D01*
X191135000Y-109714250D01*
X191135000Y-105873691D01*
X191038327Y-105640302D01*
X190859699Y-105461673D01*
X190626310Y-105365000D01*
X186785750Y-105365000D01*
X186627000Y-105523750D01*
X186373000Y-105523750D01*
X186214250Y-105365000D01*
X182373690Y-105365000D01*
X182140301Y-105461673D01*
X181961673Y-105640302D01*
X181865000Y-105873691D01*
X90710000Y-105873691D01*
X90710000Y-101089307D01*
X140210298Y-101089307D01*
X140373011Y-101410568D01*
X141172464Y-101724556D01*
X142031221Y-101708706D01*
X142750989Y-101410568D01*
X142913702Y-101089307D01*
X166880298Y-101089307D01*
X167043011Y-101410568D01*
X167842464Y-101724556D01*
X168701221Y-101708706D01*
X169420989Y-101410568D01*
X169583702Y-101089307D01*
X168232000Y-99737605D01*
X166880298Y-101089307D01*
X142913702Y-101089307D01*
X141562000Y-99737605D01*
X140210298Y-101089307D01*
X90710000Y-101089307D01*
X90710000Y-99050000D01*
X95902887Y-99050000D01*
X96014260Y-99609909D01*
X96331423Y-100084577D01*
X96806091Y-100401740D01*
X97224667Y-100485000D01*
X97507333Y-100485000D01*
X97925909Y-100401740D01*
X98400577Y-100084577D01*
X98636000Y-99732242D01*
X98871423Y-100084577D01*
X99346091Y-100401740D01*
X99764667Y-100485000D01*
X100047333Y-100485000D01*
X100465909Y-100401740D01*
X100940577Y-100084577D01*
X101176000Y-99732242D01*
X101411423Y-100084577D01*
X101886091Y-100401740D01*
X102304667Y-100485000D01*
X102587333Y-100485000D01*
X103005909Y-100401740D01*
X103480577Y-100084577D01*
X103716000Y-99732242D01*
X103951423Y-100084577D01*
X104426091Y-100401740D01*
X104844667Y-100485000D01*
X105127333Y-100485000D01*
X105545909Y-100401740D01*
X106020577Y-100084577D01*
X106256000Y-99732242D01*
X106491423Y-100084577D01*
X106966091Y-100401740D01*
X107384667Y-100485000D01*
X107667333Y-100485000D01*
X108085909Y-100401740D01*
X108560577Y-100084577D01*
X108796000Y-99732242D01*
X109031423Y-100084577D01*
X109506091Y-100401740D01*
X109924667Y-100485000D01*
X110207333Y-100485000D01*
X110625909Y-100401740D01*
X111100577Y-100084577D01*
X111336000Y-99732242D01*
X111571423Y-100084577D01*
X112046091Y-100401740D01*
X112464667Y-100485000D01*
X112747333Y-100485000D01*
X113165909Y-100401740D01*
X113640577Y-100084577D01*
X113876000Y-99732242D01*
X114111423Y-100084577D01*
X114586091Y-100401740D01*
X115004667Y-100485000D01*
X115287333Y-100485000D01*
X115705909Y-100401740D01*
X116180577Y-100084577D01*
X116416000Y-99732242D01*
X116651423Y-100084577D01*
X117126091Y-100401740D01*
X117544667Y-100485000D01*
X117827333Y-100485000D01*
X118245909Y-100401740D01*
X118720577Y-100084577D01*
X118956000Y-99732242D01*
X119191423Y-100084577D01*
X119666091Y-100401740D01*
X120084667Y-100485000D01*
X120367333Y-100485000D01*
X120785909Y-100401740D01*
X121260577Y-100084577D01*
X121496000Y-99732242D01*
X121731423Y-100084577D01*
X122206091Y-100401740D01*
X122624667Y-100485000D01*
X122907333Y-100485000D01*
X123325909Y-100401740D01*
X123800577Y-100084577D01*
X124036000Y-99732242D01*
X124271423Y-100084577D01*
X124746091Y-100401740D01*
X125164667Y-100485000D01*
X125447333Y-100485000D01*
X125865909Y-100401740D01*
X126340577Y-100084577D01*
X126576000Y-99732242D01*
X126811423Y-100084577D01*
X127286091Y-100401740D01*
X127704667Y-100485000D01*
X127987333Y-100485000D01*
X128405909Y-100401740D01*
X128880577Y-100084577D01*
X129116000Y-99732242D01*
X129351423Y-100084577D01*
X129826091Y-100401740D01*
X130244667Y-100485000D01*
X130527333Y-100485000D01*
X130945909Y-100401740D01*
X131420577Y-100084577D01*
X131501215Y-99963894D01*
X131527843Y-100097765D01*
X131668191Y-100307809D01*
X131878235Y-100448157D01*
X132126000Y-100497440D01*
X133726000Y-100497440D01*
X133973765Y-100448157D01*
X134183809Y-100307809D01*
X134324157Y-100097765D01*
X134373440Y-99850000D01*
X134373440Y-99168464D01*
X139395444Y-99168464D01*
X139411294Y-100027221D01*
X139709432Y-100746989D01*
X140030693Y-100909702D01*
X141382395Y-99558000D01*
X141741605Y-99558000D01*
X143093307Y-100909702D01*
X143414568Y-100746989D01*
X143728556Y-99947536D01*
X143714177Y-99168464D01*
X166065444Y-99168464D01*
X166081294Y-100027221D01*
X166379432Y-100746989D01*
X166700693Y-100909702D01*
X168052395Y-99558000D01*
X168411605Y-99558000D01*
X169763307Y-100909702D01*
X170084568Y-100746989D01*
X170398556Y-99947536D01*
X170382706Y-99088779D01*
X170084568Y-98369011D01*
X169763307Y-98206298D01*
X168411605Y-99558000D01*
X168052395Y-99558000D01*
X166700693Y-98206298D01*
X166379432Y-98369011D01*
X166065444Y-99168464D01*
X143714177Y-99168464D01*
X143712706Y-99088779D01*
X143414568Y-98369011D01*
X143093307Y-98206298D01*
X141741605Y-99558000D01*
X141382395Y-99558000D01*
X140030693Y-98206298D01*
X139709432Y-98369011D01*
X139395444Y-99168464D01*
X134373440Y-99168464D01*
X134373440Y-98250000D01*
X134329022Y-98026693D01*
X140210298Y-98026693D01*
X141562000Y-99378395D01*
X142913702Y-98026693D01*
X166880298Y-98026693D01*
X168232000Y-99378395D01*
X169583702Y-98026693D01*
X169420989Y-97705432D01*
X168621536Y-97391444D01*
X167762779Y-97407294D01*
X167043011Y-97705432D01*
X166880298Y-98026693D01*
X142913702Y-98026693D01*
X142750989Y-97705432D01*
X141951536Y-97391444D01*
X141092779Y-97407294D01*
X140373011Y-97705432D01*
X140210298Y-98026693D01*
X134329022Y-98026693D01*
X134324157Y-98002235D01*
X134183809Y-97792191D01*
X133973765Y-97651843D01*
X133726000Y-97602560D01*
X132126000Y-97602560D01*
X131878235Y-97651843D01*
X131668191Y-97792191D01*
X131527843Y-98002235D01*
X131501215Y-98136106D01*
X131420577Y-98015423D01*
X130945909Y-97698260D01*
X130527333Y-97615000D01*
X130244667Y-97615000D01*
X129826091Y-97698260D01*
X129351423Y-98015423D01*
X129116000Y-98367758D01*
X128880577Y-98015423D01*
X128405909Y-97698260D01*
X127987333Y-97615000D01*
X127704667Y-97615000D01*
X127286091Y-97698260D01*
X126811423Y-98015423D01*
X126576000Y-98367758D01*
X126340577Y-98015423D01*
X125865909Y-97698260D01*
X125447333Y-97615000D01*
X125164667Y-97615000D01*
X124746091Y-97698260D01*
X124271423Y-98015423D01*
X124036000Y-98367758D01*
X123800577Y-98015423D01*
X123325909Y-97698260D01*
X122907333Y-97615000D01*
X122624667Y-97615000D01*
X122206091Y-97698260D01*
X121731423Y-98015423D01*
X121496000Y-98367758D01*
X121260577Y-98015423D01*
X120785909Y-97698260D01*
X120367333Y-97615000D01*
X120084667Y-97615000D01*
X119666091Y-97698260D01*
X119191423Y-98015423D01*
X118956000Y-98367758D01*
X118720577Y-98015423D01*
X118245909Y-97698260D01*
X117827333Y-97615000D01*
X117544667Y-97615000D01*
X117126091Y-97698260D01*
X116651423Y-98015423D01*
X116416000Y-98367758D01*
X116180577Y-98015423D01*
X115705909Y-97698260D01*
X115287333Y-97615000D01*
X115004667Y-97615000D01*
X114586091Y-97698260D01*
X114111423Y-98015423D01*
X113876000Y-98367758D01*
X113640577Y-98015423D01*
X113165909Y-97698260D01*
X112747333Y-97615000D01*
X112464667Y-97615000D01*
X112046091Y-97698260D01*
X111571423Y-98015423D01*
X111336000Y-98367758D01*
X111100577Y-98015423D01*
X110625909Y-97698260D01*
X110207333Y-97615000D01*
X109924667Y-97615000D01*
X109506091Y-97698260D01*
X109031423Y-98015423D01*
X108796000Y-98367758D01*
X108560577Y-98015423D01*
X108085909Y-97698260D01*
X107667333Y-97615000D01*
X107384667Y-97615000D01*
X106966091Y-97698260D01*
X106491423Y-98015423D01*
X106256000Y-98367758D01*
X106020577Y-98015423D01*
X105545909Y-97698260D01*
X105127333Y-97615000D01*
X104844667Y-97615000D01*
X104426091Y-97698260D01*
X103951423Y-98015423D01*
X103716000Y-98367758D01*
X103480577Y-98015423D01*
X103005909Y-97698260D01*
X102587333Y-97615000D01*
X102304667Y-97615000D01*
X101886091Y-97698260D01*
X101411423Y-98015423D01*
X101176000Y-98367758D01*
X100940577Y-98015423D01*
X100465909Y-97698260D01*
X100047333Y-97615000D01*
X99764667Y-97615000D01*
X99346091Y-97698260D01*
X98871423Y-98015423D01*
X98636000Y-98367758D01*
X98400577Y-98015423D01*
X97925909Y-97698260D01*
X97507333Y-97615000D01*
X97224667Y-97615000D01*
X96806091Y-97698260D01*
X96331423Y-98015423D01*
X96014260Y-98490091D01*
X95902887Y-99050000D01*
X90710000Y-99050000D01*
X90710000Y-96875322D01*
X184365000Y-96875322D01*
X184365000Y-97724678D01*
X184690034Y-98509380D01*
X185290620Y-99109966D01*
X186075322Y-99435000D01*
X186924678Y-99435000D01*
X187709380Y-99109966D01*
X188309966Y-98509380D01*
X188635000Y-97724678D01*
X188635000Y-96875322D01*
X188309966Y-96090620D01*
X187709380Y-95490034D01*
X186924678Y-95165000D01*
X186075322Y-95165000D01*
X185290620Y-95490034D01*
X184690034Y-96090620D01*
X184365000Y-96875322D01*
X90710000Y-96875322D01*
X90710000Y-91064996D01*
X107925000Y-91064996D01*
X107925000Y-91795004D01*
X108204362Y-92469444D01*
X108720556Y-92985638D01*
X109394996Y-93265000D01*
X110125004Y-93265000D01*
X110799444Y-92985638D01*
X111315638Y-92469444D01*
X111595000Y-91795004D01*
X111595000Y-91430000D01*
X123129051Y-91430000D01*
X123271469Y-92145981D01*
X123677039Y-92752961D01*
X124284019Y-93158531D01*
X124819273Y-93265000D01*
X125180727Y-93265000D01*
X125715981Y-93158531D01*
X126322961Y-92752961D01*
X126728531Y-92145981D01*
X126870949Y-91430000D01*
X126728531Y-90714019D01*
X126453895Y-90302996D01*
X135155000Y-90302996D01*
X135155000Y-91033004D01*
X135434362Y-91707444D01*
X135950556Y-92223638D01*
X136624996Y-92503000D01*
X137355004Y-92503000D01*
X138029444Y-92223638D01*
X138545638Y-91707444D01*
X138825000Y-91033004D01*
X138825000Y-90668000D01*
X150359051Y-90668000D01*
X150501469Y-91383981D01*
X150907039Y-91990961D01*
X151514019Y-92396531D01*
X152049273Y-92503000D01*
X152410727Y-92503000D01*
X152945981Y-92396531D01*
X153552961Y-91990961D01*
X153958531Y-91383981D01*
X154100949Y-90668000D01*
X153958531Y-89952019D01*
X153552961Y-89345039D01*
X152945981Y-88939469D01*
X152410727Y-88833000D01*
X152049273Y-88833000D01*
X151514019Y-88939469D01*
X150907039Y-89345039D01*
X150501469Y-89952019D01*
X150359051Y-90668000D01*
X138825000Y-90668000D01*
X138825000Y-90302996D01*
X138545638Y-89628556D01*
X138029444Y-89112362D01*
X137355004Y-88833000D01*
X136624996Y-88833000D01*
X135950556Y-89112362D01*
X135434362Y-89628556D01*
X135155000Y-90302996D01*
X126453895Y-90302996D01*
X126322961Y-90107039D01*
X125715981Y-89701469D01*
X125180727Y-89595000D01*
X124819273Y-89595000D01*
X124284019Y-89701469D01*
X123677039Y-90107039D01*
X123271469Y-90714019D01*
X123129051Y-91430000D01*
X111595000Y-91430000D01*
X111595000Y-91064996D01*
X111315638Y-90390556D01*
X110799444Y-89874362D01*
X110125004Y-89595000D01*
X109394996Y-89595000D01*
X108720556Y-89874362D01*
X108204362Y-90390556D01*
X107925000Y-91064996D01*
X90710000Y-91064996D01*
X90710000Y-83285750D01*
X102115000Y-83285750D01*
X102115000Y-84126309D01*
X102211673Y-84359698D01*
X102390301Y-84538327D01*
X102425043Y-84552718D01*
X102363914Y-84613847D01*
X102115000Y-85214778D01*
X102115000Y-85865222D01*
X102363914Y-86466153D01*
X102707761Y-86810000D01*
X102363914Y-87153847D01*
X102115000Y-87754778D01*
X102115000Y-88405222D01*
X102363914Y-89006153D01*
X102823847Y-89466086D01*
X103424778Y-89715000D01*
X104075222Y-89715000D01*
X104676153Y-89466086D01*
X105136086Y-89006153D01*
X105385000Y-88405222D01*
X105385000Y-87754778D01*
X105136086Y-87153847D01*
X104792239Y-86810000D01*
X105136086Y-86466153D01*
X105385000Y-85865222D01*
X105385000Y-85214778D01*
X105296036Y-85000000D01*
X107889051Y-85000000D01*
X108031469Y-85715981D01*
X108437039Y-86322961D01*
X109044019Y-86728531D01*
X109579273Y-86835000D01*
X109940727Y-86835000D01*
X110475981Y-86728531D01*
X111082961Y-86322961D01*
X111488531Y-85715981D01*
X111630949Y-85000000D01*
X111558345Y-84634996D01*
X123165000Y-84634996D01*
X123165000Y-85365004D01*
X123444362Y-86039444D01*
X123960556Y-86555638D01*
X124634996Y-86835000D01*
X125365004Y-86835000D01*
X126039444Y-86555638D01*
X126555638Y-86039444D01*
X126835000Y-85365004D01*
X126835000Y-84634996D01*
X126555638Y-83960556D01*
X126039444Y-83444362D01*
X125656521Y-83285750D01*
X129615000Y-83285750D01*
X129615000Y-84126309D01*
X129711673Y-84359698D01*
X129890301Y-84538327D01*
X129925043Y-84552718D01*
X129863914Y-84613847D01*
X129615000Y-85214778D01*
X129615000Y-85865222D01*
X129863914Y-86466153D01*
X130207761Y-86810000D01*
X129863914Y-87153847D01*
X129615000Y-87754778D01*
X129615000Y-88405222D01*
X129863914Y-89006153D01*
X130323847Y-89466086D01*
X130924778Y-89715000D01*
X131575222Y-89715000D01*
X132176153Y-89466086D01*
X132636086Y-89006153D01*
X132885000Y-88405222D01*
X132885000Y-87754778D01*
X132636086Y-87153847D01*
X132292239Y-86810000D01*
X132636086Y-86466153D01*
X132885000Y-85865222D01*
X132885000Y-85214778D01*
X132677984Y-84714996D01*
X135155000Y-84714996D01*
X135155000Y-85445004D01*
X135434362Y-86119444D01*
X135950556Y-86635638D01*
X136624996Y-86915000D01*
X137355004Y-86915000D01*
X138029444Y-86635638D01*
X138545638Y-86119444D01*
X138825000Y-85445004D01*
X138825000Y-85080000D01*
X150359051Y-85080000D01*
X150501469Y-85795981D01*
X150907039Y-86402961D01*
X151514019Y-86808531D01*
X152049273Y-86915000D01*
X152410727Y-86915000D01*
X152945981Y-86808531D01*
X153552961Y-86402961D01*
X153958531Y-85795981D01*
X154100949Y-85080000D01*
X153958531Y-84364019D01*
X153552961Y-83757039D01*
X152945981Y-83351469D01*
X152615591Y-83285750D01*
X157115000Y-83285750D01*
X157115000Y-84126309D01*
X157211673Y-84359698D01*
X157390301Y-84538327D01*
X157425043Y-84552718D01*
X157363914Y-84613847D01*
X157115000Y-85214778D01*
X157115000Y-85865222D01*
X157363914Y-86466153D01*
X157707761Y-86810000D01*
X157363914Y-87153847D01*
X157115000Y-87754778D01*
X157115000Y-88405222D01*
X157363914Y-89006153D01*
X157823847Y-89466086D01*
X158424778Y-89715000D01*
X159075222Y-89715000D01*
X159676153Y-89466086D01*
X160136086Y-89006153D01*
X160385000Y-88405222D01*
X160385000Y-88344000D01*
X165260560Y-88344000D01*
X165260560Y-89944000D01*
X165309843Y-90191765D01*
X165450191Y-90401809D01*
X165660235Y-90542157D01*
X165908000Y-90591440D01*
X167508000Y-90591440D01*
X167755765Y-90542157D01*
X167965809Y-90401809D01*
X168106157Y-90191765D01*
X168155440Y-89944000D01*
X168155440Y-88627745D01*
X173539861Y-88627745D01*
X173613995Y-88873864D01*
X174151223Y-89066965D01*
X174721454Y-89039778D01*
X175122005Y-88873864D01*
X175196139Y-88627745D01*
X174368000Y-87799605D01*
X173539861Y-88627745D01*
X168155440Y-88627745D01*
X168155440Y-88344000D01*
X168106157Y-88096235D01*
X167965809Y-87886191D01*
X167755765Y-87745843D01*
X167521813Y-87699307D01*
X167536139Y-87651745D01*
X166708000Y-86823605D01*
X165879861Y-87651745D01*
X165894187Y-87699307D01*
X165660235Y-87745843D01*
X165450191Y-87886191D01*
X165309843Y-88096235D01*
X165260560Y-88344000D01*
X160385000Y-88344000D01*
X160385000Y-87754778D01*
X160136086Y-87153847D01*
X159792239Y-86810000D01*
X160136086Y-86466153D01*
X160152211Y-86427223D01*
X165261035Y-86427223D01*
X165288222Y-86997454D01*
X165454136Y-87398005D01*
X165700255Y-87472139D01*
X166528395Y-86644000D01*
X166887605Y-86644000D01*
X167715745Y-87472139D01*
X167944540Y-87403223D01*
X172921035Y-87403223D01*
X172948222Y-87973454D01*
X173114136Y-88374005D01*
X173360255Y-88448139D01*
X174188395Y-87620000D01*
X174547605Y-87620000D01*
X175375745Y-88448139D01*
X175423307Y-88433813D01*
X175469843Y-88667765D01*
X175610191Y-88877809D01*
X175820235Y-89018157D01*
X176068000Y-89067440D01*
X177668000Y-89067440D01*
X177915765Y-89018157D01*
X178125809Y-88877809D01*
X178266157Y-88667765D01*
X178315440Y-88420000D01*
X178315440Y-86820000D01*
X178266157Y-86572235D01*
X178125809Y-86362191D01*
X177915765Y-86221843D01*
X177668000Y-86172560D01*
X176068000Y-86172560D01*
X175820235Y-86221843D01*
X175610191Y-86362191D01*
X175469843Y-86572235D01*
X175423307Y-86806187D01*
X175375745Y-86791861D01*
X174547605Y-87620000D01*
X174188395Y-87620000D01*
X173360255Y-86791861D01*
X173114136Y-86865995D01*
X172921035Y-87403223D01*
X167944540Y-87403223D01*
X167961864Y-87398005D01*
X168154965Y-86860777D01*
X168143117Y-86612255D01*
X173539861Y-86612255D01*
X174368000Y-87440395D01*
X175196139Y-86612255D01*
X175122005Y-86366136D01*
X174584777Y-86173035D01*
X174014546Y-86200222D01*
X173613995Y-86366136D01*
X173539861Y-86612255D01*
X168143117Y-86612255D01*
X168127778Y-86290546D01*
X167961864Y-85889995D01*
X167715745Y-85815861D01*
X166887605Y-86644000D01*
X166528395Y-86644000D01*
X165700255Y-85815861D01*
X165454136Y-85889995D01*
X165261035Y-86427223D01*
X160152211Y-86427223D01*
X160385000Y-85865222D01*
X160385000Y-85636255D01*
X165879861Y-85636255D01*
X166708000Y-86464395D01*
X167536139Y-85636255D01*
X167462005Y-85390136D01*
X166924777Y-85197035D01*
X166354546Y-85224222D01*
X165953995Y-85390136D01*
X165879861Y-85636255D01*
X160385000Y-85636255D01*
X160385000Y-85214778D01*
X160136086Y-84613847D01*
X160074957Y-84552718D01*
X160109699Y-84538327D01*
X160288327Y-84359698D01*
X160385000Y-84126309D01*
X160385000Y-83285750D01*
X184615000Y-83285750D01*
X184615000Y-84126309D01*
X184711673Y-84359698D01*
X184890301Y-84538327D01*
X184925043Y-84552718D01*
X184863914Y-84613847D01*
X184615000Y-85214778D01*
X184615000Y-85865222D01*
X184863914Y-86466153D01*
X185207761Y-86810000D01*
X184863914Y-87153847D01*
X184615000Y-87754778D01*
X184615000Y-88405222D01*
X184863914Y-89006153D01*
X185323847Y-89466086D01*
X185924778Y-89715000D01*
X186575222Y-89715000D01*
X187176153Y-89466086D01*
X187636086Y-89006153D01*
X187835387Y-88524996D01*
X192559000Y-88524996D01*
X192559000Y-89255004D01*
X192838362Y-89929444D01*
X193354556Y-90445638D01*
X194028996Y-90725000D01*
X194759004Y-90725000D01*
X195433444Y-90445638D01*
X195949638Y-89929444D01*
X196229000Y-89255004D01*
X196229000Y-88524996D01*
X195949638Y-87850556D01*
X195433444Y-87334362D01*
X194759004Y-87055000D01*
X194028996Y-87055000D01*
X193354556Y-87334362D01*
X192838362Y-87850556D01*
X192559000Y-88524996D01*
X187835387Y-88524996D01*
X187885000Y-88405222D01*
X187885000Y-87754778D01*
X187636086Y-87153847D01*
X187292239Y-86810000D01*
X187636086Y-86466153D01*
X187885000Y-85865222D01*
X187885000Y-85214778D01*
X187636086Y-84613847D01*
X187574957Y-84552718D01*
X187609699Y-84538327D01*
X187788327Y-84359698D01*
X187885000Y-84126309D01*
X187885000Y-83524996D01*
X192559000Y-83524996D01*
X192559000Y-84255004D01*
X192838362Y-84929444D01*
X193354556Y-85445638D01*
X194028996Y-85725000D01*
X194759004Y-85725000D01*
X195433444Y-85445638D01*
X195949638Y-84929444D01*
X196229000Y-84255004D01*
X196229000Y-83524996D01*
X195949638Y-82850556D01*
X195433444Y-82334362D01*
X194759004Y-82055000D01*
X194028996Y-82055000D01*
X193354556Y-82334362D01*
X192838362Y-82850556D01*
X192559000Y-83524996D01*
X187885000Y-83524996D01*
X187885000Y-83285750D01*
X187726250Y-83127000D01*
X186377000Y-83127000D01*
X186377000Y-83147000D01*
X186123000Y-83147000D01*
X186123000Y-83127000D01*
X184773750Y-83127000D01*
X184615000Y-83285750D01*
X160385000Y-83285750D01*
X160226250Y-83127000D01*
X158877000Y-83127000D01*
X158877000Y-83147000D01*
X158623000Y-83147000D01*
X158623000Y-83127000D01*
X157273750Y-83127000D01*
X157115000Y-83285750D01*
X152615591Y-83285750D01*
X152410727Y-83245000D01*
X152049273Y-83245000D01*
X151514019Y-83351469D01*
X150907039Y-83757039D01*
X150501469Y-84364019D01*
X150359051Y-85080000D01*
X138825000Y-85080000D01*
X138825000Y-84714996D01*
X138545638Y-84040556D01*
X138029444Y-83524362D01*
X137355004Y-83245000D01*
X136624996Y-83245000D01*
X135950556Y-83524362D01*
X135434362Y-84040556D01*
X135155000Y-84714996D01*
X132677984Y-84714996D01*
X132636086Y-84613847D01*
X132574957Y-84552718D01*
X132609699Y-84538327D01*
X132788327Y-84359698D01*
X132885000Y-84126309D01*
X132885000Y-83285750D01*
X132726250Y-83127000D01*
X131377000Y-83127000D01*
X131377000Y-83147000D01*
X131123000Y-83147000D01*
X131123000Y-83127000D01*
X129773750Y-83127000D01*
X129615000Y-83285750D01*
X125656521Y-83285750D01*
X125365004Y-83165000D01*
X124634996Y-83165000D01*
X123960556Y-83444362D01*
X123444362Y-83960556D01*
X123165000Y-84634996D01*
X111558345Y-84634996D01*
X111488531Y-84284019D01*
X111082961Y-83677039D01*
X110475981Y-83271469D01*
X109940727Y-83165000D01*
X109579273Y-83165000D01*
X109044019Y-83271469D01*
X108437039Y-83677039D01*
X108031469Y-84284019D01*
X107889051Y-85000000D01*
X105296036Y-85000000D01*
X105136086Y-84613847D01*
X105074957Y-84552718D01*
X105109699Y-84538327D01*
X105288327Y-84359698D01*
X105385000Y-84126309D01*
X105385000Y-83285750D01*
X105226250Y-83127000D01*
X103877000Y-83127000D01*
X103877000Y-83147000D01*
X103623000Y-83147000D01*
X103623000Y-83127000D01*
X102273750Y-83127000D01*
X102115000Y-83285750D01*
X90710000Y-83285750D01*
X90710000Y-81873691D01*
X102115000Y-81873691D01*
X102115000Y-82714250D01*
X102273750Y-82873000D01*
X103623000Y-82873000D01*
X103623000Y-81523750D01*
X103877000Y-81523750D01*
X103877000Y-82873000D01*
X105226250Y-82873000D01*
X105385000Y-82714250D01*
X105385000Y-81873691D01*
X129615000Y-81873691D01*
X129615000Y-82714250D01*
X129773750Y-82873000D01*
X131123000Y-82873000D01*
X131123000Y-81523750D01*
X131377000Y-81523750D01*
X131377000Y-82873000D01*
X132726250Y-82873000D01*
X132885000Y-82714250D01*
X132885000Y-81873691D01*
X157115000Y-81873691D01*
X157115000Y-82714250D01*
X157273750Y-82873000D01*
X158623000Y-82873000D01*
X158623000Y-81523750D01*
X158877000Y-81523750D01*
X158877000Y-82873000D01*
X160226250Y-82873000D01*
X160385000Y-82714250D01*
X160385000Y-81873691D01*
X184615000Y-81873691D01*
X184615000Y-82714250D01*
X184773750Y-82873000D01*
X186123000Y-82873000D01*
X186123000Y-81523750D01*
X186377000Y-81523750D01*
X186377000Y-82873000D01*
X187726250Y-82873000D01*
X187885000Y-82714250D01*
X187885000Y-81873691D01*
X187788327Y-81640302D01*
X187609699Y-81461673D01*
X187376310Y-81365000D01*
X186535750Y-81365000D01*
X186377000Y-81523750D01*
X186123000Y-81523750D01*
X185964250Y-81365000D01*
X185123690Y-81365000D01*
X184890301Y-81461673D01*
X184711673Y-81640302D01*
X184615000Y-81873691D01*
X160385000Y-81873691D01*
X160288327Y-81640302D01*
X160109699Y-81461673D01*
X159876310Y-81365000D01*
X159035750Y-81365000D01*
X158877000Y-81523750D01*
X158623000Y-81523750D01*
X158464250Y-81365000D01*
X157623690Y-81365000D01*
X157390301Y-81461673D01*
X157211673Y-81640302D01*
X157115000Y-81873691D01*
X132885000Y-81873691D01*
X132788327Y-81640302D01*
X132609699Y-81461673D01*
X132376310Y-81365000D01*
X131535750Y-81365000D01*
X131377000Y-81523750D01*
X131123000Y-81523750D01*
X130964250Y-81365000D01*
X130123690Y-81365000D01*
X129890301Y-81461673D01*
X129711673Y-81640302D01*
X129615000Y-81873691D01*
X105385000Y-81873691D01*
X105288327Y-81640302D01*
X105109699Y-81461673D01*
X104876310Y-81365000D01*
X104035750Y-81365000D01*
X103877000Y-81523750D01*
X103623000Y-81523750D01*
X103464250Y-81365000D01*
X102623690Y-81365000D01*
X102390301Y-81461673D01*
X102211673Y-81640302D01*
X102115000Y-81873691D01*
X90710000Y-81873691D01*
X90710000Y-80710000D01*
X199290001Y-80710000D01*
X199290000Y-139290000D01*
G04 #@! TD*
M02*
