G04 #@! TF.GenerationSoftware,KiCad,Pcbnew,5.0.2-bee76a0~70~ubuntu18.04.1*
G04 #@! TF.CreationDate,2019-01-27T14:50:31+01:00*
G04 #@! TF.ProjectId,magic-switchboard,6d616769-632d-4737-9769-746368626f61,v3*
G04 #@! TF.SameCoordinates,Original*
G04 #@! TF.FileFunction,Copper,L1,Top*
G04 #@! TF.FilePolarity,Positive*
%FSLAX46Y46*%
G04 Gerber Fmt 4.6, Leading zero omitted, Abs format (unit mm)*
G04 Created by KiCad (PCBNEW 5.0.2-bee76a0~70~ubuntu18.04.1) date So 27 Jan 2019 14:50:31 CET*
%MOMM*%
%LPD*%
G01*
G04 APERTURE LIST*
G04 #@! TA.AperFunction,SMDPad,CuDef*
%ADD10R,8.000000X8.000000*%
G04 #@! TD*
G04 #@! TA.AperFunction,ComponentPad*
%ADD11C,3.000000*%
G04 #@! TD*
G04 #@! TA.AperFunction,ComponentPad*
%ADD12C,3.048000*%
G04 #@! TD*
G04 #@! TA.AperFunction,ComponentPad*
%ADD13O,1.600000X1.600000*%
G04 #@! TD*
G04 #@! TA.AperFunction,ComponentPad*
%ADD14R,1.600000X1.600000*%
G04 #@! TD*
G04 #@! TA.AperFunction,ComponentPad*
%ADD15C,1.600000*%
G04 #@! TD*
G04 #@! TA.AperFunction,ComponentPad*
%ADD16R,1.050000X1.500000*%
G04 #@! TD*
G04 #@! TA.AperFunction,Conductor*
%ADD17C,0.100000*%
G04 #@! TD*
G04 #@! TA.AperFunction,ComponentPad*
%ADD18C,1.050000*%
G04 #@! TD*
G04 #@! TA.AperFunction,ComponentPad*
%ADD19C,2.000000*%
G04 #@! TD*
G04 #@! TA.AperFunction,ComponentPad*
%ADD20C,1.524000*%
G04 #@! TD*
G04 #@! TA.AperFunction,Conductor*
%ADD21C,0.020000*%
G04 #@! TD*
G04 #@! TA.AperFunction,Conductor*
%ADD22C,0.010000*%
G04 #@! TD*
G04 #@! TA.AperFunction,Conductor*
%ADD23C,0.254000*%
G04 #@! TD*
G04 APERTURE END LIST*
D10*
G04 #@! TO.P,BT1,2*
G04 #@! TO.N,GND*
X177000000Y-111000000D03*
D11*
G04 #@! TO.P,BT1,1*
G04 #@! TO.N,Net-(BT1-Pad1)*
X177000000Y-98300000D03*
X177000000Y-123700000D03*
G04 #@! TD*
D12*
G04 #@! TO.P,U1,4*
G04 #@! TO.N,VCC*
X141015000Y-97500000D03*
G04 #@! TO.P,U1,3*
G04 #@! TO.N,GND*
X154985000Y-97500000D03*
G04 #@! TO.P,U1,2*
X154985000Y-123500000D03*
G04 #@! TO.P,U1,1*
G04 #@! TO.N,Net-(C1-Pad1)*
X141015000Y-123500000D03*
G04 #@! TD*
D11*
G04 #@! TO.P,D1,1*
G04 #@! TO.N,Net-(D1-Pad1)*
X188500000Y-134000000D03*
G04 #@! TO.P,D1,2*
G04 #@! TO.N,VCC*
X178500000Y-134000000D03*
G04 #@! TD*
G04 #@! TO.P,D2,1*
G04 #@! TO.N,Net-(D2-Pad1)*
X159500000Y-134000000D03*
G04 #@! TO.P,D2,2*
G04 #@! TO.N,VCC*
X149500000Y-134000000D03*
G04 #@! TD*
G04 #@! TO.P,D3,1*
G04 #@! TO.N,Net-(D3-Pad1)*
X130500000Y-134000000D03*
G04 #@! TO.P,D3,2*
G04 #@! TO.N,VCC*
X120500000Y-134000000D03*
G04 #@! TD*
G04 #@! TO.P,D4,1*
G04 #@! TO.N,Net-(D4-Pad1)*
X101500000Y-134000000D03*
G04 #@! TO.P,D4,2*
G04 #@! TO.N,VCC*
X91500000Y-134000000D03*
G04 #@! TD*
D13*
G04 #@! TO.P,A1,16*
G04 #@! TO.N,N/C*
X97440000Y-112240000D03*
G04 #@! TO.P,A1,15*
X97440000Y-97000000D03*
G04 #@! TO.P,A1,30*
G04 #@! TO.N,VCC*
X133000000Y-112240000D03*
G04 #@! TO.P,A1,14*
G04 #@! TO.N,N/C*
X99980000Y-97000000D03*
G04 #@! TO.P,A1,29*
G04 #@! TO.N,GND*
X130460000Y-112240000D03*
G04 #@! TO.P,A1,13*
G04 #@! TO.N,deadmantrap*
X102520000Y-97000000D03*
G04 #@! TO.P,A1,28*
G04 #@! TO.N,N/C*
X127920000Y-112240000D03*
G04 #@! TO.P,A1,12*
G04 #@! TO.N,Net-(A1-Pad12)*
X105060000Y-97000000D03*
G04 #@! TO.P,A1,27*
G04 #@! TO.N,N/C*
X125380000Y-112240000D03*
G04 #@! TO.P,A1,11*
G04 #@! TO.N,Net-(A1-Pad11)*
X107600000Y-97000000D03*
G04 #@! TO.P,A1,26*
G04 #@! TO.N,N/C*
X122840000Y-112240000D03*
G04 #@! TO.P,A1,10*
G04 #@! TO.N,Net-(A1-Pad10)*
X110140000Y-97000000D03*
G04 #@! TO.P,A1,25*
G04 #@! TO.N,N/C*
X120300000Y-112240000D03*
G04 #@! TO.P,A1,9*
G04 #@! TO.N,Net-(A1-Pad9)*
X112680000Y-97000000D03*
G04 #@! TO.P,A1,24*
G04 #@! TO.N,N/C*
X117760000Y-112240000D03*
G04 #@! TO.P,A1,8*
G04 #@! TO.N,Net-(A1-Pad8)*
X115220000Y-97000000D03*
G04 #@! TO.P,A1,23*
G04 #@! TO.N,N/C*
X115220000Y-112240000D03*
G04 #@! TO.P,A1,7*
G04 #@! TO.N,Net-(A1-Pad7)*
X117760000Y-97000000D03*
G04 #@! TO.P,A1,22*
G04 #@! TO.N,N/C*
X112680000Y-112240000D03*
G04 #@! TO.P,A1,6*
G04 #@! TO.N,Net-(A1-Pad6)*
X120300000Y-97000000D03*
G04 #@! TO.P,A1,21*
G04 #@! TO.N,N/C*
X110140000Y-112240000D03*
G04 #@! TO.P,A1,5*
G04 #@! TO.N,Net-(A1-Pad5)*
X122840000Y-97000000D03*
G04 #@! TO.P,A1,20*
G04 #@! TO.N,N/C*
X107600000Y-112240000D03*
G04 #@! TO.P,A1,4*
X125380000Y-97000000D03*
G04 #@! TO.P,A1,19*
X105060000Y-112240000D03*
G04 #@! TO.P,A1,3*
X127920000Y-97000000D03*
G04 #@! TO.P,A1,18*
X102520000Y-112240000D03*
G04 #@! TO.P,A1,2*
X130460000Y-97000000D03*
G04 #@! TO.P,A1,17*
X99980000Y-112240000D03*
D14*
G04 #@! TO.P,A1,1*
X133000000Y-97000000D03*
G04 #@! TD*
D15*
G04 #@! TO.P,C1,2*
G04 #@! TO.N,GND*
X123500000Y-121000000D03*
D14*
G04 #@! TO.P,C1,1*
G04 #@! TO.N,Net-(C1-Pad1)*
X121000000Y-121000000D03*
G04 #@! TD*
D15*
G04 #@! TO.P,C2,2*
G04 #@! TO.N,GND*
X131500000Y-120900000D03*
D14*
G04 #@! TO.P,C2,1*
G04 #@! TO.N,VCC*
X129000000Y-120900000D03*
G04 #@! TD*
D16*
G04 #@! TO.P,Q1,1*
G04 #@! TO.N,powerswitch*
X167730000Y-86000000D03*
D17*
G04 #@! TD*
G04 #@! TO.N,GND*
G04 #@! TO.C,Q1*
G36*
X170558229Y-85251264D02*
X170583711Y-85255044D01*
X170608700Y-85261303D01*
X170632954Y-85269982D01*
X170656242Y-85280996D01*
X170678337Y-85294239D01*
X170699028Y-85309585D01*
X170718116Y-85326884D01*
X170735415Y-85345972D01*
X170750761Y-85366663D01*
X170764004Y-85388758D01*
X170775018Y-85412046D01*
X170783697Y-85436300D01*
X170789956Y-85461289D01*
X170793736Y-85486771D01*
X170795000Y-85512500D01*
X170795000Y-86487500D01*
X170793736Y-86513229D01*
X170789956Y-86538711D01*
X170783697Y-86563700D01*
X170775018Y-86587954D01*
X170764004Y-86611242D01*
X170750761Y-86633337D01*
X170735415Y-86654028D01*
X170718116Y-86673116D01*
X170699028Y-86690415D01*
X170678337Y-86705761D01*
X170656242Y-86719004D01*
X170632954Y-86730018D01*
X170608700Y-86738697D01*
X170583711Y-86744956D01*
X170558229Y-86748736D01*
X170532500Y-86750000D01*
X170007500Y-86750000D01*
X169981771Y-86748736D01*
X169956289Y-86744956D01*
X169931300Y-86738697D01*
X169907046Y-86730018D01*
X169883758Y-86719004D01*
X169861663Y-86705761D01*
X169840972Y-86690415D01*
X169821884Y-86673116D01*
X169804585Y-86654028D01*
X169789239Y-86633337D01*
X169775996Y-86611242D01*
X169764982Y-86587954D01*
X169756303Y-86563700D01*
X169750044Y-86538711D01*
X169746264Y-86513229D01*
X169745000Y-86487500D01*
X169745000Y-85512500D01*
X169746264Y-85486771D01*
X169750044Y-85461289D01*
X169756303Y-85436300D01*
X169764982Y-85412046D01*
X169775996Y-85388758D01*
X169789239Y-85366663D01*
X169804585Y-85345972D01*
X169821884Y-85326884D01*
X169840972Y-85309585D01*
X169861663Y-85294239D01*
X169883758Y-85280996D01*
X169907046Y-85269982D01*
X169931300Y-85261303D01*
X169956289Y-85255044D01*
X169981771Y-85251264D01*
X170007500Y-85250000D01*
X170532500Y-85250000D01*
X170558229Y-85251264D01*
X170558229Y-85251264D01*
G37*
D18*
G04 #@! TO.P,Q1,3*
G04 #@! TO.N,GND*
X170270000Y-86000000D03*
D17*
G04 #@! TD*
G04 #@! TO.N,Net-(Q1-Pad2)*
G04 #@! TO.C,Q1*
G36*
X169288229Y-85251264D02*
X169313711Y-85255044D01*
X169338700Y-85261303D01*
X169362954Y-85269982D01*
X169386242Y-85280996D01*
X169408337Y-85294239D01*
X169429028Y-85309585D01*
X169448116Y-85326884D01*
X169465415Y-85345972D01*
X169480761Y-85366663D01*
X169494004Y-85388758D01*
X169505018Y-85412046D01*
X169513697Y-85436300D01*
X169519956Y-85461289D01*
X169523736Y-85486771D01*
X169525000Y-85512500D01*
X169525000Y-86487500D01*
X169523736Y-86513229D01*
X169519956Y-86538711D01*
X169513697Y-86563700D01*
X169505018Y-86587954D01*
X169494004Y-86611242D01*
X169480761Y-86633337D01*
X169465415Y-86654028D01*
X169448116Y-86673116D01*
X169429028Y-86690415D01*
X169408337Y-86705761D01*
X169386242Y-86719004D01*
X169362954Y-86730018D01*
X169338700Y-86738697D01*
X169313711Y-86744956D01*
X169288229Y-86748736D01*
X169262500Y-86750000D01*
X168737500Y-86750000D01*
X168711771Y-86748736D01*
X168686289Y-86744956D01*
X168661300Y-86738697D01*
X168637046Y-86730018D01*
X168613758Y-86719004D01*
X168591663Y-86705761D01*
X168570972Y-86690415D01*
X168551884Y-86673116D01*
X168534585Y-86654028D01*
X168519239Y-86633337D01*
X168505996Y-86611242D01*
X168494982Y-86587954D01*
X168486303Y-86563700D01*
X168480044Y-86538711D01*
X168476264Y-86513229D01*
X168475000Y-86487500D01*
X168475000Y-85512500D01*
X168476264Y-85486771D01*
X168480044Y-85461289D01*
X168486303Y-85436300D01*
X168494982Y-85412046D01*
X168505996Y-85388758D01*
X168519239Y-85366663D01*
X168534585Y-85345972D01*
X168551884Y-85326884D01*
X168570972Y-85309585D01*
X168591663Y-85294239D01*
X168613758Y-85280996D01*
X168637046Y-85269982D01*
X168661300Y-85261303D01*
X168686289Y-85255044D01*
X168711771Y-85251264D01*
X168737500Y-85250000D01*
X169262500Y-85250000D01*
X169288229Y-85251264D01*
X169288229Y-85251264D01*
G37*
D18*
G04 #@! TO.P,Q1,2*
G04 #@! TO.N,Net-(Q1-Pad2)*
X169000000Y-86000000D03*
G04 #@! TD*
D16*
G04 #@! TO.P,Q2,1*
G04 #@! TO.N,Net-(BT1-Pad1)*
X138730000Y-86000000D03*
D17*
G04 #@! TD*
G04 #@! TO.N,Net-(C1-Pad1)*
G04 #@! TO.C,Q2*
G36*
X141558229Y-85251264D02*
X141583711Y-85255044D01*
X141608700Y-85261303D01*
X141632954Y-85269982D01*
X141656242Y-85280996D01*
X141678337Y-85294239D01*
X141699028Y-85309585D01*
X141718116Y-85326884D01*
X141735415Y-85345972D01*
X141750761Y-85366663D01*
X141764004Y-85388758D01*
X141775018Y-85412046D01*
X141783697Y-85436300D01*
X141789956Y-85461289D01*
X141793736Y-85486771D01*
X141795000Y-85512500D01*
X141795000Y-86487500D01*
X141793736Y-86513229D01*
X141789956Y-86538711D01*
X141783697Y-86563700D01*
X141775018Y-86587954D01*
X141764004Y-86611242D01*
X141750761Y-86633337D01*
X141735415Y-86654028D01*
X141718116Y-86673116D01*
X141699028Y-86690415D01*
X141678337Y-86705761D01*
X141656242Y-86719004D01*
X141632954Y-86730018D01*
X141608700Y-86738697D01*
X141583711Y-86744956D01*
X141558229Y-86748736D01*
X141532500Y-86750000D01*
X141007500Y-86750000D01*
X140981771Y-86748736D01*
X140956289Y-86744956D01*
X140931300Y-86738697D01*
X140907046Y-86730018D01*
X140883758Y-86719004D01*
X140861663Y-86705761D01*
X140840972Y-86690415D01*
X140821884Y-86673116D01*
X140804585Y-86654028D01*
X140789239Y-86633337D01*
X140775996Y-86611242D01*
X140764982Y-86587954D01*
X140756303Y-86563700D01*
X140750044Y-86538711D01*
X140746264Y-86513229D01*
X140745000Y-86487500D01*
X140745000Y-85512500D01*
X140746264Y-85486771D01*
X140750044Y-85461289D01*
X140756303Y-85436300D01*
X140764982Y-85412046D01*
X140775996Y-85388758D01*
X140789239Y-85366663D01*
X140804585Y-85345972D01*
X140821884Y-85326884D01*
X140840972Y-85309585D01*
X140861663Y-85294239D01*
X140883758Y-85280996D01*
X140907046Y-85269982D01*
X140931300Y-85261303D01*
X140956289Y-85255044D01*
X140981771Y-85251264D01*
X141007500Y-85250000D01*
X141532500Y-85250000D01*
X141558229Y-85251264D01*
X141558229Y-85251264D01*
G37*
D18*
G04 #@! TO.P,Q2,3*
G04 #@! TO.N,Net-(C1-Pad1)*
X141270000Y-86000000D03*
D17*
G04 #@! TD*
G04 #@! TO.N,powerswitch*
G04 #@! TO.C,Q2*
G36*
X140288229Y-85251264D02*
X140313711Y-85255044D01*
X140338700Y-85261303D01*
X140362954Y-85269982D01*
X140386242Y-85280996D01*
X140408337Y-85294239D01*
X140429028Y-85309585D01*
X140448116Y-85326884D01*
X140465415Y-85345972D01*
X140480761Y-85366663D01*
X140494004Y-85388758D01*
X140505018Y-85412046D01*
X140513697Y-85436300D01*
X140519956Y-85461289D01*
X140523736Y-85486771D01*
X140525000Y-85512500D01*
X140525000Y-86487500D01*
X140523736Y-86513229D01*
X140519956Y-86538711D01*
X140513697Y-86563700D01*
X140505018Y-86587954D01*
X140494004Y-86611242D01*
X140480761Y-86633337D01*
X140465415Y-86654028D01*
X140448116Y-86673116D01*
X140429028Y-86690415D01*
X140408337Y-86705761D01*
X140386242Y-86719004D01*
X140362954Y-86730018D01*
X140338700Y-86738697D01*
X140313711Y-86744956D01*
X140288229Y-86748736D01*
X140262500Y-86750000D01*
X139737500Y-86750000D01*
X139711771Y-86748736D01*
X139686289Y-86744956D01*
X139661300Y-86738697D01*
X139637046Y-86730018D01*
X139613758Y-86719004D01*
X139591663Y-86705761D01*
X139570972Y-86690415D01*
X139551884Y-86673116D01*
X139534585Y-86654028D01*
X139519239Y-86633337D01*
X139505996Y-86611242D01*
X139494982Y-86587954D01*
X139486303Y-86563700D01*
X139480044Y-86538711D01*
X139476264Y-86513229D01*
X139475000Y-86487500D01*
X139475000Y-85512500D01*
X139476264Y-85486771D01*
X139480044Y-85461289D01*
X139486303Y-85436300D01*
X139494982Y-85412046D01*
X139505996Y-85388758D01*
X139519239Y-85366663D01*
X139534585Y-85345972D01*
X139551884Y-85326884D01*
X139570972Y-85309585D01*
X139591663Y-85294239D01*
X139613758Y-85280996D01*
X139637046Y-85269982D01*
X139661300Y-85261303D01*
X139686289Y-85255044D01*
X139711771Y-85251264D01*
X139737500Y-85250000D01*
X140262500Y-85250000D01*
X140288229Y-85251264D01*
X140288229Y-85251264D01*
G37*
D18*
G04 #@! TO.P,Q2,2*
G04 #@! TO.N,powerswitch*
X140000000Y-86000000D03*
G04 #@! TD*
D16*
G04 #@! TO.P,Q3,1*
G04 #@! TO.N,GND*
X113000000Y-121000000D03*
D17*
G04 #@! TD*
G04 #@! TO.N,Net-(D1-Pad1)*
G04 #@! TO.C,Q3*
G36*
X115828229Y-120251264D02*
X115853711Y-120255044D01*
X115878700Y-120261303D01*
X115902954Y-120269982D01*
X115926242Y-120280996D01*
X115948337Y-120294239D01*
X115969028Y-120309585D01*
X115988116Y-120326884D01*
X116005415Y-120345972D01*
X116020761Y-120366663D01*
X116034004Y-120388758D01*
X116045018Y-120412046D01*
X116053697Y-120436300D01*
X116059956Y-120461289D01*
X116063736Y-120486771D01*
X116065000Y-120512500D01*
X116065000Y-121487500D01*
X116063736Y-121513229D01*
X116059956Y-121538711D01*
X116053697Y-121563700D01*
X116045018Y-121587954D01*
X116034004Y-121611242D01*
X116020761Y-121633337D01*
X116005415Y-121654028D01*
X115988116Y-121673116D01*
X115969028Y-121690415D01*
X115948337Y-121705761D01*
X115926242Y-121719004D01*
X115902954Y-121730018D01*
X115878700Y-121738697D01*
X115853711Y-121744956D01*
X115828229Y-121748736D01*
X115802500Y-121750000D01*
X115277500Y-121750000D01*
X115251771Y-121748736D01*
X115226289Y-121744956D01*
X115201300Y-121738697D01*
X115177046Y-121730018D01*
X115153758Y-121719004D01*
X115131663Y-121705761D01*
X115110972Y-121690415D01*
X115091884Y-121673116D01*
X115074585Y-121654028D01*
X115059239Y-121633337D01*
X115045996Y-121611242D01*
X115034982Y-121587954D01*
X115026303Y-121563700D01*
X115020044Y-121538711D01*
X115016264Y-121513229D01*
X115015000Y-121487500D01*
X115015000Y-120512500D01*
X115016264Y-120486771D01*
X115020044Y-120461289D01*
X115026303Y-120436300D01*
X115034982Y-120412046D01*
X115045996Y-120388758D01*
X115059239Y-120366663D01*
X115074585Y-120345972D01*
X115091884Y-120326884D01*
X115110972Y-120309585D01*
X115131663Y-120294239D01*
X115153758Y-120280996D01*
X115177046Y-120269982D01*
X115201300Y-120261303D01*
X115226289Y-120255044D01*
X115251771Y-120251264D01*
X115277500Y-120250000D01*
X115802500Y-120250000D01*
X115828229Y-120251264D01*
X115828229Y-120251264D01*
G37*
D18*
G04 #@! TO.P,Q3,3*
G04 #@! TO.N,Net-(D1-Pad1)*
X115540000Y-121000000D03*
D17*
G04 #@! TD*
G04 #@! TO.N,Net-(A1-Pad9)*
G04 #@! TO.C,Q3*
G36*
X114558229Y-120251264D02*
X114583711Y-120255044D01*
X114608700Y-120261303D01*
X114632954Y-120269982D01*
X114656242Y-120280996D01*
X114678337Y-120294239D01*
X114699028Y-120309585D01*
X114718116Y-120326884D01*
X114735415Y-120345972D01*
X114750761Y-120366663D01*
X114764004Y-120388758D01*
X114775018Y-120412046D01*
X114783697Y-120436300D01*
X114789956Y-120461289D01*
X114793736Y-120486771D01*
X114795000Y-120512500D01*
X114795000Y-121487500D01*
X114793736Y-121513229D01*
X114789956Y-121538711D01*
X114783697Y-121563700D01*
X114775018Y-121587954D01*
X114764004Y-121611242D01*
X114750761Y-121633337D01*
X114735415Y-121654028D01*
X114718116Y-121673116D01*
X114699028Y-121690415D01*
X114678337Y-121705761D01*
X114656242Y-121719004D01*
X114632954Y-121730018D01*
X114608700Y-121738697D01*
X114583711Y-121744956D01*
X114558229Y-121748736D01*
X114532500Y-121750000D01*
X114007500Y-121750000D01*
X113981771Y-121748736D01*
X113956289Y-121744956D01*
X113931300Y-121738697D01*
X113907046Y-121730018D01*
X113883758Y-121719004D01*
X113861663Y-121705761D01*
X113840972Y-121690415D01*
X113821884Y-121673116D01*
X113804585Y-121654028D01*
X113789239Y-121633337D01*
X113775996Y-121611242D01*
X113764982Y-121587954D01*
X113756303Y-121563700D01*
X113750044Y-121538711D01*
X113746264Y-121513229D01*
X113745000Y-121487500D01*
X113745000Y-120512500D01*
X113746264Y-120486771D01*
X113750044Y-120461289D01*
X113756303Y-120436300D01*
X113764982Y-120412046D01*
X113775996Y-120388758D01*
X113789239Y-120366663D01*
X113804585Y-120345972D01*
X113821884Y-120326884D01*
X113840972Y-120309585D01*
X113861663Y-120294239D01*
X113883758Y-120280996D01*
X113907046Y-120269982D01*
X113931300Y-120261303D01*
X113956289Y-120255044D01*
X113981771Y-120251264D01*
X114007500Y-120250000D01*
X114532500Y-120250000D01*
X114558229Y-120251264D01*
X114558229Y-120251264D01*
G37*
D18*
G04 #@! TO.P,Q3,2*
G04 #@! TO.N,Net-(A1-Pad9)*
X114270000Y-121000000D03*
G04 #@! TD*
D16*
G04 #@! TO.P,Q4,1*
G04 #@! TO.N,GND*
X107000000Y-121000000D03*
D17*
G04 #@! TD*
G04 #@! TO.N,Net-(D2-Pad1)*
G04 #@! TO.C,Q4*
G36*
X109828229Y-120251264D02*
X109853711Y-120255044D01*
X109878700Y-120261303D01*
X109902954Y-120269982D01*
X109926242Y-120280996D01*
X109948337Y-120294239D01*
X109969028Y-120309585D01*
X109988116Y-120326884D01*
X110005415Y-120345972D01*
X110020761Y-120366663D01*
X110034004Y-120388758D01*
X110045018Y-120412046D01*
X110053697Y-120436300D01*
X110059956Y-120461289D01*
X110063736Y-120486771D01*
X110065000Y-120512500D01*
X110065000Y-121487500D01*
X110063736Y-121513229D01*
X110059956Y-121538711D01*
X110053697Y-121563700D01*
X110045018Y-121587954D01*
X110034004Y-121611242D01*
X110020761Y-121633337D01*
X110005415Y-121654028D01*
X109988116Y-121673116D01*
X109969028Y-121690415D01*
X109948337Y-121705761D01*
X109926242Y-121719004D01*
X109902954Y-121730018D01*
X109878700Y-121738697D01*
X109853711Y-121744956D01*
X109828229Y-121748736D01*
X109802500Y-121750000D01*
X109277500Y-121750000D01*
X109251771Y-121748736D01*
X109226289Y-121744956D01*
X109201300Y-121738697D01*
X109177046Y-121730018D01*
X109153758Y-121719004D01*
X109131663Y-121705761D01*
X109110972Y-121690415D01*
X109091884Y-121673116D01*
X109074585Y-121654028D01*
X109059239Y-121633337D01*
X109045996Y-121611242D01*
X109034982Y-121587954D01*
X109026303Y-121563700D01*
X109020044Y-121538711D01*
X109016264Y-121513229D01*
X109015000Y-121487500D01*
X109015000Y-120512500D01*
X109016264Y-120486771D01*
X109020044Y-120461289D01*
X109026303Y-120436300D01*
X109034982Y-120412046D01*
X109045996Y-120388758D01*
X109059239Y-120366663D01*
X109074585Y-120345972D01*
X109091884Y-120326884D01*
X109110972Y-120309585D01*
X109131663Y-120294239D01*
X109153758Y-120280996D01*
X109177046Y-120269982D01*
X109201300Y-120261303D01*
X109226289Y-120255044D01*
X109251771Y-120251264D01*
X109277500Y-120250000D01*
X109802500Y-120250000D01*
X109828229Y-120251264D01*
X109828229Y-120251264D01*
G37*
D18*
G04 #@! TO.P,Q4,3*
G04 #@! TO.N,Net-(D2-Pad1)*
X109540000Y-121000000D03*
D17*
G04 #@! TD*
G04 #@! TO.N,Net-(A1-Pad10)*
G04 #@! TO.C,Q4*
G36*
X108558229Y-120251264D02*
X108583711Y-120255044D01*
X108608700Y-120261303D01*
X108632954Y-120269982D01*
X108656242Y-120280996D01*
X108678337Y-120294239D01*
X108699028Y-120309585D01*
X108718116Y-120326884D01*
X108735415Y-120345972D01*
X108750761Y-120366663D01*
X108764004Y-120388758D01*
X108775018Y-120412046D01*
X108783697Y-120436300D01*
X108789956Y-120461289D01*
X108793736Y-120486771D01*
X108795000Y-120512500D01*
X108795000Y-121487500D01*
X108793736Y-121513229D01*
X108789956Y-121538711D01*
X108783697Y-121563700D01*
X108775018Y-121587954D01*
X108764004Y-121611242D01*
X108750761Y-121633337D01*
X108735415Y-121654028D01*
X108718116Y-121673116D01*
X108699028Y-121690415D01*
X108678337Y-121705761D01*
X108656242Y-121719004D01*
X108632954Y-121730018D01*
X108608700Y-121738697D01*
X108583711Y-121744956D01*
X108558229Y-121748736D01*
X108532500Y-121750000D01*
X108007500Y-121750000D01*
X107981771Y-121748736D01*
X107956289Y-121744956D01*
X107931300Y-121738697D01*
X107907046Y-121730018D01*
X107883758Y-121719004D01*
X107861663Y-121705761D01*
X107840972Y-121690415D01*
X107821884Y-121673116D01*
X107804585Y-121654028D01*
X107789239Y-121633337D01*
X107775996Y-121611242D01*
X107764982Y-121587954D01*
X107756303Y-121563700D01*
X107750044Y-121538711D01*
X107746264Y-121513229D01*
X107745000Y-121487500D01*
X107745000Y-120512500D01*
X107746264Y-120486771D01*
X107750044Y-120461289D01*
X107756303Y-120436300D01*
X107764982Y-120412046D01*
X107775996Y-120388758D01*
X107789239Y-120366663D01*
X107804585Y-120345972D01*
X107821884Y-120326884D01*
X107840972Y-120309585D01*
X107861663Y-120294239D01*
X107883758Y-120280996D01*
X107907046Y-120269982D01*
X107931300Y-120261303D01*
X107956289Y-120255044D01*
X107981771Y-120251264D01*
X108007500Y-120250000D01*
X108532500Y-120250000D01*
X108558229Y-120251264D01*
X108558229Y-120251264D01*
G37*
D18*
G04 #@! TO.P,Q4,2*
G04 #@! TO.N,Net-(A1-Pad10)*
X108270000Y-121000000D03*
G04 #@! TD*
D16*
G04 #@! TO.P,Q5,1*
G04 #@! TO.N,GND*
X101000000Y-121000000D03*
D17*
G04 #@! TD*
G04 #@! TO.N,Net-(D3-Pad1)*
G04 #@! TO.C,Q5*
G36*
X103828229Y-120251264D02*
X103853711Y-120255044D01*
X103878700Y-120261303D01*
X103902954Y-120269982D01*
X103926242Y-120280996D01*
X103948337Y-120294239D01*
X103969028Y-120309585D01*
X103988116Y-120326884D01*
X104005415Y-120345972D01*
X104020761Y-120366663D01*
X104034004Y-120388758D01*
X104045018Y-120412046D01*
X104053697Y-120436300D01*
X104059956Y-120461289D01*
X104063736Y-120486771D01*
X104065000Y-120512500D01*
X104065000Y-121487500D01*
X104063736Y-121513229D01*
X104059956Y-121538711D01*
X104053697Y-121563700D01*
X104045018Y-121587954D01*
X104034004Y-121611242D01*
X104020761Y-121633337D01*
X104005415Y-121654028D01*
X103988116Y-121673116D01*
X103969028Y-121690415D01*
X103948337Y-121705761D01*
X103926242Y-121719004D01*
X103902954Y-121730018D01*
X103878700Y-121738697D01*
X103853711Y-121744956D01*
X103828229Y-121748736D01*
X103802500Y-121750000D01*
X103277500Y-121750000D01*
X103251771Y-121748736D01*
X103226289Y-121744956D01*
X103201300Y-121738697D01*
X103177046Y-121730018D01*
X103153758Y-121719004D01*
X103131663Y-121705761D01*
X103110972Y-121690415D01*
X103091884Y-121673116D01*
X103074585Y-121654028D01*
X103059239Y-121633337D01*
X103045996Y-121611242D01*
X103034982Y-121587954D01*
X103026303Y-121563700D01*
X103020044Y-121538711D01*
X103016264Y-121513229D01*
X103015000Y-121487500D01*
X103015000Y-120512500D01*
X103016264Y-120486771D01*
X103020044Y-120461289D01*
X103026303Y-120436300D01*
X103034982Y-120412046D01*
X103045996Y-120388758D01*
X103059239Y-120366663D01*
X103074585Y-120345972D01*
X103091884Y-120326884D01*
X103110972Y-120309585D01*
X103131663Y-120294239D01*
X103153758Y-120280996D01*
X103177046Y-120269982D01*
X103201300Y-120261303D01*
X103226289Y-120255044D01*
X103251771Y-120251264D01*
X103277500Y-120250000D01*
X103802500Y-120250000D01*
X103828229Y-120251264D01*
X103828229Y-120251264D01*
G37*
D18*
G04 #@! TO.P,Q5,3*
G04 #@! TO.N,Net-(D3-Pad1)*
X103540000Y-121000000D03*
D17*
G04 #@! TD*
G04 #@! TO.N,Net-(A1-Pad11)*
G04 #@! TO.C,Q5*
G36*
X102558229Y-120251264D02*
X102583711Y-120255044D01*
X102608700Y-120261303D01*
X102632954Y-120269982D01*
X102656242Y-120280996D01*
X102678337Y-120294239D01*
X102699028Y-120309585D01*
X102718116Y-120326884D01*
X102735415Y-120345972D01*
X102750761Y-120366663D01*
X102764004Y-120388758D01*
X102775018Y-120412046D01*
X102783697Y-120436300D01*
X102789956Y-120461289D01*
X102793736Y-120486771D01*
X102795000Y-120512500D01*
X102795000Y-121487500D01*
X102793736Y-121513229D01*
X102789956Y-121538711D01*
X102783697Y-121563700D01*
X102775018Y-121587954D01*
X102764004Y-121611242D01*
X102750761Y-121633337D01*
X102735415Y-121654028D01*
X102718116Y-121673116D01*
X102699028Y-121690415D01*
X102678337Y-121705761D01*
X102656242Y-121719004D01*
X102632954Y-121730018D01*
X102608700Y-121738697D01*
X102583711Y-121744956D01*
X102558229Y-121748736D01*
X102532500Y-121750000D01*
X102007500Y-121750000D01*
X101981771Y-121748736D01*
X101956289Y-121744956D01*
X101931300Y-121738697D01*
X101907046Y-121730018D01*
X101883758Y-121719004D01*
X101861663Y-121705761D01*
X101840972Y-121690415D01*
X101821884Y-121673116D01*
X101804585Y-121654028D01*
X101789239Y-121633337D01*
X101775996Y-121611242D01*
X101764982Y-121587954D01*
X101756303Y-121563700D01*
X101750044Y-121538711D01*
X101746264Y-121513229D01*
X101745000Y-121487500D01*
X101745000Y-120512500D01*
X101746264Y-120486771D01*
X101750044Y-120461289D01*
X101756303Y-120436300D01*
X101764982Y-120412046D01*
X101775996Y-120388758D01*
X101789239Y-120366663D01*
X101804585Y-120345972D01*
X101821884Y-120326884D01*
X101840972Y-120309585D01*
X101861663Y-120294239D01*
X101883758Y-120280996D01*
X101907046Y-120269982D01*
X101931300Y-120261303D01*
X101956289Y-120255044D01*
X101981771Y-120251264D01*
X102007500Y-120250000D01*
X102532500Y-120250000D01*
X102558229Y-120251264D01*
X102558229Y-120251264D01*
G37*
D18*
G04 #@! TO.P,Q5,2*
G04 #@! TO.N,Net-(A1-Pad11)*
X102270000Y-121000000D03*
G04 #@! TD*
D16*
G04 #@! TO.P,Q6,1*
G04 #@! TO.N,GND*
X95000000Y-121000000D03*
D17*
G04 #@! TD*
G04 #@! TO.N,Net-(D4-Pad1)*
G04 #@! TO.C,Q6*
G36*
X97828229Y-120251264D02*
X97853711Y-120255044D01*
X97878700Y-120261303D01*
X97902954Y-120269982D01*
X97926242Y-120280996D01*
X97948337Y-120294239D01*
X97969028Y-120309585D01*
X97988116Y-120326884D01*
X98005415Y-120345972D01*
X98020761Y-120366663D01*
X98034004Y-120388758D01*
X98045018Y-120412046D01*
X98053697Y-120436300D01*
X98059956Y-120461289D01*
X98063736Y-120486771D01*
X98065000Y-120512500D01*
X98065000Y-121487500D01*
X98063736Y-121513229D01*
X98059956Y-121538711D01*
X98053697Y-121563700D01*
X98045018Y-121587954D01*
X98034004Y-121611242D01*
X98020761Y-121633337D01*
X98005415Y-121654028D01*
X97988116Y-121673116D01*
X97969028Y-121690415D01*
X97948337Y-121705761D01*
X97926242Y-121719004D01*
X97902954Y-121730018D01*
X97878700Y-121738697D01*
X97853711Y-121744956D01*
X97828229Y-121748736D01*
X97802500Y-121750000D01*
X97277500Y-121750000D01*
X97251771Y-121748736D01*
X97226289Y-121744956D01*
X97201300Y-121738697D01*
X97177046Y-121730018D01*
X97153758Y-121719004D01*
X97131663Y-121705761D01*
X97110972Y-121690415D01*
X97091884Y-121673116D01*
X97074585Y-121654028D01*
X97059239Y-121633337D01*
X97045996Y-121611242D01*
X97034982Y-121587954D01*
X97026303Y-121563700D01*
X97020044Y-121538711D01*
X97016264Y-121513229D01*
X97015000Y-121487500D01*
X97015000Y-120512500D01*
X97016264Y-120486771D01*
X97020044Y-120461289D01*
X97026303Y-120436300D01*
X97034982Y-120412046D01*
X97045996Y-120388758D01*
X97059239Y-120366663D01*
X97074585Y-120345972D01*
X97091884Y-120326884D01*
X97110972Y-120309585D01*
X97131663Y-120294239D01*
X97153758Y-120280996D01*
X97177046Y-120269982D01*
X97201300Y-120261303D01*
X97226289Y-120255044D01*
X97251771Y-120251264D01*
X97277500Y-120250000D01*
X97802500Y-120250000D01*
X97828229Y-120251264D01*
X97828229Y-120251264D01*
G37*
D18*
G04 #@! TO.P,Q6,3*
G04 #@! TO.N,Net-(D4-Pad1)*
X97540000Y-121000000D03*
D17*
G04 #@! TD*
G04 #@! TO.N,Net-(A1-Pad12)*
G04 #@! TO.C,Q6*
G36*
X96558229Y-120251264D02*
X96583711Y-120255044D01*
X96608700Y-120261303D01*
X96632954Y-120269982D01*
X96656242Y-120280996D01*
X96678337Y-120294239D01*
X96699028Y-120309585D01*
X96718116Y-120326884D01*
X96735415Y-120345972D01*
X96750761Y-120366663D01*
X96764004Y-120388758D01*
X96775018Y-120412046D01*
X96783697Y-120436300D01*
X96789956Y-120461289D01*
X96793736Y-120486771D01*
X96795000Y-120512500D01*
X96795000Y-121487500D01*
X96793736Y-121513229D01*
X96789956Y-121538711D01*
X96783697Y-121563700D01*
X96775018Y-121587954D01*
X96764004Y-121611242D01*
X96750761Y-121633337D01*
X96735415Y-121654028D01*
X96718116Y-121673116D01*
X96699028Y-121690415D01*
X96678337Y-121705761D01*
X96656242Y-121719004D01*
X96632954Y-121730018D01*
X96608700Y-121738697D01*
X96583711Y-121744956D01*
X96558229Y-121748736D01*
X96532500Y-121750000D01*
X96007500Y-121750000D01*
X95981771Y-121748736D01*
X95956289Y-121744956D01*
X95931300Y-121738697D01*
X95907046Y-121730018D01*
X95883758Y-121719004D01*
X95861663Y-121705761D01*
X95840972Y-121690415D01*
X95821884Y-121673116D01*
X95804585Y-121654028D01*
X95789239Y-121633337D01*
X95775996Y-121611242D01*
X95764982Y-121587954D01*
X95756303Y-121563700D01*
X95750044Y-121538711D01*
X95746264Y-121513229D01*
X95745000Y-121487500D01*
X95745000Y-120512500D01*
X95746264Y-120486771D01*
X95750044Y-120461289D01*
X95756303Y-120436300D01*
X95764982Y-120412046D01*
X95775996Y-120388758D01*
X95789239Y-120366663D01*
X95804585Y-120345972D01*
X95821884Y-120326884D01*
X95840972Y-120309585D01*
X95861663Y-120294239D01*
X95883758Y-120280996D01*
X95907046Y-120269982D01*
X95931300Y-120261303D01*
X95956289Y-120255044D01*
X95981771Y-120251264D01*
X96007500Y-120250000D01*
X96532500Y-120250000D01*
X96558229Y-120251264D01*
X96558229Y-120251264D01*
G37*
D18*
G04 #@! TO.P,Q6,2*
G04 #@! TO.N,Net-(A1-Pad12)*
X96270000Y-121000000D03*
G04 #@! TD*
D19*
G04 #@! TO.P,R1,1*
G04 #@! TO.N,Net-(Q1-Pad2)*
X173500000Y-92000000D03*
G04 #@! TO.P,R1,2*
G04 #@! TO.N,deadmantrap*
X164500000Y-92000000D03*
G04 #@! TD*
G04 #@! TO.P,R2,1*
G04 #@! TO.N,powerswitch*
X135500000Y-91000000D03*
G04 #@! TO.P,R2,2*
G04 #@! TO.N,Net-(BT1-Pad1)*
X144500000Y-91000000D03*
G04 #@! TD*
D11*
G04 #@! TO.P,S1,5*
G04 #@! TO.N,powerswitch*
X98750000Y-86600000D03*
G04 #@! TO.P,S1,6*
G04 #@! TO.N,GND*
X98750000Y-91300000D03*
G04 #@! TO.P,S1,4*
G04 #@! TO.N,N/C*
X98750000Y-81900000D03*
G04 #@! TO.P,S1,3*
G04 #@! TO.N,GND*
X93950000Y-91300000D03*
G04 #@! TO.P,S1,2*
G04 #@! TO.N,Net-(A1-Pad5)*
X93950000Y-86600000D03*
G04 #@! TO.P,S1,1*
G04 #@! TO.N,VCC*
X93950000Y-81900000D03*
G04 #@! TD*
G04 #@! TO.P,S2,5*
G04 #@! TO.N,powerswitch*
X127850000Y-86600000D03*
G04 #@! TO.P,S2,6*
G04 #@! TO.N,GND*
X127850000Y-91300000D03*
G04 #@! TO.P,S2,4*
G04 #@! TO.N,N/C*
X127850000Y-81900000D03*
G04 #@! TO.P,S2,3*
G04 #@! TO.N,GND*
X123050000Y-91300000D03*
G04 #@! TO.P,S2,2*
G04 #@! TO.N,Net-(A1-Pad6)*
X123050000Y-86600000D03*
G04 #@! TO.P,S2,1*
G04 #@! TO.N,VCC*
X123050000Y-81900000D03*
G04 #@! TD*
G04 #@! TO.P,S3,5*
G04 #@! TO.N,powerswitch*
X156950000Y-86600000D03*
G04 #@! TO.P,S3,6*
G04 #@! TO.N,GND*
X156950000Y-91300000D03*
G04 #@! TO.P,S3,4*
G04 #@! TO.N,N/C*
X156950000Y-81900000D03*
G04 #@! TO.P,S3,3*
G04 #@! TO.N,GND*
X152150000Y-91300000D03*
G04 #@! TO.P,S3,2*
G04 #@! TO.N,Net-(A1-Pad7)*
X152150000Y-86600000D03*
G04 #@! TO.P,S3,1*
G04 #@! TO.N,VCC*
X152150000Y-81900000D03*
G04 #@! TD*
G04 #@! TO.P,S4,5*
G04 #@! TO.N,powerswitch*
X186050000Y-86600000D03*
G04 #@! TO.P,S4,6*
G04 #@! TO.N,GND*
X186050000Y-91300000D03*
G04 #@! TO.P,S4,4*
G04 #@! TO.N,N/C*
X186050000Y-81900000D03*
G04 #@! TO.P,S4,3*
G04 #@! TO.N,GND*
X181250000Y-91300000D03*
G04 #@! TO.P,S4,2*
G04 #@! TO.N,Net-(A1-Pad8)*
X181250000Y-86600000D03*
G04 #@! TO.P,S4,1*
G04 #@! TO.N,VCC*
X181250000Y-81900000D03*
G04 #@! TD*
D20*
G04 #@! TO.P,U2,1*
G04 #@! TO.N,Net-(C1-Pad1)*
X150000000Y-113000000D03*
G04 #@! TO.P,U2,2*
G04 #@! TO.N,GND*
X150000000Y-110460000D03*
G04 #@! TO.P,U2,3*
G04 #@! TO.N,VCC*
X150000000Y-107920000D03*
G04 #@! TD*
D21*
G04 #@! TO.N,Net-(A1-Pad5)*
X96358802Y-86600000D02*
X98258802Y-88500000D01*
X93950000Y-86600000D02*
X96358802Y-86600000D01*
X114340000Y-88500000D02*
X122840000Y-97000000D01*
X98258802Y-88500000D02*
X114340000Y-88500000D01*
G04 #@! TO.N,Net-(A1-Pad6)*
X121099999Y-97799999D02*
X120300000Y-97000000D01*
X121160001Y-97860001D02*
X121099999Y-97799999D01*
X123252801Y-97860001D02*
X121160001Y-97860001D01*
X123700001Y-97412801D02*
X123252801Y-97860001D01*
X123700001Y-96587199D02*
X123700001Y-97412801D01*
X121000000Y-93887198D02*
X123700001Y-96587199D01*
X121000000Y-88650000D02*
X121000000Y-93887198D01*
X123050000Y-86600000D02*
X121000000Y-88650000D01*
G04 #@! TO.N,Net-(A1-Pad7)*
X121260000Y-100500000D02*
X145500000Y-100500000D01*
X117760000Y-97000000D02*
X121260000Y-100500000D01*
X145500000Y-100500000D02*
X148000000Y-98000000D01*
X148000000Y-90750000D02*
X152150000Y-86600000D01*
X148000000Y-98000000D02*
X148000000Y-90750000D01*
G04 #@! TO.N,Net-(A1-Pad8)*
X119720000Y-101500000D02*
X115220000Y-97000000D01*
X179000000Y-88850000D02*
X179000000Y-91500000D01*
X164000000Y-101500000D02*
X119720000Y-101500000D01*
X181250000Y-86600000D02*
X179000000Y-88850000D01*
X179000000Y-91500000D02*
X174000000Y-96500000D01*
X174000000Y-96500000D02*
X169000000Y-96500000D01*
X169000000Y-96500000D02*
X164000000Y-101500000D01*
D22*
G04 #@! TO.N,Net-(A1-Pad9)*
X114270000Y-98590000D02*
X112680000Y-97000000D01*
X114270000Y-121000000D02*
X114270000Y-98590000D01*
G04 #@! TO.N,Net-(A1-Pad10)*
X110939999Y-97799999D02*
X110140000Y-97000000D01*
X111000000Y-97860000D02*
X110939999Y-97799999D01*
X111000000Y-118270000D02*
X111000000Y-97860000D01*
X108270000Y-121000000D02*
X111000000Y-118270000D01*
G04 #@! TO.N,Net-(A1-Pad11)*
X106800001Y-97799999D02*
X107600000Y-97000000D01*
X103345001Y-101254999D02*
X106800001Y-97799999D01*
X103345001Y-119924999D02*
X103345001Y-101254999D01*
X102270000Y-121000000D02*
X103345001Y-119924999D01*
G04 #@! TO.N,Net-(A1-Pad12)*
X104260001Y-97799999D02*
X105060000Y-97000000D01*
X98265001Y-103794999D02*
X104260001Y-97799999D01*
X98265001Y-119004999D02*
X98265001Y-103794999D01*
X96270000Y-121000000D02*
X98265001Y-119004999D01*
G04 #@! TO.N,VCC*
X93950000Y-81900000D02*
X96050000Y-84000000D01*
X96050000Y-84000000D02*
X121000000Y-84000000D01*
X121000000Y-83950000D02*
X123050000Y-81900000D01*
X121000000Y-84000000D02*
X121000000Y-83950000D01*
X159251402Y-81900000D02*
X157696401Y-83455001D01*
X153705001Y-83455001D02*
X153649999Y-83399999D01*
X181250000Y-81900000D02*
X159251402Y-81900000D01*
X157696401Y-83455001D02*
X153705001Y-83455001D01*
X153649999Y-83399999D02*
X152150000Y-81900000D01*
X124549999Y-83399999D02*
X123050000Y-81900000D01*
X124605001Y-83455001D02*
X124549999Y-83399999D01*
X150594999Y-83455001D02*
X124605001Y-83455001D01*
X152150000Y-81900000D02*
X150594999Y-83455001D01*
D17*
X178407992Y-96610010D02*
X169045566Y-96610010D01*
X187650001Y-87368001D02*
X178407992Y-96610010D01*
X187650001Y-85831999D02*
X187650001Y-87368001D01*
X181250000Y-81900000D02*
X183718002Y-81900000D01*
X183718002Y-81900000D02*
X187650001Y-85831999D01*
X169045566Y-96610010D02*
X164045567Y-101610010D01*
X143629990Y-101610010D02*
X133000000Y-112240000D01*
X164045567Y-101610010D02*
X143629990Y-101610010D01*
X92999999Y-135499999D02*
X91500000Y-134000000D01*
X95600001Y-138100001D02*
X92999999Y-135499999D01*
X116068002Y-134000000D02*
X111968001Y-138100001D01*
X111968001Y-138100001D02*
X95600001Y-138100001D01*
X120500000Y-134000000D02*
X116068002Y-134000000D01*
X148000001Y-135499999D02*
X149500000Y-134000000D01*
X147500000Y-136000000D02*
X148000001Y-135499999D01*
X122500000Y-136000000D02*
X147500000Y-136000000D01*
X120500000Y-134000000D02*
X122500000Y-136000000D01*
X177000001Y-135499999D02*
X178500000Y-134000000D01*
X173000000Y-139500000D02*
X177000001Y-135499999D01*
X155000000Y-139500000D02*
X173000000Y-139500000D01*
X149500000Y-134000000D02*
X155000000Y-139500000D01*
X137320000Y-107920000D02*
X133000000Y-112240000D01*
X150000000Y-107920000D02*
X137320000Y-107920000D01*
G04 #@! TO.N,Net-(BT1-Pad1)*
X138730000Y-86225000D02*
X138730000Y-86000000D01*
X142505001Y-90000001D02*
X138730000Y-86225000D01*
X143500001Y-90000001D02*
X142505001Y-90000001D01*
X144500000Y-91000000D02*
X143500001Y-90000001D01*
G04 #@! TO.N,Net-(C1-Pad1)*
X122300000Y-123200000D02*
X138859739Y-123200000D01*
X138859739Y-123200000D02*
X141015000Y-123200000D01*
X121000000Y-121900000D02*
X122300000Y-123200000D01*
X121000000Y-121000000D02*
X121000000Y-121900000D01*
X141015000Y-123346000D02*
X141015000Y-123500000D01*
X150000000Y-114515000D02*
X141015000Y-123500000D01*
X150000000Y-113000000D02*
X150000000Y-114515000D01*
G04 #@! TO.N,Net-(D1-Pad1)*
X187000001Y-132500001D02*
X188500000Y-134000000D01*
X181810000Y-127310000D02*
X187000001Y-132500001D01*
X121000000Y-127310000D02*
X181810000Y-127310000D01*
X115540000Y-121850000D02*
X121000000Y-127310000D01*
X115540000Y-121000000D02*
X115540000Y-121850000D01*
D21*
G04 #@! TO.N,Net-(D2-Pad1)*
X109540000Y-121000000D02*
X116540000Y-128000000D01*
X153500000Y-128000000D02*
X159500000Y-134000000D01*
X116540000Y-128000000D02*
X153500000Y-128000000D01*
G04 #@! TO.N,Net-(D3-Pad1)*
X103540000Y-121000000D02*
X111040000Y-128500000D01*
X125000000Y-128500000D02*
X130500000Y-134000000D01*
X111040000Y-128500000D02*
X125000000Y-128500000D01*
G04 #@! TO.N,Net-(D4-Pad1)*
X97540000Y-130040000D02*
X101500000Y-134000000D01*
X97540000Y-121000000D02*
X97540000Y-130040000D01*
D22*
G04 #@! TO.N,Net-(Q1-Pad2)*
X169000000Y-87500000D02*
X173500000Y-92000000D01*
X169000000Y-86000000D02*
X169000000Y-87500000D01*
D17*
G04 #@! TO.N,deadmantrap*
X103319999Y-96200001D02*
X102520000Y-97000000D01*
X103420001Y-96099999D02*
X103319999Y-96200001D01*
X115652001Y-96099999D02*
X103420001Y-96099999D01*
X116120001Y-96567999D02*
X115652001Y-96099999D01*
X116120001Y-97432001D02*
X116120001Y-96567999D01*
X120077990Y-101389990D02*
X116120001Y-97432001D01*
X155110010Y-101389990D02*
X120077990Y-101389990D01*
X164500000Y-92000000D02*
X155110010Y-101389990D01*
G04 #@! TO.N,powerswitch*
X135500000Y-91000000D02*
X135500000Y-87000000D01*
X135500000Y-87000000D02*
X138000000Y-84500000D01*
X140000000Y-85150000D02*
X140000000Y-86000000D01*
X139350000Y-84500000D02*
X140000000Y-85150000D01*
X138000000Y-84500000D02*
X139350000Y-84500000D01*
X140000000Y-85150000D02*
X140650000Y-84500000D01*
X154850000Y-84500000D02*
X156950000Y-86600000D01*
X140650000Y-84500000D02*
X154850000Y-84500000D01*
X167130000Y-86600000D02*
X167730000Y-86000000D01*
X156950000Y-86600000D02*
X167130000Y-86600000D01*
X184550001Y-85100001D02*
X186050000Y-86600000D01*
X167880001Y-84999999D02*
X184449999Y-84999999D01*
X167730000Y-85150000D02*
X167880001Y-84999999D01*
X184449999Y-84999999D02*
X184550001Y-85100001D01*
X167730000Y-86000000D02*
X167730000Y-85150000D01*
X131100000Y-86600000D02*
X135500000Y-91000000D01*
X127850000Y-86600000D02*
X131100000Y-86600000D01*
X126350001Y-85100001D02*
X127850000Y-86600000D01*
X126249999Y-84999999D02*
X126350001Y-85100001D01*
X102471321Y-84999999D02*
X126249999Y-84999999D01*
X100871320Y-86600000D02*
X102471321Y-84999999D01*
X98750000Y-86600000D02*
X100871320Y-86600000D01*
G04 #@! TD*
D23*
G04 #@! TO.N,GND*
G36*
X91815000Y-81475322D02*
X91815000Y-82324678D01*
X92140034Y-83109380D01*
X92740620Y-83709966D01*
X93525322Y-84035000D01*
X94374678Y-84035000D01*
X94944058Y-83799155D01*
X95552881Y-84407978D01*
X95588586Y-84461414D01*
X95642022Y-84497119D01*
X95800283Y-84602866D01*
X95800284Y-84602866D01*
X95800285Y-84602867D01*
X95986967Y-84640000D01*
X95986970Y-84640000D01*
X96049999Y-84652537D01*
X96113028Y-84640000D01*
X97902834Y-84640000D01*
X97540620Y-84790034D01*
X96940034Y-85390620D01*
X96673354Y-86034443D01*
X96610468Y-85992424D01*
X96422327Y-85955000D01*
X96422326Y-85955000D01*
X96358802Y-85942364D01*
X96295278Y-85955000D01*
X95993740Y-85955000D01*
X95759966Y-85390620D01*
X95159380Y-84790034D01*
X94374678Y-84465000D01*
X93525322Y-84465000D01*
X92740620Y-84790034D01*
X92140034Y-85390620D01*
X91815000Y-86175322D01*
X91815000Y-87024678D01*
X92140034Y-87809380D01*
X92740620Y-88409966D01*
X93525322Y-88735000D01*
X94374678Y-88735000D01*
X95159380Y-88409966D01*
X95759966Y-87809380D01*
X95993740Y-87245000D01*
X96091636Y-87245000D01*
X97757797Y-88911162D01*
X97793783Y-88965019D01*
X97937438Y-89061006D01*
X98007135Y-89107576D01*
X98258802Y-89157636D01*
X98322327Y-89145000D01*
X114072834Y-89145000D01*
X120505620Y-95577787D01*
X120441333Y-95565000D01*
X120158667Y-95565000D01*
X119740091Y-95648260D01*
X119265423Y-95965423D01*
X119030000Y-96317758D01*
X118794577Y-95965423D01*
X118319909Y-95648260D01*
X117901333Y-95565000D01*
X117618667Y-95565000D01*
X117200091Y-95648260D01*
X116725423Y-95965423D01*
X116633319Y-96103267D01*
X116613858Y-96074142D01*
X116556667Y-96035928D01*
X116184074Y-95663337D01*
X116145858Y-95606142D01*
X115919274Y-95454744D01*
X115719463Y-95414999D01*
X115719461Y-95414999D01*
X115652001Y-95401580D01*
X115584541Y-95414999D01*
X103487461Y-95414999D01*
X103420000Y-95401580D01*
X103352540Y-95414999D01*
X103352539Y-95414999D01*
X103152728Y-95454744D01*
X102926144Y-95606142D01*
X102919342Y-95616321D01*
X102661333Y-95565000D01*
X102378667Y-95565000D01*
X101960091Y-95648260D01*
X101485423Y-95965423D01*
X101250000Y-96317758D01*
X101014577Y-95965423D01*
X100539909Y-95648260D01*
X100121333Y-95565000D01*
X99838667Y-95565000D01*
X99420091Y-95648260D01*
X98945423Y-95965423D01*
X98710000Y-96317758D01*
X98474577Y-95965423D01*
X97999909Y-95648260D01*
X97581333Y-95565000D01*
X97298667Y-95565000D01*
X96880091Y-95648260D01*
X96405423Y-95965423D01*
X96088260Y-96440091D01*
X95976887Y-97000000D01*
X96088260Y-97559909D01*
X96405423Y-98034577D01*
X96880091Y-98351740D01*
X97298667Y-98435000D01*
X97581333Y-98435000D01*
X97999909Y-98351740D01*
X98474577Y-98034577D01*
X98710000Y-97682242D01*
X98945423Y-98034577D01*
X99420091Y-98351740D01*
X99838667Y-98435000D01*
X100121333Y-98435000D01*
X100539909Y-98351740D01*
X101014577Y-98034577D01*
X101250000Y-97682242D01*
X101485423Y-98034577D01*
X101960091Y-98351740D01*
X102378667Y-98435000D01*
X102661333Y-98435000D01*
X102734446Y-98420457D01*
X97857024Y-103297880D01*
X97803588Y-103333585D01*
X97767883Y-103387021D01*
X97767882Y-103387022D01*
X97662135Y-103545283D01*
X97612464Y-103794999D01*
X97625002Y-103858033D01*
X97625002Y-110813686D01*
X97581333Y-110805000D01*
X97298667Y-110805000D01*
X96880091Y-110888260D01*
X96405423Y-111205423D01*
X96088260Y-111680091D01*
X95976887Y-112240000D01*
X96088260Y-112799909D01*
X96405423Y-113274577D01*
X96880091Y-113591740D01*
X97298667Y-113675000D01*
X97581333Y-113675000D01*
X97625001Y-113666314D01*
X97625001Y-118739902D01*
X96724210Y-119640693D01*
X96532500Y-119602560D01*
X96007500Y-119602560D01*
X95746576Y-119654461D01*
X95651309Y-119615000D01*
X95285750Y-119615000D01*
X95127000Y-119773750D01*
X95127000Y-120364495D01*
X95097560Y-120512500D01*
X95097560Y-121487500D01*
X95127000Y-121635505D01*
X95127000Y-122226250D01*
X95285750Y-122385000D01*
X95651309Y-122385000D01*
X95746576Y-122345539D01*
X96007500Y-122397440D01*
X96532500Y-122397440D01*
X96880719Y-122328175D01*
X96895000Y-122318633D01*
X96895001Y-129976472D01*
X96882364Y-130040000D01*
X96932425Y-130291666D01*
X97074982Y-130505019D01*
X97128838Y-130541005D01*
X99598774Y-133010941D01*
X99365000Y-133575322D01*
X99365000Y-134424678D01*
X99690034Y-135209380D01*
X100290620Y-135809966D01*
X101075322Y-136135000D01*
X101924678Y-136135000D01*
X102709380Y-135809966D01*
X103309966Y-135209380D01*
X103635000Y-134424678D01*
X103635000Y-133575322D01*
X103309966Y-132790620D01*
X102709380Y-132190034D01*
X101924678Y-131865000D01*
X101075322Y-131865000D01*
X100510941Y-132098774D01*
X98185000Y-129772834D01*
X98185000Y-122305269D01*
X98445925Y-122130925D01*
X98643175Y-121835719D01*
X98712440Y-121487500D01*
X98712440Y-121285750D01*
X99840000Y-121285750D01*
X99840000Y-121876310D01*
X99936673Y-122109699D01*
X100115302Y-122288327D01*
X100348691Y-122385000D01*
X100714250Y-122385000D01*
X100873000Y-122226250D01*
X100873000Y-121127000D01*
X99998750Y-121127000D01*
X99840000Y-121285750D01*
X98712440Y-121285750D01*
X98712440Y-120512500D01*
X98643175Y-120164281D01*
X98616054Y-120123690D01*
X99840000Y-120123690D01*
X99840000Y-120714250D01*
X99998750Y-120873000D01*
X100873000Y-120873000D01*
X100873000Y-119773750D01*
X100714250Y-119615000D01*
X100348691Y-119615000D01*
X100115302Y-119711673D01*
X99936673Y-119890301D01*
X99840000Y-120123690D01*
X98616054Y-120123690D01*
X98445925Y-119869075D01*
X98362059Y-119813038D01*
X98672980Y-119502117D01*
X98726415Y-119466413D01*
X98867868Y-119254714D01*
X98905001Y-119068032D01*
X98905001Y-119068029D01*
X98917538Y-119005000D01*
X98905001Y-118941971D01*
X98905001Y-113214081D01*
X98945423Y-113274577D01*
X99420091Y-113591740D01*
X99838667Y-113675000D01*
X100121333Y-113675000D01*
X100539909Y-113591740D01*
X101014577Y-113274577D01*
X101250000Y-112922242D01*
X101485423Y-113274577D01*
X101960091Y-113591740D01*
X102378667Y-113675000D01*
X102661333Y-113675000D01*
X102705001Y-113666314D01*
X102705001Y-119636873D01*
X102532500Y-119602560D01*
X102007500Y-119602560D01*
X101746576Y-119654461D01*
X101651309Y-119615000D01*
X101285750Y-119615000D01*
X101127000Y-119773750D01*
X101127000Y-120364495D01*
X101097560Y-120512500D01*
X101097560Y-121487500D01*
X101127000Y-121635505D01*
X101127000Y-122226250D01*
X101285750Y-122385000D01*
X101651309Y-122385000D01*
X101746576Y-122345539D01*
X102007500Y-122397440D01*
X102532500Y-122397440D01*
X102880719Y-122328175D01*
X102905000Y-122311951D01*
X102929281Y-122328175D01*
X103277500Y-122397440D01*
X103802500Y-122397440D01*
X103988313Y-122360479D01*
X110538996Y-128911164D01*
X110574981Y-128965019D01*
X110628835Y-129001003D01*
X110788333Y-129107576D01*
X111040000Y-129157636D01*
X111103525Y-129145000D01*
X124732834Y-129145000D01*
X128598774Y-133010941D01*
X128365000Y-133575322D01*
X128365000Y-134424678D01*
X128690034Y-135209380D01*
X128795654Y-135315000D01*
X122783736Y-135315000D01*
X122417795Y-134949059D01*
X122635000Y-134424678D01*
X122635000Y-133575322D01*
X122309966Y-132790620D01*
X121709380Y-132190034D01*
X120924678Y-131865000D01*
X120075322Y-131865000D01*
X119290620Y-132190034D01*
X118690034Y-132790620D01*
X118472829Y-133315000D01*
X116135462Y-133315000D01*
X116068001Y-133301581D01*
X116000541Y-133315000D01*
X116000540Y-133315000D01*
X115800729Y-133354745D01*
X115574145Y-133506143D01*
X115535930Y-133563336D01*
X111684266Y-137415001D01*
X95883737Y-137415001D01*
X93532074Y-135063339D01*
X93532070Y-135063333D01*
X93417795Y-134949058D01*
X93635000Y-134424678D01*
X93635000Y-133575322D01*
X93309966Y-132790620D01*
X92709380Y-132190034D01*
X91924678Y-131865000D01*
X91075322Y-131865000D01*
X90710000Y-132016321D01*
X90710000Y-121285750D01*
X93840000Y-121285750D01*
X93840000Y-121876310D01*
X93936673Y-122109699D01*
X94115302Y-122288327D01*
X94348691Y-122385000D01*
X94714250Y-122385000D01*
X94873000Y-122226250D01*
X94873000Y-121127000D01*
X93998750Y-121127000D01*
X93840000Y-121285750D01*
X90710000Y-121285750D01*
X90710000Y-120123690D01*
X93840000Y-120123690D01*
X93840000Y-120714250D01*
X93998750Y-120873000D01*
X94873000Y-120873000D01*
X94873000Y-119773750D01*
X94714250Y-119615000D01*
X94348691Y-119615000D01*
X94115302Y-119711673D01*
X93936673Y-119890301D01*
X93840000Y-120123690D01*
X90710000Y-120123690D01*
X90710000Y-92813970D01*
X92615635Y-92813970D01*
X92775418Y-93132739D01*
X93566187Y-93442723D01*
X94415387Y-93426497D01*
X95124582Y-93132739D01*
X95284365Y-92813970D01*
X97415635Y-92813970D01*
X97575418Y-93132739D01*
X98366187Y-93442723D01*
X99215387Y-93426497D01*
X99924582Y-93132739D01*
X100084365Y-92813970D01*
X98750000Y-91479605D01*
X97415635Y-92813970D01*
X95284365Y-92813970D01*
X93950000Y-91479605D01*
X92615635Y-92813970D01*
X90710000Y-92813970D01*
X90710000Y-90916187D01*
X91807277Y-90916187D01*
X91823503Y-91765387D01*
X92117261Y-92474582D01*
X92436030Y-92634365D01*
X93770395Y-91300000D01*
X94129605Y-91300000D01*
X95463970Y-92634365D01*
X95782739Y-92474582D01*
X96092723Y-91683813D01*
X96078056Y-90916187D01*
X96607277Y-90916187D01*
X96623503Y-91765387D01*
X96917261Y-92474582D01*
X97236030Y-92634365D01*
X98570395Y-91300000D01*
X98929605Y-91300000D01*
X100263970Y-92634365D01*
X100582739Y-92474582D01*
X100892723Y-91683813D01*
X100876497Y-90834613D01*
X100582739Y-90125418D01*
X100263970Y-89965635D01*
X98929605Y-91300000D01*
X98570395Y-91300000D01*
X97236030Y-89965635D01*
X96917261Y-90125418D01*
X96607277Y-90916187D01*
X96078056Y-90916187D01*
X96076497Y-90834613D01*
X95782739Y-90125418D01*
X95463970Y-89965635D01*
X94129605Y-91300000D01*
X93770395Y-91300000D01*
X92436030Y-89965635D01*
X92117261Y-90125418D01*
X91807277Y-90916187D01*
X90710000Y-90916187D01*
X90710000Y-89786030D01*
X92615635Y-89786030D01*
X93950000Y-91120395D01*
X95284365Y-89786030D01*
X97415635Y-89786030D01*
X98750000Y-91120395D01*
X100084365Y-89786030D01*
X99924582Y-89467261D01*
X99133813Y-89157277D01*
X98284613Y-89173503D01*
X97575418Y-89467261D01*
X97415635Y-89786030D01*
X95284365Y-89786030D01*
X95124582Y-89467261D01*
X94333813Y-89157277D01*
X93484613Y-89173503D01*
X92775418Y-89467261D01*
X92615635Y-89786030D01*
X90710000Y-89786030D01*
X90710000Y-80710000D01*
X92132007Y-80710000D01*
X91815000Y-81475322D01*
X91815000Y-81475322D01*
G37*
X91815000Y-81475322D02*
X91815000Y-82324678D01*
X92140034Y-83109380D01*
X92740620Y-83709966D01*
X93525322Y-84035000D01*
X94374678Y-84035000D01*
X94944058Y-83799155D01*
X95552881Y-84407978D01*
X95588586Y-84461414D01*
X95642022Y-84497119D01*
X95800283Y-84602866D01*
X95800284Y-84602866D01*
X95800285Y-84602867D01*
X95986967Y-84640000D01*
X95986970Y-84640000D01*
X96049999Y-84652537D01*
X96113028Y-84640000D01*
X97902834Y-84640000D01*
X97540620Y-84790034D01*
X96940034Y-85390620D01*
X96673354Y-86034443D01*
X96610468Y-85992424D01*
X96422327Y-85955000D01*
X96422326Y-85955000D01*
X96358802Y-85942364D01*
X96295278Y-85955000D01*
X95993740Y-85955000D01*
X95759966Y-85390620D01*
X95159380Y-84790034D01*
X94374678Y-84465000D01*
X93525322Y-84465000D01*
X92740620Y-84790034D01*
X92140034Y-85390620D01*
X91815000Y-86175322D01*
X91815000Y-87024678D01*
X92140034Y-87809380D01*
X92740620Y-88409966D01*
X93525322Y-88735000D01*
X94374678Y-88735000D01*
X95159380Y-88409966D01*
X95759966Y-87809380D01*
X95993740Y-87245000D01*
X96091636Y-87245000D01*
X97757797Y-88911162D01*
X97793783Y-88965019D01*
X97937438Y-89061006D01*
X98007135Y-89107576D01*
X98258802Y-89157636D01*
X98322327Y-89145000D01*
X114072834Y-89145000D01*
X120505620Y-95577787D01*
X120441333Y-95565000D01*
X120158667Y-95565000D01*
X119740091Y-95648260D01*
X119265423Y-95965423D01*
X119030000Y-96317758D01*
X118794577Y-95965423D01*
X118319909Y-95648260D01*
X117901333Y-95565000D01*
X117618667Y-95565000D01*
X117200091Y-95648260D01*
X116725423Y-95965423D01*
X116633319Y-96103267D01*
X116613858Y-96074142D01*
X116556667Y-96035928D01*
X116184074Y-95663337D01*
X116145858Y-95606142D01*
X115919274Y-95454744D01*
X115719463Y-95414999D01*
X115719461Y-95414999D01*
X115652001Y-95401580D01*
X115584541Y-95414999D01*
X103487461Y-95414999D01*
X103420000Y-95401580D01*
X103352540Y-95414999D01*
X103352539Y-95414999D01*
X103152728Y-95454744D01*
X102926144Y-95606142D01*
X102919342Y-95616321D01*
X102661333Y-95565000D01*
X102378667Y-95565000D01*
X101960091Y-95648260D01*
X101485423Y-95965423D01*
X101250000Y-96317758D01*
X101014577Y-95965423D01*
X100539909Y-95648260D01*
X100121333Y-95565000D01*
X99838667Y-95565000D01*
X99420091Y-95648260D01*
X98945423Y-95965423D01*
X98710000Y-96317758D01*
X98474577Y-95965423D01*
X97999909Y-95648260D01*
X97581333Y-95565000D01*
X97298667Y-95565000D01*
X96880091Y-95648260D01*
X96405423Y-95965423D01*
X96088260Y-96440091D01*
X95976887Y-97000000D01*
X96088260Y-97559909D01*
X96405423Y-98034577D01*
X96880091Y-98351740D01*
X97298667Y-98435000D01*
X97581333Y-98435000D01*
X97999909Y-98351740D01*
X98474577Y-98034577D01*
X98710000Y-97682242D01*
X98945423Y-98034577D01*
X99420091Y-98351740D01*
X99838667Y-98435000D01*
X100121333Y-98435000D01*
X100539909Y-98351740D01*
X101014577Y-98034577D01*
X101250000Y-97682242D01*
X101485423Y-98034577D01*
X101960091Y-98351740D01*
X102378667Y-98435000D01*
X102661333Y-98435000D01*
X102734446Y-98420457D01*
X97857024Y-103297880D01*
X97803588Y-103333585D01*
X97767883Y-103387021D01*
X97767882Y-103387022D01*
X97662135Y-103545283D01*
X97612464Y-103794999D01*
X97625002Y-103858033D01*
X97625002Y-110813686D01*
X97581333Y-110805000D01*
X97298667Y-110805000D01*
X96880091Y-110888260D01*
X96405423Y-111205423D01*
X96088260Y-111680091D01*
X95976887Y-112240000D01*
X96088260Y-112799909D01*
X96405423Y-113274577D01*
X96880091Y-113591740D01*
X97298667Y-113675000D01*
X97581333Y-113675000D01*
X97625001Y-113666314D01*
X97625001Y-118739902D01*
X96724210Y-119640693D01*
X96532500Y-119602560D01*
X96007500Y-119602560D01*
X95746576Y-119654461D01*
X95651309Y-119615000D01*
X95285750Y-119615000D01*
X95127000Y-119773750D01*
X95127000Y-120364495D01*
X95097560Y-120512500D01*
X95097560Y-121487500D01*
X95127000Y-121635505D01*
X95127000Y-122226250D01*
X95285750Y-122385000D01*
X95651309Y-122385000D01*
X95746576Y-122345539D01*
X96007500Y-122397440D01*
X96532500Y-122397440D01*
X96880719Y-122328175D01*
X96895000Y-122318633D01*
X96895001Y-129976472D01*
X96882364Y-130040000D01*
X96932425Y-130291666D01*
X97074982Y-130505019D01*
X97128838Y-130541005D01*
X99598774Y-133010941D01*
X99365000Y-133575322D01*
X99365000Y-134424678D01*
X99690034Y-135209380D01*
X100290620Y-135809966D01*
X101075322Y-136135000D01*
X101924678Y-136135000D01*
X102709380Y-135809966D01*
X103309966Y-135209380D01*
X103635000Y-134424678D01*
X103635000Y-133575322D01*
X103309966Y-132790620D01*
X102709380Y-132190034D01*
X101924678Y-131865000D01*
X101075322Y-131865000D01*
X100510941Y-132098774D01*
X98185000Y-129772834D01*
X98185000Y-122305269D01*
X98445925Y-122130925D01*
X98643175Y-121835719D01*
X98712440Y-121487500D01*
X98712440Y-121285750D01*
X99840000Y-121285750D01*
X99840000Y-121876310D01*
X99936673Y-122109699D01*
X100115302Y-122288327D01*
X100348691Y-122385000D01*
X100714250Y-122385000D01*
X100873000Y-122226250D01*
X100873000Y-121127000D01*
X99998750Y-121127000D01*
X99840000Y-121285750D01*
X98712440Y-121285750D01*
X98712440Y-120512500D01*
X98643175Y-120164281D01*
X98616054Y-120123690D01*
X99840000Y-120123690D01*
X99840000Y-120714250D01*
X99998750Y-120873000D01*
X100873000Y-120873000D01*
X100873000Y-119773750D01*
X100714250Y-119615000D01*
X100348691Y-119615000D01*
X100115302Y-119711673D01*
X99936673Y-119890301D01*
X99840000Y-120123690D01*
X98616054Y-120123690D01*
X98445925Y-119869075D01*
X98362059Y-119813038D01*
X98672980Y-119502117D01*
X98726415Y-119466413D01*
X98867868Y-119254714D01*
X98905001Y-119068032D01*
X98905001Y-119068029D01*
X98917538Y-119005000D01*
X98905001Y-118941971D01*
X98905001Y-113214081D01*
X98945423Y-113274577D01*
X99420091Y-113591740D01*
X99838667Y-113675000D01*
X100121333Y-113675000D01*
X100539909Y-113591740D01*
X101014577Y-113274577D01*
X101250000Y-112922242D01*
X101485423Y-113274577D01*
X101960091Y-113591740D01*
X102378667Y-113675000D01*
X102661333Y-113675000D01*
X102705001Y-113666314D01*
X102705001Y-119636873D01*
X102532500Y-119602560D01*
X102007500Y-119602560D01*
X101746576Y-119654461D01*
X101651309Y-119615000D01*
X101285750Y-119615000D01*
X101127000Y-119773750D01*
X101127000Y-120364495D01*
X101097560Y-120512500D01*
X101097560Y-121487500D01*
X101127000Y-121635505D01*
X101127000Y-122226250D01*
X101285750Y-122385000D01*
X101651309Y-122385000D01*
X101746576Y-122345539D01*
X102007500Y-122397440D01*
X102532500Y-122397440D01*
X102880719Y-122328175D01*
X102905000Y-122311951D01*
X102929281Y-122328175D01*
X103277500Y-122397440D01*
X103802500Y-122397440D01*
X103988313Y-122360479D01*
X110538996Y-128911164D01*
X110574981Y-128965019D01*
X110628835Y-129001003D01*
X110788333Y-129107576D01*
X111040000Y-129157636D01*
X111103525Y-129145000D01*
X124732834Y-129145000D01*
X128598774Y-133010941D01*
X128365000Y-133575322D01*
X128365000Y-134424678D01*
X128690034Y-135209380D01*
X128795654Y-135315000D01*
X122783736Y-135315000D01*
X122417795Y-134949059D01*
X122635000Y-134424678D01*
X122635000Y-133575322D01*
X122309966Y-132790620D01*
X121709380Y-132190034D01*
X120924678Y-131865000D01*
X120075322Y-131865000D01*
X119290620Y-132190034D01*
X118690034Y-132790620D01*
X118472829Y-133315000D01*
X116135462Y-133315000D01*
X116068001Y-133301581D01*
X116000541Y-133315000D01*
X116000540Y-133315000D01*
X115800729Y-133354745D01*
X115574145Y-133506143D01*
X115535930Y-133563336D01*
X111684266Y-137415001D01*
X95883737Y-137415001D01*
X93532074Y-135063339D01*
X93532070Y-135063333D01*
X93417795Y-134949058D01*
X93635000Y-134424678D01*
X93635000Y-133575322D01*
X93309966Y-132790620D01*
X92709380Y-132190034D01*
X91924678Y-131865000D01*
X91075322Y-131865000D01*
X90710000Y-132016321D01*
X90710000Y-121285750D01*
X93840000Y-121285750D01*
X93840000Y-121876310D01*
X93936673Y-122109699D01*
X94115302Y-122288327D01*
X94348691Y-122385000D01*
X94714250Y-122385000D01*
X94873000Y-122226250D01*
X94873000Y-121127000D01*
X93998750Y-121127000D01*
X93840000Y-121285750D01*
X90710000Y-121285750D01*
X90710000Y-120123690D01*
X93840000Y-120123690D01*
X93840000Y-120714250D01*
X93998750Y-120873000D01*
X94873000Y-120873000D01*
X94873000Y-119773750D01*
X94714250Y-119615000D01*
X94348691Y-119615000D01*
X94115302Y-119711673D01*
X93936673Y-119890301D01*
X93840000Y-120123690D01*
X90710000Y-120123690D01*
X90710000Y-92813970D01*
X92615635Y-92813970D01*
X92775418Y-93132739D01*
X93566187Y-93442723D01*
X94415387Y-93426497D01*
X95124582Y-93132739D01*
X95284365Y-92813970D01*
X97415635Y-92813970D01*
X97575418Y-93132739D01*
X98366187Y-93442723D01*
X99215387Y-93426497D01*
X99924582Y-93132739D01*
X100084365Y-92813970D01*
X98750000Y-91479605D01*
X97415635Y-92813970D01*
X95284365Y-92813970D01*
X93950000Y-91479605D01*
X92615635Y-92813970D01*
X90710000Y-92813970D01*
X90710000Y-90916187D01*
X91807277Y-90916187D01*
X91823503Y-91765387D01*
X92117261Y-92474582D01*
X92436030Y-92634365D01*
X93770395Y-91300000D01*
X94129605Y-91300000D01*
X95463970Y-92634365D01*
X95782739Y-92474582D01*
X96092723Y-91683813D01*
X96078056Y-90916187D01*
X96607277Y-90916187D01*
X96623503Y-91765387D01*
X96917261Y-92474582D01*
X97236030Y-92634365D01*
X98570395Y-91300000D01*
X98929605Y-91300000D01*
X100263970Y-92634365D01*
X100582739Y-92474582D01*
X100892723Y-91683813D01*
X100876497Y-90834613D01*
X100582739Y-90125418D01*
X100263970Y-89965635D01*
X98929605Y-91300000D01*
X98570395Y-91300000D01*
X97236030Y-89965635D01*
X96917261Y-90125418D01*
X96607277Y-90916187D01*
X96078056Y-90916187D01*
X96076497Y-90834613D01*
X95782739Y-90125418D01*
X95463970Y-89965635D01*
X94129605Y-91300000D01*
X93770395Y-91300000D01*
X92436030Y-89965635D01*
X92117261Y-90125418D01*
X91807277Y-90916187D01*
X90710000Y-90916187D01*
X90710000Y-89786030D01*
X92615635Y-89786030D01*
X93950000Y-91120395D01*
X95284365Y-89786030D01*
X97415635Y-89786030D01*
X98750000Y-91120395D01*
X100084365Y-89786030D01*
X99924582Y-89467261D01*
X99133813Y-89157277D01*
X98284613Y-89173503D01*
X97575418Y-89467261D01*
X97415635Y-89786030D01*
X95284365Y-89786030D01*
X95124582Y-89467261D01*
X94333813Y-89157277D01*
X93484613Y-89173503D01*
X92775418Y-89467261D01*
X92615635Y-89786030D01*
X90710000Y-89786030D01*
X90710000Y-80710000D01*
X92132007Y-80710000D01*
X91815000Y-81475322D01*
G36*
X189290000Y-132016321D02*
X188924678Y-131865000D01*
X188075322Y-131865000D01*
X187550941Y-132082206D01*
X187532076Y-132063341D01*
X187532072Y-132063335D01*
X182342074Y-126873339D01*
X182303857Y-126816143D01*
X182077273Y-126664745D01*
X181877462Y-126625000D01*
X181877460Y-126625000D01*
X181810000Y-126611581D01*
X181742540Y-126625000D01*
X121283736Y-126625000D01*
X116583606Y-121924871D01*
X116643175Y-121835719D01*
X116712440Y-121487500D01*
X116712440Y-120512500D01*
X116650280Y-120200000D01*
X119552560Y-120200000D01*
X119552560Y-121800000D01*
X119601843Y-122047765D01*
X119742191Y-122257809D01*
X119952235Y-122398157D01*
X120200000Y-122447440D01*
X120578705Y-122447440D01*
X121767930Y-123636667D01*
X121806143Y-123693857D01*
X121863333Y-123732070D01*
X121863334Y-123732071D01*
X121916017Y-123767272D01*
X122032727Y-123845255D01*
X122232538Y-123885000D01*
X122232539Y-123885000D01*
X122300000Y-123898419D01*
X122367460Y-123885000D01*
X138856000Y-123885000D01*
X138856000Y-123929452D01*
X139184688Y-124722975D01*
X139792025Y-125330312D01*
X140585548Y-125659000D01*
X141444452Y-125659000D01*
X142237975Y-125330312D01*
X142536980Y-125031307D01*
X153633298Y-125031307D01*
X153796011Y-125352568D01*
X154595464Y-125666556D01*
X155454221Y-125650706D01*
X156173989Y-125352568D01*
X156336702Y-125031307D01*
X154985000Y-123679605D01*
X153633298Y-125031307D01*
X142536980Y-125031307D01*
X142845312Y-124722975D01*
X143174000Y-123929452D01*
X143174000Y-123110464D01*
X152818444Y-123110464D01*
X152834294Y-123969221D01*
X153132432Y-124688989D01*
X153453693Y-124851702D01*
X154805395Y-123500000D01*
X155164605Y-123500000D01*
X156516307Y-124851702D01*
X156837568Y-124688989D01*
X157151556Y-123889536D01*
X157140220Y-123275322D01*
X174865000Y-123275322D01*
X174865000Y-124124678D01*
X175190034Y-124909380D01*
X175790620Y-125509966D01*
X176575322Y-125835000D01*
X177424678Y-125835000D01*
X178209380Y-125509966D01*
X178809966Y-124909380D01*
X179135000Y-124124678D01*
X179135000Y-123275322D01*
X178809966Y-122490620D01*
X178209380Y-121890034D01*
X177424678Y-121565000D01*
X176575322Y-121565000D01*
X175790620Y-121890034D01*
X175190034Y-122490620D01*
X174865000Y-123275322D01*
X157140220Y-123275322D01*
X157135706Y-123030779D01*
X156837568Y-122311011D01*
X156516307Y-122148298D01*
X155164605Y-123500000D01*
X154805395Y-123500000D01*
X153453693Y-122148298D01*
X153132432Y-122311011D01*
X152818444Y-123110464D01*
X143174000Y-123110464D01*
X143174000Y-123070548D01*
X142951163Y-122532572D01*
X143515042Y-121968693D01*
X153633298Y-121968693D01*
X154985000Y-123320395D01*
X156336702Y-121968693D01*
X156173989Y-121647432D01*
X155374536Y-121333444D01*
X154515779Y-121349294D01*
X153796011Y-121647432D01*
X153633298Y-121968693D01*
X143515042Y-121968693D01*
X150436667Y-115047070D01*
X150493857Y-115008857D01*
X150645255Y-114782273D01*
X150685000Y-114582462D01*
X150685000Y-114582461D01*
X150698419Y-114515000D01*
X150685000Y-114447540D01*
X150685000Y-114228366D01*
X150791337Y-114184320D01*
X151184320Y-113791337D01*
X151397000Y-113277881D01*
X151397000Y-112722119D01*
X151184320Y-112208663D01*
X150791337Y-111815680D01*
X150600353Y-111736572D01*
X150731143Y-111682397D01*
X150800608Y-111440213D01*
X150646145Y-111285750D01*
X172365000Y-111285750D01*
X172365000Y-115126309D01*
X172461673Y-115359698D01*
X172640301Y-115538327D01*
X172873690Y-115635000D01*
X176714250Y-115635000D01*
X176873000Y-115476250D01*
X176873000Y-111127000D01*
X177127000Y-111127000D01*
X177127000Y-115476250D01*
X177285750Y-115635000D01*
X181126310Y-115635000D01*
X181359699Y-115538327D01*
X181538327Y-115359698D01*
X181635000Y-115126309D01*
X181635000Y-111285750D01*
X181476250Y-111127000D01*
X177127000Y-111127000D01*
X176873000Y-111127000D01*
X172523750Y-111127000D01*
X172365000Y-111285750D01*
X150646145Y-111285750D01*
X150000000Y-110639605D01*
X149199392Y-111440213D01*
X149268857Y-111682397D01*
X149409393Y-111732535D01*
X149208663Y-111815680D01*
X148815680Y-112208663D01*
X148603000Y-112722119D01*
X148603000Y-113277881D01*
X148815680Y-113791337D01*
X149208663Y-114184320D01*
X149315001Y-114228366D01*
X149315001Y-114231262D01*
X141982428Y-121563837D01*
X141444452Y-121341000D01*
X140585548Y-121341000D01*
X139792025Y-121669688D01*
X139184688Y-122277025D01*
X139086116Y-122515000D01*
X122583737Y-122515000D01*
X122285341Y-122216605D01*
X122398157Y-122047765D01*
X122406117Y-122007745D01*
X122671861Y-122007745D01*
X122745995Y-122253864D01*
X123283223Y-122446965D01*
X123853454Y-122419778D01*
X124254005Y-122253864D01*
X124328139Y-122007745D01*
X123500000Y-121179605D01*
X122671861Y-122007745D01*
X122406117Y-122007745D01*
X122444693Y-121813813D01*
X122492255Y-121828139D01*
X123320395Y-121000000D01*
X123679605Y-121000000D01*
X124507745Y-121828139D01*
X124753864Y-121754005D01*
X124946965Y-121216777D01*
X124919778Y-120646546D01*
X124753864Y-120245995D01*
X124507745Y-120171861D01*
X123679605Y-121000000D01*
X123320395Y-121000000D01*
X122492255Y-120171861D01*
X122444693Y-120186187D01*
X122406118Y-119992255D01*
X122671861Y-119992255D01*
X123500000Y-120820395D01*
X124220394Y-120100000D01*
X127552560Y-120100000D01*
X127552560Y-121700000D01*
X127601843Y-121947765D01*
X127742191Y-122157809D01*
X127952235Y-122298157D01*
X128200000Y-122347440D01*
X129800000Y-122347440D01*
X130047765Y-122298157D01*
X130257809Y-122157809D01*
X130398157Y-121947765D01*
X130406117Y-121907745D01*
X130671861Y-121907745D01*
X130745995Y-122153864D01*
X131283223Y-122346965D01*
X131853454Y-122319778D01*
X132254005Y-122153864D01*
X132328139Y-121907745D01*
X131500000Y-121079605D01*
X130671861Y-121907745D01*
X130406117Y-121907745D01*
X130444693Y-121713813D01*
X130492255Y-121728139D01*
X131320395Y-120900000D01*
X131679605Y-120900000D01*
X132507745Y-121728139D01*
X132753864Y-121654005D01*
X132946965Y-121116777D01*
X132919778Y-120546546D01*
X132753864Y-120145995D01*
X132507745Y-120071861D01*
X131679605Y-120900000D01*
X131320395Y-120900000D01*
X130492255Y-120071861D01*
X130444693Y-120086187D01*
X130406118Y-119892255D01*
X130671861Y-119892255D01*
X131500000Y-120720395D01*
X132328139Y-119892255D01*
X132254005Y-119646136D01*
X131716777Y-119453035D01*
X131146546Y-119480222D01*
X130745995Y-119646136D01*
X130671861Y-119892255D01*
X130406118Y-119892255D01*
X130398157Y-119852235D01*
X130257809Y-119642191D01*
X130047765Y-119501843D01*
X129800000Y-119452560D01*
X128200000Y-119452560D01*
X127952235Y-119501843D01*
X127742191Y-119642191D01*
X127601843Y-119852235D01*
X127552560Y-120100000D01*
X124220394Y-120100000D01*
X124328139Y-119992255D01*
X124254005Y-119746136D01*
X123716777Y-119553035D01*
X123146546Y-119580222D01*
X122745995Y-119746136D01*
X122671861Y-119992255D01*
X122406118Y-119992255D01*
X122398157Y-119952235D01*
X122257809Y-119742191D01*
X122047765Y-119601843D01*
X121800000Y-119552560D01*
X120200000Y-119552560D01*
X119952235Y-119601843D01*
X119742191Y-119742191D01*
X119601843Y-119952235D01*
X119552560Y-120200000D01*
X116650280Y-120200000D01*
X116643175Y-120164281D01*
X116445925Y-119869075D01*
X116150719Y-119671825D01*
X115802500Y-119602560D01*
X115277500Y-119602560D01*
X114929281Y-119671825D01*
X114910000Y-119684708D01*
X114910000Y-113641450D01*
X115078667Y-113675000D01*
X115361333Y-113675000D01*
X115779909Y-113591740D01*
X116254577Y-113274577D01*
X116490000Y-112922242D01*
X116725423Y-113274577D01*
X117200091Y-113591740D01*
X117618667Y-113675000D01*
X117901333Y-113675000D01*
X118319909Y-113591740D01*
X118794577Y-113274577D01*
X119030000Y-112922242D01*
X119265423Y-113274577D01*
X119740091Y-113591740D01*
X120158667Y-113675000D01*
X120441333Y-113675000D01*
X120859909Y-113591740D01*
X121334577Y-113274577D01*
X121570000Y-112922242D01*
X121805423Y-113274577D01*
X122280091Y-113591740D01*
X122698667Y-113675000D01*
X122981333Y-113675000D01*
X123399909Y-113591740D01*
X123874577Y-113274577D01*
X124110000Y-112922242D01*
X124345423Y-113274577D01*
X124820091Y-113591740D01*
X125238667Y-113675000D01*
X125521333Y-113675000D01*
X125939909Y-113591740D01*
X126414577Y-113274577D01*
X126650000Y-112922242D01*
X126885423Y-113274577D01*
X127360091Y-113591740D01*
X127778667Y-113675000D01*
X128061333Y-113675000D01*
X128479909Y-113591740D01*
X128954577Y-113274577D01*
X129210947Y-112890892D01*
X129307611Y-113095134D01*
X129722577Y-113471041D01*
X130110961Y-113631904D01*
X130333000Y-113509915D01*
X130333000Y-112367000D01*
X130313000Y-112367000D01*
X130313000Y-112113000D01*
X130333000Y-112113000D01*
X130333000Y-110970085D01*
X130110961Y-110848096D01*
X129722577Y-111008959D01*
X129307611Y-111384866D01*
X129210947Y-111589108D01*
X128954577Y-111205423D01*
X128479909Y-110888260D01*
X128061333Y-110805000D01*
X127778667Y-110805000D01*
X127360091Y-110888260D01*
X126885423Y-111205423D01*
X126650000Y-111557758D01*
X126414577Y-111205423D01*
X125939909Y-110888260D01*
X125521333Y-110805000D01*
X125238667Y-110805000D01*
X124820091Y-110888260D01*
X124345423Y-111205423D01*
X124110000Y-111557758D01*
X123874577Y-111205423D01*
X123399909Y-110888260D01*
X122981333Y-110805000D01*
X122698667Y-110805000D01*
X122280091Y-110888260D01*
X121805423Y-111205423D01*
X121570000Y-111557758D01*
X121334577Y-111205423D01*
X120859909Y-110888260D01*
X120441333Y-110805000D01*
X120158667Y-110805000D01*
X119740091Y-110888260D01*
X119265423Y-111205423D01*
X119030000Y-111557758D01*
X118794577Y-111205423D01*
X118319909Y-110888260D01*
X117901333Y-110805000D01*
X117618667Y-110805000D01*
X117200091Y-110888260D01*
X116725423Y-111205423D01*
X116490000Y-111557758D01*
X116254577Y-111205423D01*
X115779909Y-110888260D01*
X115361333Y-110805000D01*
X115078667Y-110805000D01*
X114910000Y-110838550D01*
X114910000Y-98653032D01*
X114922538Y-98590000D01*
X114905631Y-98505001D01*
X114884005Y-98396279D01*
X115078667Y-98435000D01*
X115361333Y-98435000D01*
X115679539Y-98371705D01*
X119218995Y-101911162D01*
X119254981Y-101965019D01*
X119468334Y-102107576D01*
X119656475Y-102145000D01*
X119719999Y-102157636D01*
X119783523Y-102145000D01*
X142126264Y-102145000D01*
X136883339Y-107387926D01*
X136883334Y-107387929D01*
X136883333Y-107387930D01*
X136826143Y-107426143D01*
X136787930Y-107483333D01*
X133557015Y-110714250D01*
X133412355Y-110858910D01*
X133141333Y-110805000D01*
X132858667Y-110805000D01*
X132440091Y-110888260D01*
X131965423Y-111205423D01*
X131709053Y-111589108D01*
X131612389Y-111384866D01*
X131197423Y-111008959D01*
X130809039Y-110848096D01*
X130587000Y-110970085D01*
X130587000Y-112113000D01*
X130607000Y-112113000D01*
X130607000Y-112367000D01*
X130587000Y-112367000D01*
X130587000Y-113509915D01*
X130809039Y-113631904D01*
X131197423Y-113471041D01*
X131612389Y-113095134D01*
X131709053Y-112890892D01*
X131965423Y-113274577D01*
X132440091Y-113591740D01*
X132858667Y-113675000D01*
X133141333Y-113675000D01*
X133559909Y-113591740D01*
X134034577Y-113274577D01*
X134351740Y-112799909D01*
X134463113Y-112240000D01*
X134381090Y-111827645D01*
X135956433Y-110252302D01*
X148590856Y-110252302D01*
X148618638Y-110807368D01*
X148777603Y-111191143D01*
X149019787Y-111260608D01*
X149820395Y-110460000D01*
X150179605Y-110460000D01*
X150980213Y-111260608D01*
X151222397Y-111191143D01*
X151409144Y-110667698D01*
X151381362Y-110112632D01*
X151222397Y-109728857D01*
X150980213Y-109659392D01*
X150179605Y-110460000D01*
X149820395Y-110460000D01*
X149019787Y-109659392D01*
X148777603Y-109728857D01*
X148590856Y-110252302D01*
X135956433Y-110252302D01*
X137603737Y-108605000D01*
X148771634Y-108605000D01*
X148815680Y-108711337D01*
X149208663Y-109104320D01*
X149399647Y-109183428D01*
X149268857Y-109237603D01*
X149199392Y-109479787D01*
X150000000Y-110280395D01*
X150800608Y-109479787D01*
X150731143Y-109237603D01*
X150590607Y-109187465D01*
X150791337Y-109104320D01*
X151184320Y-108711337D01*
X151397000Y-108197881D01*
X151397000Y-107642119D01*
X151184320Y-107128663D01*
X150929348Y-106873691D01*
X172365000Y-106873691D01*
X172365000Y-110714250D01*
X172523750Y-110873000D01*
X176873000Y-110873000D01*
X176873000Y-106523750D01*
X177127000Y-106523750D01*
X177127000Y-110873000D01*
X181476250Y-110873000D01*
X181635000Y-110714250D01*
X181635000Y-106873691D01*
X181538327Y-106640302D01*
X181359699Y-106461673D01*
X181126310Y-106365000D01*
X177285750Y-106365000D01*
X177127000Y-106523750D01*
X176873000Y-106523750D01*
X176714250Y-106365000D01*
X172873690Y-106365000D01*
X172640301Y-106461673D01*
X172461673Y-106640302D01*
X172365000Y-106873691D01*
X150929348Y-106873691D01*
X150791337Y-106735680D01*
X150277881Y-106523000D01*
X149722119Y-106523000D01*
X149208663Y-106735680D01*
X148815680Y-107128663D01*
X148771634Y-107235000D01*
X138973736Y-107235000D01*
X143913726Y-102295010D01*
X163978107Y-102295010D01*
X164045567Y-102308429D01*
X164113027Y-102295010D01*
X164113029Y-102295010D01*
X164312840Y-102255265D01*
X164539424Y-102103867D01*
X164577641Y-102046671D01*
X169329302Y-97295010D01*
X175105373Y-97295010D01*
X174865000Y-97875322D01*
X174865000Y-98724678D01*
X175190034Y-99509380D01*
X175790620Y-100109966D01*
X176575322Y-100435000D01*
X177424678Y-100435000D01*
X178209380Y-100109966D01*
X178809966Y-99509380D01*
X179135000Y-98724678D01*
X179135000Y-97875322D01*
X178834181Y-97149081D01*
X178901849Y-97103867D01*
X178940066Y-97046671D01*
X183172767Y-92813970D01*
X184715635Y-92813970D01*
X184875418Y-93132739D01*
X185666187Y-93442723D01*
X186515387Y-93426497D01*
X187224582Y-93132739D01*
X187384365Y-92813970D01*
X186050000Y-91479605D01*
X184715635Y-92813970D01*
X183172767Y-92813970D01*
X184010740Y-91975997D01*
X184217261Y-92474582D01*
X184536030Y-92634365D01*
X185870395Y-91300000D01*
X186229605Y-91300000D01*
X187563970Y-92634365D01*
X187882739Y-92474582D01*
X188192723Y-91683813D01*
X188176497Y-90834613D01*
X187882739Y-90125418D01*
X187563970Y-89965635D01*
X186229605Y-91300000D01*
X185870395Y-91300000D01*
X185856253Y-91285858D01*
X186035858Y-91106253D01*
X186050000Y-91120395D01*
X187384365Y-89786030D01*
X187224582Y-89467261D01*
X186718042Y-89268696D01*
X188086665Y-87900073D01*
X188143858Y-87861858D01*
X188295256Y-87635274D01*
X188335001Y-87435463D01*
X188335001Y-87435459D01*
X188348419Y-87368002D01*
X188335001Y-87300545D01*
X188335001Y-85899459D01*
X188348420Y-85831998D01*
X188332166Y-85750285D01*
X188295256Y-85564726D01*
X188143857Y-85338142D01*
X188086667Y-85299929D01*
X186720086Y-83933349D01*
X187259380Y-83709966D01*
X187859966Y-83109380D01*
X188185000Y-82324678D01*
X188185000Y-81475322D01*
X187867993Y-80710000D01*
X189290001Y-80710000D01*
X189290000Y-132016321D01*
X189290000Y-132016321D01*
G37*
X189290000Y-132016321D02*
X188924678Y-131865000D01*
X188075322Y-131865000D01*
X187550941Y-132082206D01*
X187532076Y-132063341D01*
X187532072Y-132063335D01*
X182342074Y-126873339D01*
X182303857Y-126816143D01*
X182077273Y-126664745D01*
X181877462Y-126625000D01*
X181877460Y-126625000D01*
X181810000Y-126611581D01*
X181742540Y-126625000D01*
X121283736Y-126625000D01*
X116583606Y-121924871D01*
X116643175Y-121835719D01*
X116712440Y-121487500D01*
X116712440Y-120512500D01*
X116650280Y-120200000D01*
X119552560Y-120200000D01*
X119552560Y-121800000D01*
X119601843Y-122047765D01*
X119742191Y-122257809D01*
X119952235Y-122398157D01*
X120200000Y-122447440D01*
X120578705Y-122447440D01*
X121767930Y-123636667D01*
X121806143Y-123693857D01*
X121863333Y-123732070D01*
X121863334Y-123732071D01*
X121916017Y-123767272D01*
X122032727Y-123845255D01*
X122232538Y-123885000D01*
X122232539Y-123885000D01*
X122300000Y-123898419D01*
X122367460Y-123885000D01*
X138856000Y-123885000D01*
X138856000Y-123929452D01*
X139184688Y-124722975D01*
X139792025Y-125330312D01*
X140585548Y-125659000D01*
X141444452Y-125659000D01*
X142237975Y-125330312D01*
X142536980Y-125031307D01*
X153633298Y-125031307D01*
X153796011Y-125352568D01*
X154595464Y-125666556D01*
X155454221Y-125650706D01*
X156173989Y-125352568D01*
X156336702Y-125031307D01*
X154985000Y-123679605D01*
X153633298Y-125031307D01*
X142536980Y-125031307D01*
X142845312Y-124722975D01*
X143174000Y-123929452D01*
X143174000Y-123110464D01*
X152818444Y-123110464D01*
X152834294Y-123969221D01*
X153132432Y-124688989D01*
X153453693Y-124851702D01*
X154805395Y-123500000D01*
X155164605Y-123500000D01*
X156516307Y-124851702D01*
X156837568Y-124688989D01*
X157151556Y-123889536D01*
X157140220Y-123275322D01*
X174865000Y-123275322D01*
X174865000Y-124124678D01*
X175190034Y-124909380D01*
X175790620Y-125509966D01*
X176575322Y-125835000D01*
X177424678Y-125835000D01*
X178209380Y-125509966D01*
X178809966Y-124909380D01*
X179135000Y-124124678D01*
X179135000Y-123275322D01*
X178809966Y-122490620D01*
X178209380Y-121890034D01*
X177424678Y-121565000D01*
X176575322Y-121565000D01*
X175790620Y-121890034D01*
X175190034Y-122490620D01*
X174865000Y-123275322D01*
X157140220Y-123275322D01*
X157135706Y-123030779D01*
X156837568Y-122311011D01*
X156516307Y-122148298D01*
X155164605Y-123500000D01*
X154805395Y-123500000D01*
X153453693Y-122148298D01*
X153132432Y-122311011D01*
X152818444Y-123110464D01*
X143174000Y-123110464D01*
X143174000Y-123070548D01*
X142951163Y-122532572D01*
X143515042Y-121968693D01*
X153633298Y-121968693D01*
X154985000Y-123320395D01*
X156336702Y-121968693D01*
X156173989Y-121647432D01*
X155374536Y-121333444D01*
X154515779Y-121349294D01*
X153796011Y-121647432D01*
X153633298Y-121968693D01*
X143515042Y-121968693D01*
X150436667Y-115047070D01*
X150493857Y-115008857D01*
X150645255Y-114782273D01*
X150685000Y-114582462D01*
X150685000Y-114582461D01*
X150698419Y-114515000D01*
X150685000Y-114447540D01*
X150685000Y-114228366D01*
X150791337Y-114184320D01*
X151184320Y-113791337D01*
X151397000Y-113277881D01*
X151397000Y-112722119D01*
X151184320Y-112208663D01*
X150791337Y-111815680D01*
X150600353Y-111736572D01*
X150731143Y-111682397D01*
X150800608Y-111440213D01*
X150646145Y-111285750D01*
X172365000Y-111285750D01*
X172365000Y-115126309D01*
X172461673Y-115359698D01*
X172640301Y-115538327D01*
X172873690Y-115635000D01*
X176714250Y-115635000D01*
X176873000Y-115476250D01*
X176873000Y-111127000D01*
X177127000Y-111127000D01*
X177127000Y-115476250D01*
X177285750Y-115635000D01*
X181126310Y-115635000D01*
X181359699Y-115538327D01*
X181538327Y-115359698D01*
X181635000Y-115126309D01*
X181635000Y-111285750D01*
X181476250Y-111127000D01*
X177127000Y-111127000D01*
X176873000Y-111127000D01*
X172523750Y-111127000D01*
X172365000Y-111285750D01*
X150646145Y-111285750D01*
X150000000Y-110639605D01*
X149199392Y-111440213D01*
X149268857Y-111682397D01*
X149409393Y-111732535D01*
X149208663Y-111815680D01*
X148815680Y-112208663D01*
X148603000Y-112722119D01*
X148603000Y-113277881D01*
X148815680Y-113791337D01*
X149208663Y-114184320D01*
X149315001Y-114228366D01*
X149315001Y-114231262D01*
X141982428Y-121563837D01*
X141444452Y-121341000D01*
X140585548Y-121341000D01*
X139792025Y-121669688D01*
X139184688Y-122277025D01*
X139086116Y-122515000D01*
X122583737Y-122515000D01*
X122285341Y-122216605D01*
X122398157Y-122047765D01*
X122406117Y-122007745D01*
X122671861Y-122007745D01*
X122745995Y-122253864D01*
X123283223Y-122446965D01*
X123853454Y-122419778D01*
X124254005Y-122253864D01*
X124328139Y-122007745D01*
X123500000Y-121179605D01*
X122671861Y-122007745D01*
X122406117Y-122007745D01*
X122444693Y-121813813D01*
X122492255Y-121828139D01*
X123320395Y-121000000D01*
X123679605Y-121000000D01*
X124507745Y-121828139D01*
X124753864Y-121754005D01*
X124946965Y-121216777D01*
X124919778Y-120646546D01*
X124753864Y-120245995D01*
X124507745Y-120171861D01*
X123679605Y-121000000D01*
X123320395Y-121000000D01*
X122492255Y-120171861D01*
X122444693Y-120186187D01*
X122406118Y-119992255D01*
X122671861Y-119992255D01*
X123500000Y-120820395D01*
X124220394Y-120100000D01*
X127552560Y-120100000D01*
X127552560Y-121700000D01*
X127601843Y-121947765D01*
X127742191Y-122157809D01*
X127952235Y-122298157D01*
X128200000Y-122347440D01*
X129800000Y-122347440D01*
X130047765Y-122298157D01*
X130257809Y-122157809D01*
X130398157Y-121947765D01*
X130406117Y-121907745D01*
X130671861Y-121907745D01*
X130745995Y-122153864D01*
X131283223Y-122346965D01*
X131853454Y-122319778D01*
X132254005Y-122153864D01*
X132328139Y-121907745D01*
X131500000Y-121079605D01*
X130671861Y-121907745D01*
X130406117Y-121907745D01*
X130444693Y-121713813D01*
X130492255Y-121728139D01*
X131320395Y-120900000D01*
X131679605Y-120900000D01*
X132507745Y-121728139D01*
X132753864Y-121654005D01*
X132946965Y-121116777D01*
X132919778Y-120546546D01*
X132753864Y-120145995D01*
X132507745Y-120071861D01*
X131679605Y-120900000D01*
X131320395Y-120900000D01*
X130492255Y-120071861D01*
X130444693Y-120086187D01*
X130406118Y-119892255D01*
X130671861Y-119892255D01*
X131500000Y-120720395D01*
X132328139Y-119892255D01*
X132254005Y-119646136D01*
X131716777Y-119453035D01*
X131146546Y-119480222D01*
X130745995Y-119646136D01*
X130671861Y-119892255D01*
X130406118Y-119892255D01*
X130398157Y-119852235D01*
X130257809Y-119642191D01*
X130047765Y-119501843D01*
X129800000Y-119452560D01*
X128200000Y-119452560D01*
X127952235Y-119501843D01*
X127742191Y-119642191D01*
X127601843Y-119852235D01*
X127552560Y-120100000D01*
X124220394Y-120100000D01*
X124328139Y-119992255D01*
X124254005Y-119746136D01*
X123716777Y-119553035D01*
X123146546Y-119580222D01*
X122745995Y-119746136D01*
X122671861Y-119992255D01*
X122406118Y-119992255D01*
X122398157Y-119952235D01*
X122257809Y-119742191D01*
X122047765Y-119601843D01*
X121800000Y-119552560D01*
X120200000Y-119552560D01*
X119952235Y-119601843D01*
X119742191Y-119742191D01*
X119601843Y-119952235D01*
X119552560Y-120200000D01*
X116650280Y-120200000D01*
X116643175Y-120164281D01*
X116445925Y-119869075D01*
X116150719Y-119671825D01*
X115802500Y-119602560D01*
X115277500Y-119602560D01*
X114929281Y-119671825D01*
X114910000Y-119684708D01*
X114910000Y-113641450D01*
X115078667Y-113675000D01*
X115361333Y-113675000D01*
X115779909Y-113591740D01*
X116254577Y-113274577D01*
X116490000Y-112922242D01*
X116725423Y-113274577D01*
X117200091Y-113591740D01*
X117618667Y-113675000D01*
X117901333Y-113675000D01*
X118319909Y-113591740D01*
X118794577Y-113274577D01*
X119030000Y-112922242D01*
X119265423Y-113274577D01*
X119740091Y-113591740D01*
X120158667Y-113675000D01*
X120441333Y-113675000D01*
X120859909Y-113591740D01*
X121334577Y-113274577D01*
X121570000Y-112922242D01*
X121805423Y-113274577D01*
X122280091Y-113591740D01*
X122698667Y-113675000D01*
X122981333Y-113675000D01*
X123399909Y-113591740D01*
X123874577Y-113274577D01*
X124110000Y-112922242D01*
X124345423Y-113274577D01*
X124820091Y-113591740D01*
X125238667Y-113675000D01*
X125521333Y-113675000D01*
X125939909Y-113591740D01*
X126414577Y-113274577D01*
X126650000Y-112922242D01*
X126885423Y-113274577D01*
X127360091Y-113591740D01*
X127778667Y-113675000D01*
X128061333Y-113675000D01*
X128479909Y-113591740D01*
X128954577Y-113274577D01*
X129210947Y-112890892D01*
X129307611Y-113095134D01*
X129722577Y-113471041D01*
X130110961Y-113631904D01*
X130333000Y-113509915D01*
X130333000Y-112367000D01*
X130313000Y-112367000D01*
X130313000Y-112113000D01*
X130333000Y-112113000D01*
X130333000Y-110970085D01*
X130110961Y-110848096D01*
X129722577Y-111008959D01*
X129307611Y-111384866D01*
X129210947Y-111589108D01*
X128954577Y-111205423D01*
X128479909Y-110888260D01*
X128061333Y-110805000D01*
X127778667Y-110805000D01*
X127360091Y-110888260D01*
X126885423Y-111205423D01*
X126650000Y-111557758D01*
X126414577Y-111205423D01*
X125939909Y-110888260D01*
X125521333Y-110805000D01*
X125238667Y-110805000D01*
X124820091Y-110888260D01*
X124345423Y-111205423D01*
X124110000Y-111557758D01*
X123874577Y-111205423D01*
X123399909Y-110888260D01*
X122981333Y-110805000D01*
X122698667Y-110805000D01*
X122280091Y-110888260D01*
X121805423Y-111205423D01*
X121570000Y-111557758D01*
X121334577Y-111205423D01*
X120859909Y-110888260D01*
X120441333Y-110805000D01*
X120158667Y-110805000D01*
X119740091Y-110888260D01*
X119265423Y-111205423D01*
X119030000Y-111557758D01*
X118794577Y-111205423D01*
X118319909Y-110888260D01*
X117901333Y-110805000D01*
X117618667Y-110805000D01*
X117200091Y-110888260D01*
X116725423Y-111205423D01*
X116490000Y-111557758D01*
X116254577Y-111205423D01*
X115779909Y-110888260D01*
X115361333Y-110805000D01*
X115078667Y-110805000D01*
X114910000Y-110838550D01*
X114910000Y-98653032D01*
X114922538Y-98590000D01*
X114905631Y-98505001D01*
X114884005Y-98396279D01*
X115078667Y-98435000D01*
X115361333Y-98435000D01*
X115679539Y-98371705D01*
X119218995Y-101911162D01*
X119254981Y-101965019D01*
X119468334Y-102107576D01*
X119656475Y-102145000D01*
X119719999Y-102157636D01*
X119783523Y-102145000D01*
X142126264Y-102145000D01*
X136883339Y-107387926D01*
X136883334Y-107387929D01*
X136883333Y-107387930D01*
X136826143Y-107426143D01*
X136787930Y-107483333D01*
X133557015Y-110714250D01*
X133412355Y-110858910D01*
X133141333Y-110805000D01*
X132858667Y-110805000D01*
X132440091Y-110888260D01*
X131965423Y-111205423D01*
X131709053Y-111589108D01*
X131612389Y-111384866D01*
X131197423Y-111008959D01*
X130809039Y-110848096D01*
X130587000Y-110970085D01*
X130587000Y-112113000D01*
X130607000Y-112113000D01*
X130607000Y-112367000D01*
X130587000Y-112367000D01*
X130587000Y-113509915D01*
X130809039Y-113631904D01*
X131197423Y-113471041D01*
X131612389Y-113095134D01*
X131709053Y-112890892D01*
X131965423Y-113274577D01*
X132440091Y-113591740D01*
X132858667Y-113675000D01*
X133141333Y-113675000D01*
X133559909Y-113591740D01*
X134034577Y-113274577D01*
X134351740Y-112799909D01*
X134463113Y-112240000D01*
X134381090Y-111827645D01*
X135956433Y-110252302D01*
X148590856Y-110252302D01*
X148618638Y-110807368D01*
X148777603Y-111191143D01*
X149019787Y-111260608D01*
X149820395Y-110460000D01*
X150179605Y-110460000D01*
X150980213Y-111260608D01*
X151222397Y-111191143D01*
X151409144Y-110667698D01*
X151381362Y-110112632D01*
X151222397Y-109728857D01*
X150980213Y-109659392D01*
X150179605Y-110460000D01*
X149820395Y-110460000D01*
X149019787Y-109659392D01*
X148777603Y-109728857D01*
X148590856Y-110252302D01*
X135956433Y-110252302D01*
X137603737Y-108605000D01*
X148771634Y-108605000D01*
X148815680Y-108711337D01*
X149208663Y-109104320D01*
X149399647Y-109183428D01*
X149268857Y-109237603D01*
X149199392Y-109479787D01*
X150000000Y-110280395D01*
X150800608Y-109479787D01*
X150731143Y-109237603D01*
X150590607Y-109187465D01*
X150791337Y-109104320D01*
X151184320Y-108711337D01*
X151397000Y-108197881D01*
X151397000Y-107642119D01*
X151184320Y-107128663D01*
X150929348Y-106873691D01*
X172365000Y-106873691D01*
X172365000Y-110714250D01*
X172523750Y-110873000D01*
X176873000Y-110873000D01*
X176873000Y-106523750D01*
X177127000Y-106523750D01*
X177127000Y-110873000D01*
X181476250Y-110873000D01*
X181635000Y-110714250D01*
X181635000Y-106873691D01*
X181538327Y-106640302D01*
X181359699Y-106461673D01*
X181126310Y-106365000D01*
X177285750Y-106365000D01*
X177127000Y-106523750D01*
X176873000Y-106523750D01*
X176714250Y-106365000D01*
X172873690Y-106365000D01*
X172640301Y-106461673D01*
X172461673Y-106640302D01*
X172365000Y-106873691D01*
X150929348Y-106873691D01*
X150791337Y-106735680D01*
X150277881Y-106523000D01*
X149722119Y-106523000D01*
X149208663Y-106735680D01*
X148815680Y-107128663D01*
X148771634Y-107235000D01*
X138973736Y-107235000D01*
X143913726Y-102295010D01*
X163978107Y-102295010D01*
X164045567Y-102308429D01*
X164113027Y-102295010D01*
X164113029Y-102295010D01*
X164312840Y-102255265D01*
X164539424Y-102103867D01*
X164577641Y-102046671D01*
X169329302Y-97295010D01*
X175105373Y-97295010D01*
X174865000Y-97875322D01*
X174865000Y-98724678D01*
X175190034Y-99509380D01*
X175790620Y-100109966D01*
X176575322Y-100435000D01*
X177424678Y-100435000D01*
X178209380Y-100109966D01*
X178809966Y-99509380D01*
X179135000Y-98724678D01*
X179135000Y-97875322D01*
X178834181Y-97149081D01*
X178901849Y-97103867D01*
X178940066Y-97046671D01*
X183172767Y-92813970D01*
X184715635Y-92813970D01*
X184875418Y-93132739D01*
X185666187Y-93442723D01*
X186515387Y-93426497D01*
X187224582Y-93132739D01*
X187384365Y-92813970D01*
X186050000Y-91479605D01*
X184715635Y-92813970D01*
X183172767Y-92813970D01*
X184010740Y-91975997D01*
X184217261Y-92474582D01*
X184536030Y-92634365D01*
X185870395Y-91300000D01*
X186229605Y-91300000D01*
X187563970Y-92634365D01*
X187882739Y-92474582D01*
X188192723Y-91683813D01*
X188176497Y-90834613D01*
X187882739Y-90125418D01*
X187563970Y-89965635D01*
X186229605Y-91300000D01*
X185870395Y-91300000D01*
X185856253Y-91285858D01*
X186035858Y-91106253D01*
X186050000Y-91120395D01*
X187384365Y-89786030D01*
X187224582Y-89467261D01*
X186718042Y-89268696D01*
X188086665Y-87900073D01*
X188143858Y-87861858D01*
X188295256Y-87635274D01*
X188335001Y-87435463D01*
X188335001Y-87435459D01*
X188348419Y-87368002D01*
X188335001Y-87300545D01*
X188335001Y-85899459D01*
X188348420Y-85831998D01*
X188332166Y-85750285D01*
X188295256Y-85564726D01*
X188143857Y-85338142D01*
X188086667Y-85299929D01*
X186720086Y-83933349D01*
X187259380Y-83709966D01*
X187859966Y-83109380D01*
X188185000Y-82324678D01*
X188185000Y-81475322D01*
X187867993Y-80710000D01*
X189290001Y-80710000D01*
X189290000Y-132016321D01*
G36*
X109105423Y-113274577D02*
X109580091Y-113591740D01*
X109998667Y-113675000D01*
X110281333Y-113675000D01*
X110360000Y-113659352D01*
X110360000Y-118004903D01*
X108724210Y-119640693D01*
X108532500Y-119602560D01*
X108007500Y-119602560D01*
X107746576Y-119654461D01*
X107651309Y-119615000D01*
X107285750Y-119615000D01*
X107127000Y-119773750D01*
X107127000Y-120364495D01*
X107097560Y-120512500D01*
X107097560Y-121487500D01*
X107127000Y-121635505D01*
X107127000Y-122226250D01*
X107285750Y-122385000D01*
X107651309Y-122385000D01*
X107746576Y-122345539D01*
X108007500Y-122397440D01*
X108532500Y-122397440D01*
X108880719Y-122328175D01*
X108905000Y-122311951D01*
X108929281Y-122328175D01*
X109277500Y-122397440D01*
X109802500Y-122397440D01*
X109988313Y-122360479D01*
X115482833Y-127855000D01*
X111307168Y-127855000D01*
X104737917Y-121285750D01*
X105840000Y-121285750D01*
X105840000Y-121876310D01*
X105936673Y-122109699D01*
X106115302Y-122288327D01*
X106348691Y-122385000D01*
X106714250Y-122385000D01*
X106873000Y-122226250D01*
X106873000Y-121127000D01*
X105998750Y-121127000D01*
X105840000Y-121285750D01*
X104737917Y-121285750D01*
X104712440Y-121260274D01*
X104712440Y-120512500D01*
X104643175Y-120164281D01*
X104616054Y-120123690D01*
X105840000Y-120123690D01*
X105840000Y-120714250D01*
X105998750Y-120873000D01*
X106873000Y-120873000D01*
X106873000Y-119773750D01*
X106714250Y-119615000D01*
X106348691Y-119615000D01*
X106115302Y-119711673D01*
X105936673Y-119890301D01*
X105840000Y-120123690D01*
X104616054Y-120123690D01*
X104445925Y-119869075D01*
X104150719Y-119671825D01*
X103985001Y-119638862D01*
X103985001Y-113214081D01*
X104025423Y-113274577D01*
X104500091Y-113591740D01*
X104918667Y-113675000D01*
X105201333Y-113675000D01*
X105619909Y-113591740D01*
X106094577Y-113274577D01*
X106330000Y-112922242D01*
X106565423Y-113274577D01*
X107040091Y-113591740D01*
X107458667Y-113675000D01*
X107741333Y-113675000D01*
X108159909Y-113591740D01*
X108634577Y-113274577D01*
X108870000Y-112922242D01*
X109105423Y-113274577D01*
X109105423Y-113274577D01*
G37*
X109105423Y-113274577D02*
X109580091Y-113591740D01*
X109998667Y-113675000D01*
X110281333Y-113675000D01*
X110360000Y-113659352D01*
X110360000Y-118004903D01*
X108724210Y-119640693D01*
X108532500Y-119602560D01*
X108007500Y-119602560D01*
X107746576Y-119654461D01*
X107651309Y-119615000D01*
X107285750Y-119615000D01*
X107127000Y-119773750D01*
X107127000Y-120364495D01*
X107097560Y-120512500D01*
X107097560Y-121487500D01*
X107127000Y-121635505D01*
X107127000Y-122226250D01*
X107285750Y-122385000D01*
X107651309Y-122385000D01*
X107746576Y-122345539D01*
X108007500Y-122397440D01*
X108532500Y-122397440D01*
X108880719Y-122328175D01*
X108905000Y-122311951D01*
X108929281Y-122328175D01*
X109277500Y-122397440D01*
X109802500Y-122397440D01*
X109988313Y-122360479D01*
X115482833Y-127855000D01*
X111307168Y-127855000D01*
X104737917Y-121285750D01*
X105840000Y-121285750D01*
X105840000Y-121876310D01*
X105936673Y-122109699D01*
X106115302Y-122288327D01*
X106348691Y-122385000D01*
X106714250Y-122385000D01*
X106873000Y-122226250D01*
X106873000Y-121127000D01*
X105998750Y-121127000D01*
X105840000Y-121285750D01*
X104737917Y-121285750D01*
X104712440Y-121260274D01*
X104712440Y-120512500D01*
X104643175Y-120164281D01*
X104616054Y-120123690D01*
X105840000Y-120123690D01*
X105840000Y-120714250D01*
X105998750Y-120873000D01*
X106873000Y-120873000D01*
X106873000Y-119773750D01*
X106714250Y-119615000D01*
X106348691Y-119615000D01*
X106115302Y-119711673D01*
X105936673Y-119890301D01*
X105840000Y-120123690D01*
X104616054Y-120123690D01*
X104445925Y-119869075D01*
X104150719Y-119671825D01*
X103985001Y-119638862D01*
X103985001Y-113214081D01*
X104025423Y-113274577D01*
X104500091Y-113591740D01*
X104918667Y-113675000D01*
X105201333Y-113675000D01*
X105619909Y-113591740D01*
X106094577Y-113274577D01*
X106330000Y-112922242D01*
X106565423Y-113274577D01*
X107040091Y-113591740D01*
X107458667Y-113675000D01*
X107741333Y-113675000D01*
X108159909Y-113591740D01*
X108634577Y-113274577D01*
X108870000Y-112922242D01*
X109105423Y-113274577D01*
G36*
X111645423Y-113274577D02*
X112120091Y-113591740D01*
X112538667Y-113675000D01*
X112821333Y-113675000D01*
X113239909Y-113591740D01*
X113630000Y-113331089D01*
X113630000Y-119615000D01*
X113285750Y-119615000D01*
X113127000Y-119773750D01*
X113127000Y-120364495D01*
X113097560Y-120512500D01*
X113097560Y-121487500D01*
X113127000Y-121635505D01*
X113127000Y-122226250D01*
X113285750Y-122385000D01*
X113651309Y-122385000D01*
X113746576Y-122345539D01*
X114007500Y-122397440D01*
X114532500Y-122397440D01*
X114880719Y-122328175D01*
X114905000Y-122311951D01*
X114929281Y-122328175D01*
X115062262Y-122354626D01*
X115103337Y-122382072D01*
X120076264Y-127355000D01*
X116807167Y-127355000D01*
X110737917Y-121285750D01*
X111840000Y-121285750D01*
X111840000Y-121876310D01*
X111936673Y-122109699D01*
X112115302Y-122288327D01*
X112348691Y-122385000D01*
X112714250Y-122385000D01*
X112873000Y-122226250D01*
X112873000Y-121127000D01*
X111998750Y-121127000D01*
X111840000Y-121285750D01*
X110737917Y-121285750D01*
X110712440Y-121260274D01*
X110712440Y-120512500D01*
X110643175Y-120164281D01*
X110616054Y-120123690D01*
X111840000Y-120123690D01*
X111840000Y-120714250D01*
X111998750Y-120873000D01*
X112873000Y-120873000D01*
X112873000Y-119773750D01*
X112714250Y-119615000D01*
X112348691Y-119615000D01*
X112115302Y-119711673D01*
X111936673Y-119890301D01*
X111840000Y-120123690D01*
X110616054Y-120123690D01*
X110445925Y-119869075D01*
X110362059Y-119813038D01*
X111407979Y-118767118D01*
X111461414Y-118731414D01*
X111602867Y-118519715D01*
X111640000Y-118333033D01*
X111640000Y-118333030D01*
X111652537Y-118270001D01*
X111640000Y-118206972D01*
X111640000Y-113266461D01*
X111645423Y-113274577D01*
X111645423Y-113274577D01*
G37*
X111645423Y-113274577D02*
X112120091Y-113591740D01*
X112538667Y-113675000D01*
X112821333Y-113675000D01*
X113239909Y-113591740D01*
X113630000Y-113331089D01*
X113630000Y-119615000D01*
X113285750Y-119615000D01*
X113127000Y-119773750D01*
X113127000Y-120364495D01*
X113097560Y-120512500D01*
X113097560Y-121487500D01*
X113127000Y-121635505D01*
X113127000Y-122226250D01*
X113285750Y-122385000D01*
X113651309Y-122385000D01*
X113746576Y-122345539D01*
X114007500Y-122397440D01*
X114532500Y-122397440D01*
X114880719Y-122328175D01*
X114905000Y-122311951D01*
X114929281Y-122328175D01*
X115062262Y-122354626D01*
X115103337Y-122382072D01*
X120076264Y-127355000D01*
X116807167Y-127355000D01*
X110737917Y-121285750D01*
X111840000Y-121285750D01*
X111840000Y-121876310D01*
X111936673Y-122109699D01*
X112115302Y-122288327D01*
X112348691Y-122385000D01*
X112714250Y-122385000D01*
X112873000Y-122226250D01*
X112873000Y-121127000D01*
X111998750Y-121127000D01*
X111840000Y-121285750D01*
X110737917Y-121285750D01*
X110712440Y-121260274D01*
X110712440Y-120512500D01*
X110643175Y-120164281D01*
X110616054Y-120123690D01*
X111840000Y-120123690D01*
X111840000Y-120714250D01*
X111998750Y-120873000D01*
X112873000Y-120873000D01*
X112873000Y-119773750D01*
X112714250Y-119615000D01*
X112348691Y-119615000D01*
X112115302Y-119711673D01*
X111936673Y-119890301D01*
X111840000Y-120123690D01*
X110616054Y-120123690D01*
X110445925Y-119869075D01*
X110362059Y-119813038D01*
X111407979Y-118767118D01*
X111461414Y-118731414D01*
X111602867Y-118519715D01*
X111640000Y-118333033D01*
X111640000Y-118333030D01*
X111652537Y-118270001D01*
X111640000Y-118206972D01*
X111640000Y-113266461D01*
X111645423Y-113274577D01*
G36*
X155032206Y-85650941D02*
X154815000Y-86175322D01*
X154815000Y-87024678D01*
X155140034Y-87809380D01*
X155740620Y-88409966D01*
X156525322Y-88735000D01*
X157374678Y-88735000D01*
X158159380Y-88409966D01*
X158759966Y-87809380D01*
X158977171Y-87285000D01*
X166862715Y-87285000D01*
X166957235Y-87348157D01*
X167205000Y-87397440D01*
X168255000Y-87397440D01*
X168360001Y-87376554D01*
X168360001Y-87436967D01*
X168347463Y-87500000D01*
X168397134Y-87749716D01*
X168502881Y-87907977D01*
X168538587Y-87961414D01*
X168592023Y-87997119D01*
X171983528Y-91388625D01*
X171865000Y-91674778D01*
X171865000Y-92325222D01*
X172113914Y-92926153D01*
X172573847Y-93386086D01*
X173174778Y-93635000D01*
X173825222Y-93635000D01*
X174426153Y-93386086D01*
X174886086Y-92926153D01*
X175135000Y-92325222D01*
X175135000Y-91674778D01*
X174886086Y-91073847D01*
X174426153Y-90613914D01*
X173825222Y-90365000D01*
X173174778Y-90365000D01*
X172888625Y-90483528D01*
X169790096Y-87385000D01*
X169984250Y-87385000D01*
X170143000Y-87226250D01*
X170143000Y-86635505D01*
X170172440Y-86487500D01*
X170172440Y-86127000D01*
X170397000Y-86127000D01*
X170397000Y-87226250D01*
X170555750Y-87385000D01*
X170921309Y-87385000D01*
X171154698Y-87288327D01*
X171333327Y-87109699D01*
X171430000Y-86876310D01*
X171430000Y-86285750D01*
X171271250Y-86127000D01*
X170397000Y-86127000D01*
X170172440Y-86127000D01*
X170172440Y-85853000D01*
X170397000Y-85853000D01*
X170397000Y-85873000D01*
X171271250Y-85873000D01*
X171430000Y-85714250D01*
X171430000Y-85684999D01*
X179318098Y-85684999D01*
X179115000Y-86175322D01*
X179115000Y-87024678D01*
X179348774Y-87589059D01*
X178588840Y-88348994D01*
X178534981Y-88384981D01*
X178392424Y-88598335D01*
X178361924Y-88751666D01*
X178342364Y-88850000D01*
X178355000Y-88913524D01*
X178355001Y-91232832D01*
X173732834Y-95855000D01*
X169063524Y-95855000D01*
X169000000Y-95842364D01*
X168936476Y-95855000D01*
X168936475Y-95855000D01*
X168748334Y-95892424D01*
X168534981Y-96034981D01*
X168498995Y-96088838D01*
X163732834Y-100855000D01*
X156613735Y-100855000D01*
X163933625Y-93535111D01*
X164174778Y-93635000D01*
X164825222Y-93635000D01*
X165426153Y-93386086D01*
X165886086Y-92926153D01*
X166135000Y-92325222D01*
X166135000Y-91674778D01*
X165886086Y-91073847D01*
X165426153Y-90613914D01*
X164825222Y-90365000D01*
X164174778Y-90365000D01*
X163573847Y-90613914D01*
X163113914Y-91073847D01*
X162865000Y-91674778D01*
X162865000Y-92325222D01*
X162964889Y-92566375D01*
X156597936Y-98933328D01*
X156516309Y-98851701D01*
X156837568Y-98688989D01*
X157151556Y-97889536D01*
X157135706Y-97030779D01*
X156837568Y-96311011D01*
X156516307Y-96148298D01*
X155164605Y-97500000D01*
X155178748Y-97514143D01*
X154999143Y-97693748D01*
X154985000Y-97679605D01*
X153633298Y-99031307D01*
X153796011Y-99352568D01*
X154595464Y-99666556D01*
X155454221Y-99650706D01*
X156173989Y-99352568D01*
X156336701Y-99031309D01*
X156418328Y-99112936D01*
X154826275Y-100704990D01*
X146207176Y-100704990D01*
X148411163Y-98501004D01*
X148465019Y-98465019D01*
X148607576Y-98251666D01*
X148645000Y-98063525D01*
X148645000Y-98063524D01*
X148657636Y-98000000D01*
X148645000Y-97936476D01*
X148645000Y-97110464D01*
X152818444Y-97110464D01*
X152834294Y-97969221D01*
X153132432Y-98688989D01*
X153453693Y-98851702D01*
X154805395Y-97500000D01*
X153453693Y-96148298D01*
X153132432Y-96311011D01*
X152818444Y-97110464D01*
X148645000Y-97110464D01*
X148645000Y-95968693D01*
X153633298Y-95968693D01*
X154985000Y-97320395D01*
X156336702Y-95968693D01*
X156173989Y-95647432D01*
X155374536Y-95333444D01*
X154515779Y-95349294D01*
X153796011Y-95647432D01*
X153633298Y-95968693D01*
X148645000Y-95968693D01*
X148645000Y-92813970D01*
X150815635Y-92813970D01*
X150975418Y-93132739D01*
X151766187Y-93442723D01*
X152615387Y-93426497D01*
X153324582Y-93132739D01*
X153484365Y-92813970D01*
X155615635Y-92813970D01*
X155775418Y-93132739D01*
X156566187Y-93442723D01*
X157415387Y-93426497D01*
X158124582Y-93132739D01*
X158284365Y-92813970D01*
X156950000Y-91479605D01*
X155615635Y-92813970D01*
X153484365Y-92813970D01*
X152150000Y-91479605D01*
X150815635Y-92813970D01*
X148645000Y-92813970D01*
X148645000Y-91017166D01*
X148745979Y-90916187D01*
X150007277Y-90916187D01*
X150023503Y-91765387D01*
X150317261Y-92474582D01*
X150636030Y-92634365D01*
X151970395Y-91300000D01*
X152329605Y-91300000D01*
X153663970Y-92634365D01*
X153982739Y-92474582D01*
X154292723Y-91683813D01*
X154278056Y-90916187D01*
X154807277Y-90916187D01*
X154823503Y-91765387D01*
X155117261Y-92474582D01*
X155436030Y-92634365D01*
X156770395Y-91300000D01*
X157129605Y-91300000D01*
X158463970Y-92634365D01*
X158782739Y-92474582D01*
X159092723Y-91683813D01*
X159076497Y-90834613D01*
X158782739Y-90125418D01*
X158463970Y-89965635D01*
X157129605Y-91300000D01*
X156770395Y-91300000D01*
X155436030Y-89965635D01*
X155117261Y-90125418D01*
X154807277Y-90916187D01*
X154278056Y-90916187D01*
X154276497Y-90834613D01*
X153982739Y-90125418D01*
X153663970Y-89965635D01*
X152329605Y-91300000D01*
X151970395Y-91300000D01*
X150636030Y-89965635D01*
X150317261Y-90125418D01*
X150007277Y-90916187D01*
X148745979Y-90916187D01*
X149876136Y-89786030D01*
X150815635Y-89786030D01*
X152150000Y-91120395D01*
X153484365Y-89786030D01*
X155615635Y-89786030D01*
X156950000Y-91120395D01*
X158284365Y-89786030D01*
X158124582Y-89467261D01*
X157333813Y-89157277D01*
X156484613Y-89173503D01*
X155775418Y-89467261D01*
X155615635Y-89786030D01*
X153484365Y-89786030D01*
X153324582Y-89467261D01*
X152533813Y-89157277D01*
X151684613Y-89173503D01*
X150975418Y-89467261D01*
X150815635Y-89786030D01*
X149876136Y-89786030D01*
X151160941Y-88501226D01*
X151725322Y-88735000D01*
X152574678Y-88735000D01*
X153359380Y-88409966D01*
X153959966Y-87809380D01*
X154285000Y-87024678D01*
X154285000Y-86175322D01*
X153959966Y-85390620D01*
X153754346Y-85185000D01*
X154566265Y-85185000D01*
X155032206Y-85650941D01*
X155032206Y-85650941D01*
G37*
X155032206Y-85650941D02*
X154815000Y-86175322D01*
X154815000Y-87024678D01*
X155140034Y-87809380D01*
X155740620Y-88409966D01*
X156525322Y-88735000D01*
X157374678Y-88735000D01*
X158159380Y-88409966D01*
X158759966Y-87809380D01*
X158977171Y-87285000D01*
X166862715Y-87285000D01*
X166957235Y-87348157D01*
X167205000Y-87397440D01*
X168255000Y-87397440D01*
X168360001Y-87376554D01*
X168360001Y-87436967D01*
X168347463Y-87500000D01*
X168397134Y-87749716D01*
X168502881Y-87907977D01*
X168538587Y-87961414D01*
X168592023Y-87997119D01*
X171983528Y-91388625D01*
X171865000Y-91674778D01*
X171865000Y-92325222D01*
X172113914Y-92926153D01*
X172573847Y-93386086D01*
X173174778Y-93635000D01*
X173825222Y-93635000D01*
X174426153Y-93386086D01*
X174886086Y-92926153D01*
X175135000Y-92325222D01*
X175135000Y-91674778D01*
X174886086Y-91073847D01*
X174426153Y-90613914D01*
X173825222Y-90365000D01*
X173174778Y-90365000D01*
X172888625Y-90483528D01*
X169790096Y-87385000D01*
X169984250Y-87385000D01*
X170143000Y-87226250D01*
X170143000Y-86635505D01*
X170172440Y-86487500D01*
X170172440Y-86127000D01*
X170397000Y-86127000D01*
X170397000Y-87226250D01*
X170555750Y-87385000D01*
X170921309Y-87385000D01*
X171154698Y-87288327D01*
X171333327Y-87109699D01*
X171430000Y-86876310D01*
X171430000Y-86285750D01*
X171271250Y-86127000D01*
X170397000Y-86127000D01*
X170172440Y-86127000D01*
X170172440Y-85853000D01*
X170397000Y-85853000D01*
X170397000Y-85873000D01*
X171271250Y-85873000D01*
X171430000Y-85714250D01*
X171430000Y-85684999D01*
X179318098Y-85684999D01*
X179115000Y-86175322D01*
X179115000Y-87024678D01*
X179348774Y-87589059D01*
X178588840Y-88348994D01*
X178534981Y-88384981D01*
X178392424Y-88598335D01*
X178361924Y-88751666D01*
X178342364Y-88850000D01*
X178355000Y-88913524D01*
X178355001Y-91232832D01*
X173732834Y-95855000D01*
X169063524Y-95855000D01*
X169000000Y-95842364D01*
X168936476Y-95855000D01*
X168936475Y-95855000D01*
X168748334Y-95892424D01*
X168534981Y-96034981D01*
X168498995Y-96088838D01*
X163732834Y-100855000D01*
X156613735Y-100855000D01*
X163933625Y-93535111D01*
X164174778Y-93635000D01*
X164825222Y-93635000D01*
X165426153Y-93386086D01*
X165886086Y-92926153D01*
X166135000Y-92325222D01*
X166135000Y-91674778D01*
X165886086Y-91073847D01*
X165426153Y-90613914D01*
X164825222Y-90365000D01*
X164174778Y-90365000D01*
X163573847Y-90613914D01*
X163113914Y-91073847D01*
X162865000Y-91674778D01*
X162865000Y-92325222D01*
X162964889Y-92566375D01*
X156597936Y-98933328D01*
X156516309Y-98851701D01*
X156837568Y-98688989D01*
X157151556Y-97889536D01*
X157135706Y-97030779D01*
X156837568Y-96311011D01*
X156516307Y-96148298D01*
X155164605Y-97500000D01*
X155178748Y-97514143D01*
X154999143Y-97693748D01*
X154985000Y-97679605D01*
X153633298Y-99031307D01*
X153796011Y-99352568D01*
X154595464Y-99666556D01*
X155454221Y-99650706D01*
X156173989Y-99352568D01*
X156336701Y-99031309D01*
X156418328Y-99112936D01*
X154826275Y-100704990D01*
X146207176Y-100704990D01*
X148411163Y-98501004D01*
X148465019Y-98465019D01*
X148607576Y-98251666D01*
X148645000Y-98063525D01*
X148645000Y-98063524D01*
X148657636Y-98000000D01*
X148645000Y-97936476D01*
X148645000Y-97110464D01*
X152818444Y-97110464D01*
X152834294Y-97969221D01*
X153132432Y-98688989D01*
X153453693Y-98851702D01*
X154805395Y-97500000D01*
X153453693Y-96148298D01*
X153132432Y-96311011D01*
X152818444Y-97110464D01*
X148645000Y-97110464D01*
X148645000Y-95968693D01*
X153633298Y-95968693D01*
X154985000Y-97320395D01*
X156336702Y-95968693D01*
X156173989Y-95647432D01*
X155374536Y-95333444D01*
X154515779Y-95349294D01*
X153796011Y-95647432D01*
X153633298Y-95968693D01*
X148645000Y-95968693D01*
X148645000Y-92813970D01*
X150815635Y-92813970D01*
X150975418Y-93132739D01*
X151766187Y-93442723D01*
X152615387Y-93426497D01*
X153324582Y-93132739D01*
X153484365Y-92813970D01*
X155615635Y-92813970D01*
X155775418Y-93132739D01*
X156566187Y-93442723D01*
X157415387Y-93426497D01*
X158124582Y-93132739D01*
X158284365Y-92813970D01*
X156950000Y-91479605D01*
X155615635Y-92813970D01*
X153484365Y-92813970D01*
X152150000Y-91479605D01*
X150815635Y-92813970D01*
X148645000Y-92813970D01*
X148645000Y-91017166D01*
X148745979Y-90916187D01*
X150007277Y-90916187D01*
X150023503Y-91765387D01*
X150317261Y-92474582D01*
X150636030Y-92634365D01*
X151970395Y-91300000D01*
X152329605Y-91300000D01*
X153663970Y-92634365D01*
X153982739Y-92474582D01*
X154292723Y-91683813D01*
X154278056Y-90916187D01*
X154807277Y-90916187D01*
X154823503Y-91765387D01*
X155117261Y-92474582D01*
X155436030Y-92634365D01*
X156770395Y-91300000D01*
X157129605Y-91300000D01*
X158463970Y-92634365D01*
X158782739Y-92474582D01*
X159092723Y-91683813D01*
X159076497Y-90834613D01*
X158782739Y-90125418D01*
X158463970Y-89965635D01*
X157129605Y-91300000D01*
X156770395Y-91300000D01*
X155436030Y-89965635D01*
X155117261Y-90125418D01*
X154807277Y-90916187D01*
X154278056Y-90916187D01*
X154276497Y-90834613D01*
X153982739Y-90125418D01*
X153663970Y-89965635D01*
X152329605Y-91300000D01*
X151970395Y-91300000D01*
X150636030Y-89965635D01*
X150317261Y-90125418D01*
X150007277Y-90916187D01*
X148745979Y-90916187D01*
X149876136Y-89786030D01*
X150815635Y-89786030D01*
X152150000Y-91120395D01*
X153484365Y-89786030D01*
X155615635Y-89786030D01*
X156950000Y-91120395D01*
X158284365Y-89786030D01*
X158124582Y-89467261D01*
X157333813Y-89157277D01*
X156484613Y-89173503D01*
X155775418Y-89467261D01*
X155615635Y-89786030D01*
X153484365Y-89786030D01*
X153324582Y-89467261D01*
X152533813Y-89157277D01*
X151684613Y-89173503D01*
X150975418Y-89467261D01*
X150815635Y-89786030D01*
X149876136Y-89786030D01*
X151160941Y-88501226D01*
X151725322Y-88735000D01*
X152574678Y-88735000D01*
X153359380Y-88409966D01*
X153959966Y-87809380D01*
X154285000Y-87024678D01*
X154285000Y-86175322D01*
X153959966Y-85390620D01*
X153754346Y-85185000D01*
X154566265Y-85185000D01*
X155032206Y-85650941D01*
G36*
X150340034Y-85390620D02*
X150015000Y-86175322D01*
X150015000Y-87024678D01*
X150248774Y-87589059D01*
X147588838Y-90248995D01*
X147534982Y-90284981D01*
X147433630Y-90436666D01*
X147392425Y-90498334D01*
X147342364Y-90750000D01*
X147355001Y-90813528D01*
X147355000Y-97732833D01*
X145232834Y-99855000D01*
X121527168Y-99855000D01*
X120094379Y-98422212D01*
X120158667Y-98435000D01*
X120441333Y-98435000D01*
X120763633Y-98370891D01*
X120893454Y-98457634D01*
X120908335Y-98467577D01*
X121160001Y-98517637D01*
X121223526Y-98505001D01*
X123189277Y-98505001D01*
X123252801Y-98517637D01*
X123316325Y-98505001D01*
X123316326Y-98505001D01*
X123504467Y-98467577D01*
X123717820Y-98325020D01*
X123753807Y-98271161D01*
X124111165Y-97913804D01*
X124165020Y-97877820D01*
X124202851Y-97821202D01*
X124345423Y-98034577D01*
X124820091Y-98351740D01*
X125238667Y-98435000D01*
X125521333Y-98435000D01*
X125939909Y-98351740D01*
X126414577Y-98034577D01*
X126650000Y-97682242D01*
X126885423Y-98034577D01*
X127360091Y-98351740D01*
X127778667Y-98435000D01*
X128061333Y-98435000D01*
X128479909Y-98351740D01*
X128954577Y-98034577D01*
X129190000Y-97682242D01*
X129425423Y-98034577D01*
X129900091Y-98351740D01*
X130318667Y-98435000D01*
X130601333Y-98435000D01*
X131019909Y-98351740D01*
X131494577Y-98034577D01*
X131575215Y-97913894D01*
X131601843Y-98047765D01*
X131742191Y-98257809D01*
X131952235Y-98398157D01*
X132200000Y-98447440D01*
X133800000Y-98447440D01*
X134047765Y-98398157D01*
X134257809Y-98257809D01*
X134398157Y-98047765D01*
X134447440Y-97800000D01*
X134447440Y-97070548D01*
X138856000Y-97070548D01*
X138856000Y-97929452D01*
X139184688Y-98722975D01*
X139792025Y-99330312D01*
X140585548Y-99659000D01*
X141444452Y-99659000D01*
X142237975Y-99330312D01*
X142845312Y-98722975D01*
X143174000Y-97929452D01*
X143174000Y-97070548D01*
X142845312Y-96277025D01*
X142237975Y-95669688D01*
X141444452Y-95341000D01*
X140585548Y-95341000D01*
X139792025Y-95669688D01*
X139184688Y-96277025D01*
X138856000Y-97070548D01*
X134447440Y-97070548D01*
X134447440Y-96200000D01*
X134398157Y-95952235D01*
X134257809Y-95742191D01*
X134047765Y-95601843D01*
X133800000Y-95552560D01*
X132200000Y-95552560D01*
X131952235Y-95601843D01*
X131742191Y-95742191D01*
X131601843Y-95952235D01*
X131575215Y-96086106D01*
X131494577Y-95965423D01*
X131019909Y-95648260D01*
X130601333Y-95565000D01*
X130318667Y-95565000D01*
X129900091Y-95648260D01*
X129425423Y-95965423D01*
X129190000Y-96317758D01*
X128954577Y-95965423D01*
X128479909Y-95648260D01*
X128061333Y-95565000D01*
X127778667Y-95565000D01*
X127360091Y-95648260D01*
X126885423Y-95965423D01*
X126650000Y-96317758D01*
X126414577Y-95965423D01*
X125939909Y-95648260D01*
X125521333Y-95565000D01*
X125238667Y-95565000D01*
X124820091Y-95648260D01*
X124345423Y-95965423D01*
X124202851Y-96178798D01*
X124165020Y-96122180D01*
X124111164Y-96086195D01*
X121645000Y-93620032D01*
X121645000Y-92884608D01*
X121715636Y-92813972D01*
X121875418Y-93132739D01*
X122666187Y-93442723D01*
X123515387Y-93426497D01*
X124224582Y-93132739D01*
X124384365Y-92813970D01*
X126515635Y-92813970D01*
X126675418Y-93132739D01*
X127466187Y-93442723D01*
X128315387Y-93426497D01*
X129024582Y-93132739D01*
X129184365Y-92813970D01*
X127850000Y-91479605D01*
X126515635Y-92813970D01*
X124384365Y-92813970D01*
X123050000Y-91479605D01*
X123035858Y-91493748D01*
X122856253Y-91314143D01*
X122870395Y-91300000D01*
X123229605Y-91300000D01*
X124563970Y-92634365D01*
X124882739Y-92474582D01*
X125192723Y-91683813D01*
X125178056Y-90916187D01*
X125707277Y-90916187D01*
X125723503Y-91765387D01*
X126017261Y-92474582D01*
X126336030Y-92634365D01*
X127670395Y-91300000D01*
X128029605Y-91300000D01*
X129363970Y-92634365D01*
X129682739Y-92474582D01*
X129992723Y-91683813D01*
X129976497Y-90834613D01*
X129682739Y-90125418D01*
X129363970Y-89965635D01*
X128029605Y-91300000D01*
X127670395Y-91300000D01*
X126336030Y-89965635D01*
X126017261Y-90125418D01*
X125707277Y-90916187D01*
X125178056Y-90916187D01*
X125176497Y-90834613D01*
X124882739Y-90125418D01*
X124563970Y-89965635D01*
X123229605Y-91300000D01*
X122870395Y-91300000D01*
X122856253Y-91285858D01*
X123035858Y-91106253D01*
X123050000Y-91120395D01*
X124384365Y-89786030D01*
X126515635Y-89786030D01*
X127850000Y-91120395D01*
X129184365Y-89786030D01*
X129024582Y-89467261D01*
X128233813Y-89157277D01*
X127384613Y-89173503D01*
X126675418Y-89467261D01*
X126515635Y-89786030D01*
X124384365Y-89786030D01*
X124224582Y-89467261D01*
X123433813Y-89157277D01*
X122584613Y-89173503D01*
X121875418Y-89467261D01*
X121715636Y-89786028D01*
X121645000Y-89715392D01*
X121645000Y-88917166D01*
X122060941Y-88501226D01*
X122625322Y-88735000D01*
X123474678Y-88735000D01*
X124259380Y-88409966D01*
X124859966Y-87809380D01*
X125185000Y-87024678D01*
X125185000Y-86175322D01*
X124981902Y-85684999D01*
X125918098Y-85684999D01*
X125715000Y-86175322D01*
X125715000Y-87024678D01*
X126040034Y-87809380D01*
X126640620Y-88409966D01*
X127425322Y-88735000D01*
X128274678Y-88735000D01*
X129059380Y-88409966D01*
X129659966Y-87809380D01*
X129877171Y-87285000D01*
X130816265Y-87285000D01*
X133964889Y-90433625D01*
X133865000Y-90674778D01*
X133865000Y-91325222D01*
X134113914Y-91926153D01*
X134573847Y-92386086D01*
X135174778Y-92635000D01*
X135825222Y-92635000D01*
X136426153Y-92386086D01*
X136886086Y-91926153D01*
X137135000Y-91325222D01*
X137135000Y-90674778D01*
X136886086Y-90073847D01*
X136426153Y-89613914D01*
X136185000Y-89514025D01*
X136185000Y-87283735D01*
X137557560Y-85911176D01*
X137557560Y-86750000D01*
X137606843Y-86997765D01*
X137747191Y-87207809D01*
X137957235Y-87348157D01*
X138205000Y-87397440D01*
X138933705Y-87397440D01*
X141972931Y-90436668D01*
X142011144Y-90493858D01*
X142068334Y-90532071D01*
X142068335Y-90532072D01*
X142237727Y-90645256D01*
X142505001Y-90698420D01*
X142572463Y-90685001D01*
X142865000Y-90685001D01*
X142865000Y-91325222D01*
X143113914Y-91926153D01*
X143573847Y-92386086D01*
X144174778Y-92635000D01*
X144825222Y-92635000D01*
X145426153Y-92386086D01*
X145886086Y-91926153D01*
X146135000Y-91325222D01*
X146135000Y-90674778D01*
X145886086Y-90073847D01*
X145426153Y-89613914D01*
X144825222Y-89365000D01*
X144174778Y-89365000D01*
X143932693Y-89465275D01*
X143767274Y-89354746D01*
X143567463Y-89315001D01*
X143567461Y-89315001D01*
X143500001Y-89301582D01*
X143432541Y-89315001D01*
X142788738Y-89315001D01*
X140837326Y-87363590D01*
X141007500Y-87397440D01*
X141532500Y-87397440D01*
X141880719Y-87328175D01*
X142175925Y-87130925D01*
X142373175Y-86835719D01*
X142442440Y-86487500D01*
X142442440Y-85512500D01*
X142377296Y-85185000D01*
X150545654Y-85185000D01*
X150340034Y-85390620D01*
X150340034Y-85390620D01*
G37*
X150340034Y-85390620D02*
X150015000Y-86175322D01*
X150015000Y-87024678D01*
X150248774Y-87589059D01*
X147588838Y-90248995D01*
X147534982Y-90284981D01*
X147433630Y-90436666D01*
X147392425Y-90498334D01*
X147342364Y-90750000D01*
X147355001Y-90813528D01*
X147355000Y-97732833D01*
X145232834Y-99855000D01*
X121527168Y-99855000D01*
X120094379Y-98422212D01*
X120158667Y-98435000D01*
X120441333Y-98435000D01*
X120763633Y-98370891D01*
X120893454Y-98457634D01*
X120908335Y-98467577D01*
X121160001Y-98517637D01*
X121223526Y-98505001D01*
X123189277Y-98505001D01*
X123252801Y-98517637D01*
X123316325Y-98505001D01*
X123316326Y-98505001D01*
X123504467Y-98467577D01*
X123717820Y-98325020D01*
X123753807Y-98271161D01*
X124111165Y-97913804D01*
X124165020Y-97877820D01*
X124202851Y-97821202D01*
X124345423Y-98034577D01*
X124820091Y-98351740D01*
X125238667Y-98435000D01*
X125521333Y-98435000D01*
X125939909Y-98351740D01*
X126414577Y-98034577D01*
X126650000Y-97682242D01*
X126885423Y-98034577D01*
X127360091Y-98351740D01*
X127778667Y-98435000D01*
X128061333Y-98435000D01*
X128479909Y-98351740D01*
X128954577Y-98034577D01*
X129190000Y-97682242D01*
X129425423Y-98034577D01*
X129900091Y-98351740D01*
X130318667Y-98435000D01*
X130601333Y-98435000D01*
X131019909Y-98351740D01*
X131494577Y-98034577D01*
X131575215Y-97913894D01*
X131601843Y-98047765D01*
X131742191Y-98257809D01*
X131952235Y-98398157D01*
X132200000Y-98447440D01*
X133800000Y-98447440D01*
X134047765Y-98398157D01*
X134257809Y-98257809D01*
X134398157Y-98047765D01*
X134447440Y-97800000D01*
X134447440Y-97070548D01*
X138856000Y-97070548D01*
X138856000Y-97929452D01*
X139184688Y-98722975D01*
X139792025Y-99330312D01*
X140585548Y-99659000D01*
X141444452Y-99659000D01*
X142237975Y-99330312D01*
X142845312Y-98722975D01*
X143174000Y-97929452D01*
X143174000Y-97070548D01*
X142845312Y-96277025D01*
X142237975Y-95669688D01*
X141444452Y-95341000D01*
X140585548Y-95341000D01*
X139792025Y-95669688D01*
X139184688Y-96277025D01*
X138856000Y-97070548D01*
X134447440Y-97070548D01*
X134447440Y-96200000D01*
X134398157Y-95952235D01*
X134257809Y-95742191D01*
X134047765Y-95601843D01*
X133800000Y-95552560D01*
X132200000Y-95552560D01*
X131952235Y-95601843D01*
X131742191Y-95742191D01*
X131601843Y-95952235D01*
X131575215Y-96086106D01*
X131494577Y-95965423D01*
X131019909Y-95648260D01*
X130601333Y-95565000D01*
X130318667Y-95565000D01*
X129900091Y-95648260D01*
X129425423Y-95965423D01*
X129190000Y-96317758D01*
X128954577Y-95965423D01*
X128479909Y-95648260D01*
X128061333Y-95565000D01*
X127778667Y-95565000D01*
X127360091Y-95648260D01*
X126885423Y-95965423D01*
X126650000Y-96317758D01*
X126414577Y-95965423D01*
X125939909Y-95648260D01*
X125521333Y-95565000D01*
X125238667Y-95565000D01*
X124820091Y-95648260D01*
X124345423Y-95965423D01*
X124202851Y-96178798D01*
X124165020Y-96122180D01*
X124111164Y-96086195D01*
X121645000Y-93620032D01*
X121645000Y-92884608D01*
X121715636Y-92813972D01*
X121875418Y-93132739D01*
X122666187Y-93442723D01*
X123515387Y-93426497D01*
X124224582Y-93132739D01*
X124384365Y-92813970D01*
X126515635Y-92813970D01*
X126675418Y-93132739D01*
X127466187Y-93442723D01*
X128315387Y-93426497D01*
X129024582Y-93132739D01*
X129184365Y-92813970D01*
X127850000Y-91479605D01*
X126515635Y-92813970D01*
X124384365Y-92813970D01*
X123050000Y-91479605D01*
X123035858Y-91493748D01*
X122856253Y-91314143D01*
X122870395Y-91300000D01*
X123229605Y-91300000D01*
X124563970Y-92634365D01*
X124882739Y-92474582D01*
X125192723Y-91683813D01*
X125178056Y-90916187D01*
X125707277Y-90916187D01*
X125723503Y-91765387D01*
X126017261Y-92474582D01*
X126336030Y-92634365D01*
X127670395Y-91300000D01*
X128029605Y-91300000D01*
X129363970Y-92634365D01*
X129682739Y-92474582D01*
X129992723Y-91683813D01*
X129976497Y-90834613D01*
X129682739Y-90125418D01*
X129363970Y-89965635D01*
X128029605Y-91300000D01*
X127670395Y-91300000D01*
X126336030Y-89965635D01*
X126017261Y-90125418D01*
X125707277Y-90916187D01*
X125178056Y-90916187D01*
X125176497Y-90834613D01*
X124882739Y-90125418D01*
X124563970Y-89965635D01*
X123229605Y-91300000D01*
X122870395Y-91300000D01*
X122856253Y-91285858D01*
X123035858Y-91106253D01*
X123050000Y-91120395D01*
X124384365Y-89786030D01*
X126515635Y-89786030D01*
X127850000Y-91120395D01*
X129184365Y-89786030D01*
X129024582Y-89467261D01*
X128233813Y-89157277D01*
X127384613Y-89173503D01*
X126675418Y-89467261D01*
X126515635Y-89786030D01*
X124384365Y-89786030D01*
X124224582Y-89467261D01*
X123433813Y-89157277D01*
X122584613Y-89173503D01*
X121875418Y-89467261D01*
X121715636Y-89786028D01*
X121645000Y-89715392D01*
X121645000Y-88917166D01*
X122060941Y-88501226D01*
X122625322Y-88735000D01*
X123474678Y-88735000D01*
X124259380Y-88409966D01*
X124859966Y-87809380D01*
X125185000Y-87024678D01*
X125185000Y-86175322D01*
X124981902Y-85684999D01*
X125918098Y-85684999D01*
X125715000Y-86175322D01*
X125715000Y-87024678D01*
X126040034Y-87809380D01*
X126640620Y-88409966D01*
X127425322Y-88735000D01*
X128274678Y-88735000D01*
X129059380Y-88409966D01*
X129659966Y-87809380D01*
X129877171Y-87285000D01*
X130816265Y-87285000D01*
X133964889Y-90433625D01*
X133865000Y-90674778D01*
X133865000Y-91325222D01*
X134113914Y-91926153D01*
X134573847Y-92386086D01*
X135174778Y-92635000D01*
X135825222Y-92635000D01*
X136426153Y-92386086D01*
X136886086Y-91926153D01*
X137135000Y-91325222D01*
X137135000Y-90674778D01*
X136886086Y-90073847D01*
X136426153Y-89613914D01*
X136185000Y-89514025D01*
X136185000Y-87283735D01*
X137557560Y-85911176D01*
X137557560Y-86750000D01*
X137606843Y-86997765D01*
X137747191Y-87207809D01*
X137957235Y-87348157D01*
X138205000Y-87397440D01*
X138933705Y-87397440D01*
X141972931Y-90436668D01*
X142011144Y-90493858D01*
X142068334Y-90532071D01*
X142068335Y-90532072D01*
X142237727Y-90645256D01*
X142505001Y-90698420D01*
X142572463Y-90685001D01*
X142865000Y-90685001D01*
X142865000Y-91325222D01*
X143113914Y-91926153D01*
X143573847Y-92386086D01*
X144174778Y-92635000D01*
X144825222Y-92635000D01*
X145426153Y-92386086D01*
X145886086Y-91926153D01*
X146135000Y-91325222D01*
X146135000Y-90674778D01*
X145886086Y-90073847D01*
X145426153Y-89613914D01*
X144825222Y-89365000D01*
X144174778Y-89365000D01*
X143932693Y-89465275D01*
X143767274Y-89354746D01*
X143567463Y-89315001D01*
X143567461Y-89315001D01*
X143500001Y-89301582D01*
X143432541Y-89315001D01*
X142788738Y-89315001D01*
X140837326Y-87363590D01*
X141007500Y-87397440D01*
X141532500Y-87397440D01*
X141880719Y-87328175D01*
X142175925Y-87130925D01*
X142373175Y-86835719D01*
X142442440Y-86487500D01*
X142442440Y-85512500D01*
X142377296Y-85185000D01*
X150545654Y-85185000D01*
X150340034Y-85390620D01*
G36*
X183915000Y-86175322D02*
X183915000Y-87024678D01*
X184240034Y-87809380D01*
X184840620Y-88409966D01*
X185405372Y-88643894D01*
X183329094Y-90720172D01*
X183082739Y-90125418D01*
X182763970Y-89965635D01*
X181429605Y-91300000D01*
X181443748Y-91314143D01*
X181264143Y-91493748D01*
X181250000Y-91479605D01*
X179915635Y-92813970D01*
X180075418Y-93132739D01*
X180679662Y-93369605D01*
X178124257Y-95925010D01*
X175487156Y-95925010D01*
X179276767Y-92135400D01*
X179417261Y-92474582D01*
X179736030Y-92634365D01*
X181070395Y-91300000D01*
X179736030Y-89965635D01*
X179645000Y-90011264D01*
X179645000Y-89786030D01*
X179915635Y-89786030D01*
X181250000Y-91120395D01*
X182584365Y-89786030D01*
X182424582Y-89467261D01*
X181633813Y-89157277D01*
X180784613Y-89173503D01*
X180075418Y-89467261D01*
X179915635Y-89786030D01*
X179645000Y-89786030D01*
X179645000Y-89117166D01*
X180260941Y-88501226D01*
X180825322Y-88735000D01*
X181674678Y-88735000D01*
X182459380Y-88409966D01*
X183059966Y-87809380D01*
X183385000Y-87024678D01*
X183385000Y-86175322D01*
X183181902Y-85684999D01*
X184118098Y-85684999D01*
X183915000Y-86175322D01*
X183915000Y-86175322D01*
G37*
X183915000Y-86175322D02*
X183915000Y-87024678D01*
X184240034Y-87809380D01*
X184840620Y-88409966D01*
X185405372Y-88643894D01*
X183329094Y-90720172D01*
X183082739Y-90125418D01*
X182763970Y-89965635D01*
X181429605Y-91300000D01*
X181443748Y-91314143D01*
X181264143Y-91493748D01*
X181250000Y-91479605D01*
X179915635Y-92813970D01*
X180075418Y-93132739D01*
X180679662Y-93369605D01*
X178124257Y-95925010D01*
X175487156Y-95925010D01*
X179276767Y-92135400D01*
X179417261Y-92474582D01*
X179736030Y-92634365D01*
X181070395Y-91300000D01*
X179736030Y-89965635D01*
X179645000Y-90011264D01*
X179645000Y-89786030D01*
X179915635Y-89786030D01*
X181250000Y-91120395D01*
X182584365Y-89786030D01*
X182424582Y-89467261D01*
X181633813Y-89157277D01*
X180784613Y-89173503D01*
X180075418Y-89467261D01*
X179915635Y-89786030D01*
X179645000Y-89786030D01*
X179645000Y-89117166D01*
X180260941Y-88501226D01*
X180825322Y-88735000D01*
X181674678Y-88735000D01*
X182459380Y-88409966D01*
X183059966Y-87809380D01*
X183385000Y-87024678D01*
X183385000Y-86175322D01*
X183181902Y-85684999D01*
X184118098Y-85684999D01*
X183915000Y-86175322D01*
G04 #@! TD*
M02*
