<?xml version="1.0" standalone="no"?>
 <!DOCTYPE svg PUBLIC "-//W3C//DTD SVG 1.1//EN" 
 "http://www.w3.org/Graphics/SVG/1.1/DTD/svg11.dtd"> 
<svg xmlns="http://www.w3.org/2000/svg" version="1.1" 
    width="29.7002cm" height="21.0007cm" viewBox="0 0 116930 82680 ">
<title>SVG Picture created as magic-switchboard-B.SilkS.svg date 2019/01/26 22:33:22 </title>
  <desc>Picture generated by PCBNEW </desc>
<g style="fill:#000000; fill-opacity:1;stroke:#000000; stroke-opacity:1;
stroke-linecap:round; stroke-linejoin:round; "
 transform="translate(0 0) scale(1 1)">
</g>
<g style="fill:#000000; fill-opacity:0.0; 
stroke:#000000; stroke-width:-0.000393701; stroke-opacity:1; 
stroke-linecap:round; stroke-linejoin:round;">
</g>
<g style="fill:#000000; fill-opacity:0.0; 
stroke:#000000; stroke-width:118.11; stroke-opacity:1; 
stroke-linecap:round; stroke-linejoin:round;">
<path d="M42589 55385
L42589 54991
" />
<path d="M42589 55047
L42561 55019
L42505 54991
L42421 54991
L42365 55019
L42336 55075
L42336 55385
" />
<path d="M42336 55075
L42308 55019
L42252 54991
L42168 54991
L42111 55019
L42083 55075
L42083 55385
" />
<path d="M41549 55385
L41549 55075
L41577 55019
L41633 54991
L41746 54991
L41802 55019
" />
<path d="M41549 55357
L41605 55385
L41746 55385
L41802 55357
L41830 55300
L41830 55244
L41802 55188
L41746 55160
L41605 55160
L41549 55132
" />
<path d="M41015 54991
L41015 55469
L41043 55525
L41071 55553
L41127 55582
L41212 55582
L41268 55553
" />
<path d="M41015 55357
L41071 55385
L41183 55385
L41240 55357
L41268 55329
L41296 55272
L41296 55104
L41268 55047
L41240 55019
L41183 54991
L41071 54991
L41015 55019
" />
<path d="M40733 55385
L40733 54991
" />
<path d="M40733 54794
L40762 54822
L40733 54850
L40705 54822
L40733 54794
L40733 54850
" />
<path d="M40227 55357
L40284 55385
L40396 55385
L40452 55357
L40480 55300
L40480 55075
L40452 55019
L40396 54991
L40284 54991
L40227 55019
L40199 55075
L40199 55132
L40480 55188
" />
<path d="M39946 55385
L39946 54991
" />
<path d="M39946 55104
L39918 55047
L39890 55019
L39834 54991
L39777 54991
" />
<path d="M39327 55385
L39327 54794
" />
<path d="M39327 55357
L39384 55385
L39496 55385
L39552 55357
L39580 55329
L39609 55272
L39609 55104
L39580 55047
L39552 55019
L39496 54991
L39384 54991
L39327 55019
" />
<path d="M39046 55385
L39046 54991
" />
<path d="M39046 54794
L39074 54822
L39046 54850
L39018 54822
L39046 54794
L39046 54850
" />
<path d="M38765 54991
L38765 55385
" />
<path d="M38765 55047
L38737 55019
L38681 54991
L38596 54991
L38540 55019
L38512 55075
L38512 55385
" />
<path d="M37978 54991
L37978 55469
L38006 55525
L38034 55553
L38090 55582
L38174 55582
L38231 55553
" />
<path d="M37978 55357
L38034 55385
L38146 55385
L38203 55357
L38231 55329
L38259 55272
L38259 55104
L38231 55047
L38203 55019
L38146 54991
L38034 54991
L37978 55019
" />
<path d="M37471 55357
L37528 55385
L37640 55385
L37696 55357
L37724 55300
L37724 55075
L37696 55019
L37640 54991
L37528 54991
L37471 55019
L37443 55075
L37443 55132
L37724 55188
" />
<path d="M37190 55329
L37162 55357
L37190 55385
L37218 55357
L37190 55329
L37190 55385
" />
<path d="M36656 55385
L36656 54794
" />
<path d="M36656 55357
L36712 55385
L36825 55385
L36881 55357
L36909 55329
L36937 55272
L36937 55104
L36909 55047
L36881 55019
L36825 54991
L36712 54991
L36656 55019
" />
<path d="M36150 55357
L36206 55385
L36318 55385
L36375 55357
L36403 55300
L36403 55075
L36375 55019
L36318 54991
L36206 54991
L36150 55019
L36122 55075
L36122 55132
L36403 55188
" />
<path d="M73948 55385
L73948 54794
L73751 55216
L73554 54794
L73554 55385
" />
<path d="M73020 55385
L73020 55075
L73048 55019
L73104 54991
L73217 54991
L73273 55019
" />
<path d="M73020 55357
L73076 55385
L73217 55385
L73273 55357
L73301 55300
L73301 55244
L73273 55188
L73217 55160
L73076 55160
L73020 55132
" />
<path d="M72486 54991
L72486 55469
L72514 55525
L72542 55553
L72598 55582
L72683 55582
L72739 55553
" />
<path d="M72486 55357
L72542 55385
L72655 55385
L72711 55357
L72739 55329
L72767 55272
L72767 55104
L72739 55047
L72711 55019
L72655 54991
L72542 54991
L72486 55019
" />
<path d="M72205 55385
L72205 54991
" />
<path d="M72205 54794
L72233 54822
L72205 54850
L72176 54822
L72205 54794
L72205 54850
" />
<path d="M71670 55357
L71726 55385
L71839 55385
L71895 55357
L71923 55329
L71951 55272
L71951 55104
L71923 55047
L71895 55019
L71839 54991
L71726 54991
L71670 55019
" />
<path d="M70995 55357
L70911 55385
L70770 55385
L70714 55357
L70686 55329
L70658 55272
L70658 55216
L70686 55160
L70714 55132
L70770 55104
L70883 55075
L70939 55047
L70967 55019
L70995 54963
L70995 54907
L70967 54850
L70939 54822
L70883 54794
L70742 54794
L70658 54822
" />
<path d="M70461 54991
L70349 55385
L70236 55104
L70124 55385
L70011 54991
" />
<path d="M69786 55385
L69786 54991
" />
<path d="M69786 54794
L69814 54822
L69786 54850
L69758 54822
L69786 54794
L69786 54850
" />
<path d="M69589 54991
L69364 54991
" />
<path d="M69505 54794
L69505 55300
L69477 55357
L69421 55385
L69364 55385
" />
<path d="M68914 55357
L68971 55385
L69083 55385
L69139 55357
L69167 55329
L69196 55272
L69196 55104
L69167 55047
L69139 55019
L69083 54991
L68971 54991
L68914 55019
" />
<path d="M68661 55385
L68661 54794
" />
<path d="M68408 55385
L68408 55075
L68436 55019
L68493 54991
L68577 54991
L68633 55019
L68661 55047
" />
<path d="M68127 55385
L68127 54794
" />
<path d="M68127 55019
L68071 54991
L67958 54991
L67902 55019
L67874 55047
L67846 55104
L67846 55272
L67874 55329
L67902 55357
L67958 55385
L68071 55385
L68127 55357
" />
<path d="M67508 55385
L67565 55357
L67593 55329
L67621 55272
L67621 55104
L67593 55047
L67565 55019
L67508 54991
L67424 54991
L67368 55019
L67340 55047
L67311 55104
L67311 55272
L67340 55329
L67368 55357
L67424 55385
L67508 55385
" />
<path d="M66805 55385
L66805 55075
L66833 55019
L66890 54991
L67002 54991
L67058 55019
" />
<path d="M66805 55357
L66861 55385
L67002 55385
L67058 55357
L67086 55300
L67086 55244
L67058 55188
L67002 55160
L66861 55160
L66805 55132
" />
<path d="M66524 55385
L66524 54991
" />
<path d="M66524 55104
L66496 55047
L66468 55019
L66412 54991
L66355 54991
" />
<path d="M65905 55385
L65905 54794
" />
<path d="M65905 55357
L65962 55385
L66074 55385
L66130 55357
L66158 55329
L66187 55272
L66187 55104
L66158 55047
L66130 55019
L66074 54991
L65962 54991
L65905 55019
" />
<path d="M65230 54991
L65090 55385
L64949 54991
" />
<path d="M64780 54794
L64415 54794
L64612 55019
L64527 55019
L64471 55047
L64443 55075
L64415 55132
L64415 55272
L64443 55329
L64471 55357
L64527 55385
L64696 55385
L64752 55357
L64780 55329
" />
</g>
<g style="fill:#000000; fill-opacity:0.0; 
stroke:#000000; stroke-width:47.2441; stroke-opacity:1; 
stroke-linecap:round; stroke-linejoin:round;">
<path d="M64862 42145
L67165 38641
" />
<path d="M64547 42145
L64862 42145
" />
<path d="M64547 42145
L64547 45255
" />
<path d="M64547 45255
L64862 45255
" />
<path d="M64862 45255
L67165 48759
" />
<path d="M67165 38641
L68937 38641
" />
<path d="M67165 48759
L68937 48759
" />
<path d="M70433 38641
L72559 38641
" />
<path d="M70433 48759
L72559 48759
" />
<path d="M72539.4 48759.8 A1062.99 1062.99 0.0 0 0 73602.4 47696.9 " />
<path d="M73602.4 39704.7 A1062.99 1062.99 0.0 0 0 72539.4 38641.7 " />
<path d="M73492.8 39969.2 A374.016 374.016 0.0 0 0 73602.4 39704.7 " />
<path d="M73602.4 47696.9 A374.016 374.016 0.0 0 0 73492.8 47432.4 " />
<path d="M73515.7 39940.9 A5815.79 5815.79 0.0 0 0 73479.6 47417.5 " />
</g>
<g style="fill:#000000; fill-opacity:0.0; 
stroke:#000000; stroke-width:59.0551; stroke-opacity:1; 
stroke-linecap:round; stroke-linejoin:round;">
<path d="M63987 43391
L64006 43447
L64025 43466
L64062 43485
L64118 43485
L64156 43466
L64175 43447
L64193 43410
L64193 43260
L63800 43260
L63800 43391
L63818 43428
L63837 43447
L63875 43466
L63912 43466
L63950 43447
L63968 43428
L63987 43391
L63987 43260
" />
<path d="M63800 43597
L63800 43822
" />
<path d="M64193 43710
L63800 43710
" />
<path d="M64193 44160
L64193 43935
" />
<path d="M64193 44047
L63800 44047
L63856 44010
L63893 43972
L63912 43935
" />
</g> 
</svg>
