G04 #@! TF.GenerationSoftware,KiCad,Pcbnew,5.0.2-bee76a0~70~ubuntu18.04.1*
G04 #@! TF.CreationDate,2019-01-27T18:53:22+01:00*
G04 #@! TF.ProjectId,magic-switchboard,6d616769-632d-4737-9769-746368626f61,v3*
G04 #@! TF.SameCoordinates,Original*
G04 #@! TF.FileFunction,Copper,L1,Top*
G04 #@! TF.FilePolarity,Positive*
%FSLAX46Y46*%
G04 Gerber Fmt 4.6, Leading zero omitted, Abs format (unit mm)*
G04 Created by KiCad (PCBNEW 5.0.2-bee76a0~70~ubuntu18.04.1) date So 27 Jan 2019 18:53:22 CET*
%MOMM*%
%LPD*%
G01*
G04 APERTURE LIST*
G04 #@! TA.AperFunction,ComponentPad*
%ADD10C,7.500000*%
G04 #@! TD*
G04 #@! TA.AperFunction,SMDPad,CuDef*
%ADD11R,8.000000X8.000000*%
G04 #@! TD*
G04 #@! TA.AperFunction,ComponentPad*
%ADD12C,3.000000*%
G04 #@! TD*
G04 #@! TA.AperFunction,ComponentPad*
%ADD13C,1.600000*%
G04 #@! TD*
G04 #@! TA.AperFunction,ComponentPad*
%ADD14R,1.600000X1.600000*%
G04 #@! TD*
G04 #@! TA.AperFunction,ComponentPad*
%ADD15C,2.000000*%
G04 #@! TD*
G04 #@! TA.AperFunction,ComponentPad*
%ADD16C,1.524000*%
G04 #@! TD*
G04 #@! TA.AperFunction,ComponentPad*
%ADD17R,1.524000X1.524000*%
G04 #@! TD*
G04 #@! TA.AperFunction,ComponentPad*
%ADD18O,1.050000X1.500000*%
G04 #@! TD*
G04 #@! TA.AperFunction,ComponentPad*
%ADD19R,1.050000X1.500000*%
G04 #@! TD*
G04 #@! TA.AperFunction,ComponentPad*
%ADD20R,2.400000X1.600000*%
G04 #@! TD*
G04 #@! TA.AperFunction,ComponentPad*
%ADD21O,2.400000X1.600000*%
G04 #@! TD*
G04 #@! TA.AperFunction,Conductor*
%ADD22C,0.100000*%
G04 #@! TD*
G04 APERTURE END LIST*
D10*
G04 #@! TO.P,REF\002A\002A,1*
G04 #@! TO.N,N/C*
X110000000Y-134000000D03*
G04 #@! TD*
D11*
G04 #@! TO.P,BT1,2*
G04 #@! TO.N,GND*
X176000000Y-111000000D03*
D12*
G04 #@! TO.P,BT1,1*
G04 #@! TO.N,VCC*
X176000000Y-98300000D03*
X176000000Y-123700000D03*
G04 #@! TD*
G04 #@! TO.P,D1,1*
G04 #@! TO.N,Net-(D1-Pad1)*
X188500000Y-134000000D03*
G04 #@! TO.P,D1,2*
G04 #@! TO.N,+5V*
X178500000Y-134000000D03*
G04 #@! TD*
G04 #@! TO.P,D2,1*
G04 #@! TO.N,Net-(D2-Pad1)*
X159500000Y-134000000D03*
G04 #@! TO.P,D2,2*
G04 #@! TO.N,+5V*
X149500000Y-134000000D03*
G04 #@! TD*
G04 #@! TO.P,D3,1*
G04 #@! TO.N,Net-(D3-Pad1)*
X130500000Y-134000000D03*
G04 #@! TO.P,D3,2*
G04 #@! TO.N,+5V*
X120500000Y-134000000D03*
G04 #@! TD*
G04 #@! TO.P,D4,1*
G04 #@! TO.N,Net-(D4-Pad1)*
X101500000Y-134000000D03*
G04 #@! TO.P,D4,2*
G04 #@! TO.N,+5V*
X91500000Y-134000000D03*
G04 #@! TD*
D13*
G04 #@! TO.P,C1,2*
G04 #@! TO.N,GND*
X109500000Y-90000000D03*
D14*
G04 #@! TO.P,C1,1*
G04 #@! TO.N,VCC*
X107000000Y-90000000D03*
G04 #@! TD*
D13*
G04 #@! TO.P,C2,2*
G04 #@! TO.N,GND*
X145750000Y-109500000D03*
D14*
G04 #@! TO.P,C2,1*
G04 #@! TO.N,+5V*
X143250000Y-109500000D03*
G04 #@! TD*
D15*
G04 #@! TO.P,R1,1*
G04 #@! TO.N,Net-(Q1-Pad2)*
X127250000Y-118000000D03*
G04 #@! TO.P,R1,2*
G04 #@! TO.N,Net-(R1-Pad2)*
X118250000Y-118000000D03*
G04 #@! TD*
G04 #@! TO.P,R2,1*
G04 #@! TO.N,Net-(Q2-Pad2)*
X127400000Y-112000000D03*
G04 #@! TO.P,R2,2*
G04 #@! TO.N,Net-(J1-Pad4)*
X118400000Y-112000000D03*
G04 #@! TD*
D16*
G04 #@! TO.P,U2,1*
G04 #@! TO.N,VCC*
X135000000Y-101000000D03*
G04 #@! TO.P,U2,2*
G04 #@! TO.N,GND*
X137540000Y-101000000D03*
G04 #@! TO.P,U2,3*
G04 #@! TO.N,+5V*
X140080000Y-101000000D03*
G04 #@! TD*
D17*
G04 #@! TO.P,J1,1*
G04 #@! TO.N,Net-(J1-Pad1)*
X94360000Y-105560000D03*
D16*
G04 #@! TO.P,J1,2*
G04 #@! TO.N,VCC*
X96900000Y-105560000D03*
G04 #@! TO.P,J1,3*
G04 #@! TO.N,Net-(J1-Pad3)*
X94360000Y-108100000D03*
G04 #@! TO.P,J1,4*
G04 #@! TO.N,Net-(J1-Pad4)*
X96900000Y-108100000D03*
G04 #@! TO.P,J1,5*
G04 #@! TO.N,Net-(J1-Pad5)*
X94360000Y-110640000D03*
G04 #@! TO.P,J1,6*
G04 #@! TO.N,GND*
X96900000Y-110640000D03*
G04 #@! TD*
D15*
G04 #@! TO.P,R3,1*
G04 #@! TO.N,Net-(Q3-Pad2)*
X127500000Y-106000000D03*
G04 #@! TO.P,R3,2*
G04 #@! TO.N,Net-(J1-Pad1)*
X118500000Y-106000000D03*
G04 #@! TD*
G04 #@! TO.P,R4,2*
G04 #@! TO.N,Net-(J1-Pad3)*
X118550000Y-100000000D03*
G04 #@! TO.P,R4,1*
G04 #@! TO.N,Net-(Q4-Pad2)*
X127550000Y-100000000D03*
G04 #@! TD*
D12*
G04 #@! TO.P,SW1,3*
G04 #@! TO.N,GND*
X93950000Y-91700000D03*
G04 #@! TO.P,SW1,2*
G04 #@! TO.N,Net-(SW1-Pad2)*
X93950000Y-87000000D03*
G04 #@! TO.P,SW1,1*
G04 #@! TO.N,VCC*
X93950000Y-82300000D03*
G04 #@! TD*
G04 #@! TO.P,SW2,1*
G04 #@! TO.N,VCC*
X124650000Y-82300000D03*
G04 #@! TO.P,SW2,2*
G04 #@! TO.N,Net-(SW2-Pad2)*
X124650000Y-87000000D03*
G04 #@! TO.P,SW2,3*
G04 #@! TO.N,GND*
X124650000Y-91700000D03*
G04 #@! TD*
G04 #@! TO.P,SW3,1*
G04 #@! TO.N,VCC*
X155350000Y-82300000D03*
G04 #@! TO.P,SW3,2*
G04 #@! TO.N,Net-(SW3-Pad2)*
X155350000Y-87000000D03*
G04 #@! TO.P,SW3,3*
G04 #@! TO.N,GND*
X155350000Y-91700000D03*
G04 #@! TD*
G04 #@! TO.P,SW4,3*
G04 #@! TO.N,GND*
X186050000Y-91700000D03*
G04 #@! TO.P,SW4,2*
G04 #@! TO.N,Net-(SW4-Pad2)*
X186050000Y-87000000D03*
G04 #@! TO.P,SW4,1*
G04 #@! TO.N,VCC*
X186050000Y-82300000D03*
G04 #@! TD*
D18*
G04 #@! TO.P,Q1,2*
G04 #@! TO.N,Net-(Q1-Pad2)*
X152270000Y-120000000D03*
G04 #@! TO.P,Q1,3*
G04 #@! TO.N,GND*
X153540000Y-120000000D03*
D19*
G04 #@! TO.P,Q1,1*
G04 #@! TO.N,Net-(D1-Pad1)*
X151000000Y-120000000D03*
G04 #@! TD*
G04 #@! TO.P,Q2,1*
G04 #@! TO.N,Net-(D2-Pad1)*
X145000000Y-120000000D03*
D18*
G04 #@! TO.P,Q2,3*
G04 #@! TO.N,GND*
X147540000Y-120000000D03*
G04 #@! TO.P,Q2,2*
G04 #@! TO.N,Net-(Q2-Pad2)*
X146270000Y-120000000D03*
G04 #@! TD*
G04 #@! TO.P,Q3,2*
G04 #@! TO.N,Net-(Q3-Pad2)*
X140270000Y-120000000D03*
G04 #@! TO.P,Q3,3*
G04 #@! TO.N,GND*
X141540000Y-120000000D03*
D19*
G04 #@! TO.P,Q3,1*
G04 #@! TO.N,Net-(D3-Pad1)*
X139000000Y-120000000D03*
G04 #@! TD*
G04 #@! TO.P,Q4,1*
G04 #@! TO.N,Net-(D4-Pad1)*
X133000000Y-120000000D03*
D18*
G04 #@! TO.P,Q4,3*
G04 #@! TO.N,GND*
X135540000Y-120000000D03*
G04 #@! TO.P,Q4,2*
G04 #@! TO.N,Net-(Q4-Pad2)*
X134270000Y-120000000D03*
G04 #@! TD*
D20*
G04 #@! TO.P,U1,1*
G04 #@! TO.N,Net-(J1-Pad5)*
X104650000Y-100350000D03*
D21*
G04 #@! TO.P,U1,11*
G04 #@! TO.N,N/C*
X112270000Y-123210000D03*
G04 #@! TO.P,U1,2*
X104650000Y-102890000D03*
G04 #@! TO.P,U1,12*
G04 #@! TO.N,Net-(SW1-Pad2)*
X112270000Y-120670000D03*
G04 #@! TO.P,U1,3*
G04 #@! TO.N,N/C*
X104650000Y-105430000D03*
G04 #@! TO.P,U1,13*
G04 #@! TO.N,Net-(SW2-Pad2)*
X112270000Y-118130000D03*
G04 #@! TO.P,U1,4*
G04 #@! TO.N,N/C*
X104650000Y-107970000D03*
G04 #@! TO.P,U1,14*
G04 #@! TO.N,Net-(SW3-Pad2)*
X112270000Y-115590000D03*
G04 #@! TO.P,U1,5*
G04 #@! TO.N,N/C*
X104650000Y-110510000D03*
G04 #@! TO.P,U1,15*
G04 #@! TO.N,Net-(SW4-Pad2)*
X112270000Y-113050000D03*
G04 #@! TO.P,U1,6*
G04 #@! TO.N,N/C*
X104650000Y-113050000D03*
G04 #@! TO.P,U1,16*
G04 #@! TO.N,Net-(R1-Pad2)*
X112270000Y-110510000D03*
G04 #@! TO.P,U1,7*
G04 #@! TO.N,N/C*
X104650000Y-115590000D03*
G04 #@! TO.P,U1,17*
G04 #@! TO.N,Net-(J1-Pad4)*
X112270000Y-107970000D03*
G04 #@! TO.P,U1,8*
G04 #@! TO.N,N/C*
X104650000Y-118130000D03*
G04 #@! TO.P,U1,18*
G04 #@! TO.N,Net-(J1-Pad1)*
X112270000Y-105430000D03*
G04 #@! TO.P,U1,9*
G04 #@! TO.N,N/C*
X104650000Y-120670000D03*
G04 #@! TO.P,U1,19*
G04 #@! TO.N,Net-(J1-Pad3)*
X112270000Y-102890000D03*
G04 #@! TO.P,U1,10*
G04 #@! TO.N,GND*
X104650000Y-123210000D03*
G04 #@! TO.P,U1,20*
G04 #@! TO.N,VCC*
X112270000Y-100350000D03*
G04 #@! TD*
D10*
G04 #@! TO.P,REF\002A\002A,1*
G04 #@! TO.N,N/C*
X170000000Y-134000000D03*
G04 #@! TD*
D22*
G04 #@! TO.N,GND*
X104250000Y-123210000D02*
X104650000Y-123210000D01*
X96900000Y-115860000D02*
X104250000Y-123210000D01*
X96900000Y-110640000D02*
X96900000Y-115860000D01*
G04 #@! TO.N,VCC*
X108429990Y-103790010D02*
X111870000Y-100350000D01*
X98669990Y-103790010D02*
X108429990Y-103790010D01*
X96900000Y-105560000D02*
X98669990Y-103790010D01*
X93950000Y-82300000D02*
X124650000Y-82300000D01*
X126771320Y-82300000D02*
X155350000Y-82300000D01*
X124650000Y-82300000D02*
X126771320Y-82300000D01*
X155350000Y-82300000D02*
X186050000Y-82300000D01*
X187650001Y-83900001D02*
X187549999Y-83799999D01*
X187650001Y-92468001D02*
X187650001Y-83900001D01*
X187549999Y-83799999D02*
X186050000Y-82300000D01*
X181818002Y-98300000D02*
X187650001Y-92468001D01*
X176000000Y-98300000D02*
X181818002Y-98300000D01*
X176000000Y-98300000D02*
X152300000Y-98300000D01*
X107000000Y-90900000D02*
X107000000Y-90000000D01*
X107000000Y-95480000D02*
X107000000Y-90900000D01*
X111870000Y-100350000D02*
X107000000Y-95480000D01*
X112270000Y-100350000D02*
X111870000Y-100350000D01*
X101650000Y-90000000D02*
X93950000Y-82300000D01*
X107000000Y-90000000D02*
X101650000Y-90000000D01*
X151600000Y-99000000D02*
X152300000Y-98300000D01*
X137000000Y-99000000D02*
X151600000Y-99000000D01*
X135000000Y-101000000D02*
X137000000Y-99000000D01*
G04 #@! TO.N,Net-(D1-Pad1)*
X187000001Y-132500001D02*
X188500000Y-134000000D01*
X160924999Y-130149999D02*
X184649999Y-130149999D01*
X151000000Y-120225000D02*
X160924999Y-130149999D01*
X184649999Y-130149999D02*
X187000001Y-132500001D01*
X151000000Y-120000000D02*
X151000000Y-120225000D01*
G04 #@! TO.N,Net-(D2-Pad1)*
X157378680Y-134000000D02*
X159500000Y-134000000D01*
X145000000Y-121621320D02*
X157378680Y-134000000D01*
X145000000Y-120000000D02*
X145000000Y-121621320D01*
G04 #@! TO.N,Net-(D3-Pad1)*
X139000000Y-125500000D02*
X130500000Y-134000000D01*
X139000000Y-120000000D02*
X139000000Y-125500000D01*
G04 #@! TO.N,Net-(D4-Pad1)*
X102999999Y-135499999D02*
X101500000Y-134000000D01*
X105350001Y-137850001D02*
X102999999Y-135499999D01*
X111848001Y-137850001D02*
X105350001Y-137850001D01*
X129698002Y-120000000D02*
X111848001Y-137850001D01*
X133000000Y-120000000D02*
X129698002Y-120000000D01*
G04 #@! TO.N,Net-(Q1-Pad2)*
X152270000Y-119775000D02*
X152270000Y-120000000D01*
X144849999Y-112354999D02*
X152270000Y-119775000D01*
X144849999Y-109319997D02*
X144849999Y-112354999D01*
X140430001Y-104899999D02*
X144849999Y-109319997D01*
X126971999Y-104899999D02*
X140430001Y-104899999D01*
X125349991Y-106522007D02*
X126971999Y-104899999D01*
X125349991Y-116099991D02*
X125349991Y-106522007D01*
X127250000Y-118000000D02*
X125349991Y-116099991D01*
G04 #@! TO.N,+5V*
X149500000Y-134000000D02*
X143250000Y-127750000D01*
X143250000Y-127750000D02*
X143250000Y-115500000D01*
X147500000Y-136000000D02*
X148000001Y-135499999D01*
X122500000Y-136000000D02*
X147500000Y-136000000D01*
X148000001Y-135499999D02*
X149500000Y-134000000D01*
X120500000Y-134000000D02*
X122500000Y-136000000D01*
X150999999Y-135499999D02*
X149500000Y-134000000D01*
X153350001Y-137850001D02*
X150999999Y-135499999D01*
X171848001Y-137850001D02*
X153350001Y-137850001D01*
X175698002Y-134000000D02*
X171848001Y-137850001D01*
X178500000Y-134000000D02*
X175698002Y-134000000D01*
X119000001Y-135499999D02*
X120500000Y-134000000D01*
X116499990Y-138000010D02*
X119000001Y-135499999D01*
X95500010Y-138000010D02*
X116499990Y-138000010D01*
X91500000Y-134000000D02*
X95500010Y-138000010D01*
X143250000Y-115500000D02*
X143250000Y-109500000D01*
G04 #@! TO.N,Net-(J1-Pad1)*
X117930000Y-105430000D02*
X118500000Y-106000000D01*
X112270000Y-105430000D02*
X117930000Y-105430000D01*
G04 #@! TO.N,Net-(J1-Pad3)*
X111870000Y-102890000D02*
X112270000Y-102890000D01*
X107760000Y-107000000D02*
X111870000Y-102890000D01*
X95460000Y-107000000D02*
X107760000Y-107000000D01*
X94360000Y-108100000D02*
X95460000Y-107000000D01*
X115660000Y-102890000D02*
X118550000Y-100000000D01*
X112270000Y-102890000D02*
X115660000Y-102890000D01*
G04 #@! TO.N,Net-(J1-Pad4)*
X110069990Y-108870010D02*
X110970000Y-107970000D01*
X98747640Y-108870010D02*
X110069990Y-108870010D01*
X97977630Y-108100000D02*
X98747640Y-108870010D01*
X110970000Y-107970000D02*
X112270000Y-107970000D01*
X96900000Y-108100000D02*
X97977630Y-108100000D01*
X114370000Y-107970000D02*
X118400000Y-112000000D01*
X112270000Y-107970000D02*
X114370000Y-107970000D01*
G04 #@! TO.N,Net-(J1-Pad5)*
X96037999Y-105146239D02*
X100834238Y-100350000D01*
X96037999Y-105973761D02*
X96037999Y-105146239D01*
X95161770Y-106849990D02*
X96037999Y-105973761D01*
X94334248Y-106849990D02*
X95161770Y-106849990D01*
X93497999Y-107686239D02*
X94334248Y-106849990D01*
X103350000Y-100350000D02*
X104650000Y-100350000D01*
X100834238Y-100350000D02*
X103350000Y-100350000D01*
X93497999Y-109777999D02*
X93497999Y-107686239D01*
X94360000Y-110640000D02*
X93497999Y-109777999D01*
G04 #@! TO.N,Net-(Q3-Pad2)*
X125500000Y-108000000D02*
X125500000Y-114000000D01*
X127500000Y-106000000D02*
X125500000Y-108000000D01*
X140270000Y-119775000D02*
X140270000Y-120000000D01*
X134495000Y-114000000D02*
X140270000Y-119775000D01*
X125500000Y-114000000D02*
X134495000Y-114000000D01*
G04 #@! TO.N,Net-(Q4-Pad2)*
X126135787Y-100000000D02*
X121500000Y-104635787D01*
X127550000Y-100000000D02*
X126135787Y-100000000D01*
X134270000Y-119775000D02*
X134270000Y-120000000D01*
X126721999Y-119100001D02*
X133595001Y-119100001D01*
X133595001Y-119100001D02*
X134270000Y-119775000D01*
X121500000Y-113878002D02*
X126721999Y-119100001D01*
X121500000Y-104635787D02*
X121500000Y-113878002D01*
G04 #@! TO.N,Net-(R1-Pad2)*
X118250000Y-116090000D02*
X118250000Y-116585787D01*
X118250000Y-116585787D02*
X118250000Y-118000000D01*
X112670000Y-110510000D02*
X118250000Y-116090000D01*
X112270000Y-110510000D02*
X112670000Y-110510000D01*
G04 #@! TO.N,Net-(SW1-Pad2)*
X111870000Y-120670000D02*
X112270000Y-120670000D01*
X103877204Y-124110010D02*
X108429990Y-124110010D01*
X108429990Y-124110010D02*
X111870000Y-120670000D01*
X93347989Y-113580795D02*
X103877204Y-124110010D01*
X93347989Y-104868009D02*
X93347989Y-113580795D01*
X95550001Y-102665997D02*
X93347989Y-104868009D01*
X95550001Y-88600001D02*
X95550001Y-102665997D01*
X93950000Y-87000000D02*
X95550001Y-88600001D01*
G04 #@! TO.N,Net-(SW2-Pad2)*
X119524273Y-119400019D02*
X120000000Y-118924292D01*
X114840019Y-119400019D02*
X119524273Y-119400019D01*
X112270000Y-118130000D02*
X113570000Y-118130000D01*
X113570000Y-118130000D02*
X114840019Y-119400019D01*
X122528680Y-87000000D02*
X120000000Y-89528680D01*
X124650000Y-87000000D02*
X122528680Y-87000000D01*
X120000000Y-89528680D02*
X120000000Y-118924292D01*
G04 #@! TO.N,Net-(SW3-Pad2)*
X121500000Y-84250000D02*
X152600000Y-84250000D01*
X112670000Y-115590000D02*
X116330011Y-119250011D01*
X112270000Y-115590000D02*
X112670000Y-115590000D01*
X116330011Y-119250011D02*
X119462136Y-119250010D01*
X119800011Y-85949989D02*
X121500000Y-84250000D01*
X119800011Y-118912135D02*
X119800011Y-85949989D01*
X152600000Y-84250000D02*
X155350000Y-87000000D01*
X119462136Y-119250010D02*
X119800011Y-118912135D01*
G04 #@! TO.N,Net-(SW4-Pad2)*
X117721999Y-119100001D02*
X119399999Y-119100001D01*
X113570010Y-114948012D02*
X117721999Y-119100001D01*
X113570010Y-113950010D02*
X113570010Y-114948012D01*
X112270000Y-113050000D02*
X112670000Y-113050000D01*
X112670000Y-113050000D02*
X113570010Y-113950010D01*
X119650001Y-118849999D02*
X119650001Y-85849999D01*
X119399999Y-119100001D02*
X119650001Y-118849999D01*
X119650001Y-85849999D02*
X121500000Y-84000000D01*
X183050000Y-84000000D02*
X186050000Y-87000000D01*
X121500000Y-84000000D02*
X183050000Y-84000000D01*
G04 #@! TD*
M02*
