G04 #@! TF.GenerationSoftware,KiCad,Pcbnew,5.0.2-bee76a0~70~ubuntu18.04.1*
G04 #@! TF.CreationDate,2019-01-02T21:03:54+01:00*
G04 #@! TF.ProjectId,magic-switchboard,6d616769-632d-4737-9769-746368626f61,v2*
G04 #@! TF.SameCoordinates,Original*
G04 #@! TF.FileFunction,Legend,Bot*
G04 #@! TF.FilePolarity,Positive*
%FSLAX46Y46*%
G04 Gerber Fmt 4.6, Leading zero omitted, Abs format (unit mm)*
G04 Created by KiCad (PCBNEW 5.0.2-bee76a0~70~ubuntu18.04.1) date Mi 02 Jan 2019 21:03:54 CET*
%MOMM*%
%LPD*%
G01*
G04 APERTURE LIST*
%ADD10C,0.300000*%
%ADD11C,0.120000*%
%ADD12C,0.150000*%
G04 APERTURE END LIST*
D10*
X108084571Y-138082571D02*
X108084571Y-137082571D01*
X108084571Y-137225428D02*
X108013142Y-137154000D01*
X107870285Y-137082571D01*
X107656000Y-137082571D01*
X107513142Y-137154000D01*
X107441714Y-137296857D01*
X107441714Y-138082571D01*
X107441714Y-137296857D02*
X107370285Y-137154000D01*
X107227428Y-137082571D01*
X107013142Y-137082571D01*
X106870285Y-137154000D01*
X106798857Y-137296857D01*
X106798857Y-138082571D01*
X105441714Y-138082571D02*
X105441714Y-137296857D01*
X105513142Y-137154000D01*
X105656000Y-137082571D01*
X105941714Y-137082571D01*
X106084571Y-137154000D01*
X105441714Y-138011142D02*
X105584571Y-138082571D01*
X105941714Y-138082571D01*
X106084571Y-138011142D01*
X106156000Y-137868285D01*
X106156000Y-137725428D01*
X106084571Y-137582571D01*
X105941714Y-137511142D01*
X105584571Y-137511142D01*
X105441714Y-137439714D01*
X104084571Y-137082571D02*
X104084571Y-138296857D01*
X104156000Y-138439714D01*
X104227428Y-138511142D01*
X104370285Y-138582571D01*
X104584571Y-138582571D01*
X104727428Y-138511142D01*
X104084571Y-138011142D02*
X104227428Y-138082571D01*
X104513142Y-138082571D01*
X104656000Y-138011142D01*
X104727428Y-137939714D01*
X104798857Y-137796857D01*
X104798857Y-137368285D01*
X104727428Y-137225428D01*
X104656000Y-137154000D01*
X104513142Y-137082571D01*
X104227428Y-137082571D01*
X104084571Y-137154000D01*
X103370285Y-138082571D02*
X103370285Y-137082571D01*
X103370285Y-136582571D02*
X103441714Y-136654000D01*
X103370285Y-136725428D01*
X103298857Y-136654000D01*
X103370285Y-136582571D01*
X103370285Y-136725428D01*
X102084571Y-138011142D02*
X102227428Y-138082571D01*
X102513142Y-138082571D01*
X102656000Y-138011142D01*
X102727428Y-137868285D01*
X102727428Y-137296857D01*
X102656000Y-137154000D01*
X102513142Y-137082571D01*
X102227428Y-137082571D01*
X102084571Y-137154000D01*
X102013142Y-137296857D01*
X102013142Y-137439714D01*
X102727428Y-137582571D01*
X101370285Y-138082571D02*
X101370285Y-137082571D01*
X101370285Y-137368285D02*
X101298857Y-137225428D01*
X101227428Y-137154000D01*
X101084571Y-137082571D01*
X100941714Y-137082571D01*
X99798857Y-138082571D02*
X99798857Y-136582571D01*
X99798857Y-138011142D02*
X99941714Y-138082571D01*
X100227428Y-138082571D01*
X100370285Y-138011142D01*
X100441714Y-137939714D01*
X100513142Y-137796857D01*
X100513142Y-137368285D01*
X100441714Y-137225428D01*
X100370285Y-137154000D01*
X100227428Y-137082571D01*
X99941714Y-137082571D01*
X99798857Y-137154000D01*
X99084571Y-138082571D02*
X99084571Y-137082571D01*
X99084571Y-136582571D02*
X99156000Y-136654000D01*
X99084571Y-136725428D01*
X99013142Y-136654000D01*
X99084571Y-136582571D01*
X99084571Y-136725428D01*
X98370285Y-137082571D02*
X98370285Y-138082571D01*
X98370285Y-137225428D02*
X98298857Y-137154000D01*
X98156000Y-137082571D01*
X97941714Y-137082571D01*
X97798857Y-137154000D01*
X97727428Y-137296857D01*
X97727428Y-138082571D01*
X96370285Y-137082571D02*
X96370285Y-138296857D01*
X96441714Y-138439714D01*
X96513142Y-138511142D01*
X96656000Y-138582571D01*
X96870285Y-138582571D01*
X97013142Y-138511142D01*
X96370285Y-138011142D02*
X96513142Y-138082571D01*
X96798857Y-138082571D01*
X96941714Y-138011142D01*
X97013142Y-137939714D01*
X97084571Y-137796857D01*
X97084571Y-137368285D01*
X97013142Y-137225428D01*
X96941714Y-137154000D01*
X96798857Y-137082571D01*
X96513142Y-137082571D01*
X96370285Y-137154000D01*
X95084571Y-138011142D02*
X95227428Y-138082571D01*
X95513142Y-138082571D01*
X95656000Y-138011142D01*
X95727428Y-137868285D01*
X95727428Y-137296857D01*
X95656000Y-137154000D01*
X95513142Y-137082571D01*
X95227428Y-137082571D01*
X95084571Y-137154000D01*
X95013142Y-137296857D01*
X95013142Y-137439714D01*
X95727428Y-137582571D01*
X94370285Y-137939714D02*
X94298857Y-138011142D01*
X94370285Y-138082571D01*
X94441714Y-138011142D01*
X94370285Y-137939714D01*
X94370285Y-138082571D01*
X93013142Y-138082571D02*
X93013142Y-136582571D01*
X93013142Y-138011142D02*
X93156000Y-138082571D01*
X93441714Y-138082571D01*
X93584571Y-138011142D01*
X93656000Y-137939714D01*
X93727428Y-137796857D01*
X93727428Y-137368285D01*
X93656000Y-137225428D01*
X93584571Y-137154000D01*
X93441714Y-137082571D01*
X93156000Y-137082571D01*
X93013142Y-137154000D01*
X91727428Y-138011142D02*
X91870285Y-138082571D01*
X92156000Y-138082571D01*
X92298857Y-138011142D01*
X92370285Y-137868285D01*
X92370285Y-137296857D01*
X92298857Y-137154000D01*
X92156000Y-137082571D01*
X91870285Y-137082571D01*
X91727428Y-137154000D01*
X91656000Y-137296857D01*
X91656000Y-137439714D01*
X92370285Y-137582571D01*
X197829428Y-137828571D02*
X197829428Y-136328571D01*
X197329428Y-137400000D01*
X196829428Y-136328571D01*
X196829428Y-137828571D01*
X195472285Y-137828571D02*
X195472285Y-137042857D01*
X195543714Y-136900000D01*
X195686571Y-136828571D01*
X195972285Y-136828571D01*
X196115142Y-136900000D01*
X195472285Y-137757142D02*
X195615142Y-137828571D01*
X195972285Y-137828571D01*
X196115142Y-137757142D01*
X196186571Y-137614285D01*
X196186571Y-137471428D01*
X196115142Y-137328571D01*
X195972285Y-137257142D01*
X195615142Y-137257142D01*
X195472285Y-137185714D01*
X194115142Y-136828571D02*
X194115142Y-138042857D01*
X194186571Y-138185714D01*
X194258000Y-138257142D01*
X194400857Y-138328571D01*
X194615142Y-138328571D01*
X194758000Y-138257142D01*
X194115142Y-137757142D02*
X194258000Y-137828571D01*
X194543714Y-137828571D01*
X194686571Y-137757142D01*
X194758000Y-137685714D01*
X194829428Y-137542857D01*
X194829428Y-137114285D01*
X194758000Y-136971428D01*
X194686571Y-136900000D01*
X194543714Y-136828571D01*
X194258000Y-136828571D01*
X194115142Y-136900000D01*
X193400857Y-137828571D02*
X193400857Y-136828571D01*
X193400857Y-136328571D02*
X193472285Y-136400000D01*
X193400857Y-136471428D01*
X193329428Y-136400000D01*
X193400857Y-136328571D01*
X193400857Y-136471428D01*
X192043714Y-137757142D02*
X192186571Y-137828571D01*
X192472285Y-137828571D01*
X192615142Y-137757142D01*
X192686571Y-137685714D01*
X192758000Y-137542857D01*
X192758000Y-137114285D01*
X192686571Y-136971428D01*
X192615142Y-136900000D01*
X192472285Y-136828571D01*
X192186571Y-136828571D01*
X192043714Y-136900000D01*
X190329428Y-137757142D02*
X190115142Y-137828571D01*
X189758000Y-137828571D01*
X189615142Y-137757142D01*
X189543714Y-137685714D01*
X189472285Y-137542857D01*
X189472285Y-137400000D01*
X189543714Y-137257142D01*
X189615142Y-137185714D01*
X189758000Y-137114285D01*
X190043714Y-137042857D01*
X190186571Y-136971428D01*
X190258000Y-136900000D01*
X190329428Y-136757142D01*
X190329428Y-136614285D01*
X190258000Y-136471428D01*
X190186571Y-136400000D01*
X190043714Y-136328571D01*
X189686571Y-136328571D01*
X189472285Y-136400000D01*
X188972285Y-136828571D02*
X188686571Y-137828571D01*
X188400857Y-137114285D01*
X188115142Y-137828571D01*
X187829428Y-136828571D01*
X187258000Y-137828571D02*
X187258000Y-136828571D01*
X187258000Y-136328571D02*
X187329428Y-136400000D01*
X187258000Y-136471428D01*
X187186571Y-136400000D01*
X187258000Y-136328571D01*
X187258000Y-136471428D01*
X186758000Y-136828571D02*
X186186571Y-136828571D01*
X186543714Y-136328571D02*
X186543714Y-137614285D01*
X186472285Y-137757142D01*
X186329428Y-137828571D01*
X186186571Y-137828571D01*
X185043714Y-137757142D02*
X185186571Y-137828571D01*
X185472285Y-137828571D01*
X185615142Y-137757142D01*
X185686571Y-137685714D01*
X185758000Y-137542857D01*
X185758000Y-137114285D01*
X185686571Y-136971428D01*
X185615142Y-136900000D01*
X185472285Y-136828571D01*
X185186571Y-136828571D01*
X185043714Y-136900000D01*
X184400857Y-137828571D02*
X184400857Y-136328571D01*
X183758000Y-137828571D02*
X183758000Y-137042857D01*
X183829428Y-136900000D01*
X183972285Y-136828571D01*
X184186571Y-136828571D01*
X184329428Y-136900000D01*
X184400857Y-136971428D01*
X183043714Y-137828571D02*
X183043714Y-136328571D01*
X183043714Y-136900000D02*
X182900857Y-136828571D01*
X182615142Y-136828571D01*
X182472285Y-136900000D01*
X182400857Y-136971428D01*
X182329428Y-137114285D01*
X182329428Y-137542857D01*
X182400857Y-137685714D01*
X182472285Y-137757142D01*
X182615142Y-137828571D01*
X182900857Y-137828571D01*
X183043714Y-137757142D01*
X181472285Y-137828571D02*
X181615142Y-137757142D01*
X181686571Y-137685714D01*
X181758000Y-137542857D01*
X181758000Y-137114285D01*
X181686571Y-136971428D01*
X181615142Y-136900000D01*
X181472285Y-136828571D01*
X181258000Y-136828571D01*
X181115142Y-136900000D01*
X181043714Y-136971428D01*
X180972285Y-137114285D01*
X180972285Y-137542857D01*
X181043714Y-137685714D01*
X181115142Y-137757142D01*
X181258000Y-137828571D01*
X181472285Y-137828571D01*
X179686571Y-137828571D02*
X179686571Y-137042857D01*
X179758000Y-136900000D01*
X179900857Y-136828571D01*
X180186571Y-136828571D01*
X180329428Y-136900000D01*
X179686571Y-137757142D02*
X179829428Y-137828571D01*
X180186571Y-137828571D01*
X180329428Y-137757142D01*
X180400857Y-137614285D01*
X180400857Y-137471428D01*
X180329428Y-137328571D01*
X180186571Y-137257142D01*
X179829428Y-137257142D01*
X179686571Y-137185714D01*
X178972285Y-137828571D02*
X178972285Y-136828571D01*
X178972285Y-137114285D02*
X178900857Y-136971428D01*
X178829428Y-136900000D01*
X178686571Y-136828571D01*
X178543714Y-136828571D01*
X177400857Y-137828571D02*
X177400857Y-136328571D01*
X177400857Y-137757142D02*
X177543714Y-137828571D01*
X177829428Y-137828571D01*
X177972285Y-137757142D01*
X178043714Y-137685714D01*
X178115142Y-137542857D01*
X178115142Y-137114285D01*
X178043714Y-136971428D01*
X177972285Y-136900000D01*
X177829428Y-136828571D01*
X177543714Y-136828571D01*
X177400857Y-136900000D01*
X175686571Y-136828571D02*
X175329428Y-137828571D01*
X174972285Y-136828571D01*
X174472285Y-136471428D02*
X174400857Y-136400000D01*
X174258000Y-136328571D01*
X173900857Y-136328571D01*
X173758000Y-136400000D01*
X173686571Y-136471428D01*
X173615142Y-136614285D01*
X173615142Y-136757142D01*
X173686571Y-136971428D01*
X174543714Y-137828571D01*
X173615142Y-137828571D01*
D11*
G04 #@! TO.C,BT1*
X174250000Y-106050000D02*
X180100000Y-97150000D01*
X173450000Y-106050000D02*
X174250000Y-106050000D01*
X173450000Y-106050000D02*
X173450000Y-113950000D01*
X173450000Y-113950000D02*
X174250000Y-113950000D01*
X174250000Y-113950000D02*
X180100000Y-122850000D01*
X180100000Y-97150000D02*
X184600000Y-97150000D01*
X180100000Y-122850000D02*
X184600000Y-122850000D01*
X188400000Y-97150000D02*
X193800000Y-97150000D01*
X188400000Y-122850000D02*
X193800000Y-122850000D01*
X193750000Y-122850000D02*
G75*
G03X196450000Y-120150000I0J2700000D01*
G01*
X193750000Y-97150000D02*
G75*
G02X196450000Y-99850000I0J-2700000D01*
G01*
X196171751Y-100521751D02*
G75*
G03X196450000Y-99850000I-671751J671751D01*
G01*
X196171751Y-119478249D02*
G75*
G02X196450000Y-120150000I-671751J-671751D01*
G01*
X196138071Y-119440444D02*
G75*
G02X196230000Y-100450000I11361929J9440444D01*
G01*
G04 #@! TO.C,SW1*
X198014000Y-81890000D02*
X190774000Y-81890000D01*
X198014000Y-90890000D02*
X190774000Y-90890000D01*
X198014000Y-80770000D02*
X190774000Y-80770000D01*
X198014000Y-92010000D02*
X190774000Y-92010000D01*
X190774000Y-92010000D02*
X190774000Y-80770000D01*
X198014000Y-92010000D02*
X198014000Y-80770000D01*
G04 #@! TO.C,BT1*
D12*
X172028571Y-109214285D02*
X172076190Y-109357142D01*
X172123809Y-109404761D01*
X172219047Y-109452380D01*
X172361904Y-109452380D01*
X172457142Y-109404761D01*
X172504761Y-109357142D01*
X172552380Y-109261904D01*
X172552380Y-108880952D01*
X171552380Y-108880952D01*
X171552380Y-109214285D01*
X171600000Y-109309523D01*
X171647619Y-109357142D01*
X171742857Y-109404761D01*
X171838095Y-109404761D01*
X171933333Y-109357142D01*
X171980952Y-109309523D01*
X172028571Y-109214285D01*
X172028571Y-108880952D01*
X171552380Y-109738095D02*
X171552380Y-110309523D01*
X172552380Y-110023809D02*
X171552380Y-110023809D01*
X172552380Y-111166666D02*
X172552380Y-110595238D01*
X172552380Y-110880952D02*
X171552380Y-110880952D01*
X171695238Y-110785714D01*
X171790476Y-110690476D01*
X171838095Y-110595238D01*
G04 #@! TO.C,SW1*
X199548761Y-85056666D02*
X199596380Y-85199523D01*
X199596380Y-85437619D01*
X199548761Y-85532857D01*
X199501142Y-85580476D01*
X199405904Y-85628095D01*
X199310666Y-85628095D01*
X199215428Y-85580476D01*
X199167809Y-85532857D01*
X199120190Y-85437619D01*
X199072571Y-85247142D01*
X199024952Y-85151904D01*
X198977333Y-85104285D01*
X198882095Y-85056666D01*
X198786857Y-85056666D01*
X198691619Y-85104285D01*
X198644000Y-85151904D01*
X198596380Y-85247142D01*
X198596380Y-85485238D01*
X198644000Y-85628095D01*
X198596380Y-85961428D02*
X199596380Y-86199523D01*
X198882095Y-86390000D01*
X199596380Y-86580476D01*
X198596380Y-86818571D01*
X199596380Y-87723333D02*
X199596380Y-87151904D01*
X199596380Y-87437619D02*
X198596380Y-87437619D01*
X198739238Y-87342380D01*
X198834476Y-87247142D01*
X198882095Y-87151904D01*
G04 #@! TD*
M02*
