M48
;DRILL file {KiCad 5.0.2-bee76a0~70~ubuntu18.04.1} date Mi 02 Jan 2019 21:04:39 CET
;FORMAT={-:-/ absolute / inch / decimal}
FMAT,2
INCH,TZ
T1C0.0295
T2C0.0300
T3C0.0315
T4C0.0394
T5C0.0472
T6C0.0500
T7C0.0748
%
G90
G05
T1
X6.8933Y-5.2165
X6.9433Y-5.2165
X6.9933Y-5.2165
X6.6126Y-5.2165
X6.6626Y-5.2165
X6.7126Y-5.2165
X4.7233Y-5.2165
X4.7733Y-5.2165
X4.8233Y-5.2165
X4.4472Y-5.2165
X4.4972Y-5.2165
X4.5472Y-5.2165
T2
X7.1161Y-5.2165
X7.5492Y-5.2165
X4.9508Y-5.2165
X5.3839Y-5.2165
X6.0335Y-5.2165
X6.4665Y-5.2165
X3.8681Y-5.2165
X4.3012Y-5.2165
T3
X6.5633Y-3.4112
X6.5633Y-3.5096
X6.8649Y-3.4496
X6.9633Y-3.4496
X3.8333Y-3.8996
X3.8333Y-4.4996
X3.9333Y-3.8996
X3.9333Y-4.4996
X4.0333Y-3.8996
X4.0333Y-4.4996
X4.1333Y-3.8996
X4.1333Y-4.4996
X4.2333Y-3.8996
X4.2333Y-4.4996
X4.3333Y-3.8996
X4.3333Y-4.4996
X4.4333Y-3.8996
X4.4333Y-4.4996
X4.5333Y-3.8996
X4.5333Y-4.4996
X4.6333Y-3.8996
X4.6333Y-4.4996
X4.7333Y-3.8996
X4.7333Y-4.4996
X4.8333Y-3.8996
X4.8333Y-4.4996
X4.9333Y-3.8996
X4.9333Y-4.4996
X5.0333Y-3.8996
X5.0333Y-4.4996
X5.1333Y-3.8996
X5.1333Y-4.4996
X5.2333Y-3.8996
X5.2333Y-4.4996
T4
X4.0846Y-3.2677
X4.0846Y-3.3677
X4.0846Y-3.4677
X6.25Y-3.2677
X6.25Y-3.3677
X6.25Y-3.4677
X7.3327Y-3.2677
X7.3327Y-3.3677
X7.3327Y-3.4677
X5.1673Y-3.2677
X5.1673Y-3.3677
X5.1673Y-3.4677
T5
X7.6533Y-3.3028
X7.6533Y-3.4996
X5.5906Y-4.7996
X5.5906Y-5.3996
X4.3213Y-3.3465
X4.9213Y-3.3465
X5.8433Y-4.7996
X5.8433Y-5.3996
X5.3933Y-3.5696
X5.9933Y-3.5696
X6.0933Y-4.8425
X6.6933Y-4.8425
X5.3933Y-3.3496
X5.9933Y-3.3496
X4.3213Y-3.5996
X4.9213Y-3.5996
X4.7433Y-4.8496
X5.3433Y-4.8496
T6
X5.5733Y-3.9196
X5.5733Y-4.5196
X6.6233Y-3.9196
X6.6233Y-4.5196
T7
X7.3425Y-3.8307
X7.3425Y-4.8307
T0
M30
