G04 #@! TF.GenerationSoftware,KiCad,Pcbnew,5.0.2-bee76a0~70~ubuntu18.04.1*
G04 #@! TF.CreationDate,2019-01-27T14:50:32+01:00*
G04 #@! TF.ProjectId,magic-switchboard,6d616769-632d-4737-9769-746368626f61,v3*
G04 #@! TF.SameCoordinates,Original*
G04 #@! TF.FileFunction,Legend,Bot*
G04 #@! TF.FilePolarity,Positive*
%FSLAX46Y46*%
G04 Gerber Fmt 4.6, Leading zero omitted, Abs format (unit mm)*
G04 Created by KiCad (PCBNEW 5.0.2-bee76a0~70~ubuntu18.04.1) date So 27 Jan 2019 14:50:32 CET*
%MOMM*%
%LPD*%
G01*
G04 APERTURE LIST*
%ADD10C,0.300000*%
G04 APERTURE END LIST*
D10*
X108178571Y-140678571D02*
X108178571Y-139678571D01*
X108178571Y-139821428D02*
X108107142Y-139750000D01*
X107964285Y-139678571D01*
X107750000Y-139678571D01*
X107607142Y-139750000D01*
X107535714Y-139892857D01*
X107535714Y-140678571D01*
X107535714Y-139892857D02*
X107464285Y-139750000D01*
X107321428Y-139678571D01*
X107107142Y-139678571D01*
X106964285Y-139750000D01*
X106892857Y-139892857D01*
X106892857Y-140678571D01*
X105535714Y-140678571D02*
X105535714Y-139892857D01*
X105607142Y-139750000D01*
X105750000Y-139678571D01*
X106035714Y-139678571D01*
X106178571Y-139750000D01*
X105535714Y-140607142D02*
X105678571Y-140678571D01*
X106035714Y-140678571D01*
X106178571Y-140607142D01*
X106250000Y-140464285D01*
X106250000Y-140321428D01*
X106178571Y-140178571D01*
X106035714Y-140107142D01*
X105678571Y-140107142D01*
X105535714Y-140035714D01*
X104178571Y-139678571D02*
X104178571Y-140892857D01*
X104250000Y-141035714D01*
X104321428Y-141107142D01*
X104464285Y-141178571D01*
X104678571Y-141178571D01*
X104821428Y-141107142D01*
X104178571Y-140607142D02*
X104321428Y-140678571D01*
X104607142Y-140678571D01*
X104750000Y-140607142D01*
X104821428Y-140535714D01*
X104892857Y-140392857D01*
X104892857Y-139964285D01*
X104821428Y-139821428D01*
X104750000Y-139750000D01*
X104607142Y-139678571D01*
X104321428Y-139678571D01*
X104178571Y-139750000D01*
X103464285Y-140678571D02*
X103464285Y-139678571D01*
X103464285Y-139178571D02*
X103535714Y-139250000D01*
X103464285Y-139321428D01*
X103392857Y-139250000D01*
X103464285Y-139178571D01*
X103464285Y-139321428D01*
X102178571Y-140607142D02*
X102321428Y-140678571D01*
X102607142Y-140678571D01*
X102750000Y-140607142D01*
X102821428Y-140464285D01*
X102821428Y-139892857D01*
X102750000Y-139750000D01*
X102607142Y-139678571D01*
X102321428Y-139678571D01*
X102178571Y-139750000D01*
X102107142Y-139892857D01*
X102107142Y-140035714D01*
X102821428Y-140178571D01*
X101464285Y-140678571D02*
X101464285Y-139678571D01*
X101464285Y-139964285D02*
X101392857Y-139821428D01*
X101321428Y-139750000D01*
X101178571Y-139678571D01*
X101035714Y-139678571D01*
X99892857Y-140678571D02*
X99892857Y-139178571D01*
X99892857Y-140607142D02*
X100035714Y-140678571D01*
X100321428Y-140678571D01*
X100464285Y-140607142D01*
X100535714Y-140535714D01*
X100607142Y-140392857D01*
X100607142Y-139964285D01*
X100535714Y-139821428D01*
X100464285Y-139750000D01*
X100321428Y-139678571D01*
X100035714Y-139678571D01*
X99892857Y-139750000D01*
X99178571Y-140678571D02*
X99178571Y-139678571D01*
X99178571Y-139178571D02*
X99250000Y-139250000D01*
X99178571Y-139321428D01*
X99107142Y-139250000D01*
X99178571Y-139178571D01*
X99178571Y-139321428D01*
X98464285Y-139678571D02*
X98464285Y-140678571D01*
X98464285Y-139821428D02*
X98392857Y-139750000D01*
X98250000Y-139678571D01*
X98035714Y-139678571D01*
X97892857Y-139750000D01*
X97821428Y-139892857D01*
X97821428Y-140678571D01*
X96464285Y-139678571D02*
X96464285Y-140892857D01*
X96535714Y-141035714D01*
X96607142Y-141107142D01*
X96750000Y-141178571D01*
X96964285Y-141178571D01*
X97107142Y-141107142D01*
X96464285Y-140607142D02*
X96607142Y-140678571D01*
X96892857Y-140678571D01*
X97035714Y-140607142D01*
X97107142Y-140535714D01*
X97178571Y-140392857D01*
X97178571Y-139964285D01*
X97107142Y-139821428D01*
X97035714Y-139750000D01*
X96892857Y-139678571D01*
X96607142Y-139678571D01*
X96464285Y-139750000D01*
X95178571Y-140607142D02*
X95321428Y-140678571D01*
X95607142Y-140678571D01*
X95750000Y-140607142D01*
X95821428Y-140464285D01*
X95821428Y-139892857D01*
X95750000Y-139750000D01*
X95607142Y-139678571D01*
X95321428Y-139678571D01*
X95178571Y-139750000D01*
X95107142Y-139892857D01*
X95107142Y-140035714D01*
X95821428Y-140178571D01*
X94464285Y-140535714D02*
X94392857Y-140607142D01*
X94464285Y-140678571D01*
X94535714Y-140607142D01*
X94464285Y-140535714D01*
X94464285Y-140678571D01*
X93107142Y-140678571D02*
X93107142Y-139178571D01*
X93107142Y-140607142D02*
X93250000Y-140678571D01*
X93535714Y-140678571D01*
X93678571Y-140607142D01*
X93750000Y-140535714D01*
X93821428Y-140392857D01*
X93821428Y-139964285D01*
X93750000Y-139821428D01*
X93678571Y-139750000D01*
X93535714Y-139678571D01*
X93250000Y-139678571D01*
X93107142Y-139750000D01*
X91821428Y-140607142D02*
X91964285Y-140678571D01*
X92250000Y-140678571D01*
X92392857Y-140607142D01*
X92464285Y-140464285D01*
X92464285Y-139892857D01*
X92392857Y-139750000D01*
X92250000Y-139678571D01*
X91964285Y-139678571D01*
X91821428Y-139750000D01*
X91750000Y-139892857D01*
X91750000Y-140035714D01*
X92464285Y-140178571D01*
X187829428Y-140678571D02*
X187829428Y-139178571D01*
X187329428Y-140250000D01*
X186829428Y-139178571D01*
X186829428Y-140678571D01*
X185472285Y-140678571D02*
X185472285Y-139892857D01*
X185543714Y-139750000D01*
X185686571Y-139678571D01*
X185972285Y-139678571D01*
X186115142Y-139750000D01*
X185472285Y-140607142D02*
X185615142Y-140678571D01*
X185972285Y-140678571D01*
X186115142Y-140607142D01*
X186186571Y-140464285D01*
X186186571Y-140321428D01*
X186115142Y-140178571D01*
X185972285Y-140107142D01*
X185615142Y-140107142D01*
X185472285Y-140035714D01*
X184115142Y-139678571D02*
X184115142Y-140892857D01*
X184186571Y-141035714D01*
X184258000Y-141107142D01*
X184400857Y-141178571D01*
X184615142Y-141178571D01*
X184758000Y-141107142D01*
X184115142Y-140607142D02*
X184258000Y-140678571D01*
X184543714Y-140678571D01*
X184686571Y-140607142D01*
X184758000Y-140535714D01*
X184829428Y-140392857D01*
X184829428Y-139964285D01*
X184758000Y-139821428D01*
X184686571Y-139750000D01*
X184543714Y-139678571D01*
X184258000Y-139678571D01*
X184115142Y-139750000D01*
X183400857Y-140678571D02*
X183400857Y-139678571D01*
X183400857Y-139178571D02*
X183472285Y-139250000D01*
X183400857Y-139321428D01*
X183329428Y-139250000D01*
X183400857Y-139178571D01*
X183400857Y-139321428D01*
X182043714Y-140607142D02*
X182186571Y-140678571D01*
X182472285Y-140678571D01*
X182615142Y-140607142D01*
X182686571Y-140535714D01*
X182758000Y-140392857D01*
X182758000Y-139964285D01*
X182686571Y-139821428D01*
X182615142Y-139750000D01*
X182472285Y-139678571D01*
X182186571Y-139678571D01*
X182043714Y-139750000D01*
X180329428Y-140607142D02*
X180115142Y-140678571D01*
X179758000Y-140678571D01*
X179615142Y-140607142D01*
X179543714Y-140535714D01*
X179472285Y-140392857D01*
X179472285Y-140250000D01*
X179543714Y-140107142D01*
X179615142Y-140035714D01*
X179758000Y-139964285D01*
X180043714Y-139892857D01*
X180186571Y-139821428D01*
X180258000Y-139750000D01*
X180329428Y-139607142D01*
X180329428Y-139464285D01*
X180258000Y-139321428D01*
X180186571Y-139250000D01*
X180043714Y-139178571D01*
X179686571Y-139178571D01*
X179472285Y-139250000D01*
X178972285Y-139678571D02*
X178686571Y-140678571D01*
X178400857Y-139964285D01*
X178115142Y-140678571D01*
X177829428Y-139678571D01*
X177258000Y-140678571D02*
X177258000Y-139678571D01*
X177258000Y-139178571D02*
X177329428Y-139250000D01*
X177258000Y-139321428D01*
X177186571Y-139250000D01*
X177258000Y-139178571D01*
X177258000Y-139321428D01*
X176758000Y-139678571D02*
X176186571Y-139678571D01*
X176543714Y-139178571D02*
X176543714Y-140464285D01*
X176472285Y-140607142D01*
X176329428Y-140678571D01*
X176186571Y-140678571D01*
X175043714Y-140607142D02*
X175186571Y-140678571D01*
X175472285Y-140678571D01*
X175615142Y-140607142D01*
X175686571Y-140535714D01*
X175758000Y-140392857D01*
X175758000Y-139964285D01*
X175686571Y-139821428D01*
X175615142Y-139750000D01*
X175472285Y-139678571D01*
X175186571Y-139678571D01*
X175043714Y-139750000D01*
X174400857Y-140678571D02*
X174400857Y-139178571D01*
X173758000Y-140678571D02*
X173758000Y-139892857D01*
X173829428Y-139750000D01*
X173972285Y-139678571D01*
X174186571Y-139678571D01*
X174329428Y-139750000D01*
X174400857Y-139821428D01*
X173043714Y-140678571D02*
X173043714Y-139178571D01*
X173043714Y-139750000D02*
X172900857Y-139678571D01*
X172615142Y-139678571D01*
X172472285Y-139750000D01*
X172400857Y-139821428D01*
X172329428Y-139964285D01*
X172329428Y-140392857D01*
X172400857Y-140535714D01*
X172472285Y-140607142D01*
X172615142Y-140678571D01*
X172900857Y-140678571D01*
X173043714Y-140607142D01*
X171472285Y-140678571D02*
X171615142Y-140607142D01*
X171686571Y-140535714D01*
X171758000Y-140392857D01*
X171758000Y-139964285D01*
X171686571Y-139821428D01*
X171615142Y-139750000D01*
X171472285Y-139678571D01*
X171258000Y-139678571D01*
X171115142Y-139750000D01*
X171043714Y-139821428D01*
X170972285Y-139964285D01*
X170972285Y-140392857D01*
X171043714Y-140535714D01*
X171115142Y-140607142D01*
X171258000Y-140678571D01*
X171472285Y-140678571D01*
X169686571Y-140678571D02*
X169686571Y-139892857D01*
X169758000Y-139750000D01*
X169900857Y-139678571D01*
X170186571Y-139678571D01*
X170329428Y-139750000D01*
X169686571Y-140607142D02*
X169829428Y-140678571D01*
X170186571Y-140678571D01*
X170329428Y-140607142D01*
X170400857Y-140464285D01*
X170400857Y-140321428D01*
X170329428Y-140178571D01*
X170186571Y-140107142D01*
X169829428Y-140107142D01*
X169686571Y-140035714D01*
X168972285Y-140678571D02*
X168972285Y-139678571D01*
X168972285Y-139964285D02*
X168900857Y-139821428D01*
X168829428Y-139750000D01*
X168686571Y-139678571D01*
X168543714Y-139678571D01*
X167400857Y-140678571D02*
X167400857Y-139178571D01*
X167400857Y-140607142D02*
X167543714Y-140678571D01*
X167829428Y-140678571D01*
X167972285Y-140607142D01*
X168043714Y-140535714D01*
X168115142Y-140392857D01*
X168115142Y-139964285D01*
X168043714Y-139821428D01*
X167972285Y-139750000D01*
X167829428Y-139678571D01*
X167543714Y-139678571D01*
X167400857Y-139750000D01*
X165686571Y-139678571D02*
X165329428Y-140678571D01*
X164972285Y-139678571D01*
X164543714Y-139178571D02*
X163615142Y-139178571D01*
X164115142Y-139750000D01*
X163900857Y-139750000D01*
X163758000Y-139821428D01*
X163686571Y-139892857D01*
X163615142Y-140035714D01*
X163615142Y-140392857D01*
X163686571Y-140535714D01*
X163758000Y-140607142D01*
X163900857Y-140678571D01*
X164329428Y-140678571D01*
X164472285Y-140607142D01*
X164543714Y-140535714D01*
M02*
