G04 #@! TF.GenerationSoftware,KiCad,Pcbnew,5.0.2-bee76a0~70~ubuntu18.04.1*
G04 #@! TF.CreationDate,2019-01-02T21:03:54+01:00*
G04 #@! TF.ProjectId,magic-switchboard,6d616769-632d-4737-9769-746368626f61,v2*
G04 #@! TF.SameCoordinates,Original*
G04 #@! TF.FileFunction,Soldermask,Top*
G04 #@! TF.FilePolarity,Negative*
%FSLAX46Y46*%
G04 Gerber Fmt 4.6, Leading zero omitted, Abs format (unit mm)*
G04 Created by KiCad (PCBNEW 5.0.2-bee76a0~70~ubuntu18.04.1) date Mi 02 Jan 2019 21:03:54 CET*
%MOMM*%
%LPD*%
G01*
G04 APERTURE LIST*
%ADD10C,0.100000*%
G04 APERTURE END LIST*
D10*
G36*
X148603636Y-135911019D02*
X148784903Y-135947075D01*
X149012571Y-136041378D01*
X149216542Y-136177668D01*
X149217469Y-136178287D01*
X149391713Y-136352531D01*
X149391715Y-136352534D01*
X149528622Y-136557429D01*
X149622925Y-136785097D01*
X149671000Y-137026787D01*
X149671000Y-137273213D01*
X149622925Y-137514903D01*
X149528622Y-137742571D01*
X149392332Y-137946542D01*
X149391713Y-137947469D01*
X149217469Y-138121713D01*
X149217466Y-138121715D01*
X149012571Y-138258622D01*
X148784903Y-138352925D01*
X148603636Y-138388981D01*
X148543214Y-138401000D01*
X148296786Y-138401000D01*
X148236364Y-138388981D01*
X148055097Y-138352925D01*
X147827429Y-138258622D01*
X147622534Y-138121715D01*
X147622531Y-138121713D01*
X147448287Y-137947469D01*
X147447668Y-137946542D01*
X147311378Y-137742571D01*
X147217075Y-137514903D01*
X147169000Y-137273213D01*
X147169000Y-137026787D01*
X147217075Y-136785097D01*
X147311378Y-136557429D01*
X147448285Y-136352534D01*
X147448287Y-136352531D01*
X147622531Y-136178287D01*
X147623458Y-136177668D01*
X147827429Y-136041378D01*
X148055097Y-135947075D01*
X148236364Y-135911019D01*
X148296786Y-135899000D01*
X148543214Y-135899000D01*
X148603636Y-135911019D01*
X148603636Y-135911019D01*
G37*
G36*
X142183636Y-135911019D02*
X142364903Y-135947075D01*
X142592571Y-136041378D01*
X142796542Y-136177668D01*
X142797469Y-136178287D01*
X142971713Y-136352531D01*
X142971715Y-136352534D01*
X143108622Y-136557429D01*
X143202925Y-136785097D01*
X143251000Y-137026787D01*
X143251000Y-137273213D01*
X143202925Y-137514903D01*
X143108622Y-137742571D01*
X142972332Y-137946542D01*
X142971713Y-137947469D01*
X142797469Y-138121713D01*
X142797466Y-138121715D01*
X142592571Y-138258622D01*
X142364903Y-138352925D01*
X142183636Y-138388981D01*
X142123214Y-138401000D01*
X141876786Y-138401000D01*
X141816364Y-138388981D01*
X141635097Y-138352925D01*
X141407429Y-138258622D01*
X141202534Y-138121715D01*
X141202531Y-138121713D01*
X141028287Y-137947469D01*
X141027668Y-137946542D01*
X140891378Y-137742571D01*
X140797075Y-137514903D01*
X140749000Y-137273213D01*
X140749000Y-137026787D01*
X140797075Y-136785097D01*
X140891378Y-136557429D01*
X141028285Y-136352534D01*
X141028287Y-136352531D01*
X141202531Y-136178287D01*
X141203458Y-136177668D01*
X141407429Y-136041378D01*
X141635097Y-135947075D01*
X141816364Y-135911019D01*
X141876786Y-135899000D01*
X142123214Y-135899000D01*
X142183636Y-135911019D01*
X142183636Y-135911019D01*
G37*
G36*
X153487142Y-131718242D02*
X153635102Y-131779530D01*
X153702130Y-131824317D01*
X153764119Y-131865736D01*
X153768258Y-131868502D01*
X153881498Y-131981742D01*
X153970470Y-132114898D01*
X154031758Y-132262858D01*
X154063000Y-132419925D01*
X154063000Y-132580075D01*
X154031758Y-132737142D01*
X153970470Y-132885102D01*
X153929447Y-132946497D01*
X153881499Y-133018257D01*
X153768257Y-133131499D01*
X153760528Y-133136663D01*
X153635102Y-133220470D01*
X153487142Y-133281758D01*
X153330075Y-133313000D01*
X153169925Y-133313000D01*
X153012858Y-133281758D01*
X152864898Y-133220470D01*
X152739472Y-133136663D01*
X152731743Y-133131499D01*
X152618501Y-133018257D01*
X152570553Y-132946497D01*
X152529530Y-132885102D01*
X152468242Y-132737142D01*
X152437000Y-132580075D01*
X152437000Y-132419925D01*
X152468242Y-132262858D01*
X152529530Y-132114898D01*
X152618502Y-131981742D01*
X152731742Y-131868502D01*
X152735882Y-131865736D01*
X152797870Y-131824317D01*
X152864898Y-131779530D01*
X153012858Y-131718242D01*
X153169925Y-131687000D01*
X153330075Y-131687000D01*
X153487142Y-131718242D01*
X153487142Y-131718242D01*
G37*
G36*
X98487142Y-131718242D02*
X98635102Y-131779530D01*
X98702130Y-131824317D01*
X98764119Y-131865736D01*
X98768258Y-131868502D01*
X98881498Y-131981742D01*
X98970470Y-132114898D01*
X99031758Y-132262858D01*
X99063000Y-132419925D01*
X99063000Y-132580075D01*
X99031758Y-132737142D01*
X98970470Y-132885102D01*
X98929447Y-132946497D01*
X98881499Y-133018257D01*
X98768257Y-133131499D01*
X98760528Y-133136663D01*
X98635102Y-133220470D01*
X98487142Y-133281758D01*
X98330075Y-133313000D01*
X98169925Y-133313000D01*
X98012858Y-133281758D01*
X97864898Y-133220470D01*
X97739472Y-133136663D01*
X97731743Y-133131499D01*
X97618501Y-133018257D01*
X97570553Y-132946497D01*
X97529530Y-132885102D01*
X97468242Y-132737142D01*
X97437000Y-132580075D01*
X97437000Y-132419925D01*
X97468242Y-132262858D01*
X97529530Y-132114898D01*
X97618502Y-131981742D01*
X97731742Y-131868502D01*
X97735882Y-131865736D01*
X97797870Y-131824317D01*
X97864898Y-131779530D01*
X98012858Y-131718242D01*
X98169925Y-131687000D01*
X98330075Y-131687000D01*
X98487142Y-131718242D01*
X98487142Y-131718242D01*
G37*
G36*
X109487142Y-131718242D02*
X109635102Y-131779530D01*
X109702130Y-131824317D01*
X109764119Y-131865736D01*
X109768258Y-131868502D01*
X109881498Y-131981742D01*
X109970470Y-132114898D01*
X110031758Y-132262858D01*
X110063000Y-132419925D01*
X110063000Y-132580075D01*
X110031758Y-132737142D01*
X109970470Y-132885102D01*
X109929447Y-132946497D01*
X109881499Y-133018257D01*
X109768257Y-133131499D01*
X109760528Y-133136663D01*
X109635102Y-133220470D01*
X109487142Y-133281758D01*
X109330075Y-133313000D01*
X109169925Y-133313000D01*
X109012858Y-133281758D01*
X108864898Y-133220470D01*
X108739472Y-133136663D01*
X108731743Y-133131499D01*
X108618501Y-133018257D01*
X108570553Y-132946497D01*
X108529530Y-132885102D01*
X108468242Y-132737142D01*
X108437000Y-132580075D01*
X108437000Y-132419925D01*
X108468242Y-132262858D01*
X108529530Y-132114898D01*
X108618502Y-131981742D01*
X108731742Y-131868502D01*
X108735882Y-131865736D01*
X108797870Y-131824317D01*
X108864898Y-131779530D01*
X109012858Y-131718242D01*
X109169925Y-131687000D01*
X109330075Y-131687000D01*
X109487142Y-131718242D01*
X109487142Y-131718242D01*
G37*
G36*
X136987142Y-131718242D02*
X137135102Y-131779530D01*
X137202130Y-131824317D01*
X137264119Y-131865736D01*
X137268258Y-131868502D01*
X137381498Y-131981742D01*
X137470470Y-132114898D01*
X137531758Y-132262858D01*
X137563000Y-132419925D01*
X137563000Y-132580075D01*
X137531758Y-132737142D01*
X137470470Y-132885102D01*
X137429447Y-132946497D01*
X137381499Y-133018257D01*
X137268257Y-133131499D01*
X137260528Y-133136663D01*
X137135102Y-133220470D01*
X136987142Y-133281758D01*
X136830075Y-133313000D01*
X136669925Y-133313000D01*
X136512858Y-133281758D01*
X136364898Y-133220470D01*
X136239472Y-133136663D01*
X136231743Y-133131499D01*
X136118501Y-133018257D01*
X136070553Y-132946497D01*
X136029530Y-132885102D01*
X135968242Y-132737142D01*
X135937000Y-132580075D01*
X135937000Y-132419925D01*
X135968242Y-132262858D01*
X136029530Y-132114898D01*
X136118502Y-131981742D01*
X136231742Y-131868502D01*
X136235882Y-131865736D01*
X136297870Y-131824317D01*
X136364898Y-131779530D01*
X136512858Y-131718242D01*
X136669925Y-131687000D01*
X136830075Y-131687000D01*
X136987142Y-131718242D01*
X136987142Y-131718242D01*
G37*
G36*
X125987142Y-131718242D02*
X126135102Y-131779530D01*
X126202130Y-131824317D01*
X126264119Y-131865736D01*
X126268258Y-131868502D01*
X126381498Y-131981742D01*
X126470470Y-132114898D01*
X126531758Y-132262858D01*
X126563000Y-132419925D01*
X126563000Y-132580075D01*
X126531758Y-132737142D01*
X126470470Y-132885102D01*
X126429447Y-132946497D01*
X126381499Y-133018257D01*
X126268257Y-133131499D01*
X126260528Y-133136663D01*
X126135102Y-133220470D01*
X125987142Y-133281758D01*
X125830075Y-133313000D01*
X125669925Y-133313000D01*
X125512858Y-133281758D01*
X125364898Y-133220470D01*
X125239472Y-133136663D01*
X125231743Y-133131499D01*
X125118501Y-133018257D01*
X125070553Y-132946497D01*
X125029530Y-132885102D01*
X124968242Y-132737142D01*
X124937000Y-132580075D01*
X124937000Y-132419925D01*
X124968242Y-132262858D01*
X125029530Y-132114898D01*
X125118502Y-131981742D01*
X125231742Y-131868502D01*
X125235882Y-131865736D01*
X125297870Y-131824317D01*
X125364898Y-131779530D01*
X125512858Y-131718242D01*
X125669925Y-131687000D01*
X125830075Y-131687000D01*
X125987142Y-131718242D01*
X125987142Y-131718242D01*
G37*
G36*
X164487142Y-131718242D02*
X164635102Y-131779530D01*
X164702130Y-131824317D01*
X164764119Y-131865736D01*
X164768258Y-131868502D01*
X164881498Y-131981742D01*
X164970470Y-132114898D01*
X165031758Y-132262858D01*
X165063000Y-132419925D01*
X165063000Y-132580075D01*
X165031758Y-132737142D01*
X164970470Y-132885102D01*
X164929447Y-132946497D01*
X164881499Y-133018257D01*
X164768257Y-133131499D01*
X164760528Y-133136663D01*
X164635102Y-133220470D01*
X164487142Y-133281758D01*
X164330075Y-133313000D01*
X164169925Y-133313000D01*
X164012858Y-133281758D01*
X163864898Y-133220470D01*
X163739472Y-133136663D01*
X163731743Y-133131499D01*
X163618501Y-133018257D01*
X163570553Y-132946497D01*
X163529530Y-132885102D01*
X163468242Y-132737142D01*
X163437000Y-132580075D01*
X163437000Y-132419925D01*
X163468242Y-132262858D01*
X163529530Y-132114898D01*
X163618502Y-131981742D01*
X163731742Y-131868502D01*
X163735882Y-131865736D01*
X163797870Y-131824317D01*
X163864898Y-131779530D01*
X164012858Y-131718242D01*
X164169925Y-131687000D01*
X164330075Y-131687000D01*
X164487142Y-131718242D01*
X164487142Y-131718242D01*
G37*
G36*
X180987142Y-131718242D02*
X181135102Y-131779530D01*
X181202130Y-131824317D01*
X181264119Y-131865736D01*
X181268258Y-131868502D01*
X181381498Y-131981742D01*
X181470470Y-132114898D01*
X181531758Y-132262858D01*
X181563000Y-132419925D01*
X181563000Y-132580075D01*
X181531758Y-132737142D01*
X181470470Y-132885102D01*
X181429447Y-132946497D01*
X181381499Y-133018257D01*
X181268257Y-133131499D01*
X181260528Y-133136663D01*
X181135102Y-133220470D01*
X180987142Y-133281758D01*
X180830075Y-133313000D01*
X180669925Y-133313000D01*
X180512858Y-133281758D01*
X180364898Y-133220470D01*
X180239472Y-133136663D01*
X180231743Y-133131499D01*
X180118501Y-133018257D01*
X180070553Y-132946497D01*
X180029530Y-132885102D01*
X179968242Y-132737142D01*
X179937000Y-132580075D01*
X179937000Y-132419925D01*
X179968242Y-132262858D01*
X180029530Y-132114898D01*
X180118502Y-131981742D01*
X180231742Y-131868502D01*
X180235882Y-131865736D01*
X180297870Y-131824317D01*
X180364898Y-131779530D01*
X180512858Y-131718242D01*
X180669925Y-131687000D01*
X180830075Y-131687000D01*
X180987142Y-131718242D01*
X180987142Y-131718242D01*
G37*
G36*
X191987142Y-131718242D02*
X192135102Y-131779530D01*
X192202130Y-131824317D01*
X192264119Y-131865736D01*
X192268258Y-131868502D01*
X192381498Y-131981742D01*
X192470470Y-132114898D01*
X192531758Y-132262858D01*
X192563000Y-132419925D01*
X192563000Y-132580075D01*
X192531758Y-132737142D01*
X192470470Y-132885102D01*
X192429447Y-132946497D01*
X192381499Y-133018257D01*
X192268257Y-133131499D01*
X192260528Y-133136663D01*
X192135102Y-133220470D01*
X191987142Y-133281758D01*
X191830075Y-133313000D01*
X191669925Y-133313000D01*
X191512858Y-133281758D01*
X191364898Y-133220470D01*
X191239472Y-133136663D01*
X191231743Y-133131499D01*
X191118501Y-133018257D01*
X191070553Y-132946497D01*
X191029530Y-132885102D01*
X190968242Y-132737142D01*
X190937000Y-132580075D01*
X190937000Y-132419925D01*
X190968242Y-132262858D01*
X191029530Y-132114898D01*
X191118502Y-131981742D01*
X191231742Y-131868502D01*
X191235882Y-131865736D01*
X191297870Y-131824317D01*
X191364898Y-131779530D01*
X191512858Y-131718242D01*
X191669925Y-131687000D01*
X191830075Y-131687000D01*
X191987142Y-131718242D01*
X191987142Y-131718242D01*
G37*
G36*
X122624915Y-131707334D02*
X122733491Y-131740271D01*
X122833556Y-131793756D01*
X122921264Y-131865736D01*
X122993244Y-131953443D01*
X123046729Y-132053508D01*
X123079666Y-132162084D01*
X123088000Y-132246702D01*
X123088000Y-132753297D01*
X123079666Y-132837916D01*
X123046729Y-132946492D01*
X122993244Y-133046557D01*
X122921264Y-133134264D01*
X122833557Y-133206244D01*
X122733492Y-133259729D01*
X122624916Y-133292666D01*
X122512000Y-133303787D01*
X122399085Y-133292666D01*
X122290509Y-133259729D01*
X122190444Y-133206244D01*
X122102737Y-133134264D01*
X122030757Y-133046557D01*
X121987240Y-132965143D01*
X121973627Y-132944768D01*
X121956299Y-132927441D01*
X121935925Y-132913827D01*
X121913286Y-132904450D01*
X121889253Y-132899669D01*
X121864748Y-132899669D01*
X121840715Y-132904449D01*
X121818076Y-132913827D01*
X121797701Y-132927440D01*
X121780374Y-132944768D01*
X121766760Y-132965143D01*
X121723244Y-133046557D01*
X121651264Y-133134264D01*
X121563557Y-133206244D01*
X121463492Y-133259729D01*
X121354916Y-133292666D01*
X121242000Y-133303787D01*
X121129085Y-133292666D01*
X121020509Y-133259729D01*
X120920444Y-133206244D01*
X120832737Y-133134264D01*
X120769626Y-133057364D01*
X120752299Y-133040036D01*
X120731924Y-133026423D01*
X120709285Y-133017045D01*
X120685252Y-133012265D01*
X120660748Y-133012265D01*
X120636714Y-133017046D01*
X120614075Y-133026423D01*
X120593701Y-133040037D01*
X120576373Y-133057364D01*
X120562760Y-133077739D01*
X120553382Y-133100378D01*
X120548000Y-133136663D01*
X120548000Y-133301000D01*
X119396000Y-133301000D01*
X119396000Y-131699000D01*
X120548000Y-131699000D01*
X120548000Y-131863337D01*
X120550402Y-131887723D01*
X120557515Y-131911172D01*
X120569066Y-131932783D01*
X120584612Y-131951725D01*
X120603554Y-131967271D01*
X120625165Y-131978822D01*
X120648614Y-131985935D01*
X120673000Y-131988337D01*
X120697386Y-131985935D01*
X120720835Y-131978822D01*
X120742446Y-131967271D01*
X120769626Y-131942636D01*
X120832734Y-131865739D01*
X120832736Y-131865736D01*
X120920443Y-131793756D01*
X121020508Y-131740271D01*
X121129084Y-131707334D01*
X121242000Y-131696213D01*
X121354915Y-131707334D01*
X121463491Y-131740271D01*
X121563556Y-131793756D01*
X121651264Y-131865736D01*
X121723244Y-131953443D01*
X121766767Y-132034869D01*
X121780373Y-132055232D01*
X121797700Y-132072560D01*
X121818075Y-132086174D01*
X121840713Y-132095551D01*
X121864747Y-132100332D01*
X121889251Y-132100332D01*
X121913285Y-132095552D01*
X121935924Y-132086175D01*
X121956298Y-132072561D01*
X121973626Y-132055234D01*
X121987240Y-132034858D01*
X122030756Y-131953444D01*
X122102734Y-131865739D01*
X122102736Y-131865736D01*
X122190443Y-131793756D01*
X122290508Y-131740271D01*
X122399084Y-131707334D01*
X122512000Y-131696213D01*
X122624915Y-131707334D01*
X122624915Y-131707334D01*
G37*
G36*
X115612915Y-131707334D02*
X115721491Y-131740271D01*
X115821556Y-131793756D01*
X115909264Y-131865736D01*
X115981244Y-131953443D01*
X116034729Y-132053508D01*
X116067666Y-132162084D01*
X116076000Y-132246702D01*
X116076000Y-132753297D01*
X116067666Y-132837916D01*
X116034729Y-132946492D01*
X115981244Y-133046557D01*
X115909264Y-133134264D01*
X115821557Y-133206244D01*
X115721492Y-133259729D01*
X115612916Y-133292666D01*
X115500000Y-133303787D01*
X115387085Y-133292666D01*
X115278509Y-133259729D01*
X115178444Y-133206244D01*
X115090737Y-133134264D01*
X115018757Y-133046557D01*
X114975240Y-132965143D01*
X114961627Y-132944768D01*
X114944299Y-132927441D01*
X114923925Y-132913827D01*
X114901286Y-132904450D01*
X114877253Y-132899669D01*
X114852748Y-132899669D01*
X114828715Y-132904449D01*
X114806076Y-132913827D01*
X114785701Y-132927440D01*
X114768374Y-132944768D01*
X114754760Y-132965143D01*
X114711244Y-133046557D01*
X114639264Y-133134264D01*
X114551557Y-133206244D01*
X114451492Y-133259729D01*
X114342916Y-133292666D01*
X114230000Y-133303787D01*
X114117085Y-133292666D01*
X114008509Y-133259729D01*
X113908444Y-133206244D01*
X113820737Y-133134264D01*
X113757626Y-133057364D01*
X113740299Y-133040036D01*
X113719924Y-133026423D01*
X113697285Y-133017045D01*
X113673252Y-133012265D01*
X113648748Y-133012265D01*
X113624714Y-133017046D01*
X113602075Y-133026423D01*
X113581701Y-133040037D01*
X113564373Y-133057364D01*
X113550760Y-133077739D01*
X113541382Y-133100378D01*
X113536000Y-133136663D01*
X113536000Y-133301000D01*
X112384000Y-133301000D01*
X112384000Y-131699000D01*
X113536000Y-131699000D01*
X113536000Y-131863337D01*
X113538402Y-131887723D01*
X113545515Y-131911172D01*
X113557066Y-131932783D01*
X113572612Y-131951725D01*
X113591554Y-131967271D01*
X113613165Y-131978822D01*
X113636614Y-131985935D01*
X113661000Y-131988337D01*
X113685386Y-131985935D01*
X113708835Y-131978822D01*
X113730446Y-131967271D01*
X113757626Y-131942636D01*
X113820734Y-131865739D01*
X113820736Y-131865736D01*
X113908443Y-131793756D01*
X114008508Y-131740271D01*
X114117084Y-131707334D01*
X114230000Y-131696213D01*
X114342915Y-131707334D01*
X114451491Y-131740271D01*
X114551556Y-131793756D01*
X114639264Y-131865736D01*
X114711244Y-131953443D01*
X114754767Y-132034869D01*
X114768373Y-132055232D01*
X114785700Y-132072560D01*
X114806075Y-132086174D01*
X114828713Y-132095551D01*
X114852747Y-132100332D01*
X114877251Y-132100332D01*
X114901285Y-132095552D01*
X114923924Y-132086175D01*
X114944298Y-132072561D01*
X114961626Y-132055234D01*
X114975240Y-132034858D01*
X115018756Y-131953444D01*
X115090734Y-131865739D01*
X115090736Y-131865736D01*
X115178443Y-131793756D01*
X115278508Y-131740271D01*
X115387084Y-131707334D01*
X115500000Y-131696213D01*
X115612915Y-131707334D01*
X115612915Y-131707334D01*
G37*
G36*
X170612915Y-131707334D02*
X170721491Y-131740271D01*
X170821556Y-131793756D01*
X170909264Y-131865736D01*
X170981244Y-131953443D01*
X171034729Y-132053508D01*
X171067666Y-132162084D01*
X171076000Y-132246702D01*
X171076000Y-132753297D01*
X171067666Y-132837916D01*
X171034729Y-132946492D01*
X170981244Y-133046557D01*
X170909264Y-133134264D01*
X170821557Y-133206244D01*
X170721492Y-133259729D01*
X170612916Y-133292666D01*
X170500000Y-133303787D01*
X170387085Y-133292666D01*
X170278509Y-133259729D01*
X170178444Y-133206244D01*
X170090737Y-133134264D01*
X170018757Y-133046557D01*
X169975240Y-132965143D01*
X169961627Y-132944768D01*
X169944299Y-132927441D01*
X169923925Y-132913827D01*
X169901286Y-132904450D01*
X169877253Y-132899669D01*
X169852748Y-132899669D01*
X169828715Y-132904449D01*
X169806076Y-132913827D01*
X169785701Y-132927440D01*
X169768374Y-132944768D01*
X169754760Y-132965143D01*
X169711244Y-133046557D01*
X169639264Y-133134264D01*
X169551557Y-133206244D01*
X169451492Y-133259729D01*
X169342916Y-133292666D01*
X169230000Y-133303787D01*
X169117085Y-133292666D01*
X169008509Y-133259729D01*
X168908444Y-133206244D01*
X168820737Y-133134264D01*
X168757626Y-133057364D01*
X168740299Y-133040036D01*
X168719924Y-133026423D01*
X168697285Y-133017045D01*
X168673252Y-133012265D01*
X168648748Y-133012265D01*
X168624714Y-133017046D01*
X168602075Y-133026423D01*
X168581701Y-133040037D01*
X168564373Y-133057364D01*
X168550760Y-133077739D01*
X168541382Y-133100378D01*
X168536000Y-133136663D01*
X168536000Y-133301000D01*
X167384000Y-133301000D01*
X167384000Y-131699000D01*
X168536000Y-131699000D01*
X168536000Y-131863337D01*
X168538402Y-131887723D01*
X168545515Y-131911172D01*
X168557066Y-131932783D01*
X168572612Y-131951725D01*
X168591554Y-131967271D01*
X168613165Y-131978822D01*
X168636614Y-131985935D01*
X168661000Y-131988337D01*
X168685386Y-131985935D01*
X168708835Y-131978822D01*
X168730446Y-131967271D01*
X168757626Y-131942636D01*
X168820734Y-131865739D01*
X168820736Y-131865736D01*
X168908443Y-131793756D01*
X169008508Y-131740271D01*
X169117084Y-131707334D01*
X169230000Y-131696213D01*
X169342915Y-131707334D01*
X169451491Y-131740271D01*
X169551556Y-131793756D01*
X169639264Y-131865736D01*
X169711244Y-131953443D01*
X169754767Y-132034869D01*
X169768373Y-132055232D01*
X169785700Y-132072560D01*
X169806075Y-132086174D01*
X169828713Y-132095551D01*
X169852747Y-132100332D01*
X169877251Y-132100332D01*
X169901285Y-132095552D01*
X169923924Y-132086175D01*
X169944298Y-132072561D01*
X169961626Y-132055234D01*
X169975240Y-132034858D01*
X170018756Y-131953444D01*
X170090734Y-131865739D01*
X170090736Y-131865736D01*
X170178443Y-131793756D01*
X170278508Y-131740271D01*
X170387084Y-131707334D01*
X170500000Y-131696213D01*
X170612915Y-131707334D01*
X170612915Y-131707334D01*
G37*
G36*
X177742915Y-131707334D02*
X177851491Y-131740271D01*
X177951556Y-131793756D01*
X178039264Y-131865736D01*
X178111244Y-131953443D01*
X178164729Y-132053508D01*
X178197666Y-132162084D01*
X178206000Y-132246702D01*
X178206000Y-132753297D01*
X178197666Y-132837916D01*
X178164729Y-132946492D01*
X178111244Y-133046557D01*
X178039264Y-133134264D01*
X177951557Y-133206244D01*
X177851492Y-133259729D01*
X177742916Y-133292666D01*
X177630000Y-133303787D01*
X177517085Y-133292666D01*
X177408509Y-133259729D01*
X177308444Y-133206244D01*
X177220737Y-133134264D01*
X177148757Y-133046557D01*
X177105240Y-132965143D01*
X177091627Y-132944768D01*
X177074299Y-132927441D01*
X177053925Y-132913827D01*
X177031286Y-132904450D01*
X177007253Y-132899669D01*
X176982748Y-132899669D01*
X176958715Y-132904449D01*
X176936076Y-132913827D01*
X176915701Y-132927440D01*
X176898374Y-132944768D01*
X176884760Y-132965143D01*
X176841244Y-133046557D01*
X176769264Y-133134264D01*
X176681557Y-133206244D01*
X176581492Y-133259729D01*
X176472916Y-133292666D01*
X176360000Y-133303787D01*
X176247085Y-133292666D01*
X176138509Y-133259729D01*
X176038444Y-133206244D01*
X175950737Y-133134264D01*
X175887626Y-133057364D01*
X175870299Y-133040036D01*
X175849924Y-133026423D01*
X175827285Y-133017045D01*
X175803252Y-133012265D01*
X175778748Y-133012265D01*
X175754714Y-133017046D01*
X175732075Y-133026423D01*
X175711701Y-133040037D01*
X175694373Y-133057364D01*
X175680760Y-133077739D01*
X175671382Y-133100378D01*
X175666000Y-133136663D01*
X175666000Y-133301000D01*
X174514000Y-133301000D01*
X174514000Y-131699000D01*
X175666000Y-131699000D01*
X175666000Y-131863337D01*
X175668402Y-131887723D01*
X175675515Y-131911172D01*
X175687066Y-131932783D01*
X175702612Y-131951725D01*
X175721554Y-131967271D01*
X175743165Y-131978822D01*
X175766614Y-131985935D01*
X175791000Y-131988337D01*
X175815386Y-131985935D01*
X175838835Y-131978822D01*
X175860446Y-131967271D01*
X175887626Y-131942636D01*
X175950734Y-131865739D01*
X175950736Y-131865736D01*
X176038443Y-131793756D01*
X176138508Y-131740271D01*
X176247084Y-131707334D01*
X176360000Y-131696213D01*
X176472915Y-131707334D01*
X176581491Y-131740271D01*
X176681556Y-131793756D01*
X176769264Y-131865736D01*
X176841244Y-131953443D01*
X176884767Y-132034869D01*
X176898373Y-132055232D01*
X176915700Y-132072560D01*
X176936075Y-132086174D01*
X176958713Y-132095551D01*
X176982747Y-132100332D01*
X177007251Y-132100332D01*
X177031285Y-132095552D01*
X177053924Y-132086175D01*
X177074298Y-132072561D01*
X177091626Y-132055234D01*
X177105240Y-132034858D01*
X177148756Y-131953444D01*
X177220734Y-131865739D01*
X177220736Y-131865736D01*
X177308443Y-131793756D01*
X177408508Y-131740271D01*
X177517084Y-131707334D01*
X177630000Y-131696213D01*
X177742915Y-131707334D01*
X177742915Y-131707334D01*
G37*
G36*
X195598252Y-125027818D02*
X195598254Y-125027819D01*
X195598255Y-125027819D01*
X195971513Y-125182427D01*
X195971514Y-125182428D01*
X196307439Y-125406886D01*
X196593114Y-125692561D01*
X196593116Y-125692564D01*
X196817573Y-126028487D01*
X196972181Y-126401745D01*
X197051000Y-126797994D01*
X197051000Y-127202006D01*
X196972181Y-127598255D01*
X196817573Y-127971513D01*
X196817572Y-127971514D01*
X196593114Y-128307439D01*
X196307439Y-128593114D01*
X196307436Y-128593116D01*
X195971513Y-128817573D01*
X195598255Y-128972181D01*
X195598254Y-128972181D01*
X195598252Y-128972182D01*
X195202007Y-129051000D01*
X194797993Y-129051000D01*
X194401748Y-128972182D01*
X194401746Y-128972181D01*
X194401745Y-128972181D01*
X194028487Y-128817573D01*
X193692564Y-128593116D01*
X193692561Y-128593114D01*
X193406886Y-128307439D01*
X193182428Y-127971514D01*
X193182427Y-127971513D01*
X193027819Y-127598255D01*
X192949000Y-127202006D01*
X192949000Y-126797994D01*
X193027819Y-126401745D01*
X193182427Y-126028487D01*
X193406884Y-125692564D01*
X193406886Y-125692561D01*
X193692561Y-125406886D01*
X194028486Y-125182428D01*
X194028487Y-125182427D01*
X194401745Y-125027819D01*
X194401746Y-125027819D01*
X194401748Y-125027818D01*
X194797993Y-124949000D01*
X195202007Y-124949000D01*
X195598252Y-125027818D01*
X195598252Y-125027818D01*
G37*
G36*
X95598252Y-125027818D02*
X95598254Y-125027819D01*
X95598255Y-125027819D01*
X95971513Y-125182427D01*
X95971514Y-125182428D01*
X96307439Y-125406886D01*
X96593114Y-125692561D01*
X96593116Y-125692564D01*
X96817573Y-126028487D01*
X96972181Y-126401745D01*
X97051000Y-126797994D01*
X97051000Y-127202006D01*
X96972181Y-127598255D01*
X96817573Y-127971513D01*
X96817572Y-127971514D01*
X96593114Y-128307439D01*
X96307439Y-128593114D01*
X96307436Y-128593116D01*
X95971513Y-128817573D01*
X95598255Y-128972181D01*
X95598254Y-128972181D01*
X95598252Y-128972182D01*
X95202007Y-129051000D01*
X94797993Y-129051000D01*
X94401748Y-128972182D01*
X94401746Y-128972181D01*
X94401745Y-128972181D01*
X94028487Y-128817573D01*
X93692564Y-128593116D01*
X93692561Y-128593114D01*
X93406886Y-128307439D01*
X93182428Y-127971514D01*
X93182427Y-127971513D01*
X93027819Y-127598255D01*
X92949000Y-127202006D01*
X92949000Y-126797994D01*
X93027819Y-126401745D01*
X93182427Y-126028487D01*
X93406884Y-125692564D01*
X93406886Y-125692561D01*
X93692561Y-125406886D01*
X94028486Y-125182428D01*
X94028487Y-125182427D01*
X94401745Y-125027819D01*
X94401746Y-125027819D01*
X94401748Y-125027818D01*
X94797993Y-124949000D01*
X95202007Y-124949000D01*
X95598252Y-125027818D01*
X95598252Y-125027818D01*
G37*
G36*
X120725239Y-121947101D02*
X120961053Y-122018634D01*
X121178381Y-122134799D01*
X121368871Y-122291129D01*
X121525201Y-122481619D01*
X121641366Y-122698947D01*
X121712899Y-122934761D01*
X121737053Y-123180000D01*
X121712899Y-123425239D01*
X121641366Y-123661053D01*
X121525201Y-123878381D01*
X121368871Y-124068871D01*
X121178381Y-124225201D01*
X120961053Y-124341366D01*
X120725239Y-124412899D01*
X120541457Y-124431000D01*
X120418543Y-124431000D01*
X120234761Y-124412899D01*
X119998947Y-124341366D01*
X119781619Y-124225201D01*
X119591129Y-124068871D01*
X119434799Y-123878381D01*
X119318634Y-123661053D01*
X119247101Y-123425239D01*
X119222947Y-123180000D01*
X119247101Y-122934761D01*
X119318634Y-122698947D01*
X119434799Y-122481619D01*
X119591129Y-122291129D01*
X119781619Y-122134799D01*
X119998947Y-122018634D01*
X120234761Y-121947101D01*
X120418543Y-121929000D01*
X120541457Y-121929000D01*
X120725239Y-121947101D01*
X120725239Y-121947101D01*
G37*
G36*
X135903635Y-121941019D02*
X136084903Y-121977075D01*
X136312571Y-122071378D01*
X136407488Y-122134800D01*
X136517469Y-122208287D01*
X136691713Y-122382531D01*
X136691715Y-122382534D01*
X136828622Y-122587429D01*
X136922925Y-122815097D01*
X136971000Y-123056787D01*
X136971000Y-123303213D01*
X136922925Y-123544903D01*
X136828622Y-123772571D01*
X136740310Y-123904738D01*
X136691713Y-123977469D01*
X136517469Y-124151713D01*
X136517466Y-124151715D01*
X136312571Y-124288622D01*
X136084903Y-124382925D01*
X135934213Y-124412899D01*
X135843214Y-124431000D01*
X135596786Y-124431000D01*
X135505787Y-124412899D01*
X135355097Y-124382925D01*
X135127429Y-124288622D01*
X134922534Y-124151715D01*
X134922531Y-124151713D01*
X134748287Y-123977469D01*
X134699690Y-123904738D01*
X134611378Y-123772571D01*
X134517075Y-123544903D01*
X134469000Y-123303213D01*
X134469000Y-123056787D01*
X134517075Y-122815097D01*
X134611378Y-122587429D01*
X134748285Y-122382534D01*
X134748287Y-122382531D01*
X134922531Y-122208287D01*
X135032512Y-122134800D01*
X135127429Y-122071378D01*
X135355097Y-121977075D01*
X135536365Y-121941019D01*
X135596786Y-121929000D01*
X135843214Y-121929000D01*
X135903635Y-121941019D01*
X135903635Y-121941019D01*
G37*
G36*
X186852527Y-121188736D02*
X186952410Y-121208604D01*
X187234674Y-121325521D01*
X187488705Y-121495259D01*
X187704741Y-121711295D01*
X187874479Y-121965326D01*
X187944677Y-122134800D01*
X187991396Y-122247591D01*
X188051000Y-122547238D01*
X188051000Y-122852762D01*
X188030623Y-122955201D01*
X187991396Y-123152410D01*
X187874479Y-123434674D01*
X187704741Y-123688705D01*
X187488705Y-123904741D01*
X187234674Y-124074479D01*
X186952410Y-124191396D01*
X186852527Y-124211264D01*
X186652762Y-124251000D01*
X186347238Y-124251000D01*
X186147473Y-124211264D01*
X186047590Y-124191396D01*
X185765326Y-124074479D01*
X185511295Y-123904741D01*
X185295259Y-123688705D01*
X185125521Y-123434674D01*
X185008604Y-123152410D01*
X184969377Y-122955201D01*
X184949000Y-122852762D01*
X184949000Y-122547238D01*
X185008604Y-122247591D01*
X185055323Y-122134800D01*
X185125521Y-121965326D01*
X185295259Y-121711295D01*
X185511295Y-121495259D01*
X185765326Y-121325521D01*
X186047590Y-121208604D01*
X186147473Y-121188736D01*
X186347238Y-121149000D01*
X186652762Y-121149000D01*
X186852527Y-121188736D01*
X186852527Y-121188736D01*
G37*
G36*
X170193635Y-121761019D02*
X170374903Y-121797075D01*
X170602571Y-121891378D01*
X170730825Y-121977075D01*
X170807469Y-122028287D01*
X170981713Y-122202531D01*
X170981715Y-122202534D01*
X171118622Y-122407429D01*
X171212925Y-122635097D01*
X171261000Y-122876787D01*
X171261000Y-123123213D01*
X171212925Y-123364903D01*
X171118622Y-123592571D01*
X171047921Y-123698382D01*
X170981713Y-123797469D01*
X170807469Y-123971713D01*
X170807466Y-123971715D01*
X170602571Y-124108622D01*
X170374903Y-124202925D01*
X170224213Y-124232899D01*
X170133214Y-124251000D01*
X169886786Y-124251000D01*
X169795787Y-124232899D01*
X169645097Y-124202925D01*
X169417429Y-124108622D01*
X169212534Y-123971715D01*
X169212531Y-123971713D01*
X169038287Y-123797469D01*
X168972079Y-123698382D01*
X168901378Y-123592571D01*
X168807075Y-123364903D01*
X168759000Y-123123213D01*
X168759000Y-122876787D01*
X168807075Y-122635097D01*
X168901378Y-122407429D01*
X169038285Y-122202534D01*
X169038287Y-122202531D01*
X169212531Y-122028287D01*
X169289175Y-121977075D01*
X169417429Y-121891378D01*
X169645097Y-121797075D01*
X169826365Y-121761019D01*
X169886786Y-121749000D01*
X170133214Y-121749000D01*
X170193635Y-121761019D01*
X170193635Y-121761019D01*
G37*
G36*
X155015239Y-121767101D02*
X155251053Y-121838634D01*
X155468381Y-121954799D01*
X155658871Y-122111129D01*
X155815201Y-122301619D01*
X155931366Y-122518947D01*
X156002899Y-122754761D01*
X156027053Y-123000000D01*
X156002899Y-123245239D01*
X155931366Y-123481053D01*
X155815201Y-123698381D01*
X155658871Y-123888871D01*
X155468381Y-124045201D01*
X155251053Y-124161366D01*
X155015239Y-124232899D01*
X154831457Y-124251000D01*
X154708543Y-124251000D01*
X154524761Y-124232899D01*
X154288947Y-124161366D01*
X154071619Y-124045201D01*
X153881129Y-123888871D01*
X153724799Y-123698381D01*
X153608634Y-123481053D01*
X153537101Y-123245239D01*
X153512947Y-123000000D01*
X153537101Y-122754761D01*
X153608634Y-122518947D01*
X153724799Y-122301619D01*
X153881129Y-122111129D01*
X154071619Y-121954799D01*
X154288947Y-121838634D01*
X154524761Y-121767101D01*
X154708543Y-121749000D01*
X154831457Y-121749000D01*
X155015239Y-121767101D01*
X155015239Y-121767101D01*
G37*
G36*
X148665239Y-120677101D02*
X148901053Y-120748634D01*
X149118381Y-120864799D01*
X149308871Y-121021129D01*
X149465201Y-121211619D01*
X149581366Y-121428947D01*
X149652899Y-121664761D01*
X149677053Y-121910000D01*
X149652899Y-122155239D01*
X149581366Y-122391053D01*
X149465201Y-122608381D01*
X149308871Y-122798871D01*
X149118381Y-122955201D01*
X148901053Y-123071366D01*
X148665239Y-123142899D01*
X148481457Y-123161000D01*
X148358543Y-123161000D01*
X148174761Y-123142899D01*
X147938947Y-123071366D01*
X147721619Y-122955201D01*
X147531129Y-122798871D01*
X147374799Y-122608381D01*
X147258634Y-122391053D01*
X147187101Y-122155239D01*
X147162947Y-121910000D01*
X147187101Y-121664761D01*
X147258634Y-121428947D01*
X147374799Y-121211619D01*
X147531129Y-121021129D01*
X147721619Y-120864799D01*
X147938947Y-120748634D01*
X148174761Y-120677101D01*
X148358543Y-120659000D01*
X148481457Y-120659000D01*
X148665239Y-120677101D01*
X148665239Y-120677101D01*
G37*
G36*
X142245239Y-120677101D02*
X142481053Y-120748634D01*
X142698381Y-120864799D01*
X142888871Y-121021129D01*
X143045201Y-121211619D01*
X143161366Y-121428947D01*
X143232899Y-121664761D01*
X143257053Y-121910000D01*
X143232899Y-122155239D01*
X143161366Y-122391053D01*
X143045201Y-122608381D01*
X142888871Y-122798871D01*
X142698381Y-122955201D01*
X142481053Y-123071366D01*
X142245239Y-123142899D01*
X142061457Y-123161000D01*
X141938543Y-123161000D01*
X141754761Y-123142899D01*
X141518947Y-123071366D01*
X141301619Y-122955201D01*
X141111129Y-122798871D01*
X140954799Y-122608381D01*
X140838634Y-122391053D01*
X140767101Y-122155239D01*
X140742947Y-121910000D01*
X140767101Y-121664761D01*
X140838634Y-121428947D01*
X140954799Y-121211619D01*
X141111129Y-121021129D01*
X141301619Y-120864799D01*
X141518947Y-120748634D01*
X141754761Y-120677101D01*
X141938543Y-120659000D01*
X142061457Y-120659000D01*
X142245239Y-120677101D01*
X142245239Y-120677101D01*
G37*
G36*
X142021411Y-113283526D02*
X142140137Y-113332704D01*
X142308041Y-113402252D01*
X142566007Y-113574619D01*
X142785381Y-113793993D01*
X142957748Y-114051959D01*
X142987248Y-114123179D01*
X143056348Y-114290000D01*
X143076474Y-114338590D01*
X143137000Y-114642875D01*
X143137000Y-114953125D01*
X143076474Y-115257410D01*
X142957748Y-115544041D01*
X142785381Y-115802007D01*
X142566007Y-116021381D01*
X142308041Y-116193748D01*
X142140137Y-116263296D01*
X142021411Y-116312474D01*
X141717125Y-116373000D01*
X141406875Y-116373000D01*
X141102589Y-116312474D01*
X140983863Y-116263296D01*
X140815959Y-116193748D01*
X140557993Y-116021381D01*
X140338619Y-115802007D01*
X140166252Y-115544041D01*
X140047526Y-115257410D01*
X139987000Y-114953125D01*
X139987000Y-114642875D01*
X140047526Y-114338590D01*
X140067653Y-114290000D01*
X140136752Y-114123179D01*
X140166252Y-114051959D01*
X140338619Y-113793993D01*
X140557993Y-113574619D01*
X140815959Y-113402252D01*
X140983863Y-113332704D01*
X141102589Y-113283526D01*
X141406875Y-113223000D01*
X141717125Y-113223000D01*
X142021411Y-113283526D01*
X142021411Y-113283526D01*
G37*
G36*
X168691411Y-113283526D02*
X168810137Y-113332704D01*
X168978041Y-113402252D01*
X169236007Y-113574619D01*
X169455381Y-113793993D01*
X169627748Y-114051959D01*
X169657248Y-114123179D01*
X169726348Y-114290000D01*
X169746474Y-114338590D01*
X169807000Y-114642875D01*
X169807000Y-114953125D01*
X169746474Y-115257410D01*
X169627748Y-115544041D01*
X169455381Y-115802007D01*
X169236007Y-116021381D01*
X168978041Y-116193748D01*
X168810137Y-116263296D01*
X168691411Y-116312474D01*
X168387125Y-116373000D01*
X168076875Y-116373000D01*
X167772589Y-116312474D01*
X167653863Y-116263296D01*
X167485959Y-116193748D01*
X167227993Y-116021381D01*
X167008619Y-115802007D01*
X166836252Y-115544041D01*
X166717526Y-115257410D01*
X166657000Y-114953125D01*
X166657000Y-114642875D01*
X166717526Y-114338590D01*
X166737653Y-114290000D01*
X166806752Y-114123179D01*
X166836252Y-114051959D01*
X167008619Y-113793993D01*
X167227993Y-113574619D01*
X167485959Y-113402252D01*
X167653863Y-113332704D01*
X167772589Y-113283526D01*
X168076875Y-113223000D01*
X168387125Y-113223000D01*
X168691411Y-113283526D01*
X168691411Y-113283526D01*
G37*
G36*
X97532821Y-113451313D02*
X97532824Y-113451314D01*
X97532825Y-113451314D01*
X97693239Y-113499975D01*
X97693241Y-113499976D01*
X97693244Y-113499977D01*
X97841078Y-113578995D01*
X97970659Y-113685341D01*
X98077005Y-113814922D01*
X98156023Y-113962756D01*
X98156024Y-113962759D01*
X98156025Y-113962761D01*
X98183083Y-114051959D01*
X98204687Y-114123179D01*
X98221117Y-114290000D01*
X98204687Y-114456821D01*
X98156023Y-114617244D01*
X98077005Y-114765078D01*
X97970659Y-114894659D01*
X97841078Y-115001005D01*
X97693244Y-115080023D01*
X97693241Y-115080024D01*
X97693239Y-115080025D01*
X97532825Y-115128686D01*
X97532824Y-115128686D01*
X97532821Y-115128687D01*
X97407804Y-115141000D01*
X97324196Y-115141000D01*
X97199179Y-115128687D01*
X97199176Y-115128686D01*
X97199175Y-115128686D01*
X97038761Y-115080025D01*
X97038759Y-115080024D01*
X97038756Y-115080023D01*
X96890922Y-115001005D01*
X96761341Y-114894659D01*
X96654995Y-114765078D01*
X96575977Y-114617244D01*
X96527313Y-114456821D01*
X96510883Y-114290000D01*
X96527313Y-114123179D01*
X96548917Y-114051959D01*
X96575975Y-113962761D01*
X96575976Y-113962759D01*
X96575977Y-113962756D01*
X96654995Y-113814922D01*
X96761341Y-113685341D01*
X96890922Y-113578995D01*
X97038756Y-113499977D01*
X97038759Y-113499976D01*
X97038761Y-113499975D01*
X97199175Y-113451314D01*
X97199176Y-113451314D01*
X97199179Y-113451313D01*
X97324196Y-113439000D01*
X97407804Y-113439000D01*
X97532821Y-113451313D01*
X97532821Y-113451313D01*
G37*
G36*
X133092821Y-113451313D02*
X133092824Y-113451314D01*
X133092825Y-113451314D01*
X133253239Y-113499975D01*
X133253241Y-113499976D01*
X133253244Y-113499977D01*
X133401078Y-113578995D01*
X133530659Y-113685341D01*
X133637005Y-113814922D01*
X133716023Y-113962756D01*
X133716024Y-113962759D01*
X133716025Y-113962761D01*
X133743083Y-114051959D01*
X133764687Y-114123179D01*
X133781117Y-114290000D01*
X133764687Y-114456821D01*
X133716023Y-114617244D01*
X133637005Y-114765078D01*
X133530659Y-114894659D01*
X133401078Y-115001005D01*
X133253244Y-115080023D01*
X133253241Y-115080024D01*
X133253239Y-115080025D01*
X133092825Y-115128686D01*
X133092824Y-115128686D01*
X133092821Y-115128687D01*
X132967804Y-115141000D01*
X132884196Y-115141000D01*
X132759179Y-115128687D01*
X132759176Y-115128686D01*
X132759175Y-115128686D01*
X132598761Y-115080025D01*
X132598759Y-115080024D01*
X132598756Y-115080023D01*
X132450922Y-115001005D01*
X132321341Y-114894659D01*
X132214995Y-114765078D01*
X132135977Y-114617244D01*
X132087313Y-114456821D01*
X132070883Y-114290000D01*
X132087313Y-114123179D01*
X132108917Y-114051959D01*
X132135975Y-113962761D01*
X132135976Y-113962759D01*
X132135977Y-113962756D01*
X132214995Y-113814922D01*
X132321341Y-113685341D01*
X132450922Y-113578995D01*
X132598756Y-113499977D01*
X132598759Y-113499976D01*
X132598761Y-113499975D01*
X132759175Y-113451314D01*
X132759176Y-113451314D01*
X132759179Y-113451313D01*
X132884196Y-113439000D01*
X132967804Y-113439000D01*
X133092821Y-113451313D01*
X133092821Y-113451313D01*
G37*
G36*
X107692821Y-113451313D02*
X107692824Y-113451314D01*
X107692825Y-113451314D01*
X107853239Y-113499975D01*
X107853241Y-113499976D01*
X107853244Y-113499977D01*
X108001078Y-113578995D01*
X108130659Y-113685341D01*
X108237005Y-113814922D01*
X108316023Y-113962756D01*
X108316024Y-113962759D01*
X108316025Y-113962761D01*
X108343083Y-114051959D01*
X108364687Y-114123179D01*
X108381117Y-114290000D01*
X108364687Y-114456821D01*
X108316023Y-114617244D01*
X108237005Y-114765078D01*
X108130659Y-114894659D01*
X108001078Y-115001005D01*
X107853244Y-115080023D01*
X107853241Y-115080024D01*
X107853239Y-115080025D01*
X107692825Y-115128686D01*
X107692824Y-115128686D01*
X107692821Y-115128687D01*
X107567804Y-115141000D01*
X107484196Y-115141000D01*
X107359179Y-115128687D01*
X107359176Y-115128686D01*
X107359175Y-115128686D01*
X107198761Y-115080025D01*
X107198759Y-115080024D01*
X107198756Y-115080023D01*
X107050922Y-115001005D01*
X106921341Y-114894659D01*
X106814995Y-114765078D01*
X106735977Y-114617244D01*
X106687313Y-114456821D01*
X106670883Y-114290000D01*
X106687313Y-114123179D01*
X106708917Y-114051959D01*
X106735975Y-113962761D01*
X106735976Y-113962759D01*
X106735977Y-113962756D01*
X106814995Y-113814922D01*
X106921341Y-113685341D01*
X107050922Y-113578995D01*
X107198756Y-113499977D01*
X107198759Y-113499976D01*
X107198761Y-113499975D01*
X107359175Y-113451314D01*
X107359176Y-113451314D01*
X107359179Y-113451313D01*
X107484196Y-113439000D01*
X107567804Y-113439000D01*
X107692821Y-113451313D01*
X107692821Y-113451313D01*
G37*
G36*
X130552821Y-113451313D02*
X130552824Y-113451314D01*
X130552825Y-113451314D01*
X130713239Y-113499975D01*
X130713241Y-113499976D01*
X130713244Y-113499977D01*
X130861078Y-113578995D01*
X130990659Y-113685341D01*
X131097005Y-113814922D01*
X131176023Y-113962756D01*
X131176024Y-113962759D01*
X131176025Y-113962761D01*
X131203083Y-114051959D01*
X131224687Y-114123179D01*
X131241117Y-114290000D01*
X131224687Y-114456821D01*
X131176023Y-114617244D01*
X131097005Y-114765078D01*
X130990659Y-114894659D01*
X130861078Y-115001005D01*
X130713244Y-115080023D01*
X130713241Y-115080024D01*
X130713239Y-115080025D01*
X130552825Y-115128686D01*
X130552824Y-115128686D01*
X130552821Y-115128687D01*
X130427804Y-115141000D01*
X130344196Y-115141000D01*
X130219179Y-115128687D01*
X130219176Y-115128686D01*
X130219175Y-115128686D01*
X130058761Y-115080025D01*
X130058759Y-115080024D01*
X130058756Y-115080023D01*
X129910922Y-115001005D01*
X129781341Y-114894659D01*
X129674995Y-114765078D01*
X129595977Y-114617244D01*
X129547313Y-114456821D01*
X129530883Y-114290000D01*
X129547313Y-114123179D01*
X129568917Y-114051959D01*
X129595975Y-113962761D01*
X129595976Y-113962759D01*
X129595977Y-113962756D01*
X129674995Y-113814922D01*
X129781341Y-113685341D01*
X129910922Y-113578995D01*
X130058756Y-113499977D01*
X130058759Y-113499976D01*
X130058761Y-113499975D01*
X130219175Y-113451314D01*
X130219176Y-113451314D01*
X130219179Y-113451313D01*
X130344196Y-113439000D01*
X130427804Y-113439000D01*
X130552821Y-113451313D01*
X130552821Y-113451313D01*
G37*
G36*
X128012821Y-113451313D02*
X128012824Y-113451314D01*
X128012825Y-113451314D01*
X128173239Y-113499975D01*
X128173241Y-113499976D01*
X128173244Y-113499977D01*
X128321078Y-113578995D01*
X128450659Y-113685341D01*
X128557005Y-113814922D01*
X128636023Y-113962756D01*
X128636024Y-113962759D01*
X128636025Y-113962761D01*
X128663083Y-114051959D01*
X128684687Y-114123179D01*
X128701117Y-114290000D01*
X128684687Y-114456821D01*
X128636023Y-114617244D01*
X128557005Y-114765078D01*
X128450659Y-114894659D01*
X128321078Y-115001005D01*
X128173244Y-115080023D01*
X128173241Y-115080024D01*
X128173239Y-115080025D01*
X128012825Y-115128686D01*
X128012824Y-115128686D01*
X128012821Y-115128687D01*
X127887804Y-115141000D01*
X127804196Y-115141000D01*
X127679179Y-115128687D01*
X127679176Y-115128686D01*
X127679175Y-115128686D01*
X127518761Y-115080025D01*
X127518759Y-115080024D01*
X127518756Y-115080023D01*
X127370922Y-115001005D01*
X127241341Y-114894659D01*
X127134995Y-114765078D01*
X127055977Y-114617244D01*
X127007313Y-114456821D01*
X126990883Y-114290000D01*
X127007313Y-114123179D01*
X127028917Y-114051959D01*
X127055975Y-113962761D01*
X127055976Y-113962759D01*
X127055977Y-113962756D01*
X127134995Y-113814922D01*
X127241341Y-113685341D01*
X127370922Y-113578995D01*
X127518756Y-113499977D01*
X127518759Y-113499976D01*
X127518761Y-113499975D01*
X127679175Y-113451314D01*
X127679176Y-113451314D01*
X127679179Y-113451313D01*
X127804196Y-113439000D01*
X127887804Y-113439000D01*
X128012821Y-113451313D01*
X128012821Y-113451313D01*
G37*
G36*
X125472821Y-113451313D02*
X125472824Y-113451314D01*
X125472825Y-113451314D01*
X125633239Y-113499975D01*
X125633241Y-113499976D01*
X125633244Y-113499977D01*
X125781078Y-113578995D01*
X125910659Y-113685341D01*
X126017005Y-113814922D01*
X126096023Y-113962756D01*
X126096024Y-113962759D01*
X126096025Y-113962761D01*
X126123083Y-114051959D01*
X126144687Y-114123179D01*
X126161117Y-114290000D01*
X126144687Y-114456821D01*
X126096023Y-114617244D01*
X126017005Y-114765078D01*
X125910659Y-114894659D01*
X125781078Y-115001005D01*
X125633244Y-115080023D01*
X125633241Y-115080024D01*
X125633239Y-115080025D01*
X125472825Y-115128686D01*
X125472824Y-115128686D01*
X125472821Y-115128687D01*
X125347804Y-115141000D01*
X125264196Y-115141000D01*
X125139179Y-115128687D01*
X125139176Y-115128686D01*
X125139175Y-115128686D01*
X124978761Y-115080025D01*
X124978759Y-115080024D01*
X124978756Y-115080023D01*
X124830922Y-115001005D01*
X124701341Y-114894659D01*
X124594995Y-114765078D01*
X124515977Y-114617244D01*
X124467313Y-114456821D01*
X124450883Y-114290000D01*
X124467313Y-114123179D01*
X124488917Y-114051959D01*
X124515975Y-113962761D01*
X124515976Y-113962759D01*
X124515977Y-113962756D01*
X124594995Y-113814922D01*
X124701341Y-113685341D01*
X124830922Y-113578995D01*
X124978756Y-113499977D01*
X124978759Y-113499976D01*
X124978761Y-113499975D01*
X125139175Y-113451314D01*
X125139176Y-113451314D01*
X125139179Y-113451313D01*
X125264196Y-113439000D01*
X125347804Y-113439000D01*
X125472821Y-113451313D01*
X125472821Y-113451313D01*
G37*
G36*
X122932821Y-113451313D02*
X122932824Y-113451314D01*
X122932825Y-113451314D01*
X123093239Y-113499975D01*
X123093241Y-113499976D01*
X123093244Y-113499977D01*
X123241078Y-113578995D01*
X123370659Y-113685341D01*
X123477005Y-113814922D01*
X123556023Y-113962756D01*
X123556024Y-113962759D01*
X123556025Y-113962761D01*
X123583083Y-114051959D01*
X123604687Y-114123179D01*
X123621117Y-114290000D01*
X123604687Y-114456821D01*
X123556023Y-114617244D01*
X123477005Y-114765078D01*
X123370659Y-114894659D01*
X123241078Y-115001005D01*
X123093244Y-115080023D01*
X123093241Y-115080024D01*
X123093239Y-115080025D01*
X122932825Y-115128686D01*
X122932824Y-115128686D01*
X122932821Y-115128687D01*
X122807804Y-115141000D01*
X122724196Y-115141000D01*
X122599179Y-115128687D01*
X122599176Y-115128686D01*
X122599175Y-115128686D01*
X122438761Y-115080025D01*
X122438759Y-115080024D01*
X122438756Y-115080023D01*
X122290922Y-115001005D01*
X122161341Y-114894659D01*
X122054995Y-114765078D01*
X121975977Y-114617244D01*
X121927313Y-114456821D01*
X121910883Y-114290000D01*
X121927313Y-114123179D01*
X121948917Y-114051959D01*
X121975975Y-113962761D01*
X121975976Y-113962759D01*
X121975977Y-113962756D01*
X122054995Y-113814922D01*
X122161341Y-113685341D01*
X122290922Y-113578995D01*
X122438756Y-113499977D01*
X122438759Y-113499976D01*
X122438761Y-113499975D01*
X122599175Y-113451314D01*
X122599176Y-113451314D01*
X122599179Y-113451313D01*
X122724196Y-113439000D01*
X122807804Y-113439000D01*
X122932821Y-113451313D01*
X122932821Y-113451313D01*
G37*
G36*
X117852821Y-113451313D02*
X117852824Y-113451314D01*
X117852825Y-113451314D01*
X118013239Y-113499975D01*
X118013241Y-113499976D01*
X118013244Y-113499977D01*
X118161078Y-113578995D01*
X118290659Y-113685341D01*
X118397005Y-113814922D01*
X118476023Y-113962756D01*
X118476024Y-113962759D01*
X118476025Y-113962761D01*
X118503083Y-114051959D01*
X118524687Y-114123179D01*
X118541117Y-114290000D01*
X118524687Y-114456821D01*
X118476023Y-114617244D01*
X118397005Y-114765078D01*
X118290659Y-114894659D01*
X118161078Y-115001005D01*
X118013244Y-115080023D01*
X118013241Y-115080024D01*
X118013239Y-115080025D01*
X117852825Y-115128686D01*
X117852824Y-115128686D01*
X117852821Y-115128687D01*
X117727804Y-115141000D01*
X117644196Y-115141000D01*
X117519179Y-115128687D01*
X117519176Y-115128686D01*
X117519175Y-115128686D01*
X117358761Y-115080025D01*
X117358759Y-115080024D01*
X117358756Y-115080023D01*
X117210922Y-115001005D01*
X117081341Y-114894659D01*
X116974995Y-114765078D01*
X116895977Y-114617244D01*
X116847313Y-114456821D01*
X116830883Y-114290000D01*
X116847313Y-114123179D01*
X116868917Y-114051959D01*
X116895975Y-113962761D01*
X116895976Y-113962759D01*
X116895977Y-113962756D01*
X116974995Y-113814922D01*
X117081341Y-113685341D01*
X117210922Y-113578995D01*
X117358756Y-113499977D01*
X117358759Y-113499976D01*
X117358761Y-113499975D01*
X117519175Y-113451314D01*
X117519176Y-113451314D01*
X117519179Y-113451313D01*
X117644196Y-113439000D01*
X117727804Y-113439000D01*
X117852821Y-113451313D01*
X117852821Y-113451313D01*
G37*
G36*
X120392821Y-113451313D02*
X120392824Y-113451314D01*
X120392825Y-113451314D01*
X120553239Y-113499975D01*
X120553241Y-113499976D01*
X120553244Y-113499977D01*
X120701078Y-113578995D01*
X120830659Y-113685341D01*
X120937005Y-113814922D01*
X121016023Y-113962756D01*
X121016024Y-113962759D01*
X121016025Y-113962761D01*
X121043083Y-114051959D01*
X121064687Y-114123179D01*
X121081117Y-114290000D01*
X121064687Y-114456821D01*
X121016023Y-114617244D01*
X120937005Y-114765078D01*
X120830659Y-114894659D01*
X120701078Y-115001005D01*
X120553244Y-115080023D01*
X120553241Y-115080024D01*
X120553239Y-115080025D01*
X120392825Y-115128686D01*
X120392824Y-115128686D01*
X120392821Y-115128687D01*
X120267804Y-115141000D01*
X120184196Y-115141000D01*
X120059179Y-115128687D01*
X120059176Y-115128686D01*
X120059175Y-115128686D01*
X119898761Y-115080025D01*
X119898759Y-115080024D01*
X119898756Y-115080023D01*
X119750922Y-115001005D01*
X119621341Y-114894659D01*
X119514995Y-114765078D01*
X119435977Y-114617244D01*
X119387313Y-114456821D01*
X119370883Y-114290000D01*
X119387313Y-114123179D01*
X119408917Y-114051959D01*
X119435975Y-113962761D01*
X119435976Y-113962759D01*
X119435977Y-113962756D01*
X119514995Y-113814922D01*
X119621341Y-113685341D01*
X119750922Y-113578995D01*
X119898756Y-113499977D01*
X119898759Y-113499976D01*
X119898761Y-113499975D01*
X120059175Y-113451314D01*
X120059176Y-113451314D01*
X120059179Y-113451313D01*
X120184196Y-113439000D01*
X120267804Y-113439000D01*
X120392821Y-113451313D01*
X120392821Y-113451313D01*
G37*
G36*
X102612821Y-113451313D02*
X102612824Y-113451314D01*
X102612825Y-113451314D01*
X102773239Y-113499975D01*
X102773241Y-113499976D01*
X102773244Y-113499977D01*
X102921078Y-113578995D01*
X103050659Y-113685341D01*
X103157005Y-113814922D01*
X103236023Y-113962756D01*
X103236024Y-113962759D01*
X103236025Y-113962761D01*
X103263083Y-114051959D01*
X103284687Y-114123179D01*
X103301117Y-114290000D01*
X103284687Y-114456821D01*
X103236023Y-114617244D01*
X103157005Y-114765078D01*
X103050659Y-114894659D01*
X102921078Y-115001005D01*
X102773244Y-115080023D01*
X102773241Y-115080024D01*
X102773239Y-115080025D01*
X102612825Y-115128686D01*
X102612824Y-115128686D01*
X102612821Y-115128687D01*
X102487804Y-115141000D01*
X102404196Y-115141000D01*
X102279179Y-115128687D01*
X102279176Y-115128686D01*
X102279175Y-115128686D01*
X102118761Y-115080025D01*
X102118759Y-115080024D01*
X102118756Y-115080023D01*
X101970922Y-115001005D01*
X101841341Y-114894659D01*
X101734995Y-114765078D01*
X101655977Y-114617244D01*
X101607313Y-114456821D01*
X101590883Y-114290000D01*
X101607313Y-114123179D01*
X101628917Y-114051959D01*
X101655975Y-113962761D01*
X101655976Y-113962759D01*
X101655977Y-113962756D01*
X101734995Y-113814922D01*
X101841341Y-113685341D01*
X101970922Y-113578995D01*
X102118756Y-113499977D01*
X102118759Y-113499976D01*
X102118761Y-113499975D01*
X102279175Y-113451314D01*
X102279176Y-113451314D01*
X102279179Y-113451313D01*
X102404196Y-113439000D01*
X102487804Y-113439000D01*
X102612821Y-113451313D01*
X102612821Y-113451313D01*
G37*
G36*
X105152821Y-113451313D02*
X105152824Y-113451314D01*
X105152825Y-113451314D01*
X105313239Y-113499975D01*
X105313241Y-113499976D01*
X105313244Y-113499977D01*
X105461078Y-113578995D01*
X105590659Y-113685341D01*
X105697005Y-113814922D01*
X105776023Y-113962756D01*
X105776024Y-113962759D01*
X105776025Y-113962761D01*
X105803083Y-114051959D01*
X105824687Y-114123179D01*
X105841117Y-114290000D01*
X105824687Y-114456821D01*
X105776023Y-114617244D01*
X105697005Y-114765078D01*
X105590659Y-114894659D01*
X105461078Y-115001005D01*
X105313244Y-115080023D01*
X105313241Y-115080024D01*
X105313239Y-115080025D01*
X105152825Y-115128686D01*
X105152824Y-115128686D01*
X105152821Y-115128687D01*
X105027804Y-115141000D01*
X104944196Y-115141000D01*
X104819179Y-115128687D01*
X104819176Y-115128686D01*
X104819175Y-115128686D01*
X104658761Y-115080025D01*
X104658759Y-115080024D01*
X104658756Y-115080023D01*
X104510922Y-115001005D01*
X104381341Y-114894659D01*
X104274995Y-114765078D01*
X104195977Y-114617244D01*
X104147313Y-114456821D01*
X104130883Y-114290000D01*
X104147313Y-114123179D01*
X104168917Y-114051959D01*
X104195975Y-113962761D01*
X104195976Y-113962759D01*
X104195977Y-113962756D01*
X104274995Y-113814922D01*
X104381341Y-113685341D01*
X104510922Y-113578995D01*
X104658756Y-113499977D01*
X104658759Y-113499976D01*
X104658761Y-113499975D01*
X104819175Y-113451314D01*
X104819176Y-113451314D01*
X104819179Y-113451313D01*
X104944196Y-113439000D01*
X105027804Y-113439000D01*
X105152821Y-113451313D01*
X105152821Y-113451313D01*
G37*
G36*
X100072821Y-113451313D02*
X100072824Y-113451314D01*
X100072825Y-113451314D01*
X100233239Y-113499975D01*
X100233241Y-113499976D01*
X100233244Y-113499977D01*
X100381078Y-113578995D01*
X100510659Y-113685341D01*
X100617005Y-113814922D01*
X100696023Y-113962756D01*
X100696024Y-113962759D01*
X100696025Y-113962761D01*
X100723083Y-114051959D01*
X100744687Y-114123179D01*
X100761117Y-114290000D01*
X100744687Y-114456821D01*
X100696023Y-114617244D01*
X100617005Y-114765078D01*
X100510659Y-114894659D01*
X100381078Y-115001005D01*
X100233244Y-115080023D01*
X100233241Y-115080024D01*
X100233239Y-115080025D01*
X100072825Y-115128686D01*
X100072824Y-115128686D01*
X100072821Y-115128687D01*
X99947804Y-115141000D01*
X99864196Y-115141000D01*
X99739179Y-115128687D01*
X99739176Y-115128686D01*
X99739175Y-115128686D01*
X99578761Y-115080025D01*
X99578759Y-115080024D01*
X99578756Y-115080023D01*
X99430922Y-115001005D01*
X99301341Y-114894659D01*
X99194995Y-114765078D01*
X99115977Y-114617244D01*
X99067313Y-114456821D01*
X99050883Y-114290000D01*
X99067313Y-114123179D01*
X99088917Y-114051959D01*
X99115975Y-113962761D01*
X99115976Y-113962759D01*
X99115977Y-113962756D01*
X99194995Y-113814922D01*
X99301341Y-113685341D01*
X99430922Y-113578995D01*
X99578756Y-113499977D01*
X99578759Y-113499976D01*
X99578761Y-113499975D01*
X99739175Y-113451314D01*
X99739176Y-113451314D01*
X99739179Y-113451313D01*
X99864196Y-113439000D01*
X99947804Y-113439000D01*
X100072821Y-113451313D01*
X100072821Y-113451313D01*
G37*
G36*
X112772821Y-113451313D02*
X112772824Y-113451314D01*
X112772825Y-113451314D01*
X112933239Y-113499975D01*
X112933241Y-113499976D01*
X112933244Y-113499977D01*
X113081078Y-113578995D01*
X113210659Y-113685341D01*
X113317005Y-113814922D01*
X113396023Y-113962756D01*
X113396024Y-113962759D01*
X113396025Y-113962761D01*
X113423083Y-114051959D01*
X113444687Y-114123179D01*
X113461117Y-114290000D01*
X113444687Y-114456821D01*
X113396023Y-114617244D01*
X113317005Y-114765078D01*
X113210659Y-114894659D01*
X113081078Y-115001005D01*
X112933244Y-115080023D01*
X112933241Y-115080024D01*
X112933239Y-115080025D01*
X112772825Y-115128686D01*
X112772824Y-115128686D01*
X112772821Y-115128687D01*
X112647804Y-115141000D01*
X112564196Y-115141000D01*
X112439179Y-115128687D01*
X112439176Y-115128686D01*
X112439175Y-115128686D01*
X112278761Y-115080025D01*
X112278759Y-115080024D01*
X112278756Y-115080023D01*
X112130922Y-115001005D01*
X112001341Y-114894659D01*
X111894995Y-114765078D01*
X111815977Y-114617244D01*
X111767313Y-114456821D01*
X111750883Y-114290000D01*
X111767313Y-114123179D01*
X111788917Y-114051959D01*
X111815975Y-113962761D01*
X111815976Y-113962759D01*
X111815977Y-113962756D01*
X111894995Y-113814922D01*
X112001341Y-113685341D01*
X112130922Y-113578995D01*
X112278756Y-113499977D01*
X112278759Y-113499976D01*
X112278761Y-113499975D01*
X112439175Y-113451314D01*
X112439176Y-113451314D01*
X112439179Y-113451313D01*
X112564196Y-113439000D01*
X112647804Y-113439000D01*
X112772821Y-113451313D01*
X112772821Y-113451313D01*
G37*
G36*
X115312821Y-113451313D02*
X115312824Y-113451314D01*
X115312825Y-113451314D01*
X115473239Y-113499975D01*
X115473241Y-113499976D01*
X115473244Y-113499977D01*
X115621078Y-113578995D01*
X115750659Y-113685341D01*
X115857005Y-113814922D01*
X115936023Y-113962756D01*
X115936024Y-113962759D01*
X115936025Y-113962761D01*
X115963083Y-114051959D01*
X115984687Y-114123179D01*
X116001117Y-114290000D01*
X115984687Y-114456821D01*
X115936023Y-114617244D01*
X115857005Y-114765078D01*
X115750659Y-114894659D01*
X115621078Y-115001005D01*
X115473244Y-115080023D01*
X115473241Y-115080024D01*
X115473239Y-115080025D01*
X115312825Y-115128686D01*
X115312824Y-115128686D01*
X115312821Y-115128687D01*
X115187804Y-115141000D01*
X115104196Y-115141000D01*
X114979179Y-115128687D01*
X114979176Y-115128686D01*
X114979175Y-115128686D01*
X114818761Y-115080025D01*
X114818759Y-115080024D01*
X114818756Y-115080023D01*
X114670922Y-115001005D01*
X114541341Y-114894659D01*
X114434995Y-114765078D01*
X114355977Y-114617244D01*
X114307313Y-114456821D01*
X114290883Y-114290000D01*
X114307313Y-114123179D01*
X114328917Y-114051959D01*
X114355975Y-113962761D01*
X114355976Y-113962759D01*
X114355977Y-113962756D01*
X114434995Y-113814922D01*
X114541341Y-113685341D01*
X114670922Y-113578995D01*
X114818756Y-113499977D01*
X114818759Y-113499976D01*
X114818761Y-113499975D01*
X114979175Y-113451314D01*
X114979176Y-113451314D01*
X114979179Y-113451313D01*
X115104196Y-113439000D01*
X115187804Y-113439000D01*
X115312821Y-113451313D01*
X115312821Y-113451313D01*
G37*
G36*
X110232821Y-113451313D02*
X110232824Y-113451314D01*
X110232825Y-113451314D01*
X110393239Y-113499975D01*
X110393241Y-113499976D01*
X110393244Y-113499977D01*
X110541078Y-113578995D01*
X110670659Y-113685341D01*
X110777005Y-113814922D01*
X110856023Y-113962756D01*
X110856024Y-113962759D01*
X110856025Y-113962761D01*
X110883083Y-114051959D01*
X110904687Y-114123179D01*
X110921117Y-114290000D01*
X110904687Y-114456821D01*
X110856023Y-114617244D01*
X110777005Y-114765078D01*
X110670659Y-114894659D01*
X110541078Y-115001005D01*
X110393244Y-115080023D01*
X110393241Y-115080024D01*
X110393239Y-115080025D01*
X110232825Y-115128686D01*
X110232824Y-115128686D01*
X110232821Y-115128687D01*
X110107804Y-115141000D01*
X110024196Y-115141000D01*
X109899179Y-115128687D01*
X109899176Y-115128686D01*
X109899175Y-115128686D01*
X109738761Y-115080025D01*
X109738759Y-115080024D01*
X109738756Y-115080023D01*
X109590922Y-115001005D01*
X109461341Y-114894659D01*
X109354995Y-114765078D01*
X109275977Y-114617244D01*
X109227313Y-114456821D01*
X109210883Y-114290000D01*
X109227313Y-114123179D01*
X109248917Y-114051959D01*
X109275975Y-113962761D01*
X109275976Y-113962759D01*
X109275977Y-113962756D01*
X109354995Y-113814922D01*
X109461341Y-113685341D01*
X109590922Y-113578995D01*
X109738756Y-113499977D01*
X109738759Y-113499976D01*
X109738761Y-113499975D01*
X109899175Y-113451314D01*
X109899176Y-113451314D01*
X109899179Y-113451313D01*
X110024196Y-113439000D01*
X110107804Y-113439000D01*
X110232821Y-113451313D01*
X110232821Y-113451313D01*
G37*
G36*
X168691411Y-98043526D02*
X168810137Y-98092704D01*
X168978041Y-98162252D01*
X169236007Y-98334619D01*
X169455381Y-98553993D01*
X169627748Y-98811959D01*
X169657248Y-98883179D01*
X169726348Y-99050000D01*
X169746474Y-99098590D01*
X169807000Y-99402875D01*
X169807000Y-99713125D01*
X169746474Y-100017410D01*
X169627748Y-100304041D01*
X169455381Y-100562007D01*
X169236007Y-100781381D01*
X168978041Y-100953748D01*
X168810137Y-101023296D01*
X168691411Y-101072474D01*
X168387125Y-101133000D01*
X168076875Y-101133000D01*
X167772589Y-101072474D01*
X167653863Y-101023296D01*
X167485959Y-100953748D01*
X167227993Y-100781381D01*
X167008619Y-100562007D01*
X166836252Y-100304041D01*
X166717526Y-100017410D01*
X166657000Y-99713125D01*
X166657000Y-99402875D01*
X166717526Y-99098590D01*
X166737653Y-99050000D01*
X166806752Y-98883179D01*
X166836252Y-98811959D01*
X167008619Y-98553993D01*
X167227993Y-98334619D01*
X167485959Y-98162252D01*
X167653863Y-98092704D01*
X167772589Y-98043526D01*
X167924733Y-98013263D01*
X168076875Y-97983000D01*
X168387125Y-97983000D01*
X168691411Y-98043526D01*
X168691411Y-98043526D01*
G37*
G36*
X142021411Y-98043526D02*
X142140137Y-98092704D01*
X142308041Y-98162252D01*
X142566007Y-98334619D01*
X142785381Y-98553993D01*
X142957748Y-98811959D01*
X142987248Y-98883179D01*
X143056348Y-99050000D01*
X143076474Y-99098590D01*
X143137000Y-99402875D01*
X143137000Y-99713125D01*
X143076474Y-100017410D01*
X142957748Y-100304041D01*
X142785381Y-100562007D01*
X142566007Y-100781381D01*
X142308041Y-100953748D01*
X142140137Y-101023296D01*
X142021411Y-101072474D01*
X141717125Y-101133000D01*
X141406875Y-101133000D01*
X141102589Y-101072474D01*
X140983863Y-101023296D01*
X140815959Y-100953748D01*
X140557993Y-100781381D01*
X140338619Y-100562007D01*
X140166252Y-100304041D01*
X140047526Y-100017410D01*
X139987000Y-99713125D01*
X139987000Y-99402875D01*
X140047526Y-99098590D01*
X140067653Y-99050000D01*
X140136752Y-98883179D01*
X140166252Y-98811959D01*
X140338619Y-98553993D01*
X140557993Y-98334619D01*
X140815959Y-98162252D01*
X140983863Y-98092704D01*
X141102589Y-98043526D01*
X141254733Y-98013263D01*
X141406875Y-97983000D01*
X141717125Y-97983000D01*
X142021411Y-98043526D01*
X142021411Y-98043526D01*
G37*
G36*
X107692821Y-98211313D02*
X107692824Y-98211314D01*
X107692825Y-98211314D01*
X107853239Y-98259975D01*
X107853241Y-98259976D01*
X107853244Y-98259977D01*
X108001078Y-98338995D01*
X108130659Y-98445341D01*
X108237005Y-98574922D01*
X108316023Y-98722756D01*
X108316024Y-98722759D01*
X108316025Y-98722761D01*
X108343083Y-98811959D01*
X108364687Y-98883179D01*
X108381117Y-99050000D01*
X108364687Y-99216821D01*
X108316023Y-99377244D01*
X108237005Y-99525078D01*
X108130659Y-99654659D01*
X108001078Y-99761005D01*
X107853244Y-99840023D01*
X107853241Y-99840024D01*
X107853239Y-99840025D01*
X107692825Y-99888686D01*
X107692824Y-99888686D01*
X107692821Y-99888687D01*
X107567804Y-99901000D01*
X107484196Y-99901000D01*
X107359179Y-99888687D01*
X107359176Y-99888686D01*
X107359175Y-99888686D01*
X107198761Y-99840025D01*
X107198759Y-99840024D01*
X107198756Y-99840023D01*
X107050922Y-99761005D01*
X106921341Y-99654659D01*
X106814995Y-99525078D01*
X106735977Y-99377244D01*
X106687313Y-99216821D01*
X106670883Y-99050000D01*
X106687313Y-98883179D01*
X106708917Y-98811959D01*
X106735975Y-98722761D01*
X106735976Y-98722759D01*
X106735977Y-98722756D01*
X106814995Y-98574922D01*
X106921341Y-98445341D01*
X107050922Y-98338995D01*
X107198756Y-98259977D01*
X107198759Y-98259976D01*
X107198761Y-98259975D01*
X107359175Y-98211314D01*
X107359176Y-98211314D01*
X107359179Y-98211313D01*
X107484196Y-98199000D01*
X107567804Y-98199000D01*
X107692821Y-98211313D01*
X107692821Y-98211313D01*
G37*
G36*
X128012821Y-98211313D02*
X128012824Y-98211314D01*
X128012825Y-98211314D01*
X128173239Y-98259975D01*
X128173241Y-98259976D01*
X128173244Y-98259977D01*
X128321078Y-98338995D01*
X128450659Y-98445341D01*
X128557005Y-98574922D01*
X128636023Y-98722756D01*
X128636024Y-98722759D01*
X128636025Y-98722761D01*
X128663083Y-98811959D01*
X128684687Y-98883179D01*
X128701117Y-99050000D01*
X128684687Y-99216821D01*
X128636023Y-99377244D01*
X128557005Y-99525078D01*
X128450659Y-99654659D01*
X128321078Y-99761005D01*
X128173244Y-99840023D01*
X128173241Y-99840024D01*
X128173239Y-99840025D01*
X128012825Y-99888686D01*
X128012824Y-99888686D01*
X128012821Y-99888687D01*
X127887804Y-99901000D01*
X127804196Y-99901000D01*
X127679179Y-99888687D01*
X127679176Y-99888686D01*
X127679175Y-99888686D01*
X127518761Y-99840025D01*
X127518759Y-99840024D01*
X127518756Y-99840023D01*
X127370922Y-99761005D01*
X127241341Y-99654659D01*
X127134995Y-99525078D01*
X127055977Y-99377244D01*
X127007313Y-99216821D01*
X126990883Y-99050000D01*
X127007313Y-98883179D01*
X127028917Y-98811959D01*
X127055975Y-98722761D01*
X127055976Y-98722759D01*
X127055977Y-98722756D01*
X127134995Y-98574922D01*
X127241341Y-98445341D01*
X127370922Y-98338995D01*
X127518756Y-98259977D01*
X127518759Y-98259976D01*
X127518761Y-98259975D01*
X127679175Y-98211314D01*
X127679176Y-98211314D01*
X127679179Y-98211313D01*
X127804196Y-98199000D01*
X127887804Y-98199000D01*
X128012821Y-98211313D01*
X128012821Y-98211313D01*
G37*
G36*
X125472821Y-98211313D02*
X125472824Y-98211314D01*
X125472825Y-98211314D01*
X125633239Y-98259975D01*
X125633241Y-98259976D01*
X125633244Y-98259977D01*
X125781078Y-98338995D01*
X125910659Y-98445341D01*
X126017005Y-98574922D01*
X126096023Y-98722756D01*
X126096024Y-98722759D01*
X126096025Y-98722761D01*
X126123083Y-98811959D01*
X126144687Y-98883179D01*
X126161117Y-99050000D01*
X126144687Y-99216821D01*
X126096023Y-99377244D01*
X126017005Y-99525078D01*
X125910659Y-99654659D01*
X125781078Y-99761005D01*
X125633244Y-99840023D01*
X125633241Y-99840024D01*
X125633239Y-99840025D01*
X125472825Y-99888686D01*
X125472824Y-99888686D01*
X125472821Y-99888687D01*
X125347804Y-99901000D01*
X125264196Y-99901000D01*
X125139179Y-99888687D01*
X125139176Y-99888686D01*
X125139175Y-99888686D01*
X124978761Y-99840025D01*
X124978759Y-99840024D01*
X124978756Y-99840023D01*
X124830922Y-99761005D01*
X124701341Y-99654659D01*
X124594995Y-99525078D01*
X124515977Y-99377244D01*
X124467313Y-99216821D01*
X124450883Y-99050000D01*
X124467313Y-98883179D01*
X124488917Y-98811959D01*
X124515975Y-98722761D01*
X124515976Y-98722759D01*
X124515977Y-98722756D01*
X124594995Y-98574922D01*
X124701341Y-98445341D01*
X124830922Y-98338995D01*
X124978756Y-98259977D01*
X124978759Y-98259976D01*
X124978761Y-98259975D01*
X125139175Y-98211314D01*
X125139176Y-98211314D01*
X125139179Y-98211313D01*
X125264196Y-98199000D01*
X125347804Y-98199000D01*
X125472821Y-98211313D01*
X125472821Y-98211313D01*
G37*
G36*
X122932821Y-98211313D02*
X122932824Y-98211314D01*
X122932825Y-98211314D01*
X123093239Y-98259975D01*
X123093241Y-98259976D01*
X123093244Y-98259977D01*
X123241078Y-98338995D01*
X123370659Y-98445341D01*
X123477005Y-98574922D01*
X123556023Y-98722756D01*
X123556024Y-98722759D01*
X123556025Y-98722761D01*
X123583083Y-98811959D01*
X123604687Y-98883179D01*
X123621117Y-99050000D01*
X123604687Y-99216821D01*
X123556023Y-99377244D01*
X123477005Y-99525078D01*
X123370659Y-99654659D01*
X123241078Y-99761005D01*
X123093244Y-99840023D01*
X123093241Y-99840024D01*
X123093239Y-99840025D01*
X122932825Y-99888686D01*
X122932824Y-99888686D01*
X122932821Y-99888687D01*
X122807804Y-99901000D01*
X122724196Y-99901000D01*
X122599179Y-99888687D01*
X122599176Y-99888686D01*
X122599175Y-99888686D01*
X122438761Y-99840025D01*
X122438759Y-99840024D01*
X122438756Y-99840023D01*
X122290922Y-99761005D01*
X122161341Y-99654659D01*
X122054995Y-99525078D01*
X121975977Y-99377244D01*
X121927313Y-99216821D01*
X121910883Y-99050000D01*
X121927313Y-98883179D01*
X121948917Y-98811959D01*
X121975975Y-98722761D01*
X121975976Y-98722759D01*
X121975977Y-98722756D01*
X122054995Y-98574922D01*
X122161341Y-98445341D01*
X122290922Y-98338995D01*
X122438756Y-98259977D01*
X122438759Y-98259976D01*
X122438761Y-98259975D01*
X122599175Y-98211314D01*
X122599176Y-98211314D01*
X122599179Y-98211313D01*
X122724196Y-98199000D01*
X122807804Y-98199000D01*
X122932821Y-98211313D01*
X122932821Y-98211313D01*
G37*
G36*
X120392821Y-98211313D02*
X120392824Y-98211314D01*
X120392825Y-98211314D01*
X120553239Y-98259975D01*
X120553241Y-98259976D01*
X120553244Y-98259977D01*
X120701078Y-98338995D01*
X120830659Y-98445341D01*
X120937005Y-98574922D01*
X121016023Y-98722756D01*
X121016024Y-98722759D01*
X121016025Y-98722761D01*
X121043083Y-98811959D01*
X121064687Y-98883179D01*
X121081117Y-99050000D01*
X121064687Y-99216821D01*
X121016023Y-99377244D01*
X120937005Y-99525078D01*
X120830659Y-99654659D01*
X120701078Y-99761005D01*
X120553244Y-99840023D01*
X120553241Y-99840024D01*
X120553239Y-99840025D01*
X120392825Y-99888686D01*
X120392824Y-99888686D01*
X120392821Y-99888687D01*
X120267804Y-99901000D01*
X120184196Y-99901000D01*
X120059179Y-99888687D01*
X120059176Y-99888686D01*
X120059175Y-99888686D01*
X119898761Y-99840025D01*
X119898759Y-99840024D01*
X119898756Y-99840023D01*
X119750922Y-99761005D01*
X119621341Y-99654659D01*
X119514995Y-99525078D01*
X119435977Y-99377244D01*
X119387313Y-99216821D01*
X119370883Y-99050000D01*
X119387313Y-98883179D01*
X119408917Y-98811959D01*
X119435975Y-98722761D01*
X119435976Y-98722759D01*
X119435977Y-98722756D01*
X119514995Y-98574922D01*
X119621341Y-98445341D01*
X119750922Y-98338995D01*
X119898756Y-98259977D01*
X119898759Y-98259976D01*
X119898761Y-98259975D01*
X120059175Y-98211314D01*
X120059176Y-98211314D01*
X120059179Y-98211313D01*
X120184196Y-98199000D01*
X120267804Y-98199000D01*
X120392821Y-98211313D01*
X120392821Y-98211313D01*
G37*
G36*
X117852821Y-98211313D02*
X117852824Y-98211314D01*
X117852825Y-98211314D01*
X118013239Y-98259975D01*
X118013241Y-98259976D01*
X118013244Y-98259977D01*
X118161078Y-98338995D01*
X118290659Y-98445341D01*
X118397005Y-98574922D01*
X118476023Y-98722756D01*
X118476024Y-98722759D01*
X118476025Y-98722761D01*
X118503083Y-98811959D01*
X118524687Y-98883179D01*
X118541117Y-99050000D01*
X118524687Y-99216821D01*
X118476023Y-99377244D01*
X118397005Y-99525078D01*
X118290659Y-99654659D01*
X118161078Y-99761005D01*
X118013244Y-99840023D01*
X118013241Y-99840024D01*
X118013239Y-99840025D01*
X117852825Y-99888686D01*
X117852824Y-99888686D01*
X117852821Y-99888687D01*
X117727804Y-99901000D01*
X117644196Y-99901000D01*
X117519179Y-99888687D01*
X117519176Y-99888686D01*
X117519175Y-99888686D01*
X117358761Y-99840025D01*
X117358759Y-99840024D01*
X117358756Y-99840023D01*
X117210922Y-99761005D01*
X117081341Y-99654659D01*
X116974995Y-99525078D01*
X116895977Y-99377244D01*
X116847313Y-99216821D01*
X116830883Y-99050000D01*
X116847313Y-98883179D01*
X116868917Y-98811959D01*
X116895975Y-98722761D01*
X116895976Y-98722759D01*
X116895977Y-98722756D01*
X116974995Y-98574922D01*
X117081341Y-98445341D01*
X117210922Y-98338995D01*
X117358756Y-98259977D01*
X117358759Y-98259976D01*
X117358761Y-98259975D01*
X117519175Y-98211314D01*
X117519176Y-98211314D01*
X117519179Y-98211313D01*
X117644196Y-98199000D01*
X117727804Y-98199000D01*
X117852821Y-98211313D01*
X117852821Y-98211313D01*
G37*
G36*
X115312821Y-98211313D02*
X115312824Y-98211314D01*
X115312825Y-98211314D01*
X115473239Y-98259975D01*
X115473241Y-98259976D01*
X115473244Y-98259977D01*
X115621078Y-98338995D01*
X115750659Y-98445341D01*
X115857005Y-98574922D01*
X115936023Y-98722756D01*
X115936024Y-98722759D01*
X115936025Y-98722761D01*
X115963083Y-98811959D01*
X115984687Y-98883179D01*
X116001117Y-99050000D01*
X115984687Y-99216821D01*
X115936023Y-99377244D01*
X115857005Y-99525078D01*
X115750659Y-99654659D01*
X115621078Y-99761005D01*
X115473244Y-99840023D01*
X115473241Y-99840024D01*
X115473239Y-99840025D01*
X115312825Y-99888686D01*
X115312824Y-99888686D01*
X115312821Y-99888687D01*
X115187804Y-99901000D01*
X115104196Y-99901000D01*
X114979179Y-99888687D01*
X114979176Y-99888686D01*
X114979175Y-99888686D01*
X114818761Y-99840025D01*
X114818759Y-99840024D01*
X114818756Y-99840023D01*
X114670922Y-99761005D01*
X114541341Y-99654659D01*
X114434995Y-99525078D01*
X114355977Y-99377244D01*
X114307313Y-99216821D01*
X114290883Y-99050000D01*
X114307313Y-98883179D01*
X114328917Y-98811959D01*
X114355975Y-98722761D01*
X114355976Y-98722759D01*
X114355977Y-98722756D01*
X114434995Y-98574922D01*
X114541341Y-98445341D01*
X114670922Y-98338995D01*
X114818756Y-98259977D01*
X114818759Y-98259976D01*
X114818761Y-98259975D01*
X114979175Y-98211314D01*
X114979176Y-98211314D01*
X114979179Y-98211313D01*
X115104196Y-98199000D01*
X115187804Y-98199000D01*
X115312821Y-98211313D01*
X115312821Y-98211313D01*
G37*
G36*
X112772821Y-98211313D02*
X112772824Y-98211314D01*
X112772825Y-98211314D01*
X112933239Y-98259975D01*
X112933241Y-98259976D01*
X112933244Y-98259977D01*
X113081078Y-98338995D01*
X113210659Y-98445341D01*
X113317005Y-98574922D01*
X113396023Y-98722756D01*
X113396024Y-98722759D01*
X113396025Y-98722761D01*
X113423083Y-98811959D01*
X113444687Y-98883179D01*
X113461117Y-99050000D01*
X113444687Y-99216821D01*
X113396023Y-99377244D01*
X113317005Y-99525078D01*
X113210659Y-99654659D01*
X113081078Y-99761005D01*
X112933244Y-99840023D01*
X112933241Y-99840024D01*
X112933239Y-99840025D01*
X112772825Y-99888686D01*
X112772824Y-99888686D01*
X112772821Y-99888687D01*
X112647804Y-99901000D01*
X112564196Y-99901000D01*
X112439179Y-99888687D01*
X112439176Y-99888686D01*
X112439175Y-99888686D01*
X112278761Y-99840025D01*
X112278759Y-99840024D01*
X112278756Y-99840023D01*
X112130922Y-99761005D01*
X112001341Y-99654659D01*
X111894995Y-99525078D01*
X111815977Y-99377244D01*
X111767313Y-99216821D01*
X111750883Y-99050000D01*
X111767313Y-98883179D01*
X111788917Y-98811959D01*
X111815975Y-98722761D01*
X111815976Y-98722759D01*
X111815977Y-98722756D01*
X111894995Y-98574922D01*
X112001341Y-98445341D01*
X112130922Y-98338995D01*
X112278756Y-98259977D01*
X112278759Y-98259976D01*
X112278761Y-98259975D01*
X112439175Y-98211314D01*
X112439176Y-98211314D01*
X112439179Y-98211313D01*
X112564196Y-98199000D01*
X112647804Y-98199000D01*
X112772821Y-98211313D01*
X112772821Y-98211313D01*
G37*
G36*
X110232821Y-98211313D02*
X110232824Y-98211314D01*
X110232825Y-98211314D01*
X110393239Y-98259975D01*
X110393241Y-98259976D01*
X110393244Y-98259977D01*
X110541078Y-98338995D01*
X110670659Y-98445341D01*
X110777005Y-98574922D01*
X110856023Y-98722756D01*
X110856024Y-98722759D01*
X110856025Y-98722761D01*
X110883083Y-98811959D01*
X110904687Y-98883179D01*
X110921117Y-99050000D01*
X110904687Y-99216821D01*
X110856023Y-99377244D01*
X110777005Y-99525078D01*
X110670659Y-99654659D01*
X110541078Y-99761005D01*
X110393244Y-99840023D01*
X110393241Y-99840024D01*
X110393239Y-99840025D01*
X110232825Y-99888686D01*
X110232824Y-99888686D01*
X110232821Y-99888687D01*
X110107804Y-99901000D01*
X110024196Y-99901000D01*
X109899179Y-99888687D01*
X109899176Y-99888686D01*
X109899175Y-99888686D01*
X109738761Y-99840025D01*
X109738759Y-99840024D01*
X109738756Y-99840023D01*
X109590922Y-99761005D01*
X109461341Y-99654659D01*
X109354995Y-99525078D01*
X109275977Y-99377244D01*
X109227313Y-99216821D01*
X109210883Y-99050000D01*
X109227313Y-98883179D01*
X109248917Y-98811959D01*
X109275975Y-98722761D01*
X109275976Y-98722759D01*
X109275977Y-98722756D01*
X109354995Y-98574922D01*
X109461341Y-98445341D01*
X109590922Y-98338995D01*
X109738756Y-98259977D01*
X109738759Y-98259976D01*
X109738761Y-98259975D01*
X109899175Y-98211314D01*
X109899176Y-98211314D01*
X109899179Y-98211313D01*
X110024196Y-98199000D01*
X110107804Y-98199000D01*
X110232821Y-98211313D01*
X110232821Y-98211313D01*
G37*
G36*
X105152821Y-98211313D02*
X105152824Y-98211314D01*
X105152825Y-98211314D01*
X105313239Y-98259975D01*
X105313241Y-98259976D01*
X105313244Y-98259977D01*
X105461078Y-98338995D01*
X105590659Y-98445341D01*
X105697005Y-98574922D01*
X105776023Y-98722756D01*
X105776024Y-98722759D01*
X105776025Y-98722761D01*
X105803083Y-98811959D01*
X105824687Y-98883179D01*
X105841117Y-99050000D01*
X105824687Y-99216821D01*
X105776023Y-99377244D01*
X105697005Y-99525078D01*
X105590659Y-99654659D01*
X105461078Y-99761005D01*
X105313244Y-99840023D01*
X105313241Y-99840024D01*
X105313239Y-99840025D01*
X105152825Y-99888686D01*
X105152824Y-99888686D01*
X105152821Y-99888687D01*
X105027804Y-99901000D01*
X104944196Y-99901000D01*
X104819179Y-99888687D01*
X104819176Y-99888686D01*
X104819175Y-99888686D01*
X104658761Y-99840025D01*
X104658759Y-99840024D01*
X104658756Y-99840023D01*
X104510922Y-99761005D01*
X104381341Y-99654659D01*
X104274995Y-99525078D01*
X104195977Y-99377244D01*
X104147313Y-99216821D01*
X104130883Y-99050000D01*
X104147313Y-98883179D01*
X104168917Y-98811959D01*
X104195975Y-98722761D01*
X104195976Y-98722759D01*
X104195977Y-98722756D01*
X104274995Y-98574922D01*
X104381341Y-98445341D01*
X104510922Y-98338995D01*
X104658756Y-98259977D01*
X104658759Y-98259976D01*
X104658761Y-98259975D01*
X104819175Y-98211314D01*
X104819176Y-98211314D01*
X104819179Y-98211313D01*
X104944196Y-98199000D01*
X105027804Y-98199000D01*
X105152821Y-98211313D01*
X105152821Y-98211313D01*
G37*
G36*
X102612821Y-98211313D02*
X102612824Y-98211314D01*
X102612825Y-98211314D01*
X102773239Y-98259975D01*
X102773241Y-98259976D01*
X102773244Y-98259977D01*
X102921078Y-98338995D01*
X103050659Y-98445341D01*
X103157005Y-98574922D01*
X103236023Y-98722756D01*
X103236024Y-98722759D01*
X103236025Y-98722761D01*
X103263083Y-98811959D01*
X103284687Y-98883179D01*
X103301117Y-99050000D01*
X103284687Y-99216821D01*
X103236023Y-99377244D01*
X103157005Y-99525078D01*
X103050659Y-99654659D01*
X102921078Y-99761005D01*
X102773244Y-99840023D01*
X102773241Y-99840024D01*
X102773239Y-99840025D01*
X102612825Y-99888686D01*
X102612824Y-99888686D01*
X102612821Y-99888687D01*
X102487804Y-99901000D01*
X102404196Y-99901000D01*
X102279179Y-99888687D01*
X102279176Y-99888686D01*
X102279175Y-99888686D01*
X102118761Y-99840025D01*
X102118759Y-99840024D01*
X102118756Y-99840023D01*
X101970922Y-99761005D01*
X101841341Y-99654659D01*
X101734995Y-99525078D01*
X101655977Y-99377244D01*
X101607313Y-99216821D01*
X101590883Y-99050000D01*
X101607313Y-98883179D01*
X101628917Y-98811959D01*
X101655975Y-98722761D01*
X101655976Y-98722759D01*
X101655977Y-98722756D01*
X101734995Y-98574922D01*
X101841341Y-98445341D01*
X101970922Y-98338995D01*
X102118756Y-98259977D01*
X102118759Y-98259976D01*
X102118761Y-98259975D01*
X102279175Y-98211314D01*
X102279176Y-98211314D01*
X102279179Y-98211313D01*
X102404196Y-98199000D01*
X102487804Y-98199000D01*
X102612821Y-98211313D01*
X102612821Y-98211313D01*
G37*
G36*
X100072821Y-98211313D02*
X100072824Y-98211314D01*
X100072825Y-98211314D01*
X100233239Y-98259975D01*
X100233241Y-98259976D01*
X100233244Y-98259977D01*
X100381078Y-98338995D01*
X100510659Y-98445341D01*
X100617005Y-98574922D01*
X100696023Y-98722756D01*
X100696024Y-98722759D01*
X100696025Y-98722761D01*
X100723083Y-98811959D01*
X100744687Y-98883179D01*
X100761117Y-99050000D01*
X100744687Y-99216821D01*
X100696023Y-99377244D01*
X100617005Y-99525078D01*
X100510659Y-99654659D01*
X100381078Y-99761005D01*
X100233244Y-99840023D01*
X100233241Y-99840024D01*
X100233239Y-99840025D01*
X100072825Y-99888686D01*
X100072824Y-99888686D01*
X100072821Y-99888687D01*
X99947804Y-99901000D01*
X99864196Y-99901000D01*
X99739179Y-99888687D01*
X99739176Y-99888686D01*
X99739175Y-99888686D01*
X99578761Y-99840025D01*
X99578759Y-99840024D01*
X99578756Y-99840023D01*
X99430922Y-99761005D01*
X99301341Y-99654659D01*
X99194995Y-99525078D01*
X99115977Y-99377244D01*
X99067313Y-99216821D01*
X99050883Y-99050000D01*
X99067313Y-98883179D01*
X99088917Y-98811959D01*
X99115975Y-98722761D01*
X99115976Y-98722759D01*
X99115977Y-98722756D01*
X99194995Y-98574922D01*
X99301341Y-98445341D01*
X99430922Y-98338995D01*
X99578756Y-98259977D01*
X99578759Y-98259976D01*
X99578761Y-98259975D01*
X99739175Y-98211314D01*
X99739176Y-98211314D01*
X99739179Y-98211313D01*
X99864196Y-98199000D01*
X99947804Y-98199000D01*
X100072821Y-98211313D01*
X100072821Y-98211313D01*
G37*
G36*
X133777000Y-99901000D02*
X132075000Y-99901000D01*
X132075000Y-98199000D01*
X133777000Y-98199000D01*
X133777000Y-99901000D01*
X133777000Y-99901000D01*
G37*
G36*
X97532821Y-98211313D02*
X97532824Y-98211314D01*
X97532825Y-98211314D01*
X97693239Y-98259975D01*
X97693241Y-98259976D01*
X97693244Y-98259977D01*
X97841078Y-98338995D01*
X97970659Y-98445341D01*
X98077005Y-98574922D01*
X98156023Y-98722756D01*
X98156024Y-98722759D01*
X98156025Y-98722761D01*
X98183083Y-98811959D01*
X98204687Y-98883179D01*
X98221117Y-99050000D01*
X98204687Y-99216821D01*
X98156023Y-99377244D01*
X98077005Y-99525078D01*
X97970659Y-99654659D01*
X97841078Y-99761005D01*
X97693244Y-99840023D01*
X97693241Y-99840024D01*
X97693239Y-99840025D01*
X97532825Y-99888686D01*
X97532824Y-99888686D01*
X97532821Y-99888687D01*
X97407804Y-99901000D01*
X97324196Y-99901000D01*
X97199179Y-99888687D01*
X97199176Y-99888686D01*
X97199175Y-99888686D01*
X97038761Y-99840025D01*
X97038759Y-99840024D01*
X97038756Y-99840023D01*
X96890922Y-99761005D01*
X96761341Y-99654659D01*
X96654995Y-99525078D01*
X96575977Y-99377244D01*
X96527313Y-99216821D01*
X96510883Y-99050000D01*
X96527313Y-98883179D01*
X96548917Y-98811959D01*
X96575975Y-98722761D01*
X96575976Y-98722759D01*
X96575977Y-98722756D01*
X96654995Y-98574922D01*
X96761341Y-98445341D01*
X96890922Y-98338995D01*
X97038756Y-98259977D01*
X97038759Y-98259976D01*
X97038761Y-98259975D01*
X97199175Y-98211314D01*
X97199176Y-98211314D01*
X97199179Y-98211313D01*
X97324196Y-98199000D01*
X97407804Y-98199000D01*
X97532821Y-98211313D01*
X97532821Y-98211313D01*
G37*
G36*
X130552821Y-98211313D02*
X130552824Y-98211314D01*
X130552825Y-98211314D01*
X130713239Y-98259975D01*
X130713241Y-98259976D01*
X130713244Y-98259977D01*
X130861078Y-98338995D01*
X130990659Y-98445341D01*
X131097005Y-98574922D01*
X131176023Y-98722756D01*
X131176024Y-98722759D01*
X131176025Y-98722761D01*
X131203083Y-98811959D01*
X131224687Y-98883179D01*
X131241117Y-99050000D01*
X131224687Y-99216821D01*
X131176023Y-99377244D01*
X131097005Y-99525078D01*
X130990659Y-99654659D01*
X130861078Y-99761005D01*
X130713244Y-99840023D01*
X130713241Y-99840024D01*
X130713239Y-99840025D01*
X130552825Y-99888686D01*
X130552824Y-99888686D01*
X130552821Y-99888687D01*
X130427804Y-99901000D01*
X130344196Y-99901000D01*
X130219179Y-99888687D01*
X130219176Y-99888686D01*
X130219175Y-99888686D01*
X130058761Y-99840025D01*
X130058759Y-99840024D01*
X130058756Y-99840023D01*
X129910922Y-99761005D01*
X129781341Y-99654659D01*
X129674995Y-99525078D01*
X129595977Y-99377244D01*
X129547313Y-99216821D01*
X129530883Y-99050000D01*
X129547313Y-98883179D01*
X129568917Y-98811959D01*
X129595975Y-98722761D01*
X129595976Y-98722759D01*
X129595977Y-98722756D01*
X129674995Y-98574922D01*
X129781341Y-98445341D01*
X129910922Y-98338995D01*
X130058756Y-98259977D01*
X130058759Y-98259976D01*
X130058761Y-98259975D01*
X130219175Y-98211314D01*
X130219176Y-98211314D01*
X130219179Y-98211313D01*
X130344196Y-98199000D01*
X130427804Y-98199000D01*
X130552821Y-98211313D01*
X130552821Y-98211313D01*
G37*
G36*
X186852527Y-95788736D02*
X186952410Y-95808604D01*
X187234674Y-95925521D01*
X187488705Y-96095259D01*
X187704741Y-96311295D01*
X187874479Y-96565326D01*
X187991396Y-96847590D01*
X188051000Y-97147240D01*
X188051000Y-97452760D01*
X187991396Y-97752410D01*
X187874479Y-98034674D01*
X187704741Y-98288705D01*
X187488705Y-98504741D01*
X187234674Y-98674479D01*
X186952410Y-98791396D01*
X186852527Y-98811264D01*
X186652762Y-98851000D01*
X186347238Y-98851000D01*
X186147473Y-98811264D01*
X186047590Y-98791396D01*
X185765326Y-98674479D01*
X185511295Y-98504741D01*
X185295259Y-98288705D01*
X185125521Y-98034674D01*
X185008604Y-97752410D01*
X184949000Y-97452760D01*
X184949000Y-97147240D01*
X185008604Y-96847590D01*
X185125521Y-96565326D01*
X185295259Y-96311295D01*
X185511295Y-96095259D01*
X185765326Y-95925521D01*
X186047590Y-95808604D01*
X186147473Y-95788736D01*
X186347238Y-95749000D01*
X186652762Y-95749000D01*
X186852527Y-95788736D01*
X186852527Y-95788736D01*
G37*
G36*
X125245239Y-90197101D02*
X125481053Y-90268634D01*
X125698381Y-90384799D01*
X125888871Y-90541129D01*
X126045201Y-90731619D01*
X126161366Y-90948947D01*
X126232899Y-91184761D01*
X126257053Y-91430000D01*
X126232899Y-91675239D01*
X126161366Y-91911053D01*
X126045201Y-92128381D01*
X125888871Y-92318871D01*
X125698381Y-92475201D01*
X125481053Y-92591366D01*
X125245239Y-92662899D01*
X125061457Y-92681000D01*
X124938543Y-92681000D01*
X124754761Y-92662899D01*
X124518947Y-92591366D01*
X124301619Y-92475201D01*
X124111129Y-92318871D01*
X123954799Y-92128381D01*
X123838634Y-91911053D01*
X123767101Y-91675239D01*
X123742947Y-91430000D01*
X123767101Y-91184761D01*
X123838634Y-90948947D01*
X123954799Y-90731619D01*
X124111129Y-90541129D01*
X124301619Y-90384799D01*
X124518947Y-90268634D01*
X124754761Y-90197101D01*
X124938543Y-90179000D01*
X125061457Y-90179000D01*
X125245239Y-90197101D01*
X125245239Y-90197101D01*
G37*
G36*
X109943636Y-90191019D02*
X110124903Y-90227075D01*
X110352571Y-90321378D01*
X110556542Y-90457668D01*
X110557469Y-90458287D01*
X110731713Y-90632531D01*
X110731715Y-90632534D01*
X110868622Y-90837429D01*
X110962925Y-91065097D01*
X110986728Y-91184765D01*
X111011000Y-91306786D01*
X111011000Y-91553214D01*
X110998981Y-91613635D01*
X110962925Y-91794903D01*
X110868622Y-92022571D01*
X110797921Y-92128382D01*
X110731713Y-92227469D01*
X110557469Y-92401713D01*
X110557466Y-92401715D01*
X110352571Y-92538622D01*
X110124903Y-92632925D01*
X109974213Y-92662899D01*
X109883214Y-92681000D01*
X109636786Y-92681000D01*
X109545787Y-92662899D01*
X109395097Y-92632925D01*
X109167429Y-92538622D01*
X108962534Y-92401715D01*
X108962531Y-92401713D01*
X108788287Y-92227469D01*
X108722079Y-92128382D01*
X108651378Y-92022571D01*
X108557075Y-91794903D01*
X108521019Y-91613635D01*
X108509000Y-91553214D01*
X108509000Y-91306786D01*
X108533272Y-91184765D01*
X108557075Y-91065097D01*
X108651378Y-90837429D01*
X108788285Y-90632534D01*
X108788287Y-90632531D01*
X108962531Y-90458287D01*
X108963458Y-90457668D01*
X109167429Y-90321378D01*
X109395097Y-90227075D01*
X109576364Y-90191019D01*
X109636786Y-90179000D01*
X109883214Y-90179000D01*
X109943636Y-90191019D01*
X109943636Y-90191019D01*
G37*
G36*
X152475239Y-89435101D02*
X152711053Y-89506634D01*
X152928381Y-89622799D01*
X153118871Y-89779129D01*
X153275201Y-89969619D01*
X153391366Y-90186947D01*
X153462899Y-90422761D01*
X153487053Y-90668000D01*
X153462899Y-90913239D01*
X153391366Y-91149053D01*
X153275201Y-91366381D01*
X153118871Y-91556871D01*
X152928381Y-91713201D01*
X152711053Y-91829366D01*
X152475239Y-91900899D01*
X152291457Y-91919000D01*
X152168543Y-91919000D01*
X151984761Y-91900899D01*
X151748947Y-91829366D01*
X151531619Y-91713201D01*
X151341129Y-91556871D01*
X151184799Y-91366381D01*
X151068634Y-91149053D01*
X150997101Y-90913239D01*
X150972947Y-90668000D01*
X150997101Y-90422761D01*
X151068634Y-90186947D01*
X151184799Y-89969619D01*
X151341129Y-89779129D01*
X151531619Y-89622799D01*
X151748947Y-89506634D01*
X151984761Y-89435101D01*
X152168543Y-89417000D01*
X152291457Y-89417000D01*
X152475239Y-89435101D01*
X152475239Y-89435101D01*
G37*
G36*
X137173635Y-89429019D02*
X137354903Y-89465075D01*
X137582571Y-89559378D01*
X137677488Y-89622800D01*
X137787469Y-89696287D01*
X137961713Y-89870531D01*
X137961715Y-89870534D01*
X138098622Y-90075429D01*
X138192925Y-90303097D01*
X138216728Y-90422765D01*
X138240273Y-90541129D01*
X138241000Y-90544787D01*
X138241000Y-90791213D01*
X138192925Y-91032903D01*
X138098622Y-91260571D01*
X138027921Y-91366382D01*
X137961713Y-91465469D01*
X137787469Y-91639713D01*
X137787466Y-91639715D01*
X137582571Y-91776622D01*
X137354903Y-91870925D01*
X137204213Y-91900899D01*
X137113214Y-91919000D01*
X136866786Y-91919000D01*
X136775787Y-91900899D01*
X136625097Y-91870925D01*
X136397429Y-91776622D01*
X136192534Y-91639715D01*
X136192531Y-91639713D01*
X136018287Y-91465469D01*
X135952079Y-91366382D01*
X135881378Y-91260571D01*
X135787075Y-91032903D01*
X135739000Y-90791213D01*
X135739000Y-90544787D01*
X135739728Y-90541129D01*
X135763272Y-90422765D01*
X135787075Y-90303097D01*
X135881378Y-90075429D01*
X136018285Y-89870534D01*
X136018287Y-89870531D01*
X136192531Y-89696287D01*
X136302512Y-89622800D01*
X136397429Y-89559378D01*
X136625097Y-89465075D01*
X136806365Y-89429019D01*
X136866786Y-89417000D01*
X137113214Y-89417000D01*
X137173635Y-89429019D01*
X137173635Y-89429019D01*
G37*
G36*
X194577636Y-87651019D02*
X194758903Y-87687075D01*
X194986571Y-87781378D01*
X195190542Y-87917668D01*
X195191469Y-87918287D01*
X195365713Y-88092531D01*
X195365715Y-88092534D01*
X195502622Y-88297429D01*
X195596925Y-88525097D01*
X195607415Y-88577834D01*
X195641656Y-88749973D01*
X195645000Y-88766787D01*
X195645000Y-89013213D01*
X195596925Y-89254903D01*
X195502622Y-89482571D01*
X195366332Y-89686542D01*
X195365713Y-89687469D01*
X195191469Y-89861713D01*
X195191466Y-89861715D01*
X194986571Y-89998622D01*
X194758903Y-90092925D01*
X194577635Y-90128981D01*
X194517214Y-90141000D01*
X194270786Y-90141000D01*
X194210364Y-90128981D01*
X194029097Y-90092925D01*
X193801429Y-89998622D01*
X193596534Y-89861715D01*
X193596531Y-89861713D01*
X193422287Y-89687469D01*
X193421668Y-89686542D01*
X193285378Y-89482571D01*
X193191075Y-89254903D01*
X193143000Y-89013213D01*
X193143000Y-88766787D01*
X193146345Y-88749973D01*
X193180585Y-88577834D01*
X193191075Y-88525097D01*
X193285378Y-88297429D01*
X193422285Y-88092534D01*
X193422287Y-88092531D01*
X193596531Y-87918287D01*
X193597458Y-87917668D01*
X193801429Y-87781378D01*
X194029097Y-87687075D01*
X194210364Y-87651019D01*
X194270786Y-87639000D01*
X194517214Y-87639000D01*
X194577636Y-87651019D01*
X194577636Y-87651019D01*
G37*
G36*
X167559000Y-89995000D02*
X165857000Y-89995000D01*
X165857000Y-88293000D01*
X167559000Y-88293000D01*
X167559000Y-89995000D01*
X167559000Y-89995000D01*
G37*
G36*
X159056565Y-87069389D02*
X159247834Y-87148615D01*
X159419976Y-87263637D01*
X159566363Y-87410024D01*
X159681385Y-87582166D01*
X159760611Y-87773435D01*
X159801000Y-87976484D01*
X159801000Y-88183516D01*
X159760611Y-88386565D01*
X159681385Y-88577834D01*
X159566363Y-88749976D01*
X159419976Y-88896363D01*
X159247834Y-89011385D01*
X159056565Y-89090611D01*
X158853516Y-89131000D01*
X158646484Y-89131000D01*
X158443435Y-89090611D01*
X158252166Y-89011385D01*
X158080024Y-88896363D01*
X157933637Y-88749976D01*
X157818615Y-88577834D01*
X157739389Y-88386565D01*
X157699000Y-88183516D01*
X157699000Y-87976484D01*
X157739389Y-87773435D01*
X157818615Y-87582166D01*
X157933637Y-87410024D01*
X158080024Y-87263637D01*
X158252166Y-87148615D01*
X158443435Y-87069389D01*
X158646484Y-87029000D01*
X158853516Y-87029000D01*
X159056565Y-87069389D01*
X159056565Y-87069389D01*
G37*
G36*
X104056565Y-87069389D02*
X104247834Y-87148615D01*
X104419976Y-87263637D01*
X104566363Y-87410024D01*
X104681385Y-87582166D01*
X104760611Y-87773435D01*
X104801000Y-87976484D01*
X104801000Y-88183516D01*
X104760611Y-88386565D01*
X104681385Y-88577834D01*
X104566363Y-88749976D01*
X104419976Y-88896363D01*
X104247834Y-89011385D01*
X104056565Y-89090611D01*
X103853516Y-89131000D01*
X103646484Y-89131000D01*
X103443435Y-89090611D01*
X103252166Y-89011385D01*
X103080024Y-88896363D01*
X102933637Y-88749976D01*
X102818615Y-88577834D01*
X102739389Y-88386565D01*
X102699000Y-88183516D01*
X102699000Y-87976484D01*
X102739389Y-87773435D01*
X102818615Y-87582166D01*
X102933637Y-87410024D01*
X103080024Y-87263637D01*
X103252166Y-87148615D01*
X103443435Y-87069389D01*
X103646484Y-87029000D01*
X103853516Y-87029000D01*
X104056565Y-87069389D01*
X104056565Y-87069389D01*
G37*
G36*
X131556565Y-87069389D02*
X131747834Y-87148615D01*
X131919976Y-87263637D01*
X132066363Y-87410024D01*
X132181385Y-87582166D01*
X132260611Y-87773435D01*
X132301000Y-87976484D01*
X132301000Y-88183516D01*
X132260611Y-88386565D01*
X132181385Y-88577834D01*
X132066363Y-88749976D01*
X131919976Y-88896363D01*
X131747834Y-89011385D01*
X131556565Y-89090611D01*
X131353516Y-89131000D01*
X131146484Y-89131000D01*
X130943435Y-89090611D01*
X130752166Y-89011385D01*
X130580024Y-88896363D01*
X130433637Y-88749976D01*
X130318615Y-88577834D01*
X130239389Y-88386565D01*
X130199000Y-88183516D01*
X130199000Y-87976484D01*
X130239389Y-87773435D01*
X130318615Y-87582166D01*
X130433637Y-87410024D01*
X130580024Y-87263637D01*
X130752166Y-87148615D01*
X130943435Y-87069389D01*
X131146484Y-87029000D01*
X131353516Y-87029000D01*
X131556565Y-87069389D01*
X131556565Y-87069389D01*
G37*
G36*
X186556565Y-87069389D02*
X186747834Y-87148615D01*
X186919976Y-87263637D01*
X187066363Y-87410024D01*
X187181385Y-87582166D01*
X187260611Y-87773435D01*
X187301000Y-87976484D01*
X187301000Y-88183516D01*
X187260611Y-88386565D01*
X187181385Y-88577834D01*
X187066363Y-88749976D01*
X186919976Y-88896363D01*
X186747834Y-89011385D01*
X186556565Y-89090611D01*
X186353516Y-89131000D01*
X186146484Y-89131000D01*
X185943435Y-89090611D01*
X185752166Y-89011385D01*
X185580024Y-88896363D01*
X185433637Y-88749976D01*
X185318615Y-88577834D01*
X185239389Y-88386565D01*
X185199000Y-88183516D01*
X185199000Y-87976484D01*
X185239389Y-87773435D01*
X185318615Y-87582166D01*
X185433637Y-87410024D01*
X185580024Y-87263637D01*
X185752166Y-87148615D01*
X185943435Y-87069389D01*
X186146484Y-87029000D01*
X186353516Y-87029000D01*
X186556565Y-87069389D01*
X186556565Y-87069389D01*
G37*
G36*
X174616228Y-86801703D02*
X174771100Y-86865853D01*
X174910481Y-86958985D01*
X175029015Y-87077519D01*
X175122147Y-87216900D01*
X175186297Y-87371772D01*
X175219000Y-87536184D01*
X175219000Y-87703816D01*
X175186297Y-87868228D01*
X175122147Y-88023100D01*
X175029015Y-88162481D01*
X174910481Y-88281015D01*
X174771100Y-88374147D01*
X174616228Y-88438297D01*
X174451816Y-88471000D01*
X174284184Y-88471000D01*
X174119772Y-88438297D01*
X173964900Y-88374147D01*
X173825519Y-88281015D01*
X173706985Y-88162481D01*
X173613853Y-88023100D01*
X173549703Y-87868228D01*
X173517000Y-87703816D01*
X173517000Y-87536184D01*
X173549703Y-87371772D01*
X173613853Y-87216900D01*
X173706985Y-87077519D01*
X173825519Y-86958985D01*
X173964900Y-86865853D01*
X174119772Y-86801703D01*
X174284184Y-86769000D01*
X174451816Y-86769000D01*
X174616228Y-86801703D01*
X174616228Y-86801703D01*
G37*
G36*
X177719000Y-88471000D02*
X176017000Y-88471000D01*
X176017000Y-86769000D01*
X177719000Y-86769000D01*
X177719000Y-88471000D01*
X177719000Y-88471000D01*
G37*
G36*
X166956228Y-85825703D02*
X167111100Y-85889853D01*
X167250481Y-85982985D01*
X167369015Y-86101519D01*
X167462147Y-86240900D01*
X167526297Y-86395772D01*
X167559000Y-86560184D01*
X167559000Y-86727816D01*
X167526297Y-86892228D01*
X167462147Y-87047100D01*
X167369015Y-87186481D01*
X167250481Y-87305015D01*
X167111100Y-87398147D01*
X166956228Y-87462297D01*
X166791816Y-87495000D01*
X166624184Y-87495000D01*
X166459772Y-87462297D01*
X166304900Y-87398147D01*
X166165519Y-87305015D01*
X166046985Y-87186481D01*
X165953853Y-87047100D01*
X165889703Y-86892228D01*
X165857000Y-86727816D01*
X165857000Y-86560184D01*
X165889703Y-86395772D01*
X165953853Y-86240900D01*
X166046985Y-86101519D01*
X166165519Y-85982985D01*
X166304900Y-85889853D01*
X166459772Y-85825703D01*
X166624184Y-85793000D01*
X166791816Y-85793000D01*
X166956228Y-85825703D01*
X166956228Y-85825703D01*
G37*
G36*
X186556565Y-84529389D02*
X186747834Y-84608615D01*
X186919976Y-84723637D01*
X187066363Y-84870024D01*
X187181385Y-85042166D01*
X187260611Y-85233435D01*
X187301000Y-85436484D01*
X187301000Y-85643516D01*
X187260611Y-85846565D01*
X187181385Y-86037834D01*
X187066363Y-86209976D01*
X186919976Y-86356363D01*
X186747834Y-86471385D01*
X186556565Y-86550611D01*
X186353516Y-86591000D01*
X186146484Y-86591000D01*
X185943435Y-86550611D01*
X185752166Y-86471385D01*
X185580024Y-86356363D01*
X185433637Y-86209976D01*
X185318615Y-86037834D01*
X185239389Y-85846565D01*
X185199000Y-85643516D01*
X185199000Y-85436484D01*
X185239389Y-85233435D01*
X185318615Y-85042166D01*
X185433637Y-84870024D01*
X185580024Y-84723637D01*
X185752166Y-84608615D01*
X185943435Y-84529389D01*
X186146484Y-84489000D01*
X186353516Y-84489000D01*
X186556565Y-84529389D01*
X186556565Y-84529389D01*
G37*
G36*
X104056565Y-84529389D02*
X104247834Y-84608615D01*
X104419976Y-84723637D01*
X104566363Y-84870024D01*
X104681385Y-85042166D01*
X104760611Y-85233435D01*
X104801000Y-85436484D01*
X104801000Y-85643516D01*
X104760611Y-85846565D01*
X104681385Y-86037834D01*
X104566363Y-86209976D01*
X104419976Y-86356363D01*
X104247834Y-86471385D01*
X104056565Y-86550611D01*
X103853516Y-86591000D01*
X103646484Y-86591000D01*
X103443435Y-86550611D01*
X103252166Y-86471385D01*
X103080024Y-86356363D01*
X102933637Y-86209976D01*
X102818615Y-86037834D01*
X102739389Y-85846565D01*
X102699000Y-85643516D01*
X102699000Y-85436484D01*
X102739389Y-85233435D01*
X102818615Y-85042166D01*
X102933637Y-84870024D01*
X103080024Y-84723637D01*
X103252166Y-84608615D01*
X103443435Y-84529389D01*
X103646484Y-84489000D01*
X103853516Y-84489000D01*
X104056565Y-84529389D01*
X104056565Y-84529389D01*
G37*
G36*
X159056565Y-84529389D02*
X159247834Y-84608615D01*
X159419976Y-84723637D01*
X159566363Y-84870024D01*
X159681385Y-85042166D01*
X159760611Y-85233435D01*
X159801000Y-85436484D01*
X159801000Y-85643516D01*
X159760611Y-85846565D01*
X159681385Y-86037834D01*
X159566363Y-86209976D01*
X159419976Y-86356363D01*
X159247834Y-86471385D01*
X159056565Y-86550611D01*
X158853516Y-86591000D01*
X158646484Y-86591000D01*
X158443435Y-86550611D01*
X158252166Y-86471385D01*
X158080024Y-86356363D01*
X157933637Y-86209976D01*
X157818615Y-86037834D01*
X157739389Y-85846565D01*
X157699000Y-85643516D01*
X157699000Y-85436484D01*
X157739389Y-85233435D01*
X157818615Y-85042166D01*
X157933637Y-84870024D01*
X158080024Y-84723637D01*
X158252166Y-84608615D01*
X158443435Y-84529389D01*
X158646484Y-84489000D01*
X158853516Y-84489000D01*
X159056565Y-84529389D01*
X159056565Y-84529389D01*
G37*
G36*
X131556565Y-84529389D02*
X131747834Y-84608615D01*
X131919976Y-84723637D01*
X132066363Y-84870024D01*
X132181385Y-85042166D01*
X132260611Y-85233435D01*
X132301000Y-85436484D01*
X132301000Y-85643516D01*
X132260611Y-85846565D01*
X132181385Y-86037834D01*
X132066363Y-86209976D01*
X131919976Y-86356363D01*
X131747834Y-86471385D01*
X131556565Y-86550611D01*
X131353516Y-86591000D01*
X131146484Y-86591000D01*
X130943435Y-86550611D01*
X130752166Y-86471385D01*
X130580024Y-86356363D01*
X130433637Y-86209976D01*
X130318615Y-86037834D01*
X130239389Y-85846565D01*
X130199000Y-85643516D01*
X130199000Y-85436484D01*
X130239389Y-85233435D01*
X130318615Y-85042166D01*
X130433637Y-84870024D01*
X130580024Y-84723637D01*
X130752166Y-84608615D01*
X130943435Y-84529389D01*
X131146484Y-84489000D01*
X131353516Y-84489000D01*
X131556565Y-84529389D01*
X131556565Y-84529389D01*
G37*
G36*
X152475239Y-83847101D02*
X152711053Y-83918634D01*
X152928381Y-84034799D01*
X153118871Y-84191129D01*
X153275201Y-84381619D01*
X153391366Y-84598947D01*
X153462899Y-84834761D01*
X153487053Y-85080000D01*
X153462899Y-85325239D01*
X153391366Y-85561053D01*
X153275201Y-85778381D01*
X153118871Y-85968871D01*
X152928381Y-86125201D01*
X152711053Y-86241366D01*
X152475239Y-86312899D01*
X152291457Y-86331000D01*
X152168543Y-86331000D01*
X151984761Y-86312899D01*
X151748947Y-86241366D01*
X151531619Y-86125201D01*
X151341129Y-85968871D01*
X151184799Y-85778381D01*
X151068634Y-85561053D01*
X150997101Y-85325239D01*
X150972947Y-85080000D01*
X150997101Y-84834761D01*
X151068634Y-84598947D01*
X151184799Y-84381619D01*
X151341129Y-84191129D01*
X151531619Y-84034799D01*
X151748947Y-83918634D01*
X151984761Y-83847101D01*
X152168543Y-83829000D01*
X152291457Y-83829000D01*
X152475239Y-83847101D01*
X152475239Y-83847101D01*
G37*
G36*
X137161647Y-83838634D02*
X137354903Y-83877075D01*
X137582571Y-83971378D01*
X137677488Y-84034800D01*
X137787469Y-84108287D01*
X137961713Y-84282531D01*
X137961715Y-84282534D01*
X138098622Y-84487429D01*
X138192925Y-84715097D01*
X138216728Y-84834765D01*
X138241000Y-84956786D01*
X138241000Y-85203214D01*
X138232641Y-85245235D01*
X138192925Y-85444903D01*
X138098622Y-85672571D01*
X138015167Y-85797469D01*
X137961713Y-85877469D01*
X137787469Y-86051713D01*
X137787466Y-86051715D01*
X137582571Y-86188622D01*
X137354903Y-86282925D01*
X137204213Y-86312899D01*
X137113214Y-86331000D01*
X136866786Y-86331000D01*
X136775787Y-86312899D01*
X136625097Y-86282925D01*
X136397429Y-86188622D01*
X136192534Y-86051715D01*
X136192531Y-86051713D01*
X136018287Y-85877469D01*
X135964833Y-85797469D01*
X135881378Y-85672571D01*
X135787075Y-85444903D01*
X135747359Y-85245235D01*
X135739000Y-85203214D01*
X135739000Y-84956786D01*
X135763272Y-84834765D01*
X135787075Y-84715097D01*
X135881378Y-84487429D01*
X136018285Y-84282534D01*
X136018287Y-84282531D01*
X136192531Y-84108287D01*
X136302512Y-84034800D01*
X136397429Y-83971378D01*
X136625097Y-83877075D01*
X136818353Y-83838634D01*
X136866786Y-83829000D01*
X137113214Y-83829000D01*
X137161647Y-83838634D01*
X137161647Y-83838634D01*
G37*
G36*
X125183635Y-83761019D02*
X125364903Y-83797075D01*
X125592571Y-83891378D01*
X125712300Y-83971379D01*
X125797469Y-84028287D01*
X125971713Y-84202531D01*
X125971715Y-84202534D01*
X126108622Y-84407429D01*
X126202925Y-84635097D01*
X126226728Y-84754765D01*
X126249656Y-84870027D01*
X126251000Y-84876787D01*
X126251000Y-85123213D01*
X126202925Y-85364903D01*
X126108622Y-85592571D01*
X125974699Y-85793000D01*
X125971713Y-85797469D01*
X125797469Y-85971713D01*
X125797466Y-85971715D01*
X125592571Y-86108622D01*
X125364903Y-86202925D01*
X125214213Y-86232899D01*
X125123214Y-86251000D01*
X124876786Y-86251000D01*
X124785787Y-86232899D01*
X124635097Y-86202925D01*
X124407429Y-86108622D01*
X124202534Y-85971715D01*
X124202531Y-85971713D01*
X124028287Y-85797469D01*
X124025301Y-85793000D01*
X123891378Y-85592571D01*
X123797075Y-85364903D01*
X123749000Y-85123213D01*
X123749000Y-84876787D01*
X123750345Y-84870027D01*
X123773272Y-84754765D01*
X123797075Y-84635097D01*
X123891378Y-84407429D01*
X124028285Y-84202534D01*
X124028287Y-84202531D01*
X124202531Y-84028287D01*
X124287700Y-83971379D01*
X124407429Y-83891378D01*
X124635097Y-83797075D01*
X124816365Y-83761019D01*
X124876786Y-83749000D01*
X125123214Y-83749000D01*
X125183635Y-83761019D01*
X125183635Y-83761019D01*
G37*
G36*
X110005239Y-83767101D02*
X110241053Y-83838634D01*
X110458381Y-83954799D01*
X110648871Y-84111129D01*
X110805201Y-84301619D01*
X110921366Y-84518947D01*
X110992899Y-84754761D01*
X111017053Y-85000000D01*
X110992899Y-85245239D01*
X110921366Y-85481053D01*
X110805201Y-85698381D01*
X110648871Y-85888871D01*
X110458381Y-86045201D01*
X110241053Y-86161366D01*
X110005239Y-86232899D01*
X109821457Y-86251000D01*
X109698543Y-86251000D01*
X109514761Y-86232899D01*
X109278947Y-86161366D01*
X109061619Y-86045201D01*
X108871129Y-85888871D01*
X108714799Y-85698381D01*
X108598634Y-85481053D01*
X108527101Y-85245239D01*
X108502947Y-85000000D01*
X108527101Y-84754761D01*
X108598634Y-84518947D01*
X108714799Y-84301619D01*
X108871129Y-84111129D01*
X109061619Y-83954799D01*
X109278947Y-83838634D01*
X109514761Y-83767101D01*
X109698543Y-83749000D01*
X109821457Y-83749000D01*
X110005239Y-83767101D01*
X110005239Y-83767101D01*
G37*
G36*
X194577635Y-82651019D02*
X194758903Y-82687075D01*
X194986571Y-82781378D01*
X195190542Y-82917668D01*
X195191469Y-82918287D01*
X195365713Y-83092531D01*
X195365715Y-83092534D01*
X195502622Y-83297429D01*
X195596925Y-83525097D01*
X195645000Y-83766787D01*
X195645000Y-84013213D01*
X195596925Y-84254903D01*
X195502622Y-84482571D01*
X195418401Y-84608616D01*
X195365713Y-84687469D01*
X195191469Y-84861713D01*
X195191466Y-84861715D01*
X194986571Y-84998622D01*
X194758903Y-85092925D01*
X194577635Y-85128981D01*
X194517214Y-85141000D01*
X194270786Y-85141000D01*
X194210365Y-85128981D01*
X194029097Y-85092925D01*
X193801429Y-84998622D01*
X193596534Y-84861715D01*
X193596531Y-84861713D01*
X193422287Y-84687469D01*
X193369599Y-84608616D01*
X193285378Y-84482571D01*
X193191075Y-84254903D01*
X193143000Y-84013213D01*
X193143000Y-83766787D01*
X193191075Y-83525097D01*
X193285378Y-83297429D01*
X193422285Y-83092534D01*
X193422287Y-83092531D01*
X193596531Y-82918287D01*
X193597458Y-82917668D01*
X193801429Y-82781378D01*
X194029097Y-82687075D01*
X194210365Y-82651019D01*
X194270786Y-82639000D01*
X194517214Y-82639000D01*
X194577635Y-82651019D01*
X194577635Y-82651019D01*
G37*
G36*
X187301000Y-84051000D02*
X185199000Y-84051000D01*
X185199000Y-81949000D01*
X187301000Y-81949000D01*
X187301000Y-84051000D01*
X187301000Y-84051000D01*
G37*
G36*
X132301000Y-84051000D02*
X130199000Y-84051000D01*
X130199000Y-81949000D01*
X132301000Y-81949000D01*
X132301000Y-84051000D01*
X132301000Y-84051000D01*
G37*
G36*
X104801000Y-84051000D02*
X102699000Y-84051000D01*
X102699000Y-81949000D01*
X104801000Y-81949000D01*
X104801000Y-84051000D01*
X104801000Y-84051000D01*
G37*
G36*
X159801000Y-84051000D02*
X157699000Y-84051000D01*
X157699000Y-81949000D01*
X159801000Y-81949000D01*
X159801000Y-84051000D01*
X159801000Y-84051000D01*
G37*
M02*
