<?xml version="1.0" standalone="no"?>
 <!DOCTYPE svg PUBLIC "-//W3C//DTD SVG 1.1//EN" 
 "http://www.w3.org/Graphics/SVG/1.1/DTD/svg11.dtd"> 
<svg xmlns="http://www.w3.org/2000/svg" version="1.1" 
    width="29.7002cm" height="21.0007cm" viewBox="0 0 116930 82680 ">
<title>SVG Picture created as magic-switchboard-F.Cu.svg date 2019/01/26 22:33:22 </title>
  <desc>Picture generated by PCBNEW </desc>
<g style="fill:#000000; fill-opacity:1;stroke:#000000; stroke-opacity:1;
stroke-linecap:round; stroke-linejoin:round; "
 transform="translate(0 0) scale(1 1)">
</g>
<g style="fill:#000000; fill-opacity:0.0; 
stroke:#000000; stroke-width:-0.000393701; stroke-opacity:1; 
stroke-linecap:round; stroke-linejoin:round;">
</g>
<g style="fill:#000000; fill-opacity:1.0; 
stroke:#000000; stroke-width:0; stroke-opacity:1; 
stroke-linecap:round; stroke-linejoin:round;">
<circle cx="66929.1" cy="52755.9" r="1574.8" /> 
</g>
<g style="fill:#000000; fill-opacity:1.0; 
stroke:#000000; stroke-width:39.3701; stroke-opacity:1; 
stroke-linecap:round; stroke-linejoin:round;">
</g>
<g style="fill:#000000; fill-opacity:1.0; 
stroke:#000000; stroke-width:0; stroke-opacity:1; 
stroke-linecap:round; stroke-linejoin:round;">
<circle cx="69685" cy="48700.8" r="590.551" /> 
</g>
<g style="fill:#000000; fill-opacity:1.0; 
stroke:#000000; stroke-width:39.3701; stroke-opacity:1; 
stroke-linecap:round; stroke-linejoin:round;">
</g>
<g style="fill:#000000; fill-opacity:1.0; 
stroke:#000000; stroke-width:0; stroke-opacity:1; 
stroke-linecap:round; stroke-linejoin:round;">
<circle cx="69685" cy="38700.8" r="590.551" /> 
</g>
<g style="fill:#000000; fill-opacity:1.0; 
stroke:#000000; stroke-width:39.3701; stroke-opacity:1; 
stroke-linecap:round; stroke-linejoin:round;">
</g>
<g style="fill:#000000; fill-opacity:1.0; 
stroke:#000000; stroke-width:0; stroke-opacity:1; 
stroke-linecap:round; stroke-linejoin:round;">
<circle cx="55517.7" cy="38503.9" r="600" /> 
</g>
<g style="fill:#000000; fill-opacity:1.0; 
stroke:#000000; stroke-width:39.3701; stroke-opacity:1; 
stroke-linecap:round; stroke-linejoin:round;">
</g>
<g style="fill:#000000; fill-opacity:1.0; 
stroke:#000000; stroke-width:0; stroke-opacity:1; 
stroke-linecap:round; stroke-linejoin:round;">
<circle cx="61017.7" cy="38503.9" r="600" /> 
</g>
<g style="fill:#000000; fill-opacity:1.0; 
stroke:#000000; stroke-width:39.3701; stroke-opacity:1; 
stroke-linecap:round; stroke-linejoin:round;">
</g>
<g style="fill:#000000; fill-opacity:1.0; 
stroke:#000000; stroke-width:0; stroke-opacity:1; 
stroke-linecap:round; stroke-linejoin:round;">
<circle cx="61017.7" cy="48503.9" r="600" /> 
</g>
<g style="fill:#000000; fill-opacity:1.0; 
stroke:#000000; stroke-width:39.3701; stroke-opacity:1; 
stroke-linecap:round; stroke-linejoin:round;">
</g>
<g style="fill:#000000; fill-opacity:1.0; 
stroke:#000000; stroke-width:0; stroke-opacity:1; 
stroke-linecap:round; stroke-linejoin:round;">
<circle cx="55517.7" cy="48503.9" r="600" /> 
</g>
<g style="fill:#000000; fill-opacity:1.0; 
stroke:#000000; stroke-width:39.3701; stroke-opacity:1; 
stroke-linecap:round; stroke-linejoin:round;">
</g>
<g style="fill:#000000; fill-opacity:1.0; 
stroke:#000000; stroke-width:0; stroke-opacity:1; 
stroke-linecap:round; stroke-linejoin:round;">
<circle cx="74212.6" cy="52755.9" r="590.551" /> 
</g>
<g style="fill:#000000; fill-opacity:1.0; 
stroke:#000000; stroke-width:39.3701; stroke-opacity:1; 
stroke-linecap:round; stroke-linejoin:round;">
</g>
<g style="fill:#000000; fill-opacity:1.0; 
stroke:#000000; stroke-width:0; stroke-opacity:1; 
stroke-linecap:round; stroke-linejoin:round;">
<circle cx="70275.6" cy="52755.9" r="590.551" /> 
</g>
<g style="fill:#000000; fill-opacity:1.0; 
stroke:#000000; stroke-width:39.3701; stroke-opacity:1; 
stroke-linecap:round; stroke-linejoin:round;">
</g>
<g style="fill:#000000; fill-opacity:1.0; 
stroke:#000000; stroke-width:0; stroke-opacity:1; 
stroke-linecap:round; stroke-linejoin:round;">
<circle cx="62795.3" cy="52755.9" r="590.551" /> 
</g>
<g style="fill:#000000; fill-opacity:1.0; 
stroke:#000000; stroke-width:39.3701; stroke-opacity:1; 
stroke-linecap:round; stroke-linejoin:round;">
</g>
<g style="fill:#000000; fill-opacity:1.0; 
stroke:#000000; stroke-width:0; stroke-opacity:1; 
stroke-linecap:round; stroke-linejoin:round;">
<circle cx="58858.3" cy="52755.9" r="590.551" /> 
</g>
<g style="fill:#000000; fill-opacity:1.0; 
stroke:#000000; stroke-width:39.3701; stroke-opacity:1; 
stroke-linecap:round; stroke-linejoin:round;">
</g>
<g style="fill:#000000; fill-opacity:1.0; 
stroke:#000000; stroke-width:0; stroke-opacity:1; 
stroke-linecap:round; stroke-linejoin:round;">
<circle cx="51378" cy="52755.9" r="590.551" /> 
</g>
<g style="fill:#000000; fill-opacity:1.0; 
stroke:#000000; stroke-width:39.3701; stroke-opacity:1; 
stroke-linecap:round; stroke-linejoin:round;">
</g>
<g style="fill:#000000; fill-opacity:1.0; 
stroke:#000000; stroke-width:0; stroke-opacity:1; 
stroke-linecap:round; stroke-linejoin:round;">
<circle cx="47440.9" cy="52755.9" r="590.551" /> 
</g>
<g style="fill:#000000; fill-opacity:1.0; 
stroke:#000000; stroke-width:39.3701; stroke-opacity:1; 
stroke-linecap:round; stroke-linejoin:round;">
</g>
<g style="fill:#000000; fill-opacity:1.0; 
stroke:#000000; stroke-width:0; stroke-opacity:1; 
stroke-linecap:round; stroke-linejoin:round;">
<circle cx="39960.6" cy="52755.9" r="590.551" /> 
</g>
<g style="fill:#000000; fill-opacity:1.0; 
stroke:#000000; stroke-width:39.3701; stroke-opacity:1; 
stroke-linecap:round; stroke-linejoin:round;">
</g>
<g style="fill:#000000; fill-opacity:1.0; 
stroke:#000000; stroke-width:0; stroke-opacity:1; 
stroke-linecap:round; stroke-linejoin:round;">
<circle cx="36023.6" cy="52755.9" r="590.551" /> 
</g>
<g style="fill:#000000; fill-opacity:1.0; 
stroke:#000000; stroke-width:39.3701; stroke-opacity:1; 
stroke-linecap:round; stroke-linejoin:round;">
</g>
<g style="fill:#000000; fill-opacity:1.0; 
stroke:#000000; stroke-width:629.921; stroke-opacity:1; 
stroke-linecap:round; stroke-linejoin:round;">
</g>
<g style="fill:#000000; fill-opacity:0.0; 
stroke:#000000; stroke-width:629.921; stroke-opacity:1; 
stroke-linecap:round; stroke-linejoin:round;">
<path d="M38362 44188
L38362 44188
" />
<path d="M38362 38188
L38362 38188
" />
<path d="M52362 44188
L52362 44188
" />
<path d="M39362 38188
L39362 38188
" />
<path d="M51362 44188
L51362 44188
" />
<path d="M40362 38188
L40362 38188
" />
<path d="M50362 44188
L50362 44188
" />
<path d="M41362 38188
L41362 38188
" />
<path d="M49362 44188
L49362 44188
" />
<path d="M42362 38188
L42362 38188
" />
<path d="M48362 44188
L48362 44188
" />
<path d="M43362 38188
L43362 38188
" />
<path d="M47362 44188
L47362 44188
" />
<path d="M44362 38188
L44362 38188
" />
<path d="M46362 44188
L46362 44188
" />
<path d="M45362 38188
L45362 38188
" />
<path d="M45362 44188
L45362 44188
" />
<path d="M46362 38188
L46362 38188
" />
<path d="M44362 44188
L44362 44188
" />
<path d="M47362 38188
L47362 38188
" />
<path d="M43362 44188
L43362 44188
" />
<path d="M48362 38188
L48362 38188
" />
<path d="M42362 44188
L42362 44188
" />
<path d="M49362 38188
L49362 38188
" />
<path d="M41362 44188
L41362 44188
" />
<path d="M50362 38188
L50362 38188
" />
<path d="M40362 44188
L40362 44188
" />
<path d="M51362 38188
L51362 38188
" />
<path d="M39362 44188
L39362 44188
" />
</g>
<g style="fill:#000000; fill-opacity:0.0; 
stroke:#000000; stroke-width:0; stroke-opacity:1; 
stroke-linecap:round; stroke-linejoin:round;">
</g>
<g style="fill:#000000; fill-opacity:1.0; 
stroke:#000000; stroke-width:0; stroke-opacity:1; 
stroke-linecap:round; stroke-linejoin:round;">
<polyline style="fill-rule:evenodd;"
points="52047,37874
52677,37874
52677,38503
52047,38503
52047,37874
" /> 
<circle cx="48622" cy="47637.8" r="314.961" /> 
</g>
<g style="fill:#000000; fill-opacity:1.0; 
stroke:#000000; stroke-width:39.3701; stroke-opacity:1; 
stroke-linecap:round; stroke-linejoin:round;">
</g>
<g style="fill:#000000; fill-opacity:1.0; 
stroke:#000000; stroke-width:0; stroke-opacity:1; 
stroke-linecap:round; stroke-linejoin:round;">
<polyline style="fill-rule:evenodd;"
points="47322,47952
47322,47322
47952,47322
47952,47952
47322,47952
" /> 
<circle cx="51771.7" cy="47598.4" r="314.961" /> 
</g>
<g style="fill:#000000; fill-opacity:1.0; 
stroke:#000000; stroke-width:39.3701; stroke-opacity:1; 
stroke-linecap:round; stroke-linejoin:round;">
</g>
<g style="fill:#000000; fill-opacity:1.0; 
stroke:#000000; stroke-width:0; stroke-opacity:1; 
stroke-linecap:round; stroke-linejoin:round;">
<polyline style="fill-rule:evenodd;"
points="50472,47913
50472,47283
51102,47283
51102,47913
50472,47913
" /> 
<polyline style="fill-rule:evenodd;"
points="65828,34153
65828,33562
66242,33562
66242,34153
65828,34153
" /> 
<polyline style="fill-rule:evenodd;"
points="67148,33563
67158,33564
67168,33567
67178,33570
67187,33575
67196,33580
67204,33586
67211,33593
67218,33600
67224,33608
67229,33617
67234,33626
67237,33636
67240,33646
67241,33656
67242,33666
67242,34050
67241,34060
67240,34070
67237,34080
67234,34089
67229,34098
67224,34107
67218,34115
67211,34123
67204,34130
67196,34136
67187,34141
67178,34145
67168,34149
67158,34151
67148,34153
67138,34153
66932,34153
66921,34153
66911,34151
66902,34149
66892,34145
66883,34141
66874,34136
66866,34130
66859,34123
66852,34115
66846,34107
66840,34098
66836,34089
66833,34080
66830,34070
66829,34060
66828,34050
66828,33666
66829,33656
66830,33646
66833,33636
66836,33626
66840,33617
66846,33608
66852,33600
66859,33593
66866,33586
66874,33580
66883,33575
66892,33570
66902,33567
66911,33564
66921,33563
66932,33562
67138,33562
67148,33563
" /> 
<polyline style="fill-rule:evenodd;"
points="66648,33563
66658,33564
66668,33567
66678,33570
66687,33575
66696,33580
66704,33586
66711,33593
66718,33600
66724,33608
66729,33617
66734,33626
66737,33636
66740,33646
66741,33656
66742,33666
66742,34050
66741,34060
66740,34070
66737,34080
66734,34089
66729,34098
66724,34107
66718,34115
66711,34123
66704,34130
66696,34136
66687,34141
66678,34145
66668,34149
66658,34151
66648,34153
66638,34153
66432,34153
66421,34153
66411,34151
66402,34149
66392,34145
66383,34141
66374,34136
66366,34130
66359,34123
66352,34115
66346,34107
66340,34098
66336,34089
66333,34080
66330,34070
66329,34060
66328,34050
66328,33666
66329,33656
66330,33646
66333,33636
66336,33626
66340,33617
66346,33608
66352,33600
66359,33593
66366,33586
66374,33580
66383,33575
66392,33570
66402,33567
66411,33564
66421,33563
66432,33562
66638,33562
66648,33563
" /> 
<polyline style="fill-rule:evenodd;"
points="54411,34153
54411,33562
54824,33562
54824,34153
54411,34153
" /> 
<polyline style="fill-rule:evenodd;"
points="55731,33563
55741,33564
55751,33567
55761,33570
55770,33575
55778,33580
55787,33586
55794,33593
55801,33600
55807,33608
55812,33617
55816,33626
55820,33636
55822,33646
55824,33656
55824,33666
55824,34050
55824,34060
55822,34070
55820,34080
55816,34089
55812,34098
55807,34107
55801,34115
55794,34123
55787,34130
55778,34136
55770,34141
55761,34145
55751,34149
55741,34151
55731,34153
55721,34153
55514,34153
55504,34153
55494,34151
55484,34149
55475,34145
55466,34141
55457,34136
55449,34130
55441,34123
55434,34115
55428,34107
55423,34098
55419,34089
55415,34080
55413,34070
55411,34060
55411,34050
55411,33666
55411,33656
55413,33646
55415,33636
55419,33626
55423,33617
55428,33608
55434,33600
55441,33593
55449,33586
55457,33580
55466,33575
55475,33570
55484,33567
55494,33564
55504,33563
55514,33562
55721,33562
55731,33563
" /> 
<polyline style="fill-rule:evenodd;"
points="55231,33563
55241,33564
55251,33567
55261,33570
55270,33575
55278,33580
55287,33586
55294,33593
55301,33600
55307,33608
55312,33617
55316,33626
55320,33636
55322,33646
55324,33656
55324,33666
55324,34050
55324,34060
55322,34070
55320,34080
55316,34089
55312,34098
55307,34107
55301,34115
55294,34123
55287,34130
55278,34136
55270,34141
55261,34145
55251,34149
55241,34151
55231,34153
55221,34153
55014,34153
55004,34153
54994,34151
54984,34149
54975,34145
54966,34141
54957,34136
54949,34130
54941,34123
54934,34115
54928,34107
54923,34098
54919,34089
54915,34080
54913,34070
54911,34060
54911,34050
54911,33666
54911,33656
54913,33646
54915,33636
54919,33626
54923,33617
54928,33608
54934,33600
54941,33593
54949,33586
54957,33580
54966,33575
54975,33570
54984,33567
54994,33564
55004,33563
55014,33562
55221,33562
55231,33563
" /> 
<polyline style="fill-rule:evenodd;"
points="44281,47933
44281,47342
44694,47342
44694,47933
44281,47933
" /> 
<polyline style="fill-rule:evenodd;"
points="45601,47343
45611,47344
45621,47346
45631,47350
45640,47354
45648,47359
45657,47365
45664,47372
45671,47380
45677,47388
45682,47397
45687,47406
45690,47415
45692,47425
45694,47435
45694,47445
45694,47829
45694,47839
45692,47849
45690,47859
45687,47869
45682,47878
45677,47887
45671,47895
45664,47902
45657,47909
45648,47915
45640,47920
45631,47925
45621,47928
45611,47931
45601,47932
45591,47933
45384,47933
45374,47932
45364,47931
45354,47928
45345,47925
45336,47920
45327,47915
45319,47909
45311,47902
45304,47895
45298,47887
45293,47878
45289,47869
45285,47859
45283,47849
45281,47839
45281,47829
45281,47445
45281,47435
45283,47425
45285,47415
45289,47406
45293,47397
45298,47388
45304,47380
45311,47372
45319,47365
45327,47359
45336,47354
45345,47350
45354,47346
45364,47344
45374,47343
45384,47342
45591,47342
45601,47343
" /> 
<polyline style="fill-rule:evenodd;"
points="45101,47343
45111,47344
45121,47346
45131,47350
45140,47354
45148,47359
45157,47365
45164,47372
45171,47380
45177,47388
45182,47397
45187,47406
45190,47415
45192,47425
45194,47435
45194,47445
45194,47829
45194,47839
45192,47849
45190,47859
45187,47869
45182,47878
45177,47887
45171,47895
45164,47902
45157,47909
45148,47915
45140,47920
45131,47925
45121,47928
45111,47931
45101,47932
45091,47933
44884,47933
44874,47932
44864,47931
44854,47928
44845,47925
44836,47920
44827,47915
44819,47909
44811,47902
44804,47895
44798,47887
44793,47878
44789,47869
44785,47859
44783,47849
44781,47839
44781,47829
44781,47445
44781,47435
44783,47425
44785,47415
44789,47406
44793,47397
44798,47388
44804,47380
44811,47372
44819,47365
44827,47359
44836,47354
44845,47350
44854,47346
44864,47344
44874,47343
44884,47342
45091,47342
45101,47343
" /> 
<polyline style="fill-rule:evenodd;"
points="41919,47933
41919,47342
42332,47342
42332,47933
41919,47933
" /> 
<polyline style="fill-rule:evenodd;"
points="43239,47343
43249,47344
43259,47346
43268,47350
43278,47354
43286,47359
43294,47365
43302,47372
43309,47380
43315,47388
43320,47397
43324,47406
43328,47415
43330,47425
43332,47435
43332,47445
43332,47829
43332,47839
43330,47849
43328,47859
43324,47869
43320,47878
43315,47887
43309,47895
43302,47902
43294,47909
43286,47915
43278,47920
43268,47925
43259,47928
43249,47931
43239,47932
43229,47933
43022,47933
43012,47932
43002,47931
42992,47928
42983,47925
42973,47920
42965,47915
42957,47909
42949,47902
42942,47895
42936,47887
42931,47878
42927,47869
42923,47859
42921,47849
42919,47839
42919,47829
42919,47445
42919,47435
42921,47425
42923,47415
42927,47406
42931,47397
42936,47388
42942,47380
42949,47372
42957,47365
42965,47359
42973,47354
42983,47350
42992,47346
43002,47344
43012,47343
43022,47342
43229,47342
43239,47343
" /> 
<polyline style="fill-rule:evenodd;"
points="42739,47343
42749,47344
42759,47346
42768,47350
42778,47354
42786,47359
42794,47365
42802,47372
42809,47380
42815,47388
42820,47397
42824,47406
42828,47415
42830,47425
42832,47435
42832,47445
42832,47829
42832,47839
42830,47849
42828,47859
42824,47869
42820,47878
42815,47887
42809,47895
42802,47902
42794,47909
42786,47915
42778,47920
42768,47925
42759,47928
42749,47931
42739,47932
42729,47933
42522,47933
42512,47932
42502,47931
42492,47928
42483,47925
42473,47920
42465,47915
42457,47909
42449,47902
42442,47895
42436,47887
42431,47878
42427,47869
42423,47859
42421,47849
42419,47839
42419,47829
42419,47445
42419,47435
42421,47425
42423,47415
42427,47406
42431,47397
42436,47388
42442,47380
42449,47372
42457,47365
42465,47359
42473,47354
42483,47350
42492,47346
42502,47344
42512,47343
42522,47342
42729,47342
42739,47343
" /> 
<polyline style="fill-rule:evenodd;"
points="39557,47933
39557,47342
39970,47342
39970,47933
39557,47933
" /> 
<polyline style="fill-rule:evenodd;"
points="40877,47343
40887,47344
40897,47346
40906,47350
40915,47354
40924,47359
40932,47365
40940,47372
40947,47380
40953,47388
40958,47397
40962,47406
40966,47415
40968,47425
40969,47435
40970,47445
40970,47829
40969,47839
40968,47849
40966,47859
40962,47869
40958,47878
40953,47887
40947,47895
40940,47902
40932,47909
40924,47915
40915,47920
40906,47925
40897,47928
40887,47931
40877,47932
40867,47933
40660,47933
40650,47932
40640,47931
40630,47928
40620,47925
40611,47920
40603,47915
40594,47909
40587,47902
40580,47895
40574,47887
40569,47878
40564,47869
40561,47859
40559,47849
40557,47839
40557,47829
40557,47445
40557,47435
40559,47425
40561,47415
40564,47406
40569,47397
40574,47388
40580,47380
40587,47372
40594,47365
40603,47359
40611,47354
40620,47350
40630,47346
40640,47344
40650,47343
40660,47342
40867,47342
40877,47343
" /> 
<polyline style="fill-rule:evenodd;"
points="40377,47343
40387,47344
40397,47346
40406,47350
40415,47354
40424,47359
40432,47365
40440,47372
40447,47380
40453,47388
40458,47397
40462,47406
40466,47415
40468,47425
40469,47435
40470,47445
40470,47829
40469,47839
40468,47849
40466,47859
40462,47869
40458,47878
40453,47887
40447,47895
40440,47902
40432,47909
40424,47915
40415,47920
40406,47925
40397,47928
40387,47931
40377,47932
40367,47933
40160,47933
40150,47932
40140,47931
40130,47928
40120,47925
40111,47920
40103,47915
40094,47909
40087,47902
40080,47895
40074,47887
40069,47878
40064,47869
40061,47859
40059,47849
40057,47839
40057,47829
40057,47445
40057,47435
40059,47425
40061,47415
40064,47406
40069,47397
40074,47388
40080,47380
40087,47372
40094,47365
40103,47359
40111,47354
40120,47350
40130,47346
40140,47344
40150,47343
40160,47342
40367,47342
40377,47343
" /> 
<polyline style="fill-rule:evenodd;"
points="37194,47933
37194,47342
37608,47342
37608,47933
37194,47933
" /> 
<polyline style="fill-rule:evenodd;"
points="38515,47343
38525,47344
38534,47346
38544,47350
38553,47354
38562,47359
38570,47365
38577,47372
38584,47380
38590,47388
38596,47397
38600,47406
38603,47415
38606,47425
38607,47435
38608,47445
38608,47829
38607,47839
38606,47849
38603,47859
38600,47869
38596,47878
38590,47887
38584,47895
38577,47902
38570,47909
38562,47915
38553,47920
38544,47925
38534,47928
38525,47931
38515,47932
38504,47933
38298,47933
38288,47932
38278,47931
38268,47928
38258,47925
38249,47920
38240,47915
38232,47909
38225,47902
38218,47895
38212,47887
38207,47878
38202,47869
38199,47859
38196,47849
38195,47839
38194,47829
38194,47445
38195,47435
38196,47425
38199,47415
38202,47406
38207,47397
38212,47388
38218,47380
38225,47372
38232,47365
38240,47359
38249,47354
38258,47350
38268,47346
38278,47344
38288,47343
38298,47342
38504,47342
38515,47343
" /> 
<polyline style="fill-rule:evenodd;"
points="38015,47343
38025,47344
38034,47346
38044,47350
38053,47354
38062,47359
38070,47365
38077,47372
38084,47380
38090,47388
38096,47397
38100,47406
38103,47415
38106,47425
38107,47435
38108,47445
38108,47829
38107,47839
38106,47849
38103,47859
38100,47869
38096,47878
38090,47887
38084,47895
38077,47902
38070,47909
38062,47915
38053,47920
38044,47925
38034,47928
38025,47931
38015,47932
38004,47933
37798,47933
37788,47932
37778,47931
37768,47928
37758,47925
37749,47920
37740,47915
37732,47909
37725,47902
37718,47895
37712,47887
37707,47878
37702,47869
37699,47859
37696,47849
37695,47839
37694,47829
37694,47445
37695,47435
37696,47425
37699,47415
37702,47406
37707,47397
37712,47388
37718,47380
37725,47372
37732,47365
37740,47359
37749,47354
37758,47350
37768,47346
37778,47344
37788,47343
37798,47342
38004,47342
38015,47343
" /> 
<circle cx="68307.1" cy="36220.5" r="393.701" /> 
</g>
<g style="fill:#000000; fill-opacity:1.0; 
stroke:#000000; stroke-width:39.3701; stroke-opacity:1; 
stroke-linecap:round; stroke-linejoin:round;">
</g>
<g style="fill:#000000; fill-opacity:1.0; 
stroke:#000000; stroke-width:0; stroke-opacity:1; 
stroke-linecap:round; stroke-linejoin:round;">
<circle cx="64763.8" cy="36220.5" r="393.701" /> 
</g>
<g style="fill:#000000; fill-opacity:1.0; 
stroke:#000000; stroke-width:39.3701; stroke-opacity:1; 
stroke-linecap:round; stroke-linejoin:round;">
</g>
<g style="fill:#000000; fill-opacity:1.0; 
stroke:#000000; stroke-width:0; stroke-opacity:1; 
stroke-linecap:round; stroke-linejoin:round;">
<circle cx="53346.5" cy="35826.8" r="393.701" /> 
</g>
<g style="fill:#000000; fill-opacity:1.0; 
stroke:#000000; stroke-width:39.3701; stroke-opacity:1; 
stroke-linecap:round; stroke-linejoin:round;">
</g>
<g style="fill:#000000; fill-opacity:1.0; 
stroke:#000000; stroke-width:0; stroke-opacity:1; 
stroke-linecap:round; stroke-linejoin:round;">
<circle cx="56889.8" cy="35826.8" r="393.701" /> 
</g>
<g style="fill:#000000; fill-opacity:1.0; 
stroke:#000000; stroke-width:39.3701; stroke-opacity:1; 
stroke-linecap:round; stroke-linejoin:round;">
</g>
<g style="fill:#000000; fill-opacity:1.0; 
stroke:#000000; stroke-width:0; stroke-opacity:1; 
stroke-linecap:round; stroke-linejoin:round;">
<circle cx="38878" cy="34094.5" r="590.551" /> 
</g>
<g style="fill:#000000; fill-opacity:1.0; 
stroke:#000000; stroke-width:39.3701; stroke-opacity:1; 
stroke-linecap:round; stroke-linejoin:round;">
</g>
<g style="fill:#000000; fill-opacity:1.0; 
stroke:#000000; stroke-width:0; stroke-opacity:1; 
stroke-linecap:round; stroke-linejoin:round;">
<circle cx="38878" cy="35944.9" r="590.551" /> 
</g>
<g style="fill:#000000; fill-opacity:1.0; 
stroke:#000000; stroke-width:39.3701; stroke-opacity:1; 
stroke-linecap:round; stroke-linejoin:round;">
</g>
<g style="fill:#000000; fill-opacity:1.0; 
stroke:#000000; stroke-width:0; stroke-opacity:1; 
stroke-linecap:round; stroke-linejoin:round;">
<circle cx="38878" cy="32244.1" r="590.551" /> 
</g>
<g style="fill:#000000; fill-opacity:1.0; 
stroke:#000000; stroke-width:39.3701; stroke-opacity:1; 
stroke-linecap:round; stroke-linejoin:round;">
</g>
<g style="fill:#000000; fill-opacity:1.0; 
stroke:#000000; stroke-width:0; stroke-opacity:1; 
stroke-linecap:round; stroke-linejoin:round;">
<circle cx="36988.2" cy="35944.9" r="590.551" /> 
</g>
<g style="fill:#000000; fill-opacity:1.0; 
stroke:#000000; stroke-width:39.3701; stroke-opacity:1; 
stroke-linecap:round; stroke-linejoin:round;">
</g>
<g style="fill:#000000; fill-opacity:1.0; 
stroke:#000000; stroke-width:0; stroke-opacity:1; 
stroke-linecap:round; stroke-linejoin:round;">
<circle cx="36988.2" cy="34094.5" r="590.551" /> 
</g>
<g style="fill:#000000; fill-opacity:1.0; 
stroke:#000000; stroke-width:39.3701; stroke-opacity:1; 
stroke-linecap:round; stroke-linejoin:round;">
</g>
<g style="fill:#000000; fill-opacity:1.0; 
stroke:#000000; stroke-width:0; stroke-opacity:1; 
stroke-linecap:round; stroke-linejoin:round;">
<circle cx="36988.2" cy="32244.1" r="590.551" /> 
</g>
<g style="fill:#000000; fill-opacity:1.0; 
stroke:#000000; stroke-width:39.3701; stroke-opacity:1; 
stroke-linecap:round; stroke-linejoin:round;">
</g>
<g style="fill:#000000; fill-opacity:1.0; 
stroke:#000000; stroke-width:0; stroke-opacity:1; 
stroke-linecap:round; stroke-linejoin:round;">
<circle cx="50334.6" cy="34094.5" r="590.551" /> 
</g>
<g style="fill:#000000; fill-opacity:1.0; 
stroke:#000000; stroke-width:39.3701; stroke-opacity:1; 
stroke-linecap:round; stroke-linejoin:round;">
</g>
<g style="fill:#000000; fill-opacity:1.0; 
stroke:#000000; stroke-width:0; stroke-opacity:1; 
stroke-linecap:round; stroke-linejoin:round;">
<circle cx="50334.6" cy="35944.9" r="590.551" /> 
</g>
<g style="fill:#000000; fill-opacity:1.0; 
stroke:#000000; stroke-width:39.3701; stroke-opacity:1; 
stroke-linecap:round; stroke-linejoin:round;">
</g>
<g style="fill:#000000; fill-opacity:1.0; 
stroke:#000000; stroke-width:0; stroke-opacity:1; 
stroke-linecap:round; stroke-linejoin:round;">
<circle cx="50334.6" cy="32244.1" r="590.551" /> 
</g>
<g style="fill:#000000; fill-opacity:1.0; 
stroke:#000000; stroke-width:39.3701; stroke-opacity:1; 
stroke-linecap:round; stroke-linejoin:round;">
</g>
<g style="fill:#000000; fill-opacity:1.0; 
stroke:#000000; stroke-width:0; stroke-opacity:1; 
stroke-linecap:round; stroke-linejoin:round;">
<circle cx="48444.9" cy="35944.9" r="590.551" /> 
</g>
<g style="fill:#000000; fill-opacity:1.0; 
stroke:#000000; stroke-width:39.3701; stroke-opacity:1; 
stroke-linecap:round; stroke-linejoin:round;">
</g>
<g style="fill:#000000; fill-opacity:1.0; 
stroke:#000000; stroke-width:0; stroke-opacity:1; 
stroke-linecap:round; stroke-linejoin:round;">
<circle cx="48444.9" cy="34094.5" r="590.551" /> 
</g>
<g style="fill:#000000; fill-opacity:1.0; 
stroke:#000000; stroke-width:39.3701; stroke-opacity:1; 
stroke-linecap:round; stroke-linejoin:round;">
</g>
<g style="fill:#000000; fill-opacity:1.0; 
stroke:#000000; stroke-width:0; stroke-opacity:1; 
stroke-linecap:round; stroke-linejoin:round;">
<circle cx="48444.9" cy="32244.1" r="590.551" /> 
</g>
<g style="fill:#000000; fill-opacity:1.0; 
stroke:#000000; stroke-width:39.3701; stroke-opacity:1; 
stroke-linecap:round; stroke-linejoin:round;">
</g>
<g style="fill:#000000; fill-opacity:1.0; 
stroke:#000000; stroke-width:0; stroke-opacity:1; 
stroke-linecap:round; stroke-linejoin:round;">
<circle cx="61791.3" cy="34094.5" r="590.551" /> 
</g>
<g style="fill:#000000; fill-opacity:1.0; 
stroke:#000000; stroke-width:39.3701; stroke-opacity:1; 
stroke-linecap:round; stroke-linejoin:round;">
</g>
<g style="fill:#000000; fill-opacity:1.0; 
stroke:#000000; stroke-width:0; stroke-opacity:1; 
stroke-linecap:round; stroke-linejoin:round;">
<circle cx="61791.3" cy="35944.9" r="590.551" /> 
</g>
<g style="fill:#000000; fill-opacity:1.0; 
stroke:#000000; stroke-width:39.3701; stroke-opacity:1; 
stroke-linecap:round; stroke-linejoin:round;">
</g>
<g style="fill:#000000; fill-opacity:1.0; 
stroke:#000000; stroke-width:0; stroke-opacity:1; 
stroke-linecap:round; stroke-linejoin:round;">
<circle cx="61791.3" cy="32244.1" r="590.551" /> 
</g>
<g style="fill:#000000; fill-opacity:1.0; 
stroke:#000000; stroke-width:39.3701; stroke-opacity:1; 
stroke-linecap:round; stroke-linejoin:round;">
</g>
<g style="fill:#000000; fill-opacity:1.0; 
stroke:#000000; stroke-width:0; stroke-opacity:1; 
stroke-linecap:round; stroke-linejoin:round;">
<circle cx="59901.6" cy="35944.9" r="590.551" /> 
</g>
<g style="fill:#000000; fill-opacity:1.0; 
stroke:#000000; stroke-width:39.3701; stroke-opacity:1; 
stroke-linecap:round; stroke-linejoin:round;">
</g>
<g style="fill:#000000; fill-opacity:1.0; 
stroke:#000000; stroke-width:0; stroke-opacity:1; 
stroke-linecap:round; stroke-linejoin:round;">
<circle cx="59901.6" cy="34094.5" r="590.551" /> 
</g>
<g style="fill:#000000; fill-opacity:1.0; 
stroke:#000000; stroke-width:39.3701; stroke-opacity:1; 
stroke-linecap:round; stroke-linejoin:round;">
</g>
<g style="fill:#000000; fill-opacity:1.0; 
stroke:#000000; stroke-width:0; stroke-opacity:1; 
stroke-linecap:round; stroke-linejoin:round;">
<circle cx="59901.6" cy="32244.1" r="590.551" /> 
</g>
<g style="fill:#000000; fill-opacity:1.0; 
stroke:#000000; stroke-width:39.3701; stroke-opacity:1; 
stroke-linecap:round; stroke-linejoin:round;">
</g>
<g style="fill:#000000; fill-opacity:1.0; 
stroke:#000000; stroke-width:0; stroke-opacity:1; 
stroke-linecap:round; stroke-linejoin:round;">
<circle cx="73248" cy="34094.5" r="590.551" /> 
</g>
<g style="fill:#000000; fill-opacity:1.0; 
stroke:#000000; stroke-width:39.3701; stroke-opacity:1; 
stroke-linecap:round; stroke-linejoin:round;">
</g>
<g style="fill:#000000; fill-opacity:1.0; 
stroke:#000000; stroke-width:0; stroke-opacity:1; 
stroke-linecap:round; stroke-linejoin:round;">
<circle cx="73248" cy="35944.9" r="590.551" /> 
</g>
<g style="fill:#000000; fill-opacity:1.0; 
stroke:#000000; stroke-width:39.3701; stroke-opacity:1; 
stroke-linecap:round; stroke-linejoin:round;">
</g>
<g style="fill:#000000; fill-opacity:1.0; 
stroke:#000000; stroke-width:0; stroke-opacity:1; 
stroke-linecap:round; stroke-linejoin:round;">
<circle cx="73248" cy="32244.1" r="590.551" /> 
</g>
<g style="fill:#000000; fill-opacity:1.0; 
stroke:#000000; stroke-width:39.3701; stroke-opacity:1; 
stroke-linecap:round; stroke-linejoin:round;">
</g>
<g style="fill:#000000; fill-opacity:1.0; 
stroke:#000000; stroke-width:0; stroke-opacity:1; 
stroke-linecap:round; stroke-linejoin:round;">
<circle cx="71358.3" cy="35944.9" r="590.551" /> 
</g>
<g style="fill:#000000; fill-opacity:1.0; 
stroke:#000000; stroke-width:39.3701; stroke-opacity:1; 
stroke-linecap:round; stroke-linejoin:round;">
</g>
<g style="fill:#000000; fill-opacity:1.0; 
stroke:#000000; stroke-width:0; stroke-opacity:1; 
stroke-linecap:round; stroke-linejoin:round;">
<circle cx="71358.3" cy="34094.5" r="590.551" /> 
</g>
<g style="fill:#000000; fill-opacity:1.0; 
stroke:#000000; stroke-width:39.3701; stroke-opacity:1; 
stroke-linecap:round; stroke-linejoin:round;">
</g>
<g style="fill:#000000; fill-opacity:1.0; 
stroke:#000000; stroke-width:0; stroke-opacity:1; 
stroke-linecap:round; stroke-linejoin:round;">
<circle cx="71358.3" cy="32244.1" r="590.551" /> 
</g>
<g style="fill:#000000; fill-opacity:1.0; 
stroke:#000000; stroke-width:39.3701; stroke-opacity:1; 
stroke-linecap:round; stroke-linejoin:round;">
</g>
<g style="fill:#000000; fill-opacity:1.0; 
stroke:#000000; stroke-width:0; stroke-opacity:1; 
stroke-linecap:round; stroke-linejoin:round;">
<circle cx="43307.1" cy="52755.9" r="1574.8" /> 
</g>
<g style="fill:#000000; fill-opacity:1.0; 
stroke:#000000; stroke-width:39.3701; stroke-opacity:1; 
stroke-linecap:round; stroke-linejoin:round;">
</g>
<g style="fill:#000000; fill-opacity:1.0; 
stroke:#000000; stroke-width:7.87402; stroke-opacity:1; 
stroke-linecap:round; stroke-linejoin:round;">
</g>
<g style="fill:#000000; fill-opacity:0.0; 
stroke:#000000; stroke-width:7.87402; stroke-opacity:1; 
stroke-linecap:round; stroke-linejoin:round;">
<path d="M37936 34094
L38684 34842
" />
<path d="M36988 34094
L37936 34094
" />
<path d="M45015 34842
L48362 38188
" />
<path d="M38684 34842
L45015 34842
" />
<path d="M47677 38503
L47362 38188
" />
<path d="M47700 38527
L47677 38503
" />
<path d="M48524 38527
L47700 38527
" />
<path d="M48700 38351
L48524 38527
" />
<path d="M48700 38026
L48700 38351
" />
<path d="M47637 36963
L48700 38026
" />
<path d="M47637 34901
L47637 36963
" />
<path d="M48444 34094
L47637 34901
" />
<path d="M47740 39566
L57283 39566
" />
<path d="M46362 38188
L47740 39566
" />
<path d="M57283 39566
L58267 38582
" />
<path d="M58267 35728
L59901 34094
" />
<path d="M58267 38582
L58267 35728
" />
<path d="M47133 39960
L45362 38188
" />
<path d="M70472 34980
L70472 36023
" />
<path d="M64566 39960
L47133 39960
" />
<path d="M71358 34094
L70472 34980
" />
<path d="M70472 36023
L68503 37992
" />
<path d="M68503 37992
L66535 37992
" />
<path d="M66535 37992
L64566 39960
" />
</g>
<g style="fill:#000000; fill-opacity:0.0; 
stroke:#000000; stroke-width:3.93701; stroke-opacity:1; 
stroke-linecap:round; stroke-linejoin:round;">
<path d="M44988 38814
L44362 38188
" />
<path d="M44988 47637
L44988 38814
" />
<path d="M43677 38503
L43362 38188
" />
<path d="M43700 38527
L43677 38503
" />
<path d="M43700 46562
L43700 38527
" />
<path d="M42625 47637
L43700 46562
" />
<path d="M42047 38503
L42362 38188
" />
<path d="M40687 39864
L42047 38503
" />
<path d="M40687 47214
L40687 39864
" />
<path d="M40263 47637
L40687 47214
" />
<path d="M41047 38503
L41362 38188
" />
<path d="M38687 40864
L41047 38503
" />
<path d="M38687 46852
L38687 40864
" />
<path d="M37901 47637
L38687 46852
" />
<path d="M36988 32244
L37814 33070
" />
<path d="M37814 33070
L47637 33070
" />
<path d="M47637 33051
L48444 32244
" />
<path d="M47637 33070
L47637 33051
" />
<path d="M62697 32244
L62085 32856
" />
<path d="M60513 32856
L60492 32834
" />
<path d="M71358 32244
L62697 32244
" />
<path d="M62085 32856
L60513 32856
" />
<path d="M60492 32834
L59901 32244
" />
<path d="M49035 32834
L48444 32244
" />
<path d="M49057 32856
L49035 32834
" />
<path d="M59289 32856
L49057 32856
" />
<path d="M59901 32244
L59289 32856
" />
</g>
<g style="fill:#000000; fill-opacity:0.0; 
stroke:#000000; stroke-width:39.3701; stroke-opacity:1; 
stroke-linecap:round; stroke-linejoin:round;">
<path d="M70239 38035
L66553 38035
" />
<path d="M73877 34396
L70239 38035
" />
<path d="M73877 33792
L73877 34396
" />
<path d="M71358 32244
L72329 32244
" />
<path d="M72329 32244
L73877 33792
" />
<path d="M66553 38035
L64584 40003
" />
<path d="M56547 40003
L52362 44188
" />
<path d="M64584 40003
L56547 40003
" />
<path d="M36614 53346
L36023 52755
" />
<path d="M37637 54370
L36614 53346
" />
<path d="M45696 52755
L44081 54370
" />
<path d="M44081 54370
L37637 54370
" />
<path d="M47440 52755
L45696 52755
" />
<path d="M58267 53346
L58858 52755
" />
<path d="M58070 53543
L58267 53346
" />
<path d="M48228 53543
L58070 53543
" />
<path d="M47440 52755
L48228 53543
" />
<path d="M69685 53346
L70275 52755
" />
<path d="M68110 54921
L69685 53346
" />
<path d="M61023 54921
L68110 54921
" />
<path d="M58858 52755
L61023 54921
" />
<path d="M54618 33946
L54618 33858
" />
<path d="M56104 35433
L54618 33946
" />
<path d="M56496 35433
L56104 35433
" />
<path d="M56889 35826
L56496 35433
" />
<path d="M69685 48700
L69685 38700
" />
<path d="M48149 48503
L54669 48503
" />
<path d="M54669 48503
L55517 48503
" />
<path d="M47637 47992
L48149 48503
" />
<path d="M47637 47637
L47637 47992
" />
<path d="M73622 52165
L74212 52755
" />
<path d="M71578 50122
L73622 52165
" />
<path d="M47637 50122
L71578 50122
" />
<path d="M45488 47972
L47637 50122
" />
<path d="M45488 47637
L45488 47972
" />
</g>
<g style="fill:#000000; fill-opacity:0.0; 
stroke:#000000; stroke-width:7.87402; stroke-opacity:1; 
stroke-linecap:round; stroke-linejoin:round;">
<path d="M43125 47637
L45881 50393
" />
<path d="M60433 50393
L62795 52755
" />
<path d="M45881 50393
L60433 50393
" />
<path d="M40763 47637
L43716 50590
" />
<path d="M49212 50590
L51377 52755
" />
<path d="M43716 50590
L49212 50590
" />
<path d="M38401 51196
L39960 52755
" />
<path d="M38401 47637
L38401 51196
" />
</g>
<g style="fill:#000000; fill-opacity:0.0; 
stroke:#000000; stroke-width:3.93701; stroke-opacity:1; 
stroke-linecap:round; stroke-linejoin:round;">
<path d="M66535 34448
L68307 36220
" />
<path d="M66535 33858
L66535 34448
" />
</g>
<g style="fill:#000000; fill-opacity:0.0; 
stroke:#000000; stroke-width:39.3701; stroke-opacity:1; 
stroke-linecap:round; stroke-linejoin:round;">
<path d="M40677 37874
L40362 38188
" />
<path d="M40716 37834
L40677 37874
" />
<path d="M45532 37834
L40716 37834
" />
<path d="M45716 38018
L45532 37834
" />
<path d="M45716 38359
L45716 38018
" />
<path d="M47274 39917
L45716 38359
" />
<path d="M61066 39917
L47274 39917
" />
<path d="M64763 36220
L61066 39917
" />
<path d="M53346 35826
L53346 34251
" />
<path d="M53346 34251
L54330 33267
" />
<path d="M55118 33523
L55118 33858
" />
<path d="M54862 33267
L55118 33523
" />
<path d="M54330 33267
L54862 33267
" />
<path d="M55118 33523
L55374 33267
" />
<path d="M60964 33267
L61791 34094
" />
<path d="M55374 33267
L60964 33267
" />
<path d="M65799 34094
L66035 33858
" />
<path d="M61791 34094
L65799 34094
" />
<path d="M72657 33503
L73248 34094
" />
<path d="M66094 33464
L72618 33464
" />
<path d="M66035 33523
L66094 33464
" />
<path d="M72618 33464
L72657 33503
" />
<path d="M66035 33858
L66035 33523
" />
<path d="M51614 34094
L53346 35826
" />
<path d="M50334 34094
L51614 34094
" />
<path d="M49744 33503
L50334 34094
" />
<path d="M49704 33464
L49744 33503
" />
<path d="M40343 33464
L49704 33464
" />
<path d="M39713 34094
L40343 33464
" />
<path d="M38877 34094
L39713 34094
" />
</g> 
</svg>
