G04 #@! TF.GenerationSoftware,KiCad,Pcbnew,5.0.2-bee76a0~70~ubuntu18.04.1*
G04 #@! TF.CreationDate,2019-01-02T21:03:54+01:00*
G04 #@! TF.ProjectId,magic-switchboard,6d616769-632d-4737-9769-746368626f61,v2*
G04 #@! TF.SameCoordinates,Original*
G04 #@! TF.FileFunction,Legend,Top*
G04 #@! TF.FilePolarity,Positive*
%FSLAX46Y46*%
G04 Gerber Fmt 4.6, Leading zero omitted, Abs format (unit mm)*
G04 Created by KiCad (PCBNEW 5.0.2-bee76a0~70~ubuntu18.04.1) date Mi 02 Jan 2019 21:03:54 CET*
%MOMM*%
%LPD*%
G01*
G04 APERTURE LIST*
%ADD10C,0.300000*%
%ADD11C,0.120000*%
%ADD12C,0.100000*%
%ADD13C,0.127000*%
%ADD14C,0.254000*%
%ADD15C,0.150000*%
G04 APERTURE END LIST*
D10*
X77578571Y-138857142D02*
X77578571Y-139714285D01*
X77578571Y-139285714D02*
X76078571Y-139285714D01*
X76292857Y-139428571D01*
X76435714Y-139571428D01*
X76507142Y-139714285D01*
X76078571Y-138357142D02*
X76078571Y-137428571D01*
X76650000Y-137928571D01*
X76650000Y-137714285D01*
X76721428Y-137571428D01*
X76792857Y-137500000D01*
X76935714Y-137428571D01*
X77292857Y-137428571D01*
X77435714Y-137500000D01*
X77507142Y-137571428D01*
X77578571Y-137714285D01*
X77578571Y-138142857D01*
X77507142Y-138285714D01*
X77435714Y-138357142D01*
X77507142Y-136714285D02*
X77578571Y-136714285D01*
X77721428Y-136785714D01*
X77792857Y-136857142D01*
X76078571Y-135785714D02*
X76078571Y-135642857D01*
X76150000Y-135500000D01*
X76221428Y-135428571D01*
X76364285Y-135357142D01*
X76650000Y-135285714D01*
X77007142Y-135285714D01*
X77292857Y-135357142D01*
X77435714Y-135428571D01*
X77507142Y-135500000D01*
X77578571Y-135642857D01*
X77578571Y-135785714D01*
X77507142Y-135928571D01*
X77435714Y-136000000D01*
X77292857Y-136071428D01*
X77007142Y-136142857D01*
X76650000Y-136142857D01*
X76364285Y-136071428D01*
X76221428Y-136000000D01*
X76150000Y-135928571D01*
X76078571Y-135785714D01*
X76078571Y-134357142D02*
X76078571Y-134214285D01*
X76150000Y-134071428D01*
X76221428Y-134000000D01*
X76364285Y-133928571D01*
X76650000Y-133857142D01*
X77007142Y-133857142D01*
X77292857Y-133928571D01*
X77435714Y-134000000D01*
X77507142Y-134071428D01*
X77578571Y-134214285D01*
X77578571Y-134357142D01*
X77507142Y-134500000D01*
X77435714Y-134571428D01*
X77292857Y-134642857D01*
X77007142Y-134714285D01*
X76650000Y-134714285D01*
X76364285Y-134642857D01*
X76221428Y-134571428D01*
X76150000Y-134500000D01*
X76078571Y-134357142D01*
X76078571Y-132928571D02*
X76078571Y-132785714D01*
X76150000Y-132642857D01*
X76221428Y-132571428D01*
X76364285Y-132500000D01*
X76650000Y-132428571D01*
X77007142Y-132428571D01*
X77292857Y-132500000D01*
X77435714Y-132571428D01*
X77507142Y-132642857D01*
X77578571Y-132785714D01*
X77578571Y-132928571D01*
X77507142Y-133071428D01*
X77435714Y-133142857D01*
X77292857Y-133214285D01*
X77007142Y-133285714D01*
X76650000Y-133285714D01*
X76364285Y-133214285D01*
X76221428Y-133142857D01*
X76150000Y-133071428D01*
X76078571Y-132928571D01*
X77578571Y-130642857D02*
X76578571Y-130642857D01*
X76721428Y-130642857D02*
X76650000Y-130571428D01*
X76578571Y-130428571D01*
X76578571Y-130214285D01*
X76650000Y-130071428D01*
X76792857Y-130000000D01*
X77578571Y-130000000D01*
X76792857Y-130000000D02*
X76650000Y-129928571D01*
X76578571Y-129785714D01*
X76578571Y-129571428D01*
X76650000Y-129428571D01*
X76792857Y-129357142D01*
X77578571Y-129357142D01*
X77578571Y-128642857D02*
X76578571Y-128642857D01*
X76721428Y-128642857D02*
X76650000Y-128571428D01*
X76578571Y-128428571D01*
X76578571Y-128214285D01*
X76650000Y-128071428D01*
X76792857Y-128000000D01*
X77578571Y-128000000D01*
X76792857Y-128000000D02*
X76650000Y-127928571D01*
X76578571Y-127785714D01*
X76578571Y-127571428D01*
X76650000Y-127428571D01*
X76792857Y-127357142D01*
X77578571Y-127357142D01*
X79000000Y-140000000D02*
X79000000Y-127000000D01*
X95000000Y-140000000D02*
X78413579Y-140000000D01*
X95000000Y-127000000D02*
X78413579Y-127000000D01*
X79000000Y-127000000D02*
X79586421Y-128126504D01*
X79000000Y-127000000D02*
X78413579Y-128126504D01*
X79000000Y-140000000D02*
X79586421Y-138873496D01*
X79000000Y-140000000D02*
X78413579Y-138873496D01*
X214421428Y-128142857D02*
X214421428Y-127285714D01*
X214421428Y-127714285D02*
X215921428Y-127714285D01*
X215707142Y-127571428D01*
X215564285Y-127428571D01*
X215492857Y-127285714D01*
X215921428Y-128642857D02*
X215921428Y-129571428D01*
X215350000Y-129071428D01*
X215350000Y-129285714D01*
X215278571Y-129428571D01*
X215207142Y-129500000D01*
X215064285Y-129571428D01*
X214707142Y-129571428D01*
X214564285Y-129500000D01*
X214492857Y-129428571D01*
X214421428Y-129285714D01*
X214421428Y-128857142D01*
X214492857Y-128714285D01*
X214564285Y-128642857D01*
X214492857Y-130285714D02*
X214421428Y-130285714D01*
X214278571Y-130214285D01*
X214207142Y-130142857D01*
X215921428Y-131214285D02*
X215921428Y-131357142D01*
X215850000Y-131500000D01*
X215778571Y-131571428D01*
X215635714Y-131642857D01*
X215350000Y-131714285D01*
X214992857Y-131714285D01*
X214707142Y-131642857D01*
X214564285Y-131571428D01*
X214492857Y-131500000D01*
X214421428Y-131357142D01*
X214421428Y-131214285D01*
X214492857Y-131071428D01*
X214564285Y-131000000D01*
X214707142Y-130928571D01*
X214992857Y-130857142D01*
X215350000Y-130857142D01*
X215635714Y-130928571D01*
X215778571Y-131000000D01*
X215850000Y-131071428D01*
X215921428Y-131214285D01*
X215921428Y-132642857D02*
X215921428Y-132785714D01*
X215850000Y-132928571D01*
X215778571Y-133000000D01*
X215635714Y-133071428D01*
X215350000Y-133142857D01*
X214992857Y-133142857D01*
X214707142Y-133071428D01*
X214564285Y-133000000D01*
X214492857Y-132928571D01*
X214421428Y-132785714D01*
X214421428Y-132642857D01*
X214492857Y-132500000D01*
X214564285Y-132428571D01*
X214707142Y-132357142D01*
X214992857Y-132285714D01*
X215350000Y-132285714D01*
X215635714Y-132357142D01*
X215778571Y-132428571D01*
X215850000Y-132500000D01*
X215921428Y-132642857D01*
X215921428Y-134071428D02*
X215921428Y-134214285D01*
X215850000Y-134357142D01*
X215778571Y-134428571D01*
X215635714Y-134500000D01*
X215350000Y-134571428D01*
X214992857Y-134571428D01*
X214707142Y-134500000D01*
X214564285Y-134428571D01*
X214492857Y-134357142D01*
X214421428Y-134214285D01*
X214421428Y-134071428D01*
X214492857Y-133928571D01*
X214564285Y-133857142D01*
X214707142Y-133785714D01*
X214992857Y-133714285D01*
X215350000Y-133714285D01*
X215635714Y-133785714D01*
X215778571Y-133857142D01*
X215850000Y-133928571D01*
X215921428Y-134071428D01*
X214421428Y-136357142D02*
X215421428Y-136357142D01*
X215278571Y-136357142D02*
X215350000Y-136428571D01*
X215421428Y-136571428D01*
X215421428Y-136785714D01*
X215350000Y-136928571D01*
X215207142Y-137000000D01*
X214421428Y-137000000D01*
X215207142Y-137000000D02*
X215350000Y-137071428D01*
X215421428Y-137214285D01*
X215421428Y-137428571D01*
X215350000Y-137571428D01*
X215207142Y-137642857D01*
X214421428Y-137642857D01*
X214421428Y-138357142D02*
X215421428Y-138357142D01*
X215278571Y-138357142D02*
X215350000Y-138428571D01*
X215421428Y-138571428D01*
X215421428Y-138785714D01*
X215350000Y-138928571D01*
X215207142Y-139000000D01*
X214421428Y-139000000D01*
X215207142Y-139000000D02*
X215350000Y-139071428D01*
X215421428Y-139214285D01*
X215421428Y-139428571D01*
X215350000Y-139571428D01*
X215207142Y-139642857D01*
X214421428Y-139642857D01*
X213000000Y-127000000D02*
X213000000Y-140000000D01*
X195000000Y-127000000D02*
X213586421Y-127000000D01*
X195000000Y-140000000D02*
X213586421Y-140000000D01*
X213000000Y-140000000D02*
X212413579Y-138873496D01*
X213000000Y-140000000D02*
X213586421Y-138873496D01*
X213000000Y-127000000D02*
X212413579Y-128126504D01*
X213000000Y-127000000D02*
X213586421Y-128126504D01*
X166285714Y-63221428D02*
X166357142Y-63150000D01*
X166500000Y-63078571D01*
X166857142Y-63078571D01*
X167000000Y-63150000D01*
X167071428Y-63221428D01*
X167142857Y-63364285D01*
X167142857Y-63507142D01*
X167071428Y-63721428D01*
X166214285Y-64578571D01*
X167142857Y-64578571D01*
X167642857Y-63078571D02*
X168642857Y-63078571D01*
X168000000Y-64578571D01*
X169285714Y-64507142D02*
X169285714Y-64578571D01*
X169214285Y-64721428D01*
X169142857Y-64792857D01*
X170642857Y-63078571D02*
X169928571Y-63078571D01*
X169857142Y-63792857D01*
X169928571Y-63721428D01*
X170071428Y-63650000D01*
X170428571Y-63650000D01*
X170571428Y-63721428D01*
X170642857Y-63792857D01*
X170714285Y-63935714D01*
X170714285Y-64292857D01*
X170642857Y-64435714D01*
X170571428Y-64507142D01*
X170428571Y-64578571D01*
X170071428Y-64578571D01*
X169928571Y-64507142D01*
X169857142Y-64435714D01*
X171642857Y-63078571D02*
X171785714Y-63078571D01*
X171928571Y-63150000D01*
X172000000Y-63221428D01*
X172071428Y-63364285D01*
X172142857Y-63650000D01*
X172142857Y-64007142D01*
X172071428Y-64292857D01*
X172000000Y-64435714D01*
X171928571Y-64507142D01*
X171785714Y-64578571D01*
X171642857Y-64578571D01*
X171500000Y-64507142D01*
X171428571Y-64435714D01*
X171357142Y-64292857D01*
X171285714Y-64007142D01*
X171285714Y-63650000D01*
X171357142Y-63364285D01*
X171428571Y-63221428D01*
X171500000Y-63150000D01*
X171642857Y-63078571D01*
X173071428Y-63078571D02*
X173214285Y-63078571D01*
X173357142Y-63150000D01*
X173428571Y-63221428D01*
X173500000Y-63364285D01*
X173571428Y-63650000D01*
X173571428Y-64007142D01*
X173500000Y-64292857D01*
X173428571Y-64435714D01*
X173357142Y-64507142D01*
X173214285Y-64578571D01*
X173071428Y-64578571D01*
X172928571Y-64507142D01*
X172857142Y-64435714D01*
X172785714Y-64292857D01*
X172714285Y-64007142D01*
X172714285Y-63650000D01*
X172785714Y-63364285D01*
X172857142Y-63221428D01*
X172928571Y-63150000D01*
X173071428Y-63078571D01*
X175357142Y-64578571D02*
X175357142Y-63578571D01*
X175357142Y-63721428D02*
X175428571Y-63650000D01*
X175571428Y-63578571D01*
X175785714Y-63578571D01*
X175928571Y-63650000D01*
X176000000Y-63792857D01*
X176000000Y-64578571D01*
X176000000Y-63792857D02*
X176071428Y-63650000D01*
X176214285Y-63578571D01*
X176428571Y-63578571D01*
X176571428Y-63650000D01*
X176642857Y-63792857D01*
X176642857Y-64578571D01*
X177357142Y-64578571D02*
X177357142Y-63578571D01*
X177357142Y-63721428D02*
X177428571Y-63650000D01*
X177571428Y-63578571D01*
X177785714Y-63578571D01*
X177928571Y-63650000D01*
X178000000Y-63792857D01*
X178000000Y-64578571D01*
X178000000Y-63792857D02*
X178071428Y-63650000D01*
X178214285Y-63578571D01*
X178428571Y-63578571D01*
X178571428Y-63650000D01*
X178642857Y-63792857D01*
X178642857Y-64578571D01*
X158750000Y-66000000D02*
X186250000Y-66000000D01*
X158750000Y-83000000D02*
X158750000Y-65413579D01*
X186250000Y-83000000D02*
X186250000Y-65413579D01*
X186250000Y-66000000D02*
X185123496Y-66586421D01*
X186250000Y-66000000D02*
X185123496Y-65413579D01*
X158750000Y-66000000D02*
X159876504Y-66586421D01*
X158750000Y-66000000D02*
X159876504Y-65413579D01*
X210921428Y-75928571D02*
X210921428Y-76857142D01*
X210350000Y-76357142D01*
X210350000Y-76571428D01*
X210278571Y-76714285D01*
X210207142Y-76785714D01*
X210064285Y-76857142D01*
X209707142Y-76857142D01*
X209564285Y-76785714D01*
X209492857Y-76714285D01*
X209421428Y-76571428D01*
X209421428Y-76142857D01*
X209492857Y-76000000D01*
X209564285Y-75928571D01*
X209492857Y-77571428D02*
X209421428Y-77571428D01*
X209278571Y-77500000D01*
X209207142Y-77428571D01*
X210921428Y-78500000D02*
X210921428Y-78642857D01*
X210850000Y-78785714D01*
X210778571Y-78857142D01*
X210635714Y-78928571D01*
X210350000Y-79000000D01*
X209992857Y-79000000D01*
X209707142Y-78928571D01*
X209564285Y-78857142D01*
X209492857Y-78785714D01*
X209421428Y-78642857D01*
X209421428Y-78500000D01*
X209492857Y-78357142D01*
X209564285Y-78285714D01*
X209707142Y-78214285D01*
X209992857Y-78142857D01*
X210350000Y-78142857D01*
X210635714Y-78214285D01*
X210778571Y-78285714D01*
X210850000Y-78357142D01*
X210921428Y-78500000D01*
X210921428Y-79928571D02*
X210921428Y-80071428D01*
X210850000Y-80214285D01*
X210778571Y-80285714D01*
X210635714Y-80357142D01*
X210350000Y-80428571D01*
X209992857Y-80428571D01*
X209707142Y-80357142D01*
X209564285Y-80285714D01*
X209492857Y-80214285D01*
X209421428Y-80071428D01*
X209421428Y-79928571D01*
X209492857Y-79785714D01*
X209564285Y-79714285D01*
X209707142Y-79642857D01*
X209992857Y-79571428D01*
X210350000Y-79571428D01*
X210635714Y-79642857D01*
X210778571Y-79714285D01*
X210850000Y-79785714D01*
X210921428Y-79928571D01*
X210921428Y-81357142D02*
X210921428Y-81500000D01*
X210850000Y-81642857D01*
X210778571Y-81714285D01*
X210635714Y-81785714D01*
X210350000Y-81857142D01*
X209992857Y-81857142D01*
X209707142Y-81785714D01*
X209564285Y-81714285D01*
X209492857Y-81642857D01*
X209421428Y-81500000D01*
X209421428Y-81357142D01*
X209492857Y-81214285D01*
X209564285Y-81142857D01*
X209707142Y-81071428D01*
X209992857Y-81000000D01*
X210350000Y-81000000D01*
X210635714Y-81071428D01*
X210778571Y-81142857D01*
X210850000Y-81214285D01*
X210921428Y-81357142D01*
X209421428Y-83642857D02*
X210421428Y-83642857D01*
X210278571Y-83642857D02*
X210350000Y-83714285D01*
X210421428Y-83857142D01*
X210421428Y-84071428D01*
X210350000Y-84214285D01*
X210207142Y-84285714D01*
X209421428Y-84285714D01*
X210207142Y-84285714D02*
X210350000Y-84357142D01*
X210421428Y-84500000D01*
X210421428Y-84714285D01*
X210350000Y-84857142D01*
X210207142Y-84928571D01*
X209421428Y-84928571D01*
X209421428Y-85642857D02*
X210421428Y-85642857D01*
X210278571Y-85642857D02*
X210350000Y-85714285D01*
X210421428Y-85857142D01*
X210421428Y-86071428D01*
X210350000Y-86214285D01*
X210207142Y-86285714D01*
X209421428Y-86285714D01*
X210207142Y-86285714D02*
X210350000Y-86357142D01*
X210421428Y-86500000D01*
X210421428Y-86714285D01*
X210350000Y-86857142D01*
X210207142Y-86928571D01*
X209421428Y-86928571D01*
X208000000Y-80000000D02*
X208000000Y-83000000D01*
X186000000Y-80000000D02*
X208586421Y-80000000D01*
X186000000Y-83000000D02*
X208586421Y-83000000D01*
X208000000Y-83000000D02*
X207413579Y-81873496D01*
X208000000Y-83000000D02*
X208586421Y-81873496D01*
X208000000Y-80000000D02*
X207413579Y-81126504D01*
X208000000Y-80000000D02*
X208586421Y-81126504D01*
D11*
G04 #@! TO.C,A1*
X136866000Y-115690000D02*
X136866000Y-97650000D01*
X93426000Y-115690000D02*
X136866000Y-115690000D01*
X93426000Y-97650000D02*
X93426000Y-115690000D01*
X96096000Y-100320000D02*
X96096000Y-97650000D01*
X131656000Y-100320000D02*
X96096000Y-100320000D01*
X131656000Y-100320000D02*
X131656000Y-97650000D01*
X96096000Y-113020000D02*
X96096000Y-115690000D01*
X134196000Y-113020000D02*
X96096000Y-113020000D01*
X134196000Y-113020000D02*
X134196000Y-115690000D01*
X136866000Y-97650000D02*
X134196000Y-97650000D01*
X131656000Y-97650000D02*
X93426000Y-97650000D01*
X134196000Y-100320000D02*
X134196000Y-97650000D01*
X131656000Y-100320000D02*
X134196000Y-100320000D01*
G04 #@! TO.C,C1*
X178803241Y-89774000D02*
X178803241Y-89144000D01*
X179118241Y-89459000D02*
X178488241Y-89459000D01*
X172377000Y-88022000D02*
X172377000Y-87218000D01*
X172417000Y-88253000D02*
X172417000Y-86987000D01*
X172457000Y-88422000D02*
X172457000Y-86818000D01*
X172497000Y-88560000D02*
X172497000Y-86680000D01*
X172537000Y-88679000D02*
X172537000Y-86561000D01*
X172577000Y-88785000D02*
X172577000Y-86455000D01*
X172617000Y-88882000D02*
X172617000Y-86358000D01*
X172657000Y-88970000D02*
X172657000Y-86270000D01*
X172697000Y-89052000D02*
X172697000Y-86188000D01*
X172737000Y-89129000D02*
X172737000Y-86111000D01*
X172777000Y-89201000D02*
X172777000Y-86039000D01*
X172817000Y-89270000D02*
X172817000Y-85970000D01*
X172857000Y-89334000D02*
X172857000Y-85906000D01*
X172897000Y-89396000D02*
X172897000Y-85844000D01*
X172937000Y-89454000D02*
X172937000Y-85786000D01*
X172977000Y-89510000D02*
X172977000Y-85730000D01*
X173017000Y-89564000D02*
X173017000Y-85676000D01*
X173057000Y-89615000D02*
X173057000Y-85625000D01*
X173097000Y-89664000D02*
X173097000Y-85576000D01*
X173137000Y-89712000D02*
X173137000Y-85528000D01*
X173177000Y-89757000D02*
X173177000Y-85483000D01*
X173217000Y-89802000D02*
X173217000Y-85438000D01*
X173257000Y-89844000D02*
X173257000Y-85396000D01*
X173297000Y-89885000D02*
X173297000Y-85355000D01*
X173337000Y-86580000D02*
X173337000Y-85315000D01*
X173337000Y-89925000D02*
X173337000Y-88660000D01*
X173377000Y-86580000D02*
X173377000Y-85277000D01*
X173377000Y-89963000D02*
X173377000Y-88660000D01*
X173417000Y-86580000D02*
X173417000Y-85240000D01*
X173417000Y-90000000D02*
X173417000Y-88660000D01*
X173457000Y-86580000D02*
X173457000Y-85204000D01*
X173457000Y-90036000D02*
X173457000Y-88660000D01*
X173497000Y-86580000D02*
X173497000Y-85170000D01*
X173497000Y-90070000D02*
X173497000Y-88660000D01*
X173537000Y-86580000D02*
X173537000Y-85136000D01*
X173537000Y-90104000D02*
X173537000Y-88660000D01*
X173577000Y-86580000D02*
X173577000Y-85104000D01*
X173577000Y-90136000D02*
X173577000Y-88660000D01*
X173617000Y-86580000D02*
X173617000Y-85072000D01*
X173617000Y-90168000D02*
X173617000Y-88660000D01*
X173657000Y-86580000D02*
X173657000Y-85042000D01*
X173657000Y-90198000D02*
X173657000Y-88660000D01*
X173697000Y-86580000D02*
X173697000Y-85013000D01*
X173697000Y-90227000D02*
X173697000Y-88660000D01*
X173737000Y-86580000D02*
X173737000Y-84984000D01*
X173737000Y-90256000D02*
X173737000Y-88660000D01*
X173777000Y-86580000D02*
X173777000Y-84956000D01*
X173777000Y-90284000D02*
X173777000Y-88660000D01*
X173817000Y-86580000D02*
X173817000Y-84930000D01*
X173817000Y-90310000D02*
X173817000Y-88660000D01*
X173857000Y-86580000D02*
X173857000Y-84904000D01*
X173857000Y-90336000D02*
X173857000Y-88660000D01*
X173897000Y-86580000D02*
X173897000Y-84878000D01*
X173897000Y-90362000D02*
X173897000Y-88660000D01*
X173937000Y-86580000D02*
X173937000Y-84854000D01*
X173937000Y-90386000D02*
X173937000Y-88660000D01*
X173977000Y-86580000D02*
X173977000Y-84830000D01*
X173977000Y-90410000D02*
X173977000Y-88660000D01*
X174017000Y-86580000D02*
X174017000Y-84808000D01*
X174017000Y-90432000D02*
X174017000Y-88660000D01*
X174057000Y-86580000D02*
X174057000Y-84786000D01*
X174057000Y-90454000D02*
X174057000Y-88660000D01*
X174097000Y-86580000D02*
X174097000Y-84764000D01*
X174097000Y-90476000D02*
X174097000Y-88660000D01*
X174137000Y-86580000D02*
X174137000Y-84744000D01*
X174137000Y-90496000D02*
X174137000Y-88660000D01*
X174177000Y-86580000D02*
X174177000Y-84724000D01*
X174177000Y-90516000D02*
X174177000Y-88660000D01*
X174217000Y-86580000D02*
X174217000Y-84704000D01*
X174217000Y-90536000D02*
X174217000Y-88660000D01*
X174257000Y-86580000D02*
X174257000Y-84686000D01*
X174257000Y-90554000D02*
X174257000Y-88660000D01*
X174297000Y-86580000D02*
X174297000Y-84668000D01*
X174297000Y-90572000D02*
X174297000Y-88660000D01*
X174337000Y-86580000D02*
X174337000Y-84650000D01*
X174337000Y-90590000D02*
X174337000Y-88660000D01*
X174377000Y-86580000D02*
X174377000Y-84634000D01*
X174377000Y-90606000D02*
X174377000Y-88660000D01*
X174417000Y-86580000D02*
X174417000Y-84618000D01*
X174417000Y-90622000D02*
X174417000Y-88660000D01*
X174457000Y-86580000D02*
X174457000Y-84602000D01*
X174457000Y-90638000D02*
X174457000Y-88660000D01*
X174497000Y-86580000D02*
X174497000Y-84587000D01*
X174497000Y-90653000D02*
X174497000Y-88660000D01*
X174537000Y-86580000D02*
X174537000Y-84573000D01*
X174537000Y-90667000D02*
X174537000Y-88660000D01*
X174577000Y-86580000D02*
X174577000Y-84559000D01*
X174577000Y-90681000D02*
X174577000Y-88660000D01*
X174617000Y-86580000D02*
X174617000Y-84546000D01*
X174617000Y-90694000D02*
X174617000Y-88660000D01*
X174657000Y-86580000D02*
X174657000Y-84534000D01*
X174657000Y-90706000D02*
X174657000Y-88660000D01*
X174697000Y-86580000D02*
X174697000Y-84522000D01*
X174697000Y-90718000D02*
X174697000Y-88660000D01*
X174737000Y-86580000D02*
X174737000Y-84510000D01*
X174737000Y-90730000D02*
X174737000Y-88660000D01*
X174777000Y-86580000D02*
X174777000Y-84499000D01*
X174777000Y-90741000D02*
X174777000Y-88660000D01*
X174817000Y-86580000D02*
X174817000Y-84489000D01*
X174817000Y-90751000D02*
X174817000Y-88660000D01*
X174857000Y-86580000D02*
X174857000Y-84479000D01*
X174857000Y-90761000D02*
X174857000Y-88660000D01*
X174897000Y-86580000D02*
X174897000Y-84470000D01*
X174897000Y-90770000D02*
X174897000Y-88660000D01*
X174938000Y-86580000D02*
X174938000Y-84461000D01*
X174938000Y-90779000D02*
X174938000Y-88660000D01*
X174978000Y-86580000D02*
X174978000Y-84453000D01*
X174978000Y-90787000D02*
X174978000Y-88660000D01*
X175018000Y-86580000D02*
X175018000Y-84445000D01*
X175018000Y-90795000D02*
X175018000Y-88660000D01*
X175058000Y-86580000D02*
X175058000Y-84438000D01*
X175058000Y-90802000D02*
X175058000Y-88660000D01*
X175098000Y-86580000D02*
X175098000Y-84431000D01*
X175098000Y-90809000D02*
X175098000Y-88660000D01*
X175138000Y-86580000D02*
X175138000Y-84425000D01*
X175138000Y-90815000D02*
X175138000Y-88660000D01*
X175178000Y-86580000D02*
X175178000Y-84419000D01*
X175178000Y-90821000D02*
X175178000Y-88660000D01*
X175218000Y-86580000D02*
X175218000Y-84414000D01*
X175218000Y-90826000D02*
X175218000Y-88660000D01*
X175258000Y-86580000D02*
X175258000Y-84409000D01*
X175258000Y-90831000D02*
X175258000Y-88660000D01*
X175298000Y-86580000D02*
X175298000Y-84405000D01*
X175298000Y-90835000D02*
X175298000Y-88660000D01*
X175338000Y-86580000D02*
X175338000Y-84402000D01*
X175338000Y-90838000D02*
X175338000Y-88660000D01*
X175378000Y-86580000D02*
X175378000Y-84398000D01*
X175378000Y-90842000D02*
X175378000Y-88660000D01*
X175418000Y-90844000D02*
X175418000Y-84396000D01*
X175458000Y-90847000D02*
X175458000Y-84393000D01*
X175498000Y-90848000D02*
X175498000Y-84392000D01*
X175538000Y-90850000D02*
X175538000Y-84390000D01*
X175578000Y-90850000D02*
X175578000Y-84390000D01*
X175618000Y-90850000D02*
X175618000Y-84390000D01*
X178888000Y-87620000D02*
G75*
G03X178888000Y-87620000I-3270000J0D01*
G01*
G04 #@! TO.C,C2*
X164554000Y-91079241D02*
X165184000Y-91079241D01*
X164869000Y-91394241D02*
X164869000Y-90764241D01*
X166306000Y-84653000D02*
X167110000Y-84653000D01*
X166075000Y-84693000D02*
X167341000Y-84693000D01*
X165906000Y-84733000D02*
X167510000Y-84733000D01*
X165768000Y-84773000D02*
X167648000Y-84773000D01*
X165649000Y-84813000D02*
X167767000Y-84813000D01*
X165543000Y-84853000D02*
X167873000Y-84853000D01*
X165446000Y-84893000D02*
X167970000Y-84893000D01*
X165358000Y-84933000D02*
X168058000Y-84933000D01*
X165276000Y-84973000D02*
X168140000Y-84973000D01*
X165199000Y-85013000D02*
X168217000Y-85013000D01*
X165127000Y-85053000D02*
X168289000Y-85053000D01*
X165058000Y-85093000D02*
X168358000Y-85093000D01*
X164994000Y-85133000D02*
X168422000Y-85133000D01*
X164932000Y-85173000D02*
X168484000Y-85173000D01*
X164874000Y-85213000D02*
X168542000Y-85213000D01*
X164818000Y-85253000D02*
X168598000Y-85253000D01*
X164764000Y-85293000D02*
X168652000Y-85293000D01*
X164713000Y-85333000D02*
X168703000Y-85333000D01*
X164664000Y-85373000D02*
X168752000Y-85373000D01*
X164616000Y-85413000D02*
X168800000Y-85413000D01*
X164571000Y-85453000D02*
X168845000Y-85453000D01*
X164526000Y-85493000D02*
X168890000Y-85493000D01*
X164484000Y-85533000D02*
X168932000Y-85533000D01*
X164443000Y-85573000D02*
X168973000Y-85573000D01*
X167748000Y-85613000D02*
X169013000Y-85613000D01*
X164403000Y-85613000D02*
X165668000Y-85613000D01*
X167748000Y-85653000D02*
X169051000Y-85653000D01*
X164365000Y-85653000D02*
X165668000Y-85653000D01*
X167748000Y-85693000D02*
X169088000Y-85693000D01*
X164328000Y-85693000D02*
X165668000Y-85693000D01*
X167748000Y-85733000D02*
X169124000Y-85733000D01*
X164292000Y-85733000D02*
X165668000Y-85733000D01*
X167748000Y-85773000D02*
X169158000Y-85773000D01*
X164258000Y-85773000D02*
X165668000Y-85773000D01*
X167748000Y-85813000D02*
X169192000Y-85813000D01*
X164224000Y-85813000D02*
X165668000Y-85813000D01*
X167748000Y-85853000D02*
X169224000Y-85853000D01*
X164192000Y-85853000D02*
X165668000Y-85853000D01*
X167748000Y-85893000D02*
X169256000Y-85893000D01*
X164160000Y-85893000D02*
X165668000Y-85893000D01*
X167748000Y-85933000D02*
X169286000Y-85933000D01*
X164130000Y-85933000D02*
X165668000Y-85933000D01*
X167748000Y-85973000D02*
X169315000Y-85973000D01*
X164101000Y-85973000D02*
X165668000Y-85973000D01*
X167748000Y-86013000D02*
X169344000Y-86013000D01*
X164072000Y-86013000D02*
X165668000Y-86013000D01*
X167748000Y-86053000D02*
X169372000Y-86053000D01*
X164044000Y-86053000D02*
X165668000Y-86053000D01*
X167748000Y-86093000D02*
X169398000Y-86093000D01*
X164018000Y-86093000D02*
X165668000Y-86093000D01*
X167748000Y-86133000D02*
X169424000Y-86133000D01*
X163992000Y-86133000D02*
X165668000Y-86133000D01*
X167748000Y-86173000D02*
X169450000Y-86173000D01*
X163966000Y-86173000D02*
X165668000Y-86173000D01*
X167748000Y-86213000D02*
X169474000Y-86213000D01*
X163942000Y-86213000D02*
X165668000Y-86213000D01*
X167748000Y-86253000D02*
X169498000Y-86253000D01*
X163918000Y-86253000D02*
X165668000Y-86253000D01*
X167748000Y-86293000D02*
X169520000Y-86293000D01*
X163896000Y-86293000D02*
X165668000Y-86293000D01*
X167748000Y-86333000D02*
X169542000Y-86333000D01*
X163874000Y-86333000D02*
X165668000Y-86333000D01*
X167748000Y-86373000D02*
X169564000Y-86373000D01*
X163852000Y-86373000D02*
X165668000Y-86373000D01*
X167748000Y-86413000D02*
X169584000Y-86413000D01*
X163832000Y-86413000D02*
X165668000Y-86413000D01*
X167748000Y-86453000D02*
X169604000Y-86453000D01*
X163812000Y-86453000D02*
X165668000Y-86453000D01*
X167748000Y-86493000D02*
X169624000Y-86493000D01*
X163792000Y-86493000D02*
X165668000Y-86493000D01*
X167748000Y-86533000D02*
X169642000Y-86533000D01*
X163774000Y-86533000D02*
X165668000Y-86533000D01*
X167748000Y-86573000D02*
X169660000Y-86573000D01*
X163756000Y-86573000D02*
X165668000Y-86573000D01*
X167748000Y-86613000D02*
X169678000Y-86613000D01*
X163738000Y-86613000D02*
X165668000Y-86613000D01*
X167748000Y-86653000D02*
X169694000Y-86653000D01*
X163722000Y-86653000D02*
X165668000Y-86653000D01*
X167748000Y-86693000D02*
X169710000Y-86693000D01*
X163706000Y-86693000D02*
X165668000Y-86693000D01*
X167748000Y-86733000D02*
X169726000Y-86733000D01*
X163690000Y-86733000D02*
X165668000Y-86733000D01*
X167748000Y-86773000D02*
X169741000Y-86773000D01*
X163675000Y-86773000D02*
X165668000Y-86773000D01*
X167748000Y-86813000D02*
X169755000Y-86813000D01*
X163661000Y-86813000D02*
X165668000Y-86813000D01*
X167748000Y-86853000D02*
X169769000Y-86853000D01*
X163647000Y-86853000D02*
X165668000Y-86853000D01*
X167748000Y-86893000D02*
X169782000Y-86893000D01*
X163634000Y-86893000D02*
X165668000Y-86893000D01*
X167748000Y-86933000D02*
X169794000Y-86933000D01*
X163622000Y-86933000D02*
X165668000Y-86933000D01*
X167748000Y-86973000D02*
X169806000Y-86973000D01*
X163610000Y-86973000D02*
X165668000Y-86973000D01*
X167748000Y-87013000D02*
X169818000Y-87013000D01*
X163598000Y-87013000D02*
X165668000Y-87013000D01*
X167748000Y-87053000D02*
X169829000Y-87053000D01*
X163587000Y-87053000D02*
X165668000Y-87053000D01*
X167748000Y-87093000D02*
X169839000Y-87093000D01*
X163577000Y-87093000D02*
X165668000Y-87093000D01*
X167748000Y-87133000D02*
X169849000Y-87133000D01*
X163567000Y-87133000D02*
X165668000Y-87133000D01*
X167748000Y-87173000D02*
X169858000Y-87173000D01*
X163558000Y-87173000D02*
X165668000Y-87173000D01*
X167748000Y-87214000D02*
X169867000Y-87214000D01*
X163549000Y-87214000D02*
X165668000Y-87214000D01*
X167748000Y-87254000D02*
X169875000Y-87254000D01*
X163541000Y-87254000D02*
X165668000Y-87254000D01*
X167748000Y-87294000D02*
X169883000Y-87294000D01*
X163533000Y-87294000D02*
X165668000Y-87294000D01*
X167748000Y-87334000D02*
X169890000Y-87334000D01*
X163526000Y-87334000D02*
X165668000Y-87334000D01*
X167748000Y-87374000D02*
X169897000Y-87374000D01*
X163519000Y-87374000D02*
X165668000Y-87374000D01*
X167748000Y-87414000D02*
X169903000Y-87414000D01*
X163513000Y-87414000D02*
X165668000Y-87414000D01*
X167748000Y-87454000D02*
X169909000Y-87454000D01*
X163507000Y-87454000D02*
X165668000Y-87454000D01*
X167748000Y-87494000D02*
X169914000Y-87494000D01*
X163502000Y-87494000D02*
X165668000Y-87494000D01*
X167748000Y-87534000D02*
X169919000Y-87534000D01*
X163497000Y-87534000D02*
X165668000Y-87534000D01*
X167748000Y-87574000D02*
X169923000Y-87574000D01*
X163493000Y-87574000D02*
X165668000Y-87574000D01*
X167748000Y-87614000D02*
X169926000Y-87614000D01*
X163490000Y-87614000D02*
X165668000Y-87614000D01*
X167748000Y-87654000D02*
X169930000Y-87654000D01*
X163486000Y-87654000D02*
X165668000Y-87654000D01*
X163484000Y-87694000D02*
X169932000Y-87694000D01*
X163481000Y-87734000D02*
X169935000Y-87734000D01*
X163480000Y-87774000D02*
X169936000Y-87774000D01*
X163478000Y-87814000D02*
X169938000Y-87814000D01*
X163478000Y-87854000D02*
X169938000Y-87854000D01*
X163478000Y-87894000D02*
X169938000Y-87894000D01*
X169978000Y-87894000D02*
G75*
G03X169978000Y-87894000I-3270000J0D01*
G01*
G04 #@! TO.C,Q1*
X178198478Y-134338478D02*
G75*
G03X176360000Y-129900000I-1838478J1838478D01*
G01*
X174521522Y-134338478D02*
G75*
G02X176360000Y-129900000I1838478J1838478D01*
G01*
X174560000Y-134350000D02*
X178160000Y-134350000D01*
G04 #@! TO.C,Q2*
X116068478Y-134338478D02*
G75*
G03X114230000Y-129900000I-1838478J1838478D01*
G01*
X112391522Y-134338478D02*
G75*
G02X114230000Y-129900000I1838478J1838478D01*
G01*
X112430000Y-134350000D02*
X116030000Y-134350000D01*
G04 #@! TO.C,Q3*
X123080478Y-134338478D02*
G75*
G03X121242000Y-129900000I-1838478J1838478D01*
G01*
X119403522Y-134338478D02*
G75*
G02X121242000Y-129900000I1838478J1838478D01*
G01*
X119442000Y-134350000D02*
X123042000Y-134350000D01*
G04 #@! TO.C,Q4*
X171068478Y-134338478D02*
G75*
G03X169230000Y-129900000I-1838478J1838478D01*
G01*
X167391522Y-134338478D02*
G75*
G02X169230000Y-129900000I1838478J1838478D01*
G01*
X167430000Y-134350000D02*
X171030000Y-134350000D01*
G04 #@! TO.C,R1*
X111200000Y-85000000D02*
X111310000Y-85000000D01*
X123560000Y-85000000D02*
X123450000Y-85000000D01*
X111310000Y-87370000D02*
X123450000Y-87370000D01*
X111310000Y-82630000D02*
X111310000Y-87370000D01*
X123450000Y-82630000D02*
X111310000Y-82630000D01*
X123450000Y-87370000D02*
X123450000Y-82630000D01*
G04 #@! TO.C,R2*
X150790000Y-90668000D02*
X150680000Y-90668000D01*
X138430000Y-90668000D02*
X138540000Y-90668000D01*
X150680000Y-88298000D02*
X138540000Y-88298000D01*
X150680000Y-93038000D02*
X150680000Y-88298000D01*
X138540000Y-93038000D02*
X150680000Y-93038000D01*
X138540000Y-88298000D02*
X138540000Y-93038000D01*
G04 #@! TO.C,R3*
X150790000Y-85080000D02*
X150680000Y-85080000D01*
X138430000Y-85080000D02*
X138540000Y-85080000D01*
X150680000Y-82710000D02*
X138540000Y-82710000D01*
X150680000Y-87450000D02*
X150680000Y-82710000D01*
X138540000Y-87450000D02*
X150680000Y-87450000D01*
X138540000Y-82710000D02*
X138540000Y-87450000D01*
G04 #@! TO.C,R4*
X123560000Y-91430000D02*
X123450000Y-91430000D01*
X111200000Y-91430000D02*
X111310000Y-91430000D01*
X123450000Y-89060000D02*
X111310000Y-89060000D01*
X123450000Y-93800000D02*
X123450000Y-89060000D01*
X111310000Y-93800000D02*
X123450000Y-93800000D01*
X111310000Y-89060000D02*
X111310000Y-93800000D01*
G04 #@! TO.C,R5*
X156210000Y-123000000D02*
X156320000Y-123000000D01*
X168570000Y-123000000D02*
X168460000Y-123000000D01*
X156320000Y-125370000D02*
X168460000Y-125370000D01*
X156320000Y-120630000D02*
X156320000Y-125370000D01*
X168460000Y-120630000D02*
X156320000Y-120630000D01*
X168460000Y-125370000D02*
X168460000Y-120630000D01*
G04 #@! TO.C,R6*
X121920000Y-123180000D02*
X122030000Y-123180000D01*
X134280000Y-123180000D02*
X134170000Y-123180000D01*
X122030000Y-125550000D02*
X134170000Y-125550000D01*
X122030000Y-120810000D02*
X122030000Y-125550000D01*
X134170000Y-120810000D02*
X122030000Y-120810000D01*
X134170000Y-125550000D02*
X134170000Y-120810000D01*
G04 #@! TO.C,R7*
X142000000Y-123350000D02*
X142000000Y-123460000D01*
X142000000Y-135710000D02*
X142000000Y-135600000D01*
X139630000Y-123460000D02*
X139630000Y-135600000D01*
X144370000Y-123460000D02*
X139630000Y-123460000D01*
X144370000Y-135600000D02*
X144370000Y-123460000D01*
X139630000Y-135600000D02*
X144370000Y-135600000D01*
G04 #@! TO.C,R8*
X148420000Y-123350000D02*
X148420000Y-123460000D01*
X148420000Y-135710000D02*
X148420000Y-135600000D01*
X146050000Y-123460000D02*
X146050000Y-135600000D01*
X150790000Y-123460000D02*
X146050000Y-123460000D01*
X150790000Y-135600000D02*
X150790000Y-123460000D01*
X146050000Y-135600000D02*
X150790000Y-135600000D01*
D12*
G04 #@! TO.C,S1*
X106350000Y-80690000D02*
X106350000Y-81040000D01*
X106350000Y-80690000D02*
X105850000Y-80690000D01*
X106350000Y-90390000D02*
X106350000Y-90040000D01*
X106350000Y-90390000D02*
X105850000Y-90390000D01*
X101150000Y-90390000D02*
X101650000Y-90390000D01*
X101150000Y-90390000D02*
X101150000Y-90040000D01*
X101150000Y-80690000D02*
X101150000Y-81040000D01*
X101150000Y-80690000D02*
X101650000Y-80690000D01*
G04 #@! TO.C,S2*
X188850000Y-80690000D02*
X188850000Y-81040000D01*
X188850000Y-80690000D02*
X188350000Y-80690000D01*
X188850000Y-90390000D02*
X188850000Y-90040000D01*
X188850000Y-90390000D02*
X188350000Y-90390000D01*
X183650000Y-90390000D02*
X184150000Y-90390000D01*
X183650000Y-90390000D02*
X183650000Y-90040000D01*
X183650000Y-80690000D02*
X183650000Y-81040000D01*
X183650000Y-80690000D02*
X184150000Y-80690000D01*
G04 #@! TO.C,S3*
X161350000Y-80690000D02*
X161350000Y-81040000D01*
X161350000Y-80690000D02*
X160850000Y-80690000D01*
X161350000Y-90390000D02*
X161350000Y-90040000D01*
X161350000Y-90390000D02*
X160850000Y-90390000D01*
X156150000Y-90390000D02*
X156650000Y-90390000D01*
X156150000Y-90390000D02*
X156150000Y-90040000D01*
X156150000Y-80690000D02*
X156150000Y-81040000D01*
X156150000Y-80690000D02*
X156650000Y-80690000D01*
G04 #@! TO.C,S4*
X133850000Y-80690000D02*
X133850000Y-81040000D01*
X133850000Y-80690000D02*
X133350000Y-80690000D01*
X133850000Y-90390000D02*
X133850000Y-90040000D01*
X133850000Y-90390000D02*
X133350000Y-90390000D01*
X128650000Y-90390000D02*
X129150000Y-90390000D01*
X128650000Y-90390000D02*
X128650000Y-90040000D01*
X128650000Y-80690000D02*
X128650000Y-81040000D01*
X128650000Y-80690000D02*
X129150000Y-80690000D01*
D13*
G04 #@! TO.C,U1*
X170772000Y-109718000D02*
G75*
G02X170772000Y-104638000I0J2540000D01*
G01*
D14*
X139022000Y-97018000D02*
X139022000Y-117338000D01*
X170772000Y-97018000D02*
X170772000Y-117338000D01*
X139022000Y-97018000D02*
X170772000Y-97018000D01*
X139022000Y-117338000D02*
X170772000Y-117338000D01*
D13*
G04 #@! TO.C,D1*
X190250000Y-132500000D02*
X189250000Y-132500000D01*
X182250000Y-132500000D02*
X183250000Y-132500000D01*
X182750000Y-132000000D02*
X182750000Y-133000000D01*
X190750000Y-132500000D02*
X191250000Y-132500000D01*
X181750000Y-132500000D02*
X181250000Y-132500000D01*
X183068019Y-135681981D02*
X189431981Y-129318019D01*
X189431981Y-135681981D02*
X183068019Y-129318019D01*
X190750000Y-132500000D02*
G75*
G03X190750000Y-132500000I-4500000J0D01*
G01*
G04 #@! TO.C,D2*
X99750000Y-132500000D02*
X100750000Y-132500000D01*
X107750000Y-132500000D02*
X106750000Y-132500000D01*
X107250000Y-133000000D02*
X107250000Y-132000000D01*
X99250000Y-132500000D02*
X98750000Y-132500000D01*
X108250000Y-132500000D02*
X108750000Y-132500000D01*
X106931981Y-129318019D02*
X100568019Y-135681981D01*
X100568019Y-129318019D02*
X106931981Y-135681981D01*
X108250000Y-132500000D02*
G75*
G03X108250000Y-132500000I-4500000J0D01*
G01*
G04 #@! TO.C,D3*
X135250000Y-132500000D02*
X134250000Y-132500000D01*
X127250000Y-132500000D02*
X128250000Y-132500000D01*
X127750000Y-132000000D02*
X127750000Y-133000000D01*
X135750000Y-132500000D02*
X136250000Y-132500000D01*
X126750000Y-132500000D02*
X126250000Y-132500000D01*
X128068019Y-135681981D02*
X134431981Y-129318019D01*
X134431981Y-135681981D02*
X128068019Y-129318019D01*
X135750000Y-132500000D02*
G75*
G03X135750000Y-132500000I-4500000J0D01*
G01*
G04 #@! TO.C,D4*
X154750000Y-132500000D02*
X155750000Y-132500000D01*
X162750000Y-132500000D02*
X161750000Y-132500000D01*
X162250000Y-133000000D02*
X162250000Y-132000000D01*
X154250000Y-132500000D02*
X153750000Y-132500000D01*
X163250000Y-132500000D02*
X163750000Y-132500000D01*
X161931981Y-129318019D02*
X155568019Y-135681981D01*
X155568019Y-129318019D02*
X161931981Y-135681981D01*
X163250000Y-132500000D02*
G75*
G03X163250000Y-132500000I-4500000J0D01*
G01*
G04 #@! TO.C,M4*
D15*
X94190476Y-122452380D02*
X94190476Y-121452380D01*
X94523809Y-122166666D01*
X94857142Y-121452380D01*
X94857142Y-122452380D01*
X95761904Y-121785714D02*
X95761904Y-122452380D01*
X95523809Y-121404761D02*
X95285714Y-122119047D01*
X95904761Y-122119047D01*
G04 #@! TO.C,A1*
X138172666Y-107384285D02*
X138172666Y-106908095D01*
X138458380Y-107479523D02*
X137458380Y-107146190D01*
X138458380Y-106812857D01*
X138458380Y-105955714D02*
X138458380Y-106527142D01*
X138458380Y-106241428D02*
X137458380Y-106241428D01*
X137601238Y-106336666D01*
X137696476Y-106431904D01*
X137744095Y-106527142D01*
G04 #@! TO.C,C1*
X175451333Y-92377142D02*
X175403714Y-92424761D01*
X175260857Y-92472380D01*
X175165619Y-92472380D01*
X175022761Y-92424761D01*
X174927523Y-92329523D01*
X174879904Y-92234285D01*
X174832285Y-92043809D01*
X174832285Y-91900952D01*
X174879904Y-91710476D01*
X174927523Y-91615238D01*
X175022761Y-91520000D01*
X175165619Y-91472380D01*
X175260857Y-91472380D01*
X175403714Y-91520000D01*
X175451333Y-91567619D01*
X176403714Y-92472380D02*
X175832285Y-92472380D01*
X176118000Y-92472380D02*
X176118000Y-91472380D01*
X176022761Y-91615238D01*
X175927523Y-91710476D01*
X175832285Y-91758095D01*
G04 #@! TO.C,C2*
X162665142Y-88060666D02*
X162712761Y-88108285D01*
X162760380Y-88251142D01*
X162760380Y-88346380D01*
X162712761Y-88489238D01*
X162617523Y-88584476D01*
X162522285Y-88632095D01*
X162331809Y-88679714D01*
X162188952Y-88679714D01*
X161998476Y-88632095D01*
X161903238Y-88584476D01*
X161808000Y-88489238D01*
X161760380Y-88346380D01*
X161760380Y-88251142D01*
X161808000Y-88108285D01*
X161855619Y-88060666D01*
X161855619Y-87679714D02*
X161808000Y-87632095D01*
X161760380Y-87536857D01*
X161760380Y-87298761D01*
X161808000Y-87203523D01*
X161855619Y-87155904D01*
X161950857Y-87108285D01*
X162046095Y-87108285D01*
X162188952Y-87155904D01*
X162760380Y-87727333D01*
X162760380Y-87108285D01*
G04 #@! TO.C,Q1*
X176264761Y-129487619D02*
X176169523Y-129440000D01*
X176074285Y-129344761D01*
X175931428Y-129201904D01*
X175836190Y-129154285D01*
X175740952Y-129154285D01*
X175788571Y-129392380D02*
X175693333Y-129344761D01*
X175598095Y-129249523D01*
X175550476Y-129059047D01*
X175550476Y-128725714D01*
X175598095Y-128535238D01*
X175693333Y-128440000D01*
X175788571Y-128392380D01*
X175979047Y-128392380D01*
X176074285Y-128440000D01*
X176169523Y-128535238D01*
X176217142Y-128725714D01*
X176217142Y-129059047D01*
X176169523Y-129249523D01*
X176074285Y-129344761D01*
X175979047Y-129392380D01*
X175788571Y-129392380D01*
X177169523Y-129392380D02*
X176598095Y-129392380D01*
X176883809Y-129392380D02*
X176883809Y-128392380D01*
X176788571Y-128535238D01*
X176693333Y-128630476D01*
X176598095Y-128678095D01*
G04 #@! TO.C,Q2*
X114134761Y-129487619D02*
X114039523Y-129440000D01*
X113944285Y-129344761D01*
X113801428Y-129201904D01*
X113706190Y-129154285D01*
X113610952Y-129154285D01*
X113658571Y-129392380D02*
X113563333Y-129344761D01*
X113468095Y-129249523D01*
X113420476Y-129059047D01*
X113420476Y-128725714D01*
X113468095Y-128535238D01*
X113563333Y-128440000D01*
X113658571Y-128392380D01*
X113849047Y-128392380D01*
X113944285Y-128440000D01*
X114039523Y-128535238D01*
X114087142Y-128725714D01*
X114087142Y-129059047D01*
X114039523Y-129249523D01*
X113944285Y-129344761D01*
X113849047Y-129392380D01*
X113658571Y-129392380D01*
X114468095Y-128487619D02*
X114515714Y-128440000D01*
X114610952Y-128392380D01*
X114849047Y-128392380D01*
X114944285Y-128440000D01*
X114991904Y-128487619D01*
X115039523Y-128582857D01*
X115039523Y-128678095D01*
X114991904Y-128820952D01*
X114420476Y-129392380D01*
X115039523Y-129392380D01*
G04 #@! TO.C,Q3*
X121146761Y-129487619D02*
X121051523Y-129440000D01*
X120956285Y-129344761D01*
X120813428Y-129201904D01*
X120718190Y-129154285D01*
X120622952Y-129154285D01*
X120670571Y-129392380D02*
X120575333Y-129344761D01*
X120480095Y-129249523D01*
X120432476Y-129059047D01*
X120432476Y-128725714D01*
X120480095Y-128535238D01*
X120575333Y-128440000D01*
X120670571Y-128392380D01*
X120861047Y-128392380D01*
X120956285Y-128440000D01*
X121051523Y-128535238D01*
X121099142Y-128725714D01*
X121099142Y-129059047D01*
X121051523Y-129249523D01*
X120956285Y-129344761D01*
X120861047Y-129392380D01*
X120670571Y-129392380D01*
X121432476Y-128392380D02*
X122051523Y-128392380D01*
X121718190Y-128773333D01*
X121861047Y-128773333D01*
X121956285Y-128820952D01*
X122003904Y-128868571D01*
X122051523Y-128963809D01*
X122051523Y-129201904D01*
X122003904Y-129297142D01*
X121956285Y-129344761D01*
X121861047Y-129392380D01*
X121575333Y-129392380D01*
X121480095Y-129344761D01*
X121432476Y-129297142D01*
G04 #@! TO.C,Q4*
X169134761Y-129487619D02*
X169039523Y-129440000D01*
X168944285Y-129344761D01*
X168801428Y-129201904D01*
X168706190Y-129154285D01*
X168610952Y-129154285D01*
X168658571Y-129392380D02*
X168563333Y-129344761D01*
X168468095Y-129249523D01*
X168420476Y-129059047D01*
X168420476Y-128725714D01*
X168468095Y-128535238D01*
X168563333Y-128440000D01*
X168658571Y-128392380D01*
X168849047Y-128392380D01*
X168944285Y-128440000D01*
X169039523Y-128535238D01*
X169087142Y-128725714D01*
X169087142Y-129059047D01*
X169039523Y-129249523D01*
X168944285Y-129344761D01*
X168849047Y-129392380D01*
X168658571Y-129392380D01*
X169944285Y-128725714D02*
X169944285Y-129392380D01*
X169706190Y-128344761D02*
X169468095Y-129059047D01*
X170087142Y-129059047D01*
G04 #@! TO.C,R1*
X117213333Y-88822380D02*
X116880000Y-88346190D01*
X116641904Y-88822380D02*
X116641904Y-87822380D01*
X117022857Y-87822380D01*
X117118095Y-87870000D01*
X117165714Y-87917619D01*
X117213333Y-88012857D01*
X117213333Y-88155714D01*
X117165714Y-88250952D01*
X117118095Y-88298571D01*
X117022857Y-88346190D01*
X116641904Y-88346190D01*
X118165714Y-88822380D02*
X117594285Y-88822380D01*
X117880000Y-88822380D02*
X117880000Y-87822380D01*
X117784761Y-87965238D01*
X117689523Y-88060476D01*
X117594285Y-88108095D01*
G04 #@! TO.C,R2*
X144443333Y-87750380D02*
X144110000Y-87274190D01*
X143871904Y-87750380D02*
X143871904Y-86750380D01*
X144252857Y-86750380D01*
X144348095Y-86798000D01*
X144395714Y-86845619D01*
X144443333Y-86940857D01*
X144443333Y-87083714D01*
X144395714Y-87178952D01*
X144348095Y-87226571D01*
X144252857Y-87274190D01*
X143871904Y-87274190D01*
X144824285Y-86845619D02*
X144871904Y-86798000D01*
X144967142Y-86750380D01*
X145205238Y-86750380D01*
X145300476Y-86798000D01*
X145348095Y-86845619D01*
X145395714Y-86940857D01*
X145395714Y-87036095D01*
X145348095Y-87178952D01*
X144776666Y-87750380D01*
X145395714Y-87750380D01*
G04 #@! TO.C,R3*
X144443333Y-82162380D02*
X144110000Y-81686190D01*
X143871904Y-82162380D02*
X143871904Y-81162380D01*
X144252857Y-81162380D01*
X144348095Y-81210000D01*
X144395714Y-81257619D01*
X144443333Y-81352857D01*
X144443333Y-81495714D01*
X144395714Y-81590952D01*
X144348095Y-81638571D01*
X144252857Y-81686190D01*
X143871904Y-81686190D01*
X144776666Y-81162380D02*
X145395714Y-81162380D01*
X145062380Y-81543333D01*
X145205238Y-81543333D01*
X145300476Y-81590952D01*
X145348095Y-81638571D01*
X145395714Y-81733809D01*
X145395714Y-81971904D01*
X145348095Y-82067142D01*
X145300476Y-82114761D01*
X145205238Y-82162380D01*
X144919523Y-82162380D01*
X144824285Y-82114761D01*
X144776666Y-82067142D01*
G04 #@! TO.C,R4*
X117213333Y-88512380D02*
X116880000Y-88036190D01*
X116641904Y-88512380D02*
X116641904Y-87512380D01*
X117022857Y-87512380D01*
X117118095Y-87560000D01*
X117165714Y-87607619D01*
X117213333Y-87702857D01*
X117213333Y-87845714D01*
X117165714Y-87940952D01*
X117118095Y-87988571D01*
X117022857Y-88036190D01*
X116641904Y-88036190D01*
X118070476Y-87845714D02*
X118070476Y-88512380D01*
X117832380Y-87464761D02*
X117594285Y-88179047D01*
X118213333Y-88179047D01*
G04 #@! TO.C,R5*
X162223333Y-126822380D02*
X161890000Y-126346190D01*
X161651904Y-126822380D02*
X161651904Y-125822380D01*
X162032857Y-125822380D01*
X162128095Y-125870000D01*
X162175714Y-125917619D01*
X162223333Y-126012857D01*
X162223333Y-126155714D01*
X162175714Y-126250952D01*
X162128095Y-126298571D01*
X162032857Y-126346190D01*
X161651904Y-126346190D01*
X163128095Y-125822380D02*
X162651904Y-125822380D01*
X162604285Y-126298571D01*
X162651904Y-126250952D01*
X162747142Y-126203333D01*
X162985238Y-126203333D01*
X163080476Y-126250952D01*
X163128095Y-126298571D01*
X163175714Y-126393809D01*
X163175714Y-126631904D01*
X163128095Y-126727142D01*
X163080476Y-126774761D01*
X162985238Y-126822380D01*
X162747142Y-126822380D01*
X162651904Y-126774761D01*
X162604285Y-126727142D01*
G04 #@! TO.C,R6*
X127933333Y-127002380D02*
X127600000Y-126526190D01*
X127361904Y-127002380D02*
X127361904Y-126002380D01*
X127742857Y-126002380D01*
X127838095Y-126050000D01*
X127885714Y-126097619D01*
X127933333Y-126192857D01*
X127933333Y-126335714D01*
X127885714Y-126430952D01*
X127838095Y-126478571D01*
X127742857Y-126526190D01*
X127361904Y-126526190D01*
X128790476Y-126002380D02*
X128600000Y-126002380D01*
X128504761Y-126050000D01*
X128457142Y-126097619D01*
X128361904Y-126240476D01*
X128314285Y-126430952D01*
X128314285Y-126811904D01*
X128361904Y-126907142D01*
X128409523Y-126954761D01*
X128504761Y-127002380D01*
X128695238Y-127002380D01*
X128790476Y-126954761D01*
X128838095Y-126907142D01*
X128885714Y-126811904D01*
X128885714Y-126573809D01*
X128838095Y-126478571D01*
X128790476Y-126430952D01*
X128695238Y-126383333D01*
X128504761Y-126383333D01*
X128409523Y-126430952D01*
X128361904Y-126478571D01*
X128314285Y-126573809D01*
G04 #@! TO.C,R7*
X139082380Y-129696666D02*
X138606190Y-130030000D01*
X139082380Y-130268095D02*
X138082380Y-130268095D01*
X138082380Y-129887142D01*
X138130000Y-129791904D01*
X138177619Y-129744285D01*
X138272857Y-129696666D01*
X138415714Y-129696666D01*
X138510952Y-129744285D01*
X138558571Y-129791904D01*
X138606190Y-129887142D01*
X138606190Y-130268095D01*
X138082380Y-129363333D02*
X138082380Y-128696666D01*
X139082380Y-129125238D01*
G04 #@! TO.C,R8*
X145502380Y-129696666D02*
X145026190Y-130030000D01*
X145502380Y-130268095D02*
X144502380Y-130268095D01*
X144502380Y-129887142D01*
X144550000Y-129791904D01*
X144597619Y-129744285D01*
X144692857Y-129696666D01*
X144835714Y-129696666D01*
X144930952Y-129744285D01*
X144978571Y-129791904D01*
X145026190Y-129887142D01*
X145026190Y-130268095D01*
X144930952Y-129125238D02*
X144883333Y-129220476D01*
X144835714Y-129268095D01*
X144740476Y-129315714D01*
X144692857Y-129315714D01*
X144597619Y-129268095D01*
X144550000Y-129220476D01*
X144502380Y-129125238D01*
X144502380Y-128934761D01*
X144550000Y-128839523D01*
X144597619Y-128791904D01*
X144692857Y-128744285D01*
X144740476Y-128744285D01*
X144835714Y-128791904D01*
X144883333Y-128839523D01*
X144930952Y-128934761D01*
X144930952Y-129125238D01*
X144978571Y-129220476D01*
X145026190Y-129268095D01*
X145121428Y-129315714D01*
X145311904Y-129315714D01*
X145407142Y-129268095D01*
X145454761Y-129220476D01*
X145502380Y-129125238D01*
X145502380Y-128934761D01*
X145454761Y-128839523D01*
X145407142Y-128791904D01*
X145311904Y-128744285D01*
X145121428Y-128744285D01*
X145026190Y-128791904D01*
X144978571Y-128839523D01*
X144930952Y-128934761D01*
G04 #@! TO.C,S1*
X107684761Y-86361904D02*
X107732380Y-86219047D01*
X107732380Y-85980952D01*
X107684761Y-85885714D01*
X107637142Y-85838095D01*
X107541904Y-85790476D01*
X107446666Y-85790476D01*
X107351428Y-85838095D01*
X107303809Y-85885714D01*
X107256190Y-85980952D01*
X107208571Y-86171428D01*
X107160952Y-86266666D01*
X107113333Y-86314285D01*
X107018095Y-86361904D01*
X106922857Y-86361904D01*
X106827619Y-86314285D01*
X106780000Y-86266666D01*
X106732380Y-86171428D01*
X106732380Y-85933333D01*
X106780000Y-85790476D01*
X107732380Y-84838095D02*
X107732380Y-85409523D01*
X107732380Y-85123809D02*
X106732380Y-85123809D01*
X106875238Y-85219047D01*
X106970476Y-85314285D01*
X107018095Y-85409523D01*
G04 #@! TO.C,S2*
X190184761Y-86361904D02*
X190232380Y-86219047D01*
X190232380Y-85980952D01*
X190184761Y-85885714D01*
X190137142Y-85838095D01*
X190041904Y-85790476D01*
X189946666Y-85790476D01*
X189851428Y-85838095D01*
X189803809Y-85885714D01*
X189756190Y-85980952D01*
X189708571Y-86171428D01*
X189660952Y-86266666D01*
X189613333Y-86314285D01*
X189518095Y-86361904D01*
X189422857Y-86361904D01*
X189327619Y-86314285D01*
X189280000Y-86266666D01*
X189232380Y-86171428D01*
X189232380Y-85933333D01*
X189280000Y-85790476D01*
X189327619Y-85409523D02*
X189280000Y-85361904D01*
X189232380Y-85266666D01*
X189232380Y-85028571D01*
X189280000Y-84933333D01*
X189327619Y-84885714D01*
X189422857Y-84838095D01*
X189518095Y-84838095D01*
X189660952Y-84885714D01*
X190232380Y-85457142D01*
X190232380Y-84838095D01*
G04 #@! TO.C,S3*
X162684761Y-86361904D02*
X162732380Y-86219047D01*
X162732380Y-85980952D01*
X162684761Y-85885714D01*
X162637142Y-85838095D01*
X162541904Y-85790476D01*
X162446666Y-85790476D01*
X162351428Y-85838095D01*
X162303809Y-85885714D01*
X162256190Y-85980952D01*
X162208571Y-86171428D01*
X162160952Y-86266666D01*
X162113333Y-86314285D01*
X162018095Y-86361904D01*
X161922857Y-86361904D01*
X161827619Y-86314285D01*
X161780000Y-86266666D01*
X161732380Y-86171428D01*
X161732380Y-85933333D01*
X161780000Y-85790476D01*
X161732380Y-85457142D02*
X161732380Y-84838095D01*
X162113333Y-85171428D01*
X162113333Y-85028571D01*
X162160952Y-84933333D01*
X162208571Y-84885714D01*
X162303809Y-84838095D01*
X162541904Y-84838095D01*
X162637142Y-84885714D01*
X162684761Y-84933333D01*
X162732380Y-85028571D01*
X162732380Y-85314285D01*
X162684761Y-85409523D01*
X162637142Y-85457142D01*
G04 #@! TO.C,S4*
X135184761Y-86361904D02*
X135232380Y-86219047D01*
X135232380Y-85980952D01*
X135184761Y-85885714D01*
X135137142Y-85838095D01*
X135041904Y-85790476D01*
X134946666Y-85790476D01*
X134851428Y-85838095D01*
X134803809Y-85885714D01*
X134756190Y-85980952D01*
X134708571Y-86171428D01*
X134660952Y-86266666D01*
X134613333Y-86314285D01*
X134518095Y-86361904D01*
X134422857Y-86361904D01*
X134327619Y-86314285D01*
X134280000Y-86266666D01*
X134232380Y-86171428D01*
X134232380Y-85933333D01*
X134280000Y-85790476D01*
X134565714Y-84933333D02*
X135232380Y-84933333D01*
X134184761Y-85171428D02*
X134899047Y-85409523D01*
X134899047Y-84790476D01*
G04 #@! TO.C,U1*
X154770095Y-118060380D02*
X154770095Y-118869904D01*
X154817714Y-118965142D01*
X154865333Y-119012761D01*
X154960571Y-119060380D01*
X155151047Y-119060380D01*
X155246285Y-119012761D01*
X155293904Y-118965142D01*
X155341523Y-118869904D01*
X155341523Y-118060380D01*
X156341523Y-119060380D02*
X155770095Y-119060380D01*
X156055809Y-119060380D02*
X156055809Y-118060380D01*
X155960571Y-118203238D01*
X155865333Y-118298476D01*
X155770095Y-118346095D01*
G04 #@! TO.C,D1*
X185511904Y-127452380D02*
X185511904Y-126452380D01*
X185750000Y-126452380D01*
X185892857Y-126500000D01*
X185988095Y-126595238D01*
X186035714Y-126690476D01*
X186083333Y-126880952D01*
X186083333Y-127023809D01*
X186035714Y-127214285D01*
X185988095Y-127309523D01*
X185892857Y-127404761D01*
X185750000Y-127452380D01*
X185511904Y-127452380D01*
X187035714Y-127452380D02*
X186464285Y-127452380D01*
X186750000Y-127452380D02*
X186750000Y-126452380D01*
X186654761Y-126595238D01*
X186559523Y-126690476D01*
X186464285Y-126738095D01*
G04 #@! TO.C,D2*
X103011904Y-138452380D02*
X103011904Y-137452380D01*
X103250000Y-137452380D01*
X103392857Y-137500000D01*
X103488095Y-137595238D01*
X103535714Y-137690476D01*
X103583333Y-137880952D01*
X103583333Y-138023809D01*
X103535714Y-138214285D01*
X103488095Y-138309523D01*
X103392857Y-138404761D01*
X103250000Y-138452380D01*
X103011904Y-138452380D01*
X103964285Y-137547619D02*
X104011904Y-137500000D01*
X104107142Y-137452380D01*
X104345238Y-137452380D01*
X104440476Y-137500000D01*
X104488095Y-137547619D01*
X104535714Y-137642857D01*
X104535714Y-137738095D01*
X104488095Y-137880952D01*
X103916666Y-138452380D01*
X104535714Y-138452380D01*
G04 #@! TO.C,D3*
X130511904Y-127452380D02*
X130511904Y-126452380D01*
X130750000Y-126452380D01*
X130892857Y-126500000D01*
X130988095Y-126595238D01*
X131035714Y-126690476D01*
X131083333Y-126880952D01*
X131083333Y-127023809D01*
X131035714Y-127214285D01*
X130988095Y-127309523D01*
X130892857Y-127404761D01*
X130750000Y-127452380D01*
X130511904Y-127452380D01*
X131416666Y-126452380D02*
X132035714Y-126452380D01*
X131702380Y-126833333D01*
X131845238Y-126833333D01*
X131940476Y-126880952D01*
X131988095Y-126928571D01*
X132035714Y-127023809D01*
X132035714Y-127261904D01*
X131988095Y-127357142D01*
X131940476Y-127404761D01*
X131845238Y-127452380D01*
X131559523Y-127452380D01*
X131464285Y-127404761D01*
X131416666Y-127357142D01*
G04 #@! TO.C,D4*
X158011904Y-138452380D02*
X158011904Y-137452380D01*
X158250000Y-137452380D01*
X158392857Y-137500000D01*
X158488095Y-137595238D01*
X158535714Y-137690476D01*
X158583333Y-137880952D01*
X158583333Y-138023809D01*
X158535714Y-138214285D01*
X158488095Y-138309523D01*
X158392857Y-138404761D01*
X158250000Y-138452380D01*
X158011904Y-138452380D01*
X159440476Y-137785714D02*
X159440476Y-138452380D01*
X159202380Y-137404761D02*
X158964285Y-138119047D01*
X159583333Y-138119047D01*
G04 #@! TO.C,M4*
X194190476Y-122452380D02*
X194190476Y-121452380D01*
X194523809Y-122166666D01*
X194857142Y-121452380D01*
X194857142Y-122452380D01*
X195761904Y-121785714D02*
X195761904Y-122452380D01*
X195523809Y-121404761D02*
X195285714Y-122119047D01*
X195904761Y-122119047D01*
G04 #@! TD*
M02*
