G04 #@! TF.GenerationSoftware,KiCad,Pcbnew,5.0.2-bee76a0~70~ubuntu18.04.1*
G04 #@! TF.CreationDate,2019-01-27T14:50:31+01:00*
G04 #@! TF.ProjectId,magic-switchboard,6d616769-632d-4737-9769-746368626f61,v3*
G04 #@! TF.SameCoordinates,Original*
G04 #@! TF.FileFunction,Copper,L2,Bot*
G04 #@! TF.FilePolarity,Positive*
%FSLAX46Y46*%
G04 Gerber Fmt 4.6, Leading zero omitted, Abs format (unit mm)*
G04 Created by KiCad (PCBNEW 5.0.2-bee76a0~70~ubuntu18.04.1) date So 27 Jan 2019 14:50:31 CET*
%MOMM*%
%LPD*%
G01*
G04 APERTURE LIST*
G04 #@! TA.AperFunction,SMDPad,CuDef*
%ADD10R,8.000000X8.000000*%
G04 #@! TD*
G04 #@! TA.AperFunction,ComponentPad*
%ADD11C,3.000000*%
G04 #@! TD*
G04 #@! TA.AperFunction,ComponentPad*
%ADD12C,3.048000*%
G04 #@! TD*
G04 #@! TA.AperFunction,ComponentPad*
%ADD13O,1.600000X1.600000*%
G04 #@! TD*
G04 #@! TA.AperFunction,ComponentPad*
%ADD14R,1.600000X1.600000*%
G04 #@! TD*
G04 #@! TA.AperFunction,ComponentPad*
%ADD15C,1.600000*%
G04 #@! TD*
G04 #@! TA.AperFunction,ComponentPad*
%ADD16R,1.050000X1.500000*%
G04 #@! TD*
G04 #@! TA.AperFunction,Conductor*
%ADD17C,0.100000*%
G04 #@! TD*
G04 #@! TA.AperFunction,ComponentPad*
%ADD18C,1.050000*%
G04 #@! TD*
G04 #@! TA.AperFunction,ComponentPad*
%ADD19C,2.000000*%
G04 #@! TD*
G04 #@! TA.AperFunction,ComponentPad*
%ADD20C,1.524000*%
G04 #@! TD*
G04 #@! TA.AperFunction,Conductor*
%ADD21C,0.254000*%
G04 #@! TD*
G04 APERTURE END LIST*
D10*
G04 #@! TO.P,BT1,2*
G04 #@! TO.N,GND*
X177000000Y-111000000D03*
D11*
G04 #@! TO.P,BT1,1*
G04 #@! TO.N,Net-(BT1-Pad1)*
X177000000Y-98300000D03*
X177000000Y-123700000D03*
G04 #@! TD*
D12*
G04 #@! TO.P,U1,4*
G04 #@! TO.N,VCC*
X141015000Y-97500000D03*
G04 #@! TO.P,U1,3*
G04 #@! TO.N,GND*
X154985000Y-97500000D03*
G04 #@! TO.P,U1,2*
X154985000Y-123500000D03*
G04 #@! TO.P,U1,1*
G04 #@! TO.N,Net-(C1-Pad1)*
X141015000Y-123500000D03*
G04 #@! TD*
D11*
G04 #@! TO.P,D1,1*
G04 #@! TO.N,Net-(D1-Pad1)*
X188500000Y-134000000D03*
G04 #@! TO.P,D1,2*
G04 #@! TO.N,VCC*
X178500000Y-134000000D03*
G04 #@! TD*
G04 #@! TO.P,D2,1*
G04 #@! TO.N,Net-(D2-Pad1)*
X159500000Y-134000000D03*
G04 #@! TO.P,D2,2*
G04 #@! TO.N,VCC*
X149500000Y-134000000D03*
G04 #@! TD*
G04 #@! TO.P,D3,1*
G04 #@! TO.N,Net-(D3-Pad1)*
X130500000Y-134000000D03*
G04 #@! TO.P,D3,2*
G04 #@! TO.N,VCC*
X120500000Y-134000000D03*
G04 #@! TD*
G04 #@! TO.P,D4,1*
G04 #@! TO.N,Net-(D4-Pad1)*
X101500000Y-134000000D03*
G04 #@! TO.P,D4,2*
G04 #@! TO.N,VCC*
X91500000Y-134000000D03*
G04 #@! TD*
D13*
G04 #@! TO.P,A1,16*
G04 #@! TO.N,N/C*
X97440000Y-112240000D03*
G04 #@! TO.P,A1,15*
X97440000Y-97000000D03*
G04 #@! TO.P,A1,30*
G04 #@! TO.N,VCC*
X133000000Y-112240000D03*
G04 #@! TO.P,A1,14*
G04 #@! TO.N,N/C*
X99980000Y-97000000D03*
G04 #@! TO.P,A1,29*
G04 #@! TO.N,GND*
X130460000Y-112240000D03*
G04 #@! TO.P,A1,13*
G04 #@! TO.N,deadmantrap*
X102520000Y-97000000D03*
G04 #@! TO.P,A1,28*
G04 #@! TO.N,N/C*
X127920000Y-112240000D03*
G04 #@! TO.P,A1,12*
G04 #@! TO.N,Net-(A1-Pad12)*
X105060000Y-97000000D03*
G04 #@! TO.P,A1,27*
G04 #@! TO.N,N/C*
X125380000Y-112240000D03*
G04 #@! TO.P,A1,11*
G04 #@! TO.N,Net-(A1-Pad11)*
X107600000Y-97000000D03*
G04 #@! TO.P,A1,26*
G04 #@! TO.N,N/C*
X122840000Y-112240000D03*
G04 #@! TO.P,A1,10*
G04 #@! TO.N,Net-(A1-Pad10)*
X110140000Y-97000000D03*
G04 #@! TO.P,A1,25*
G04 #@! TO.N,N/C*
X120300000Y-112240000D03*
G04 #@! TO.P,A1,9*
G04 #@! TO.N,Net-(A1-Pad9)*
X112680000Y-97000000D03*
G04 #@! TO.P,A1,24*
G04 #@! TO.N,N/C*
X117760000Y-112240000D03*
G04 #@! TO.P,A1,8*
G04 #@! TO.N,Net-(A1-Pad8)*
X115220000Y-97000000D03*
G04 #@! TO.P,A1,23*
G04 #@! TO.N,N/C*
X115220000Y-112240000D03*
G04 #@! TO.P,A1,7*
G04 #@! TO.N,Net-(A1-Pad7)*
X117760000Y-97000000D03*
G04 #@! TO.P,A1,22*
G04 #@! TO.N,N/C*
X112680000Y-112240000D03*
G04 #@! TO.P,A1,6*
G04 #@! TO.N,Net-(A1-Pad6)*
X120300000Y-97000000D03*
G04 #@! TO.P,A1,21*
G04 #@! TO.N,N/C*
X110140000Y-112240000D03*
G04 #@! TO.P,A1,5*
G04 #@! TO.N,Net-(A1-Pad5)*
X122840000Y-97000000D03*
G04 #@! TO.P,A1,20*
G04 #@! TO.N,N/C*
X107600000Y-112240000D03*
G04 #@! TO.P,A1,4*
X125380000Y-97000000D03*
G04 #@! TO.P,A1,19*
X105060000Y-112240000D03*
G04 #@! TO.P,A1,3*
X127920000Y-97000000D03*
G04 #@! TO.P,A1,18*
X102520000Y-112240000D03*
G04 #@! TO.P,A1,2*
X130460000Y-97000000D03*
G04 #@! TO.P,A1,17*
X99980000Y-112240000D03*
D14*
G04 #@! TO.P,A1,1*
X133000000Y-97000000D03*
G04 #@! TD*
D15*
G04 #@! TO.P,C1,2*
G04 #@! TO.N,GND*
X123500000Y-121000000D03*
D14*
G04 #@! TO.P,C1,1*
G04 #@! TO.N,Net-(C1-Pad1)*
X121000000Y-121000000D03*
G04 #@! TD*
D15*
G04 #@! TO.P,C2,2*
G04 #@! TO.N,GND*
X131500000Y-120900000D03*
D14*
G04 #@! TO.P,C2,1*
G04 #@! TO.N,VCC*
X129000000Y-120900000D03*
G04 #@! TD*
D16*
G04 #@! TO.P,Q1,1*
G04 #@! TO.N,powerswitch*
X167730000Y-86000000D03*
D17*
G04 #@! TD*
G04 #@! TO.N,GND*
G04 #@! TO.C,Q1*
G36*
X170558229Y-85251264D02*
X170583711Y-85255044D01*
X170608700Y-85261303D01*
X170632954Y-85269982D01*
X170656242Y-85280996D01*
X170678337Y-85294239D01*
X170699028Y-85309585D01*
X170718116Y-85326884D01*
X170735415Y-85345972D01*
X170750761Y-85366663D01*
X170764004Y-85388758D01*
X170775018Y-85412046D01*
X170783697Y-85436300D01*
X170789956Y-85461289D01*
X170793736Y-85486771D01*
X170795000Y-85512500D01*
X170795000Y-86487500D01*
X170793736Y-86513229D01*
X170789956Y-86538711D01*
X170783697Y-86563700D01*
X170775018Y-86587954D01*
X170764004Y-86611242D01*
X170750761Y-86633337D01*
X170735415Y-86654028D01*
X170718116Y-86673116D01*
X170699028Y-86690415D01*
X170678337Y-86705761D01*
X170656242Y-86719004D01*
X170632954Y-86730018D01*
X170608700Y-86738697D01*
X170583711Y-86744956D01*
X170558229Y-86748736D01*
X170532500Y-86750000D01*
X170007500Y-86750000D01*
X169981771Y-86748736D01*
X169956289Y-86744956D01*
X169931300Y-86738697D01*
X169907046Y-86730018D01*
X169883758Y-86719004D01*
X169861663Y-86705761D01*
X169840972Y-86690415D01*
X169821884Y-86673116D01*
X169804585Y-86654028D01*
X169789239Y-86633337D01*
X169775996Y-86611242D01*
X169764982Y-86587954D01*
X169756303Y-86563700D01*
X169750044Y-86538711D01*
X169746264Y-86513229D01*
X169745000Y-86487500D01*
X169745000Y-85512500D01*
X169746264Y-85486771D01*
X169750044Y-85461289D01*
X169756303Y-85436300D01*
X169764982Y-85412046D01*
X169775996Y-85388758D01*
X169789239Y-85366663D01*
X169804585Y-85345972D01*
X169821884Y-85326884D01*
X169840972Y-85309585D01*
X169861663Y-85294239D01*
X169883758Y-85280996D01*
X169907046Y-85269982D01*
X169931300Y-85261303D01*
X169956289Y-85255044D01*
X169981771Y-85251264D01*
X170007500Y-85250000D01*
X170532500Y-85250000D01*
X170558229Y-85251264D01*
X170558229Y-85251264D01*
G37*
D18*
G04 #@! TO.P,Q1,3*
G04 #@! TO.N,GND*
X170270000Y-86000000D03*
D17*
G04 #@! TD*
G04 #@! TO.N,Net-(Q1-Pad2)*
G04 #@! TO.C,Q1*
G36*
X169288229Y-85251264D02*
X169313711Y-85255044D01*
X169338700Y-85261303D01*
X169362954Y-85269982D01*
X169386242Y-85280996D01*
X169408337Y-85294239D01*
X169429028Y-85309585D01*
X169448116Y-85326884D01*
X169465415Y-85345972D01*
X169480761Y-85366663D01*
X169494004Y-85388758D01*
X169505018Y-85412046D01*
X169513697Y-85436300D01*
X169519956Y-85461289D01*
X169523736Y-85486771D01*
X169525000Y-85512500D01*
X169525000Y-86487500D01*
X169523736Y-86513229D01*
X169519956Y-86538711D01*
X169513697Y-86563700D01*
X169505018Y-86587954D01*
X169494004Y-86611242D01*
X169480761Y-86633337D01*
X169465415Y-86654028D01*
X169448116Y-86673116D01*
X169429028Y-86690415D01*
X169408337Y-86705761D01*
X169386242Y-86719004D01*
X169362954Y-86730018D01*
X169338700Y-86738697D01*
X169313711Y-86744956D01*
X169288229Y-86748736D01*
X169262500Y-86750000D01*
X168737500Y-86750000D01*
X168711771Y-86748736D01*
X168686289Y-86744956D01*
X168661300Y-86738697D01*
X168637046Y-86730018D01*
X168613758Y-86719004D01*
X168591663Y-86705761D01*
X168570972Y-86690415D01*
X168551884Y-86673116D01*
X168534585Y-86654028D01*
X168519239Y-86633337D01*
X168505996Y-86611242D01*
X168494982Y-86587954D01*
X168486303Y-86563700D01*
X168480044Y-86538711D01*
X168476264Y-86513229D01*
X168475000Y-86487500D01*
X168475000Y-85512500D01*
X168476264Y-85486771D01*
X168480044Y-85461289D01*
X168486303Y-85436300D01*
X168494982Y-85412046D01*
X168505996Y-85388758D01*
X168519239Y-85366663D01*
X168534585Y-85345972D01*
X168551884Y-85326884D01*
X168570972Y-85309585D01*
X168591663Y-85294239D01*
X168613758Y-85280996D01*
X168637046Y-85269982D01*
X168661300Y-85261303D01*
X168686289Y-85255044D01*
X168711771Y-85251264D01*
X168737500Y-85250000D01*
X169262500Y-85250000D01*
X169288229Y-85251264D01*
X169288229Y-85251264D01*
G37*
D18*
G04 #@! TO.P,Q1,2*
G04 #@! TO.N,Net-(Q1-Pad2)*
X169000000Y-86000000D03*
G04 #@! TD*
D16*
G04 #@! TO.P,Q2,1*
G04 #@! TO.N,Net-(BT1-Pad1)*
X138730000Y-86000000D03*
D17*
G04 #@! TD*
G04 #@! TO.N,Net-(C1-Pad1)*
G04 #@! TO.C,Q2*
G36*
X141558229Y-85251264D02*
X141583711Y-85255044D01*
X141608700Y-85261303D01*
X141632954Y-85269982D01*
X141656242Y-85280996D01*
X141678337Y-85294239D01*
X141699028Y-85309585D01*
X141718116Y-85326884D01*
X141735415Y-85345972D01*
X141750761Y-85366663D01*
X141764004Y-85388758D01*
X141775018Y-85412046D01*
X141783697Y-85436300D01*
X141789956Y-85461289D01*
X141793736Y-85486771D01*
X141795000Y-85512500D01*
X141795000Y-86487500D01*
X141793736Y-86513229D01*
X141789956Y-86538711D01*
X141783697Y-86563700D01*
X141775018Y-86587954D01*
X141764004Y-86611242D01*
X141750761Y-86633337D01*
X141735415Y-86654028D01*
X141718116Y-86673116D01*
X141699028Y-86690415D01*
X141678337Y-86705761D01*
X141656242Y-86719004D01*
X141632954Y-86730018D01*
X141608700Y-86738697D01*
X141583711Y-86744956D01*
X141558229Y-86748736D01*
X141532500Y-86750000D01*
X141007500Y-86750000D01*
X140981771Y-86748736D01*
X140956289Y-86744956D01*
X140931300Y-86738697D01*
X140907046Y-86730018D01*
X140883758Y-86719004D01*
X140861663Y-86705761D01*
X140840972Y-86690415D01*
X140821884Y-86673116D01*
X140804585Y-86654028D01*
X140789239Y-86633337D01*
X140775996Y-86611242D01*
X140764982Y-86587954D01*
X140756303Y-86563700D01*
X140750044Y-86538711D01*
X140746264Y-86513229D01*
X140745000Y-86487500D01*
X140745000Y-85512500D01*
X140746264Y-85486771D01*
X140750044Y-85461289D01*
X140756303Y-85436300D01*
X140764982Y-85412046D01*
X140775996Y-85388758D01*
X140789239Y-85366663D01*
X140804585Y-85345972D01*
X140821884Y-85326884D01*
X140840972Y-85309585D01*
X140861663Y-85294239D01*
X140883758Y-85280996D01*
X140907046Y-85269982D01*
X140931300Y-85261303D01*
X140956289Y-85255044D01*
X140981771Y-85251264D01*
X141007500Y-85250000D01*
X141532500Y-85250000D01*
X141558229Y-85251264D01*
X141558229Y-85251264D01*
G37*
D18*
G04 #@! TO.P,Q2,3*
G04 #@! TO.N,Net-(C1-Pad1)*
X141270000Y-86000000D03*
D17*
G04 #@! TD*
G04 #@! TO.N,powerswitch*
G04 #@! TO.C,Q2*
G36*
X140288229Y-85251264D02*
X140313711Y-85255044D01*
X140338700Y-85261303D01*
X140362954Y-85269982D01*
X140386242Y-85280996D01*
X140408337Y-85294239D01*
X140429028Y-85309585D01*
X140448116Y-85326884D01*
X140465415Y-85345972D01*
X140480761Y-85366663D01*
X140494004Y-85388758D01*
X140505018Y-85412046D01*
X140513697Y-85436300D01*
X140519956Y-85461289D01*
X140523736Y-85486771D01*
X140525000Y-85512500D01*
X140525000Y-86487500D01*
X140523736Y-86513229D01*
X140519956Y-86538711D01*
X140513697Y-86563700D01*
X140505018Y-86587954D01*
X140494004Y-86611242D01*
X140480761Y-86633337D01*
X140465415Y-86654028D01*
X140448116Y-86673116D01*
X140429028Y-86690415D01*
X140408337Y-86705761D01*
X140386242Y-86719004D01*
X140362954Y-86730018D01*
X140338700Y-86738697D01*
X140313711Y-86744956D01*
X140288229Y-86748736D01*
X140262500Y-86750000D01*
X139737500Y-86750000D01*
X139711771Y-86748736D01*
X139686289Y-86744956D01*
X139661300Y-86738697D01*
X139637046Y-86730018D01*
X139613758Y-86719004D01*
X139591663Y-86705761D01*
X139570972Y-86690415D01*
X139551884Y-86673116D01*
X139534585Y-86654028D01*
X139519239Y-86633337D01*
X139505996Y-86611242D01*
X139494982Y-86587954D01*
X139486303Y-86563700D01*
X139480044Y-86538711D01*
X139476264Y-86513229D01*
X139475000Y-86487500D01*
X139475000Y-85512500D01*
X139476264Y-85486771D01*
X139480044Y-85461289D01*
X139486303Y-85436300D01*
X139494982Y-85412046D01*
X139505996Y-85388758D01*
X139519239Y-85366663D01*
X139534585Y-85345972D01*
X139551884Y-85326884D01*
X139570972Y-85309585D01*
X139591663Y-85294239D01*
X139613758Y-85280996D01*
X139637046Y-85269982D01*
X139661300Y-85261303D01*
X139686289Y-85255044D01*
X139711771Y-85251264D01*
X139737500Y-85250000D01*
X140262500Y-85250000D01*
X140288229Y-85251264D01*
X140288229Y-85251264D01*
G37*
D18*
G04 #@! TO.P,Q2,2*
G04 #@! TO.N,powerswitch*
X140000000Y-86000000D03*
G04 #@! TD*
D16*
G04 #@! TO.P,Q3,1*
G04 #@! TO.N,GND*
X113000000Y-121000000D03*
D17*
G04 #@! TD*
G04 #@! TO.N,Net-(D1-Pad1)*
G04 #@! TO.C,Q3*
G36*
X115828229Y-120251264D02*
X115853711Y-120255044D01*
X115878700Y-120261303D01*
X115902954Y-120269982D01*
X115926242Y-120280996D01*
X115948337Y-120294239D01*
X115969028Y-120309585D01*
X115988116Y-120326884D01*
X116005415Y-120345972D01*
X116020761Y-120366663D01*
X116034004Y-120388758D01*
X116045018Y-120412046D01*
X116053697Y-120436300D01*
X116059956Y-120461289D01*
X116063736Y-120486771D01*
X116065000Y-120512500D01*
X116065000Y-121487500D01*
X116063736Y-121513229D01*
X116059956Y-121538711D01*
X116053697Y-121563700D01*
X116045018Y-121587954D01*
X116034004Y-121611242D01*
X116020761Y-121633337D01*
X116005415Y-121654028D01*
X115988116Y-121673116D01*
X115969028Y-121690415D01*
X115948337Y-121705761D01*
X115926242Y-121719004D01*
X115902954Y-121730018D01*
X115878700Y-121738697D01*
X115853711Y-121744956D01*
X115828229Y-121748736D01*
X115802500Y-121750000D01*
X115277500Y-121750000D01*
X115251771Y-121748736D01*
X115226289Y-121744956D01*
X115201300Y-121738697D01*
X115177046Y-121730018D01*
X115153758Y-121719004D01*
X115131663Y-121705761D01*
X115110972Y-121690415D01*
X115091884Y-121673116D01*
X115074585Y-121654028D01*
X115059239Y-121633337D01*
X115045996Y-121611242D01*
X115034982Y-121587954D01*
X115026303Y-121563700D01*
X115020044Y-121538711D01*
X115016264Y-121513229D01*
X115015000Y-121487500D01*
X115015000Y-120512500D01*
X115016264Y-120486771D01*
X115020044Y-120461289D01*
X115026303Y-120436300D01*
X115034982Y-120412046D01*
X115045996Y-120388758D01*
X115059239Y-120366663D01*
X115074585Y-120345972D01*
X115091884Y-120326884D01*
X115110972Y-120309585D01*
X115131663Y-120294239D01*
X115153758Y-120280996D01*
X115177046Y-120269982D01*
X115201300Y-120261303D01*
X115226289Y-120255044D01*
X115251771Y-120251264D01*
X115277500Y-120250000D01*
X115802500Y-120250000D01*
X115828229Y-120251264D01*
X115828229Y-120251264D01*
G37*
D18*
G04 #@! TO.P,Q3,3*
G04 #@! TO.N,Net-(D1-Pad1)*
X115540000Y-121000000D03*
D17*
G04 #@! TD*
G04 #@! TO.N,Net-(A1-Pad9)*
G04 #@! TO.C,Q3*
G36*
X114558229Y-120251264D02*
X114583711Y-120255044D01*
X114608700Y-120261303D01*
X114632954Y-120269982D01*
X114656242Y-120280996D01*
X114678337Y-120294239D01*
X114699028Y-120309585D01*
X114718116Y-120326884D01*
X114735415Y-120345972D01*
X114750761Y-120366663D01*
X114764004Y-120388758D01*
X114775018Y-120412046D01*
X114783697Y-120436300D01*
X114789956Y-120461289D01*
X114793736Y-120486771D01*
X114795000Y-120512500D01*
X114795000Y-121487500D01*
X114793736Y-121513229D01*
X114789956Y-121538711D01*
X114783697Y-121563700D01*
X114775018Y-121587954D01*
X114764004Y-121611242D01*
X114750761Y-121633337D01*
X114735415Y-121654028D01*
X114718116Y-121673116D01*
X114699028Y-121690415D01*
X114678337Y-121705761D01*
X114656242Y-121719004D01*
X114632954Y-121730018D01*
X114608700Y-121738697D01*
X114583711Y-121744956D01*
X114558229Y-121748736D01*
X114532500Y-121750000D01*
X114007500Y-121750000D01*
X113981771Y-121748736D01*
X113956289Y-121744956D01*
X113931300Y-121738697D01*
X113907046Y-121730018D01*
X113883758Y-121719004D01*
X113861663Y-121705761D01*
X113840972Y-121690415D01*
X113821884Y-121673116D01*
X113804585Y-121654028D01*
X113789239Y-121633337D01*
X113775996Y-121611242D01*
X113764982Y-121587954D01*
X113756303Y-121563700D01*
X113750044Y-121538711D01*
X113746264Y-121513229D01*
X113745000Y-121487500D01*
X113745000Y-120512500D01*
X113746264Y-120486771D01*
X113750044Y-120461289D01*
X113756303Y-120436300D01*
X113764982Y-120412046D01*
X113775996Y-120388758D01*
X113789239Y-120366663D01*
X113804585Y-120345972D01*
X113821884Y-120326884D01*
X113840972Y-120309585D01*
X113861663Y-120294239D01*
X113883758Y-120280996D01*
X113907046Y-120269982D01*
X113931300Y-120261303D01*
X113956289Y-120255044D01*
X113981771Y-120251264D01*
X114007500Y-120250000D01*
X114532500Y-120250000D01*
X114558229Y-120251264D01*
X114558229Y-120251264D01*
G37*
D18*
G04 #@! TO.P,Q3,2*
G04 #@! TO.N,Net-(A1-Pad9)*
X114270000Y-121000000D03*
G04 #@! TD*
D16*
G04 #@! TO.P,Q4,1*
G04 #@! TO.N,GND*
X107000000Y-121000000D03*
D17*
G04 #@! TD*
G04 #@! TO.N,Net-(D2-Pad1)*
G04 #@! TO.C,Q4*
G36*
X109828229Y-120251264D02*
X109853711Y-120255044D01*
X109878700Y-120261303D01*
X109902954Y-120269982D01*
X109926242Y-120280996D01*
X109948337Y-120294239D01*
X109969028Y-120309585D01*
X109988116Y-120326884D01*
X110005415Y-120345972D01*
X110020761Y-120366663D01*
X110034004Y-120388758D01*
X110045018Y-120412046D01*
X110053697Y-120436300D01*
X110059956Y-120461289D01*
X110063736Y-120486771D01*
X110065000Y-120512500D01*
X110065000Y-121487500D01*
X110063736Y-121513229D01*
X110059956Y-121538711D01*
X110053697Y-121563700D01*
X110045018Y-121587954D01*
X110034004Y-121611242D01*
X110020761Y-121633337D01*
X110005415Y-121654028D01*
X109988116Y-121673116D01*
X109969028Y-121690415D01*
X109948337Y-121705761D01*
X109926242Y-121719004D01*
X109902954Y-121730018D01*
X109878700Y-121738697D01*
X109853711Y-121744956D01*
X109828229Y-121748736D01*
X109802500Y-121750000D01*
X109277500Y-121750000D01*
X109251771Y-121748736D01*
X109226289Y-121744956D01*
X109201300Y-121738697D01*
X109177046Y-121730018D01*
X109153758Y-121719004D01*
X109131663Y-121705761D01*
X109110972Y-121690415D01*
X109091884Y-121673116D01*
X109074585Y-121654028D01*
X109059239Y-121633337D01*
X109045996Y-121611242D01*
X109034982Y-121587954D01*
X109026303Y-121563700D01*
X109020044Y-121538711D01*
X109016264Y-121513229D01*
X109015000Y-121487500D01*
X109015000Y-120512500D01*
X109016264Y-120486771D01*
X109020044Y-120461289D01*
X109026303Y-120436300D01*
X109034982Y-120412046D01*
X109045996Y-120388758D01*
X109059239Y-120366663D01*
X109074585Y-120345972D01*
X109091884Y-120326884D01*
X109110972Y-120309585D01*
X109131663Y-120294239D01*
X109153758Y-120280996D01*
X109177046Y-120269982D01*
X109201300Y-120261303D01*
X109226289Y-120255044D01*
X109251771Y-120251264D01*
X109277500Y-120250000D01*
X109802500Y-120250000D01*
X109828229Y-120251264D01*
X109828229Y-120251264D01*
G37*
D18*
G04 #@! TO.P,Q4,3*
G04 #@! TO.N,Net-(D2-Pad1)*
X109540000Y-121000000D03*
D17*
G04 #@! TD*
G04 #@! TO.N,Net-(A1-Pad10)*
G04 #@! TO.C,Q4*
G36*
X108558229Y-120251264D02*
X108583711Y-120255044D01*
X108608700Y-120261303D01*
X108632954Y-120269982D01*
X108656242Y-120280996D01*
X108678337Y-120294239D01*
X108699028Y-120309585D01*
X108718116Y-120326884D01*
X108735415Y-120345972D01*
X108750761Y-120366663D01*
X108764004Y-120388758D01*
X108775018Y-120412046D01*
X108783697Y-120436300D01*
X108789956Y-120461289D01*
X108793736Y-120486771D01*
X108795000Y-120512500D01*
X108795000Y-121487500D01*
X108793736Y-121513229D01*
X108789956Y-121538711D01*
X108783697Y-121563700D01*
X108775018Y-121587954D01*
X108764004Y-121611242D01*
X108750761Y-121633337D01*
X108735415Y-121654028D01*
X108718116Y-121673116D01*
X108699028Y-121690415D01*
X108678337Y-121705761D01*
X108656242Y-121719004D01*
X108632954Y-121730018D01*
X108608700Y-121738697D01*
X108583711Y-121744956D01*
X108558229Y-121748736D01*
X108532500Y-121750000D01*
X108007500Y-121750000D01*
X107981771Y-121748736D01*
X107956289Y-121744956D01*
X107931300Y-121738697D01*
X107907046Y-121730018D01*
X107883758Y-121719004D01*
X107861663Y-121705761D01*
X107840972Y-121690415D01*
X107821884Y-121673116D01*
X107804585Y-121654028D01*
X107789239Y-121633337D01*
X107775996Y-121611242D01*
X107764982Y-121587954D01*
X107756303Y-121563700D01*
X107750044Y-121538711D01*
X107746264Y-121513229D01*
X107745000Y-121487500D01*
X107745000Y-120512500D01*
X107746264Y-120486771D01*
X107750044Y-120461289D01*
X107756303Y-120436300D01*
X107764982Y-120412046D01*
X107775996Y-120388758D01*
X107789239Y-120366663D01*
X107804585Y-120345972D01*
X107821884Y-120326884D01*
X107840972Y-120309585D01*
X107861663Y-120294239D01*
X107883758Y-120280996D01*
X107907046Y-120269982D01*
X107931300Y-120261303D01*
X107956289Y-120255044D01*
X107981771Y-120251264D01*
X108007500Y-120250000D01*
X108532500Y-120250000D01*
X108558229Y-120251264D01*
X108558229Y-120251264D01*
G37*
D18*
G04 #@! TO.P,Q4,2*
G04 #@! TO.N,Net-(A1-Pad10)*
X108270000Y-121000000D03*
G04 #@! TD*
D16*
G04 #@! TO.P,Q5,1*
G04 #@! TO.N,GND*
X101000000Y-121000000D03*
D17*
G04 #@! TD*
G04 #@! TO.N,Net-(D3-Pad1)*
G04 #@! TO.C,Q5*
G36*
X103828229Y-120251264D02*
X103853711Y-120255044D01*
X103878700Y-120261303D01*
X103902954Y-120269982D01*
X103926242Y-120280996D01*
X103948337Y-120294239D01*
X103969028Y-120309585D01*
X103988116Y-120326884D01*
X104005415Y-120345972D01*
X104020761Y-120366663D01*
X104034004Y-120388758D01*
X104045018Y-120412046D01*
X104053697Y-120436300D01*
X104059956Y-120461289D01*
X104063736Y-120486771D01*
X104065000Y-120512500D01*
X104065000Y-121487500D01*
X104063736Y-121513229D01*
X104059956Y-121538711D01*
X104053697Y-121563700D01*
X104045018Y-121587954D01*
X104034004Y-121611242D01*
X104020761Y-121633337D01*
X104005415Y-121654028D01*
X103988116Y-121673116D01*
X103969028Y-121690415D01*
X103948337Y-121705761D01*
X103926242Y-121719004D01*
X103902954Y-121730018D01*
X103878700Y-121738697D01*
X103853711Y-121744956D01*
X103828229Y-121748736D01*
X103802500Y-121750000D01*
X103277500Y-121750000D01*
X103251771Y-121748736D01*
X103226289Y-121744956D01*
X103201300Y-121738697D01*
X103177046Y-121730018D01*
X103153758Y-121719004D01*
X103131663Y-121705761D01*
X103110972Y-121690415D01*
X103091884Y-121673116D01*
X103074585Y-121654028D01*
X103059239Y-121633337D01*
X103045996Y-121611242D01*
X103034982Y-121587954D01*
X103026303Y-121563700D01*
X103020044Y-121538711D01*
X103016264Y-121513229D01*
X103015000Y-121487500D01*
X103015000Y-120512500D01*
X103016264Y-120486771D01*
X103020044Y-120461289D01*
X103026303Y-120436300D01*
X103034982Y-120412046D01*
X103045996Y-120388758D01*
X103059239Y-120366663D01*
X103074585Y-120345972D01*
X103091884Y-120326884D01*
X103110972Y-120309585D01*
X103131663Y-120294239D01*
X103153758Y-120280996D01*
X103177046Y-120269982D01*
X103201300Y-120261303D01*
X103226289Y-120255044D01*
X103251771Y-120251264D01*
X103277500Y-120250000D01*
X103802500Y-120250000D01*
X103828229Y-120251264D01*
X103828229Y-120251264D01*
G37*
D18*
G04 #@! TO.P,Q5,3*
G04 #@! TO.N,Net-(D3-Pad1)*
X103540000Y-121000000D03*
D17*
G04 #@! TD*
G04 #@! TO.N,Net-(A1-Pad11)*
G04 #@! TO.C,Q5*
G36*
X102558229Y-120251264D02*
X102583711Y-120255044D01*
X102608700Y-120261303D01*
X102632954Y-120269982D01*
X102656242Y-120280996D01*
X102678337Y-120294239D01*
X102699028Y-120309585D01*
X102718116Y-120326884D01*
X102735415Y-120345972D01*
X102750761Y-120366663D01*
X102764004Y-120388758D01*
X102775018Y-120412046D01*
X102783697Y-120436300D01*
X102789956Y-120461289D01*
X102793736Y-120486771D01*
X102795000Y-120512500D01*
X102795000Y-121487500D01*
X102793736Y-121513229D01*
X102789956Y-121538711D01*
X102783697Y-121563700D01*
X102775018Y-121587954D01*
X102764004Y-121611242D01*
X102750761Y-121633337D01*
X102735415Y-121654028D01*
X102718116Y-121673116D01*
X102699028Y-121690415D01*
X102678337Y-121705761D01*
X102656242Y-121719004D01*
X102632954Y-121730018D01*
X102608700Y-121738697D01*
X102583711Y-121744956D01*
X102558229Y-121748736D01*
X102532500Y-121750000D01*
X102007500Y-121750000D01*
X101981771Y-121748736D01*
X101956289Y-121744956D01*
X101931300Y-121738697D01*
X101907046Y-121730018D01*
X101883758Y-121719004D01*
X101861663Y-121705761D01*
X101840972Y-121690415D01*
X101821884Y-121673116D01*
X101804585Y-121654028D01*
X101789239Y-121633337D01*
X101775996Y-121611242D01*
X101764982Y-121587954D01*
X101756303Y-121563700D01*
X101750044Y-121538711D01*
X101746264Y-121513229D01*
X101745000Y-121487500D01*
X101745000Y-120512500D01*
X101746264Y-120486771D01*
X101750044Y-120461289D01*
X101756303Y-120436300D01*
X101764982Y-120412046D01*
X101775996Y-120388758D01*
X101789239Y-120366663D01*
X101804585Y-120345972D01*
X101821884Y-120326884D01*
X101840972Y-120309585D01*
X101861663Y-120294239D01*
X101883758Y-120280996D01*
X101907046Y-120269982D01*
X101931300Y-120261303D01*
X101956289Y-120255044D01*
X101981771Y-120251264D01*
X102007500Y-120250000D01*
X102532500Y-120250000D01*
X102558229Y-120251264D01*
X102558229Y-120251264D01*
G37*
D18*
G04 #@! TO.P,Q5,2*
G04 #@! TO.N,Net-(A1-Pad11)*
X102270000Y-121000000D03*
G04 #@! TD*
D16*
G04 #@! TO.P,Q6,1*
G04 #@! TO.N,GND*
X95000000Y-121000000D03*
D17*
G04 #@! TD*
G04 #@! TO.N,Net-(D4-Pad1)*
G04 #@! TO.C,Q6*
G36*
X97828229Y-120251264D02*
X97853711Y-120255044D01*
X97878700Y-120261303D01*
X97902954Y-120269982D01*
X97926242Y-120280996D01*
X97948337Y-120294239D01*
X97969028Y-120309585D01*
X97988116Y-120326884D01*
X98005415Y-120345972D01*
X98020761Y-120366663D01*
X98034004Y-120388758D01*
X98045018Y-120412046D01*
X98053697Y-120436300D01*
X98059956Y-120461289D01*
X98063736Y-120486771D01*
X98065000Y-120512500D01*
X98065000Y-121487500D01*
X98063736Y-121513229D01*
X98059956Y-121538711D01*
X98053697Y-121563700D01*
X98045018Y-121587954D01*
X98034004Y-121611242D01*
X98020761Y-121633337D01*
X98005415Y-121654028D01*
X97988116Y-121673116D01*
X97969028Y-121690415D01*
X97948337Y-121705761D01*
X97926242Y-121719004D01*
X97902954Y-121730018D01*
X97878700Y-121738697D01*
X97853711Y-121744956D01*
X97828229Y-121748736D01*
X97802500Y-121750000D01*
X97277500Y-121750000D01*
X97251771Y-121748736D01*
X97226289Y-121744956D01*
X97201300Y-121738697D01*
X97177046Y-121730018D01*
X97153758Y-121719004D01*
X97131663Y-121705761D01*
X97110972Y-121690415D01*
X97091884Y-121673116D01*
X97074585Y-121654028D01*
X97059239Y-121633337D01*
X97045996Y-121611242D01*
X97034982Y-121587954D01*
X97026303Y-121563700D01*
X97020044Y-121538711D01*
X97016264Y-121513229D01*
X97015000Y-121487500D01*
X97015000Y-120512500D01*
X97016264Y-120486771D01*
X97020044Y-120461289D01*
X97026303Y-120436300D01*
X97034982Y-120412046D01*
X97045996Y-120388758D01*
X97059239Y-120366663D01*
X97074585Y-120345972D01*
X97091884Y-120326884D01*
X97110972Y-120309585D01*
X97131663Y-120294239D01*
X97153758Y-120280996D01*
X97177046Y-120269982D01*
X97201300Y-120261303D01*
X97226289Y-120255044D01*
X97251771Y-120251264D01*
X97277500Y-120250000D01*
X97802500Y-120250000D01*
X97828229Y-120251264D01*
X97828229Y-120251264D01*
G37*
D18*
G04 #@! TO.P,Q6,3*
G04 #@! TO.N,Net-(D4-Pad1)*
X97540000Y-121000000D03*
D17*
G04 #@! TD*
G04 #@! TO.N,Net-(A1-Pad12)*
G04 #@! TO.C,Q6*
G36*
X96558229Y-120251264D02*
X96583711Y-120255044D01*
X96608700Y-120261303D01*
X96632954Y-120269982D01*
X96656242Y-120280996D01*
X96678337Y-120294239D01*
X96699028Y-120309585D01*
X96718116Y-120326884D01*
X96735415Y-120345972D01*
X96750761Y-120366663D01*
X96764004Y-120388758D01*
X96775018Y-120412046D01*
X96783697Y-120436300D01*
X96789956Y-120461289D01*
X96793736Y-120486771D01*
X96795000Y-120512500D01*
X96795000Y-121487500D01*
X96793736Y-121513229D01*
X96789956Y-121538711D01*
X96783697Y-121563700D01*
X96775018Y-121587954D01*
X96764004Y-121611242D01*
X96750761Y-121633337D01*
X96735415Y-121654028D01*
X96718116Y-121673116D01*
X96699028Y-121690415D01*
X96678337Y-121705761D01*
X96656242Y-121719004D01*
X96632954Y-121730018D01*
X96608700Y-121738697D01*
X96583711Y-121744956D01*
X96558229Y-121748736D01*
X96532500Y-121750000D01*
X96007500Y-121750000D01*
X95981771Y-121748736D01*
X95956289Y-121744956D01*
X95931300Y-121738697D01*
X95907046Y-121730018D01*
X95883758Y-121719004D01*
X95861663Y-121705761D01*
X95840972Y-121690415D01*
X95821884Y-121673116D01*
X95804585Y-121654028D01*
X95789239Y-121633337D01*
X95775996Y-121611242D01*
X95764982Y-121587954D01*
X95756303Y-121563700D01*
X95750044Y-121538711D01*
X95746264Y-121513229D01*
X95745000Y-121487500D01*
X95745000Y-120512500D01*
X95746264Y-120486771D01*
X95750044Y-120461289D01*
X95756303Y-120436300D01*
X95764982Y-120412046D01*
X95775996Y-120388758D01*
X95789239Y-120366663D01*
X95804585Y-120345972D01*
X95821884Y-120326884D01*
X95840972Y-120309585D01*
X95861663Y-120294239D01*
X95883758Y-120280996D01*
X95907046Y-120269982D01*
X95931300Y-120261303D01*
X95956289Y-120255044D01*
X95981771Y-120251264D01*
X96007500Y-120250000D01*
X96532500Y-120250000D01*
X96558229Y-120251264D01*
X96558229Y-120251264D01*
G37*
D18*
G04 #@! TO.P,Q6,2*
G04 #@! TO.N,Net-(A1-Pad12)*
X96270000Y-121000000D03*
G04 #@! TD*
D19*
G04 #@! TO.P,R1,1*
G04 #@! TO.N,Net-(Q1-Pad2)*
X173500000Y-92000000D03*
G04 #@! TO.P,R1,2*
G04 #@! TO.N,deadmantrap*
X164500000Y-92000000D03*
G04 #@! TD*
G04 #@! TO.P,R2,1*
G04 #@! TO.N,powerswitch*
X135500000Y-91000000D03*
G04 #@! TO.P,R2,2*
G04 #@! TO.N,Net-(BT1-Pad1)*
X144500000Y-91000000D03*
G04 #@! TD*
D11*
G04 #@! TO.P,S1,5*
G04 #@! TO.N,powerswitch*
X98750000Y-86600000D03*
G04 #@! TO.P,S1,6*
G04 #@! TO.N,GND*
X98750000Y-91300000D03*
G04 #@! TO.P,S1,4*
G04 #@! TO.N,N/C*
X98750000Y-81900000D03*
G04 #@! TO.P,S1,3*
G04 #@! TO.N,GND*
X93950000Y-91300000D03*
G04 #@! TO.P,S1,2*
G04 #@! TO.N,Net-(A1-Pad5)*
X93950000Y-86600000D03*
G04 #@! TO.P,S1,1*
G04 #@! TO.N,VCC*
X93950000Y-81900000D03*
G04 #@! TD*
G04 #@! TO.P,S2,5*
G04 #@! TO.N,powerswitch*
X127850000Y-86600000D03*
G04 #@! TO.P,S2,6*
G04 #@! TO.N,GND*
X127850000Y-91300000D03*
G04 #@! TO.P,S2,4*
G04 #@! TO.N,N/C*
X127850000Y-81900000D03*
G04 #@! TO.P,S2,3*
G04 #@! TO.N,GND*
X123050000Y-91300000D03*
G04 #@! TO.P,S2,2*
G04 #@! TO.N,Net-(A1-Pad6)*
X123050000Y-86600000D03*
G04 #@! TO.P,S2,1*
G04 #@! TO.N,VCC*
X123050000Y-81900000D03*
G04 #@! TD*
G04 #@! TO.P,S3,5*
G04 #@! TO.N,powerswitch*
X156950000Y-86600000D03*
G04 #@! TO.P,S3,6*
G04 #@! TO.N,GND*
X156950000Y-91300000D03*
G04 #@! TO.P,S3,4*
G04 #@! TO.N,N/C*
X156950000Y-81900000D03*
G04 #@! TO.P,S3,3*
G04 #@! TO.N,GND*
X152150000Y-91300000D03*
G04 #@! TO.P,S3,2*
G04 #@! TO.N,Net-(A1-Pad7)*
X152150000Y-86600000D03*
G04 #@! TO.P,S3,1*
G04 #@! TO.N,VCC*
X152150000Y-81900000D03*
G04 #@! TD*
G04 #@! TO.P,S4,5*
G04 #@! TO.N,powerswitch*
X186050000Y-86600000D03*
G04 #@! TO.P,S4,6*
G04 #@! TO.N,GND*
X186050000Y-91300000D03*
G04 #@! TO.P,S4,4*
G04 #@! TO.N,N/C*
X186050000Y-81900000D03*
G04 #@! TO.P,S4,3*
G04 #@! TO.N,GND*
X181250000Y-91300000D03*
G04 #@! TO.P,S4,2*
G04 #@! TO.N,Net-(A1-Pad8)*
X181250000Y-86600000D03*
G04 #@! TO.P,S4,1*
G04 #@! TO.N,VCC*
X181250000Y-81900000D03*
G04 #@! TD*
D20*
G04 #@! TO.P,U2,1*
G04 #@! TO.N,Net-(C1-Pad1)*
X150000000Y-113000000D03*
G04 #@! TO.P,U2,2*
G04 #@! TO.N,GND*
X150000000Y-110460000D03*
G04 #@! TO.P,U2,3*
G04 #@! TO.N,VCC*
X150000000Y-107920000D03*
G04 #@! TD*
D17*
G04 #@! TO.N,VCC*
X129000000Y-116240000D02*
X133000000Y-112240000D01*
X129000000Y-120900000D02*
X129000000Y-116240000D01*
X141015000Y-104225000D02*
X141015000Y-97800000D01*
X133000000Y-112240000D02*
X141015000Y-104225000D01*
X129000000Y-125500000D02*
X120500000Y-134000000D01*
X129000000Y-120900000D02*
X129000000Y-125500000D01*
G04 #@! TO.N,Net-(BT1-Pad1)*
X175500001Y-96800001D02*
X177000000Y-98300000D01*
X174575999Y-95875999D02*
X175500001Y-96800001D01*
X150790212Y-95875999D02*
X174575999Y-95875999D01*
X145914213Y-91000000D02*
X150790212Y-95875999D01*
X144500000Y-91000000D02*
X145914213Y-91000000D01*
G04 #@! TO.N,Net-(C1-Pad1)*
X142639001Y-121875999D02*
X142538999Y-121976001D01*
X142639001Y-87369001D02*
X142639001Y-121875999D01*
X142538999Y-121976001D02*
X141015000Y-123500000D01*
X141270000Y-86000000D02*
X142639001Y-87369001D01*
G04 #@! TD*
D21*
G04 #@! TO.N,GND*
G36*
X91815000Y-81475322D02*
X91815000Y-82324678D01*
X92140034Y-83109380D01*
X92740620Y-83709966D01*
X93525322Y-84035000D01*
X94374678Y-84035000D01*
X95159380Y-83709966D01*
X95759966Y-83109380D01*
X96085000Y-82324678D01*
X96085000Y-81475322D01*
X95767993Y-80710000D01*
X96932007Y-80710000D01*
X96615000Y-81475322D01*
X96615000Y-82324678D01*
X96940034Y-83109380D01*
X97540620Y-83709966D01*
X98325322Y-84035000D01*
X99174678Y-84035000D01*
X99959380Y-83709966D01*
X100559966Y-83109380D01*
X100885000Y-82324678D01*
X100885000Y-81475322D01*
X100567993Y-80710000D01*
X121232007Y-80710000D01*
X120915000Y-81475322D01*
X120915000Y-82324678D01*
X121240034Y-83109380D01*
X121840620Y-83709966D01*
X122625322Y-84035000D01*
X123474678Y-84035000D01*
X124259380Y-83709966D01*
X124859966Y-83109380D01*
X125185000Y-82324678D01*
X125185000Y-81475322D01*
X124867993Y-80710000D01*
X126032007Y-80710000D01*
X125715000Y-81475322D01*
X125715000Y-82324678D01*
X126040034Y-83109380D01*
X126640620Y-83709966D01*
X127425322Y-84035000D01*
X128274678Y-84035000D01*
X129059380Y-83709966D01*
X129659966Y-83109380D01*
X129985000Y-82324678D01*
X129985000Y-81475322D01*
X129667993Y-80710000D01*
X150332007Y-80710000D01*
X150015000Y-81475322D01*
X150015000Y-82324678D01*
X150340034Y-83109380D01*
X150940620Y-83709966D01*
X151725322Y-84035000D01*
X152574678Y-84035000D01*
X153359380Y-83709966D01*
X153959966Y-83109380D01*
X154285000Y-82324678D01*
X154285000Y-81475322D01*
X153967993Y-80710000D01*
X155132007Y-80710000D01*
X154815000Y-81475322D01*
X154815000Y-82324678D01*
X155140034Y-83109380D01*
X155740620Y-83709966D01*
X156525322Y-84035000D01*
X157374678Y-84035000D01*
X158159380Y-83709966D01*
X158759966Y-83109380D01*
X159085000Y-82324678D01*
X159085000Y-81475322D01*
X158767993Y-80710000D01*
X179432007Y-80710000D01*
X179115000Y-81475322D01*
X179115000Y-82324678D01*
X179440034Y-83109380D01*
X180040620Y-83709966D01*
X180825322Y-84035000D01*
X181674678Y-84035000D01*
X182459380Y-83709966D01*
X183059966Y-83109380D01*
X183385000Y-82324678D01*
X183385000Y-81475322D01*
X183067993Y-80710000D01*
X184232007Y-80710000D01*
X183915000Y-81475322D01*
X183915000Y-82324678D01*
X184240034Y-83109380D01*
X184840620Y-83709966D01*
X185625322Y-84035000D01*
X186474678Y-84035000D01*
X187259380Y-83709966D01*
X187859966Y-83109380D01*
X188185000Y-82324678D01*
X188185000Y-81475322D01*
X187867993Y-80710000D01*
X189290001Y-80710000D01*
X189290000Y-132016321D01*
X188924678Y-131865000D01*
X188075322Y-131865000D01*
X187290620Y-132190034D01*
X186690034Y-132790620D01*
X186365000Y-133575322D01*
X186365000Y-134424678D01*
X186690034Y-135209380D01*
X187290620Y-135809966D01*
X188075322Y-136135000D01*
X188924678Y-136135000D01*
X189290000Y-135983679D01*
X189290000Y-141290000D01*
X90710000Y-141290000D01*
X90710000Y-135983679D01*
X91075322Y-136135000D01*
X91924678Y-136135000D01*
X92709380Y-135809966D01*
X93309966Y-135209380D01*
X93635000Y-134424678D01*
X93635000Y-133575322D01*
X99365000Y-133575322D01*
X99365000Y-134424678D01*
X99690034Y-135209380D01*
X100290620Y-135809966D01*
X101075322Y-136135000D01*
X101924678Y-136135000D01*
X102709380Y-135809966D01*
X103309966Y-135209380D01*
X103635000Y-134424678D01*
X103635000Y-133575322D01*
X118365000Y-133575322D01*
X118365000Y-134424678D01*
X118690034Y-135209380D01*
X119290620Y-135809966D01*
X120075322Y-136135000D01*
X120924678Y-136135000D01*
X121709380Y-135809966D01*
X122309966Y-135209380D01*
X122635000Y-134424678D01*
X122635000Y-133575322D01*
X128365000Y-133575322D01*
X128365000Y-134424678D01*
X128690034Y-135209380D01*
X129290620Y-135809966D01*
X130075322Y-136135000D01*
X130924678Y-136135000D01*
X131709380Y-135809966D01*
X132309966Y-135209380D01*
X132635000Y-134424678D01*
X132635000Y-133575322D01*
X147365000Y-133575322D01*
X147365000Y-134424678D01*
X147690034Y-135209380D01*
X148290620Y-135809966D01*
X149075322Y-136135000D01*
X149924678Y-136135000D01*
X150709380Y-135809966D01*
X151309966Y-135209380D01*
X151635000Y-134424678D01*
X151635000Y-133575322D01*
X157365000Y-133575322D01*
X157365000Y-134424678D01*
X157690034Y-135209380D01*
X158290620Y-135809966D01*
X159075322Y-136135000D01*
X159924678Y-136135000D01*
X160709380Y-135809966D01*
X161309966Y-135209380D01*
X161635000Y-134424678D01*
X161635000Y-133575322D01*
X176365000Y-133575322D01*
X176365000Y-134424678D01*
X176690034Y-135209380D01*
X177290620Y-135809966D01*
X178075322Y-136135000D01*
X178924678Y-136135000D01*
X179709380Y-135809966D01*
X180309966Y-135209380D01*
X180635000Y-134424678D01*
X180635000Y-133575322D01*
X180309966Y-132790620D01*
X179709380Y-132190034D01*
X178924678Y-131865000D01*
X178075322Y-131865000D01*
X177290620Y-132190034D01*
X176690034Y-132790620D01*
X176365000Y-133575322D01*
X161635000Y-133575322D01*
X161309966Y-132790620D01*
X160709380Y-132190034D01*
X159924678Y-131865000D01*
X159075322Y-131865000D01*
X158290620Y-132190034D01*
X157690034Y-132790620D01*
X157365000Y-133575322D01*
X151635000Y-133575322D01*
X151309966Y-132790620D01*
X150709380Y-132190034D01*
X149924678Y-131865000D01*
X149075322Y-131865000D01*
X148290620Y-132190034D01*
X147690034Y-132790620D01*
X147365000Y-133575322D01*
X132635000Y-133575322D01*
X132309966Y-132790620D01*
X131709380Y-132190034D01*
X130924678Y-131865000D01*
X130075322Y-131865000D01*
X129290620Y-132190034D01*
X128690034Y-132790620D01*
X128365000Y-133575322D01*
X122635000Y-133575322D01*
X122417794Y-133050941D01*
X129436664Y-126032072D01*
X129493857Y-125993857D01*
X129645255Y-125767273D01*
X129685000Y-125567462D01*
X129685000Y-125567461D01*
X129698419Y-125500001D01*
X129685000Y-125432540D01*
X129685000Y-122347440D01*
X129800000Y-122347440D01*
X130047765Y-122298157D01*
X130257809Y-122157809D01*
X130398157Y-121947765D01*
X130406117Y-121907745D01*
X130671861Y-121907745D01*
X130745995Y-122153864D01*
X131283223Y-122346965D01*
X131853454Y-122319778D01*
X132254005Y-122153864D01*
X132328139Y-121907745D01*
X131500000Y-121079605D01*
X130671861Y-121907745D01*
X130406117Y-121907745D01*
X130444693Y-121713813D01*
X130492255Y-121728139D01*
X131320395Y-120900000D01*
X131679605Y-120900000D01*
X132507745Y-121728139D01*
X132753864Y-121654005D01*
X132946965Y-121116777D01*
X132919778Y-120546546D01*
X132753864Y-120145995D01*
X132507745Y-120071861D01*
X131679605Y-120900000D01*
X131320395Y-120900000D01*
X130492255Y-120071861D01*
X130444693Y-120086187D01*
X130406118Y-119892255D01*
X130671861Y-119892255D01*
X131500000Y-120720395D01*
X132328139Y-119892255D01*
X132254005Y-119646136D01*
X131716777Y-119453035D01*
X131146546Y-119480222D01*
X130745995Y-119646136D01*
X130671861Y-119892255D01*
X130406118Y-119892255D01*
X130398157Y-119852235D01*
X130257809Y-119642191D01*
X130047765Y-119501843D01*
X129800000Y-119452560D01*
X129685000Y-119452560D01*
X129685000Y-116523735D01*
X132587645Y-113621090D01*
X132858667Y-113675000D01*
X133141333Y-113675000D01*
X133559909Y-113591740D01*
X134034577Y-113274577D01*
X134351740Y-112799909D01*
X134463113Y-112240000D01*
X134381090Y-111827645D01*
X141451669Y-104757068D01*
X141508856Y-104718857D01*
X141547068Y-104661669D01*
X141547071Y-104661666D01*
X141660254Y-104492274D01*
X141660255Y-104492273D01*
X141700000Y-104292462D01*
X141700000Y-104292461D01*
X141713419Y-104225000D01*
X141700000Y-104157540D01*
X141700000Y-99553149D01*
X141954001Y-99447938D01*
X141954002Y-121552063D01*
X141444452Y-121341000D01*
X140585548Y-121341000D01*
X139792025Y-121669688D01*
X139184688Y-122277025D01*
X138856000Y-123070548D01*
X138856000Y-123929452D01*
X139184688Y-124722975D01*
X139792025Y-125330312D01*
X140585548Y-125659000D01*
X141444452Y-125659000D01*
X142237975Y-125330312D01*
X142536980Y-125031307D01*
X153633298Y-125031307D01*
X153796011Y-125352568D01*
X154595464Y-125666556D01*
X155454221Y-125650706D01*
X156173989Y-125352568D01*
X156336702Y-125031307D01*
X154985000Y-123679605D01*
X153633298Y-125031307D01*
X142536980Y-125031307D01*
X142845312Y-124722975D01*
X143174000Y-123929452D01*
X143174000Y-123110464D01*
X152818444Y-123110464D01*
X152834294Y-123969221D01*
X153132432Y-124688989D01*
X153453693Y-124851702D01*
X154805395Y-123500000D01*
X155164605Y-123500000D01*
X156516307Y-124851702D01*
X156837568Y-124688989D01*
X157151556Y-123889536D01*
X157140220Y-123275322D01*
X174865000Y-123275322D01*
X174865000Y-124124678D01*
X175190034Y-124909380D01*
X175790620Y-125509966D01*
X176575322Y-125835000D01*
X177424678Y-125835000D01*
X178209380Y-125509966D01*
X178809966Y-124909380D01*
X179135000Y-124124678D01*
X179135000Y-123275322D01*
X178809966Y-122490620D01*
X178209380Y-121890034D01*
X177424678Y-121565000D01*
X176575322Y-121565000D01*
X175790620Y-121890034D01*
X175190034Y-122490620D01*
X174865000Y-123275322D01*
X157140220Y-123275322D01*
X157135706Y-123030779D01*
X156837568Y-122311011D01*
X156516307Y-122148298D01*
X155164605Y-123500000D01*
X154805395Y-123500000D01*
X153453693Y-122148298D01*
X153132432Y-122311011D01*
X152818444Y-123110464D01*
X143174000Y-123110464D01*
X143174000Y-123070548D01*
X142951163Y-122532573D01*
X143071069Y-122412667D01*
X143071071Y-122412664D01*
X143075662Y-122408073D01*
X143132858Y-122369856D01*
X143284256Y-122143272D01*
X143318982Y-121968693D01*
X153633298Y-121968693D01*
X154985000Y-123320395D01*
X156336702Y-121968693D01*
X156173989Y-121647432D01*
X155374536Y-121333444D01*
X154515779Y-121349294D01*
X153796011Y-121647432D01*
X153633298Y-121968693D01*
X143318982Y-121968693D01*
X143324001Y-121943461D01*
X143324001Y-121943460D01*
X143337420Y-121876000D01*
X143324001Y-121808539D01*
X143324001Y-112722119D01*
X148603000Y-112722119D01*
X148603000Y-113277881D01*
X148815680Y-113791337D01*
X149208663Y-114184320D01*
X149722119Y-114397000D01*
X150277881Y-114397000D01*
X150791337Y-114184320D01*
X151184320Y-113791337D01*
X151397000Y-113277881D01*
X151397000Y-112722119D01*
X151184320Y-112208663D01*
X150791337Y-111815680D01*
X150600353Y-111736572D01*
X150731143Y-111682397D01*
X150800608Y-111440213D01*
X150646145Y-111285750D01*
X172365000Y-111285750D01*
X172365000Y-115126309D01*
X172461673Y-115359698D01*
X172640301Y-115538327D01*
X172873690Y-115635000D01*
X176714250Y-115635000D01*
X176873000Y-115476250D01*
X176873000Y-111127000D01*
X177127000Y-111127000D01*
X177127000Y-115476250D01*
X177285750Y-115635000D01*
X181126310Y-115635000D01*
X181359699Y-115538327D01*
X181538327Y-115359698D01*
X181635000Y-115126309D01*
X181635000Y-111285750D01*
X181476250Y-111127000D01*
X177127000Y-111127000D01*
X176873000Y-111127000D01*
X172523750Y-111127000D01*
X172365000Y-111285750D01*
X150646145Y-111285750D01*
X150000000Y-110639605D01*
X149199392Y-111440213D01*
X149268857Y-111682397D01*
X149409393Y-111732535D01*
X149208663Y-111815680D01*
X148815680Y-112208663D01*
X148603000Y-112722119D01*
X143324001Y-112722119D01*
X143324001Y-110252302D01*
X148590856Y-110252302D01*
X148618638Y-110807368D01*
X148777603Y-111191143D01*
X149019787Y-111260608D01*
X149820395Y-110460000D01*
X150179605Y-110460000D01*
X150980213Y-111260608D01*
X151222397Y-111191143D01*
X151409144Y-110667698D01*
X151381362Y-110112632D01*
X151222397Y-109728857D01*
X150980213Y-109659392D01*
X150179605Y-110460000D01*
X149820395Y-110460000D01*
X149019787Y-109659392D01*
X148777603Y-109728857D01*
X148590856Y-110252302D01*
X143324001Y-110252302D01*
X143324001Y-107642119D01*
X148603000Y-107642119D01*
X148603000Y-108197881D01*
X148815680Y-108711337D01*
X149208663Y-109104320D01*
X149399647Y-109183428D01*
X149268857Y-109237603D01*
X149199392Y-109479787D01*
X150000000Y-110280395D01*
X150800608Y-109479787D01*
X150731143Y-109237603D01*
X150590607Y-109187465D01*
X150791337Y-109104320D01*
X151184320Y-108711337D01*
X151397000Y-108197881D01*
X151397000Y-107642119D01*
X151184320Y-107128663D01*
X150929348Y-106873691D01*
X172365000Y-106873691D01*
X172365000Y-110714250D01*
X172523750Y-110873000D01*
X176873000Y-110873000D01*
X176873000Y-106523750D01*
X177127000Y-106523750D01*
X177127000Y-110873000D01*
X181476250Y-110873000D01*
X181635000Y-110714250D01*
X181635000Y-106873691D01*
X181538327Y-106640302D01*
X181359699Y-106461673D01*
X181126310Y-106365000D01*
X177285750Y-106365000D01*
X177127000Y-106523750D01*
X176873000Y-106523750D01*
X176714250Y-106365000D01*
X172873690Y-106365000D01*
X172640301Y-106461673D01*
X172461673Y-106640302D01*
X172365000Y-106873691D01*
X150929348Y-106873691D01*
X150791337Y-106735680D01*
X150277881Y-106523000D01*
X149722119Y-106523000D01*
X149208663Y-106735680D01*
X148815680Y-107128663D01*
X148603000Y-107642119D01*
X143324001Y-107642119D01*
X143324001Y-99031307D01*
X153633298Y-99031307D01*
X153796011Y-99352568D01*
X154595464Y-99666556D01*
X155454221Y-99650706D01*
X156173989Y-99352568D01*
X156336702Y-99031307D01*
X154985000Y-97679605D01*
X153633298Y-99031307D01*
X143324001Y-99031307D01*
X143324001Y-92136240D01*
X143573847Y-92386086D01*
X144174778Y-92635000D01*
X144825222Y-92635000D01*
X145426153Y-92386086D01*
X145878858Y-91933381D01*
X150258142Y-96312666D01*
X150296355Y-96369856D01*
X150353545Y-96408069D01*
X150353546Y-96408070D01*
X150439775Y-96465686D01*
X150522939Y-96521254D01*
X150722750Y-96560999D01*
X150722751Y-96560999D01*
X150790212Y-96574418D01*
X150857672Y-96560999D01*
X153034248Y-96560999D01*
X152818444Y-97110464D01*
X152834294Y-97969221D01*
X153132432Y-98688989D01*
X153453693Y-98851702D01*
X154805395Y-97500000D01*
X154791253Y-97485858D01*
X154970858Y-97306253D01*
X154985000Y-97320395D01*
X154999143Y-97306253D01*
X155178748Y-97485858D01*
X155164605Y-97500000D01*
X156516307Y-98851702D01*
X156837568Y-98688989D01*
X157151556Y-97889536D01*
X157135706Y-97030779D01*
X156941117Y-96560999D01*
X174292264Y-96560999D01*
X175063335Y-97332071D01*
X175063338Y-97332073D01*
X175082206Y-97350941D01*
X174865000Y-97875322D01*
X174865000Y-98724678D01*
X175190034Y-99509380D01*
X175790620Y-100109966D01*
X176575322Y-100435000D01*
X177424678Y-100435000D01*
X178209380Y-100109966D01*
X178809966Y-99509380D01*
X179135000Y-98724678D01*
X179135000Y-97875322D01*
X178809966Y-97090620D01*
X178209380Y-96490034D01*
X177424678Y-96165000D01*
X176575322Y-96165000D01*
X176050941Y-96382206D01*
X176032073Y-96363338D01*
X176032071Y-96363335D01*
X175108073Y-95439338D01*
X175069856Y-95382142D01*
X174843272Y-95230744D01*
X174643461Y-95190999D01*
X174643459Y-95190999D01*
X174575999Y-95177580D01*
X174508539Y-95190999D01*
X151073949Y-95190999D01*
X148696920Y-92813970D01*
X150815635Y-92813970D01*
X150975418Y-93132739D01*
X151766187Y-93442723D01*
X152615387Y-93426497D01*
X153324582Y-93132739D01*
X153484365Y-92813970D01*
X155615635Y-92813970D01*
X155775418Y-93132739D01*
X156566187Y-93442723D01*
X157415387Y-93426497D01*
X158124582Y-93132739D01*
X158284365Y-92813970D01*
X156950000Y-91479605D01*
X155615635Y-92813970D01*
X153484365Y-92813970D01*
X152150000Y-91479605D01*
X150815635Y-92813970D01*
X148696920Y-92813970D01*
X146799136Y-90916187D01*
X150007277Y-90916187D01*
X150023503Y-91765387D01*
X150317261Y-92474582D01*
X150636030Y-92634365D01*
X151970395Y-91300000D01*
X152329605Y-91300000D01*
X153663970Y-92634365D01*
X153982739Y-92474582D01*
X154292723Y-91683813D01*
X154278056Y-90916187D01*
X154807277Y-90916187D01*
X154823503Y-91765387D01*
X155117261Y-92474582D01*
X155436030Y-92634365D01*
X156770395Y-91300000D01*
X157129605Y-91300000D01*
X158463970Y-92634365D01*
X158782739Y-92474582D01*
X159092723Y-91683813D01*
X159092551Y-91674778D01*
X162865000Y-91674778D01*
X162865000Y-92325222D01*
X163113914Y-92926153D01*
X163573847Y-93386086D01*
X164174778Y-93635000D01*
X164825222Y-93635000D01*
X165426153Y-93386086D01*
X165886086Y-92926153D01*
X166135000Y-92325222D01*
X166135000Y-91674778D01*
X171865000Y-91674778D01*
X171865000Y-92325222D01*
X172113914Y-92926153D01*
X172573847Y-93386086D01*
X173174778Y-93635000D01*
X173825222Y-93635000D01*
X174426153Y-93386086D01*
X174886086Y-92926153D01*
X174932553Y-92813970D01*
X179915635Y-92813970D01*
X180075418Y-93132739D01*
X180866187Y-93442723D01*
X181715387Y-93426497D01*
X182424582Y-93132739D01*
X182584365Y-92813970D01*
X184715635Y-92813970D01*
X184875418Y-93132739D01*
X185666187Y-93442723D01*
X186515387Y-93426497D01*
X187224582Y-93132739D01*
X187384365Y-92813970D01*
X186050000Y-91479605D01*
X184715635Y-92813970D01*
X182584365Y-92813970D01*
X181250000Y-91479605D01*
X179915635Y-92813970D01*
X174932553Y-92813970D01*
X175135000Y-92325222D01*
X175135000Y-91674778D01*
X174886086Y-91073847D01*
X174728426Y-90916187D01*
X179107277Y-90916187D01*
X179123503Y-91765387D01*
X179417261Y-92474582D01*
X179736030Y-92634365D01*
X181070395Y-91300000D01*
X181429605Y-91300000D01*
X182763970Y-92634365D01*
X183082739Y-92474582D01*
X183392723Y-91683813D01*
X183378056Y-90916187D01*
X183907277Y-90916187D01*
X183923503Y-91765387D01*
X184217261Y-92474582D01*
X184536030Y-92634365D01*
X185870395Y-91300000D01*
X186229605Y-91300000D01*
X187563970Y-92634365D01*
X187882739Y-92474582D01*
X188192723Y-91683813D01*
X188176497Y-90834613D01*
X187882739Y-90125418D01*
X187563970Y-89965635D01*
X186229605Y-91300000D01*
X185870395Y-91300000D01*
X184536030Y-89965635D01*
X184217261Y-90125418D01*
X183907277Y-90916187D01*
X183378056Y-90916187D01*
X183376497Y-90834613D01*
X183082739Y-90125418D01*
X182763970Y-89965635D01*
X181429605Y-91300000D01*
X181070395Y-91300000D01*
X179736030Y-89965635D01*
X179417261Y-90125418D01*
X179107277Y-90916187D01*
X174728426Y-90916187D01*
X174426153Y-90613914D01*
X173825222Y-90365000D01*
X173174778Y-90365000D01*
X172573847Y-90613914D01*
X172113914Y-91073847D01*
X171865000Y-91674778D01*
X166135000Y-91674778D01*
X165886086Y-91073847D01*
X165426153Y-90613914D01*
X164825222Y-90365000D01*
X164174778Y-90365000D01*
X163573847Y-90613914D01*
X163113914Y-91073847D01*
X162865000Y-91674778D01*
X159092551Y-91674778D01*
X159076497Y-90834613D01*
X158782739Y-90125418D01*
X158463970Y-89965635D01*
X157129605Y-91300000D01*
X156770395Y-91300000D01*
X155436030Y-89965635D01*
X155117261Y-90125418D01*
X154807277Y-90916187D01*
X154278056Y-90916187D01*
X154276497Y-90834613D01*
X153982739Y-90125418D01*
X153663970Y-89965635D01*
X152329605Y-91300000D01*
X151970395Y-91300000D01*
X150636030Y-89965635D01*
X150317261Y-90125418D01*
X150007277Y-90916187D01*
X146799136Y-90916187D01*
X146446287Y-90563339D01*
X146408070Y-90506143D01*
X146181486Y-90354745D01*
X145986361Y-90315932D01*
X145886086Y-90073847D01*
X145598269Y-89786030D01*
X150815635Y-89786030D01*
X152150000Y-91120395D01*
X153484365Y-89786030D01*
X155615635Y-89786030D01*
X156950000Y-91120395D01*
X158284365Y-89786030D01*
X179915635Y-89786030D01*
X181250000Y-91120395D01*
X182584365Y-89786030D01*
X184715635Y-89786030D01*
X186050000Y-91120395D01*
X187384365Y-89786030D01*
X187224582Y-89467261D01*
X186433813Y-89157277D01*
X185584613Y-89173503D01*
X184875418Y-89467261D01*
X184715635Y-89786030D01*
X182584365Y-89786030D01*
X182424582Y-89467261D01*
X181633813Y-89157277D01*
X180784613Y-89173503D01*
X180075418Y-89467261D01*
X179915635Y-89786030D01*
X158284365Y-89786030D01*
X158124582Y-89467261D01*
X157333813Y-89157277D01*
X156484613Y-89173503D01*
X155775418Y-89467261D01*
X155615635Y-89786030D01*
X153484365Y-89786030D01*
X153324582Y-89467261D01*
X152533813Y-89157277D01*
X151684613Y-89173503D01*
X150975418Y-89467261D01*
X150815635Y-89786030D01*
X145598269Y-89786030D01*
X145426153Y-89613914D01*
X144825222Y-89365000D01*
X144174778Y-89365000D01*
X143573847Y-89613914D01*
X143324001Y-89863760D01*
X143324001Y-87436461D01*
X143337420Y-87369001D01*
X143309025Y-87226250D01*
X143284256Y-87101728D01*
X143214790Y-86997765D01*
X143171072Y-86932335D01*
X143171069Y-86932332D01*
X143132857Y-86875144D01*
X143075670Y-86836933D01*
X142442440Y-86203704D01*
X142442440Y-86175322D01*
X150015000Y-86175322D01*
X150015000Y-87024678D01*
X150340034Y-87809380D01*
X150940620Y-88409966D01*
X151725322Y-88735000D01*
X152574678Y-88735000D01*
X153359380Y-88409966D01*
X153959966Y-87809380D01*
X154285000Y-87024678D01*
X154285000Y-86175322D01*
X154815000Y-86175322D01*
X154815000Y-87024678D01*
X155140034Y-87809380D01*
X155740620Y-88409966D01*
X156525322Y-88735000D01*
X157374678Y-88735000D01*
X158159380Y-88409966D01*
X158759966Y-87809380D01*
X159085000Y-87024678D01*
X159085000Y-86175322D01*
X158759966Y-85390620D01*
X158619346Y-85250000D01*
X166557560Y-85250000D01*
X166557560Y-86750000D01*
X166606843Y-86997765D01*
X166747191Y-87207809D01*
X166957235Y-87348157D01*
X167205000Y-87397440D01*
X168255000Y-87397440D01*
X168496251Y-87349453D01*
X168737500Y-87397440D01*
X169262500Y-87397440D01*
X169523424Y-87345539D01*
X169618691Y-87385000D01*
X169984250Y-87385000D01*
X170143000Y-87226250D01*
X170143000Y-86635505D01*
X170172440Y-86487500D01*
X170172440Y-86127000D01*
X170397000Y-86127000D01*
X170397000Y-87226250D01*
X170555750Y-87385000D01*
X170921309Y-87385000D01*
X171154698Y-87288327D01*
X171333327Y-87109699D01*
X171430000Y-86876310D01*
X171430000Y-86285750D01*
X171319572Y-86175322D01*
X179115000Y-86175322D01*
X179115000Y-87024678D01*
X179440034Y-87809380D01*
X180040620Y-88409966D01*
X180825322Y-88735000D01*
X181674678Y-88735000D01*
X182459380Y-88409966D01*
X183059966Y-87809380D01*
X183385000Y-87024678D01*
X183385000Y-86175322D01*
X183915000Y-86175322D01*
X183915000Y-87024678D01*
X184240034Y-87809380D01*
X184840620Y-88409966D01*
X185625322Y-88735000D01*
X186474678Y-88735000D01*
X187259380Y-88409966D01*
X187859966Y-87809380D01*
X188185000Y-87024678D01*
X188185000Y-86175322D01*
X187859966Y-85390620D01*
X187259380Y-84790034D01*
X186474678Y-84465000D01*
X185625322Y-84465000D01*
X184840620Y-84790034D01*
X184240034Y-85390620D01*
X183915000Y-86175322D01*
X183385000Y-86175322D01*
X183059966Y-85390620D01*
X182459380Y-84790034D01*
X181674678Y-84465000D01*
X180825322Y-84465000D01*
X180040620Y-84790034D01*
X179440034Y-85390620D01*
X179115000Y-86175322D01*
X171319572Y-86175322D01*
X171271250Y-86127000D01*
X170397000Y-86127000D01*
X170172440Y-86127000D01*
X170172440Y-85512500D01*
X170143000Y-85364495D01*
X170143000Y-84773750D01*
X170397000Y-84773750D01*
X170397000Y-85873000D01*
X171271250Y-85873000D01*
X171430000Y-85714250D01*
X171430000Y-85123690D01*
X171333327Y-84890301D01*
X171154698Y-84711673D01*
X170921309Y-84615000D01*
X170555750Y-84615000D01*
X170397000Y-84773750D01*
X170143000Y-84773750D01*
X169984250Y-84615000D01*
X169618691Y-84615000D01*
X169523424Y-84654461D01*
X169262500Y-84602560D01*
X168737500Y-84602560D01*
X168496251Y-84650547D01*
X168255000Y-84602560D01*
X167205000Y-84602560D01*
X166957235Y-84651843D01*
X166747191Y-84792191D01*
X166606843Y-85002235D01*
X166557560Y-85250000D01*
X158619346Y-85250000D01*
X158159380Y-84790034D01*
X157374678Y-84465000D01*
X156525322Y-84465000D01*
X155740620Y-84790034D01*
X155140034Y-85390620D01*
X154815000Y-86175322D01*
X154285000Y-86175322D01*
X153959966Y-85390620D01*
X153359380Y-84790034D01*
X152574678Y-84465000D01*
X151725322Y-84465000D01*
X150940620Y-84790034D01*
X150340034Y-85390620D01*
X150015000Y-86175322D01*
X142442440Y-86175322D01*
X142442440Y-85512500D01*
X142373175Y-85164281D01*
X142175925Y-84869075D01*
X141880719Y-84671825D01*
X141532500Y-84602560D01*
X141007500Y-84602560D01*
X140659281Y-84671825D01*
X140635000Y-84688049D01*
X140610719Y-84671825D01*
X140262500Y-84602560D01*
X139737500Y-84602560D01*
X139496251Y-84650547D01*
X139255000Y-84602560D01*
X138205000Y-84602560D01*
X137957235Y-84651843D01*
X137747191Y-84792191D01*
X137606843Y-85002235D01*
X137557560Y-85250000D01*
X137557560Y-86750000D01*
X137606843Y-86997765D01*
X137747191Y-87207809D01*
X137957235Y-87348157D01*
X138205000Y-87397440D01*
X139255000Y-87397440D01*
X139496251Y-87349453D01*
X139737500Y-87397440D01*
X140262500Y-87397440D01*
X140610719Y-87328175D01*
X140635000Y-87311951D01*
X140659281Y-87328175D01*
X141007500Y-87397440D01*
X141532500Y-87397440D01*
X141671129Y-87369865D01*
X141954001Y-87652738D01*
X141954001Y-95552062D01*
X141444452Y-95341000D01*
X140585548Y-95341000D01*
X139792025Y-95669688D01*
X139184688Y-96277025D01*
X138856000Y-97070548D01*
X138856000Y-97929452D01*
X139184688Y-98722975D01*
X139792025Y-99330312D01*
X140330001Y-99553149D01*
X140330000Y-103941263D01*
X133412355Y-110858910D01*
X133141333Y-110805000D01*
X132858667Y-110805000D01*
X132440091Y-110888260D01*
X131965423Y-111205423D01*
X131709053Y-111589108D01*
X131612389Y-111384866D01*
X131197423Y-111008959D01*
X130809039Y-110848096D01*
X130587000Y-110970085D01*
X130587000Y-112113000D01*
X130607000Y-112113000D01*
X130607000Y-112367000D01*
X130587000Y-112367000D01*
X130587000Y-113509915D01*
X130699527Y-113571738D01*
X128563337Y-115707928D01*
X128506144Y-115746143D01*
X128467930Y-115803335D01*
X128354746Y-115972727D01*
X128301581Y-116240000D01*
X128315001Y-116307465D01*
X128315000Y-119452560D01*
X128200000Y-119452560D01*
X127952235Y-119501843D01*
X127742191Y-119642191D01*
X127601843Y-119852235D01*
X127552560Y-120100000D01*
X127552560Y-121700000D01*
X127601843Y-121947765D01*
X127742191Y-122157809D01*
X127952235Y-122298157D01*
X128200000Y-122347440D01*
X128315000Y-122347440D01*
X128315001Y-125216263D01*
X121449059Y-132082206D01*
X120924678Y-131865000D01*
X120075322Y-131865000D01*
X119290620Y-132190034D01*
X118690034Y-132790620D01*
X118365000Y-133575322D01*
X103635000Y-133575322D01*
X103309966Y-132790620D01*
X102709380Y-132190034D01*
X101924678Y-131865000D01*
X101075322Y-131865000D01*
X100290620Y-132190034D01*
X99690034Y-132790620D01*
X99365000Y-133575322D01*
X93635000Y-133575322D01*
X93309966Y-132790620D01*
X92709380Y-132190034D01*
X91924678Y-131865000D01*
X91075322Y-131865000D01*
X90710000Y-132016321D01*
X90710000Y-121285750D01*
X93840000Y-121285750D01*
X93840000Y-121876310D01*
X93936673Y-122109699D01*
X94115302Y-122288327D01*
X94348691Y-122385000D01*
X94714250Y-122385000D01*
X94873000Y-122226250D01*
X94873000Y-121127000D01*
X93998750Y-121127000D01*
X93840000Y-121285750D01*
X90710000Y-121285750D01*
X90710000Y-120123690D01*
X93840000Y-120123690D01*
X93840000Y-120714250D01*
X93998750Y-120873000D01*
X94873000Y-120873000D01*
X94873000Y-120512500D01*
X95097560Y-120512500D01*
X95097560Y-121487500D01*
X95127000Y-121635505D01*
X95127000Y-122226250D01*
X95285750Y-122385000D01*
X95651309Y-122385000D01*
X95746576Y-122345539D01*
X96007500Y-122397440D01*
X96532500Y-122397440D01*
X96880719Y-122328175D01*
X96905000Y-122311951D01*
X96929281Y-122328175D01*
X97277500Y-122397440D01*
X97802500Y-122397440D01*
X98150719Y-122328175D01*
X98445925Y-122130925D01*
X98643175Y-121835719D01*
X98712440Y-121487500D01*
X98712440Y-121285750D01*
X99840000Y-121285750D01*
X99840000Y-121876310D01*
X99936673Y-122109699D01*
X100115302Y-122288327D01*
X100348691Y-122385000D01*
X100714250Y-122385000D01*
X100873000Y-122226250D01*
X100873000Y-121127000D01*
X99998750Y-121127000D01*
X99840000Y-121285750D01*
X98712440Y-121285750D01*
X98712440Y-120512500D01*
X98643175Y-120164281D01*
X98616054Y-120123690D01*
X99840000Y-120123690D01*
X99840000Y-120714250D01*
X99998750Y-120873000D01*
X100873000Y-120873000D01*
X100873000Y-120512500D01*
X101097560Y-120512500D01*
X101097560Y-121487500D01*
X101127000Y-121635505D01*
X101127000Y-122226250D01*
X101285750Y-122385000D01*
X101651309Y-122385000D01*
X101746576Y-122345539D01*
X102007500Y-122397440D01*
X102532500Y-122397440D01*
X102880719Y-122328175D01*
X102905000Y-122311951D01*
X102929281Y-122328175D01*
X103277500Y-122397440D01*
X103802500Y-122397440D01*
X104150719Y-122328175D01*
X104445925Y-122130925D01*
X104643175Y-121835719D01*
X104712440Y-121487500D01*
X104712440Y-121285750D01*
X105840000Y-121285750D01*
X105840000Y-121876310D01*
X105936673Y-122109699D01*
X106115302Y-122288327D01*
X106348691Y-122385000D01*
X106714250Y-122385000D01*
X106873000Y-122226250D01*
X106873000Y-121127000D01*
X105998750Y-121127000D01*
X105840000Y-121285750D01*
X104712440Y-121285750D01*
X104712440Y-120512500D01*
X104643175Y-120164281D01*
X104616054Y-120123690D01*
X105840000Y-120123690D01*
X105840000Y-120714250D01*
X105998750Y-120873000D01*
X106873000Y-120873000D01*
X106873000Y-120512500D01*
X107097560Y-120512500D01*
X107097560Y-121487500D01*
X107127000Y-121635505D01*
X107127000Y-122226250D01*
X107285750Y-122385000D01*
X107651309Y-122385000D01*
X107746576Y-122345539D01*
X108007500Y-122397440D01*
X108532500Y-122397440D01*
X108880719Y-122328175D01*
X108905000Y-122311951D01*
X108929281Y-122328175D01*
X109277500Y-122397440D01*
X109802500Y-122397440D01*
X110150719Y-122328175D01*
X110445925Y-122130925D01*
X110643175Y-121835719D01*
X110712440Y-121487500D01*
X110712440Y-121285750D01*
X111840000Y-121285750D01*
X111840000Y-121876310D01*
X111936673Y-122109699D01*
X112115302Y-122288327D01*
X112348691Y-122385000D01*
X112714250Y-122385000D01*
X112873000Y-122226250D01*
X112873000Y-121127000D01*
X111998750Y-121127000D01*
X111840000Y-121285750D01*
X110712440Y-121285750D01*
X110712440Y-120512500D01*
X110643175Y-120164281D01*
X110616054Y-120123690D01*
X111840000Y-120123690D01*
X111840000Y-120714250D01*
X111998750Y-120873000D01*
X112873000Y-120873000D01*
X112873000Y-120512500D01*
X113097560Y-120512500D01*
X113097560Y-121487500D01*
X113127000Y-121635505D01*
X113127000Y-122226250D01*
X113285750Y-122385000D01*
X113651309Y-122385000D01*
X113746576Y-122345539D01*
X114007500Y-122397440D01*
X114532500Y-122397440D01*
X114880719Y-122328175D01*
X114905000Y-122311951D01*
X114929281Y-122328175D01*
X115277500Y-122397440D01*
X115802500Y-122397440D01*
X116150719Y-122328175D01*
X116445925Y-122130925D01*
X116643175Y-121835719D01*
X116712440Y-121487500D01*
X116712440Y-120512500D01*
X116650280Y-120200000D01*
X119552560Y-120200000D01*
X119552560Y-121800000D01*
X119601843Y-122047765D01*
X119742191Y-122257809D01*
X119952235Y-122398157D01*
X120200000Y-122447440D01*
X121800000Y-122447440D01*
X122047765Y-122398157D01*
X122257809Y-122257809D01*
X122398157Y-122047765D01*
X122406117Y-122007745D01*
X122671861Y-122007745D01*
X122745995Y-122253864D01*
X123283223Y-122446965D01*
X123853454Y-122419778D01*
X124254005Y-122253864D01*
X124328139Y-122007745D01*
X123500000Y-121179605D01*
X122671861Y-122007745D01*
X122406117Y-122007745D01*
X122444693Y-121813813D01*
X122492255Y-121828139D01*
X123320395Y-121000000D01*
X123679605Y-121000000D01*
X124507745Y-121828139D01*
X124753864Y-121754005D01*
X124946965Y-121216777D01*
X124919778Y-120646546D01*
X124753864Y-120245995D01*
X124507745Y-120171861D01*
X123679605Y-121000000D01*
X123320395Y-121000000D01*
X122492255Y-120171861D01*
X122444693Y-120186187D01*
X122406118Y-119992255D01*
X122671861Y-119992255D01*
X123500000Y-120820395D01*
X124328139Y-119992255D01*
X124254005Y-119746136D01*
X123716777Y-119553035D01*
X123146546Y-119580222D01*
X122745995Y-119746136D01*
X122671861Y-119992255D01*
X122406118Y-119992255D01*
X122398157Y-119952235D01*
X122257809Y-119742191D01*
X122047765Y-119601843D01*
X121800000Y-119552560D01*
X120200000Y-119552560D01*
X119952235Y-119601843D01*
X119742191Y-119742191D01*
X119601843Y-119952235D01*
X119552560Y-120200000D01*
X116650280Y-120200000D01*
X116643175Y-120164281D01*
X116445925Y-119869075D01*
X116150719Y-119671825D01*
X115802500Y-119602560D01*
X115277500Y-119602560D01*
X114929281Y-119671825D01*
X114905000Y-119688049D01*
X114880719Y-119671825D01*
X114532500Y-119602560D01*
X114007500Y-119602560D01*
X113746576Y-119654461D01*
X113651309Y-119615000D01*
X113285750Y-119615000D01*
X113127000Y-119773750D01*
X113127000Y-120364495D01*
X113097560Y-120512500D01*
X112873000Y-120512500D01*
X112873000Y-119773750D01*
X112714250Y-119615000D01*
X112348691Y-119615000D01*
X112115302Y-119711673D01*
X111936673Y-119890301D01*
X111840000Y-120123690D01*
X110616054Y-120123690D01*
X110445925Y-119869075D01*
X110150719Y-119671825D01*
X109802500Y-119602560D01*
X109277500Y-119602560D01*
X108929281Y-119671825D01*
X108905000Y-119688049D01*
X108880719Y-119671825D01*
X108532500Y-119602560D01*
X108007500Y-119602560D01*
X107746576Y-119654461D01*
X107651309Y-119615000D01*
X107285750Y-119615000D01*
X107127000Y-119773750D01*
X107127000Y-120364495D01*
X107097560Y-120512500D01*
X106873000Y-120512500D01*
X106873000Y-119773750D01*
X106714250Y-119615000D01*
X106348691Y-119615000D01*
X106115302Y-119711673D01*
X105936673Y-119890301D01*
X105840000Y-120123690D01*
X104616054Y-120123690D01*
X104445925Y-119869075D01*
X104150719Y-119671825D01*
X103802500Y-119602560D01*
X103277500Y-119602560D01*
X102929281Y-119671825D01*
X102905000Y-119688049D01*
X102880719Y-119671825D01*
X102532500Y-119602560D01*
X102007500Y-119602560D01*
X101746576Y-119654461D01*
X101651309Y-119615000D01*
X101285750Y-119615000D01*
X101127000Y-119773750D01*
X101127000Y-120364495D01*
X101097560Y-120512500D01*
X100873000Y-120512500D01*
X100873000Y-119773750D01*
X100714250Y-119615000D01*
X100348691Y-119615000D01*
X100115302Y-119711673D01*
X99936673Y-119890301D01*
X99840000Y-120123690D01*
X98616054Y-120123690D01*
X98445925Y-119869075D01*
X98150719Y-119671825D01*
X97802500Y-119602560D01*
X97277500Y-119602560D01*
X96929281Y-119671825D01*
X96905000Y-119688049D01*
X96880719Y-119671825D01*
X96532500Y-119602560D01*
X96007500Y-119602560D01*
X95746576Y-119654461D01*
X95651309Y-119615000D01*
X95285750Y-119615000D01*
X95127000Y-119773750D01*
X95127000Y-120364495D01*
X95097560Y-120512500D01*
X94873000Y-120512500D01*
X94873000Y-119773750D01*
X94714250Y-119615000D01*
X94348691Y-119615000D01*
X94115302Y-119711673D01*
X93936673Y-119890301D01*
X93840000Y-120123690D01*
X90710000Y-120123690D01*
X90710000Y-112240000D01*
X95976887Y-112240000D01*
X96088260Y-112799909D01*
X96405423Y-113274577D01*
X96880091Y-113591740D01*
X97298667Y-113675000D01*
X97581333Y-113675000D01*
X97999909Y-113591740D01*
X98474577Y-113274577D01*
X98710000Y-112922242D01*
X98945423Y-113274577D01*
X99420091Y-113591740D01*
X99838667Y-113675000D01*
X100121333Y-113675000D01*
X100539909Y-113591740D01*
X101014577Y-113274577D01*
X101250000Y-112922242D01*
X101485423Y-113274577D01*
X101960091Y-113591740D01*
X102378667Y-113675000D01*
X102661333Y-113675000D01*
X103079909Y-113591740D01*
X103554577Y-113274577D01*
X103790000Y-112922242D01*
X104025423Y-113274577D01*
X104500091Y-113591740D01*
X104918667Y-113675000D01*
X105201333Y-113675000D01*
X105619909Y-113591740D01*
X106094577Y-113274577D01*
X106330000Y-112922242D01*
X106565423Y-113274577D01*
X107040091Y-113591740D01*
X107458667Y-113675000D01*
X107741333Y-113675000D01*
X108159909Y-113591740D01*
X108634577Y-113274577D01*
X108870000Y-112922242D01*
X109105423Y-113274577D01*
X109580091Y-113591740D01*
X109998667Y-113675000D01*
X110281333Y-113675000D01*
X110699909Y-113591740D01*
X111174577Y-113274577D01*
X111410000Y-112922242D01*
X111645423Y-113274577D01*
X112120091Y-113591740D01*
X112538667Y-113675000D01*
X112821333Y-113675000D01*
X113239909Y-113591740D01*
X113714577Y-113274577D01*
X113950000Y-112922242D01*
X114185423Y-113274577D01*
X114660091Y-113591740D01*
X115078667Y-113675000D01*
X115361333Y-113675000D01*
X115779909Y-113591740D01*
X116254577Y-113274577D01*
X116490000Y-112922242D01*
X116725423Y-113274577D01*
X117200091Y-113591740D01*
X117618667Y-113675000D01*
X117901333Y-113675000D01*
X118319909Y-113591740D01*
X118794577Y-113274577D01*
X119030000Y-112922242D01*
X119265423Y-113274577D01*
X119740091Y-113591740D01*
X120158667Y-113675000D01*
X120441333Y-113675000D01*
X120859909Y-113591740D01*
X121334577Y-113274577D01*
X121570000Y-112922242D01*
X121805423Y-113274577D01*
X122280091Y-113591740D01*
X122698667Y-113675000D01*
X122981333Y-113675000D01*
X123399909Y-113591740D01*
X123874577Y-113274577D01*
X124110000Y-112922242D01*
X124345423Y-113274577D01*
X124820091Y-113591740D01*
X125238667Y-113675000D01*
X125521333Y-113675000D01*
X125939909Y-113591740D01*
X126414577Y-113274577D01*
X126650000Y-112922242D01*
X126885423Y-113274577D01*
X127360091Y-113591740D01*
X127778667Y-113675000D01*
X128061333Y-113675000D01*
X128479909Y-113591740D01*
X128954577Y-113274577D01*
X129210947Y-112890892D01*
X129307611Y-113095134D01*
X129722577Y-113471041D01*
X130110961Y-113631904D01*
X130333000Y-113509915D01*
X130333000Y-112367000D01*
X130313000Y-112367000D01*
X130313000Y-112113000D01*
X130333000Y-112113000D01*
X130333000Y-110970085D01*
X130110961Y-110848096D01*
X129722577Y-111008959D01*
X129307611Y-111384866D01*
X129210947Y-111589108D01*
X128954577Y-111205423D01*
X128479909Y-110888260D01*
X128061333Y-110805000D01*
X127778667Y-110805000D01*
X127360091Y-110888260D01*
X126885423Y-111205423D01*
X126650000Y-111557758D01*
X126414577Y-111205423D01*
X125939909Y-110888260D01*
X125521333Y-110805000D01*
X125238667Y-110805000D01*
X124820091Y-110888260D01*
X124345423Y-111205423D01*
X124110000Y-111557758D01*
X123874577Y-111205423D01*
X123399909Y-110888260D01*
X122981333Y-110805000D01*
X122698667Y-110805000D01*
X122280091Y-110888260D01*
X121805423Y-111205423D01*
X121570000Y-111557758D01*
X121334577Y-111205423D01*
X120859909Y-110888260D01*
X120441333Y-110805000D01*
X120158667Y-110805000D01*
X119740091Y-110888260D01*
X119265423Y-111205423D01*
X119030000Y-111557758D01*
X118794577Y-111205423D01*
X118319909Y-110888260D01*
X117901333Y-110805000D01*
X117618667Y-110805000D01*
X117200091Y-110888260D01*
X116725423Y-111205423D01*
X116490000Y-111557758D01*
X116254577Y-111205423D01*
X115779909Y-110888260D01*
X115361333Y-110805000D01*
X115078667Y-110805000D01*
X114660091Y-110888260D01*
X114185423Y-111205423D01*
X113950000Y-111557758D01*
X113714577Y-111205423D01*
X113239909Y-110888260D01*
X112821333Y-110805000D01*
X112538667Y-110805000D01*
X112120091Y-110888260D01*
X111645423Y-111205423D01*
X111410000Y-111557758D01*
X111174577Y-111205423D01*
X110699909Y-110888260D01*
X110281333Y-110805000D01*
X109998667Y-110805000D01*
X109580091Y-110888260D01*
X109105423Y-111205423D01*
X108870000Y-111557758D01*
X108634577Y-111205423D01*
X108159909Y-110888260D01*
X107741333Y-110805000D01*
X107458667Y-110805000D01*
X107040091Y-110888260D01*
X106565423Y-111205423D01*
X106330000Y-111557758D01*
X106094577Y-111205423D01*
X105619909Y-110888260D01*
X105201333Y-110805000D01*
X104918667Y-110805000D01*
X104500091Y-110888260D01*
X104025423Y-111205423D01*
X103790000Y-111557758D01*
X103554577Y-111205423D01*
X103079909Y-110888260D01*
X102661333Y-110805000D01*
X102378667Y-110805000D01*
X101960091Y-110888260D01*
X101485423Y-111205423D01*
X101250000Y-111557758D01*
X101014577Y-111205423D01*
X100539909Y-110888260D01*
X100121333Y-110805000D01*
X99838667Y-110805000D01*
X99420091Y-110888260D01*
X98945423Y-111205423D01*
X98710000Y-111557758D01*
X98474577Y-111205423D01*
X97999909Y-110888260D01*
X97581333Y-110805000D01*
X97298667Y-110805000D01*
X96880091Y-110888260D01*
X96405423Y-111205423D01*
X96088260Y-111680091D01*
X95976887Y-112240000D01*
X90710000Y-112240000D01*
X90710000Y-97000000D01*
X95976887Y-97000000D01*
X96088260Y-97559909D01*
X96405423Y-98034577D01*
X96880091Y-98351740D01*
X97298667Y-98435000D01*
X97581333Y-98435000D01*
X97999909Y-98351740D01*
X98474577Y-98034577D01*
X98710000Y-97682242D01*
X98945423Y-98034577D01*
X99420091Y-98351740D01*
X99838667Y-98435000D01*
X100121333Y-98435000D01*
X100539909Y-98351740D01*
X101014577Y-98034577D01*
X101250000Y-97682242D01*
X101485423Y-98034577D01*
X101960091Y-98351740D01*
X102378667Y-98435000D01*
X102661333Y-98435000D01*
X103079909Y-98351740D01*
X103554577Y-98034577D01*
X103790000Y-97682242D01*
X104025423Y-98034577D01*
X104500091Y-98351740D01*
X104918667Y-98435000D01*
X105201333Y-98435000D01*
X105619909Y-98351740D01*
X106094577Y-98034577D01*
X106330000Y-97682242D01*
X106565423Y-98034577D01*
X107040091Y-98351740D01*
X107458667Y-98435000D01*
X107741333Y-98435000D01*
X108159909Y-98351740D01*
X108634577Y-98034577D01*
X108870000Y-97682242D01*
X109105423Y-98034577D01*
X109580091Y-98351740D01*
X109998667Y-98435000D01*
X110281333Y-98435000D01*
X110699909Y-98351740D01*
X111174577Y-98034577D01*
X111410000Y-97682242D01*
X111645423Y-98034577D01*
X112120091Y-98351740D01*
X112538667Y-98435000D01*
X112821333Y-98435000D01*
X113239909Y-98351740D01*
X113714577Y-98034577D01*
X113950000Y-97682242D01*
X114185423Y-98034577D01*
X114660091Y-98351740D01*
X115078667Y-98435000D01*
X115361333Y-98435000D01*
X115779909Y-98351740D01*
X116254577Y-98034577D01*
X116490000Y-97682242D01*
X116725423Y-98034577D01*
X117200091Y-98351740D01*
X117618667Y-98435000D01*
X117901333Y-98435000D01*
X118319909Y-98351740D01*
X118794577Y-98034577D01*
X119030000Y-97682242D01*
X119265423Y-98034577D01*
X119740091Y-98351740D01*
X120158667Y-98435000D01*
X120441333Y-98435000D01*
X120859909Y-98351740D01*
X121334577Y-98034577D01*
X121570000Y-97682242D01*
X121805423Y-98034577D01*
X122280091Y-98351740D01*
X122698667Y-98435000D01*
X122981333Y-98435000D01*
X123399909Y-98351740D01*
X123874577Y-98034577D01*
X124110000Y-97682242D01*
X124345423Y-98034577D01*
X124820091Y-98351740D01*
X125238667Y-98435000D01*
X125521333Y-98435000D01*
X125939909Y-98351740D01*
X126414577Y-98034577D01*
X126650000Y-97682242D01*
X126885423Y-98034577D01*
X127360091Y-98351740D01*
X127778667Y-98435000D01*
X128061333Y-98435000D01*
X128479909Y-98351740D01*
X128954577Y-98034577D01*
X129190000Y-97682242D01*
X129425423Y-98034577D01*
X129900091Y-98351740D01*
X130318667Y-98435000D01*
X130601333Y-98435000D01*
X131019909Y-98351740D01*
X131494577Y-98034577D01*
X131575215Y-97913894D01*
X131601843Y-98047765D01*
X131742191Y-98257809D01*
X131952235Y-98398157D01*
X132200000Y-98447440D01*
X133800000Y-98447440D01*
X134047765Y-98398157D01*
X134257809Y-98257809D01*
X134398157Y-98047765D01*
X134447440Y-97800000D01*
X134447440Y-96200000D01*
X134398157Y-95952235D01*
X134257809Y-95742191D01*
X134047765Y-95601843D01*
X133800000Y-95552560D01*
X132200000Y-95552560D01*
X131952235Y-95601843D01*
X131742191Y-95742191D01*
X131601843Y-95952235D01*
X131575215Y-96086106D01*
X131494577Y-95965423D01*
X131019909Y-95648260D01*
X130601333Y-95565000D01*
X130318667Y-95565000D01*
X129900091Y-95648260D01*
X129425423Y-95965423D01*
X129190000Y-96317758D01*
X128954577Y-95965423D01*
X128479909Y-95648260D01*
X128061333Y-95565000D01*
X127778667Y-95565000D01*
X127360091Y-95648260D01*
X126885423Y-95965423D01*
X126650000Y-96317758D01*
X126414577Y-95965423D01*
X125939909Y-95648260D01*
X125521333Y-95565000D01*
X125238667Y-95565000D01*
X124820091Y-95648260D01*
X124345423Y-95965423D01*
X124110000Y-96317758D01*
X123874577Y-95965423D01*
X123399909Y-95648260D01*
X122981333Y-95565000D01*
X122698667Y-95565000D01*
X122280091Y-95648260D01*
X121805423Y-95965423D01*
X121570000Y-96317758D01*
X121334577Y-95965423D01*
X120859909Y-95648260D01*
X120441333Y-95565000D01*
X120158667Y-95565000D01*
X119740091Y-95648260D01*
X119265423Y-95965423D01*
X119030000Y-96317758D01*
X118794577Y-95965423D01*
X118319909Y-95648260D01*
X117901333Y-95565000D01*
X117618667Y-95565000D01*
X117200091Y-95648260D01*
X116725423Y-95965423D01*
X116490000Y-96317758D01*
X116254577Y-95965423D01*
X115779909Y-95648260D01*
X115361333Y-95565000D01*
X115078667Y-95565000D01*
X114660091Y-95648260D01*
X114185423Y-95965423D01*
X113950000Y-96317758D01*
X113714577Y-95965423D01*
X113239909Y-95648260D01*
X112821333Y-95565000D01*
X112538667Y-95565000D01*
X112120091Y-95648260D01*
X111645423Y-95965423D01*
X111410000Y-96317758D01*
X111174577Y-95965423D01*
X110699909Y-95648260D01*
X110281333Y-95565000D01*
X109998667Y-95565000D01*
X109580091Y-95648260D01*
X109105423Y-95965423D01*
X108870000Y-96317758D01*
X108634577Y-95965423D01*
X108159909Y-95648260D01*
X107741333Y-95565000D01*
X107458667Y-95565000D01*
X107040091Y-95648260D01*
X106565423Y-95965423D01*
X106330000Y-96317758D01*
X106094577Y-95965423D01*
X105619909Y-95648260D01*
X105201333Y-95565000D01*
X104918667Y-95565000D01*
X104500091Y-95648260D01*
X104025423Y-95965423D01*
X103790000Y-96317758D01*
X103554577Y-95965423D01*
X103079909Y-95648260D01*
X102661333Y-95565000D01*
X102378667Y-95565000D01*
X101960091Y-95648260D01*
X101485423Y-95965423D01*
X101250000Y-96317758D01*
X101014577Y-95965423D01*
X100539909Y-95648260D01*
X100121333Y-95565000D01*
X99838667Y-95565000D01*
X99420091Y-95648260D01*
X98945423Y-95965423D01*
X98710000Y-96317758D01*
X98474577Y-95965423D01*
X97999909Y-95648260D01*
X97581333Y-95565000D01*
X97298667Y-95565000D01*
X96880091Y-95648260D01*
X96405423Y-95965423D01*
X96088260Y-96440091D01*
X95976887Y-97000000D01*
X90710000Y-97000000D01*
X90710000Y-92813970D01*
X92615635Y-92813970D01*
X92775418Y-93132739D01*
X93566187Y-93442723D01*
X94415387Y-93426497D01*
X95124582Y-93132739D01*
X95284365Y-92813970D01*
X97415635Y-92813970D01*
X97575418Y-93132739D01*
X98366187Y-93442723D01*
X99215387Y-93426497D01*
X99924582Y-93132739D01*
X100084365Y-92813970D01*
X121715635Y-92813970D01*
X121875418Y-93132739D01*
X122666187Y-93442723D01*
X123515387Y-93426497D01*
X124224582Y-93132739D01*
X124384365Y-92813970D01*
X126515635Y-92813970D01*
X126675418Y-93132739D01*
X127466187Y-93442723D01*
X128315387Y-93426497D01*
X129024582Y-93132739D01*
X129184365Y-92813970D01*
X127850000Y-91479605D01*
X126515635Y-92813970D01*
X124384365Y-92813970D01*
X123050000Y-91479605D01*
X121715635Y-92813970D01*
X100084365Y-92813970D01*
X98750000Y-91479605D01*
X97415635Y-92813970D01*
X95284365Y-92813970D01*
X93950000Y-91479605D01*
X92615635Y-92813970D01*
X90710000Y-92813970D01*
X90710000Y-90916187D01*
X91807277Y-90916187D01*
X91823503Y-91765387D01*
X92117261Y-92474582D01*
X92436030Y-92634365D01*
X93770395Y-91300000D01*
X94129605Y-91300000D01*
X95463970Y-92634365D01*
X95782739Y-92474582D01*
X96092723Y-91683813D01*
X96078056Y-90916187D01*
X96607277Y-90916187D01*
X96623503Y-91765387D01*
X96917261Y-92474582D01*
X97236030Y-92634365D01*
X98570395Y-91300000D01*
X98929605Y-91300000D01*
X100263970Y-92634365D01*
X100582739Y-92474582D01*
X100892723Y-91683813D01*
X100878056Y-90916187D01*
X120907277Y-90916187D01*
X120923503Y-91765387D01*
X121217261Y-92474582D01*
X121536030Y-92634365D01*
X122870395Y-91300000D01*
X123229605Y-91300000D01*
X124563970Y-92634365D01*
X124882739Y-92474582D01*
X125192723Y-91683813D01*
X125178056Y-90916187D01*
X125707277Y-90916187D01*
X125723503Y-91765387D01*
X126017261Y-92474582D01*
X126336030Y-92634365D01*
X127670395Y-91300000D01*
X128029605Y-91300000D01*
X129363970Y-92634365D01*
X129682739Y-92474582D01*
X129992723Y-91683813D01*
X129976497Y-90834613D01*
X129910292Y-90674778D01*
X133865000Y-90674778D01*
X133865000Y-91325222D01*
X134113914Y-91926153D01*
X134573847Y-92386086D01*
X135174778Y-92635000D01*
X135825222Y-92635000D01*
X136426153Y-92386086D01*
X136886086Y-91926153D01*
X137135000Y-91325222D01*
X137135000Y-90674778D01*
X136886086Y-90073847D01*
X136426153Y-89613914D01*
X135825222Y-89365000D01*
X135174778Y-89365000D01*
X134573847Y-89613914D01*
X134113914Y-90073847D01*
X133865000Y-90674778D01*
X129910292Y-90674778D01*
X129682739Y-90125418D01*
X129363970Y-89965635D01*
X128029605Y-91300000D01*
X127670395Y-91300000D01*
X126336030Y-89965635D01*
X126017261Y-90125418D01*
X125707277Y-90916187D01*
X125178056Y-90916187D01*
X125176497Y-90834613D01*
X124882739Y-90125418D01*
X124563970Y-89965635D01*
X123229605Y-91300000D01*
X122870395Y-91300000D01*
X121536030Y-89965635D01*
X121217261Y-90125418D01*
X120907277Y-90916187D01*
X100878056Y-90916187D01*
X100876497Y-90834613D01*
X100582739Y-90125418D01*
X100263970Y-89965635D01*
X98929605Y-91300000D01*
X98570395Y-91300000D01*
X97236030Y-89965635D01*
X96917261Y-90125418D01*
X96607277Y-90916187D01*
X96078056Y-90916187D01*
X96076497Y-90834613D01*
X95782739Y-90125418D01*
X95463970Y-89965635D01*
X94129605Y-91300000D01*
X93770395Y-91300000D01*
X92436030Y-89965635D01*
X92117261Y-90125418D01*
X91807277Y-90916187D01*
X90710000Y-90916187D01*
X90710000Y-89786030D01*
X92615635Y-89786030D01*
X93950000Y-91120395D01*
X95284365Y-89786030D01*
X97415635Y-89786030D01*
X98750000Y-91120395D01*
X100084365Y-89786030D01*
X121715635Y-89786030D01*
X123050000Y-91120395D01*
X124384365Y-89786030D01*
X126515635Y-89786030D01*
X127850000Y-91120395D01*
X129184365Y-89786030D01*
X129024582Y-89467261D01*
X128233813Y-89157277D01*
X127384613Y-89173503D01*
X126675418Y-89467261D01*
X126515635Y-89786030D01*
X124384365Y-89786030D01*
X124224582Y-89467261D01*
X123433813Y-89157277D01*
X122584613Y-89173503D01*
X121875418Y-89467261D01*
X121715635Y-89786030D01*
X100084365Y-89786030D01*
X99924582Y-89467261D01*
X99133813Y-89157277D01*
X98284613Y-89173503D01*
X97575418Y-89467261D01*
X97415635Y-89786030D01*
X95284365Y-89786030D01*
X95124582Y-89467261D01*
X94333813Y-89157277D01*
X93484613Y-89173503D01*
X92775418Y-89467261D01*
X92615635Y-89786030D01*
X90710000Y-89786030D01*
X90710000Y-86175322D01*
X91815000Y-86175322D01*
X91815000Y-87024678D01*
X92140034Y-87809380D01*
X92740620Y-88409966D01*
X93525322Y-88735000D01*
X94374678Y-88735000D01*
X95159380Y-88409966D01*
X95759966Y-87809380D01*
X96085000Y-87024678D01*
X96085000Y-86175322D01*
X96615000Y-86175322D01*
X96615000Y-87024678D01*
X96940034Y-87809380D01*
X97540620Y-88409966D01*
X98325322Y-88735000D01*
X99174678Y-88735000D01*
X99959380Y-88409966D01*
X100559966Y-87809380D01*
X100885000Y-87024678D01*
X100885000Y-86175322D01*
X120915000Y-86175322D01*
X120915000Y-87024678D01*
X121240034Y-87809380D01*
X121840620Y-88409966D01*
X122625322Y-88735000D01*
X123474678Y-88735000D01*
X124259380Y-88409966D01*
X124859966Y-87809380D01*
X125185000Y-87024678D01*
X125185000Y-86175322D01*
X125715000Y-86175322D01*
X125715000Y-87024678D01*
X126040034Y-87809380D01*
X126640620Y-88409966D01*
X127425322Y-88735000D01*
X128274678Y-88735000D01*
X129059380Y-88409966D01*
X129659966Y-87809380D01*
X129985000Y-87024678D01*
X129985000Y-86175322D01*
X129659966Y-85390620D01*
X129059380Y-84790034D01*
X128274678Y-84465000D01*
X127425322Y-84465000D01*
X126640620Y-84790034D01*
X126040034Y-85390620D01*
X125715000Y-86175322D01*
X125185000Y-86175322D01*
X124859966Y-85390620D01*
X124259380Y-84790034D01*
X123474678Y-84465000D01*
X122625322Y-84465000D01*
X121840620Y-84790034D01*
X121240034Y-85390620D01*
X120915000Y-86175322D01*
X100885000Y-86175322D01*
X100559966Y-85390620D01*
X99959380Y-84790034D01*
X99174678Y-84465000D01*
X98325322Y-84465000D01*
X97540620Y-84790034D01*
X96940034Y-85390620D01*
X96615000Y-86175322D01*
X96085000Y-86175322D01*
X95759966Y-85390620D01*
X95159380Y-84790034D01*
X94374678Y-84465000D01*
X93525322Y-84465000D01*
X92740620Y-84790034D01*
X92140034Y-85390620D01*
X91815000Y-86175322D01*
X90710000Y-86175322D01*
X90710000Y-80710000D01*
X92132007Y-80710000D01*
X91815000Y-81475322D01*
X91815000Y-81475322D01*
G37*
X91815000Y-81475322D02*
X91815000Y-82324678D01*
X92140034Y-83109380D01*
X92740620Y-83709966D01*
X93525322Y-84035000D01*
X94374678Y-84035000D01*
X95159380Y-83709966D01*
X95759966Y-83109380D01*
X96085000Y-82324678D01*
X96085000Y-81475322D01*
X95767993Y-80710000D01*
X96932007Y-80710000D01*
X96615000Y-81475322D01*
X96615000Y-82324678D01*
X96940034Y-83109380D01*
X97540620Y-83709966D01*
X98325322Y-84035000D01*
X99174678Y-84035000D01*
X99959380Y-83709966D01*
X100559966Y-83109380D01*
X100885000Y-82324678D01*
X100885000Y-81475322D01*
X100567993Y-80710000D01*
X121232007Y-80710000D01*
X120915000Y-81475322D01*
X120915000Y-82324678D01*
X121240034Y-83109380D01*
X121840620Y-83709966D01*
X122625322Y-84035000D01*
X123474678Y-84035000D01*
X124259380Y-83709966D01*
X124859966Y-83109380D01*
X125185000Y-82324678D01*
X125185000Y-81475322D01*
X124867993Y-80710000D01*
X126032007Y-80710000D01*
X125715000Y-81475322D01*
X125715000Y-82324678D01*
X126040034Y-83109380D01*
X126640620Y-83709966D01*
X127425322Y-84035000D01*
X128274678Y-84035000D01*
X129059380Y-83709966D01*
X129659966Y-83109380D01*
X129985000Y-82324678D01*
X129985000Y-81475322D01*
X129667993Y-80710000D01*
X150332007Y-80710000D01*
X150015000Y-81475322D01*
X150015000Y-82324678D01*
X150340034Y-83109380D01*
X150940620Y-83709966D01*
X151725322Y-84035000D01*
X152574678Y-84035000D01*
X153359380Y-83709966D01*
X153959966Y-83109380D01*
X154285000Y-82324678D01*
X154285000Y-81475322D01*
X153967993Y-80710000D01*
X155132007Y-80710000D01*
X154815000Y-81475322D01*
X154815000Y-82324678D01*
X155140034Y-83109380D01*
X155740620Y-83709966D01*
X156525322Y-84035000D01*
X157374678Y-84035000D01*
X158159380Y-83709966D01*
X158759966Y-83109380D01*
X159085000Y-82324678D01*
X159085000Y-81475322D01*
X158767993Y-80710000D01*
X179432007Y-80710000D01*
X179115000Y-81475322D01*
X179115000Y-82324678D01*
X179440034Y-83109380D01*
X180040620Y-83709966D01*
X180825322Y-84035000D01*
X181674678Y-84035000D01*
X182459380Y-83709966D01*
X183059966Y-83109380D01*
X183385000Y-82324678D01*
X183385000Y-81475322D01*
X183067993Y-80710000D01*
X184232007Y-80710000D01*
X183915000Y-81475322D01*
X183915000Y-82324678D01*
X184240034Y-83109380D01*
X184840620Y-83709966D01*
X185625322Y-84035000D01*
X186474678Y-84035000D01*
X187259380Y-83709966D01*
X187859966Y-83109380D01*
X188185000Y-82324678D01*
X188185000Y-81475322D01*
X187867993Y-80710000D01*
X189290001Y-80710000D01*
X189290000Y-132016321D01*
X188924678Y-131865000D01*
X188075322Y-131865000D01*
X187290620Y-132190034D01*
X186690034Y-132790620D01*
X186365000Y-133575322D01*
X186365000Y-134424678D01*
X186690034Y-135209380D01*
X187290620Y-135809966D01*
X188075322Y-136135000D01*
X188924678Y-136135000D01*
X189290000Y-135983679D01*
X189290000Y-141290000D01*
X90710000Y-141290000D01*
X90710000Y-135983679D01*
X91075322Y-136135000D01*
X91924678Y-136135000D01*
X92709380Y-135809966D01*
X93309966Y-135209380D01*
X93635000Y-134424678D01*
X93635000Y-133575322D01*
X99365000Y-133575322D01*
X99365000Y-134424678D01*
X99690034Y-135209380D01*
X100290620Y-135809966D01*
X101075322Y-136135000D01*
X101924678Y-136135000D01*
X102709380Y-135809966D01*
X103309966Y-135209380D01*
X103635000Y-134424678D01*
X103635000Y-133575322D01*
X118365000Y-133575322D01*
X118365000Y-134424678D01*
X118690034Y-135209380D01*
X119290620Y-135809966D01*
X120075322Y-136135000D01*
X120924678Y-136135000D01*
X121709380Y-135809966D01*
X122309966Y-135209380D01*
X122635000Y-134424678D01*
X122635000Y-133575322D01*
X128365000Y-133575322D01*
X128365000Y-134424678D01*
X128690034Y-135209380D01*
X129290620Y-135809966D01*
X130075322Y-136135000D01*
X130924678Y-136135000D01*
X131709380Y-135809966D01*
X132309966Y-135209380D01*
X132635000Y-134424678D01*
X132635000Y-133575322D01*
X147365000Y-133575322D01*
X147365000Y-134424678D01*
X147690034Y-135209380D01*
X148290620Y-135809966D01*
X149075322Y-136135000D01*
X149924678Y-136135000D01*
X150709380Y-135809966D01*
X151309966Y-135209380D01*
X151635000Y-134424678D01*
X151635000Y-133575322D01*
X157365000Y-133575322D01*
X157365000Y-134424678D01*
X157690034Y-135209380D01*
X158290620Y-135809966D01*
X159075322Y-136135000D01*
X159924678Y-136135000D01*
X160709380Y-135809966D01*
X161309966Y-135209380D01*
X161635000Y-134424678D01*
X161635000Y-133575322D01*
X176365000Y-133575322D01*
X176365000Y-134424678D01*
X176690034Y-135209380D01*
X177290620Y-135809966D01*
X178075322Y-136135000D01*
X178924678Y-136135000D01*
X179709380Y-135809966D01*
X180309966Y-135209380D01*
X180635000Y-134424678D01*
X180635000Y-133575322D01*
X180309966Y-132790620D01*
X179709380Y-132190034D01*
X178924678Y-131865000D01*
X178075322Y-131865000D01*
X177290620Y-132190034D01*
X176690034Y-132790620D01*
X176365000Y-133575322D01*
X161635000Y-133575322D01*
X161309966Y-132790620D01*
X160709380Y-132190034D01*
X159924678Y-131865000D01*
X159075322Y-131865000D01*
X158290620Y-132190034D01*
X157690034Y-132790620D01*
X157365000Y-133575322D01*
X151635000Y-133575322D01*
X151309966Y-132790620D01*
X150709380Y-132190034D01*
X149924678Y-131865000D01*
X149075322Y-131865000D01*
X148290620Y-132190034D01*
X147690034Y-132790620D01*
X147365000Y-133575322D01*
X132635000Y-133575322D01*
X132309966Y-132790620D01*
X131709380Y-132190034D01*
X130924678Y-131865000D01*
X130075322Y-131865000D01*
X129290620Y-132190034D01*
X128690034Y-132790620D01*
X128365000Y-133575322D01*
X122635000Y-133575322D01*
X122417794Y-133050941D01*
X129436664Y-126032072D01*
X129493857Y-125993857D01*
X129645255Y-125767273D01*
X129685000Y-125567462D01*
X129685000Y-125567461D01*
X129698419Y-125500001D01*
X129685000Y-125432540D01*
X129685000Y-122347440D01*
X129800000Y-122347440D01*
X130047765Y-122298157D01*
X130257809Y-122157809D01*
X130398157Y-121947765D01*
X130406117Y-121907745D01*
X130671861Y-121907745D01*
X130745995Y-122153864D01*
X131283223Y-122346965D01*
X131853454Y-122319778D01*
X132254005Y-122153864D01*
X132328139Y-121907745D01*
X131500000Y-121079605D01*
X130671861Y-121907745D01*
X130406117Y-121907745D01*
X130444693Y-121713813D01*
X130492255Y-121728139D01*
X131320395Y-120900000D01*
X131679605Y-120900000D01*
X132507745Y-121728139D01*
X132753864Y-121654005D01*
X132946965Y-121116777D01*
X132919778Y-120546546D01*
X132753864Y-120145995D01*
X132507745Y-120071861D01*
X131679605Y-120900000D01*
X131320395Y-120900000D01*
X130492255Y-120071861D01*
X130444693Y-120086187D01*
X130406118Y-119892255D01*
X130671861Y-119892255D01*
X131500000Y-120720395D01*
X132328139Y-119892255D01*
X132254005Y-119646136D01*
X131716777Y-119453035D01*
X131146546Y-119480222D01*
X130745995Y-119646136D01*
X130671861Y-119892255D01*
X130406118Y-119892255D01*
X130398157Y-119852235D01*
X130257809Y-119642191D01*
X130047765Y-119501843D01*
X129800000Y-119452560D01*
X129685000Y-119452560D01*
X129685000Y-116523735D01*
X132587645Y-113621090D01*
X132858667Y-113675000D01*
X133141333Y-113675000D01*
X133559909Y-113591740D01*
X134034577Y-113274577D01*
X134351740Y-112799909D01*
X134463113Y-112240000D01*
X134381090Y-111827645D01*
X141451669Y-104757068D01*
X141508856Y-104718857D01*
X141547068Y-104661669D01*
X141547071Y-104661666D01*
X141660254Y-104492274D01*
X141660255Y-104492273D01*
X141700000Y-104292462D01*
X141700000Y-104292461D01*
X141713419Y-104225000D01*
X141700000Y-104157540D01*
X141700000Y-99553149D01*
X141954001Y-99447938D01*
X141954002Y-121552063D01*
X141444452Y-121341000D01*
X140585548Y-121341000D01*
X139792025Y-121669688D01*
X139184688Y-122277025D01*
X138856000Y-123070548D01*
X138856000Y-123929452D01*
X139184688Y-124722975D01*
X139792025Y-125330312D01*
X140585548Y-125659000D01*
X141444452Y-125659000D01*
X142237975Y-125330312D01*
X142536980Y-125031307D01*
X153633298Y-125031307D01*
X153796011Y-125352568D01*
X154595464Y-125666556D01*
X155454221Y-125650706D01*
X156173989Y-125352568D01*
X156336702Y-125031307D01*
X154985000Y-123679605D01*
X153633298Y-125031307D01*
X142536980Y-125031307D01*
X142845312Y-124722975D01*
X143174000Y-123929452D01*
X143174000Y-123110464D01*
X152818444Y-123110464D01*
X152834294Y-123969221D01*
X153132432Y-124688989D01*
X153453693Y-124851702D01*
X154805395Y-123500000D01*
X155164605Y-123500000D01*
X156516307Y-124851702D01*
X156837568Y-124688989D01*
X157151556Y-123889536D01*
X157140220Y-123275322D01*
X174865000Y-123275322D01*
X174865000Y-124124678D01*
X175190034Y-124909380D01*
X175790620Y-125509966D01*
X176575322Y-125835000D01*
X177424678Y-125835000D01*
X178209380Y-125509966D01*
X178809966Y-124909380D01*
X179135000Y-124124678D01*
X179135000Y-123275322D01*
X178809966Y-122490620D01*
X178209380Y-121890034D01*
X177424678Y-121565000D01*
X176575322Y-121565000D01*
X175790620Y-121890034D01*
X175190034Y-122490620D01*
X174865000Y-123275322D01*
X157140220Y-123275322D01*
X157135706Y-123030779D01*
X156837568Y-122311011D01*
X156516307Y-122148298D01*
X155164605Y-123500000D01*
X154805395Y-123500000D01*
X153453693Y-122148298D01*
X153132432Y-122311011D01*
X152818444Y-123110464D01*
X143174000Y-123110464D01*
X143174000Y-123070548D01*
X142951163Y-122532573D01*
X143071069Y-122412667D01*
X143071071Y-122412664D01*
X143075662Y-122408073D01*
X143132858Y-122369856D01*
X143284256Y-122143272D01*
X143318982Y-121968693D01*
X153633298Y-121968693D01*
X154985000Y-123320395D01*
X156336702Y-121968693D01*
X156173989Y-121647432D01*
X155374536Y-121333444D01*
X154515779Y-121349294D01*
X153796011Y-121647432D01*
X153633298Y-121968693D01*
X143318982Y-121968693D01*
X143324001Y-121943461D01*
X143324001Y-121943460D01*
X143337420Y-121876000D01*
X143324001Y-121808539D01*
X143324001Y-112722119D01*
X148603000Y-112722119D01*
X148603000Y-113277881D01*
X148815680Y-113791337D01*
X149208663Y-114184320D01*
X149722119Y-114397000D01*
X150277881Y-114397000D01*
X150791337Y-114184320D01*
X151184320Y-113791337D01*
X151397000Y-113277881D01*
X151397000Y-112722119D01*
X151184320Y-112208663D01*
X150791337Y-111815680D01*
X150600353Y-111736572D01*
X150731143Y-111682397D01*
X150800608Y-111440213D01*
X150646145Y-111285750D01*
X172365000Y-111285750D01*
X172365000Y-115126309D01*
X172461673Y-115359698D01*
X172640301Y-115538327D01*
X172873690Y-115635000D01*
X176714250Y-115635000D01*
X176873000Y-115476250D01*
X176873000Y-111127000D01*
X177127000Y-111127000D01*
X177127000Y-115476250D01*
X177285750Y-115635000D01*
X181126310Y-115635000D01*
X181359699Y-115538327D01*
X181538327Y-115359698D01*
X181635000Y-115126309D01*
X181635000Y-111285750D01*
X181476250Y-111127000D01*
X177127000Y-111127000D01*
X176873000Y-111127000D01*
X172523750Y-111127000D01*
X172365000Y-111285750D01*
X150646145Y-111285750D01*
X150000000Y-110639605D01*
X149199392Y-111440213D01*
X149268857Y-111682397D01*
X149409393Y-111732535D01*
X149208663Y-111815680D01*
X148815680Y-112208663D01*
X148603000Y-112722119D01*
X143324001Y-112722119D01*
X143324001Y-110252302D01*
X148590856Y-110252302D01*
X148618638Y-110807368D01*
X148777603Y-111191143D01*
X149019787Y-111260608D01*
X149820395Y-110460000D01*
X150179605Y-110460000D01*
X150980213Y-111260608D01*
X151222397Y-111191143D01*
X151409144Y-110667698D01*
X151381362Y-110112632D01*
X151222397Y-109728857D01*
X150980213Y-109659392D01*
X150179605Y-110460000D01*
X149820395Y-110460000D01*
X149019787Y-109659392D01*
X148777603Y-109728857D01*
X148590856Y-110252302D01*
X143324001Y-110252302D01*
X143324001Y-107642119D01*
X148603000Y-107642119D01*
X148603000Y-108197881D01*
X148815680Y-108711337D01*
X149208663Y-109104320D01*
X149399647Y-109183428D01*
X149268857Y-109237603D01*
X149199392Y-109479787D01*
X150000000Y-110280395D01*
X150800608Y-109479787D01*
X150731143Y-109237603D01*
X150590607Y-109187465D01*
X150791337Y-109104320D01*
X151184320Y-108711337D01*
X151397000Y-108197881D01*
X151397000Y-107642119D01*
X151184320Y-107128663D01*
X150929348Y-106873691D01*
X172365000Y-106873691D01*
X172365000Y-110714250D01*
X172523750Y-110873000D01*
X176873000Y-110873000D01*
X176873000Y-106523750D01*
X177127000Y-106523750D01*
X177127000Y-110873000D01*
X181476250Y-110873000D01*
X181635000Y-110714250D01*
X181635000Y-106873691D01*
X181538327Y-106640302D01*
X181359699Y-106461673D01*
X181126310Y-106365000D01*
X177285750Y-106365000D01*
X177127000Y-106523750D01*
X176873000Y-106523750D01*
X176714250Y-106365000D01*
X172873690Y-106365000D01*
X172640301Y-106461673D01*
X172461673Y-106640302D01*
X172365000Y-106873691D01*
X150929348Y-106873691D01*
X150791337Y-106735680D01*
X150277881Y-106523000D01*
X149722119Y-106523000D01*
X149208663Y-106735680D01*
X148815680Y-107128663D01*
X148603000Y-107642119D01*
X143324001Y-107642119D01*
X143324001Y-99031307D01*
X153633298Y-99031307D01*
X153796011Y-99352568D01*
X154595464Y-99666556D01*
X155454221Y-99650706D01*
X156173989Y-99352568D01*
X156336702Y-99031307D01*
X154985000Y-97679605D01*
X153633298Y-99031307D01*
X143324001Y-99031307D01*
X143324001Y-92136240D01*
X143573847Y-92386086D01*
X144174778Y-92635000D01*
X144825222Y-92635000D01*
X145426153Y-92386086D01*
X145878858Y-91933381D01*
X150258142Y-96312666D01*
X150296355Y-96369856D01*
X150353545Y-96408069D01*
X150353546Y-96408070D01*
X150439775Y-96465686D01*
X150522939Y-96521254D01*
X150722750Y-96560999D01*
X150722751Y-96560999D01*
X150790212Y-96574418D01*
X150857672Y-96560999D01*
X153034248Y-96560999D01*
X152818444Y-97110464D01*
X152834294Y-97969221D01*
X153132432Y-98688989D01*
X153453693Y-98851702D01*
X154805395Y-97500000D01*
X154791253Y-97485858D01*
X154970858Y-97306253D01*
X154985000Y-97320395D01*
X154999143Y-97306253D01*
X155178748Y-97485858D01*
X155164605Y-97500000D01*
X156516307Y-98851702D01*
X156837568Y-98688989D01*
X157151556Y-97889536D01*
X157135706Y-97030779D01*
X156941117Y-96560999D01*
X174292264Y-96560999D01*
X175063335Y-97332071D01*
X175063338Y-97332073D01*
X175082206Y-97350941D01*
X174865000Y-97875322D01*
X174865000Y-98724678D01*
X175190034Y-99509380D01*
X175790620Y-100109966D01*
X176575322Y-100435000D01*
X177424678Y-100435000D01*
X178209380Y-100109966D01*
X178809966Y-99509380D01*
X179135000Y-98724678D01*
X179135000Y-97875322D01*
X178809966Y-97090620D01*
X178209380Y-96490034D01*
X177424678Y-96165000D01*
X176575322Y-96165000D01*
X176050941Y-96382206D01*
X176032073Y-96363338D01*
X176032071Y-96363335D01*
X175108073Y-95439338D01*
X175069856Y-95382142D01*
X174843272Y-95230744D01*
X174643461Y-95190999D01*
X174643459Y-95190999D01*
X174575999Y-95177580D01*
X174508539Y-95190999D01*
X151073949Y-95190999D01*
X148696920Y-92813970D01*
X150815635Y-92813970D01*
X150975418Y-93132739D01*
X151766187Y-93442723D01*
X152615387Y-93426497D01*
X153324582Y-93132739D01*
X153484365Y-92813970D01*
X155615635Y-92813970D01*
X155775418Y-93132739D01*
X156566187Y-93442723D01*
X157415387Y-93426497D01*
X158124582Y-93132739D01*
X158284365Y-92813970D01*
X156950000Y-91479605D01*
X155615635Y-92813970D01*
X153484365Y-92813970D01*
X152150000Y-91479605D01*
X150815635Y-92813970D01*
X148696920Y-92813970D01*
X146799136Y-90916187D01*
X150007277Y-90916187D01*
X150023503Y-91765387D01*
X150317261Y-92474582D01*
X150636030Y-92634365D01*
X151970395Y-91300000D01*
X152329605Y-91300000D01*
X153663970Y-92634365D01*
X153982739Y-92474582D01*
X154292723Y-91683813D01*
X154278056Y-90916187D01*
X154807277Y-90916187D01*
X154823503Y-91765387D01*
X155117261Y-92474582D01*
X155436030Y-92634365D01*
X156770395Y-91300000D01*
X157129605Y-91300000D01*
X158463970Y-92634365D01*
X158782739Y-92474582D01*
X159092723Y-91683813D01*
X159092551Y-91674778D01*
X162865000Y-91674778D01*
X162865000Y-92325222D01*
X163113914Y-92926153D01*
X163573847Y-93386086D01*
X164174778Y-93635000D01*
X164825222Y-93635000D01*
X165426153Y-93386086D01*
X165886086Y-92926153D01*
X166135000Y-92325222D01*
X166135000Y-91674778D01*
X171865000Y-91674778D01*
X171865000Y-92325222D01*
X172113914Y-92926153D01*
X172573847Y-93386086D01*
X173174778Y-93635000D01*
X173825222Y-93635000D01*
X174426153Y-93386086D01*
X174886086Y-92926153D01*
X174932553Y-92813970D01*
X179915635Y-92813970D01*
X180075418Y-93132739D01*
X180866187Y-93442723D01*
X181715387Y-93426497D01*
X182424582Y-93132739D01*
X182584365Y-92813970D01*
X184715635Y-92813970D01*
X184875418Y-93132739D01*
X185666187Y-93442723D01*
X186515387Y-93426497D01*
X187224582Y-93132739D01*
X187384365Y-92813970D01*
X186050000Y-91479605D01*
X184715635Y-92813970D01*
X182584365Y-92813970D01*
X181250000Y-91479605D01*
X179915635Y-92813970D01*
X174932553Y-92813970D01*
X175135000Y-92325222D01*
X175135000Y-91674778D01*
X174886086Y-91073847D01*
X174728426Y-90916187D01*
X179107277Y-90916187D01*
X179123503Y-91765387D01*
X179417261Y-92474582D01*
X179736030Y-92634365D01*
X181070395Y-91300000D01*
X181429605Y-91300000D01*
X182763970Y-92634365D01*
X183082739Y-92474582D01*
X183392723Y-91683813D01*
X183378056Y-90916187D01*
X183907277Y-90916187D01*
X183923503Y-91765387D01*
X184217261Y-92474582D01*
X184536030Y-92634365D01*
X185870395Y-91300000D01*
X186229605Y-91300000D01*
X187563970Y-92634365D01*
X187882739Y-92474582D01*
X188192723Y-91683813D01*
X188176497Y-90834613D01*
X187882739Y-90125418D01*
X187563970Y-89965635D01*
X186229605Y-91300000D01*
X185870395Y-91300000D01*
X184536030Y-89965635D01*
X184217261Y-90125418D01*
X183907277Y-90916187D01*
X183378056Y-90916187D01*
X183376497Y-90834613D01*
X183082739Y-90125418D01*
X182763970Y-89965635D01*
X181429605Y-91300000D01*
X181070395Y-91300000D01*
X179736030Y-89965635D01*
X179417261Y-90125418D01*
X179107277Y-90916187D01*
X174728426Y-90916187D01*
X174426153Y-90613914D01*
X173825222Y-90365000D01*
X173174778Y-90365000D01*
X172573847Y-90613914D01*
X172113914Y-91073847D01*
X171865000Y-91674778D01*
X166135000Y-91674778D01*
X165886086Y-91073847D01*
X165426153Y-90613914D01*
X164825222Y-90365000D01*
X164174778Y-90365000D01*
X163573847Y-90613914D01*
X163113914Y-91073847D01*
X162865000Y-91674778D01*
X159092551Y-91674778D01*
X159076497Y-90834613D01*
X158782739Y-90125418D01*
X158463970Y-89965635D01*
X157129605Y-91300000D01*
X156770395Y-91300000D01*
X155436030Y-89965635D01*
X155117261Y-90125418D01*
X154807277Y-90916187D01*
X154278056Y-90916187D01*
X154276497Y-90834613D01*
X153982739Y-90125418D01*
X153663970Y-89965635D01*
X152329605Y-91300000D01*
X151970395Y-91300000D01*
X150636030Y-89965635D01*
X150317261Y-90125418D01*
X150007277Y-90916187D01*
X146799136Y-90916187D01*
X146446287Y-90563339D01*
X146408070Y-90506143D01*
X146181486Y-90354745D01*
X145986361Y-90315932D01*
X145886086Y-90073847D01*
X145598269Y-89786030D01*
X150815635Y-89786030D01*
X152150000Y-91120395D01*
X153484365Y-89786030D01*
X155615635Y-89786030D01*
X156950000Y-91120395D01*
X158284365Y-89786030D01*
X179915635Y-89786030D01*
X181250000Y-91120395D01*
X182584365Y-89786030D01*
X184715635Y-89786030D01*
X186050000Y-91120395D01*
X187384365Y-89786030D01*
X187224582Y-89467261D01*
X186433813Y-89157277D01*
X185584613Y-89173503D01*
X184875418Y-89467261D01*
X184715635Y-89786030D01*
X182584365Y-89786030D01*
X182424582Y-89467261D01*
X181633813Y-89157277D01*
X180784613Y-89173503D01*
X180075418Y-89467261D01*
X179915635Y-89786030D01*
X158284365Y-89786030D01*
X158124582Y-89467261D01*
X157333813Y-89157277D01*
X156484613Y-89173503D01*
X155775418Y-89467261D01*
X155615635Y-89786030D01*
X153484365Y-89786030D01*
X153324582Y-89467261D01*
X152533813Y-89157277D01*
X151684613Y-89173503D01*
X150975418Y-89467261D01*
X150815635Y-89786030D01*
X145598269Y-89786030D01*
X145426153Y-89613914D01*
X144825222Y-89365000D01*
X144174778Y-89365000D01*
X143573847Y-89613914D01*
X143324001Y-89863760D01*
X143324001Y-87436461D01*
X143337420Y-87369001D01*
X143309025Y-87226250D01*
X143284256Y-87101728D01*
X143214790Y-86997765D01*
X143171072Y-86932335D01*
X143171069Y-86932332D01*
X143132857Y-86875144D01*
X143075670Y-86836933D01*
X142442440Y-86203704D01*
X142442440Y-86175322D01*
X150015000Y-86175322D01*
X150015000Y-87024678D01*
X150340034Y-87809380D01*
X150940620Y-88409966D01*
X151725322Y-88735000D01*
X152574678Y-88735000D01*
X153359380Y-88409966D01*
X153959966Y-87809380D01*
X154285000Y-87024678D01*
X154285000Y-86175322D01*
X154815000Y-86175322D01*
X154815000Y-87024678D01*
X155140034Y-87809380D01*
X155740620Y-88409966D01*
X156525322Y-88735000D01*
X157374678Y-88735000D01*
X158159380Y-88409966D01*
X158759966Y-87809380D01*
X159085000Y-87024678D01*
X159085000Y-86175322D01*
X158759966Y-85390620D01*
X158619346Y-85250000D01*
X166557560Y-85250000D01*
X166557560Y-86750000D01*
X166606843Y-86997765D01*
X166747191Y-87207809D01*
X166957235Y-87348157D01*
X167205000Y-87397440D01*
X168255000Y-87397440D01*
X168496251Y-87349453D01*
X168737500Y-87397440D01*
X169262500Y-87397440D01*
X169523424Y-87345539D01*
X169618691Y-87385000D01*
X169984250Y-87385000D01*
X170143000Y-87226250D01*
X170143000Y-86635505D01*
X170172440Y-86487500D01*
X170172440Y-86127000D01*
X170397000Y-86127000D01*
X170397000Y-87226250D01*
X170555750Y-87385000D01*
X170921309Y-87385000D01*
X171154698Y-87288327D01*
X171333327Y-87109699D01*
X171430000Y-86876310D01*
X171430000Y-86285750D01*
X171319572Y-86175322D01*
X179115000Y-86175322D01*
X179115000Y-87024678D01*
X179440034Y-87809380D01*
X180040620Y-88409966D01*
X180825322Y-88735000D01*
X181674678Y-88735000D01*
X182459380Y-88409966D01*
X183059966Y-87809380D01*
X183385000Y-87024678D01*
X183385000Y-86175322D01*
X183915000Y-86175322D01*
X183915000Y-87024678D01*
X184240034Y-87809380D01*
X184840620Y-88409966D01*
X185625322Y-88735000D01*
X186474678Y-88735000D01*
X187259380Y-88409966D01*
X187859966Y-87809380D01*
X188185000Y-87024678D01*
X188185000Y-86175322D01*
X187859966Y-85390620D01*
X187259380Y-84790034D01*
X186474678Y-84465000D01*
X185625322Y-84465000D01*
X184840620Y-84790034D01*
X184240034Y-85390620D01*
X183915000Y-86175322D01*
X183385000Y-86175322D01*
X183059966Y-85390620D01*
X182459380Y-84790034D01*
X181674678Y-84465000D01*
X180825322Y-84465000D01*
X180040620Y-84790034D01*
X179440034Y-85390620D01*
X179115000Y-86175322D01*
X171319572Y-86175322D01*
X171271250Y-86127000D01*
X170397000Y-86127000D01*
X170172440Y-86127000D01*
X170172440Y-85512500D01*
X170143000Y-85364495D01*
X170143000Y-84773750D01*
X170397000Y-84773750D01*
X170397000Y-85873000D01*
X171271250Y-85873000D01*
X171430000Y-85714250D01*
X171430000Y-85123690D01*
X171333327Y-84890301D01*
X171154698Y-84711673D01*
X170921309Y-84615000D01*
X170555750Y-84615000D01*
X170397000Y-84773750D01*
X170143000Y-84773750D01*
X169984250Y-84615000D01*
X169618691Y-84615000D01*
X169523424Y-84654461D01*
X169262500Y-84602560D01*
X168737500Y-84602560D01*
X168496251Y-84650547D01*
X168255000Y-84602560D01*
X167205000Y-84602560D01*
X166957235Y-84651843D01*
X166747191Y-84792191D01*
X166606843Y-85002235D01*
X166557560Y-85250000D01*
X158619346Y-85250000D01*
X158159380Y-84790034D01*
X157374678Y-84465000D01*
X156525322Y-84465000D01*
X155740620Y-84790034D01*
X155140034Y-85390620D01*
X154815000Y-86175322D01*
X154285000Y-86175322D01*
X153959966Y-85390620D01*
X153359380Y-84790034D01*
X152574678Y-84465000D01*
X151725322Y-84465000D01*
X150940620Y-84790034D01*
X150340034Y-85390620D01*
X150015000Y-86175322D01*
X142442440Y-86175322D01*
X142442440Y-85512500D01*
X142373175Y-85164281D01*
X142175925Y-84869075D01*
X141880719Y-84671825D01*
X141532500Y-84602560D01*
X141007500Y-84602560D01*
X140659281Y-84671825D01*
X140635000Y-84688049D01*
X140610719Y-84671825D01*
X140262500Y-84602560D01*
X139737500Y-84602560D01*
X139496251Y-84650547D01*
X139255000Y-84602560D01*
X138205000Y-84602560D01*
X137957235Y-84651843D01*
X137747191Y-84792191D01*
X137606843Y-85002235D01*
X137557560Y-85250000D01*
X137557560Y-86750000D01*
X137606843Y-86997765D01*
X137747191Y-87207809D01*
X137957235Y-87348157D01*
X138205000Y-87397440D01*
X139255000Y-87397440D01*
X139496251Y-87349453D01*
X139737500Y-87397440D01*
X140262500Y-87397440D01*
X140610719Y-87328175D01*
X140635000Y-87311951D01*
X140659281Y-87328175D01*
X141007500Y-87397440D01*
X141532500Y-87397440D01*
X141671129Y-87369865D01*
X141954001Y-87652738D01*
X141954001Y-95552062D01*
X141444452Y-95341000D01*
X140585548Y-95341000D01*
X139792025Y-95669688D01*
X139184688Y-96277025D01*
X138856000Y-97070548D01*
X138856000Y-97929452D01*
X139184688Y-98722975D01*
X139792025Y-99330312D01*
X140330001Y-99553149D01*
X140330000Y-103941263D01*
X133412355Y-110858910D01*
X133141333Y-110805000D01*
X132858667Y-110805000D01*
X132440091Y-110888260D01*
X131965423Y-111205423D01*
X131709053Y-111589108D01*
X131612389Y-111384866D01*
X131197423Y-111008959D01*
X130809039Y-110848096D01*
X130587000Y-110970085D01*
X130587000Y-112113000D01*
X130607000Y-112113000D01*
X130607000Y-112367000D01*
X130587000Y-112367000D01*
X130587000Y-113509915D01*
X130699527Y-113571738D01*
X128563337Y-115707928D01*
X128506144Y-115746143D01*
X128467930Y-115803335D01*
X128354746Y-115972727D01*
X128301581Y-116240000D01*
X128315001Y-116307465D01*
X128315000Y-119452560D01*
X128200000Y-119452560D01*
X127952235Y-119501843D01*
X127742191Y-119642191D01*
X127601843Y-119852235D01*
X127552560Y-120100000D01*
X127552560Y-121700000D01*
X127601843Y-121947765D01*
X127742191Y-122157809D01*
X127952235Y-122298157D01*
X128200000Y-122347440D01*
X128315000Y-122347440D01*
X128315001Y-125216263D01*
X121449059Y-132082206D01*
X120924678Y-131865000D01*
X120075322Y-131865000D01*
X119290620Y-132190034D01*
X118690034Y-132790620D01*
X118365000Y-133575322D01*
X103635000Y-133575322D01*
X103309966Y-132790620D01*
X102709380Y-132190034D01*
X101924678Y-131865000D01*
X101075322Y-131865000D01*
X100290620Y-132190034D01*
X99690034Y-132790620D01*
X99365000Y-133575322D01*
X93635000Y-133575322D01*
X93309966Y-132790620D01*
X92709380Y-132190034D01*
X91924678Y-131865000D01*
X91075322Y-131865000D01*
X90710000Y-132016321D01*
X90710000Y-121285750D01*
X93840000Y-121285750D01*
X93840000Y-121876310D01*
X93936673Y-122109699D01*
X94115302Y-122288327D01*
X94348691Y-122385000D01*
X94714250Y-122385000D01*
X94873000Y-122226250D01*
X94873000Y-121127000D01*
X93998750Y-121127000D01*
X93840000Y-121285750D01*
X90710000Y-121285750D01*
X90710000Y-120123690D01*
X93840000Y-120123690D01*
X93840000Y-120714250D01*
X93998750Y-120873000D01*
X94873000Y-120873000D01*
X94873000Y-120512500D01*
X95097560Y-120512500D01*
X95097560Y-121487500D01*
X95127000Y-121635505D01*
X95127000Y-122226250D01*
X95285750Y-122385000D01*
X95651309Y-122385000D01*
X95746576Y-122345539D01*
X96007500Y-122397440D01*
X96532500Y-122397440D01*
X96880719Y-122328175D01*
X96905000Y-122311951D01*
X96929281Y-122328175D01*
X97277500Y-122397440D01*
X97802500Y-122397440D01*
X98150719Y-122328175D01*
X98445925Y-122130925D01*
X98643175Y-121835719D01*
X98712440Y-121487500D01*
X98712440Y-121285750D01*
X99840000Y-121285750D01*
X99840000Y-121876310D01*
X99936673Y-122109699D01*
X100115302Y-122288327D01*
X100348691Y-122385000D01*
X100714250Y-122385000D01*
X100873000Y-122226250D01*
X100873000Y-121127000D01*
X99998750Y-121127000D01*
X99840000Y-121285750D01*
X98712440Y-121285750D01*
X98712440Y-120512500D01*
X98643175Y-120164281D01*
X98616054Y-120123690D01*
X99840000Y-120123690D01*
X99840000Y-120714250D01*
X99998750Y-120873000D01*
X100873000Y-120873000D01*
X100873000Y-120512500D01*
X101097560Y-120512500D01*
X101097560Y-121487500D01*
X101127000Y-121635505D01*
X101127000Y-122226250D01*
X101285750Y-122385000D01*
X101651309Y-122385000D01*
X101746576Y-122345539D01*
X102007500Y-122397440D01*
X102532500Y-122397440D01*
X102880719Y-122328175D01*
X102905000Y-122311951D01*
X102929281Y-122328175D01*
X103277500Y-122397440D01*
X103802500Y-122397440D01*
X104150719Y-122328175D01*
X104445925Y-122130925D01*
X104643175Y-121835719D01*
X104712440Y-121487500D01*
X104712440Y-121285750D01*
X105840000Y-121285750D01*
X105840000Y-121876310D01*
X105936673Y-122109699D01*
X106115302Y-122288327D01*
X106348691Y-122385000D01*
X106714250Y-122385000D01*
X106873000Y-122226250D01*
X106873000Y-121127000D01*
X105998750Y-121127000D01*
X105840000Y-121285750D01*
X104712440Y-121285750D01*
X104712440Y-120512500D01*
X104643175Y-120164281D01*
X104616054Y-120123690D01*
X105840000Y-120123690D01*
X105840000Y-120714250D01*
X105998750Y-120873000D01*
X106873000Y-120873000D01*
X106873000Y-120512500D01*
X107097560Y-120512500D01*
X107097560Y-121487500D01*
X107127000Y-121635505D01*
X107127000Y-122226250D01*
X107285750Y-122385000D01*
X107651309Y-122385000D01*
X107746576Y-122345539D01*
X108007500Y-122397440D01*
X108532500Y-122397440D01*
X108880719Y-122328175D01*
X108905000Y-122311951D01*
X108929281Y-122328175D01*
X109277500Y-122397440D01*
X109802500Y-122397440D01*
X110150719Y-122328175D01*
X110445925Y-122130925D01*
X110643175Y-121835719D01*
X110712440Y-121487500D01*
X110712440Y-121285750D01*
X111840000Y-121285750D01*
X111840000Y-121876310D01*
X111936673Y-122109699D01*
X112115302Y-122288327D01*
X112348691Y-122385000D01*
X112714250Y-122385000D01*
X112873000Y-122226250D01*
X112873000Y-121127000D01*
X111998750Y-121127000D01*
X111840000Y-121285750D01*
X110712440Y-121285750D01*
X110712440Y-120512500D01*
X110643175Y-120164281D01*
X110616054Y-120123690D01*
X111840000Y-120123690D01*
X111840000Y-120714250D01*
X111998750Y-120873000D01*
X112873000Y-120873000D01*
X112873000Y-120512500D01*
X113097560Y-120512500D01*
X113097560Y-121487500D01*
X113127000Y-121635505D01*
X113127000Y-122226250D01*
X113285750Y-122385000D01*
X113651309Y-122385000D01*
X113746576Y-122345539D01*
X114007500Y-122397440D01*
X114532500Y-122397440D01*
X114880719Y-122328175D01*
X114905000Y-122311951D01*
X114929281Y-122328175D01*
X115277500Y-122397440D01*
X115802500Y-122397440D01*
X116150719Y-122328175D01*
X116445925Y-122130925D01*
X116643175Y-121835719D01*
X116712440Y-121487500D01*
X116712440Y-120512500D01*
X116650280Y-120200000D01*
X119552560Y-120200000D01*
X119552560Y-121800000D01*
X119601843Y-122047765D01*
X119742191Y-122257809D01*
X119952235Y-122398157D01*
X120200000Y-122447440D01*
X121800000Y-122447440D01*
X122047765Y-122398157D01*
X122257809Y-122257809D01*
X122398157Y-122047765D01*
X122406117Y-122007745D01*
X122671861Y-122007745D01*
X122745995Y-122253864D01*
X123283223Y-122446965D01*
X123853454Y-122419778D01*
X124254005Y-122253864D01*
X124328139Y-122007745D01*
X123500000Y-121179605D01*
X122671861Y-122007745D01*
X122406117Y-122007745D01*
X122444693Y-121813813D01*
X122492255Y-121828139D01*
X123320395Y-121000000D01*
X123679605Y-121000000D01*
X124507745Y-121828139D01*
X124753864Y-121754005D01*
X124946965Y-121216777D01*
X124919778Y-120646546D01*
X124753864Y-120245995D01*
X124507745Y-120171861D01*
X123679605Y-121000000D01*
X123320395Y-121000000D01*
X122492255Y-120171861D01*
X122444693Y-120186187D01*
X122406118Y-119992255D01*
X122671861Y-119992255D01*
X123500000Y-120820395D01*
X124328139Y-119992255D01*
X124254005Y-119746136D01*
X123716777Y-119553035D01*
X123146546Y-119580222D01*
X122745995Y-119746136D01*
X122671861Y-119992255D01*
X122406118Y-119992255D01*
X122398157Y-119952235D01*
X122257809Y-119742191D01*
X122047765Y-119601843D01*
X121800000Y-119552560D01*
X120200000Y-119552560D01*
X119952235Y-119601843D01*
X119742191Y-119742191D01*
X119601843Y-119952235D01*
X119552560Y-120200000D01*
X116650280Y-120200000D01*
X116643175Y-120164281D01*
X116445925Y-119869075D01*
X116150719Y-119671825D01*
X115802500Y-119602560D01*
X115277500Y-119602560D01*
X114929281Y-119671825D01*
X114905000Y-119688049D01*
X114880719Y-119671825D01*
X114532500Y-119602560D01*
X114007500Y-119602560D01*
X113746576Y-119654461D01*
X113651309Y-119615000D01*
X113285750Y-119615000D01*
X113127000Y-119773750D01*
X113127000Y-120364495D01*
X113097560Y-120512500D01*
X112873000Y-120512500D01*
X112873000Y-119773750D01*
X112714250Y-119615000D01*
X112348691Y-119615000D01*
X112115302Y-119711673D01*
X111936673Y-119890301D01*
X111840000Y-120123690D01*
X110616054Y-120123690D01*
X110445925Y-119869075D01*
X110150719Y-119671825D01*
X109802500Y-119602560D01*
X109277500Y-119602560D01*
X108929281Y-119671825D01*
X108905000Y-119688049D01*
X108880719Y-119671825D01*
X108532500Y-119602560D01*
X108007500Y-119602560D01*
X107746576Y-119654461D01*
X107651309Y-119615000D01*
X107285750Y-119615000D01*
X107127000Y-119773750D01*
X107127000Y-120364495D01*
X107097560Y-120512500D01*
X106873000Y-120512500D01*
X106873000Y-119773750D01*
X106714250Y-119615000D01*
X106348691Y-119615000D01*
X106115302Y-119711673D01*
X105936673Y-119890301D01*
X105840000Y-120123690D01*
X104616054Y-120123690D01*
X104445925Y-119869075D01*
X104150719Y-119671825D01*
X103802500Y-119602560D01*
X103277500Y-119602560D01*
X102929281Y-119671825D01*
X102905000Y-119688049D01*
X102880719Y-119671825D01*
X102532500Y-119602560D01*
X102007500Y-119602560D01*
X101746576Y-119654461D01*
X101651309Y-119615000D01*
X101285750Y-119615000D01*
X101127000Y-119773750D01*
X101127000Y-120364495D01*
X101097560Y-120512500D01*
X100873000Y-120512500D01*
X100873000Y-119773750D01*
X100714250Y-119615000D01*
X100348691Y-119615000D01*
X100115302Y-119711673D01*
X99936673Y-119890301D01*
X99840000Y-120123690D01*
X98616054Y-120123690D01*
X98445925Y-119869075D01*
X98150719Y-119671825D01*
X97802500Y-119602560D01*
X97277500Y-119602560D01*
X96929281Y-119671825D01*
X96905000Y-119688049D01*
X96880719Y-119671825D01*
X96532500Y-119602560D01*
X96007500Y-119602560D01*
X95746576Y-119654461D01*
X95651309Y-119615000D01*
X95285750Y-119615000D01*
X95127000Y-119773750D01*
X95127000Y-120364495D01*
X95097560Y-120512500D01*
X94873000Y-120512500D01*
X94873000Y-119773750D01*
X94714250Y-119615000D01*
X94348691Y-119615000D01*
X94115302Y-119711673D01*
X93936673Y-119890301D01*
X93840000Y-120123690D01*
X90710000Y-120123690D01*
X90710000Y-112240000D01*
X95976887Y-112240000D01*
X96088260Y-112799909D01*
X96405423Y-113274577D01*
X96880091Y-113591740D01*
X97298667Y-113675000D01*
X97581333Y-113675000D01*
X97999909Y-113591740D01*
X98474577Y-113274577D01*
X98710000Y-112922242D01*
X98945423Y-113274577D01*
X99420091Y-113591740D01*
X99838667Y-113675000D01*
X100121333Y-113675000D01*
X100539909Y-113591740D01*
X101014577Y-113274577D01*
X101250000Y-112922242D01*
X101485423Y-113274577D01*
X101960091Y-113591740D01*
X102378667Y-113675000D01*
X102661333Y-113675000D01*
X103079909Y-113591740D01*
X103554577Y-113274577D01*
X103790000Y-112922242D01*
X104025423Y-113274577D01*
X104500091Y-113591740D01*
X104918667Y-113675000D01*
X105201333Y-113675000D01*
X105619909Y-113591740D01*
X106094577Y-113274577D01*
X106330000Y-112922242D01*
X106565423Y-113274577D01*
X107040091Y-113591740D01*
X107458667Y-113675000D01*
X107741333Y-113675000D01*
X108159909Y-113591740D01*
X108634577Y-113274577D01*
X108870000Y-112922242D01*
X109105423Y-113274577D01*
X109580091Y-113591740D01*
X109998667Y-113675000D01*
X110281333Y-113675000D01*
X110699909Y-113591740D01*
X111174577Y-113274577D01*
X111410000Y-112922242D01*
X111645423Y-113274577D01*
X112120091Y-113591740D01*
X112538667Y-113675000D01*
X112821333Y-113675000D01*
X113239909Y-113591740D01*
X113714577Y-113274577D01*
X113950000Y-112922242D01*
X114185423Y-113274577D01*
X114660091Y-113591740D01*
X115078667Y-113675000D01*
X115361333Y-113675000D01*
X115779909Y-113591740D01*
X116254577Y-113274577D01*
X116490000Y-112922242D01*
X116725423Y-113274577D01*
X117200091Y-113591740D01*
X117618667Y-113675000D01*
X117901333Y-113675000D01*
X118319909Y-113591740D01*
X118794577Y-113274577D01*
X119030000Y-112922242D01*
X119265423Y-113274577D01*
X119740091Y-113591740D01*
X120158667Y-113675000D01*
X120441333Y-113675000D01*
X120859909Y-113591740D01*
X121334577Y-113274577D01*
X121570000Y-112922242D01*
X121805423Y-113274577D01*
X122280091Y-113591740D01*
X122698667Y-113675000D01*
X122981333Y-113675000D01*
X123399909Y-113591740D01*
X123874577Y-113274577D01*
X124110000Y-112922242D01*
X124345423Y-113274577D01*
X124820091Y-113591740D01*
X125238667Y-113675000D01*
X125521333Y-113675000D01*
X125939909Y-113591740D01*
X126414577Y-113274577D01*
X126650000Y-112922242D01*
X126885423Y-113274577D01*
X127360091Y-113591740D01*
X127778667Y-113675000D01*
X128061333Y-113675000D01*
X128479909Y-113591740D01*
X128954577Y-113274577D01*
X129210947Y-112890892D01*
X129307611Y-113095134D01*
X129722577Y-113471041D01*
X130110961Y-113631904D01*
X130333000Y-113509915D01*
X130333000Y-112367000D01*
X130313000Y-112367000D01*
X130313000Y-112113000D01*
X130333000Y-112113000D01*
X130333000Y-110970085D01*
X130110961Y-110848096D01*
X129722577Y-111008959D01*
X129307611Y-111384866D01*
X129210947Y-111589108D01*
X128954577Y-111205423D01*
X128479909Y-110888260D01*
X128061333Y-110805000D01*
X127778667Y-110805000D01*
X127360091Y-110888260D01*
X126885423Y-111205423D01*
X126650000Y-111557758D01*
X126414577Y-111205423D01*
X125939909Y-110888260D01*
X125521333Y-110805000D01*
X125238667Y-110805000D01*
X124820091Y-110888260D01*
X124345423Y-111205423D01*
X124110000Y-111557758D01*
X123874577Y-111205423D01*
X123399909Y-110888260D01*
X122981333Y-110805000D01*
X122698667Y-110805000D01*
X122280091Y-110888260D01*
X121805423Y-111205423D01*
X121570000Y-111557758D01*
X121334577Y-111205423D01*
X120859909Y-110888260D01*
X120441333Y-110805000D01*
X120158667Y-110805000D01*
X119740091Y-110888260D01*
X119265423Y-111205423D01*
X119030000Y-111557758D01*
X118794577Y-111205423D01*
X118319909Y-110888260D01*
X117901333Y-110805000D01*
X117618667Y-110805000D01*
X117200091Y-110888260D01*
X116725423Y-111205423D01*
X116490000Y-111557758D01*
X116254577Y-111205423D01*
X115779909Y-110888260D01*
X115361333Y-110805000D01*
X115078667Y-110805000D01*
X114660091Y-110888260D01*
X114185423Y-111205423D01*
X113950000Y-111557758D01*
X113714577Y-111205423D01*
X113239909Y-110888260D01*
X112821333Y-110805000D01*
X112538667Y-110805000D01*
X112120091Y-110888260D01*
X111645423Y-111205423D01*
X111410000Y-111557758D01*
X111174577Y-111205423D01*
X110699909Y-110888260D01*
X110281333Y-110805000D01*
X109998667Y-110805000D01*
X109580091Y-110888260D01*
X109105423Y-111205423D01*
X108870000Y-111557758D01*
X108634577Y-111205423D01*
X108159909Y-110888260D01*
X107741333Y-110805000D01*
X107458667Y-110805000D01*
X107040091Y-110888260D01*
X106565423Y-111205423D01*
X106330000Y-111557758D01*
X106094577Y-111205423D01*
X105619909Y-110888260D01*
X105201333Y-110805000D01*
X104918667Y-110805000D01*
X104500091Y-110888260D01*
X104025423Y-111205423D01*
X103790000Y-111557758D01*
X103554577Y-111205423D01*
X103079909Y-110888260D01*
X102661333Y-110805000D01*
X102378667Y-110805000D01*
X101960091Y-110888260D01*
X101485423Y-111205423D01*
X101250000Y-111557758D01*
X101014577Y-111205423D01*
X100539909Y-110888260D01*
X100121333Y-110805000D01*
X99838667Y-110805000D01*
X99420091Y-110888260D01*
X98945423Y-111205423D01*
X98710000Y-111557758D01*
X98474577Y-111205423D01*
X97999909Y-110888260D01*
X97581333Y-110805000D01*
X97298667Y-110805000D01*
X96880091Y-110888260D01*
X96405423Y-111205423D01*
X96088260Y-111680091D01*
X95976887Y-112240000D01*
X90710000Y-112240000D01*
X90710000Y-97000000D01*
X95976887Y-97000000D01*
X96088260Y-97559909D01*
X96405423Y-98034577D01*
X96880091Y-98351740D01*
X97298667Y-98435000D01*
X97581333Y-98435000D01*
X97999909Y-98351740D01*
X98474577Y-98034577D01*
X98710000Y-97682242D01*
X98945423Y-98034577D01*
X99420091Y-98351740D01*
X99838667Y-98435000D01*
X100121333Y-98435000D01*
X100539909Y-98351740D01*
X101014577Y-98034577D01*
X101250000Y-97682242D01*
X101485423Y-98034577D01*
X101960091Y-98351740D01*
X102378667Y-98435000D01*
X102661333Y-98435000D01*
X103079909Y-98351740D01*
X103554577Y-98034577D01*
X103790000Y-97682242D01*
X104025423Y-98034577D01*
X104500091Y-98351740D01*
X104918667Y-98435000D01*
X105201333Y-98435000D01*
X105619909Y-98351740D01*
X106094577Y-98034577D01*
X106330000Y-97682242D01*
X106565423Y-98034577D01*
X107040091Y-98351740D01*
X107458667Y-98435000D01*
X107741333Y-98435000D01*
X108159909Y-98351740D01*
X108634577Y-98034577D01*
X108870000Y-97682242D01*
X109105423Y-98034577D01*
X109580091Y-98351740D01*
X109998667Y-98435000D01*
X110281333Y-98435000D01*
X110699909Y-98351740D01*
X111174577Y-98034577D01*
X111410000Y-97682242D01*
X111645423Y-98034577D01*
X112120091Y-98351740D01*
X112538667Y-98435000D01*
X112821333Y-98435000D01*
X113239909Y-98351740D01*
X113714577Y-98034577D01*
X113950000Y-97682242D01*
X114185423Y-98034577D01*
X114660091Y-98351740D01*
X115078667Y-98435000D01*
X115361333Y-98435000D01*
X115779909Y-98351740D01*
X116254577Y-98034577D01*
X116490000Y-97682242D01*
X116725423Y-98034577D01*
X117200091Y-98351740D01*
X117618667Y-98435000D01*
X117901333Y-98435000D01*
X118319909Y-98351740D01*
X118794577Y-98034577D01*
X119030000Y-97682242D01*
X119265423Y-98034577D01*
X119740091Y-98351740D01*
X120158667Y-98435000D01*
X120441333Y-98435000D01*
X120859909Y-98351740D01*
X121334577Y-98034577D01*
X121570000Y-97682242D01*
X121805423Y-98034577D01*
X122280091Y-98351740D01*
X122698667Y-98435000D01*
X122981333Y-98435000D01*
X123399909Y-98351740D01*
X123874577Y-98034577D01*
X124110000Y-97682242D01*
X124345423Y-98034577D01*
X124820091Y-98351740D01*
X125238667Y-98435000D01*
X125521333Y-98435000D01*
X125939909Y-98351740D01*
X126414577Y-98034577D01*
X126650000Y-97682242D01*
X126885423Y-98034577D01*
X127360091Y-98351740D01*
X127778667Y-98435000D01*
X128061333Y-98435000D01*
X128479909Y-98351740D01*
X128954577Y-98034577D01*
X129190000Y-97682242D01*
X129425423Y-98034577D01*
X129900091Y-98351740D01*
X130318667Y-98435000D01*
X130601333Y-98435000D01*
X131019909Y-98351740D01*
X131494577Y-98034577D01*
X131575215Y-97913894D01*
X131601843Y-98047765D01*
X131742191Y-98257809D01*
X131952235Y-98398157D01*
X132200000Y-98447440D01*
X133800000Y-98447440D01*
X134047765Y-98398157D01*
X134257809Y-98257809D01*
X134398157Y-98047765D01*
X134447440Y-97800000D01*
X134447440Y-96200000D01*
X134398157Y-95952235D01*
X134257809Y-95742191D01*
X134047765Y-95601843D01*
X133800000Y-95552560D01*
X132200000Y-95552560D01*
X131952235Y-95601843D01*
X131742191Y-95742191D01*
X131601843Y-95952235D01*
X131575215Y-96086106D01*
X131494577Y-95965423D01*
X131019909Y-95648260D01*
X130601333Y-95565000D01*
X130318667Y-95565000D01*
X129900091Y-95648260D01*
X129425423Y-95965423D01*
X129190000Y-96317758D01*
X128954577Y-95965423D01*
X128479909Y-95648260D01*
X128061333Y-95565000D01*
X127778667Y-95565000D01*
X127360091Y-95648260D01*
X126885423Y-95965423D01*
X126650000Y-96317758D01*
X126414577Y-95965423D01*
X125939909Y-95648260D01*
X125521333Y-95565000D01*
X125238667Y-95565000D01*
X124820091Y-95648260D01*
X124345423Y-95965423D01*
X124110000Y-96317758D01*
X123874577Y-95965423D01*
X123399909Y-95648260D01*
X122981333Y-95565000D01*
X122698667Y-95565000D01*
X122280091Y-95648260D01*
X121805423Y-95965423D01*
X121570000Y-96317758D01*
X121334577Y-95965423D01*
X120859909Y-95648260D01*
X120441333Y-95565000D01*
X120158667Y-95565000D01*
X119740091Y-95648260D01*
X119265423Y-95965423D01*
X119030000Y-96317758D01*
X118794577Y-95965423D01*
X118319909Y-95648260D01*
X117901333Y-95565000D01*
X117618667Y-95565000D01*
X117200091Y-95648260D01*
X116725423Y-95965423D01*
X116490000Y-96317758D01*
X116254577Y-95965423D01*
X115779909Y-95648260D01*
X115361333Y-95565000D01*
X115078667Y-95565000D01*
X114660091Y-95648260D01*
X114185423Y-95965423D01*
X113950000Y-96317758D01*
X113714577Y-95965423D01*
X113239909Y-95648260D01*
X112821333Y-95565000D01*
X112538667Y-95565000D01*
X112120091Y-95648260D01*
X111645423Y-95965423D01*
X111410000Y-96317758D01*
X111174577Y-95965423D01*
X110699909Y-95648260D01*
X110281333Y-95565000D01*
X109998667Y-95565000D01*
X109580091Y-95648260D01*
X109105423Y-95965423D01*
X108870000Y-96317758D01*
X108634577Y-95965423D01*
X108159909Y-95648260D01*
X107741333Y-95565000D01*
X107458667Y-95565000D01*
X107040091Y-95648260D01*
X106565423Y-95965423D01*
X106330000Y-96317758D01*
X106094577Y-95965423D01*
X105619909Y-95648260D01*
X105201333Y-95565000D01*
X104918667Y-95565000D01*
X104500091Y-95648260D01*
X104025423Y-95965423D01*
X103790000Y-96317758D01*
X103554577Y-95965423D01*
X103079909Y-95648260D01*
X102661333Y-95565000D01*
X102378667Y-95565000D01*
X101960091Y-95648260D01*
X101485423Y-95965423D01*
X101250000Y-96317758D01*
X101014577Y-95965423D01*
X100539909Y-95648260D01*
X100121333Y-95565000D01*
X99838667Y-95565000D01*
X99420091Y-95648260D01*
X98945423Y-95965423D01*
X98710000Y-96317758D01*
X98474577Y-95965423D01*
X97999909Y-95648260D01*
X97581333Y-95565000D01*
X97298667Y-95565000D01*
X96880091Y-95648260D01*
X96405423Y-95965423D01*
X96088260Y-96440091D01*
X95976887Y-97000000D01*
X90710000Y-97000000D01*
X90710000Y-92813970D01*
X92615635Y-92813970D01*
X92775418Y-93132739D01*
X93566187Y-93442723D01*
X94415387Y-93426497D01*
X95124582Y-93132739D01*
X95284365Y-92813970D01*
X97415635Y-92813970D01*
X97575418Y-93132739D01*
X98366187Y-93442723D01*
X99215387Y-93426497D01*
X99924582Y-93132739D01*
X100084365Y-92813970D01*
X121715635Y-92813970D01*
X121875418Y-93132739D01*
X122666187Y-93442723D01*
X123515387Y-93426497D01*
X124224582Y-93132739D01*
X124384365Y-92813970D01*
X126515635Y-92813970D01*
X126675418Y-93132739D01*
X127466187Y-93442723D01*
X128315387Y-93426497D01*
X129024582Y-93132739D01*
X129184365Y-92813970D01*
X127850000Y-91479605D01*
X126515635Y-92813970D01*
X124384365Y-92813970D01*
X123050000Y-91479605D01*
X121715635Y-92813970D01*
X100084365Y-92813970D01*
X98750000Y-91479605D01*
X97415635Y-92813970D01*
X95284365Y-92813970D01*
X93950000Y-91479605D01*
X92615635Y-92813970D01*
X90710000Y-92813970D01*
X90710000Y-90916187D01*
X91807277Y-90916187D01*
X91823503Y-91765387D01*
X92117261Y-92474582D01*
X92436030Y-92634365D01*
X93770395Y-91300000D01*
X94129605Y-91300000D01*
X95463970Y-92634365D01*
X95782739Y-92474582D01*
X96092723Y-91683813D01*
X96078056Y-90916187D01*
X96607277Y-90916187D01*
X96623503Y-91765387D01*
X96917261Y-92474582D01*
X97236030Y-92634365D01*
X98570395Y-91300000D01*
X98929605Y-91300000D01*
X100263970Y-92634365D01*
X100582739Y-92474582D01*
X100892723Y-91683813D01*
X100878056Y-90916187D01*
X120907277Y-90916187D01*
X120923503Y-91765387D01*
X121217261Y-92474582D01*
X121536030Y-92634365D01*
X122870395Y-91300000D01*
X123229605Y-91300000D01*
X124563970Y-92634365D01*
X124882739Y-92474582D01*
X125192723Y-91683813D01*
X125178056Y-90916187D01*
X125707277Y-90916187D01*
X125723503Y-91765387D01*
X126017261Y-92474582D01*
X126336030Y-92634365D01*
X127670395Y-91300000D01*
X128029605Y-91300000D01*
X129363970Y-92634365D01*
X129682739Y-92474582D01*
X129992723Y-91683813D01*
X129976497Y-90834613D01*
X129910292Y-90674778D01*
X133865000Y-90674778D01*
X133865000Y-91325222D01*
X134113914Y-91926153D01*
X134573847Y-92386086D01*
X135174778Y-92635000D01*
X135825222Y-92635000D01*
X136426153Y-92386086D01*
X136886086Y-91926153D01*
X137135000Y-91325222D01*
X137135000Y-90674778D01*
X136886086Y-90073847D01*
X136426153Y-89613914D01*
X135825222Y-89365000D01*
X135174778Y-89365000D01*
X134573847Y-89613914D01*
X134113914Y-90073847D01*
X133865000Y-90674778D01*
X129910292Y-90674778D01*
X129682739Y-90125418D01*
X129363970Y-89965635D01*
X128029605Y-91300000D01*
X127670395Y-91300000D01*
X126336030Y-89965635D01*
X126017261Y-90125418D01*
X125707277Y-90916187D01*
X125178056Y-90916187D01*
X125176497Y-90834613D01*
X124882739Y-90125418D01*
X124563970Y-89965635D01*
X123229605Y-91300000D01*
X122870395Y-91300000D01*
X121536030Y-89965635D01*
X121217261Y-90125418D01*
X120907277Y-90916187D01*
X100878056Y-90916187D01*
X100876497Y-90834613D01*
X100582739Y-90125418D01*
X100263970Y-89965635D01*
X98929605Y-91300000D01*
X98570395Y-91300000D01*
X97236030Y-89965635D01*
X96917261Y-90125418D01*
X96607277Y-90916187D01*
X96078056Y-90916187D01*
X96076497Y-90834613D01*
X95782739Y-90125418D01*
X95463970Y-89965635D01*
X94129605Y-91300000D01*
X93770395Y-91300000D01*
X92436030Y-89965635D01*
X92117261Y-90125418D01*
X91807277Y-90916187D01*
X90710000Y-90916187D01*
X90710000Y-89786030D01*
X92615635Y-89786030D01*
X93950000Y-91120395D01*
X95284365Y-89786030D01*
X97415635Y-89786030D01*
X98750000Y-91120395D01*
X100084365Y-89786030D01*
X121715635Y-89786030D01*
X123050000Y-91120395D01*
X124384365Y-89786030D01*
X126515635Y-89786030D01*
X127850000Y-91120395D01*
X129184365Y-89786030D01*
X129024582Y-89467261D01*
X128233813Y-89157277D01*
X127384613Y-89173503D01*
X126675418Y-89467261D01*
X126515635Y-89786030D01*
X124384365Y-89786030D01*
X124224582Y-89467261D01*
X123433813Y-89157277D01*
X122584613Y-89173503D01*
X121875418Y-89467261D01*
X121715635Y-89786030D01*
X100084365Y-89786030D01*
X99924582Y-89467261D01*
X99133813Y-89157277D01*
X98284613Y-89173503D01*
X97575418Y-89467261D01*
X97415635Y-89786030D01*
X95284365Y-89786030D01*
X95124582Y-89467261D01*
X94333813Y-89157277D01*
X93484613Y-89173503D01*
X92775418Y-89467261D01*
X92615635Y-89786030D01*
X90710000Y-89786030D01*
X90710000Y-86175322D01*
X91815000Y-86175322D01*
X91815000Y-87024678D01*
X92140034Y-87809380D01*
X92740620Y-88409966D01*
X93525322Y-88735000D01*
X94374678Y-88735000D01*
X95159380Y-88409966D01*
X95759966Y-87809380D01*
X96085000Y-87024678D01*
X96085000Y-86175322D01*
X96615000Y-86175322D01*
X96615000Y-87024678D01*
X96940034Y-87809380D01*
X97540620Y-88409966D01*
X98325322Y-88735000D01*
X99174678Y-88735000D01*
X99959380Y-88409966D01*
X100559966Y-87809380D01*
X100885000Y-87024678D01*
X100885000Y-86175322D01*
X120915000Y-86175322D01*
X120915000Y-87024678D01*
X121240034Y-87809380D01*
X121840620Y-88409966D01*
X122625322Y-88735000D01*
X123474678Y-88735000D01*
X124259380Y-88409966D01*
X124859966Y-87809380D01*
X125185000Y-87024678D01*
X125185000Y-86175322D01*
X125715000Y-86175322D01*
X125715000Y-87024678D01*
X126040034Y-87809380D01*
X126640620Y-88409966D01*
X127425322Y-88735000D01*
X128274678Y-88735000D01*
X129059380Y-88409966D01*
X129659966Y-87809380D01*
X129985000Y-87024678D01*
X129985000Y-86175322D01*
X129659966Y-85390620D01*
X129059380Y-84790034D01*
X128274678Y-84465000D01*
X127425322Y-84465000D01*
X126640620Y-84790034D01*
X126040034Y-85390620D01*
X125715000Y-86175322D01*
X125185000Y-86175322D01*
X124859966Y-85390620D01*
X124259380Y-84790034D01*
X123474678Y-84465000D01*
X122625322Y-84465000D01*
X121840620Y-84790034D01*
X121240034Y-85390620D01*
X120915000Y-86175322D01*
X100885000Y-86175322D01*
X100559966Y-85390620D01*
X99959380Y-84790034D01*
X99174678Y-84465000D01*
X98325322Y-84465000D01*
X97540620Y-84790034D01*
X96940034Y-85390620D01*
X96615000Y-86175322D01*
X96085000Y-86175322D01*
X95759966Y-85390620D01*
X95159380Y-84790034D01*
X94374678Y-84465000D01*
X93525322Y-84465000D01*
X92740620Y-84790034D01*
X92140034Y-85390620D01*
X91815000Y-86175322D01*
X90710000Y-86175322D01*
X90710000Y-80710000D01*
X92132007Y-80710000D01*
X91815000Y-81475322D01*
G04 #@! TD*
M02*
