<?xml version="1.0" standalone="no"?>
 <!DOCTYPE svg PUBLIC "-//W3C//DTD SVG 1.1//EN" 
 "http://www.w3.org/Graphics/SVG/1.1/DTD/svg11.dtd"> 
<svg xmlns="http://www.w3.org/2000/svg" version="1.1" 
    width="29.7002cm" height="21.0007cm" viewBox="0 0 116930 82680 ">
<title>SVG Picture created as magic-switchboard-F.SilkS.svg date 2019/01/26 22:33:22 </title>
  <desc>Picture generated by PCBNEW </desc>
<g style="fill:#000000; fill-opacity:1;stroke:#000000; stroke-opacity:1;
stroke-linecap:round; stroke-linejoin:round; "
 transform="translate(0 0) scale(1 1)">
</g>
<g style="fill:#000000; fill-opacity:0.0; 
stroke:#000000; stroke-width:-0.000393701; stroke-opacity:1; 
stroke-linecap:round; stroke-linejoin:round;">
</g>
<g style="fill:#000000; fill-opacity:0.0; 
stroke:#000000; stroke-width:50; stroke-opacity:1; 
stroke-linecap:round; stroke-linejoin:round;">
<path d="M59267.7 49603.9 A1000 1000 0.0 0 0 57267.7 49603.9 " />
</g>
<g style="fill:#000000; fill-opacity:0.0; 
stroke:#000000; stroke-width:100; stroke-opacity:1; 
stroke-linecap:round; stroke-linejoin:round;">
<path d="M61867 37353
L54667 37353
" />
<path d="M61867 49603
L54667 49603
" />
<path d="M61867 37353
L61867 49603
" />
<path d="M54667 37353
L54667 49603
" />
</g>
<g style="fill:#000000; fill-opacity:0.0; 
stroke:#000000; stroke-width:50; stroke-opacity:1; 
stroke-linecap:round; stroke-linejoin:round;">
<path d="M73425 52755
L73031 52755
" />
<path d="M71062 52755
L71456 52755
" />
<path d="M71259 52559
L71259 52952
" />
<path d="M73218 53730
L71269 51781
" />
<path d="M73218 51781
L71269 53730
" />
<circle cx="72244.1" cy="52755.9" r="1377.95" /> 
<path d="M62007 52755
L61614 52755
" />
<path d="M59645 52755
L60039 52755
" />
<path d="M59842 52559
L59842 52952
" />
<path d="M61801 53730
L59852 51781
" />
<path d="M61801 51781
L59852 53730
" />
<circle cx="60826.8" cy="52755.9" r="1377.95" /> 
<path d="M50590 52755
L50196 52755
" />
<path d="M48228 52755
L48622 52755
" />
<path d="M48425 52559
L48425 52952
" />
<path d="M50383 53730
L48435 51781
" />
<path d="M50383 51781
L48435 53730
" />
<circle cx="49409.4" cy="52755.9" r="1377.95" /> 
<path d="M39173 52755
L38779 52755
" />
<path d="M36811 52755
L37204 52755
" />
<path d="M37007 52559
L37007 52952
" />
<path d="M38966 53730
L37017 51781
" />
<path d="M38966 51781
L37017 53730
" />
<circle cx="37992.1" cy="52755.9" r="1377.95" /> 
</g>
<g style="fill:#000000; fill-opacity:0.0; 
stroke:#000000; stroke-width:47.2441; stroke-opacity:1; 
stroke-linecap:round; stroke-linejoin:round;">
<path d="M53913 44740
L53913 37637
" />
<path d="M36811 44740
L53913 44740
" />
<path d="M36811 37637
L36811 44740
" />
<path d="M37862 38688
L37862 37637
" />
<path d="M51862 38688
L37862 38688
" />
<path d="M51862 38688
L51862 37637
" />
<path d="M37862 43688
L37862 44740
" />
<path d="M52862 43688
L37862 43688
" />
<path d="M52862 43688
L52862 44740
" />
<path d="M53913 37637
L52862 37637
" />
<path d="M51862 37637
L36811 37637
" />
<path d="M52862 38688
L52862 37637
" />
<path d="M51862 38688
L52862 38688
" />
<path d="M46875 46789
L46875 47037
" />
<path d="M46751 46913
L46999 46913
" />
<path d="M49405 47479
L49405 47796
" />
<path d="M49390 47388
L49390 47887
" />
<path d="M49374 47322
L49374 47953
" />
<path d="M49358 47267
L49358 48007
" />
<path d="M49342 47220
L49342 48054
" />
<path d="M49327 47179
L49327 48096
" />
<path d="M49311 47140
L49311 48134
" />
<path d="M49295 47106
L49295 48169
" />
<path d="M49279 47074
L49279 48201
" />
<path d="M49264 47043
L49264 48231
" />
<path d="M49248 47015
L49248 48260
" />
<path d="M49232 46988
L49232 48287
" />
<path d="M49216 46962
L49216 48312
" />
<path d="M49201 46938
L49201 48337
" />
<path d="M49185 46915
L49185 48359
" />
<path d="M49169 46893
L49169 48381
" />
<path d="M49153 46872
L49153 48403
" />
<path d="M49138 46852
L49138 48423
" />
<path d="M49122 46833
L49122 48442
" />
<path d="M49106 46814
L49106 48461
" />
<path d="M49090 46796
L49090 48479
" />
<path d="M49075 46778
L49075 48496
" />
<path d="M49059 46762
L49059 48513
" />
<path d="M49043 46746
L49043 48529
" />
<path d="M49027 48047
L49027 48545
" />
<path d="M49027 46730
L49027 47228
" />
<path d="M49012 48047
L49012 48560
" />
<path d="M49012 46715
L49012 47228
" />
<path d="M48996 48047
L48996 48574
" />
<path d="M48996 46700
L48996 47228
" />
<path d="M48980 48047
L48980 48588
" />
<path d="M48980 46686
L48980 47228
" />
<path d="M48964 48047
L48964 48602
" />
<path d="M48964 46673
L48964 47228
" />
<path d="M48949 48047
L48949 48615
" />
<path d="M48949 46659
L48949 47228
" />
<path d="M48933 48047
L48933 48628
" />
<path d="M48933 46647
L48933 47228
" />
<path d="M48917 48047
L48917 48640
" />
<path d="M48917 46634
L48917 47228
" />
<path d="M48901 48047
L48901 48652
" />
<path d="M48901 46622
L48901 47228
" />
<path d="M48886 48047
L48886 48664
" />
<path d="M48886 46611
L48886 47228
" />
<path d="M48870 48047
L48870 48675
" />
<path d="M48870 46600
L48870 47228
" />
<path d="M48854 48047
L48854 48686
" />
<path d="M48854 46588
L48854 47228
" />
<path d="M48838 48047
L48838 48696
" />
<path d="M48838 46578
L48838 47228
" />
<path d="M48823 48047
L48823 48707
" />
<path d="M48823 46568
L48823 47228
" />
<path d="M48807 48047
L48807 48717
" />
<path d="M48807 46558
L48807 47228
" />
<path d="M48791 48047
L48791 48726
" />
<path d="M48791 46548
L48791 47228
" />
<path d="M48775 48047
L48775 48736
" />
<path d="M48775 46539
L48775 47228
" />
<path d="M48760 48047
L48760 48744
" />
<path d="M48760 46530
L48760 47228
" />
<path d="M48744 48047
L48744 48753
" />
<path d="M48744 46522
L48744 47228
" />
<path d="M48728 48047
L48728 48762
" />
<path d="M48728 46513
L48728 47228
" />
<path d="M48712 48047
L48712 48770
" />
<path d="M48712 46505
L48712 47228
" />
<path d="M48697 48047
L48697 48777
" />
<path d="M48697 46497
L48697 47228
" />
<path d="M48681 48047
L48681 48785
" />
<path d="M48681 46489
L48681 47228
" />
<path d="M48665 48047
L48665 48792
" />
<path d="M48665 46482
L48665 47228
" />
<path d="M48650 48047
L48650 48800
" />
<path d="M48650 46475
L48650 47228
" />
<path d="M48634 48047
L48634 48807
" />
<path d="M48634 46468
L48634 47228
" />
<path d="M48618 48047
L48618 48813
" />
<path d="M48618 46462
L48618 47228
" />
<path d="M48602 48047
L48602 48819
" />
<path d="M48602 46455
L48602 47228
" />
<path d="M48587 48047
L48587 48825
" />
<path d="M48587 46449
L48587 47228
" />
<path d="M48571 48047
L48571 48831
" />
<path d="M48571 46443
L48571 47228
" />
<path d="M48555 48047
L48555 48837
" />
<path d="M48555 46438
L48555 47228
" />
<path d="M48539 48047
L48539 48842
" />
<path d="M48539 46432
L48539 47228
" />
<path d="M48524 48047
L48524 48848
" />
<path d="M48524 46427
L48524 47228
" />
<path d="M48508 48047
L48508 48852
" />
<path d="M48508 46422
L48508 47228
" />
<path d="M48492 48047
L48492 48857
" />
<path d="M48492 46418
L48492 47228
" />
<path d="M48476 48047
L48476 48862
" />
<path d="M48476 46413
L48476 47228
" />
<path d="M48461 48047
L48461 48866
" />
<path d="M48461 46409
L48461 47228
" />
<path d="M48445 48047
L48445 48870
" />
<path d="M48445 46405
L48445 47228
" />
<path d="M48429 48047
L48429 48874
" />
<path d="M48429 46401
L48429 47228
" />
<path d="M48413 48047
L48413 48877
" />
<path d="M48413 46397
L48413 47228
" />
<path d="M48397 48047
L48397 48881
" />
<path d="M48397 46394
L48397 47228
" />
<path d="M48381 48047
L48381 48884
" />
<path d="M48381 46390
L48381 47228
" />
<path d="M48366 48047
L48366 48887
" />
<path d="M48366 46387
L48366 47228
" />
<path d="M48350 48047
L48350 48890
" />
<path d="M48350 46385
L48350 47228
" />
<path d="M48334 48047
L48334 48893
" />
<path d="M48334 46382
L48334 47228
" />
<path d="M48318 48047
L48318 48895
" />
<path d="M48318 46379
L48318 47228
" />
<path d="M48303 48047
L48303 48898
" />
<path d="M48303 46377
L48303 47228
" />
<path d="M48287 48047
L48287 48900
" />
<path d="M48287 46375
L48287 47228
" />
<path d="M48271 48047
L48271 48901
" />
<path d="M48271 46373
L48271 47228
" />
<path d="M48255 48047
L48255 48903
" />
<path d="M48255 46372
L48255 47228
" />
<path d="M48240 48047
L48240 48904
" />
<path d="M48240 46370
L48240 47228
" />
<path d="M48224 48047
L48224 48906
" />
<path d="M48224 46369
L48224 47228
" />
<path d="M48208 46368
L48208 48907
" />
<path d="M48192 46367
L48192 48908
" />
<path d="M48177 46366
L48177 48908
" />
<path d="M48161 46366
L48161 48909
" />
<path d="M48145 46366
L48145 48909
" />
<path d="M48129 46366
L48129 48909
" />
<circle cx="48129.9" cy="47637.8" r="1287.4" /> 
<path d="M50025 46750
L50025 46998
" />
<path d="M49901 46874
L50149 46874
" />
<path d="M52555 47440
L52555 47756
" />
<path d="M52539 47349
L52539 47847
" />
<path d="M52524 47282
L52524 47914
" />
<path d="M52508 47228
L52508 47968
" />
<path d="M52492 47181
L52492 48015
" />
<path d="M52476 47139
L52476 48057
" />
<path d="M52461 47101
L52461 48095
" />
<path d="M52445 47066
L52445 48129
" />
<path d="M52429 47034
L52429 48162
" />
<path d="M52413 47004
L52413 48192
" />
<path d="M52398 46975
L52398 48220
" />
<path d="M52382 46948
L52382 48248
" />
<path d="M52366 46923
L52366 48273
" />
<path d="M52350 46899
L52350 48297
" />
<path d="M52335 46876
L52335 48320
" />
<path d="M52319 46854
L52319 48342
" />
<path d="M52303 46833
L52303 48363
" />
<path d="M52287 46812
L52287 48383
" />
<path d="M52272 46793
L52272 48403
" />
<path d="M52256 46774
L52256 48422
" />
<path d="M52240 46757
L52240 48439
" />
<path d="M52224 46739
L52224 48457
" />
<path d="M52209 46722
L52209 48474
" />
<path d="M52193 46706
L52193 48490
" />
<path d="M52177 48007
L52177 48505
" />
<path d="M52177 46690
L52177 47188
" />
<path d="M52161 48007
L52161 48520
" />
<path d="M52161 46675
L52161 47188
" />
<path d="M52146 48007
L52146 48535
" />
<path d="M52146 46661
L52146 47188
" />
<path d="M52130 48007
L52130 48549
" />
<path d="M52130 46647
L52130 47188
" />
<path d="M52114 48007
L52114 48562
" />
<path d="M52114 46633
L52114 47188
" />
<path d="M52098 48007
L52098 48576
" />
<path d="M52098 46620
L52098 47188
" />
<path d="M52083 48007
L52083 48588
" />
<path d="M52083 46607
L52083 47188
" />
<path d="M52067 48007
L52067 48601
" />
<path d="M52067 46595
L52067 47188
" />
<path d="M52051 48007
L52051 48613
" />
<path d="M52051 46583
L52051 47188
" />
<path d="M52035 48007
L52035 48624
" />
<path d="M52035 46572
L52035 47188
" />
<path d="M52020 48007
L52020 48636
" />
<path d="M52020 46560
L52020 47188
" />
<path d="M52004 48007
L52004 48647
" />
<path d="M52004 46549
L52004 47188
" />
<path d="M51988 48007
L51988 48657
" />
<path d="M51988 46539
L51988 47188
" />
<path d="M51972 48007
L51972 48667
" />
<path d="M51972 46529
L51972 47188
" />
<path d="M51957 48007
L51957 48677
" />
<path d="M51957 46518
L51957 47188
" />
<path d="M51941 48007
L51941 48687
" />
<path d="M51941 46509
L51941 47188
" />
<path d="M51925 48007
L51925 48696
" />
<path d="M51925 46500
L51925 47188
" />
<path d="M51909 48007
L51909 48705
" />
<path d="M51909 46491
L51909 47188
" />
<path d="M51894 48007
L51894 48714
" />
<path d="M51894 46482
L51894 47188
" />
<path d="M51878 48007
L51878 48722
" />
<path d="M51878 46474
L51878 47188
" />
<path d="M51862 48007
L51862 48730
" />
<path d="M51862 46466
L51862 47188
" />
<path d="M51846 48007
L51846 48738
" />
<path d="M51846 46458
L51846 47188
" />
<path d="M51831 48007
L51831 48746
" />
<path d="M51831 46450
L51831 47188
" />
<path d="M51815 48007
L51815 48753
" />
<path d="M51815 46443
L51815 47188
" />
<path d="M51799 48007
L51799 48760
" />
<path d="M51799 46436
L51799 47188
" />
<path d="M51783 48007
L51783 48767
" />
<path d="M51783 46429
L51783 47188
" />
<path d="M51768 48007
L51768 48774
" />
<path d="M51768 46422
L51768 47188
" />
<path d="M51752 48007
L51752 48780
" />
<path d="M51752 46416
L51752 47188
" />
<path d="M51736 48007
L51736 48786
" />
<path d="M51736 46410
L51736 47188
" />
<path d="M51720 48007
L51720 48792
" />
<path d="M51720 46404
L51720 47188
" />
<path d="M51705 48007
L51705 48798
" />
<path d="M51705 46398
L51705 47188
" />
<path d="M51689 48007
L51689 48803
" />
<path d="M51689 46393
L51689 47188
" />
<path d="M51673 48007
L51673 48808
" />
<path d="M51673 46388
L51673 47188
" />
<path d="M51657 48007
L51657 48813
" />
<path d="M51657 46383
L51657 47188
" />
<path d="M51642 48007
L51642 48818
" />
<path d="M51642 46378
L51642 47188
" />
<path d="M51626 48007
L51626 48822
" />
<path d="M51626 46374
L51626 47188
" />
<path d="M51610 48007
L51610 48827
" />
<path d="M51610 46369
L51610 47188
" />
<path d="M51594 48007
L51594 48831
" />
<path d="M51594 46365
L51594 47188
" />
<path d="M51579 48007
L51579 48835
" />
<path d="M51579 46361
L51579 47188
" />
<path d="M51563 48007
L51563 48838
" />
<path d="M51563 46358
L51563 47188
" />
<path d="M51547 48007
L51547 48842
" />
<path d="M51547 46354
L51547 47188
" />
<path d="M51531 48007
L51531 48845
" />
<path d="M51531 46351
L51531 47188
" />
<path d="M51515 48007
L51515 48848
" />
<path d="M51515 46348
L51515 47188
" />
<path d="M51500 48007
L51500 48851
" />
<path d="M51500 46345
L51500 47188
" />
<path d="M51484 48007
L51484 48853
" />
<path d="M51484 46342
L51484 47188
" />
<path d="M51468 48007
L51468 48856
" />
<path d="M51468 46340
L51468 47188
" />
<path d="M51452 48007
L51452 48858
" />
<path d="M51452 46338
L51452 47188
" />
<path d="M51437 48007
L51437 48860
" />
<path d="M51437 46336
L51437 47188
" />
<path d="M51421 48007
L51421 48862
" />
<path d="M51421 46334
L51421 47188
" />
<path d="M51405 48007
L51405 48864
" />
<path d="M51405 46332
L51405 47188
" />
<path d="M51389 48007
L51389 48865
" />
<path d="M51389 46331
L51389 47188
" />
<path d="M51374 48007
L51374 48866
" />
<path d="M51374 46329
L51374 47188
" />
<path d="M51358 46329
L51358 48867
" />
<path d="M51342 46327
L51342 48868
" />
<path d="M51326 46327
L51326 48869
" />
<path d="M51311 46326
L51311 48870
" />
<path d="M51295 46326
L51295 48870
" />
<path d="M51279 46326
L51279 48870
" />
<circle cx="51279.5" cy="47598.4" r="1287.4" /> 
<path d="M67271.1 34523.7 A1015.53 1015.53 0.0 1 0 65740.2 34527.6 " />
<path d="M65740 34527
L67255 34527
" />
<path d="M55853.8 34523.7 A1015.53 1015.53 0.0 1 0 54322.8 34527.6 " />
<path d="M54322 34527
L55838 34527
" />
<path d="M45723.9 48303.2 A1015.53 1015.53 0.0 1 0 44192.9 48307.1 " />
<path d="M44192 48307
L45708 48307
" />
<path d="M43361.7 48303.2 A1015.53 1015.53 0.0 1 0 41830.7 48307.1 " />
<path d="M41830 48307
L43346 48307
" />
<path d="M40999.5 48303.2 A1015.53 1015.53 0.0 1 0 39468.5 48307.1 " />
<path d="M39468 48307
L40984 48307
" />
<path d="M38637.2 48303.2 A1015.53 1015.53 0.0 1 0 37106.3 48307.1 " />
<path d="M37106 48307
L38622 48307
" />
</g>
<g style="fill:#000000; fill-opacity:0.0; 
stroke:#000000; stroke-width:50; stroke-opacity:1; 
stroke-linecap:round; stroke-linejoin:round;">
<path d="M65551 36220
L65551 35826
" />
<path d="M67519 35826
L65551 35826
" />
<path d="M67519 36220
L67519 35826
" />
<path d="M67519 36220
L67913 36220
" />
<path d="M67519 36614
L67519 36220
" />
<path d="M65551 36614
L67519 36614
" />
<path d="M65551 36220
L65551 36614
" />
<path d="M65157 36220
L65551 36220
" />
<path d="M56102 35826
L56102 36220
" />
<path d="M54133 36220
L56102 36220
" />
<path d="M54133 35826
L54133 36220
" />
<path d="M54133 35826
L53740 35826
" />
<path d="M54133 35433
L54133 35826
" />
<path d="M56102 35433
L54133 35433
" />
<path d="M56102 35826
L56102 35433
" />
<path d="M56496 35826
L56102 35826
" />
<path d="M40433 36694
L35433 36694
" />
<path d="M40433 31494
L40433 36694
" />
<path d="M35433 31494
L40433 31494
" />
<path d="M35433 36694
L35433 31494
" />
<path d="M51889 36694
L46889 36694
" />
<path d="M51889 31494
L51889 36694
" />
<path d="M46889 31494
L51889 31494
" />
<path d="M46889 36694
L46889 31494
" />
<path d="M63346 36694
L58346 36694
" />
<path d="M63346 31494
L63346 36694
" />
<path d="M58346 31494
L63346 31494
" />
<path d="M58346 36694
L58346 31494
" />
<path d="M74803 36694
L69803 36694
" />
<path d="M74803 31494
L74803 36694
" />
<path d="M69803 31494
L74803 31494
" />
<path d="M69803 36694
L69803 31494
" />
</g>
<g style="fill:#000000; fill-opacity:0.0; 
stroke:#000000; stroke-width:59.0551; stroke-opacity:1; 
stroke-linecap:round; stroke-linejoin:round;">
<path d="M66610 50965
L66610 50571
L66741 50853
L66872 50571
L66872 50965
" />
<path d="M67229 50703
L67229 50965
" />
<path d="M67135 50553
L67041 50834
L67285 50834
" />
<path d="M53552 43803
L53870 43803
L53908 43785
L53927 43766
L53945 43728
L53945 43653
L53927 43616
L53908 43597
L53870 43578
L53552 43578
" />
<path d="M53945 43185
L53945 43410
" />
<path d="M53945 43297
L53552 43297
L53608 43335
L53645 43372
L53664 43410
" />
<path d="M71953 50965
L71953 50571
L72047 50571
L72103 50590
L72140 50628
L72159 50665
L72178 50740
L72178 50796
L72159 50871
L72140 50909
L72103 50946
L72047 50965
L71953 50965
" />
<path d="M72553 50965
L72328 50965
" />
<path d="M72440 50965
L72440 50571
L72403 50628
L72365 50665
L72328 50684
" />
<path d="M60536 50965
L60536 50571
L60629 50571
L60686 50590
L60723 50628
L60742 50665
L60761 50740
L60761 50796
L60742 50871
L60723 50909
L60686 50946
L60629 50965
L60536 50965
" />
<path d="M60911 50609
L60929 50590
L60967 50571
L61061 50571
L61098 50590
L61117 50609
L61136 50646
L61136 50684
L61117 50740
L60892 50965
L61136 50965
" />
<path d="M49118 50965
L49118 50571
L49212 50571
L49268 50590
L49306 50628
L49325 50665
L49343 50740
L49343 50796
L49325 50871
L49306 50909
L49268 50946
L49212 50965
L49118 50965
" />
<path d="M49475 50571
L49718 50571
L49587 50721
L49643 50721
L49681 50740
L49700 50759
L49718 50796
L49718 50890
L49700 50928
L49681 50946
L49643 50965
L49531 50965
L49493 50946
L49475 50928
" />
<path d="M37701 50965
L37701 50571
L37795 50571
L37851 50590
L37889 50628
L37907 50665
L37926 50740
L37926 50796
L37907 50871
L37889 50909
L37851 50946
L37795 50965
L37701 50965
" />
<path d="M38263 50703
L38263 50965
" />
<path d="M38170 50553
L38076 50834
L38320 50834
" />
<path d="M54427 41470
L54427 41282
" />
<path d="M54540 41507
L54146 41376
L54540 41245
" />
<path d="M54540 40907
L54540 41132
" />
<path d="M54540 41020
L54146 41020
L54202 41057
L54240 41095
L54259 41132
" />
<path d="M48064 46046
L48045 46064
L47989 46083
L47951 46083
L47895 46064
L47858 46027
L47839 45989
L47820 45914
L47820 45858
L47839 45783
L47858 45746
L47895 45708
L47951 45689
L47989 45689
L48045 45708
L48064 45727
" />
<path d="M48439 46083
L48214 46083
" />
<path d="M48326 46083
L48326 45689
L48289 45746
L48251 45783
L48214 45802
" />
<path d="M51213 46006
L51195 46025
L51138 46044
L51101 46044
L51045 46025
L51007 45988
L50988 45950
L50970 45875
L50970 45819
L50988 45744
L51007 45706
L51045 45669
L51101 45650
L51138 45650
L51195 45669
L51213 45688
" />
<path d="M51363 45688
L51382 45669
L51420 45650
L51513 45650
L51551 45669
L51570 45688
L51588 45725
L51588 45763
L51570 45819
L51345 46044
L51588 46044
" />
<path d="M66466 32672
L66428 32653
L66391 32616
L66335 32559
L66297 32541
L66260 32541
" />
<path d="M66278 32634
L66241 32616
L66203 32578
L66185 32503
L66185 32372
L66203 32297
L66241 32259
L66278 32241
L66353 32241
L66391 32259
L66428 32297
L66447 32372
L66447 32503
L66428 32578
L66391 32616
L66353 32634
L66278 32634
" />
<path d="M66822 32634
L66597 32634
" />
<path d="M66710 32634
L66710 32241
L66672 32297
L66635 32334
L66597 32353
" />
<path d="M55049 32672
L55011 32653
L54974 32616
L54917 32559
L54880 32541
L54842 32541
" />
<path d="M54861 32634
L54824 32616
L54786 32578
L54767 32503
L54767 32372
L54786 32297
L54824 32259
L54861 32241
L54936 32241
L54974 32259
L55011 32297
L55030 32372
L55030 32503
L55011 32578
L54974 32616
L54936 32634
L54861 32634
" />
<path d="M55180 32278
L55199 32259
L55236 32241
L55330 32241
L55367 32259
L55386 32278
L55405 32316
L55405 32353
L55386 32409
L55161 32634
L55405 32634
" />
<path d="M44919 46451
L44881 46433
L44844 46395
L44787 46339
L44750 46320
L44712 46320
" />
<path d="M44731 46414
L44694 46395
L44656 46358
L44637 46283
L44637 46151
L44656 46076
L44694 46039
L44731 46020
L44806 46020
L44844 46039
L44881 46076
L44900 46151
L44900 46283
L44881 46358
L44844 46395
L44806 46414
L44731 46414
" />
<path d="M45031 46020
L45275 46020
L45144 46170
L45200 46170
L45237 46189
L45256 46208
L45275 46245
L45275 46339
L45256 46376
L45237 46395
L45200 46414
L45087 46414
L45050 46395
L45031 46376
" />
<path d="M42556 46451
L42519 46433
L42482 46395
L42425 46339
L42388 46320
L42350 46320
" />
<path d="M42369 46414
L42332 46395
L42294 46358
L42275 46283
L42275 46151
L42294 46076
L42332 46039
L42369 46020
L42444 46020
L42482 46039
L42519 46076
L42538 46151
L42538 46283
L42519 46358
L42482 46395
L42444 46414
L42369 46414
" />
<path d="M42875 46151
L42875 46414
" />
<path d="M42781 46001
L42688 46283
L42931 46283
" />
<path d="M40194 46451
L40157 46433
L40119 46395
L40063 46339
L40026 46320
L39988 46320
" />
<path d="M40007 46414
L39969 46395
L39932 46358
L39913 46283
L39913 46151
L39932 46076
L39969 46039
L40007 46020
L40082 46020
L40119 46039
L40157 46076
L40176 46151
L40176 46283
L40157 46358
L40119 46395
L40082 46414
L40007 46414
" />
<path d="M40532 46020
L40344 46020
L40326 46208
L40344 46189
L40382 46170
L40476 46170
L40513 46189
L40532 46208
L40550 46245
L40550 46339
L40532 46376
L40513 46395
L40476 46414
L40382 46414
L40344 46395
L40326 46376
" />
<path d="M37832 46451
L37795 46433
L37757 46395
L37701 46339
L37663 46320
L37626 46320
" />
<path d="M37645 46414
L37607 46395
L37570 46358
L37551 46283
L37551 46151
L37570 46076
L37607 46039
L37645 46020
L37720 46020
L37757 46039
L37795 46076
L37813 46151
L37813 46283
L37795 46358
L37757 46395
L37720 46414
L37645 46414
" />
<path d="M38151 46020
L38076 46020
L38038 46039
L38020 46058
L37982 46114
L37963 46189
L37963 46339
L37982 46376
L38001 46395
L38038 46414
L38113 46414
L38151 46395
L38170 46376
L38188 46339
L38188 46245
L38170 46208
L38151 46189
L38113 46170
L38038 46170
L38001 46189
L37982 46208
L37963 46245
" />
<path d="M66666 37185
L66535 36998
" />
<path d="M66441 37185
L66441 36792
L66591 36792
L66629 36811
L66647 36829
L66666 36867
L66666 36923
L66647 36961
L66629 36979
L66591 36998
L66441 36998
" />
<path d="M67041 37185
L66816 37185
" />
<path d="M66929 37185
L66929 36792
L66891 36848
L66854 36886
L66816 36904
" />
<path d="M54855 35217
L54724 35029
" />
<path d="M54630 35217
L54630 34823
L54780 34823
L54818 34842
L54836 34861
L54855 34898
L54855 34955
L54836 34992
L54818 35011
L54780 35029
L54630 35029
" />
<path d="M55005 34861
L55024 34842
L55061 34823
L55155 34823
L55193 34842
L55211 34861
L55230 34898
L55230 34936
L55211 34992
L54986 35217
L55230 35217
" />
<path d="M39660 36379
L39716 36398
L39810 36398
L39848 36379
L39866 36361
L39885 36323
L39885 36286
L39866 36248
L39848 36229
L39810 36211
L39735 36192
L39698 36173
L39679 36154
L39660 36117
L39660 36079
L39679 36042
L39698 36023
L39735 36004
L39829 36004
L39885 36023
" />
<path d="M40260 36398
L40035 36398
" />
<path d="M40148 36398
L40148 36004
L40110 36061
L40073 36098
L40035 36117
" />
<path d="M51077 36379
L51134 36398
L51227 36398
L51265 36379
L51284 36361
L51302 36323
L51302 36286
L51284 36248
L51265 36229
L51227 36211
L51152 36192
L51115 36173
L51096 36154
L51077 36117
L51077 36079
L51096 36042
L51115 36023
L51152 36004
L51246 36004
L51302 36023
" />
<path d="M51452 36042
L51471 36023
L51509 36004
L51602 36004
L51640 36023
L51659 36042
L51677 36079
L51677 36117
L51659 36173
L51434 36398
L51677 36398
" />
<path d="M62495 36379
L62551 36398
L62645 36398
L62682 36379
L62701 36361
L62720 36323
L62720 36286
L62701 36248
L62682 36229
L62645 36211
L62570 36192
L62532 36173
L62514 36154
L62495 36117
L62495 36079
L62514 36042
L62532 36023
L62570 36004
L62664 36004
L62720 36023
" />
<path d="M62851 36004
L63095 36004
L62964 36154
L63020 36154
L63057 36173
L63076 36192
L63095 36229
L63095 36323
L63076 36361
L63057 36379
L63020 36398
L62907 36398
L62870 36379
L62851 36361
" />
<path d="M73912 36379
L73968 36398
L74062 36398
L74100 36379
L74118 36361
L74137 36323
L74137 36286
L74118 36248
L74100 36229
L74062 36211
L73987 36192
L73950 36173
L73931 36154
L73912 36117
L73912 36079
L73931 36042
L73950 36023
L73987 36004
L74081 36004
L74137 36023
" />
<path d="M74475 36136
L74475 36398
" />
<path d="M74381 35986
L74287 36267
L74531 36267
" />
<path d="M42988 50965
L42988 50571
L43119 50853
L43250 50571
L43250 50965
" />
<path d="M43607 50703
L43607 50965
" />
<path d="M43513 50553
L43419 50834
L43663 50834
" />
</g> 
</svg>
