<?xml version="1.0" standalone="no"?>
 <!DOCTYPE svg PUBLIC "-//W3C//DTD SVG 1.1//EN" 
 "http://www.w3.org/Graphics/SVG/1.1/DTD/svg11.dtd"> 
<svg xmlns="http://www.w3.org/2000/svg" version="1.1" 
    width="29.7002cm" height="21.0007cm" viewBox="0 0 116930 82680 ">
<title>SVG Picture created as magic-switchboard-B.Mask.svg date 2019/01/26 22:33:22 </title>
  <desc>Picture generated by PCBNEW </desc>
<g style="fill:#000000; fill-opacity:1;stroke:#000000; stroke-opacity:1;
stroke-linecap:round; stroke-linejoin:round; "
 transform="translate(0 0) scale(1 1)">
</g>
<g style="fill:#000000; fill-opacity:0.0; 
stroke:#000000; stroke-width:-0.000393701; stroke-opacity:1; 
stroke-linecap:round; stroke-linejoin:round;">
</g>
<g style="fill:#000000; fill-opacity:1.0; 
stroke:#000000; stroke-width:0; stroke-opacity:1; 
stroke-linecap:round; stroke-linejoin:round;">
<polyline style="fill-rule:evenodd;"
points="67394,51222
67564,51292
67684,51342
67944,51515
67945,51517
68167,51739
68167,51739
68342,52000
68342,52000
68462,52290
68524,52598
68524,52912
68462,53221
68431,53297
68342,53511
68169,53770
68167,53772
67945,53994
67945,53994
67684,54169
67564,54219
67394,54289
67086,54350
66772,54350
66463,54289
66293,54219
66173,54169
65912,53994
65912,53994
65690,53772
65689,53770
65515,53511
65426,53297
65395,53221
65334,52912
65334,52598
65395,52290
65515,52000
65515,52000
65690,51739
65690,51739
65912,51517
65914,51515
66173,51342
66293,51292
66463,51222
66772,51161
67086,51161
67394,51222
" /> 
<polyline style="fill-rule:evenodd;"
points="43772,51222
43942,51292
44062,51342
44322,51515
44323,51517
44545,51739
44545,51739
44720,52000
44720,52000
44840,52290
44901,52598
44901,52912
44840,53221
44809,53297
44720,53511
44547,53770
44545,53772
44323,53994
44323,53994
44062,54169
43942,54219
43772,54289
43464,54350
43150,54350
42841,54289
42671,54219
42551,54169
42290,53994
42290,53994
42068,53772
42067,53770
41893,53511
41804,53297
41773,53221
41712,52912
41712,52598
41773,52290
41893,52000
41893,52000
42068,51739
42068,51739
42290,51517
42292,51515
42551,51342
42671,51292
42841,51222
43150,51161
43464,51161
43772,51222
" /> 
<polyline style="fill-rule:evenodd;"
points="36162,52160
36201,52168
36312,52214
36412,52281
36497,52366
36564,52466
36610,52577
36634,52695
36634,52816
36610,52934
36564,53045
36497,53145
36412,53230
36312,53297
36201,53343
36162,53350
36083,53366
35963,53366
35884,53350
35845,53343
35734,53297
35634,53230
35549,53145
35482,53045
35436,52934
35412,52816
35412,52695
35436,52577
35482,52466
35549,52366
35634,52281
35734,52214
35845,52168
35884,52160
35963,52145
36083,52145
36162,52160
" /> 
<polyline style="fill-rule:evenodd;"
points="40099,52160
40138,52168
40249,52214
40349,52281
40434,52366
40501,52466
40547,52577
40571,52695
40571,52816
40547,52934
40501,53045
40434,53145
40349,53230
40249,53297
40138,53343
40099,53350
40020,53366
39900,53366
39821,53350
39782,53343
39671,53297
39571,53230
39486,53145
39419,53045
39373,52934
39350,52816
39350,52695
39373,52577
39419,52466
39486,52366
39571,52281
39671,52214
39782,52168
39821,52160
39900,52145
40020,52145
40099,52160
" /> 
<polyline style="fill-rule:evenodd;"
points="47579,52160
47619,52168
47730,52214
47830,52281
47915,52366
47982,52466
48028,52577
48051,52695
48051,52816
48028,52934
47982,53045
47915,53145
47830,53230
47730,53297
47619,53343
47579,53350
47501,53366
47380,53366
47302,53350
47262,53343
47151,53297
47051,53230
46966,53145
46899,53045
46853,52934
46830,52816
46830,52695
46853,52577
46899,52466
46966,52366
47051,52281
47151,52214
47262,52168
47302,52160
47380,52145
47501,52145
47579,52160
" /> 
<polyline style="fill-rule:evenodd;"
points="51516,52160
51556,52168
51667,52214
51767,52281
51852,52366
51919,52466
51965,52577
51988,52695
51988,52816
51965,52934
51919,53045
51852,53145
51767,53230
51667,53297
51556,53343
51516,53350
51438,53366
51317,53366
51239,53350
51199,53343
51088,53297
50988,53230
50903,53145
50836,53045
50790,52934
50767,52816
50767,52695
50790,52577
50836,52466
50903,52366
50988,52281
51088,52214
51199,52168
51239,52160
51317,52145
51438,52145
51516,52160
" /> 
<polyline style="fill-rule:evenodd;"
points="58997,52160
59036,52168
59147,52214
59247,52281
59332,52366
59399,52466
59445,52577
59468,52695
59468,52816
59445,52934
59399,53045
59332,53145
59247,53230
59147,53297
59036,53343
58997,53350
58918,53366
58798,53366
58719,53350
58680,53343
58569,53297
58469,53230
58383,53145
58317,53045
58271,52934
58247,52816
58247,52695
58271,52577
58317,52466
58383,52366
58469,52281
58569,52214
58680,52168
58719,52160
58798,52145
58918,52145
58997,52160
" /> 
<polyline style="fill-rule:evenodd;"
points="70414,52160
70453,52168
70564,52214
70664,52281
70749,52366
70816,52466
70862,52577
70886,52695
70886,52816
70862,52934
70816,53045
70749,53145
70664,53230
70564,53297
70453,53343
70414,53350
70335,53366
70215,53366
70136,53350
70097,53343
69986,53297
69886,53230
69801,53145
69734,53045
69688,52934
69664,52816
69664,52695
69688,52577
69734,52466
69801,52366
69886,52281
69986,52214
70097,52168
70136,52160
70215,52145
70335,52145
70414,52160
" /> 
<polyline style="fill-rule:evenodd;"
points="74351,52160
74390,52168
74501,52214
74601,52281
74686,52366
74753,52466
74799,52577
74823,52695
74823,52816
74799,52934
74753,53045
74686,53145
74601,53230
74501,53297
74390,53343
74351,53350
74272,53366
74152,53366
74073,53350
74034,53343
73923,53297
73823,53230
73738,53145
73671,53045
73625,52934
73601,52816
73601,52695
73625,52577
73671,52466
73738,52366
73823,52281
73923,52214
74034,52168
74073,52160
74152,52145
74272,52145
74351,52160
" /> 
<polyline style="fill-rule:evenodd;"
points="62934,52160
62973,52168
63084,52214
63184,52281
63269,52366
63336,52466
63382,52577
63405,52695
63405,52816
63382,52934
63336,53045
63269,53145
63184,53230
63084,53297
62973,53343
62934,53350
62855,53366
62735,53366
62656,53350
62617,53343
62506,53297
62406,53230
62320,53145
62254,53045
62208,52934
62184,52816
62184,52695
62208,52577
62254,52466
62320,52366
62406,52281
62506,52214
62617,52168
62656,52160
62735,52145
62855,52145
62934,52160
" /> 
<polyline style="fill-rule:evenodd;"
points="69823,48105
69863,48113
69974,48159
70074,48226
70159,48311
70226,48411
70272,48522
70295,48640
70295,48760
70272,48878
70226,48990
70159,49090
70074,49175
69974,49241
69863,49287
69823,49295
69745,49311
69624,49311
69546,49295
69506,49287
69395,49241
69295,49175
69210,49090
69143,48990
69097,48878
69074,48760
69074,48640
69097,48522
69143,48411
69210,48311
69295,48226
69395,48159
69506,48113
69546,48105
69624,48090
69745,48090
69823,48105
" /> 
<polyline style="fill-rule:evenodd;"
points="55636,47895
55698,47907
55734,47922
55811,47954
55912,48022
55999,48108
56067,48210
56113,48323
56137,48442
56137,48565
56113,48684
56067,48797
55999,48899
55912,48985
55811,49053
55745,49080
55698,49100
55578,49124
55456,49124
55336,49100
55290,49080
55223,49053
55122,48985
55036,48899
54968,48797
54921,48684
54897,48565
54897,48442
54921,48323
54968,48210
55036,48108
55122,48022
55223,47954
55301,47922
55336,47907
55398,47895
55456,47883
55578,47883
55636,47895
" /> 
<polyline style="fill-rule:evenodd;"
points="61136,47895
61198,47907
61234,47922
61311,47954
61412,48022
61499,48108
61567,48210
61613,48323
61637,48442
61637,48565
61613,48684
61567,48797
61499,48899
61412,48985
61311,49053
61245,49080
61198,49100
61078,49124
60956,49124
60836,49100
60790,49080
60723,49053
60622,48985
60536,48899
60468,48797
60421,48684
60397,48565
60397,48442
60421,48323
60468,48210
60536,48108
60622,48022
60723,47954
60801,47922
60836,47907
60898,47895
60956,47883
61078,47883
61136,47895
" /> 
<polyline style="fill-rule:evenodd;"
points="47972,47972
47302,47972
47302,47302
47972,47302
47972,47972
" /> 
<polyline style="fill-rule:evenodd;"
points="48719,47315
48780,47340
48835,47377
48882,47424
48918,47479
48944,47540
48957,47604
48957,47670
48944,47735
48918,47796
48882,47851
48835,47898
48780,47934
48719,47959
48655,47972
48589,47972
48524,47959
48463,47934
48408,47898
48361,47851
48325,47796
48299,47735
48287,47670
48287,47604
48299,47540
48325,47479
48361,47424
48408,47377
48463,47340
48524,47315
48589,47302
48655,47302
48719,47315
" /> 
<polyline style="fill-rule:evenodd;"
points="39994,47322
39998,47331
40004,47338
40012,47345
40020,47349
40030,47352
40039,47353
40049,47352
40058,47349
40067,47345
40070,47342
40076,47337
40091,47329
40108,47324
40128,47322
40399,47322
40419,47324
40435,47329
40450,47337
40464,47348
40475,47362
40482,47369
40490,47374
40499,47378
40508,47380
40518,47380
40528,47378
40536,47374
40544,47369
40551,47362
40563,47348
40576,47337
40591,47329
40608,47324
40628,47322
40899,47322
40919,47324
40935,47329
40950,47337
40964,47348
40975,47362
40983,47377
40988,47393
40990,47413
40990,47861
40988,47881
40983,47898
40975,47913
40964,47926
40950,47937
40935,47946
40919,47951
40899,47953
40628,47953
40608,47951
40591,47946
40576,47937
40563,47926
40551,47913
40545,47906
40536,47900
40528,47897
40518,47895
40508,47895
40499,47897
40490,47900
40482,47906
40475,47913
40464,47926
40450,47937
40435,47946
40419,47951
40399,47953
40128,47953
40108,47951
40091,47946
40076,47937
40070,47933
40062,47928
40054,47924
40044,47922
40034,47922
40025,47924
40016,47928
40008,47933
40001,47940
39996,47948
39994,47953
39537,47953
39537,47322
39994,47322
39994,47322
" /> 
<polyline style="fill-rule:evenodd;"
points="42356,47322
42361,47331
42367,47338
42374,47345
42383,47349
42392,47352
42401,47353
42411,47352
42420,47349
42429,47345
42433,47342
42438,47337
42454,47329
42470,47324
42490,47322
42761,47322
42781,47324
42797,47329
42813,47337
42826,47348
42837,47362
42844,47369
42852,47374
42861,47378
42871,47380
42880,47380
42890,47378
42899,47374
42907,47369
42914,47362
42925,47348
42938,47337
42954,47329
42970,47324
42990,47322
43261,47322
43281,47324
43297,47329
43313,47337
43326,47348
43337,47362
43345,47377
43350,47393
43352,47413
43352,47861
43350,47881
43345,47898
43337,47913
43326,47926
43313,47937
43297,47946
43281,47951
43261,47953
42990,47953
42970,47951
42954,47946
42938,47937
42925,47926
42914,47913
42907,47906
42899,47900
42890,47897
42880,47895
42871,47895
42861,47897
42852,47900
42844,47906
42837,47913
42826,47926
42813,47937
42797,47946
42781,47951
42761,47953
42490,47953
42470,47951
42454,47946
42438,47937
42433,47933
42425,47928
42416,47924
42406,47922
42397,47922
42387,47924
42378,47928
42370,47933
42363,47940
42358,47948
42356,47953
41899,47953
41899,47322
42356,47322
42356,47322
" /> 
<polyline style="fill-rule:evenodd;"
points="44718,47322
44723,47331
44729,47338
44736,47345
44745,47349
44754,47352
44764,47353
44773,47352
44783,47349
44791,47345
44795,47342
44801,47337
44816,47329
44832,47324
44852,47322
45123,47322
45143,47324
45160,47329
45175,47337
45188,47348
45200,47362
45206,47369
45214,47374
45223,47378
45233,47380
45243,47380
45252,47378
45261,47374
45269,47369
45276,47362
45287,47348
45301,47337
45316,47329
45332,47324
45352,47322
45623,47322
45643,47324
45660,47329
45675,47337
45688,47348
45699,47362
45707,47377
45713,47393
45714,47413
45714,47861
45713,47881
45707,47898
45699,47913
45688,47926
45675,47937
45660,47946
45643,47951
45623,47953
45352,47953
45332,47951
45316,47946
45301,47937
45287,47926
45276,47913
45269,47906
45261,47900
45252,47897
45243,47895
45233,47895
45223,47897
45214,47900
45206,47906
45200,47913
45188,47926
45175,47937
45160,47946
45143,47951
45123,47953
44852,47953
44832,47951
44816,47946
44801,47937
44795,47933
44787,47928
44778,47924
44768,47922
44759,47922
44749,47924
44740,47928
44732,47933
44726,47940
44720,47948
44718,47953
44261,47953
44261,47322
44718,47322
44718,47322
" /> 
<polyline style="fill-rule:evenodd;"
points="37632,47322
37636,47331
37642,47338
37650,47345
37658,47349
37667,47352
37677,47353
37687,47352
37696,47349
37704,47345
37708,47342
37714,47337
37729,47329
37746,47324
37766,47322
38037,47322
38056,47324
38073,47329
38088,47337
38102,47348
38113,47362
38120,47369
38128,47374
38137,47378
38146,47380
38156,47380
38165,47378
38174,47374
38182,47369
38189,47362
38200,47348
38214,47337
38229,47329
38246,47324
38266,47322
38537,47322
38556,47324
38573,47329
38588,47337
38602,47348
38613,47362
38621,47377
38626,47393
38628,47413
38628,47861
38626,47881
38621,47898
38613,47913
38602,47926
38588,47937
38573,47946
38556,47951
38537,47953
38266,47953
38246,47951
38229,47946
38214,47937
38200,47926
38189,47913
38182,47906
38174,47900
38165,47897
38156,47895
38146,47895
38137,47897
38128,47900
38120,47906
38113,47913
38102,47926
38088,47937
38073,47946
38056,47951
38037,47953
37766,47953
37746,47951
37729,47946
37714,47937
37708,47933
37700,47928
37691,47924
37682,47922
37672,47922
37663,47924
37654,47928
37646,47933
37639,47940
37634,47948
37632,47953
37174,47953
37174,47322
37631,47322
37632,47322
" /> 
<polyline style="fill-rule:evenodd;"
points="51869,47276
51930,47301
51985,47338
52031,47384
52068,47439
52093,47500
52106,47565
52106,47631
52093,47696
52068,47757
52031,47812
51985,47858
51930,47895
51869,47920
51804,47933
51738,47933
51673,47920
51612,47895
51558,47858
51511,47812
51474,47757
51449,47696
51436,47631
51436,47565
51449,47500
51474,47439
51511,47384
51558,47338
51612,47301
51673,47276
51738,47263
51804,47263
51869,47276
" /> 
<polyline style="fill-rule:evenodd;"
points="51122,47933
50452,47933
50452,47263
51122,47263
51122,47933
" /> 
<polyline style="fill-rule:evenodd;"
points="71279,45295
68090,45295
68090,42105
71279,42105
71279,45295
" /> 
<polyline style="fill-rule:evenodd;"
points="43427,43858
43427,43858
43427,43858
43491,43877
43491,43877
43491,43877
43549,43909
43600,43950
43642,44001
43673,44060
43692,44123
43698,44188
43692,44254
43673,44317
43642,44376
43600,44427
43549,44468
43491,44500
43491,44500
43491,44500
43427,44519
43427,44519
43427,44519
43378,44524
43345,44524
43296,44519
43296,44519
43296,44519
43233,44500
43233,44500
43233,44500
43175,44468
43124,44427
43082,44376
43051,44317
43032,44254
43025,44188
43032,44123
43051,44060
43082,44001
43124,43950
43175,43909
43233,43877
43233,43877
43233,43877
43296,43858
43296,43858
43296,43858
43345,43853
43378,43853
43427,43858
" /> 
<polyline style="fill-rule:evenodd;"
points="49427,43858
49427,43858
49427,43858
49491,43877
49491,43877
49491,43877
49549,43909
49600,43950
49642,44001
49673,44060
49692,44123
49698,44188
49692,44254
49673,44317
49642,44376
49600,44427
49549,44468
49491,44500
49491,44500
49491,44500
49427,44519
49427,44519
49427,44519
49378,44524
49345,44524
49296,44519
49296,44519
49296,44519
49233,44500
49233,44500
49233,44500
49175,44468
49124,44427
49082,44376
49051,44317
49032,44254
49025,44188
49032,44123
49051,44060
49082,44001
49124,43950
49175,43909
49233,43877
49233,43877
49233,43877
49296,43858
49296,43858
49296,43858
49345,43853
49378,43853
49427,43858
" /> 
<polyline style="fill-rule:evenodd;"
points="51427,43858
51427,43858
51427,43858
51491,43877
51491,43877
51491,43877
51549,43909
51600,43950
51642,44001
51673,44060
51692,44123
51698,44188
51692,44254
51673,44317
51642,44376
51600,44427
51549,44468
51491,44500
51491,44500
51491,44500
51427,44519
51427,44519
51427,44519
51378,44524
51345,44524
51296,44519
51296,44519
51296,44519
51233,44500
51233,44500
51233,44500
51175,44468
51124,44427
51082,44376
51051,44317
51032,44254
51025,44188
51032,44123
51051,44060
51082,44001
51124,43950
51175,43909
51233,43877
51233,43877
51233,43877
51296,43858
51296,43858
51296,43858
51345,43853
51378,43853
51427,43858
" /> 
<polyline style="fill-rule:evenodd;"
points="48427,43858
48427,43858
48427,43858
48491,43877
48491,43877
48491,43877
48549,43909
48600,43950
48642,44001
48673,44060
48692,44123
48698,44188
48692,44254
48673,44317
48642,44376
48600,44427
48549,44468
48491,44500
48491,44500
48491,44500
48427,44519
48427,44519
48427,44519
48378,44524
48345,44524
48296,44519
48296,44519
48296,44519
48233,44500
48233,44500
48233,44500
48175,44468
48124,44427
48082,44376
48051,44317
48032,44254
48025,44188
48032,44123
48051,44060
48082,44001
48124,43950
48175,43909
48233,43877
48233,43877
48233,43877
48296,43858
48296,43858
48296,43858
48345,43853
48378,43853
48427,43858
" /> 
<polyline style="fill-rule:evenodd;"
points="52427,43858
52427,43858
52427,43858
52491,43877
52491,43877
52491,43877
52549,43909
52600,43950
52642,44001
52673,44060
52692,44123
52698,44188
52692,44254
52673,44317
52642,44376
52600,44427
52549,44468
52491,44500
52491,44500
52491,44500
52427,44519
52427,44519
52427,44519
52378,44524
52345,44524
52296,44519
52296,44519
52296,44519
52233,44500
52233,44500
52233,44500
52175,44468
52124,44427
52082,44376
52051,44317
52032,44254
52025,44188
52032,44123
52051,44060
52082,44001
52124,43950
52175,43909
52233,43877
52233,43877
52233,43877
52296,43858
52296,43858
52296,43858
52345,43853
52378,43853
52427,43858
" /> 
<polyline style="fill-rule:evenodd;"
points="47427,43858
47427,43858
47427,43858
47491,43877
47491,43877
47491,43877
47549,43909
47600,43950
47642,44001
47673,44060
47692,44123
47698,44188
47692,44254
47673,44317
47642,44376
47600,44427
47549,44468
47491,44500
47491,44500
47491,44500
47427,44519
47427,44519
47427,44519
47378,44524
47345,44524
47296,44519
47296,44519
47296,44519
47233,44500
47233,44500
47233,44500
47175,44468
47124,44427
47082,44376
47051,44317
47032,44254
47025,44188
47032,44123
47051,44060
47082,44001
47124,43950
47175,43909
47233,43877
47233,43877
47233,43877
47296,43858
47296,43858
47296,43858
47345,43853
47378,43853
47427,43858
" /> 
<polyline style="fill-rule:evenodd;"
points="50427,43858
50427,43858
50427,43858
50491,43877
50491,43877
50491,43877
50549,43909
50600,43950
50642,44001
50673,44060
50692,44123
50698,44188
50692,44254
50673,44317
50642,44376
50600,44427
50549,44468
50491,44500
50491,44500
50491,44500
50427,44519
50427,44519
50427,44519
50378,44524
50345,44524
50296,44519
50296,44519
50296,44519
50233,44500
50233,44500
50233,44500
50175,44468
50124,44427
50082,44376
50051,44317
50032,44254
50025,44188
50032,44123
50051,44060
50082,44001
50124,43950
50175,43909
50233,43877
50233,43877
50233,43877
50296,43858
50296,43858
50296,43858
50345,43853
50378,43853
50427,43858
" /> 
<polyline style="fill-rule:evenodd;"
points="46427,43858
46427,43858
46427,43858
46491,43877
46491,43877
46491,43877
46549,43909
46600,43950
46642,44001
46673,44060
46692,44123
46698,44188
46692,44254
46673,44317
46642,44376
46600,44427
46549,44468
46491,44500
46491,44500
46491,44500
46427,44519
46427,44519
46427,44519
46378,44524
46345,44524
46296,44519
46296,44519
46296,44519
46233,44500
46233,44500
46233,44500
46175,44468
46124,44427
46082,44376
46051,44317
46032,44254
46025,44188
46032,44123
46051,44060
46082,44001
46124,43950
46175,43909
46233,43877
46233,43877
46233,43877
46296,43858
46296,43858
46296,43858
46345,43853
46378,43853
46427,43858
" /> 
<polyline style="fill-rule:evenodd;"
points="45427,43858
45427,43858
45427,43858
45491,43877
45491,43877
45491,43877
45549,43909
45600,43950
45642,44001
45673,44060
45692,44123
45698,44188
45692,44254
45673,44317
45642,44376
45600,44427
45549,44468
45491,44500
45491,44500
45491,44500
45427,44519
45427,44519
45427,44519
45378,44524
45345,44524
45296,44519
45296,44519
45296,44519
45233,44500
45233,44500
45233,44500
45175,44468
45124,44427
45082,44376
45051,44317
45032,44254
45025,44188
45032,44123
45051,44060
45082,44001
45124,43950
45175,43909
45233,43877
45233,43877
45233,43877
45296,43858
45296,43858
45296,43858
45345,43853
45378,43853
45427,43858
" /> 
<polyline style="fill-rule:evenodd;"
points="44427,43858
44427,43858
44427,43858
44491,43877
44491,43877
44491,43877
44549,43909
44600,43950
44642,44001
44673,44060
44692,44123
44698,44188
44692,44254
44673,44317
44642,44376
44600,44427
44549,44468
44491,44500
44491,44500
44491,44500
44427,44519
44427,44519
44427,44519
44378,44524
44345,44524
44296,44519
44296,44519
44296,44519
44233,44500
44233,44500
44233,44500
44175,44468
44124,44427
44082,44376
44051,44317
44032,44254
44025,44188
44032,44123
44051,44060
44082,44001
44124,43950
44175,43909
44233,43877
44233,43877
44233,43877
44296,43858
44296,43858
44296,43858
44345,43853
44378,43853
44427,43858
" /> 
<polyline style="fill-rule:evenodd;"
points="42427,43858
42427,43858
42427,43858
42491,43877
42491,43877
42491,43877
42549,43909
42600,43950
42642,44001
42673,44060
42692,44123
42698,44188
42692,44254
42673,44317
42642,44376
42600,44427
42549,44468
42491,44500
42491,44500
42491,44500
42427,44519
42427,44519
42427,44519
42378,44524
42345,44524
42296,44519
42296,44519
42296,44519
42233,44500
42233,44500
42233,44500
42175,44468
42124,44427
42082,44376
42051,44317
42032,44254
42025,44188
42032,44123
42051,44060
42082,44001
42124,43950
42175,43909
42233,43877
42233,43877
42233,43877
42296,43858
42296,43858
42296,43858
42345,43853
42378,43853
42427,43858
" /> 
<polyline style="fill-rule:evenodd;"
points="39427,43858
39427,43858
39427,43858
39491,43877
39491,43877
39491,43877
39549,43909
39600,43950
39642,44001
39673,44060
39692,44123
39698,44188
39692,44254
39673,44317
39642,44376
39600,44427
39549,44468
39491,44500
39491,44500
39491,44500
39427,44519
39427,44519
39427,44519
39378,44524
39345,44524
39296,44519
39296,44519
39296,44519
39233,44500
39233,44500
39233,44500
39175,44468
39124,44427
39082,44376
39051,44317
39032,44254
39025,44188
39032,44123
39051,44060
39082,44001
39124,43950
39175,43909
39233,43877
39233,43877
39233,43877
39296,43858
39296,43858
39296,43858
39345,43853
39378,43853
39427,43858
" /> 
<polyline style="fill-rule:evenodd;"
points="41427,43858
41427,43858
41427,43858
41491,43877
41491,43877
41491,43877
41549,43909
41600,43950
41642,44001
41673,44060
41692,44123
41698,44188
41692,44254
41673,44317
41642,44376
41600,44427
41549,44468
41491,44500
41491,44500
41491,44500
41427,44519
41427,44519
41427,44519
41378,44524
41345,44524
41296,44519
41296,44519
41296,44519
41233,44500
41233,44500
41233,44500
41175,44468
41124,44427
41082,44376
41051,44317
41032,44254
41025,44188
41032,44123
41051,44060
41082,44001
41124,43950
41175,43909
41233,43877
41233,43877
41233,43877
41296,43858
41296,43858
41296,43858
41345,43853
41378,43853
41427,43858
" /> 
<polyline style="fill-rule:evenodd;"
points="40427,43858
40427,43858
40427,43858
40491,43877
40491,43877
40491,43877
40549,43909
40600,43950
40642,44001
40673,44060
40692,44123
40698,44188
40692,44254
40673,44317
40642,44376
40600,44427
40549,44468
40491,44500
40491,44500
40491,44500
40427,44519
40427,44519
40427,44519
40378,44524
40345,44524
40296,44519
40296,44519
40296,44519
40233,44500
40233,44500
40233,44500
40175,44468
40124,44427
40082,44376
40051,44317
40032,44254
40025,44188
40032,44123
40051,44060
40082,44001
40124,43950
40175,43909
40233,43877
40233,43877
40233,43877
40296,43858
40296,43858
40296,43858
40345,43853
40378,43853
40427,43858
" /> 
<polyline style="fill-rule:evenodd;"
points="38427,43858
38427,43858
38427,43858
38491,43877
38491,43877
38491,43877
38549,43909
38600,43950
38642,44001
38673,44060
38692,44123
38698,44188
38692,44254
38673,44317
38642,44376
38600,44427
38549,44468
38491,44500
38491,44500
38491,44500
38427,44519
38427,44519
38427,44519
38378,44524
38345,44524
38296,44519
38296,44519
38296,44519
38233,44500
38233,44500
38233,44500
38175,44468
38124,44427
38082,44376
38051,44317
38032,44254
38025,44188
38032,44123
38051,44060
38082,44001
38124,43950
38175,43909
38233,43877
38233,43877
38233,43877
38296,43858
38296,43858
38296,43858
38345,43853
38378,43853
38427,43858
" /> 
<polyline style="fill-rule:evenodd;"
points="69823,38105
69863,38113
69974,38159
70074,38226
70159,38311
70226,38411
70272,38522
70295,38640
70295,38760
70272,38878
70226,38990
70159,39090
70074,39175
69974,39241
69863,39287
69823,39295
69745,39311
69624,39311
69546,39295
69506,39287
69395,39241
69295,39175
69210,39090
69143,38990
69097,38878
69074,38760
69074,38640
69097,38522
69143,38411
69210,38311
69295,38226
69395,38159
69506,38113
69546,38105
69624,38090
69745,38090
69823,38105
" /> 
<polyline style="fill-rule:evenodd;"
points="55698,37907
55745,37927
55811,37954
55912,38022
55999,38108
56067,38210
56113,38323
56137,38442
56137,38565
56113,38684
56067,38797
55999,38899
55912,38985
55811,39053
55745,39080
55698,39100
55638,39112
55578,39124
55456,39124
55396,39112
55336,39100
55290,39080
55223,39053
55122,38985
55036,38899
54968,38797
54921,38684
54897,38565
54897,38442
54921,38323
54968,38210
55036,38108
55122,38022
55223,37954
55290,37927
55336,37907
55456,37883
55578,37883
55698,37907
" /> 
<polyline style="fill-rule:evenodd;"
points="61198,37907
61245,37927
61311,37954
61412,38022
61499,38108
61567,38210
61613,38323
61637,38442
61637,38565
61613,38684
61567,38797
61499,38899
61412,38985
61311,39053
61245,39080
61198,39100
61138,39112
61078,39124
60956,39124
60896,39112
60836,39100
60790,39080
60723,39053
60622,38985
60536,38899
60468,38797
60421,38684
60397,38565
60397,38442
60421,38323
60468,38210
60536,38108
60622,38022
60723,37954
60790,37927
60836,37907
60956,37883
61078,37883
61198,37907
" /> 
<polyline style="fill-rule:evenodd;"
points="51427,37858
51427,37858
51427,37858
51491,37877
51491,37877
51491,37877
51549,37909
51600,37950
51642,38001
51673,38060
51673,38060
51673,38060
51687,38108
51692,38123
51698,38188
51692,38254
51692,38254
51692,38254
51675,38311
51673,38317
51642,38376
51600,38427
51549,38468
51491,38500
51491,38500
51491,38500
51427,38519
51427,38519
51427,38519
51378,38524
51345,38524
51296,38519
51296,38519
51296,38519
51233,38500
51233,38500
51233,38500
51175,38468
51124,38427
51082,38376
51051,38317
51049,38311
51032,38254
51032,38254
51032,38254
51025,38188
51032,38123
51036,38108
51051,38060
51051,38060
51051,38060
51082,38001
51124,37950
51175,37909
51233,37877
51233,37877
51233,37877
51296,37858
51296,37858
51296,37858
51345,37853
51378,37853
51427,37858
" /> 
<polyline style="fill-rule:evenodd;"
points="42427,37858
42427,37858
42427,37858
42491,37877
42491,37877
42491,37877
42549,37909
42600,37950
42642,38001
42673,38060
42673,38060
42673,38060
42687,38108
42692,38123
42698,38188
42692,38254
42692,38254
42692,38254
42675,38311
42673,38317
42642,38376
42600,38427
42549,38468
42491,38500
42491,38500
42491,38500
42427,38519
42427,38519
42427,38519
42378,38524
42345,38524
42296,38519
42296,38519
42296,38519
42233,38500
42233,38500
42233,38500
42175,38468
42124,38427
42082,38376
42051,38317
42049,38311
42032,38254
42032,38254
42032,38254
42025,38188
42032,38123
42036,38108
42051,38060
42051,38060
42051,38060
42082,38001
42124,37950
42175,37909
42233,37877
42233,37877
42233,37877
42296,37858
42296,37858
42296,37858
42345,37853
42378,37853
42427,37858
" /> 
<polyline style="fill-rule:evenodd;"
points="52697,38524
52027,38524
52027,37853
52697,37853
52697,38524
" /> 
<polyline style="fill-rule:evenodd;"
points="50427,37858
50427,37858
50427,37858
50491,37877
50491,37877
50491,37877
50549,37909
50600,37950
50642,38001
50673,38060
50673,38060
50673,38060
50687,38108
50692,38123
50698,38188
50692,38254
50692,38254
50692,38254
50675,38311
50673,38317
50642,38376
50600,38427
50549,38468
50491,38500
50491,38500
50491,38500
50427,38519
50427,38519
50427,38519
50378,38524
50345,38524
50296,38519
50296,38519
50296,38519
50233,38500
50233,38500
50233,38500
50175,38468
50124,38427
50082,38376
50051,38317
50049,38311
50032,38254
50032,38254
50032,38254
50025,38188
50032,38123
50036,38108
50051,38060
50051,38060
50051,38060
50082,38001
50124,37950
50175,37909
50233,37877
50233,37877
50233,37877
50296,37858
50296,37858
50296,37858
50345,37853
50378,37853
50427,37858
" /> 
<polyline style="fill-rule:evenodd;"
points="49427,37858
49427,37858
49427,37858
49491,37877
49491,37877
49491,37877
49549,37909
49600,37950
49642,38001
49673,38060
49673,38060
49673,38060
49687,38108
49692,38123
49698,38188
49692,38254
49692,38254
49692,38254
49675,38311
49673,38317
49642,38376
49600,38427
49549,38468
49491,38500
49491,38500
49491,38500
49427,38519
49427,38519
49427,38519
49378,38524
49345,38524
49296,38519
49296,38519
49296,38519
49233,38500
49233,38500
49233,38500
49175,38468
49124,38427
49082,38376
49051,38317
49049,38311
49032,38254
49032,38254
49032,38254
49025,38188
49032,38123
49036,38108
49051,38060
49051,38060
49051,38060
49082,38001
49124,37950
49175,37909
49233,37877
49233,37877
49233,37877
49296,37858
49296,37858
49296,37858
49345,37853
49378,37853
49427,37858
" /> 
<polyline style="fill-rule:evenodd;"
points="48427,37858
48427,37858
48427,37858
48491,37877
48491,37877
48491,37877
48549,37909
48600,37950
48642,38001
48673,38060
48673,38060
48673,38060
48687,38108
48692,38123
48698,38188
48692,38254
48692,38254
48692,38254
48675,38311
48673,38317
48642,38376
48600,38427
48549,38468
48491,38500
48491,38500
48491,38500
48427,38519
48427,38519
48427,38519
48378,38524
48345,38524
48296,38519
48296,38519
48296,38519
48233,38500
48233,38500
48233,38500
48175,38468
48124,38427
48082,38376
48051,38317
48049,38311
48032,38254
48032,38254
48032,38254
48025,38188
48032,38123
48036,38108
48051,38060
48051,38060
48051,38060
48082,38001
48124,37950
48175,37909
48233,37877
48233,37877
48233,37877
48296,37858
48296,37858
48296,37858
48345,37853
48378,37853
48427,37858
" /> 
<polyline style="fill-rule:evenodd;"
points="47427,37858
47427,37858
47427,37858
47491,37877
47491,37877
47491,37877
47549,37909
47600,37950
47642,38001
47673,38060
47673,38060
47673,38060
47687,38108
47692,38123
47698,38188
47692,38254
47692,38254
47692,38254
47675,38311
47673,38317
47642,38376
47600,38427
47549,38468
47491,38500
47491,38500
47491,38500
47427,38519
47427,38519
47427,38519
47378,38524
47345,38524
47296,38519
47296,38519
47296,38519
47233,38500
47233,38500
47233,38500
47175,38468
47124,38427
47082,38376
47051,38317
47049,38311
47032,38254
47032,38254
47032,38254
47025,38188
47032,38123
47036,38108
47051,38060
47051,38060
47051,38060
47082,38001
47124,37950
47175,37909
47233,37877
47233,37877
47233,37877
47296,37858
47296,37858
47296,37858
47345,37853
47378,37853
47427,37858
" /> 
<polyline style="fill-rule:evenodd;"
points="44427,37858
44427,37858
44427,37858
44491,37877
44491,37877
44491,37877
44549,37909
44600,37950
44642,38001
44673,38060
44673,38060
44673,38060
44687,38108
44692,38123
44698,38188
44692,38254
44692,38254
44692,38254
44675,38311
44673,38317
44642,38376
44600,38427
44549,38468
44491,38500
44491,38500
44491,38500
44427,38519
44427,38519
44427,38519
44378,38524
44345,38524
44296,38519
44296,38519
44296,38519
44233,38500
44233,38500
44233,38500
44175,38468
44124,38427
44082,38376
44051,38317
44049,38311
44032,38254
44032,38254
44032,38254
44025,38188
44032,38123
44036,38108
44051,38060
44051,38060
44051,38060
44082,38001
44124,37950
44175,37909
44233,37877
44233,37877
44233,37877
44296,37858
44296,37858
44296,37858
44345,37853
44378,37853
44427,37858
" /> 
<polyline style="fill-rule:evenodd;"
points="41427,37858
41427,37858
41427,37858
41491,37877
41491,37877
41491,37877
41549,37909
41600,37950
41642,38001
41673,38060
41673,38060
41673,38060
41687,38108
41692,38123
41698,38188
41692,38254
41692,38254
41692,38254
41675,38311
41673,38317
41642,38376
41600,38427
41549,38468
41491,38500
41491,38500
41491,38500
41427,38519
41427,38519
41427,38519
41378,38524
41345,38524
41296,38519
41296,38519
41296,38519
41233,38500
41233,38500
41233,38500
41175,38468
41124,38427
41082,38376
41051,38317
41049,38311
41032,38254
41032,38254
41032,38254
41025,38188
41032,38123
41036,38108
41051,38060
41051,38060
41051,38060
41082,38001
41124,37950
41175,37909
41233,37877
41233,37877
41233,37877
41296,37858
41296,37858
41296,37858
41345,37853
41378,37853
41427,37858
" /> 
<polyline style="fill-rule:evenodd;"
points="40427,37858
40427,37858
40427,37858
40491,37877
40491,37877
40491,37877
40549,37909
40600,37950
40642,38001
40673,38060
40673,38060
40673,38060
40687,38108
40692,38123
40698,38188
40692,38254
40692,38254
40692,38254
40675,38311
40673,38317
40642,38376
40600,38427
40549,38468
40491,38500
40491,38500
40491,38500
40427,38519
40427,38519
40427,38519
40378,38524
40345,38524
40296,38519
40296,38519
40296,38519
40233,38500
40233,38500
40233,38500
40175,38468
40124,38427
40082,38376
40051,38317
40049,38311
40032,38254
40032,38254
40032,38254
40025,38188
40032,38123
40036,38108
40051,38060
40051,38060
40051,38060
40082,38001
40124,37950
40175,37909
40233,37877
40233,37877
40233,37877
40296,37858
40296,37858
40296,37858
40345,37853
40378,37853
40427,37858
" /> 
<polyline style="fill-rule:evenodd;"
points="45427,37858
45427,37858
45427,37858
45491,37877
45491,37877
45491,37877
45549,37909
45600,37950
45642,38001
45673,38060
45673,38060
45673,38060
45687,38108
45692,38123
45698,38188
45692,38254
45692,38254
45692,38254
45675,38311
45673,38317
45642,38376
45600,38427
45549,38468
45491,38500
45491,38500
45491,38500
45427,38519
45427,38519
45427,38519
45378,38524
45345,38524
45296,38519
45296,38519
45296,38519
45233,38500
45233,38500
45233,38500
45175,38468
45124,38427
45082,38376
45051,38317
45049,38311
45032,38254
45032,38254
45032,38254
45025,38188
45032,38123
45036,38108
45051,38060
45051,38060
45051,38060
45082,38001
45124,37950
45175,37909
45233,37877
45233,37877
45233,37877
45296,37858
45296,37858
45296,37858
45345,37853
45378,37853
45427,37858
" /> 
<polyline style="fill-rule:evenodd;"
points="39427,37858
39427,37858
39427,37858
39491,37877
39491,37877
39491,37877
39549,37909
39600,37950
39642,38001
39673,38060
39673,38060
39673,38060
39687,38108
39692,38123
39698,38188
39692,38254
39692,38254
39692,38254
39675,38311
39673,38317
39642,38376
39600,38427
39549,38468
39491,38500
39491,38500
39491,38500
39427,38519
39427,38519
39427,38519
39378,38524
39345,38524
39296,38519
39296,38519
39296,38519
39233,38500
39233,38500
39233,38500
39175,38468
39124,38427
39082,38376
39051,38317
39049,38311
39032,38254
39032,38254
39032,38254
39025,38188
39032,38123
39036,38108
39051,38060
39051,38060
39051,38060
39082,38001
39124,37950
39175,37909
39233,37877
39233,37877
39233,37877
39296,37858
39296,37858
39296,37858
39345,37853
39378,37853
39427,37858
" /> 
<polyline style="fill-rule:evenodd;"
points="43427,37858
43427,37858
43427,37858
43491,37877
43491,37877
43491,37877
43549,37909
43600,37950
43642,38001
43673,38060
43673,38060
43673,38060
43687,38108
43692,38123
43698,38188
43692,38254
43692,38254
43692,38254
43675,38311
43673,38317
43642,38376
43600,38427
43549,38468
43491,38500
43491,38500
43491,38500
43427,38519
43427,38519
43427,38519
43378,38524
43345,38524
43296,38519
43296,38519
43296,38519
43233,38500
43233,38500
43233,38500
43175,38468
43124,38427
43082,38376
43051,38317
43049,38311
43032,38254
43032,38254
43032,38254
43025,38188
43032,38123
43036,38108
43051,38060
43051,38060
43051,38060
43082,38001
43124,37950
43175,37909
43233,37877
43233,37877
43233,37877
43296,37858
43296,37858
43296,37858
43345,37853
43378,37853
43427,37858
" /> 
<polyline style="fill-rule:evenodd;"
points="38427,37858
38427,37858
38427,37858
38491,37877
38491,37877
38491,37877
38549,37909
38600,37950
38642,38001
38673,38060
38673,38060
38673,38060
38687,38108
38692,38123
38698,38188
38692,38254
38692,38254
38692,38254
38675,38311
38673,38317
38642,38376
38600,38427
38549,38468
38491,38500
38491,38500
38491,38500
38427,38519
38427,38519
38427,38519
38378,38524
38345,38524
38296,38519
38296,38519
38296,38519
38233,38500
38233,38500
38233,38500
38175,38468
38124,38427
38082,38376
38051,38317
38049,38311
38032,38254
38032,38254
38032,38254
38025,38188
38032,38123
38036,38108
38051,38060
38051,38060
38051,38060
38082,38001
38124,37950
38175,37909
38233,37877
38233,37877
38233,37877
38296,37858
38296,37858
38296,37858
38345,37853
38378,37853
38427,37858
" /> 
<polyline style="fill-rule:evenodd;"
points="46427,37858
46427,37858
46427,37858
46491,37877
46491,37877
46491,37877
46549,37909
46600,37950
46642,38001
46673,38060
46673,38060
46673,38060
46687,38108
46692,38123
46698,38188
46692,38254
46692,38254
46692,38254
46675,38311
46673,38317
46642,38376
46600,38427
46549,38468
46491,38500
46491,38500
46491,38500
46427,38519
46427,38519
46427,38519
46378,38524
46345,38524
46296,38519
46296,38519
46296,38519
46233,38500
46233,38500
46233,38500
46175,38468
46124,38427
46082,38376
46051,38317
46049,38311
46032,38254
46032,38254
46032,38254
46025,38188
46032,38123
46036,38108
46051,38060
46051,38060
46051,38060
46082,38001
46124,37950
46175,37909
46233,37877
46233,37877
46233,37877
46296,37858
46296,37858
46296,37858
46345,37853
46378,37853
46427,37858
" /> 
<polyline style="fill-rule:evenodd;"
points="64884,35822
64959,35853
65027,35899
65085,35956
65130,36024
65161,36099
65177,36179
65177,36261
65161,36341
65130,36416
65085,36484
65027,36541
64959,36587
64884,36618
64804,36634
64723,36634
64643,36618
64567,36587
64500,36541
64442,36484
64397,36416
64365,36341
64350,36261
64350,36179
64365,36099
64397,36024
64442,35956
64500,35899
64567,35853
64643,35822
64723,35806
64804,35806
64884,35822
" /> 
<polyline style="fill-rule:evenodd;"
points="68427,35822
68503,35853
68570,35899
68628,35956
68673,36024
68704,36099
68720,36179
68720,36261
68704,36341
68673,36416
68628,36484
68570,36541
68503,36587
68427,36618
68347,36634
68266,36634
68186,36618
68111,36587
68043,36541
67985,36484
67940,36416
67909,36341
67893,36261
67893,36179
67909,36099
67940,36024
67985,35956
68043,35899
68111,35853
68186,35822
68266,35806
68347,35806
68427,35822
" /> 
<polyline style="fill-rule:evenodd;"
points="71497,35349
71536,35357
71647,35403
71747,35470
71832,35555
71899,35655
71920,35706
71945,35766
71968,35884
71968,36005
71965,36022
71945,36122
71899,36234
71832,36334
71747,36419
71647,36486
71536,36532
71497,36539
71418,36555
71298,36555
71219,36539
71180,36532
71069,36486
70969,36419
70883,36334
70817,36234
70771,36122
70751,36022
70747,36005
70747,35884
70771,35766
70796,35706
70817,35655
70883,35555
70969,35470
71069,35403
71180,35357
71219,35349
71298,35334
71418,35334
71497,35349
" /> 
<polyline style="fill-rule:evenodd;"
points="37126,35349
37166,35357
37277,35403
37377,35470
37462,35555
37529,35655
37550,35706
37575,35766
37598,35884
37598,36005
37595,36022
37575,36122
37529,36234
37462,36334
37377,36419
37277,36486
37166,36532
37126,36539
37048,36555
36928,36555
36849,36539
36810,36532
36698,36486
36598,36419
36513,36334
36447,36234
36401,36122
36381,36022
36377,36005
36377,35884
36401,35766
36426,35706
36447,35655
36513,35555
36598,35470
36698,35403
36810,35357
36849,35349
36928,35334
37048,35334
37126,35349
" /> 
<polyline style="fill-rule:evenodd;"
points="39016,35349
39056,35357
39167,35403
39267,35470
39352,35555
39419,35655
39439,35706
39465,35766
39488,35884
39488,36005
39485,36022
39465,36122
39419,36234
39352,36334
39267,36419
39167,36486
39056,36532
39016,36539
38938,36555
38817,36555
38739,36539
38699,36532
38588,36486
38488,36419
38403,36334
38336,36234
38290,36122
38270,36022
38267,36005
38267,35884
38290,35766
38315,35706
38336,35655
38403,35555
38488,35470
38588,35403
38699,35357
38739,35349
38817,35334
38938,35334
39016,35349
" /> 
<polyline style="fill-rule:evenodd;"
points="48583,35349
48622,35357
48734,35403
48834,35470
48919,35555
48986,35655
49006,35706
49032,35766
49055,35884
49055,36005
49051,36022
49032,36122
48986,36234
48919,36334
48834,36419
48734,36486
48622,36532
48583,36539
48505,36555
48384,36555
48306,36539
48266,36532
48155,36486
48055,36419
47970,36334
47903,36234
47857,36122
47837,36022
47834,36005
47834,35884
47857,35766
47882,35706
47903,35655
47970,35555
48055,35470
48155,35403
48266,35357
48306,35349
48384,35334
48505,35334
48583,35349
" /> 
<polyline style="fill-rule:evenodd;"
points="50473,35349
50512,35357
50623,35403
50723,35470
50808,35555
50875,35655
50896,35706
50921,35766
50945,35884
50945,36005
50941,36022
50921,36122
50875,36234
50808,36334
50723,36419
50623,36486
50512,36532
50473,36539
50394,36555
50274,36555
50195,36539
50156,36532
50045,36486
49945,36419
49860,36334
49793,36234
49747,36122
49727,36022
49724,36005
49724,35884
49747,35766
49772,35706
49793,35655
49860,35555
49945,35470
50045,35403
50156,35357
50195,35349
50274,35334
50394,35334
50473,35349
" /> 
<polyline style="fill-rule:evenodd;"
points="60040,35349
60079,35357
60190,35403
60290,35470
60375,35555
60442,35655
60463,35706
60488,35766
60512,35884
60512,36005
60508,36022
60488,36122
60442,36234
60375,36334
60290,36419
60190,36486
60079,36532
60040,36539
59961,36555
59841,36555
59762,36539
59723,36532
59612,36486
59512,36419
59427,36334
59360,36234
59314,36122
59294,36022
59290,36005
59290,35884
59314,35766
59339,35706
59360,35655
59427,35555
59512,35470
59612,35403
59723,35357
59762,35349
59841,35334
59961,35334
60040,35349
" /> 
<polyline style="fill-rule:evenodd;"
points="61930,35349
61969,35357
62080,35403
62180,35470
62265,35555
62332,35655
62353,35706
62378,35766
62401,35884
62401,36005
62398,36022
62378,36122
62332,36234
62265,36334
62180,36419
62080,36486
61969,36532
61930,36539
61851,36555
61731,36555
61652,36539
61613,36532
61502,36486
61402,36419
61317,36334
61250,36234
61204,36122
61184,36022
61180,36005
61180,35884
61204,35766
61229,35706
61250,35655
61317,35555
61402,35470
61502,35403
61613,35357
61652,35349
61731,35334
61851,35334
61930,35349
" /> 
<polyline style="fill-rule:evenodd;"
points="73386,35349
73426,35357
73537,35403
73637,35470
73722,35555
73789,35655
73810,35706
73835,35766
73858,35884
73858,36005
73855,36022
73835,36122
73789,36234
73722,36334
73637,36419
73537,36486
73426,36532
73386,36539
73308,36555
73187,36555
73109,36539
73069,36532
72958,36486
72858,36419
72773,36334
72706,36234
72660,36122
72640,36022
72637,36005
72637,35884
72660,35766
72686,35706
72706,35655
72773,35555
72858,35470
72958,35403
73069,35357
73109,35349
73187,35334
73308,35334
73386,35349
" /> 
<polyline style="fill-rule:evenodd;"
points="57010,35428
57085,35460
57153,35505
57211,35563
57256,35630
57287,35706
57303,35786
57303,35867
57287,35947
57256,36022
57211,36090
57153,36148
57085,36193
57010,36224
56930,36240
56849,36240
56769,36224
56693,36193
56625,36148
56568,36090
56523,36022
56491,35947
56475,35867
56475,35786
56491,35706
56523,35630
56568,35563
56625,35505
56693,35460
56769,35428
56849,35412
56930,35412
57010,35428
" /> 
<polyline style="fill-rule:evenodd;"
points="53467,35428
53542,35460
53610,35505
53667,35563
53713,35630
53744,35706
53760,35786
53760,35867
53744,35947
53713,36022
53667,36090
53610,36148
53542,36193
53467,36224
53387,36240
53305,36240
53225,36224
53150,36193
53082,36148
53025,36090
52979,36022
52948,35947
52932,35867
52932,35786
52948,35706
52979,35630
53025,35563
53082,35505
53150,35460
53225,35428
53305,35412
53387,35412
53467,35428
" /> 
<polyline style="fill-rule:evenodd;"
points="61930,33499
61969,33507
62080,33553
62180,33620
62265,33705
62332,33805
62378,33916
62378,33916
62401,34034
62401,34154
62386,34233
62378,34272
62332,34383
62265,34483
62180,34568
62080,34635
61969,34681
61930,34689
61851,34705
61731,34705
61652,34689
61613,34681
61502,34635
61402,34568
61317,34483
61250,34383
61204,34272
61196,34233
61180,34154
61180,34034
61204,33916
61204,33916
61250,33805
61317,33705
61402,33620
61502,33553
61613,33507
61652,33499
61731,33483
61851,33483
61930,33499
" /> 
<polyline style="fill-rule:evenodd;"
points="71497,33499
71536,33507
71647,33553
71747,33620
71832,33705
71899,33805
71945,33916
71945,33916
71968,34034
71968,34154
71953,34233
71945,34272
71899,34383
71832,34483
71747,34568
71647,34635
71536,34681
71497,34689
71418,34705
71298,34705
71219,34689
71180,34681
71069,34635
70969,34568
70883,34483
70817,34383
70771,34272
70763,34233
70747,34154
70747,34034
70771,33916
70771,33916
70817,33805
70883,33705
70969,33620
71069,33553
71180,33507
71219,33499
71298,33483
71418,33483
71497,33499
" /> 
<polyline style="fill-rule:evenodd;"
points="73386,33499
73426,33507
73537,33553
73637,33620
73722,33705
73789,33805
73835,33916
73835,33916
73858,34034
73858,34154
73843,34233
73835,34272
73789,34383
73722,34483
73637,34568
73537,34635
73426,34681
73386,34689
73308,34705
73187,34705
73109,34689
73069,34681
72958,34635
72858,34568
72773,34483
72706,34383
72660,34272
72653,34233
72637,34154
72637,34034
72660,33916
72660,33916
72706,33805
72773,33705
72858,33620
72958,33553
73069,33507
73109,33499
73187,33483
73308,33483
73386,33499
" /> 
<polyline style="fill-rule:evenodd;"
points="60040,33499
60079,33507
60190,33553
60290,33620
60375,33705
60442,33805
60488,33916
60488,33916
60512,34034
60512,34154
60496,34233
60488,34272
60442,34383
60375,34483
60290,34568
60190,34635
60079,34681
60040,34689
59961,34705
59841,34705
59762,34689
59723,34681
59612,34635
59512,34568
59427,34483
59360,34383
59314,34272
59306,34233
59290,34154
59290,34034
59314,33916
59314,33916
59360,33805
59427,33705
59512,33620
59612,33553
59723,33507
59762,33499
59841,33483
59961,33483
60040,33499
" /> 
<polyline style="fill-rule:evenodd;"
points="48583,33499
48622,33507
48734,33553
48834,33620
48919,33705
48986,33805
49032,33916
49032,33916
49055,34034
49055,34154
49039,34233
49032,34272
48986,34383
48919,34483
48834,34568
48734,34635
48622,34681
48583,34689
48505,34705
48384,34705
48306,34689
48266,34681
48155,34635
48055,34568
47970,34483
47903,34383
47857,34272
47849,34233
47834,34154
47834,34034
47857,33916
47857,33916
47903,33805
47970,33705
48055,33620
48155,33553
48266,33507
48306,33499
48384,33483
48505,33483
48583,33499
" /> 
<polyline style="fill-rule:evenodd;"
points="50473,33499
50512,33507
50623,33553
50723,33620
50808,33705
50875,33805
50921,33916
50921,33916
50945,34034
50945,34154
50929,34233
50921,34272
50875,34383
50808,34483
50723,34568
50623,34635
50512,34681
50473,34689
50394,34705
50274,34705
50195,34689
50156,34681
50045,34635
49945,34568
49860,34483
49793,34383
49747,34272
49739,34233
49724,34154
49724,34034
49747,33916
49747,33916
49793,33805
49860,33705
49945,33620
50045,33553
50156,33507
50195,33499
50274,33483
50394,33483
50473,33499
" /> 
<polyline style="fill-rule:evenodd;"
points="37126,33499
37166,33507
37277,33553
37377,33620
37462,33705
37529,33805
37575,33916
37575,33916
37598,34034
37598,34154
37583,34233
37575,34272
37529,34383
37462,34483
37377,34568
37277,34635
37166,34681
37126,34689
37048,34705
36928,34705
36849,34689
36810,34681
36698,34635
36598,34568
36513,34483
36447,34383
36401,34272
36393,34233
36377,34154
36377,34034
36401,33916
36401,33916
36447,33805
36513,33705
36598,33620
36698,33553
36810,33507
36849,33499
36928,33483
37048,33483
37126,33499
" /> 
<polyline style="fill-rule:evenodd;"
points="39016,33499
39056,33507
39167,33553
39267,33620
39352,33705
39419,33805
39465,33916
39465,33916
39488,34034
39488,34154
39472,34233
39465,34272
39419,34383
39352,34483
39267,34568
39167,34635
39056,34681
39016,34689
38938,34705
38817,34705
38739,34689
38699,34681
38588,34635
38488,34568
38403,34483
38336,34383
38290,34272
38282,34233
38267,34154
38267,34034
38290,33916
38290,33916
38336,33805
38403,33705
38488,33620
38588,33553
38699,33507
38739,33499
38817,33483
38938,33483
39016,33499
" /> 
<polyline style="fill-rule:evenodd;"
points="54848,33543
54853,33551
54859,33559
54866,33565
54875,33570
54884,33572
54894,33573
54903,33572
54912,33570
54921,33565
54925,33562
54930,33558
54946,33549
54962,33544
54982,33542
55253,33542
55273,33544
55289,33549
55305,33558
55318,33569
55330,33582
55336,33589
55344,33595
55353,33598
55363,33600
55372,33600
55382,33598
55391,33595
55399,33589
55406,33582
55417,33569
55430,33558
55446,33549
55462,33544
55482,33542
55753,33542
55773,33544
55789,33549
55805,33558
55818,33569
55829,33582
55837,33597
55842,33614
55844,33634
55844,34082
55842,34102
55837,34118
55829,34134
55818,34147
55805,34158
55789,34166
55773,34171
55753,34173
55482,34173
55462,34171
55446,34166
55430,34158
55417,34147
55406,34133
55399,34126
55391,34121
55382,34117
55372,34115
55363,34115
55353,34117
55344,34121
55336,34126
55330,34133
55318,34147
55305,34158
55289,34166
55273,34171
55253,34173
54982,34173
54962,34171
54946,34166
54930,34158
54925,34153
54917,34148
54908,34144
54898,34142
54889,34142
54879,34144
54870,34148
54862,34153
54856,34160
54850,34168
54848,34173
54391,34173
54391,33542
54848,33542
54848,33543
" /> 
<polyline style="fill-rule:evenodd;"
points="66265,33543
66270,33551
66276,33559
66284,33565
66292,33570
66301,33572
66311,33573
66321,33572
66330,33570
66338,33565
66342,33562
66348,33558
66363,33549
66380,33544
66399,33542
66671,33542
66690,33544
66707,33549
66722,33558
66736,33569
66747,33582
66754,33589
66762,33595
66771,33598
66780,33600
66790,33600
66799,33598
66808,33595
66816,33589
66823,33582
66834,33569
66848,33558
66863,33549
66880,33544
66899,33542
67171,33542
67190,33544
67207,33549
67222,33558
67236,33569
67247,33582
67255,33597
67260,33614
67262,33634
67262,34082
67260,34102
67255,34118
67247,34134
67236,34147
67222,34158
67207,34166
67190,34171
67171,34173
66899,34173
66880,34171
66863,34166
66848,34158
66834,34147
66823,34133
66816,34126
66808,34121
66799,34117
66790,34115
66780,34115
66771,34117
66762,34121
66754,34126
66747,34133
66736,34147
66722,34158
66707,34166
66690,34171
66671,34173
66399,34173
66380,34171
66363,34166
66348,34158
66342,34153
66334,34148
66325,34144
66316,34142
66306,34142
66297,34144
66288,34148
66280,34153
66273,34160
66268,34168
66265,34173
65808,34173
65808,33542
66265,33542
66265,33543
" /> 
<polyline style="fill-rule:evenodd;"
points="71497,31649
71536,31656
71647,31702
71747,31769
71832,31854
71899,31954
71945,32065
71968,32183
71968,32304
71945,32422
71899,32533
71832,32633
71747,32718
71647,32785
71536,32831
71497,32839
71418,32854
71298,32854
71219,32839
71180,32831
71069,32785
70969,32718
70883,32633
70817,32533
70771,32422
70747,32304
70747,32183
70771,32065
70817,31954
70883,31854
70969,31769
71069,31702
71180,31656
71219,31649
71298,31633
71418,31633
71497,31649
" /> 
<polyline style="fill-rule:evenodd;"
points="48583,31649
48622,31656
48734,31702
48834,31769
48919,31854
48986,31954
49032,32065
49055,32183
49055,32304
49032,32422
48986,32533
48919,32633
48834,32718
48734,32785
48622,32831
48583,32839
48505,32854
48384,32854
48306,32839
48266,32831
48155,32785
48055,32718
47970,32633
47903,32533
47857,32422
47834,32304
47834,32183
47857,32065
47903,31954
47970,31854
48055,31769
48155,31702
48266,31656
48306,31649
48384,31633
48505,31633
48583,31649
" /> 
<polyline style="fill-rule:evenodd;"
points="37126,31649
37166,31656
37277,31702
37377,31769
37462,31854
37529,31954
37575,32065
37598,32183
37598,32304
37575,32422
37529,32533
37462,32633
37377,32718
37277,32785
37166,32831
37126,32839
37048,32854
36928,32854
36849,32839
36810,32831
36698,32785
36598,32718
36513,32633
36447,32533
36401,32422
36377,32304
36377,32183
36401,32065
36447,31954
36513,31854
36598,31769
36698,31702
36810,31656
36849,31649
36928,31633
37048,31633
37126,31649
" /> 
<polyline style="fill-rule:evenodd;"
points="50473,31649
50512,31656
50623,31702
50723,31769
50808,31854
50875,31954
50921,32065
50945,32183
50945,32304
50921,32422
50875,32533
50808,32633
50723,32718
50623,32785
50512,32831
50473,32839
50394,32854
50274,32854
50195,32839
50156,32831
50045,32785
49945,32718
49860,32633
49793,32533
49747,32422
49724,32304
49724,32183
49747,32065
49793,31954
49860,31854
49945,31769
50045,31702
50156,31656
50195,31649
50274,31633
50394,31633
50473,31649
" /> 
<polyline style="fill-rule:evenodd;"
points="73386,31649
73426,31656
73537,31702
73637,31769
73722,31854
73789,31954
73835,32065
73858,32183
73858,32304
73835,32422
73789,32533
73722,32633
73637,32718
73537,32785
73426,32831
73386,32839
73308,32854
73187,32854
73109,32839
73069,32831
72958,32785
72858,32718
72773,32633
72706,32533
72660,32422
72637,32304
72637,32183
72660,32065
72706,31954
72773,31854
72858,31769
72958,31702
73069,31656
73109,31649
73187,31633
73308,31633
73386,31649
" /> 
<polyline style="fill-rule:evenodd;"
points="60040,31649
60079,31656
60190,31702
60290,31769
60375,31854
60442,31954
60488,32065
60512,32183
60512,32304
60488,32422
60442,32533
60375,32633
60290,32718
60190,32785
60079,32831
60040,32839
59961,32854
59841,32854
59762,32839
59723,32831
59612,32785
59512,32718
59427,32633
59360,32533
59314,32422
59290,32304
59290,32183
59314,32065
59360,31954
59427,31854
59512,31769
59612,31702
59723,31656
59762,31649
59841,31633
59961,31633
60040,31649
" /> 
<polyline style="fill-rule:evenodd;"
points="61930,31649
61969,31656
62080,31702
62180,31769
62265,31854
62332,31954
62378,32065
62401,32183
62401,32304
62378,32422
62332,32533
62265,32633
62180,32718
62080,32785
61969,32831
61930,32839
61851,32854
61731,32854
61652,32839
61613,32831
61502,32785
61402,32718
61317,32633
61250,32533
61204,32422
61180,32304
61180,32183
61204,32065
61250,31954
61317,31854
61402,31769
61502,31702
61613,31656
61652,31649
61731,31633
61851,31633
61930,31649
" /> 
<polyline style="fill-rule:evenodd;"
points="39016,31649
39056,31656
39167,31702
39267,31769
39352,31854
39419,31954
39465,32065
39488,32183
39488,32304
39465,32422
39419,32533
39352,32633
39267,32718
39167,32785
39056,32831
39016,32839
38938,32854
38817,32854
38739,32839
38699,32831
38588,32785
38488,32718
38403,32633
38336,32533
38290,32422
38267,32304
38267,32183
38290,32065
38336,31954
38403,31854
38488,31769
38588,31702
38699,31656
38739,31649
38817,31633
38938,31633
39016,31649
" /> 
</g> 
</svg>
