M48
;DRILL file {KiCad 5.0.2-bee76a0~70~ubuntu18.04.1} date So 27 Jan 2019 18:53:24 CET
;FORMAT={-:-/ absolute / inch / decimal}
FMAT,2
INCH,TZ
T1C0.0276
T2C0.0295
T3C0.0300
T4C0.0315
T5C0.0394
T6C0.0748
T7C0.1693
%
G90
G05
T2
X5.9449Y-4.7244
X5.9949Y-4.7244
X6.0449Y-4.7244
X4.6555Y-4.6457
X5.0098Y-4.6457
X4.6673Y-3.937
X5.0217Y-3.937
X5.7087Y-4.7244
X5.7587Y-4.7244
X5.8087Y-4.7244
X5.2362Y-4.7244
X5.2862Y-4.7244
X5.3362Y-4.7244
X4.6654Y-4.1732
X5.0197Y-4.1732
X5.4724Y-4.7244
X5.5224Y-4.7244
X5.5724Y-4.7244
X4.6614Y-4.4094
X5.0157Y-4.4094
T3
X3.715Y-4.1559
X3.715Y-4.2559
X3.715Y-4.3559
X3.815Y-4.1559
X3.815Y-4.2559
X3.815Y-4.3559
X5.315Y-3.9764
X5.415Y-3.9764
X5.515Y-3.9764
T4
X5.6398Y-4.311
X5.7382Y-4.311
X4.1201Y-3.9508
X4.1201Y-4.0508
X4.1201Y-4.1508
X4.1201Y-4.2508
X4.1201Y-4.3508
X4.1201Y-4.4508
X4.1201Y-4.5508
X4.1201Y-4.6508
X4.1201Y-4.7508
X4.1201Y-4.8508
X4.4201Y-3.9508
X4.4201Y-4.0508
X4.4201Y-4.1508
X4.4201Y-4.2508
X4.4201Y-4.3508
X4.4201Y-4.4508
X4.4201Y-4.5508
X4.4201Y-4.6508
X4.4201Y-4.7508
X4.4201Y-4.8508
X4.2126Y-3.5433
X4.311Y-3.5433
T6
X6.9291Y-3.8701
X6.9291Y-4.8701
T7
X6.6929Y-5.2756
X4.3307Y-5.2756
T1
X7.0276Y-5.2598G85X7.0276Y-5.2913
G05
X7.4213Y-5.2598G85X7.4213Y-5.2913
G05
X4.7441Y-5.2598G85X4.7441Y-5.2913
G05
X5.1378Y-5.2598G85X5.1378Y-5.2913
G05
X3.6024Y-5.2598G85X3.6024Y-5.2913
G05
X3.9961Y-5.2598G85X3.9961Y-5.2913
G05
X5.8858Y-5.2598G85X5.8858Y-5.2913
G05
X6.2795Y-5.2598G85X6.2795Y-5.2913
G05
T5
X7.2953Y-3.2402G85X7.3543Y-3.2402
G05
X7.2953Y-3.4252G85X7.3543Y-3.4252
G05
X7.2953Y-3.6102G85X7.3543Y-3.6102
G05
X4.878Y-3.2402G85X4.937Y-3.2402
G05
X4.878Y-3.4252G85X4.937Y-3.4252
G05
X4.878Y-3.6102G85X4.937Y-3.6102
G05
X3.6693Y-3.2402G85X3.7283Y-3.2402
G05
X3.6693Y-3.4252G85X3.7283Y-3.4252
G05
X3.6693Y-3.6102G85X3.7283Y-3.6102
G05
X6.0866Y-3.2402G85X6.1457Y-3.2402
G05
X6.0866Y-3.4252G85X6.1457Y-3.4252
G05
X6.0866Y-3.6102G85X6.1457Y-3.6102
G05
T0
M30
