M48
;DRILL file {KiCad 5.0.2-bee76a0~70~ubuntu18.04.1} date So 27 Jan 2019 14:50:39 CET
;FORMAT={-:-/ absolute / inch / decimal}
FMAT,2
INCH,TZ
T1C0.0276
T2C0.0295
T3C0.0300
T4C0.0315
T5C0.0394
T6C0.0500
T7C0.0748
%
G90
G05
T2
X3.7402Y-4.7638
X3.7902Y-4.7638
X3.8402Y-4.7638
X5.3346Y-3.5827
X5.689Y-3.5827
X4.4488Y-4.7638
X4.4988Y-4.7638
X4.5488Y-4.7638
X3.9764Y-4.7638
X4.0264Y-4.7638
X4.0764Y-4.7638
X6.6035Y-3.3858
X6.6535Y-3.3858
X6.7035Y-3.3858
X5.4618Y-3.3858
X5.5118Y-3.3858
X5.5618Y-3.3858
X6.4764Y-3.622
X6.8307Y-3.622
X4.2126Y-4.7638
X4.2626Y-4.7638
X4.3126Y-4.7638
T3
X5.9055Y-4.2488
X5.9055Y-4.3488
X5.9055Y-4.4488
T4
X4.7638Y-4.7638
X4.8622Y-4.7638
X5.0787Y-4.7598
X5.1772Y-4.7598
X3.8362Y-3.8189
X3.8362Y-4.4189
X3.9362Y-3.8189
X3.9362Y-4.4189
X4.0362Y-3.8189
X4.0362Y-4.4189
X4.1362Y-3.8189
X4.1362Y-4.4189
X4.2362Y-3.8189
X4.2362Y-4.4189
X4.3362Y-3.8189
X4.3362Y-4.4189
X4.4362Y-3.8189
X4.4362Y-4.4189
X4.5362Y-3.8189
X4.5362Y-4.4189
X4.6362Y-3.8189
X4.6362Y-4.4189
X4.7362Y-3.8189
X4.7362Y-4.4189
X4.8362Y-3.8189
X4.8362Y-4.4189
X4.9362Y-3.8189
X4.9362Y-4.4189
X5.0362Y-3.8189
X5.0362Y-4.4189
X5.1362Y-3.8189
X5.1362Y-4.4189
X5.2362Y-3.8189
X5.2362Y-4.4189
T6
X5.5518Y-3.8386
X5.5518Y-4.8622
X6.1018Y-3.8386
X6.1018Y-4.8622
T7
X6.9685Y-3.8701
X6.9685Y-4.8701
T1
X3.9961Y-5.2598G85X3.9961Y-5.2913
G05
X5.8858Y-5.2598G85X5.8858Y-5.2913
G05
X6.2795Y-5.2598G85X6.2795Y-5.2913
G05
X7.0276Y-5.2598G85X7.0276Y-5.2913
G05
X7.4213Y-5.2598G85X7.4213Y-5.2913
G05
X4.7441Y-5.2598G85X4.7441Y-5.2913
G05
X5.1378Y-5.2598G85X5.1378Y-5.2913
G05
X3.6024Y-5.2598G85X3.6024Y-5.2913
G05
T5
X4.815Y-3.2244G85X4.874Y-3.2244
G05
X4.815Y-3.4094G85X4.874Y-3.4094
G05
X4.815Y-3.5945G85X4.874Y-3.5945
G05
X5.0039Y-3.2244G85X5.063Y-3.2244
G05
X5.0039Y-3.4094G85X5.063Y-3.4094
G05
X5.0039Y-3.5945G85X5.063Y-3.5945
G05
X5.9606Y-3.2244G85X6.0197Y-3.2244
G05
X5.9606Y-3.4094G85X6.0197Y-3.4094
G05
X5.9606Y-3.5945G85X6.0197Y-3.5945
G05
X6.1496Y-3.2244G85X6.2087Y-3.2244
G05
X6.1496Y-3.4094G85X6.2087Y-3.4094
G05
X6.1496Y-3.5945G85X6.2087Y-3.5945
G05
X3.6693Y-3.2244G85X3.7283Y-3.2244
G05
X3.6693Y-3.4094G85X3.7283Y-3.4094
G05
X3.6693Y-3.5945G85X3.7283Y-3.5945
G05
X3.8583Y-3.2244G85X3.9173Y-3.2244
G05
X3.8583Y-3.4094G85X3.9173Y-3.4094
G05
X3.8583Y-3.5945G85X3.9173Y-3.5945
G05
X7.1063Y-3.2244G85X7.1654Y-3.2244
G05
X7.1063Y-3.4094G85X7.1654Y-3.4094
G05
X7.1063Y-3.5945G85X7.1654Y-3.5945
G05
X7.2953Y-3.2244G85X7.3543Y-3.2244
G05
X7.2953Y-3.4094G85X7.3543Y-3.4094
G05
X7.2953Y-3.5945G85X7.3543Y-3.5945
G05
T0
M30
