<?xml version="1.0" standalone="no"?>
 <!DOCTYPE svg PUBLIC "-//W3C//DTD SVG 1.1//EN" 
 "http://www.w3.org/Graphics/SVG/1.1/DTD/svg11.dtd"> 
<svg xmlns="http://www.w3.org/2000/svg" version="1.1" 
    width="29.7002cm" height="21.0007cm" viewBox="0 0 116930 82680 ">
<title>SVG Picture created as magic-switchboard-B.Cu.svg date 2019/01/26 22:33:22 </title>
  <desc>Picture generated by PCBNEW </desc>
<g style="fill:#000000; fill-opacity:1;stroke:#000000; stroke-opacity:1;
stroke-linecap:round; stroke-linejoin:round; "
 transform="translate(0 0) scale(1 1)">
</g>
<g style="fill:#000000; fill-opacity:0.0; 
stroke:#000000; stroke-width:-0.000393701; stroke-opacity:1; 
stroke-linecap:round; stroke-linejoin:round;">
</g>
<g style="fill:#000000; fill-opacity:1.0; 
stroke:#000000; stroke-width:0; stroke-opacity:1; 
stroke-linecap:round; stroke-linejoin:round;">
<circle cx="66929.1" cy="52755.9" r="1574.8" /> 
</g>
<g style="fill:#000000; fill-opacity:1.0; 
stroke:#000000; stroke-width:39.3701; stroke-opacity:1; 
stroke-linecap:round; stroke-linejoin:round;">
</g>
<g style="fill:#000000; fill-opacity:1.0; 
stroke:#000000; stroke-width:0; stroke-opacity:1; 
stroke-linecap:round; stroke-linejoin:round;">
<polyline style="fill-rule:evenodd;"
points="68110,42125
71259,42125
71259,45275
68110,45275
68110,42125
" /> 
<circle cx="69685" cy="48700.8" r="590.551" /> 
</g>
<g style="fill:#000000; fill-opacity:1.0; 
stroke:#000000; stroke-width:39.3701; stroke-opacity:1; 
stroke-linecap:round; stroke-linejoin:round;">
</g>
<g style="fill:#000000; fill-opacity:1.0; 
stroke:#000000; stroke-width:0; stroke-opacity:1; 
stroke-linecap:round; stroke-linejoin:round;">
<circle cx="69685" cy="38700.8" r="590.551" /> 
</g>
<g style="fill:#000000; fill-opacity:1.0; 
stroke:#000000; stroke-width:39.3701; stroke-opacity:1; 
stroke-linecap:round; stroke-linejoin:round;">
</g>
<g style="fill:#000000; fill-opacity:1.0; 
stroke:#000000; stroke-width:0; stroke-opacity:1; 
stroke-linecap:round; stroke-linejoin:round;">
<circle cx="55517.7" cy="38503.9" r="600" /> 
</g>
<g style="fill:#000000; fill-opacity:1.0; 
stroke:#000000; stroke-width:39.3701; stroke-opacity:1; 
stroke-linecap:round; stroke-linejoin:round;">
</g>
<g style="fill:#000000; fill-opacity:1.0; 
stroke:#000000; stroke-width:0; stroke-opacity:1; 
stroke-linecap:round; stroke-linejoin:round;">
<circle cx="61017.7" cy="38503.9" r="600" /> 
</g>
<g style="fill:#000000; fill-opacity:1.0; 
stroke:#000000; stroke-width:39.3701; stroke-opacity:1; 
stroke-linecap:round; stroke-linejoin:round;">
</g>
<g style="fill:#000000; fill-opacity:1.0; 
stroke:#000000; stroke-width:0; stroke-opacity:1; 
stroke-linecap:round; stroke-linejoin:round;">
<circle cx="61017.7" cy="48503.9" r="600" /> 
</g>
<g style="fill:#000000; fill-opacity:1.0; 
stroke:#000000; stroke-width:39.3701; stroke-opacity:1; 
stroke-linecap:round; stroke-linejoin:round;">
</g>
<g style="fill:#000000; fill-opacity:1.0; 
stroke:#000000; stroke-width:0; stroke-opacity:1; 
stroke-linecap:round; stroke-linejoin:round;">
<circle cx="55517.7" cy="48503.9" r="600" /> 
</g>
<g style="fill:#000000; fill-opacity:1.0; 
stroke:#000000; stroke-width:39.3701; stroke-opacity:1; 
stroke-linecap:round; stroke-linejoin:round;">
</g>
<g style="fill:#000000; fill-opacity:1.0; 
stroke:#000000; stroke-width:0; stroke-opacity:1; 
stroke-linecap:round; stroke-linejoin:round;">
<circle cx="74212.6" cy="52755.9" r="590.551" /> 
</g>
<g style="fill:#000000; fill-opacity:1.0; 
stroke:#000000; stroke-width:39.3701; stroke-opacity:1; 
stroke-linecap:round; stroke-linejoin:round;">
</g>
<g style="fill:#000000; fill-opacity:1.0; 
stroke:#000000; stroke-width:0; stroke-opacity:1; 
stroke-linecap:round; stroke-linejoin:round;">
<circle cx="70275.6" cy="52755.9" r="590.551" /> 
</g>
<g style="fill:#000000; fill-opacity:1.0; 
stroke:#000000; stroke-width:39.3701; stroke-opacity:1; 
stroke-linecap:round; stroke-linejoin:round;">
</g>
<g style="fill:#000000; fill-opacity:1.0; 
stroke:#000000; stroke-width:0; stroke-opacity:1; 
stroke-linecap:round; stroke-linejoin:round;">
<circle cx="62795.3" cy="52755.9" r="590.551" /> 
</g>
<g style="fill:#000000; fill-opacity:1.0; 
stroke:#000000; stroke-width:39.3701; stroke-opacity:1; 
stroke-linecap:round; stroke-linejoin:round;">
</g>
<g style="fill:#000000; fill-opacity:1.0; 
stroke:#000000; stroke-width:0; stroke-opacity:1; 
stroke-linecap:round; stroke-linejoin:round;">
<circle cx="58858.3" cy="52755.9" r="590.551" /> 
</g>
<g style="fill:#000000; fill-opacity:1.0; 
stroke:#000000; stroke-width:39.3701; stroke-opacity:1; 
stroke-linecap:round; stroke-linejoin:round;">
</g>
<g style="fill:#000000; fill-opacity:1.0; 
stroke:#000000; stroke-width:0; stroke-opacity:1; 
stroke-linecap:round; stroke-linejoin:round;">
<circle cx="51378" cy="52755.9" r="590.551" /> 
</g>
<g style="fill:#000000; fill-opacity:1.0; 
stroke:#000000; stroke-width:39.3701; stroke-opacity:1; 
stroke-linecap:round; stroke-linejoin:round;">
</g>
<g style="fill:#000000; fill-opacity:1.0; 
stroke:#000000; stroke-width:0; stroke-opacity:1; 
stroke-linecap:round; stroke-linejoin:round;">
<circle cx="47440.9" cy="52755.9" r="590.551" /> 
</g>
<g style="fill:#000000; fill-opacity:1.0; 
stroke:#000000; stroke-width:39.3701; stroke-opacity:1; 
stroke-linecap:round; stroke-linejoin:round;">
</g>
<g style="fill:#000000; fill-opacity:1.0; 
stroke:#000000; stroke-width:0; stroke-opacity:1; 
stroke-linecap:round; stroke-linejoin:round;">
<circle cx="39960.6" cy="52755.9" r="590.551" /> 
</g>
<g style="fill:#000000; fill-opacity:1.0; 
stroke:#000000; stroke-width:39.3701; stroke-opacity:1; 
stroke-linecap:round; stroke-linejoin:round;">
</g>
<g style="fill:#000000; fill-opacity:1.0; 
stroke:#000000; stroke-width:0; stroke-opacity:1; 
stroke-linecap:round; stroke-linejoin:round;">
<circle cx="36023.6" cy="52755.9" r="590.551" /> 
</g>
<g style="fill:#000000; fill-opacity:1.0; 
stroke:#000000; stroke-width:39.3701; stroke-opacity:1; 
stroke-linecap:round; stroke-linejoin:round;">
</g>
<g style="fill:#000000; fill-opacity:1.0; 
stroke:#000000; stroke-width:629.921; stroke-opacity:1; 
stroke-linecap:round; stroke-linejoin:round;">
</g>
<g style="fill:#000000; fill-opacity:0.0; 
stroke:#000000; stroke-width:629.921; stroke-opacity:1; 
stroke-linecap:round; stroke-linejoin:round;">
<path d="M38362 44188
L38362 44188
" />
<path d="M38362 38188
L38362 38188
" />
<path d="M52362 44188
L52362 44188
" />
<path d="M39362 38188
L39362 38188
" />
<path d="M51362 44188
L51362 44188
" />
<path d="M40362 38188
L40362 38188
" />
<path d="M50362 44188
L50362 44188
" />
<path d="M41362 38188
L41362 38188
" />
<path d="M49362 44188
L49362 44188
" />
<path d="M42362 38188
L42362 38188
" />
<path d="M48362 44188
L48362 44188
" />
<path d="M43362 38188
L43362 38188
" />
<path d="M47362 44188
L47362 44188
" />
<path d="M44362 38188
L44362 38188
" />
<path d="M46362 44188
L46362 44188
" />
<path d="M45362 38188
L45362 38188
" />
<path d="M45362 44188
L45362 44188
" />
<path d="M46362 38188
L46362 38188
" />
<path d="M44362 44188
L44362 44188
" />
<path d="M47362 38188
L47362 38188
" />
<path d="M43362 44188
L43362 44188
" />
<path d="M48362 38188
L48362 38188
" />
<path d="M42362 44188
L42362 44188
" />
<path d="M49362 38188
L49362 38188
" />
<path d="M41362 44188
L41362 44188
" />
<path d="M50362 38188
L50362 38188
" />
<path d="M40362 44188
L40362 44188
" />
<path d="M51362 38188
L51362 38188
" />
<path d="M39362 44188
L39362 44188
" />
</g>
<g style="fill:#000000; fill-opacity:0.0; 
stroke:#000000; stroke-width:0; stroke-opacity:1; 
stroke-linecap:round; stroke-linejoin:round;">
</g>
<g style="fill:#000000; fill-opacity:1.0; 
stroke:#000000; stroke-width:0; stroke-opacity:1; 
stroke-linecap:round; stroke-linejoin:round;">
<polyline style="fill-rule:evenodd;"
points="52047,37874
52677,37874
52677,38503
52047,38503
52047,37874
" /> 
<circle cx="48622" cy="47637.8" r="314.961" /> 
</g>
<g style="fill:#000000; fill-opacity:1.0; 
stroke:#000000; stroke-width:39.3701; stroke-opacity:1; 
stroke-linecap:round; stroke-linejoin:round;">
</g>
<g style="fill:#000000; fill-opacity:1.0; 
stroke:#000000; stroke-width:0; stroke-opacity:1; 
stroke-linecap:round; stroke-linejoin:round;">
<polyline style="fill-rule:evenodd;"
points="47322,47952
47322,47322
47952,47322
47952,47952
47322,47952
" /> 
<circle cx="51771.7" cy="47598.4" r="314.961" /> 
</g>
<g style="fill:#000000; fill-opacity:1.0; 
stroke:#000000; stroke-width:39.3701; stroke-opacity:1; 
stroke-linecap:round; stroke-linejoin:round;">
</g>
<g style="fill:#000000; fill-opacity:1.0; 
stroke:#000000; stroke-width:0; stroke-opacity:1; 
stroke-linecap:round; stroke-linejoin:round;">
<polyline style="fill-rule:evenodd;"
points="50472,47913
50472,47283
51102,47283
51102,47913
50472,47913
" /> 
<polyline style="fill-rule:evenodd;"
points="65828,34153
65828,33562
66242,33562
66242,34153
65828,34153
" /> 
<polyline style="fill-rule:evenodd;"
points="67148,33563
67158,33564
67168,33567
67178,33570
67187,33575
67196,33580
67204,33586
67211,33593
67218,33600
67224,33608
67229,33617
67234,33626
67237,33636
67240,33646
67241,33656
67242,33666
67242,34050
67241,34060
67240,34070
67237,34080
67234,34089
67229,34098
67224,34107
67218,34115
67211,34123
67204,34130
67196,34136
67187,34141
67178,34145
67168,34149
67158,34151
67148,34153
67138,34153
66932,34153
66921,34153
66911,34151
66902,34149
66892,34145
66883,34141
66874,34136
66866,34130
66859,34123
66852,34115
66846,34107
66840,34098
66836,34089
66833,34080
66830,34070
66829,34060
66828,34050
66828,33666
66829,33656
66830,33646
66833,33636
66836,33626
66840,33617
66846,33608
66852,33600
66859,33593
66866,33586
66874,33580
66883,33575
66892,33570
66902,33567
66911,33564
66921,33563
66932,33562
67138,33562
67148,33563
" /> 
<polyline style="fill-rule:evenodd;"
points="66648,33563
66658,33564
66668,33567
66678,33570
66687,33575
66696,33580
66704,33586
66711,33593
66718,33600
66724,33608
66729,33617
66734,33626
66737,33636
66740,33646
66741,33656
66742,33666
66742,34050
66741,34060
66740,34070
66737,34080
66734,34089
66729,34098
66724,34107
66718,34115
66711,34123
66704,34130
66696,34136
66687,34141
66678,34145
66668,34149
66658,34151
66648,34153
66638,34153
66432,34153
66421,34153
66411,34151
66402,34149
66392,34145
66383,34141
66374,34136
66366,34130
66359,34123
66352,34115
66346,34107
66340,34098
66336,34089
66333,34080
66330,34070
66329,34060
66328,34050
66328,33666
66329,33656
66330,33646
66333,33636
66336,33626
66340,33617
66346,33608
66352,33600
66359,33593
66366,33586
66374,33580
66383,33575
66392,33570
66402,33567
66411,33564
66421,33563
66432,33562
66638,33562
66648,33563
" /> 
<polyline style="fill-rule:evenodd;"
points="54411,34153
54411,33562
54824,33562
54824,34153
54411,34153
" /> 
<polyline style="fill-rule:evenodd;"
points="55731,33563
55741,33564
55751,33567
55761,33570
55770,33575
55778,33580
55787,33586
55794,33593
55801,33600
55807,33608
55812,33617
55816,33626
55820,33636
55822,33646
55824,33656
55824,33666
55824,34050
55824,34060
55822,34070
55820,34080
55816,34089
55812,34098
55807,34107
55801,34115
55794,34123
55787,34130
55778,34136
55770,34141
55761,34145
55751,34149
55741,34151
55731,34153
55721,34153
55514,34153
55504,34153
55494,34151
55484,34149
55475,34145
55466,34141
55457,34136
55449,34130
55441,34123
55434,34115
55428,34107
55423,34098
55419,34089
55415,34080
55413,34070
55411,34060
55411,34050
55411,33666
55411,33656
55413,33646
55415,33636
55419,33626
55423,33617
55428,33608
55434,33600
55441,33593
55449,33586
55457,33580
55466,33575
55475,33570
55484,33567
55494,33564
55504,33563
55514,33562
55721,33562
55731,33563
" /> 
<polyline style="fill-rule:evenodd;"
points="55231,33563
55241,33564
55251,33567
55261,33570
55270,33575
55278,33580
55287,33586
55294,33593
55301,33600
55307,33608
55312,33617
55316,33626
55320,33636
55322,33646
55324,33656
55324,33666
55324,34050
55324,34060
55322,34070
55320,34080
55316,34089
55312,34098
55307,34107
55301,34115
55294,34123
55287,34130
55278,34136
55270,34141
55261,34145
55251,34149
55241,34151
55231,34153
55221,34153
55014,34153
55004,34153
54994,34151
54984,34149
54975,34145
54966,34141
54957,34136
54949,34130
54941,34123
54934,34115
54928,34107
54923,34098
54919,34089
54915,34080
54913,34070
54911,34060
54911,34050
54911,33666
54911,33656
54913,33646
54915,33636
54919,33626
54923,33617
54928,33608
54934,33600
54941,33593
54949,33586
54957,33580
54966,33575
54975,33570
54984,33567
54994,33564
55004,33563
55014,33562
55221,33562
55231,33563
" /> 
<polyline style="fill-rule:evenodd;"
points="44281,47933
44281,47342
44694,47342
44694,47933
44281,47933
" /> 
<polyline style="fill-rule:evenodd;"
points="45601,47343
45611,47344
45621,47346
45631,47350
45640,47354
45648,47359
45657,47365
45664,47372
45671,47380
45677,47388
45682,47397
45687,47406
45690,47415
45692,47425
45694,47435
45694,47445
45694,47829
45694,47839
45692,47849
45690,47859
45687,47869
45682,47878
45677,47887
45671,47895
45664,47902
45657,47909
45648,47915
45640,47920
45631,47925
45621,47928
45611,47931
45601,47932
45591,47933
45384,47933
45374,47932
45364,47931
45354,47928
45345,47925
45336,47920
45327,47915
45319,47909
45311,47902
45304,47895
45298,47887
45293,47878
45289,47869
45285,47859
45283,47849
45281,47839
45281,47829
45281,47445
45281,47435
45283,47425
45285,47415
45289,47406
45293,47397
45298,47388
45304,47380
45311,47372
45319,47365
45327,47359
45336,47354
45345,47350
45354,47346
45364,47344
45374,47343
45384,47342
45591,47342
45601,47343
" /> 
<polyline style="fill-rule:evenodd;"
points="45101,47343
45111,47344
45121,47346
45131,47350
45140,47354
45148,47359
45157,47365
45164,47372
45171,47380
45177,47388
45182,47397
45187,47406
45190,47415
45192,47425
45194,47435
45194,47445
45194,47829
45194,47839
45192,47849
45190,47859
45187,47869
45182,47878
45177,47887
45171,47895
45164,47902
45157,47909
45148,47915
45140,47920
45131,47925
45121,47928
45111,47931
45101,47932
45091,47933
44884,47933
44874,47932
44864,47931
44854,47928
44845,47925
44836,47920
44827,47915
44819,47909
44811,47902
44804,47895
44798,47887
44793,47878
44789,47869
44785,47859
44783,47849
44781,47839
44781,47829
44781,47445
44781,47435
44783,47425
44785,47415
44789,47406
44793,47397
44798,47388
44804,47380
44811,47372
44819,47365
44827,47359
44836,47354
44845,47350
44854,47346
44864,47344
44874,47343
44884,47342
45091,47342
45101,47343
" /> 
<polyline style="fill-rule:evenodd;"
points="41919,47933
41919,47342
42332,47342
42332,47933
41919,47933
" /> 
<polyline style="fill-rule:evenodd;"
points="43239,47343
43249,47344
43259,47346
43268,47350
43278,47354
43286,47359
43294,47365
43302,47372
43309,47380
43315,47388
43320,47397
43324,47406
43328,47415
43330,47425
43332,47435
43332,47445
43332,47829
43332,47839
43330,47849
43328,47859
43324,47869
43320,47878
43315,47887
43309,47895
43302,47902
43294,47909
43286,47915
43278,47920
43268,47925
43259,47928
43249,47931
43239,47932
43229,47933
43022,47933
43012,47932
43002,47931
42992,47928
42983,47925
42973,47920
42965,47915
42957,47909
42949,47902
42942,47895
42936,47887
42931,47878
42927,47869
42923,47859
42921,47849
42919,47839
42919,47829
42919,47445
42919,47435
42921,47425
42923,47415
42927,47406
42931,47397
42936,47388
42942,47380
42949,47372
42957,47365
42965,47359
42973,47354
42983,47350
42992,47346
43002,47344
43012,47343
43022,47342
43229,47342
43239,47343
" /> 
<polyline style="fill-rule:evenodd;"
points="42739,47343
42749,47344
42759,47346
42768,47350
42778,47354
42786,47359
42794,47365
42802,47372
42809,47380
42815,47388
42820,47397
42824,47406
42828,47415
42830,47425
42832,47435
42832,47445
42832,47829
42832,47839
42830,47849
42828,47859
42824,47869
42820,47878
42815,47887
42809,47895
42802,47902
42794,47909
42786,47915
42778,47920
42768,47925
42759,47928
42749,47931
42739,47932
42729,47933
42522,47933
42512,47932
42502,47931
42492,47928
42483,47925
42473,47920
42465,47915
42457,47909
42449,47902
42442,47895
42436,47887
42431,47878
42427,47869
42423,47859
42421,47849
42419,47839
42419,47829
42419,47445
42419,47435
42421,47425
42423,47415
42427,47406
42431,47397
42436,47388
42442,47380
42449,47372
42457,47365
42465,47359
42473,47354
42483,47350
42492,47346
42502,47344
42512,47343
42522,47342
42729,47342
42739,47343
" /> 
<polyline style="fill-rule:evenodd;"
points="39557,47933
39557,47342
39970,47342
39970,47933
39557,47933
" /> 
<polyline style="fill-rule:evenodd;"
points="40877,47343
40887,47344
40897,47346
40906,47350
40915,47354
40924,47359
40932,47365
40940,47372
40947,47380
40953,47388
40958,47397
40962,47406
40966,47415
40968,47425
40969,47435
40970,47445
40970,47829
40969,47839
40968,47849
40966,47859
40962,47869
40958,47878
40953,47887
40947,47895
40940,47902
40932,47909
40924,47915
40915,47920
40906,47925
40897,47928
40887,47931
40877,47932
40867,47933
40660,47933
40650,47932
40640,47931
40630,47928
40620,47925
40611,47920
40603,47915
40594,47909
40587,47902
40580,47895
40574,47887
40569,47878
40564,47869
40561,47859
40559,47849
40557,47839
40557,47829
40557,47445
40557,47435
40559,47425
40561,47415
40564,47406
40569,47397
40574,47388
40580,47380
40587,47372
40594,47365
40603,47359
40611,47354
40620,47350
40630,47346
40640,47344
40650,47343
40660,47342
40867,47342
40877,47343
" /> 
<polyline style="fill-rule:evenodd;"
points="40377,47343
40387,47344
40397,47346
40406,47350
40415,47354
40424,47359
40432,47365
40440,47372
40447,47380
40453,47388
40458,47397
40462,47406
40466,47415
40468,47425
40469,47435
40470,47445
40470,47829
40469,47839
40468,47849
40466,47859
40462,47869
40458,47878
40453,47887
40447,47895
40440,47902
40432,47909
40424,47915
40415,47920
40406,47925
40397,47928
40387,47931
40377,47932
40367,47933
40160,47933
40150,47932
40140,47931
40130,47928
40120,47925
40111,47920
40103,47915
40094,47909
40087,47902
40080,47895
40074,47887
40069,47878
40064,47869
40061,47859
40059,47849
40057,47839
40057,47829
40057,47445
40057,47435
40059,47425
40061,47415
40064,47406
40069,47397
40074,47388
40080,47380
40087,47372
40094,47365
40103,47359
40111,47354
40120,47350
40130,47346
40140,47344
40150,47343
40160,47342
40367,47342
40377,47343
" /> 
<polyline style="fill-rule:evenodd;"
points="37194,47933
37194,47342
37608,47342
37608,47933
37194,47933
" /> 
<polyline style="fill-rule:evenodd;"
points="38515,47343
38525,47344
38534,47346
38544,47350
38553,47354
38562,47359
38570,47365
38577,47372
38584,47380
38590,47388
38596,47397
38600,47406
38603,47415
38606,47425
38607,47435
38608,47445
38608,47829
38607,47839
38606,47849
38603,47859
38600,47869
38596,47878
38590,47887
38584,47895
38577,47902
38570,47909
38562,47915
38553,47920
38544,47925
38534,47928
38525,47931
38515,47932
38504,47933
38298,47933
38288,47932
38278,47931
38268,47928
38258,47925
38249,47920
38240,47915
38232,47909
38225,47902
38218,47895
38212,47887
38207,47878
38202,47869
38199,47859
38196,47849
38195,47839
38194,47829
38194,47445
38195,47435
38196,47425
38199,47415
38202,47406
38207,47397
38212,47388
38218,47380
38225,47372
38232,47365
38240,47359
38249,47354
38258,47350
38268,47346
38278,47344
38288,47343
38298,47342
38504,47342
38515,47343
" /> 
<polyline style="fill-rule:evenodd;"
points="38015,47343
38025,47344
38034,47346
38044,47350
38053,47354
38062,47359
38070,47365
38077,47372
38084,47380
38090,47388
38096,47397
38100,47406
38103,47415
38106,47425
38107,47435
38108,47445
38108,47829
38107,47839
38106,47849
38103,47859
38100,47869
38096,47878
38090,47887
38084,47895
38077,47902
38070,47909
38062,47915
38053,47920
38044,47925
38034,47928
38025,47931
38015,47932
38004,47933
37798,47933
37788,47932
37778,47931
37768,47928
37758,47925
37749,47920
37740,47915
37732,47909
37725,47902
37718,47895
37712,47887
37707,47878
37702,47869
37699,47859
37696,47849
37695,47839
37694,47829
37694,47445
37695,47435
37696,47425
37699,47415
37702,47406
37707,47397
37712,47388
37718,47380
37725,47372
37732,47365
37740,47359
37749,47354
37758,47350
37768,47346
37778,47344
37788,47343
37798,47342
38004,47342
38015,47343
" /> 
<circle cx="68307.1" cy="36220.5" r="393.701" /> 
</g>
<g style="fill:#000000; fill-opacity:1.0; 
stroke:#000000; stroke-width:39.3701; stroke-opacity:1; 
stroke-linecap:round; stroke-linejoin:round;">
</g>
<g style="fill:#000000; fill-opacity:1.0; 
stroke:#000000; stroke-width:0; stroke-opacity:1; 
stroke-linecap:round; stroke-linejoin:round;">
<circle cx="64763.8" cy="36220.5" r="393.701" /> 
</g>
<g style="fill:#000000; fill-opacity:1.0; 
stroke:#000000; stroke-width:39.3701; stroke-opacity:1; 
stroke-linecap:round; stroke-linejoin:round;">
</g>
<g style="fill:#000000; fill-opacity:1.0; 
stroke:#000000; stroke-width:0; stroke-opacity:1; 
stroke-linecap:round; stroke-linejoin:round;">
<circle cx="53346.5" cy="35826.8" r="393.701" /> 
</g>
<g style="fill:#000000; fill-opacity:1.0; 
stroke:#000000; stroke-width:39.3701; stroke-opacity:1; 
stroke-linecap:round; stroke-linejoin:round;">
</g>
<g style="fill:#000000; fill-opacity:1.0; 
stroke:#000000; stroke-width:0; stroke-opacity:1; 
stroke-linecap:round; stroke-linejoin:round;">
<circle cx="56889.8" cy="35826.8" r="393.701" /> 
</g>
<g style="fill:#000000; fill-opacity:1.0; 
stroke:#000000; stroke-width:39.3701; stroke-opacity:1; 
stroke-linecap:round; stroke-linejoin:round;">
</g>
<g style="fill:#000000; fill-opacity:1.0; 
stroke:#000000; stroke-width:0; stroke-opacity:1; 
stroke-linecap:round; stroke-linejoin:round;">
<circle cx="38878" cy="34094.5" r="590.551" /> 
</g>
<g style="fill:#000000; fill-opacity:1.0; 
stroke:#000000; stroke-width:39.3701; stroke-opacity:1; 
stroke-linecap:round; stroke-linejoin:round;">
</g>
<g style="fill:#000000; fill-opacity:1.0; 
stroke:#000000; stroke-width:0; stroke-opacity:1; 
stroke-linecap:round; stroke-linejoin:round;">
<circle cx="38878" cy="35944.9" r="590.551" /> 
</g>
<g style="fill:#000000; fill-opacity:1.0; 
stroke:#000000; stroke-width:39.3701; stroke-opacity:1; 
stroke-linecap:round; stroke-linejoin:round;">
</g>
<g style="fill:#000000; fill-opacity:1.0; 
stroke:#000000; stroke-width:0; stroke-opacity:1; 
stroke-linecap:round; stroke-linejoin:round;">
<circle cx="38878" cy="32244.1" r="590.551" /> 
</g>
<g style="fill:#000000; fill-opacity:1.0; 
stroke:#000000; stroke-width:39.3701; stroke-opacity:1; 
stroke-linecap:round; stroke-linejoin:round;">
</g>
<g style="fill:#000000; fill-opacity:1.0; 
stroke:#000000; stroke-width:0; stroke-opacity:1; 
stroke-linecap:round; stroke-linejoin:round;">
<circle cx="36988.2" cy="35944.9" r="590.551" /> 
</g>
<g style="fill:#000000; fill-opacity:1.0; 
stroke:#000000; stroke-width:39.3701; stroke-opacity:1; 
stroke-linecap:round; stroke-linejoin:round;">
</g>
<g style="fill:#000000; fill-opacity:1.0; 
stroke:#000000; stroke-width:0; stroke-opacity:1; 
stroke-linecap:round; stroke-linejoin:round;">
<circle cx="36988.2" cy="34094.5" r="590.551" /> 
</g>
<g style="fill:#000000; fill-opacity:1.0; 
stroke:#000000; stroke-width:39.3701; stroke-opacity:1; 
stroke-linecap:round; stroke-linejoin:round;">
</g>
<g style="fill:#000000; fill-opacity:1.0; 
stroke:#000000; stroke-width:0; stroke-opacity:1; 
stroke-linecap:round; stroke-linejoin:round;">
<circle cx="36988.2" cy="32244.1" r="590.551" /> 
</g>
<g style="fill:#000000; fill-opacity:1.0; 
stroke:#000000; stroke-width:39.3701; stroke-opacity:1; 
stroke-linecap:round; stroke-linejoin:round;">
</g>
<g style="fill:#000000; fill-opacity:1.0; 
stroke:#000000; stroke-width:0; stroke-opacity:1; 
stroke-linecap:round; stroke-linejoin:round;">
<circle cx="50334.6" cy="34094.5" r="590.551" /> 
</g>
<g style="fill:#000000; fill-opacity:1.0; 
stroke:#000000; stroke-width:39.3701; stroke-opacity:1; 
stroke-linecap:round; stroke-linejoin:round;">
</g>
<g style="fill:#000000; fill-opacity:1.0; 
stroke:#000000; stroke-width:0; stroke-opacity:1; 
stroke-linecap:round; stroke-linejoin:round;">
<circle cx="50334.6" cy="35944.9" r="590.551" /> 
</g>
<g style="fill:#000000; fill-opacity:1.0; 
stroke:#000000; stroke-width:39.3701; stroke-opacity:1; 
stroke-linecap:round; stroke-linejoin:round;">
</g>
<g style="fill:#000000; fill-opacity:1.0; 
stroke:#000000; stroke-width:0; stroke-opacity:1; 
stroke-linecap:round; stroke-linejoin:round;">
<circle cx="50334.6" cy="32244.1" r="590.551" /> 
</g>
<g style="fill:#000000; fill-opacity:1.0; 
stroke:#000000; stroke-width:39.3701; stroke-opacity:1; 
stroke-linecap:round; stroke-linejoin:round;">
</g>
<g style="fill:#000000; fill-opacity:1.0; 
stroke:#000000; stroke-width:0; stroke-opacity:1; 
stroke-linecap:round; stroke-linejoin:round;">
<circle cx="48444.9" cy="35944.9" r="590.551" /> 
</g>
<g style="fill:#000000; fill-opacity:1.0; 
stroke:#000000; stroke-width:39.3701; stroke-opacity:1; 
stroke-linecap:round; stroke-linejoin:round;">
</g>
<g style="fill:#000000; fill-opacity:1.0; 
stroke:#000000; stroke-width:0; stroke-opacity:1; 
stroke-linecap:round; stroke-linejoin:round;">
<circle cx="48444.9" cy="34094.5" r="590.551" /> 
</g>
<g style="fill:#000000; fill-opacity:1.0; 
stroke:#000000; stroke-width:39.3701; stroke-opacity:1; 
stroke-linecap:round; stroke-linejoin:round;">
</g>
<g style="fill:#000000; fill-opacity:1.0; 
stroke:#000000; stroke-width:0; stroke-opacity:1; 
stroke-linecap:round; stroke-linejoin:round;">
<circle cx="48444.9" cy="32244.1" r="590.551" /> 
</g>
<g style="fill:#000000; fill-opacity:1.0; 
stroke:#000000; stroke-width:39.3701; stroke-opacity:1; 
stroke-linecap:round; stroke-linejoin:round;">
</g>
<g style="fill:#000000; fill-opacity:1.0; 
stroke:#000000; stroke-width:0; stroke-opacity:1; 
stroke-linecap:round; stroke-linejoin:round;">
<circle cx="61791.3" cy="34094.5" r="590.551" /> 
</g>
<g style="fill:#000000; fill-opacity:1.0; 
stroke:#000000; stroke-width:39.3701; stroke-opacity:1; 
stroke-linecap:round; stroke-linejoin:round;">
</g>
<g style="fill:#000000; fill-opacity:1.0; 
stroke:#000000; stroke-width:0; stroke-opacity:1; 
stroke-linecap:round; stroke-linejoin:round;">
<circle cx="61791.3" cy="35944.9" r="590.551" /> 
</g>
<g style="fill:#000000; fill-opacity:1.0; 
stroke:#000000; stroke-width:39.3701; stroke-opacity:1; 
stroke-linecap:round; stroke-linejoin:round;">
</g>
<g style="fill:#000000; fill-opacity:1.0; 
stroke:#000000; stroke-width:0; stroke-opacity:1; 
stroke-linecap:round; stroke-linejoin:round;">
<circle cx="61791.3" cy="32244.1" r="590.551" /> 
</g>
<g style="fill:#000000; fill-opacity:1.0; 
stroke:#000000; stroke-width:39.3701; stroke-opacity:1; 
stroke-linecap:round; stroke-linejoin:round;">
</g>
<g style="fill:#000000; fill-opacity:1.0; 
stroke:#000000; stroke-width:0; stroke-opacity:1; 
stroke-linecap:round; stroke-linejoin:round;">
<circle cx="59901.6" cy="35944.9" r="590.551" /> 
</g>
<g style="fill:#000000; fill-opacity:1.0; 
stroke:#000000; stroke-width:39.3701; stroke-opacity:1; 
stroke-linecap:round; stroke-linejoin:round;">
</g>
<g style="fill:#000000; fill-opacity:1.0; 
stroke:#000000; stroke-width:0; stroke-opacity:1; 
stroke-linecap:round; stroke-linejoin:round;">
<circle cx="59901.6" cy="34094.5" r="590.551" /> 
</g>
<g style="fill:#000000; fill-opacity:1.0; 
stroke:#000000; stroke-width:39.3701; stroke-opacity:1; 
stroke-linecap:round; stroke-linejoin:round;">
</g>
<g style="fill:#000000; fill-opacity:1.0; 
stroke:#000000; stroke-width:0; stroke-opacity:1; 
stroke-linecap:round; stroke-linejoin:round;">
<circle cx="59901.6" cy="32244.1" r="590.551" /> 
</g>
<g style="fill:#000000; fill-opacity:1.0; 
stroke:#000000; stroke-width:39.3701; stroke-opacity:1; 
stroke-linecap:round; stroke-linejoin:round;">
</g>
<g style="fill:#000000; fill-opacity:1.0; 
stroke:#000000; stroke-width:0; stroke-opacity:1; 
stroke-linecap:round; stroke-linejoin:round;">
<circle cx="73248" cy="34094.5" r="590.551" /> 
</g>
<g style="fill:#000000; fill-opacity:1.0; 
stroke:#000000; stroke-width:39.3701; stroke-opacity:1; 
stroke-linecap:round; stroke-linejoin:round;">
</g>
<g style="fill:#000000; fill-opacity:1.0; 
stroke:#000000; stroke-width:0; stroke-opacity:1; 
stroke-linecap:round; stroke-linejoin:round;">
<circle cx="73248" cy="35944.9" r="590.551" /> 
</g>
<g style="fill:#000000; fill-opacity:1.0; 
stroke:#000000; stroke-width:39.3701; stroke-opacity:1; 
stroke-linecap:round; stroke-linejoin:round;">
</g>
<g style="fill:#000000; fill-opacity:1.0; 
stroke:#000000; stroke-width:0; stroke-opacity:1; 
stroke-linecap:round; stroke-linejoin:round;">
<circle cx="73248" cy="32244.1" r="590.551" /> 
</g>
<g style="fill:#000000; fill-opacity:1.0; 
stroke:#000000; stroke-width:39.3701; stroke-opacity:1; 
stroke-linecap:round; stroke-linejoin:round;">
</g>
<g style="fill:#000000; fill-opacity:1.0; 
stroke:#000000; stroke-width:0; stroke-opacity:1; 
stroke-linecap:round; stroke-linejoin:round;">
<circle cx="71358.3" cy="35944.9" r="590.551" /> 
</g>
<g style="fill:#000000; fill-opacity:1.0; 
stroke:#000000; stroke-width:39.3701; stroke-opacity:1; 
stroke-linecap:round; stroke-linejoin:round;">
</g>
<g style="fill:#000000; fill-opacity:1.0; 
stroke:#000000; stroke-width:0; stroke-opacity:1; 
stroke-linecap:round; stroke-linejoin:round;">
<circle cx="71358.3" cy="34094.5" r="590.551" /> 
</g>
<g style="fill:#000000; fill-opacity:1.0; 
stroke:#000000; stroke-width:39.3701; stroke-opacity:1; 
stroke-linecap:round; stroke-linejoin:round;">
</g>
<g style="fill:#000000; fill-opacity:1.0; 
stroke:#000000; stroke-width:0; stroke-opacity:1; 
stroke-linecap:round; stroke-linejoin:round;">
<circle cx="71358.3" cy="32244.1" r="590.551" /> 
</g>
<g style="fill:#000000; fill-opacity:1.0; 
stroke:#000000; stroke-width:39.3701; stroke-opacity:1; 
stroke-linecap:round; stroke-linejoin:round;">
</g>
<g style="fill:#000000; fill-opacity:1.0; 
stroke:#000000; stroke-width:0; stroke-opacity:1; 
stroke-linecap:round; stroke-linejoin:round;">
<circle cx="43307.1" cy="52755.9" r="1574.8" /> 
</g>
<g style="fill:#000000; fill-opacity:1.0; 
stroke:#000000; stroke-width:39.3701; stroke-opacity:1; 
stroke-linecap:round; stroke-linejoin:round;">
</g>
<g style="fill:#000000; fill-opacity:0.0; 
stroke:#000000; stroke-width:39.3701; stroke-opacity:1; 
stroke-linecap:round; stroke-linejoin:round;">
<path d="M50787 45763
L52362 44188
" />
<path d="M50787 47598
L50787 45763
" />
<path d="M55517 41033
L55517 38503
" />
<path d="M52362 44188
L55517 41033
" />
<path d="M50787 49409
L47440 52755
" />
<path d="M50787 47598
L50787 49409
" />
<path d="M57283 36220
L56889 35826
" />
<path d="M58927 37864
L57283 36220
" />
<path d="M68848 37864
L58927 37864
" />
<path d="M69685 38700
L68848 37864
" />
<path d="M56117 47903
L55517 48503
" />
<path d="M55384 37424
L56157 38197
" />
<path d="M56157 47864
L56117 47903
" />
<path d="M56157 38197
L56157 47864
" />
<path d="M55384 34091
L55384 37424
" />
<path d="M55618 33858
L55384 34091
" />
</g>
<g style="fill:#000000; fill-opacity:1.0; 
stroke:#000000; stroke-width:100; stroke-opacity:1; 
stroke-linecap:round; stroke-linejoin:round;">
<polyline style="fill-rule:evenodd;"
points="36147,32076
36147,32411
36275,32720
36512,32956
36820,33084
37155,33084
37464,32956
37700,32720
37828,32411
37828,32076
37703,31775
38162,31775
38037,32076
38037,32411
38165,32720
38401,32956
38710,33084
39045,33084
39354,32956
39590,32720
39718,32411
39718,32076
39593,31775
47729,31775
47604,32076
47604,32411
47732,32720
47968,32956
48277,33084
48612,33084
48921,32956
49157,32720
49285,32411
49285,32076
49160,31775
49618,31775
49494,32076
49494,32411
49622,32720
49858,32956
50167,33084
50501,33084
50810,32956
51047,32720
51175,32411
51175,32076
51050,31775
59185,31775
59061,32076
59061,32411
59188,32720
59425,32956
59734,33084
60068,33084
60377,32956
60614,32720
60742,32411
60742,32076
60617,31775
61075,31775
60950,32076
60950,32411
61078,32720
61315,32956
61624,33084
61958,33084
62267,32956
62503,32720
62631,32411
62631,32076
62507,31775
70642,31775
70517,32076
70517,32411
70645,32720
70882,32956
71191,33084
71525,33084
71834,32956
72070,32720
72198,32411
72198,32076
72074,31775
72532,31775
72407,32076
72407,32411
72535,32720
72771,32956
73080,33084
73415,33084
73724,32956
73960,32720
74088,32411
74088,32076
73963,31775
74523,31775
74523,51974
74379,51915
74045,51915
73736,52043
73500,52279
73372,52588
73372,52923
73500,53232
73736,53468
74045,53596
74379,53596
74523,53536
74523,55625
35712,55625
35712,53536
35856,53596
36190,53596
36499,53468
36736,53232
36864,52923
36864,52588
39120,52588
39120,52923
39248,53232
39484,53468
39793,53596
40127,53596
40436,53468
40673,53232
40801,52923
40801,52588
40720,52392
41482,52392
41482,53118
41760,53789
42273,54302
42944,54580
43670,54580
44340,54302
44854,53789
45131,53118
45131,52588
46600,52588
46600,52923
46728,53232
46964,53468
47273,53596
47608,53596
47917,53468
48153,53232
48281,52923
48281,52588
50537,52588
50537,52923
50665,53232
50901,53468
51210,53596
51545,53596
51854,53468
52090,53232
52218,52923
52218,52588
58017,52588
58017,52923
58145,53232
58382,53468
58691,53596
59025,53596
59334,53468
59570,53232
59698,52923
59698,52588
61954,52588
61954,52923
62082,53232
62319,53468
62628,53596
62962,53596
63271,53468
63507,53232
63635,52923
63635,52588
63554,52392
65104,52392
65104,53118
65382,53789
65895,54302
66566,54580
67292,54580
67962,54302
68476,53789
68753,53118
68753,52588
69435,52588
69435,52923
69563,53232
69799,53468
70108,53596
70442,53596
70751,53468
70988,53232
71116,52923
71116,52588
70988,52279
70751,52043
70442,51915
70108,51915
69799,52043
69563,52279
69435,52588
68753,52588
68753,52392
68476,51722
67962,51208
67292,50931
66566,50931
65895,51208
65382,51722
65104,52392
63554,52392
63507,52279
63271,52043
62962,51915
62628,51915
62319,52043
62082,52279
61954,52588
59698,52588
59570,52279
59334,52043
59025,51915
58691,51915
58382,52043
58145,52279
58017,52588
52218,52588
52090,52279
51854,52043
51545,51915
51210,51915
50901,52043
50665,52279
50537,52588
48281,52588
48195,52382
50959,49618
50981,49603
51041,49514
51057,49436
51057,49436
51062,49409
51057,49382
51057,48168
51102,48168
51199,48148
51282,48093
51337,48010
51340,47995
51445,47995
51474,48092
51686,48168
51910,48157
52068,48092
52097,47995
51771,47669
51445,47995
51340,47995
51356,47918
51374,47924
51700,47598
51842,47598
52168,47924
52265,47895
52341,47683
52330,47459
52265,47301
52168,47272
51842,47598
51700,47598
51374,47272
51356,47278
51340,47201
51445,47201
51771,47527
52097,47201
52068,47104
51856,47028
51632,47039
51474,47104
51445,47201
51340,47201
51337,47185
51282,47103
51199,47047
51102,47028
51057,47028
51057,45875
52199,44732
52306,44753
52417,44753
52582,44721
52769,44596
52894,44409
52938,44188
52905,44026
55689,41242
55712,41227
55727,41205
55727,41205
55771,41138
55771,41138
55787,41060
55787,41060
55792,41033
55787,41006
55787,39312
55887,39270
55887,47737
55686,47653
55348,47653
55036,47783
54797,48022
54667,48334
54667,48673
54797,48985
55036,49224
55348,49353
55686,49353
55999,49224
56116,49106
60485,49106
60549,49233
60864,49356
61202,49350
61485,49233
61549,49106
61017,48574
60485,49106
56116,49106
56238,48985
56367,48673
56367,48350
60164,48350
60170,48688
60288,48972
60414,49036
60947,48503
61088,48503
61620,49036
61747,48972
61870,48657
61868,48533
68844,48533
68844,48867
68972,49176
69208,49413
69517,49541
69852,49541
70161,49413
70397,49176
70525,48867
70525,48533
70397,48224
70161,47988
69852,47860
69517,47860
69208,47988
68972,48224
68844,48533
61868,48533
61864,48319
61747,48035
61620,47971
61088,48503
60947,48503
60414,47971
60288,48035
60164,48350
56367,48350
56367,48334
56279,48123
56327,48075
56327,48075
56329,48074
56351,48058
56411,47969
56424,47901
60485,47901
61017,48433
61549,47901
61485,47774
61171,47650
60832,47657
60549,47774
60485,47901
56424,47901
56426,47891
56426,47891
56432,47864
56426,47838
56426,43813
67860,43813
67860,45325
67898,45417
67968,45487
68060,45525
69572,45525
69635,45463
69635,43750
69735,43750
69735,45463
69797,45525
71309,45525
71401,45487
71471,45417
71509,45325
71509,43813
71447,43750
69735,43750
69635,43750
67922,43750
67860,43813
56426,43813
56426,42076
67860,42076
67860,43588
67922,43650
69635,43650
69635,41938
69735,41938
69735,43650
71447,43650
71509,43588
71509,42076
71471,41984
71401,41914
71309,41875
69797,41875
69735,41938
69635,41938
69572,41875
68060,41875
67968,41914
67898,41984
67860,42076
56426,42076
56426,39106
60485,39106
60549,39233
60864,39356
61202,39350
61485,39233
61549,39106
61017,38574
60485,39106
56426,39106
56426,38223
56432,38197
56426,38170
56411,38091
56399,38074
56366,38025
56366,38025
56351,38002
56329,37987
55654,37312
55654,35698
56246,35698
56246,35954
56344,36191
56525,36372
56761,36470
57017,36470
57112,36431
58718,38036
58733,38058
58755,38074
58755,38074
58782,38091
58822,38118
58900,38134
58900,38134
58927,38139
58954,38134
60249,38134
60164,38350
60170,38688
60288,38972
60414,39036
60947,38503
60941,38498
61012,38427
61017,38433
61023,38427
61093,38498
61088,38503
61620,39036
61747,38972
61870,38657
61864,38319
61787,38134
68737,38134
68930,38327
68844,38533
68844,38867
68972,39176
69208,39413
69517,39541
69852,39541
70161,39413
70397,39176
70525,38867
70525,38533
70397,38224
70161,37988
69852,37860
69517,37860
69311,37945
69058,37692
69043,37670
68954,37610
68875,37594
68875,37594
68848,37589
68822,37594
59039,37594
57985,36540
59376,36540
59439,36666
59750,36788
60084,36782
60364,36666
60426,36540
61265,36540
61328,36666
61640,36788
61974,36782
62253,36666
62316,36540
61791,36015
61265,36540
60426,36540
59901,36015
59376,36540
57985,36540
57494,36049
57533,35954
57533,35793
59057,35793
59064,36128
59180,36407
59305,36470
59830,35944
59972,35944
60497,36470
60623,36407
60745,36095
60739,35793
60947,35793
60954,36128
61069,36407
61195,36470
61720,35944
61862,35944
62387,36470
62512,36407
62634,36095
62634,36092
64120,36092
64120,36348
64218,36585
64399,36766
64635,36864
64891,36864
65128,36766
65309,36585
65407,36348
65407,36092
67663,36092
67663,36348
67761,36585
67942,36766
68179,36864
68435,36864
68671,36766
68852,36585
68871,36540
70832,36540
70895,36666
71207,36788
71541,36782
71820,36666
71883,36540
72722,36540
72785,36666
73096,36788
73431,36782
73710,36666
73773,36540
73248,36015
72722,36540
71883,36540
71358,36015
70832,36540
68871,36540
68950,36348
68950,36092
68852,35855
68790,35793
70514,35793
70521,36128
70636,36407
70762,36470
71287,35944
71428,35944
71954,36470
72079,36407
72201,36095
72196,35793
72404,35793
72410,36128
72526,36407
72651,36470
73177,35944
73318,35944
73844,36470
73969,36407
74091,36095
74085,35761
73969,35482
73844,35419
73318,35944
73177,35944
72651,35419
72526,35482
72404,35793
72196,35793
72195,35761
72079,35482
71954,35419
71428,35944
71287,35944
70762,35419
70636,35482
70514,35793
68790,35793
68671,35674
68435,35576
68179,35576
67942,35674
67761,35855
67663,36092
65407,36092
65309,35855
65128,35674
64891,35576
64635,35576
64399,35674
64218,35855
64120,36092
62634,36092
62628,35761
62512,35482
62387,35419
61862,35944
61720,35944
61195,35419
61069,35482
60947,35793
60739,35793
60738,35761
60623,35482
60497,35419
59972,35944
59830,35944
59305,35419
59180,35482
59057,35793
57533,35793
57533,35698
57435,35462
57322,35348
59376,35348
59901,35874
60426,35348
61265,35348
61791,35874
62316,35348
70832,35348
71358,35874
71883,35348
72722,35348
73248,35874
73773,35348
73710,35223
73399,35101
73064,35107
72785,35223
72722,35348
71883,35348
71820,35223
71509,35101
71175,35107
70895,35223
70832,35348
62316,35348
62253,35223
61942,35101
61608,35107
61328,35223
61265,35348
60426,35348
60364,35223
60052,35101
59718,35107
59439,35223
59376,35348
57322,35348
57254,35281
57017,35183
56761,35183
56525,35281
56344,35462
56246,35698
55654,35698
55654,34408
55721,34408
55858,34381
55974,34303
56052,34187
56079,34050
56079,33927
59061,33927
59061,34261
59188,34570
59425,34807
59734,34935
60068,34935
60377,34807
60614,34570
60742,34261
60742,33927
60950,33927
60950,34261
61078,34570
61315,34807
61624,34935
61958,34935
62267,34807
62503,34570
62631,34261
62631,33927
62503,33618
62448,33562
65573,33562
65573,34153
65593,34251
65648,34333
65731,34389
65828,34408
66242,34408
66337,34389
66432,34408
66638,34408
66741,34388
66779,34403
66922,34403
66985,34341
66985,34108
66997,34050
66997,33908
67085,33908
67085,34341
67147,34403
67291,34403
67383,34365
67454,34295
67492,34203
67492,33970
67448,33927
70517,33927
70517,34261
70645,34570
70882,34807
71191,34935
71525,34935
71834,34807
72070,34570
72198,34261
72198,33927
72407,33927
72407,34261
72535,34570
72771,34807
73080,34935
73415,34935
73724,34807
73960,34570
74088,34261
74088,33927
73960,33618
73724,33381
73415,33253
73080,33253
72771,33381
72535,33618
72407,33927
72198,33927
72070,33618
71834,33381
71525,33253
71191,33253
70882,33381
70645,33618
70517,33927
67448,33927
67429,33908
67085,33908
66997,33908
66997,33666
66985,33608
66985,33375
67085,33375
67085,33808
67429,33808
67492,33745
67492,33513
67454,33421
67383,33351
67291,33312
67147,33312
67085,33375
66985,33375
66922,33312
66779,33312
66741,33328
66638,33308
66432,33308
66337,33326
66242,33308
65828,33308
65731,33327
65648,33382
65593,33465
65573,33562
62448,33562
62267,33381
61958,33253
61624,33253
61315,33381
61078,33618
60950,33927
60742,33927
60614,33618
60377,33381
60068,33253
59734,33253
59425,33381
59188,33618
59061,33927
56079,33927
56079,33666
56052,33529
55974,33413
55858,33335
55721,33308
55514,33308
55377,33335
55368,33341
55358,33335
55221,33308
55014,33308
54919,33326
54824,33308
54411,33308
54313,33327
54231,33382
54175,33465
54156,33562
54156,34153
54175,34251
54231,34333
54313,34389
54411,34408
54824,34408
54919,34389
55014,34408
55114,34408
55114,37398
55109,37424
55130,37529
55190,37618
55212,37634
55266,37687
55036,37783
54797,38022
54667,38334
54667,38673
54797,38985
55036,39224
55248,39312
55248,40921
52524,43645
52417,43624
52306,43624
52141,43656
51954,43781
51853,43932
51815,43852
51652,43704
51499,43640
51412,43689
51412,44138
51420,44138
51420,44238
51412,44238
51412,44688
51456,44713
50615,45554
50592,45569
50577,45591
50533,45658
50512,45763
50517,45790
50517,47028
50472,47028
50374,47047
50292,47103
50236,47185
50217,47283
50217,47913
50236,48010
50292,48093
50374,48148
50472,48168
50517,48168
50517,49297
47814,52000
47608,51915
47273,51915
46964,52043
46728,52279
46600,52588
45131,52588
45131,52392
44854,51722
44340,51208
43670,50931
42944,50931
42273,51208
41760,51722
41482,52392
40720,52392
40673,52279
40436,52043
40127,51915
39793,51915
39484,52043
39248,52279
39120,52588
36864,52588
36736,52279
36499,52043
36190,51915
35856,51915
35712,51974
35712,47750
36944,47750
36944,47982
36982,48074
37053,48145
37145,48183
37289,48183
37351,48120
37351,47687
37007,47687
36944,47750
35712,47750
35712,47292
36944,47292
36944,47525
37007,47587
37351,47587
37351,47445
37439,47445
37439,47829
37451,47887
37451,48120
37514,48183
37657,48183
37695,48167
37798,48187
38004,48187
38142,48160
38151,48154
38161,48160
38298,48187
38504,48187
38642,48160
38758,48083
38835,47966
38863,47829
38863,47750
39307,47750
39307,47982
39345,48074
39415,48145
39507,48183
39651,48183
39713,48120
39713,47687
39369,47687
39307,47750
38863,47750
38863,47445
38835,47308
38825,47292
39307,47292
39307,47525
39369,47587
39713,47587
39713,47445
39802,47445
39802,47829
39813,47887
39813,48120
39876,48183
40020,48183
40057,48167
40160,48187
40367,48187
40504,48160
40513,48154
40523,48160
40660,48187
40867,48187
41004,48160
41120,48083
41198,47966
41225,47829
41225,47750
41669,47750
41669,47982
41707,48074
41777,48145
41869,48183
42013,48183
42075,48120
42075,47687
41731,47687
41669,47750
41225,47750
41225,47445
41198,47308
41187,47292
41669,47292
41669,47525
41731,47587
42075,47587
42075,47445
42164,47445
42164,47829
42175,47887
42175,48120
42238,48183
42382,48183
42419,48167
42522,48187
42729,48187
42866,48160
42875,48154
42885,48160
43022,48187
43229,48187
43366,48160
43482,48083
43560,47966
43587,47829
43587,47750
44031,47750
44031,47982
44069,48074
44139,48145
44231,48183
44375,48183
44438,48120
44438,47687
44093,47687
44031,47750
43587,47750
43587,47445
43560,47308
43549,47292
44031,47292
44031,47525
44093,47587
44438,47587
44438,47445
44526,47445
44526,47829
44538,47887
44538,48120
44600,48183
44744,48183
44782,48167
44884,48187
45091,48187
45228,48160
45238,48154
45247,48160
45384,48187
45591,48187
45728,48160
45844,48083
45922,47966
45949,47829
45949,47445
45925,47322
47067,47322
47067,47952
47087,48050
47142,48132
47225,48188
47322,48207
47952,48207
48050,48188
48132,48132
48188,48050
48191,48034
48296,48034
48325,48131
48536,48207
48761,48196
48918,48131
48948,48034
48622,47708
48296,48034
48191,48034
48206,47958
48225,47963
48551,47637
48692,47637
49018,47963
49115,47934
49191,47723
49181,47498
49115,47340
49018,47311
48692,47637
48551,47637
48225,47311
48206,47317
48191,47241
48296,47241
48622,47567
48948,47241
48918,47144
48707,47068
48482,47078
48325,47144
48296,47241
48191,47241
48188,47225
48132,47142
48050,47087
47952,47067
47322,47067
47225,47087
47142,47142
47087,47225
47067,47322
45925,47322
45922,47308
45844,47192
45728,47114
45591,47087
45384,47087
45247,47114
45238,47121
45228,47114
45091,47087
44884,47087
44782,47108
44744,47092
44600,47092
44538,47155
44538,47387
44526,47445
44438,47445
44438,47155
44375,47092
44231,47092
44139,47130
44069,47200
44031,47292
43549,47292
43482,47192
43366,47114
43229,47087
43022,47087
42885,47114
42875,47121
42866,47114
42729,47087
42522,47087
42419,47108
42382,47092
42238,47092
42175,47155
42175,47387
42164,47445
42075,47445
42075,47155
42013,47092
41869,47092
41777,47130
41707,47200
41669,47292
41187,47292
41120,47192
41004,47114
40867,47087
40660,47087
40523,47114
40513,47121
40504,47114
40367,47087
40160,47087
40057,47108
40020,47092
39876,47092
39813,47155
39813,47387
39802,47445
39713,47445
39713,47155
39651,47092
39507,47092
39415,47130
39345,47200
39307,47292
38825,47292
38758,47192
38642,47114
38504,47087
38298,47087
38161,47114
38151,47121
38142,47114
38004,47087
37798,47087
37695,47108
37657,47092
37514,47092
37451,47155
37451,47387
37439,47445
37351,47445
37351,47155
37289,47092
37145,47092
37053,47130
36982,47200
36944,47292
35712,47292
35712,44188
37786,44188
37830,44409
37954,44596
38141,44721
38306,44753
38417,44753
38582,44721
38769,44596
38862,44457
38954,44596
39141,44721
39306,44753
39417,44753
39582,44721
39769,44596
39862,44457
39954,44596
40141,44721
40306,44753
40417,44753
40582,44721
40769,44596
40862,44457
40954,44596
41141,44721
41306,44753
41417,44753
41582,44721
41769,44596
41862,44457
41954,44596
42141,44721
42306,44753
42417,44753
42582,44721
42769,44596
42862,44457
42954,44596
43141,44721
43306,44753
43417,44753
43582,44721
43769,44596
43862,44457
43954,44596
44141,44721
44306,44753
44417,44753
44582,44721
44769,44596
44862,44457
44954,44596
45141,44721
45306,44753
45417,44753
45582,44721
45769,44596
45862,44457
45954,44596
46141,44721
46306,44753
46417,44753
46582,44721
46769,44596
46862,44457
46954,44596
47141,44721
47306,44753
47417,44753
47582,44721
47769,44596
47862,44457
47954,44596
48141,44721
48306,44753
48417,44753
48582,44721
48769,44596
48862,44457
48954,44596
49141,44721
49306,44753
49417,44753
49582,44721
49769,44596
49862,44457
49954,44596
50141,44721
50306,44753
50417,44753
50582,44721
50769,44596
50870,44445
50908,44525
51071,44673
51224,44736
51312,44688
51312,44238
51304,44238
51304,44138
51312,44138
51312,43689
51224,43640
51071,43704
50908,43852
50870,43932
50769,43781
50582,43656
50417,43624
50306,43624
50141,43656
49954,43781
49862,43920
49769,43781
49582,43656
49417,43624
49306,43624
49141,43656
48954,43781
48862,43920
48769,43781
48582,43656
48417,43624
48306,43624
48141,43656
47954,43781
47862,43920
47769,43781
47582,43656
47417,43624
47306,43624
47141,43656
46954,43781
46862,43920
46769,43781
46582,43656
46417,43624
46306,43624
46141,43656
45954,43781
45862,43920
45769,43781
45582,43656
45417,43624
45306,43624
45141,43656
44954,43781
44862,43920
44769,43781
44582,43656
44417,43624
44306,43624
44141,43656
43954,43781
43862,43920
43769,43781
43582,43656
43417,43624
43306,43624
43141,43656
42954,43781
42862,43920
42769,43781
42582,43656
42417,43624
42306,43624
42141,43656
41954,43781
41862,43920
41769,43781
41582,43656
41417,43624
41306,43624
41141,43656
40954,43781
40862,43920
40769,43781
40582,43656
40417,43624
40306,43624
40141,43656
39954,43781
39862,43920
39769,43781
39582,43656
39417,43624
39306,43624
39141,43656
38954,43781
38862,43920
38769,43781
38582,43656
38417,43624
38306,43624
38141,43656
37954,43781
37830,43968
37786,44188
35712,44188
35712,38188
37786,38188
37830,38409
37954,38596
38141,38721
38306,38753
38417,38753
38582,38721
38769,38596
38862,38457
38954,38596
39141,38721
39306,38753
39417,38753
39582,38721
39769,38596
39862,38457
39954,38596
40141,38721
40306,38753
40417,38753
40582,38721
40769,38596
40862,38457
40954,38596
41141,38721
41306,38753
41417,38753
41582,38721
41769,38596
41862,38457
41954,38596
42141,38721
42306,38753
42417,38753
42582,38721
42769,38596
42862,38457
42954,38596
43141,38721
43306,38753
43417,38753
43582,38721
43769,38596
43862,38457
43954,38596
44141,38721
44306,38753
44417,38753
44582,38721
44769,38596
44862,38457
44954,38596
45141,38721
45306,38753
45417,38753
45582,38721
45769,38596
45862,38457
45954,38596
46141,38721
46306,38753
46417,38753
46582,38721
46769,38596
46862,38457
46954,38596
47141,38721
47306,38753
47417,38753
47582,38721
47769,38596
47862,38457
47954,38596
48141,38721
48306,38753
48417,38753
48582,38721
48769,38596
48862,38457
48954,38596
49141,38721
49306,38753
49417,38753
49582,38721
49769,38596
49862,38457
49954,38596
50141,38721
50306,38753
50417,38753
50582,38721
50769,38596
50862,38457
50954,38596
51141,38721
51306,38753
51417,38753
51582,38721
51769,38596
51801,38548
51811,38601
51867,38684
51949,38739
52047,38758
52677,38758
52774,38739
52857,38684
52912,38601
52932,38503
52932,37874
52912,37776
52857,37693
52774,37638
52677,37619
52047,37619
51949,37638
51867,37693
51811,37776
51801,37829
51769,37781
51582,37656
51417,37624
51306,37624
51141,37656
50954,37781
50862,37920
50769,37781
50582,37656
50417,37624
50306,37624
50141,37656
49954,37781
49862,37920
49769,37781
49582,37656
49417,37624
49306,37624
49141,37656
48954,37781
48862,37920
48769,37781
48582,37656
48417,37624
48306,37624
48141,37656
47954,37781
47862,37920
47769,37781
47582,37656
47417,37624
47306,37624
47141,37656
46954,37781
46862,37920
46769,37781
46582,37656
46417,37624
46306,37624
46141,37656
45954,37781
45862,37920
45769,37781
45582,37656
45417,37624
45306,37624
45141,37656
44954,37781
44862,37920
44769,37781
44582,37656
44417,37624
44306,37624
44141,37656
43954,37781
43862,37920
43769,37781
43582,37656
43417,37624
43306,37624
43141,37656
42954,37781
42862,37920
42769,37781
42582,37656
42417,37624
42306,37624
42141,37656
41954,37781
41862,37920
41769,37781
41582,37656
41417,37624
41306,37624
41141,37656
40954,37781
40862,37920
40769,37781
40582,37656
40417,37624
40306,37624
40141,37656
39954,37781
39862,37920
39769,37781
39582,37656
39417,37624
39306,37624
39141,37656
38954,37781
38862,37920
38769,37781
38582,37656
38417,37624
38306,37624
38141,37656
37954,37781
37830,37968
37786,38188
35712,38188
35712,36540
36462,36540
36525,36666
36837,36788
37171,36782
37450,36666
37513,36540
38352,36540
38415,36666
38726,36788
39061,36782
39340,36666
39403,36540
47919,36540
47982,36666
48293,36788
48628,36782
48907,36666
48970,36540
49809,36540
49872,36666
50183,36788
50517,36782
50797,36666
50859,36540
50334,36015
49809,36540
48970,36540
48444,36015
47919,36540
39403,36540
38877,36015
38352,36540
37513,36540
36988,36015
36462,36540
35712,36540
35712,35793
36144,35793
36150,36128
36266,36407
36392,36470
36917,35944
37058,35944
37584,36470
37709,36407
37831,36095
37826,35793
38034,35793
38040,36128
38156,36407
38281,36470
38807,35944
38948,35944
39474,36470
39599,36407
39721,36095
39715,35793
47601,35793
47607,36128
47723,36407
47848,36470
48374,35944
48515,35944
49040,36470
49166,36407
49288,36095
49282,35793
49491,35793
49497,36128
49613,36407
49738,36470
50263,35944
50405,35944
50930,36470
51056,36407
51178,36095
51171,35761
51145,35698
52702,35698
52702,35954
52800,36191
52981,36372
53218,36470
53474,36470
53711,36372
53892,36191
53990,35954
53990,35698
53892,35462
53711,35281
53474,35183
53218,35183
52981,35281
52800,35462
52702,35698
51145,35698
51056,35482
50930,35419
50405,35944
50263,35944
49738,35419
49613,35482
49491,35793
49282,35793
49282,35761
49166,35482
49040,35419
48515,35944
48374,35944
47848,35419
47723,35482
47601,35793
39715,35793
39715,35761
39599,35482
39474,35419
38948,35944
38807,35944
38281,35419
38156,35482
38034,35793
37826,35793
37825,35761
37709,35482
37584,35419
37058,35944
36917,35944
36392,35419
36266,35482
36144,35793
35712,35793
35712,35348
36462,35348
36988,35874
37513,35348
38352,35348
38877,35874
39403,35348
47919,35348
48444,35874
48970,35348
49809,35348
50334,35874
50859,35348
50797,35223
50485,35101
50151,35107
49872,35223
49809,35348
48970,35348
48907,35223
48595,35101
48261,35107
47982,35223
47919,35348
39403,35348
39340,35223
39029,35101
38694,35107
38415,35223
38352,35348
37513,35348
37450,35223
37139,35101
36804,35107
36525,35223
36462,35348
35712,35348
35712,33927
36147,33927
36147,34261
36275,34570
36512,34807
36820,34935
37155,34935
37464,34807
37700,34570
37828,34261
37828,33927
38037,33927
38037,34261
38165,34570
38401,34807
38710,34935
39045,34935
39354,34807
39590,34570
39718,34261
39718,33927
47604,33927
47604,34261
47732,34570
47968,34807
48277,34935
48612,34935
48921,34807
49157,34570
49285,34261
49285,33927
49494,33927
49494,34261
49622,34570
49858,34807
50167,34935
50501,34935
50810,34807
51047,34570
51175,34261
51175,33927
51047,33618
50810,33381
50501,33253
50167,33253
49858,33381
49622,33618
49494,33927
49285,33927
49157,33618
48921,33381
48612,33253
48277,33253
47968,33381
47732,33618
47604,33927
39718,33927
39590,33618
39354,33381
39045,33253
38710,33253
38401,33381
38165,33618
38037,33927
37828,33927
37700,33618
37464,33381
37155,33253
36820,33253
36512,33381
36275,33618
36147,33927
35712,33927
35712,31775
36272,31775
36147,32076
" /> 
</g> 
</svg>
